<?xml version="1.0" encoding="utf-8"?>
<!-- Generator: Adobe Illustrator 16.0.4, SVG Export Plug-In . SVG Version: 6.00 Build 0)  -->
<!DOCTYPE svg PUBLIC "-//W3C//DTD SVG 1.1//EN" "http://www.w3.org/Graphics/SVG/1.1/DTD/svg11.dtd">
<svg version="1.1" id="svg" xmlns="http://www.w3.org/2000/svg" xmlns:xlink="http://www.w3.org/1999/xlink" x="0px" y="0px"
	 width="968px" height="648px" viewBox="0 0 968 648" enable-background="new 0 0 968 648" xml:space="preserve">
<g id="image">
	
		<image overflow="visible" enable-background="new    " width="3872" height="2592" xlink:href="AK03_20071003_205314.JPG"  transform="matrix(0.25 0 0 0.25 0 0)">
	</image>
</g>
<g id="gcp-peaks">
	<circle id="P4930" fill="#FF0000" cx="230.75" cy="191.5" r="0.25"/>
	<circle id="P7010" fill="#FF0000" cx="399.25" cy="190.75" r="0.25"/>
	<circle id="TOOTH" fill="#FF0000" cx="524.625" cy="178.125" r="0.25"/>
	<circle id="P7930" fill="#FF0000" cx="571.938" cy="174.938" r="0.25"/>
	<circle id="TRIANGLEPK" fill="#FF0000" cx="666.125" cy="162.625" r="0.25"/>
</g>
<g id="gcp">
	<circle id="JNCSLDR" fill="#FF0000" cx="862.812" cy="258.188" r="0.25"/>
	<circle id="CCFG005" fill="#FF0000" cx="42.75" cy="586" r="0.25"/>
	<circle id="CCFG004" fill="#FF0000" cx="89" cy="612.75" r="0.25"/>
	<circle id="nipple" fill="#FF0000" cx="38.438" cy="236.5" r="0.25"/>
	<circle id="kadin-cairin" fill="#FF0000" cx="154.125" cy="203.312" r="0.25"/>
	<circle id="xcrack" fill="#FF0000" cx="779.188" cy="233.375" r="0.25"/>
</g>
<g id="coast">
	<polyline fill="none" stroke="#FF0000" stroke-width="0.25" stroke-miterlimit="10" points="115,321.083 121.833,321.083 
		130,321.167 138.416,321 146.916,320.583 151,320.417 156.833,320.417 163.25,320.333 171.75,320.167 178.833,319.833 
		185.666,319.583 191.25,319.5 197.25,319.667 202.166,319.25 	"/>
</g>
<g id="horizon">
</g>
</svg>
