<?xml version="1.0" encoding="utf-8"?>
<!-- Generator: Adobe Illustrator 16.0.4, SVG Export Plug-In . SVG Version: 6.00 Build 0)  -->
<!DOCTYPE svg PUBLIC "-//W3C//DTD SVG 1.1//EN" "http://www.w3.org/Graphics/SVG/1.1/DTD/svg11.dtd">
<svg version="1.1" id="svg" xmlns="http://www.w3.org/2000/svg" xmlns:xlink="http://www.w3.org/1999/xlink" x="0px" y="0px"
	 width="816px" height="612px" viewBox="0 0 816 612" enable-background="new 0 0 816 612" xml:space="preserve">
<g id="image">
	
		<image overflow="visible" enable-background="new    " width="3264" height="2448" xlink:href="CG04_20040709_160053.JPG"  transform="matrix(0.25 0 0 0.25 0 0)">
	</image>
</g>
<g id="gcp">
	<circle id="cairin-up" fill="#FF0000" cx="708.583" cy="517.011" r="0.25"/>
	<circle id="cairin-dwn" fill="#FF0000" cx="450.875" cy="516.5" r="0.25"/>
	<circle id="kaidin-cairin" fill="#FF0000" cx="490.45" cy="208.7" r="0.25"/>
	<circle id="P4930" fill="#FF0000" cx="553.5" cy="181.625" r="0.25"/>
	<circle id="P7010" fill="#FF0000" cx="718" cy="185.4" r="0.25"/>
	<circle id="blotch" fill="#FF0000" cx="99.82" cy="264.146" r="0.25"/>
	<circle id="nipple" fill="#FF0000" cx="397.131" cy="234.421" r="0.25"/>
	<circle id="splitrock" fill="#FF0000" cx="465.375" cy="248.25" r="0.25"/>
	<circle id="cluster" fill="#FF0000" cx="469.3" cy="253.55" r="0.25"/>
</g>
<g id="horizon">
	<path fill="none" stroke="#FF0000" stroke-width="0.25" stroke-miterlimit="10" d="M-0.042,168.625l1.083,0.042l0.583,0.25
		l0.75,0.542l0.5-0.5l1.458-1.292l2-0.958L8,166.375h0.917l1.75-1.208l1.917-0.333l1.917-1.208l0.917-0.75L17,162.708l2,0.042
		l1.167,0.292l1.5-0.125l1.5,0.167l0.583,0.125l1-0.125l1,0.167l1,0.208l0.917-0.417l1.042-0.083l1.5,0.583l1.5,0.875l1.542,0.5
		l0.625,0.375l0.75,0.625l1.458-0.333l2.25-0.042l1.458,0.75l0.708,0.792l1.458-0.125l0.917-0.167l1.333,0.333l0.75,0.583
		l0.917,0.208L47.167,168l1.333,0.125l1.625,0.417l1.208,0.708L53,170l0.667,0.333l1.083-0.458l1.625-0.958l2.042-0.292l0.958-0.167
		l1.125-0.625l1.25-0.333l1.291,0.5l1.333,0.417l0.833,0.667l1.333,0.875l1.708,0.667l1.75,0.583l1.292,0.125l1.583,0.625
		l1.833-0.083l1.417,0.333l1.042,0.458l0.625-0.292l1.417,0.083l1,0.833l1.25,0.375l1.167,0.167l1.125-0.208l1.542,0.167
		l1.625,0.667L88.5,175l1.208,0.292h1.208l1.333,0.333l1.167,0.5l1.667,0.792l1.75,0.75l1.375,0.542l1.667,0.542l1.083,0.417
		l1.624,0.792l1.208,0.458l0.708,0.292l0.625,0.167l1.833-0.292l1.208-0.292l1.083-0.583l1.75-0.292l2.208-0.042l1.292-0.125
		l1.125-0.667l1.25-0.792l1.292-0.083h1.75l2.374,0.5l0.917,0.333l1.958,0.417l1.458,0.542l2.208,0.75l1.917,0.833l1.333,0.458
		l1.417,0.833l1.708,1.042l1.083,0.167l1.042-0.042l1.458-0.333l1.167-0.083h1.042l0.583-0.292l1.25-0.375l1.666,0.083l1.417,0.208
		l0.833,0.042l1.708-0.708l2.125-0.75l1.958-0.042l1.125-0.375l1.792-0.333l1.458-0.125l0.625-0.042l0.958-0.792l1.292-0.833
		l1.5-0.042l1.417,0.125l0.625-0.042l1.458-1.583l2.042-1.458l1.75-1.458l0.708-0.75l0.375-0.917l0.792-0.75l1.417-0.333l1.5-1.083
		l2.458-1.292l3.25-2.458l2.875-2.125l3-1.875l1.833-1.125l0.916-0.959l0.917-1.292l0.708-1.708l1.5-1.417l0.958-1.25l1.125-1.25
		l1.625-0.667l1.75-0.5l0.75-0.458l1.624-2.458l2.125-2.333l2.542-2.542l2.708-1.708l2.667-1.458l3.375-1.333l3.125-0.958l2-0.875
		l2.458-1.417l2.333-1.542l2.875-1.958l2.542-1.083l3.292-0.875l2.167-0.333l2.458-0.417l1.958,0.208l1.542,0.042l0.708,0.375
		l1.958,0.042l1.958,0.042l1.459,0l1,0.333l1.458,0.167l1.25-0.292l1.25-0.583l1.083,0.167l1.125,0.417l0.833,0.625l0.792,0.583
		l0.667,0.333l1.042-0.417l0.917-0.917l1.792-0.625l1.25-0.25l0.875,0.125l1.083,0.125l1.417,0.542l0.875,0.792l0.708,0.75
		l1.375,0.167l1.458-0.625l2.042-0.25l1.375,0.333h1.375l1.042-0.417l1.667-1l2.625-1.125l2.333-1l1-0.542l1.458-0.167l1.167-0.5
		l1.875-0.958l2.667-1.542l2.708-0.875l2.417-0.542l1.833,0.167l1.542,0.542l1.25,0.083l1.083-0.708l2.542-1.875l2.417-1.75
		l2.875-0.958l3.083-0.667l1.75-0.375l2.125,0.125l1.167,0.125l0.458,0.542l0.5,1l0.292,0.583l0.5,0.75l1.042,0.333l0.416,0.375
		l0.917,0.917l0.875,0.458l1.792,0.667l1.583,0.875l0.583,0.5l0.875-0.042l0.542,0.333l0.417,0.333l1.708,0.167l1.75-0.208
		l1.708-0.083l2.333,0.042l1.917,0.458l0.917-0.208l0.75,0.167l0.875,0.333l0.625-0.125l0.917,0.625l0.542,0.958l0.875,1.583
		l0.208,0.833l0.333,0.833l0.583,0.417l1.083-0.375l0.708-0.583l1.5-0.042l1.5,0.458l1.125,0.25l1,0.417l0.583,0.083l1.292-0.458
		l1.666-0.458l2.333-0.042l1.542,0.25l1.125,1.167l2.167,2.625l0.708,0.583l0.25,0.917l0.417,0.833l1.083,1.333l1.708,2.167
		l2.625,3.542l1.458,1.708l0.792,0.375l1.542-0.208l1.917,0.042l1,0.417l1.208,0.417l1.583,0.125l1.167,0.375l0.625,0.875
		l0.458,0.791l0.75,0.75l0.167,0.792l0.458,1l1.167,0.875l0.625,0.708l2.667,1.5l2.625,2l3.667,2.458l2.417,1.5l3.833,2.75
		l1.792,2.292l1.458,1.25l2.125,2.167l0.667,0.75l0.792-0.208l1.042-0.083l0.708,0.375l0.417,0.25h0.75l0.375,0.333l0.75,0.5
		l1.166,1.125l0.75,0.167l0.5,0.375l1.083,1.958l0.75,1.583l0.709,1.958l0.291,0.792l0.334,0.458l0.833-0.542l0.917-1.167
		l1.083-1.583l1.167-0.958l1.5-0.042l1.125,0.708l0.958,0.5l0.875,0.25h2.083l2.833-0.25l1.167-0.333l0.666-0.25l0.667-0.333
		l0.542,0.375l0.333,0.542l0.542,0.292l1.041-0.583l2.167-0.75l2.083-0.375l0.959-0.208l0.541-0.292l0.5,0.167l0.584,0.667
		l0.708,0.75l1.292,0.417l2.125-0.583l1.125-0.167l1,0.25l1.708,0.708l1.917,1.333l1.916,1.5l1.917,1.458l0.791,0.25l0.709,0.125
		l0.25,0.583l0.5,0.792l1.041,0.5l0.834,0.25l1.208-0.125l0.833-0.333l1,0.167l0.75,0.542l0.584,0.5l0.458,0.208l0.5-0.167
		l0.5-1.375l0.75-1l1-0.708l1.167-0.333l0.375-0.167l1.125,0.417l1.25,0.083l0.833-0.417l1.125-0.667l1.5-0.333l0.542,0.167
		l0.708-0.167l0.708-0.25l1.334-0.125l0.916,0.125l0.459,0.75l0.083,0.708l0.75,0.458l0.5-0.417l0.417-0.708l0.666-0.458
		l0.667-0.125l0.667,0.25l0.625-0.042l0.666-0.25l0.584,0.083l0.625,0.833l1.291,1.5l0.417,0.792c0,0,0.124,0.5,0.208,0.625
		s0.459,0.667,0.459,0.667l1.458,1.167l0.333,0.333l0.542,0.833l0.125,0.917l0.626,0.833h0.291l0.334-0.292l0.708-0.125l0.333,0.042
		l0.459-0.5l0.708-0.083l0.667-0.292l0.875-0.083l0.583-0.042l1.125-0.25l0.292,0.583l0.458,0.333l0.542-0.333l0.541-0.5l0.5-0.458
		h0.792l0.417,0.125l0.625-0.042l0.291-0.542l0.5-0.208l0.709-0.167l0.458-0.333l0.375-0.542l0.667-0.25l0.5,0.167l0.5,0.125
		l0.875,0.083l0.791,0.042l0.75,0.208l0.25,0.458l0.584,0.167l0.666-0.083l0.834-0.583l0.958-0.417l0.792-0.083l1.5-0.917
		l1.083-0.75l1.125-0.25l1.25,0.208l1.333-0.208l1-0.5l0.667-0.333l0.792-0.042l1.041,0.208l0.459,0.458l0.416,0.5l0.625,0.458
		l0.542-0.042l0.375,0.292l0.458,0.292l0.459,0.292l0.5,0.083h0.541l0.709,0.25l0.875,0.542l1.208,0.833l0.46,0.167l0.875-0.292
		l1-0.292l1.041-0.583l0.959,0.125l0.666,0.167l0.959-0.167l0.791-0.083l1.292-0.458l1.417-0.458l0.916-0.167l0.75,0.042
		l1.084,0.042l1.333-0.292l2-0.125l1.583,0.042l0.917,0.208l1.75-0.125l1.833-0.667l1.292-0.5l1.292-0.625l1-0.333l0.875-0.292
		l0.791-0.583l1.125-0.25l0.625,0.125l0.834,0.75l0.958,1.375l0.917,2.083l0.916,1.25l1.209,1.542l1.5,1.208l1.916,1.5l2.209,1
		l2.458,1.208l1.875,1.083l1.292,1.083l1.666,1.5l3.792,3.583l0.917,1.583l0.625,0.875l0.959,0.792l1,0.667l1.166,0.458l1.625,0.167
		l1.459,0.333l0.791,0.708l1.084,0.958l0.791,0.125h0.542l0.583-0.375l1.417-0.042l1.875-0.375l2.167-0.417l1.583-0.917l1.958-0.833
		l1.209-0.083l1.291,0.375h0.75l1.042-0.292l0.833-1.208l0.584-0.458h0.75l1.083-0.083l2.042-0.042l2.126-0.417l0.416-0.167h0.709
		l0.75,0.417l0.541,0.333l1.125,0.083l1.042,0.792l1.125,1.167l1,0.792l0.667,0.208l0.666,0.5l0.792,1.042l1,1.5l1.083,1l1,0.875
		l1.75,0.167l3.084,0.042h2.375l1.041-0.375l0.709-0.708c0,0,0.75-0.25,0.875-0.25s1.833,0.042,1.833,0.042l1.042-0.125l1.709-0.292
		l1.333-0.292l0.959-0.5l1.083-0.542l1.5-0.708l1.458-0.708l0.917-0.458l0.792,0.167l0.75,0.458l1.833,0.917l1.333,0.625l1,0.625
		l0.75,0.542h1.25h1.125l0.667-0.417l1.25-0.708l1.75-0.542l1.542-1.792l1.416-2.167l1.042-1.417l1.625-1.5l3.792-3.208l3.084-2.875
		l2.875-2.25l2-2l0.875-0.792l0.833-1.083l0.667-0.542l0.375-0.25c0,0,0.375,0.125,0.5,0.208s0.708,0.958,0.708,0.958l0.417,0.083
		l0.666-0.5l1.125-0.375h0.875l1.209,0.583l1.583,0.875l0.376,0.5l2.375-0.125l2.208,0.458l1.375,0.458l1.25,0.292l0.792,0.625
		l0.833,0.917l0.209,0.667l1.125,0.167l1.083-0.25l1.083-0.667l0.542,0.667l0.542,1.042l0.333,0.667l0.917,0.25l1.375,0.083
		l1.291-0.125l1.625-1.125l1.667-0.583l1.542-0.542l2.416-0.167l1-0.583l1.459-1.417l2.375-1.458l1.625-1.417l1.333-0.958
		l1.626-0.208l1-0.333l0.833-0.542l0.459-0.417l0.958-0.208l1.417,0.167l1.5,0.542l1.041,0.25l1.084-0.208h0.791l0.959,0.292
		l2.416,1.292l1.417,1.292l0.5,0.917l0.583,0.375l1.167,0.25l1.083,0.167c0,0,0.875,0.042,1,0.125s1.834,1.167,1.834,1.167
		l0.875,0.542l1.083,0.208l1,0.042l1.25,0.25l0.458,0.708l0.375,0.417l1.084,0.375l1.166,0.333l1.125,0.042l1-0.333
		c0,0,0.167-0.334,0.292-0.292s0.708-0.042,0.708-0.042l0.917,0.208l2.668,0.667l1.292,0.667l0.958,0.083l0.917-0.375l1.583-0.792
		l1.542-0.458l2.125-0.083l0.792,0.25l1.416-0.333l1.25-0.375h1.75l1.042-0.542l0.417-0.583l1.291-0.292l1.25-0.292l2.251-0.333
		l0.791-0.708l1.5-1.542l2-1.708l1.5-1.125l0.667-0.667h0.833l0.625,0.5l0.834,0.792l0.541,0.375l1.375-0.125l1.667-0.208
		l1.917-0.667c0,0,0.542-0.25,0.875-0.333s1.416-0.417,1.416-0.417l1.167-0.375l0.5-0.417l0.375-0.333l1.25-0.208l1.25-0.208
		l2.959-0.167l0.375-0.208l0.625-0.5l0.459-0.333h1.416l1.792,0.667l1.042,0.917l0.708,0.417l0.708-0.042l1.125-0.5l1.625-0.042
		l1.542,0.25l0.834,0.167l0.75-0.125l0.458-0.333l1.542-0.25l1.708-0.167l1.958,0.167l1.75,0.167l1.125-0.083l0.792,0.167
		l1.164,0.375"/>
</g>
</svg>
