<?xml version="1.0" encoding="utf-8"?>
<!-- Generator: Adobe Illustrator 16.0.4, SVG Export Plug-In . SVG Version: 6.00 Build 0)  -->
<!DOCTYPE svg PUBLIC "-//W3C//DTD SVG 1.1//EN" "http://www.w3.org/Graphics/SVG/1.1/DTD/svg11.dtd">
<svg version="1.1" id="svg" xmlns="http://www.w3.org/2000/svg" xmlns:xlink="http://www.w3.org/1999/xlink" x="0px" y="0px"
	 width="816px" height="612px" viewBox="0 0 816 612" enable-background="new 0 0 816 612" xml:space="preserve">
<g id="image">
	
		<image overflow="visible" enable-background="new    " width="3264" height="2448" xlink:href="CG04_20040707_200049.JPG"  transform="matrix(0.25 0 0 0.25 0 0)">
	</image>
</g>
<g id="gcp_2_">
	<circle id="cairin-up_2_" fill="#FF0000" cx="708.8" cy="517.411" r="0.25"/>
	<circle id="cairin-dwn_2_" fill="#FF0000" cx="450.875" cy="516.5" r="0.25"/>
	<circle id="blotch_2_" fill="#FF0000" cx="100.25" cy="264.05" r="0.25"/>
	<circle id="nipple_2_" fill="#FF0000" cx="397.25" cy="234.5" r="0.25"/>
	<circle id="splitrock_2_" fill="#FF0000" cx="465.375" cy="248.25" r="0.25"/>
	<circle id="cluster_2_" fill="#FF0000" cx="469.3" cy="253.55" r="0.25"/>
	<circle id="T20040707-01" fill="#FF0000" cx="63.232" cy="198.982" r="0.25"/>
	<circle id="T20040707-02" fill="#FF0000" cx="241.875" cy="242" r="0.25"/>
	<circle id="T20040707-03" fill="#FF0000" cx="211.125" cy="213.625" r="0.25"/>
	<circle id="T20040707-04" fill="#FF0000" cx="197.625" cy="198.875" r="0.25"/>
	<circle id="T20040707-05" fill="#FF0000" cx="292.375" cy="228.062" r="0.25"/>
	<circle id="T20040707-06" fill="#FF0000" cx="418.375" cy="263.875" r="0.25"/>
	<circle id="T20040707-07" fill="#FF0000" cx="401.375" cy="238.625" r="0.25"/>
	<circle id="T20040707-08" fill="#FF0000" cx="402.375" cy="242.125" r="0.25"/>
	<circle id="T20040707-09" fill="#FF0000" cx="309.333" cy="167.292" r="0.25"/>
	<circle id="T20040707-10" fill="#FF0000" cx="302.125" cy="184.875" r="0.25"/>
	<circle id="T20040707-11" fill="#FF0000" cx="284.875" cy="147.359" r="0.25"/>
	<circle id="T20040707-12" fill="#FF0000" cx="123.631" cy="205.158" r="0.25"/>
</g>
<g id="horizon">
	<polyline fill="none" stroke="#FF0000" stroke-width="0.25" stroke-miterlimit="10" points="-0.042,168.625 1.042,168.667 
		1.891,169.053 2.674,169.727 3.707,168.893 4.688,167.779 6.245,166.985 8.857,166.51 10.799,165.185 11.973,164.896 13.062,164.5 
		14.063,164.103 15.333,163.336 17.475,162.938 21.354,163.167 25.647,163.255 26.277,163.424 27.233,163.734 28.296,163.335 
		30.141,163.894 32.16,164.702 34.507,165.648 36.117,165.583 38.333,165.542 39.792,166.292 40.5,167.083 41.958,166.958 
		42.875,166.792 44.208,167.125 44.958,167.708 45.875,167.917 47.167,168 48.5,168.125 50.125,168.542 51.333,169.25 
		52.997,170.001 55.226,169.924 58.081,168.739 59.302,168.655 60.344,168.17 62.438,167.875 64.562,168.75 66.034,169.88 
		67.625,170.75 70.125,171.75 72.104,171.87 74.585,172.386 76.659,172.384 78.523,172.58 80.944,173.901 86.58,174.318 
		89.907,175.35 93.212,175.938 95.083,176.917 96.833,177.667 98.208,178.208 99.875,178.75 100.958,179.167 102.582,179.958 
		103.791,180.417 109.017,180.191 110.581,179.688 112.911,179.528 114.958,179.362 116.497,178.297 119.27,177.745 
		121.753,178.056 125.165,178.958 126.623,179.5 128.832,180.25 130.748,181.083 132.082,181.542 133.498,182.375 135.207,183.417 
		136.29,183.583 137.332,183.542 138.79,183.208 139.957,183.125 140.998,183.125 141.582,182.833 142.832,182.458 144.498,182.542 
		145.914,182.75 148.948,181.989 151.062,181.433 154.915,180.807 158.641,180.055 161.153,178.688 163.365,178.797 
		164.699,177.348 164.789,177.25 166.831,175.792 168.581,174.333 169.289,173.583 169.664,172.667 170.456,171.917 
		171.873,171.583 173.373,170.5 176.062,169.375 179.562,166.812 182.25,164.875 185.125,163 187.125,162.062 187.938,160.812 
		189,159.562 189.688,157.812 191.188,156.5 192.188,155.062 193.25,153.812 194.539,153.083 196.938,152.812 198,151.188 
		199.375,149.25 201.125,147.312 203.75,144.938 206.5,143.188 208.704,141.624 212.079,140.291 215.204,139.332 217.204,138.457 
		219.5,137.875 221.938,135.875 224.871,133.541 227.413,132.457 230.704,131.582 232.871,131.249 235.329,130.832 237.288,131.041 
		238.829,131.082 239.538,131.457 241.496,131.499 243.454,131.541 244.913,131.54 245.913,131.873 247.371,132.04 248.621,131.748 
		249.871,131.165 250.955,131.332 252.08,131.748 252.913,132.373 253.705,132.957 254.371,133.29 255.413,132.873 256.33,131.957 
		258.121,131.332 259.371,131.082 260.246,131.207 261.33,131.332 262.746,131.873 263.621,132.665 264.33,133.415 265.705,133.582 
		267.163,132.957 269.205,132.707 270.58,133.04 271.955,133.04 272.996,132.623 274.663,131.623 277.288,130.498 279.621,129.498 
		280.621,128.957 282.08,128.79 283.246,128.29 285.121,127.332 287.788,125.79 290.496,124.915 292.913,124.373 294.746,124.54 
		296.288,125.082 297.812,125.312 299.5,124.188 301.312,123 303.763,121.141 306.08,120.065 308.31,119.552 309.786,119.435 
		310.938,119.046 313.25,118.999 314.438,119.233 315.889,120.442 316.915,122.131 317.985,122.863 318.704,123.582 319.579,124.04 
		321.37,124.707 322.954,125.582 323.537,126.082 324.412,126.04 324.954,126.373 325.37,126.707 326.938,127.438 328.688,126.812 
		330.537,126.582 332.875,126.812 335,127.188 335.812,127.188 336.454,127.04 337.744,127.491 339.317,128.176 339.983,129.422 
		340.953,132.017 341.976,132.493 342.964,131.975 346.096,132.145 349.003,132.643 351.413,131.808 353.362,131.762 
		355.745,131.998 356.87,133.165 359.036,135.79 359.745,136.373 359.995,137.29 360.411,138.123 361.495,139.457 363.203,141.623 
		365.828,145.165 367.066,146.616 368.375,147.562 369.63,147.299 372.189,147.257 373.688,147.706 375.282,148.102 
		377.599,149.439 378.541,151.18 379.284,153.002 380.168,153.554 380.744,154.206 383.411,155.706 386.036,157.706 
		389.702,160.165 392.119,161.665 395.952,164.415 397.744,166.706 399.202,167.956 401.327,170.123 401.994,170.873 
		402.786,170.665 403.827,170.581 404.536,170.956 404.952,171.206 405.702,171.206 406.077,171.54 406.827,172.04 407.993,173.165 
		408.743,173.332 409.243,173.707 410.326,175.665 411.076,177.249 412.295,180.052 412.938,180.5 414.882,178.16 415.877,176.633 
		416.873,176.194 417.91,176.165 419.035,176.874 419.993,177.374 420.868,177.624 422.951,177.624 425.784,177.374 426.951,177.04 
		427.617,176.79 428.284,176.457 428.826,176.832 429.159,177.374 429.701,177.665 430.742,177.082 432.909,176.332 
		434.992,175.957 435.951,175.749 436.492,175.457 436.992,175.624 437.576,176.29 438.284,177.04 439.576,177.457 441.701,176.874 
		442.826,176.707 443.826,176.957 445.534,177.665 447.451,178.999 449.367,180.499 451.156,181.921 453.69,183.188 
		454.267,184.322 456.034,184.6 457.632,184.095 459.22,184.646 459.965,185.393 460.938,185.438 461.623,183.449 464.469,181.996 
		466.812,182.25 468.438,181.688 470.367,180.749 470.909,180.916 471.617,180.749 472.325,180.499 473.659,180.374 
		474.786,180.704 475.509,181.637 476.457,181.771 477.128,181.183 479.829,180.858 481.006,180.833 481.655,181.58 
		482.906,183.378 484.355,185.894 485.609,186.774 486.074,188.258 488.599,188.805 492.124,187.942 493.194,187.969 
		494.058,188.508 495.772,187.592 496.81,187.466 497.402,187.149 498.001,186.829 499.159,186.435 499.982,185.598 
		501.788,185.658 502.659,185.707 503.409,185.916 503.659,186.374 504.243,186.541 504.909,186.457 505.743,185.874 
		506.701,185.457 507.493,185.374 508.993,184.457 510.076,183.707 511.201,183.457 512.451,183.666 513.784,183.457 
		514.784,182.957 515.451,182.624 516.243,182.582 517.284,182.791 517.743,183.249 518.159,183.749 518.784,184.207 
		519.326,184.166 519.701,184.457 520.159,184.749 520.618,185.041 521.118,185.124 521.659,185.124 522.368,185.374 
		523.243,185.916 524.826,186.862 526.375,186.75 527.938,185.938 531.312,186.25 534.25,185.062 536.125,185 537.438,185.125 
		539.438,184.625 541.625,184.562 542.562,185.438 545,185 548.562,183.5 550.938,182.562 551.75,181.875 553.538,181.631 
		554.324,181.958 555.082,183.764 556.08,185.333 557.451,187.477 558.205,189.697 560.087,191.014 562.948,192.463 
		565.767,193.689 568.089,194.542 569.288,195.118 570.631,196.391 572.223,197.76 575.125,200.875 576.642,203.408 
		578.328,204.628 579.508,205.04 580.448,205.508 581.464,205.687 583.228,205.992 585.325,207.511 586.481,207.263 
		588.629,207.014 590.132,206.414 592.006,205.771 593.937,205.029 596.74,204.247 597.582,204.53 598.411,204.54 599.332,204.282 
		600.139,203.201 601.652,202.833 604.297,202.787 606.688,202.562 608,202.062 609.339,202.706 611.523,203.57 612.579,204.665 
		613.579,205.456 614.246,205.665 614.912,206.165 615.704,207.206 616.704,208.706 618.1,209.862 619.825,210.926 621.062,210.917 
		622.805,211.006 626.375,211.312 627.972,210.12 629.82,209.773 631.188,210.188 633.125,209.25 635.375,208.75 638.309,207.18 
		641,205.75 642.438,206.688 643.825,207.469 646.106,208.986 647.625,210.062 649.438,209.812 650.56,208.636 652.812,207.625 
		654.25,206.562 655.164,205.168 657.233,202.701 658.914,200.981 660.588,199.764 662.22,198.21 663.208,197.215 665.454,195.484 
		666.137,194.889 667.397,193.819 669.539,191.707 671.762,189.462 672.596,188.618 673.31,187.852 674.23,188.709 675.49,188.575 
		677.184,188.041 678.331,188.698 679.56,189.186 680.544,190.001 682.915,189.873 685.123,190.331 687.377,191.092 688.9,191.385 
		689.723,192.341 690.312,193.438 691.825,193.314 693.69,192.794 694.56,195.043 696,195.375 697.938,195.312 699.04,194.563 
		701.106,193.737 704.442,192.984 706.279,192.656 707.578,191.436 708.688,190.722 710.064,189.891 712.168,187.762 
		715.198,186.705 717.264,185.38 719.208,185.331 720.708,185.873 721.749,186.123 722.833,185.915 723.624,185.915 
		724.583,186.206 726.999,187.498 728.416,188.79 729.62,190.438 731.185,190.772 732.146,190.828 733.217,190.732 735.44,192.261 
		737.337,192.707 739,193.104 739.249,193.54 739.624,193.956 740.708,194.331 743.785,194.625 744.846,194.055 746.31,194.181 
		750.592,195.389 752.16,195.085 753.334,194.498 754.876,194.04 757.001,193.956 757.793,194.206 759.209,193.873 760.459,193.498 
		762.209,193.498 763.251,192.956 763.668,192.373 764.959,192.081 766.209,191.79 768.672,191.233 770.809,189.56 773.647,187.229 
		775.834,185.803 776.65,186.873 779.126,187.248 780.793,187.04 782.71,186.373 783.585,186.04 785.001,185.623 786.168,185.248 
		786.668,184.831 787.043,184.498 	"/>
</g>
<g id="terminus">
	<polyline fill="none" stroke="#FF0000" stroke-width="0.25" stroke-miterlimit="10" points="70.833,318.667 73.167,320.167 
		78.333,321 86.5,320.834 92.667,321.834 103.5,322.334 114.333,323 122.167,323.5 126.5,324.167 132.333,325.834 140.167,327.667 
		147.167,328.5 157.833,330.167 163.5,332.667 170.833,335 177.333,338.834 183.167,341.5 189.833,342.834 196.833,343.667 206,345 
		219.167,346.334 230.667,347.334 244.667,347.5 262.5,348.667 280.666,350.334 297.666,351.667 311.5,352.667 322.666,354 
		335.166,357.5 345.666,360.5 357.666,363 366.666,364 374.833,366.834 385.833,369.667 393.166,372.167 	"/>
	<polyline fill="none" stroke="#FF0000" stroke-width="0.25" stroke-miterlimit="10" points="427.666,393.167 431.666,402 
		435.499,410.167 440.832,412.5 446.832,414 450.166,415.834 	"/>
</g>
</svg>
