<?xml version="1.0" encoding="utf-8"?>
<!-- Generator: Adobe Illustrator 16.0.4, SVG Export Plug-In . SVG Version: 6.00 Build 0)  -->
<!DOCTYPE svg PUBLIC "-//W3C//DTD SVG 1.1//EN" "http://www.w3.org/Graphics/SVG/1.1/DTD/svg11.dtd">
<svg version="1.1" id="svg" xmlns="http://www.w3.org/2000/svg" xmlns:xlink="http://www.w3.org/1999/xlink" x="0px" y="0px"
	 width="724px" height="486px" viewBox="0 0 724 486" enable-background="new 0 0 724 486" xml:space="preserve">
<g id="image">
	
		<image overflow="visible" enable-background="new    " width="2896" height="1944" xlink:href="AK01b_20100602_200707.JPG"  transform="matrix(0.25 0 0 0.25 0 0)">
	</image>
</g>
<g id="gcp-peaks">
	<circle id="P5330" fill="#FF0000" cx="177.625" cy="73.125" r="0.25"/>
	<circle id="P7910" fill="#FF0000" cx="232" cy="76.438" r="0.25"/>
	<circle id="P8249" fill="#FF0000" cx="261.5" cy="73.625" r="0.25"/>
	<circle id="P8510" fill="#FF0000" cx="286.812" cy="66.688" r="0.25"/>
	<circle id="P6940" fill="#FF0000" cx="324" cy="70.75" r="0.25"/>
	<circle id="P6330" fill="#FF0000" cx="419.688" cy="58.438" r="0.25"/>
	<circle id="P5360" fill="#FF0000" cx="476.812" cy="52.062" r="0.25"/>
	<circle id="P5090" fill="#FF0000" cx="551.062" cy="39.812" r="0.25"/>
	<circle id="P5170" fill="#FF0000" cx="588.25" cy="34.5" r="0.25"/>
</g>
<g id="gcp">
	<circle id="topshelf" fill="#FF0000" cx="18.312" cy="141.688" r="0.25"/>
	<circle id="nostril" fill="#FF0000" cx="87.625" cy="140.562" r="0.25"/>
</g>
<g id="horizon">
	<path fill="none" stroke="#FF0000" stroke-width="0.25" stroke-miterlimit="10" d="M0,70.785l1.92,0.376l1.129,0.847l2.164,1.317
		l1.505,1.505l1.411,0.941l0.752,0.376l3.292,0.282l3.669-0.564l2.728,0.376l1.035,0.847l1.269,1.662L23.25,81l1.25,1.25
		l0.562,0.562h0.562l0.25-0.75l0.375-1.188l1.062,0.062l2.062,0.562l0.562,0.688l0.812,0.625l1.75,0.938l1.688,0.812l1.5,0.75
		l0.938,0.438l1.312-0.188l0.625-0.375l1.312,0.25L40.75,86l1.312-1.062l1.104-1.562l1.042-1l0.875-0.708l1.25-0.375
		c0,0,0.375-0.125,0.542-0.083s0.583,0.125,0.583,0.125l0.917,0.792l0.375,0.333h0.833l0.708-0.083l0.292-0.125l0.625-0.875
		l0.667-1.417l0.875-0.583l1.083,0.125l0.917,0.458L55.5,80.5l1.417,0.583l0.708,0.292l0.708,0.333l0.75,0.167l1.208,0.542
		l1.25-0.292L63,82.583l1.25,0.25l1.042-0.167L67,82.625l1.708-0.042l2.333,0.542l1.667,0.667l1.583,0.875L76.25,85.5l1.542,0.333
		l0.667-0.25"/>
	<polyline fill="none" stroke="#FF0000" stroke-width="0.25" stroke-miterlimit="10" points="93.958,85.333 94.25,84.708 
		95.042,84.583 96.125,85.083 96.417,84.833 96.667,84.583 98.208,84.792 98.875,85.292 	"/>
	<polyline fill="none" stroke="#FF0000" stroke-width="0.25" stroke-miterlimit="10" points="110.374,84 112.291,85.417 
		114.166,87.417 114.958,87.917 116.041,87.917 116.833,87.25 118.124,86.75 118.499,86.833 119.374,86.75 120.208,85.792 	"/>
	<path fill="none" stroke="#FF0000" stroke-width="0.25" stroke-miterlimit="10" d="M123.957,83.292l1.458,0.75l0.958,0.792
		c0,0,1.333,0.875,1.375,1l0.876,0.354l1.188,0.125l1.406-0.375l1.75-0.875l0.375-0.25l1.062-0.031l1.938,0.375l1.438,0.656l1.031,1
		l1.469,0.906L141.625,88l1.125,0.281l0.812-0.188l1.656-1.062L147.312,86l1.375-0.812l1.344-0.844"/>
	<polyline fill="none" stroke="#FF0000" stroke-width="0.25" stroke-miterlimit="10" points="173.469,77.344 175.375,74.531 
		176.875,73.281 177.688,73.031 178.438,73.469 179.375,74.312 180.5,75.188 181.219,75.625 182.438,75.719 183.812,76.219 
		184.844,76.719 186.25,76.969 186.844,77.062 	"/>
	<path fill="none" stroke="#FF0000" stroke-width="0.25" stroke-miterlimit="10" d="M197.656,75.688l1.844-0.062l1.219-0.031
		l0.625-0.656l0.344-1.062L202,73.594c0,0,0.312-0.031,0.406,0.031s1.312,0.906,1.312,0.906l1.469,0.906l1.406,0.656l1.156,0.5
		l0.906,0.781l2.062,1.938l2.125,1.781l0.844-0.125L215,80.531l0.719-0.094l1.625,0.094L218.906,81"/>
	<polyline fill="none" stroke="#FF0000" stroke-width="0.25" stroke-miterlimit="10" points="224.594,78.469 227.188,77.562 
		229.062,76.844 230.25,76.469 231.375,76.375 232.25,76.438 234.531,77.188 236.344,78 239.906,79 242.844,79.438 244.594,79.531 
		245.906,79.094 248.125,78.344 250,77.031 250.656,76.625 252,76.25 255.531,75.406 	"/>
	<path fill="none" stroke="#FF0000" stroke-width="0.25" stroke-miterlimit="10" d="M266.531,74l1,0.469l2.281,0.031L272,74.094
		l1.062-0.562l0.844-0.562l0.844-1l0.875-1.156l0.688-0.594l0.812-0.094l2.094-0.094l1.844-0.469l0.719-0.25l0.875-0.094
		l0.875-0.125l0.812-0.281l0.531-0.656l1.156-1.312l0.438-0.312l1-0.156l1.969,0.406l1.844,0.594l1.469,0.781l0.844,0.5l1,0.219
		l1.312,0.094l1.906-0.125l1.5-0.094l0.938,0.031l0.781,0.344l0.375,0.531l0.781,0.5l0.562,0.156l0.438,0.344l0.844,0.094l0.5,0.031
		l0.594,0.25L306,71.094l1.406,0.5l0.75,0.438l1.25,0.469l1.156,0.375l0.812-0.219l0.25-0.156l0.438,0.031
		c0,0,0.656,0.281,0.781,0.312s0.938,0.188,0.938,0.188l1.75,0.156l1.094-0.312l1.594-0.469l1.281-0.25L320.906,72l0.844-0.562
		L322.312,71l0.781-0.281l0.969-0.094l0.938,0.5l1.781,0.969l0.656,0.031l1.469-0.156l1.031-0.594l1.969-1.125l1.438-0.406
		l1.156-0.188l1.531,0.188l1.062,0.375l1.812,0.312L341,70.25l0.906-0.625l0.812-0.75L344,68.031l1.938-1.188"/>
	<polyline fill="none" stroke="#FF0000" stroke-width="0.25" stroke-miterlimit="10" points="353.812,64.781 356.031,65.375 
		357.812,66.281 358.688,66.688 360,66.719 361.188,66.531 362.438,66.375 363.75,66.344 365.062,66.281 366.656,66.188 
		368.438,66.188 369.969,66.25 371.812,66.688 	"/>
	<path fill="none" stroke="#FF0000" stroke-width="0.25" stroke-miterlimit="10" d="M380.562,65.844l1.281,0.688l1.125,0.156
		l3.812-0.031l2.656,0.031L391,66.5l1.438-0.5l1-0.188h1.5l0.844,0.094h1.062l0.844-0.219l0.688-0.188l1.531-0.281l2.156,0.219
		l1.406,0.5l1.312,0.844L405.344,67L406,66.656l0.562-0.969l0.938-1.219l0.812-0.5l1.094-0.25l2.25-0.406l2.312-0.844l1.688-1.406
		l1.781-1.5l0.938-0.938l1.969-0.469l1.75-0.062l0.625-0.125h0.469c0,0,0.5,0.312,0.594,0.375s1.562,1.094,1.562,1.094l1.219,0.781
		l0.812,0.188l1-0.219c0,0,0.531-0.375,0.719-0.375s1.5,0.125,1.5,0.125l1.188,0.25l1.375,0.531l1.344,0.75l1,0.5l1.531-0.281
		l1.062-0.031l2.25,0.781l1.625,1l0.906,0.781l1.625,0.969l1.219,1.031l1.188,0.094l1.312-0.25l3.219-1.375l3.688-1.781l4.031-1.562
		l3.781-1.312l1.625-0.438l1.281-1.969l1.906-2.125l1.406-0.812l1.094-0.75l2.156-0.438l1.469-0.125L475,52.438l0.5-0.375
		l1.125-0.188h1.25l1.281,0.062l2.781,0.344l2.438,0.562l1.5,0.75l1,0.469l0.781-0.562l1.125-0.719l1.312-0.125l2.156,0.469
		l1.5,0.406l1.031,0.344l1.062,0.062l1.375,0.25l1.031,0.469l0.594-0.25l2.125-2.344l2.062-1.844l0.625-0.875l0.969,0.031
		l0.656,0.531l1.094,0.906l1.406,1.062l0.844,0.062l1.438-0.969l0.719-0.688l1.062-0.094l1.125,0.125L514.031,50l1.344-0.375
		l1.375-0.156l1.75,0.094l1.25,0.125l1.375-1.031l1.031-0.156l1.438,0.219l2.188,0.406l1.406,0.344l1.062-0.406l0.594-0.469l1-0.219
		l1.531,0.219l1.281,0.312l1.469,0.062l0.594-0.375l1.062-1.094l1.719-0.031l1.25,0.375l1.688,0.406l1.75-0.938l0.969-0.906
		l1.031-0.219l1.031-0.469l1.031-0.875l1.062-1.75l1.625-2.469l0.812-0.75l0.781-0.125l1.312,0.219l1.781,0.938l1.656,1.438
		l1.094,1.125l0.562,0.125l0.719-0.438l1.875-1.344l1.281-0.406h1.125l1.312,0.438l1.156,0.062l0.781-0.438l0.719-0.594
		c0,0,0.25,0.031,0.344,0.094s1.312,0.406,1.312,0.406l0.75-0.188l0.969-0.344l0.531,0.062l0.406,0.375l0.625,0.25l1.094-0.312
		l1.969-0.438l0.906-0.031l0.812,0.312l0.406,0.438l0.656,0.094l0.531-0.625l0.719-0.812l0.562-0.375l1.812-0.5l1.438-0.938
		l0.969-0.625l0.719-0.281l1.125-0.375l0.812-0.344l1.156-1.406l0.812-0.844l0.281-0.125l0.625-0.094l1.781,0.156l1.469,0.5
		l0.781,0.781l1.469,0.125l1.125,0.031l0.969,0.125l0.625,0.562l0.5,0.656l1.625,0.094l0.812-0.406l0.562-0.281l0.906-0.406
		l1.312-0.281l1.5,0.188l0.938,0.688l1.469,0.5l3.062-0.094l1.656-0.406l1-0.188l1,0.344l1.906,0.656l1.344,0.469l1.25,0.438
		l2.219-0.094l0.875-0.062l2.719,0.594l2.312,0.625l3,1.562l1.312,1.062l0.594,0.5l1.125,0.375l3.375-0.344l1.875-0.781l1.938-0.406
		h1.719l1,0.312l1.438,0.094l2.031-0.531l2.719-0.969l1.031-0.094l2.5,0.438l2.938,1.469l1.875,1.219l2,0.969l1.219,0.688
		l1.688,0.188l1.562,0.031l1.344,0.219l1.156-0.125l1.375-0.219l1.594,0.125l2.25,0.625l1.562,0.5l2.281,0.125l1.219,0.031
		l0.969,0.5l0.719,0.344L678,47.281l1.406-0.375l0.938-0.531l1.281-0.812l0.781-0.531h0.875l1.938,0.062l2.094,0.031l2.156-0.656
		l1.469-0.156l1.531,0.062"/>
	<path fill="none" stroke="#FF0000" stroke-width="0.25" stroke-miterlimit="10" d="M696.719,45.406l1.875,0.25l1.5,0.094
		c0,0,0.594,0.438,0.688,0.469s1.781-0.188,1.781-0.188l1.5-0.406l2.188-0.562l2.344-0.531l2.812-0.312l2.125-0.438l1.938-0.219
		l1.281-0.156l1.375,0.406c0,0,0.031,0.188,0.094,0.281s0.438,0.312,0.438,0.312l1.25,0.188l1.562,0.531"/>
</g>
</svg>
