<?xml version="1.0" encoding="utf-8"?>
<!-- Generator: Adobe Illustrator 16.0.4, SVG Export Plug-In . SVG Version: 6.00 Build 0)  -->
<!DOCTYPE svg PUBLIC "-//W3C//DTD SVG 1.1//EN" "http://www.w3.org/Graphics/SVG/1.1/DTD/svg11.dtd">
<svg version="1.1" id="svg" xmlns="http://www.w3.org/2000/svg" xmlns:xlink="http://www.w3.org/1999/xlink" x="0px" y="0px"
	 width="695.04px" height="466.559px" viewBox="0 0 695.04 466.559" enable-background="new 0 0 695.04 466.559"
	 xml:space="preserve">
<image overflow="visible" enable-background="new    " width="2896" height="1944" xlink:href="AK01b_20150820_212106.JPG"  transform="matrix(0.24 0 0 0.24 0 4.882812e-04)">
</image>
<g id="land">
	<polygon fill="none" stroke="#FF0000" stroke-width="0.25" stroke-miterlimit="10" points="0,369.5 37.25,388.75 60,408.5 
		89.25,429.5 113.5,442.5 127,450.75 141.75,454 177.75,456.75 183.5,459.75 187.75,466.559 0,466.559 	"/>
	<polygon fill="none" stroke="#FF0000" stroke-width="0.25" stroke-miterlimit="10" points="220.5,466.559 255.25,448.5 
		273.25,442.75 316.25,427.75 340.5,424.25 360.25,407 371,399 384.5,393.5 397.25,391.5 406.5,391.5 428.25,388.75 446,386.75 
		459.25,386.75 472.75,391.75 481.75,394.25 492.75,392.5 507.25,391.75 519.5,391.5 528.75,392.5 548.75,395.25 583.75,401.5 
		615.75,401.5 636.25,404.25 652.5,413.75 659.25,415.75 669.25,419 677,421.5 687.75,420.5 695.04,421 695.04,466.559 	"/>
	<polygon fill="none" stroke="#FF0000" stroke-width="0.25" stroke-miterlimit="10" points="427.25,208.25 469.25,206.5 
		481.5,204.25 491.5,200.25 490.25,197.25 480.5,197.25 468.25,197.25 460.5,195.75 451.5,194.25 443.5,194.25 437,198.75 	"/>
	<path fill="none" stroke="#FF0000" stroke-width="0.25" stroke-miterlimit="10" d="M695.04,185.25l-10.539,1.5l-8.25,3.25
		c0,0,2.5,3.5,3.25,4.25s6.145,4.25,6.145,4.25l1.605,2.75l-5.5,5.75l-9.75,3.25l-2.75,4.75c0,0,4,4.75,4.75,5s10.25,2.5,10.25,2.5
		l10.789-1V185.25z"/>
	<path fill="none" stroke="#FF0000" stroke-width="0.25" stroke-miterlimit="10" d="M0,203.75h29.75l28.5-1.75l5-3.75v-5l-12-2.5
		L40.5,181v-3.5h9l18.25,3.5l9.25,3.75L88,188c0,0,11.5,2.5,12.25,2.625S112,192.5,112,192.5l20.25-3.25l23-4.25l14.75-3.75
		l9.25-3.75l4.75-4.25l-7-3.5l-11.25-7.25h7.5h16.25l22.75,2h15.5l8.25-2l-10-8.25h7.75h11.75h9L241,148.5l13.5-1.5h23h9.5l5,3.75v2
		l-6.75,3.75l-1.25,3l8,2.75l8.75-1.75l-5.5-3.25l2.25-1.75l8.5-1.25l11,2l7.25,2.25l5.75,1.25h9.75l13.5-1.25l-5.73,4l-8.27,2.75
		l10.25,0.5l6,0.5v2l4.75,0.25l3.5-0.75l3.25-0.25l4,0.75l3.25,1.75l2.75,0.5l6-0.5l14.25-1.5l11-1.75v-3.5l2.5-1.75l6.75-1.75
		l23.75-0.5l15,0.25l12.5-0.5l-6.25,3l-14.75,3.25l-6.75,2.5l-2,2.5l4.25,1.75l7-0.75l9.125,0.75l6.375,3.375h4.75h9.75h11.25h7
		l8-1.625l4-4l10.25-2l13-0.75l18-2.5h16.75l14.5,0.25l22.25,0.75l27.75-0.75l28.75-0.75l22.25,0.5l11.039,1.5v-26l-21.539-1.25
		l-15-1.5l-16-2.5l-13.25-4.5l-14.5-3.25l-17.5-4.75l-12.75-1.75H572l-13.25,2.25l-12.5,1l-9-0.75h-9.75l-23.25,2.25H487l-12-1
		l-15.625,0.25l-11.625,7l-4.25,1.5l-11-1l-11.75-3.25h-8.25l-11,1.5L383.25,131H373l-7-0.25l-12.5-3.5l-11.25,0.25l-13.5,1.75
		l-10,0.25l-11.5-0.5l-6-2.5L291,123.75l-9-0.75l-21.25,3h-14l-12.25,0.25h-10.75l-11.25-2.75l-7.5-3l-12.25-2.25h-9.5l-23,6
		L147,125.5l-8.25-2.5l-12.5-2.75H112l-12,0.25l-10-2.25L73.75,113H63h-6l-7.75-2.5l-5.5-2.75l-14-4.25l-9.25-5H13l-6.25,2.75
		L0,105.5V203.75z"/>
</g>
<g id="gcp">
	<circle id="nostril" fill="#FF0000" cx="92.708" cy="176.342" r="0.25"/>
	<circle id="topshelf" fill="#FF0000" cx="26.895" cy="170.905" r="0.25"/>
	<circle id="dragonduct" fill="#FF0000" cx="163.914" cy="164.574" r="0.25"/>
</g>
<g id="horizon">
	<path fill="none" stroke="#FF0000" stroke-width="0.25" stroke-miterlimit="10" d="M0,111.53l1.176-1.688l0.906-0.344l1.281-0.5
		l1.531-0.75l1.406-1.031l0.906-1.031l2.812-2.656l1.938-1l1.656-0.625l0.938-0.062l1.562,0.25l1.906,0.469l2.688,1.562l2.281,1.75
		l1.281,1.219l0.625,1.406l0.406,0.656l0.906,0.719l0.75,0.094c0,0,0.281-0.25,0.375-0.219s1.188-0.188,1.188-0.188l1.75,0.156
		l2.406,0.312l2.375-0.156l0.594,0.125c0,0,0.25,0.25,0.375,0.344s1.156,1.281,1.156,1.281l0.594,1.5l0.406,0.969
		c0,0,0.781,0.656,0.844,0.75s1.188,1.156,1.188,1.156l1.062,1.281l0.375-0.031l0.375-0.812l0.344-0.594l1.406-0.25l0.906,0.312
		l1.062,0.844l0.219,0.75l0.625,0.75c0,0,0.969,0.281,1.094,0.344s1.969,1.406,1.969,1.406l1.219,0.844l0.969,0.094l0.562,0.031
		l0.406-0.375l0.75-0.188l0.469,0.094l0.688,0.281l0.438,0.281l1.5-0.531c0,0,0.812-0.688,0.875-0.781s0.906-0.969,0.906-0.969
		l0.781-0.875l0.875-0.219l0.625-0.031l1.25,0.188l0.406,0.562l0.562,0.75l1.719-0.094l0.812-0.531l0.5-0.938l0.562-0.594
		l0.562-0.344l0.719-0.031l1,0.75l1.562,1.031l0.938,0.375l1.438,0.688l1.344,0.562h0.5c0,0,0.5-0.031,0.656,0
		s0.875,0.25,0.875,0.25l1.656,0.844l0.844,0.062l0.938-0.188h1.156l1.344,0.375l0.688,0.281l0.5-0.219h0.812
		c0,0,0.781,0.469,0.906,0.562s0.688,0.688,0.781,0.75s1.312,0.844,1.312,0.844l0.875,0.562l1.594,0.156l0.781,0.031l0.938,0.406
		l0.844,0.688l0.5,0.5l0.75,0.469l2.062,0.562l1.281,0.094l1.031-0.062l0.75-0.031l0.812-0.031l1.406,0.156l0.938-0.031l1.156-0.188
		l1.719-0.719l0.406-0.406l0.656-0.719l0.5-0.25c0,0,0.375,0.281,0.469,0.375s0.406,0.344,0.406,0.344l0.5,0.125l0.312-0.312h0.438
		l1.094,0.312c0,0,0.312,0.469,0.406,0.562s0.625,0.625,0.75,0.688s0.562-0.125,0.562-0.125s0.531-0.375,0.656-0.438
		s0.594-0.344,0.594-0.344l0.906,0.031l0.531,0.031l0.906-0.094l0.875-0.469l0.562-0.344l1.156-0.156l0.625-0.031l0.812-0.188
		l0.719,0.094l1.594,1.438l1.344,1.219l0.969,1.438l1.281,0.906l0.531,0.25h0.688l0.438-0.188l1.625-0.5
		c0,0,0.562,0.219,0.625,0.312s0.594,0.5,0.594,0.5l0.844-0.688l0.719-0.875l1.594-1.594l0.312-0.188c0,0,0.281-0.188,0.531-0.156
		s1.031,0.312,1.031,0.312l0.75,0.719l1.25,0.938l1.375,0.938l0.688,0.531l0.781,0.062l0.938-0.219l1.219-0.469l0.875-0.469
		l0.5-0.188l0.875,0.188l1.375,0.625l0.938,0.375l0.969,0.812l0.719,0.719l1.875,0.875l1.25,0.406l0.812,0.188l0.688-0.125
		l1.938-1.125l1.094-0.531l1.219-0.375l2.062-0.75l0.875-0.594l0.656-0.375l0.656-0.469l1.094-0.156l2.5-0.062l1.375,0.188
		l1.281-0.844l0.375-0.562l0.312-0.312l1-0.125c0,0,0.531-0.031,0.719,0.031s0.438,0.031,0.562,0.062s0.625-0.062,0.625-0.062
		l0.781,0.031l0.344-0.094l0.5-0.281l0.469-0.719l0.25-0.406l1.156-0.156l0.844,0.531l0.719,0.438l0.656,0.125l0.781-0.156
		l2.656-0.75l1.312-0.188l1.969-1.875l1.188-0.75l0.688-0.781l0.562,0.062l0.719,0.719l1.688,2l1.062,0.219l0.375,0.062l0.781,0.344
		l1.406,0.688l2.719,1.156l1.219,0.688l1,0.188l0.812-0.531l0.844-0.062l0.844,0.219l0.938,0.312c0,0,1.094-0.062,1.219-0.062
		s2.188-0.594,2.188-0.594l0.75-0.438l0.5-0.312l0.656-0.188c0,0,0.438,0,0.531,0.062s0.938,0.156,0.938,0.156
		s0.406-0.031,0.5-0.031s0.406-0.656,0.406-0.656s0.125-0.406,0.219-0.438s0.562-0.344,0.562-0.344l0.781,0.094l0.781,0.688
		l2.906,1.844l1.281,1.219l1.656,1.938l1.406,1.625l0.625,0.5l1,0.062l0.75-0.625c0,0,0.375-0.156,0.469-0.125
		s0.594,0.375,0.719,0.438s1.25,0.094,1.25,0.094s0.562,0.125,0.719,0.188s0.812,0.531,0.812,0.531l0.781,0.594l0.688,0.312
		l0.594,0.062l0.969-0.938l0.781-1.031l1.156-0.938l1.219-0.656l1.656-0.031l0.562-0.281l0.188-0.125c0,0,0.906-0.125,1.031-0.156
		s1.625-0.312,1.625-0.312l1.188,0.062l0.781,0.5l0.875,0.781"/>
	<path fill="none" stroke="#FF0000" stroke-width="0.25" stroke-miterlimit="10" d="M248.27,134.436l1.719-1.125l2.594-0.531
		l0.969-0.656l0.375-0.188l1.375-0.25l2.719-0.5c0,0,0.75,0.156,0.844,0.188s0.844,0.219,0.844,0.219l0.844-0.625l2.125-0.875
		l1.125-0.031l0.562,0.375l0.969,0.875l1.344-0.031l1.062-0.406l0.75,0.031l0.938,0.469l2.938,0.188l2.469-0.156
		c0,0,0.906-0.25,1-0.25s0.625-0.438,0.625-0.438l2.094-2.156l0.719-0.188h1.156c0,0,1.75-0.125,1.844-0.156
		s2.719-0.312,2.719-0.312s0.562-0.375,0.688-0.5s0.625-0.625,0.625-0.625s0.844-0.656,0.938-0.75s1.344-0.531,1.344-0.531
		l0.781,0.156l1.562,0.875l1.938,1.156l1.562,0.781l1.438,0.375l1.75,0.125l1.281-0.094l0.75-0.031l0.812,0.469l1.188,0.781l2,1.312
		l1.281,0.281l1.5,0.469l1.125,0.656l1.281,0.562l1.062,0.062l0.812,0.062l0.938,0.219l1.562,0.594l2.719,0.656l1.031-0.281
		l1.688-1.031l1.219-0.062l0.75,0.188l0.5-0.062l1.094-0.625l0.812-0.094l0.906,0.625l1.219,1.062l1.625,0.094l1.156-0.125
		l0.688-0.438l1.25-0.562l1.625-0.562l1.594-0.094l1.406,0.5l1.062,0.562l1.719,0.531l1.656-0.188l1.688-1.156l3.031-1.781
		l1.875-0.906l2.75-0.625h1.781l1.312,0.406l2.062,0.75l1.062,0.719l1.219,0.594l1.156,0.312l1.406-0.188l1.719-0.375l1.531,0.25
		l0.844,0.156l1.594,0.156l0.812,0.031l1.5,0.469l1.312,0.312l0.688,0.375l1.188,0.625l1.25,0.219l1.031-0.25l1.25-0.562
		l1.688-0.156l0.656-0.25l0.719-0.281l0.875,0.531l0.781,0.375l1.25,0.375l1.531,0.406c0,0,1.938,0.406,2.312,0.438
		s4.562-0.25,4.562-0.25l1.312-0.188l0.719-0.062l1.406,0.125h1.312l1.812-0.188l1.25,0.062l1.781,0.531l1.219,0.562l1,0.781
		l0.719,0.438l0.406-0.188l0.375-0.688l0.844-1.062l0.844-0.656l0.625-0.312l0.938-0.219l1.156,0.156l1.312,0.062l1.562-0.469
		l0.656-0.406l1.188-0.844l2.812-2.094l0.375-0.156l1.531,0.094l0.969,0.156h1.281h0.469l0.844,0.344l1.062,0.844l0.75,0.562
		l1.125,0.406l0.656-0.125h1.281l0.75-0.031c0,0,1.188,0.469,1.344,0.5s2.344,1.25,2.344,1.25l0.438,0.531l0.344,0.25l1.719-0.219
		h0.75l0.875,0.406l2.219,1.156l1.5,1.188l1.219,1.344l0.969,1.031l1.406,0.156l1.031-0.375l0.469-0.281l1.188-0.125l2.656-0.906
		l3.812-0.969l4.25-1.219l1.594-0.625l1.281-0.125l0.5-0.062l4.062-4l1.25-0.625l0.812-0.344l0.594,0.25l0.344-0.062l0.531-0.375
		c0,0,0.344-0.094,0.438-0.094s0.688,0.156,0.688,0.156h0.531l1.344-0.625l1-0.5l0.875-0.031l1.25,0.062l0.688,0.156l0.938,0.031
		l2.062,0.656l2.438,0.938l2.094,1.094l0.438-0.062l1.062-0.781l0.875,0.031l0.719,0.312l0.688,0.25l0.656,0.031l0.5-0.062
		l0.531,0.062l0.656,0.406l0.562,0.469c0,0,0.406,0.094,0.562,0.125s0.938,0.125,0.938,0.125l0.719,0.156l0.719,0.562l0.594,0.219
		l0.719-0.25l1.062-0.844l1.625-1.625l1.906-1.625l0.531-0.188l0.625,0.125l0.562,0.469l0.312,0.688l0.312,0.594l0.5,0.125
		l0.469,0.062l0.375,0.344l0.5,0.562c0,0,0.281,0.031,0.375,0.031s0.562-0.25,0.656-0.281s0.875-0.625,0.875-0.625l0.875-0.5h0.656
		l1.094,0.094l2.688-0.25l1.219-0.188l1.469,0.125l0.656,0.125l0.531,0.031l0.438-0.156l0.594-0.406l0.969-0.312
		c0,0,1.031,0.125,1.125,0.156s1.625,0.562,1.625,0.562l1.938,0.562l0.969,0.031c0,0,0.688-0.375,0.781-0.406
		s0.531-0.344,0.531-0.344l0.781-0.125l0.812,0.281l1,0.375c0,0,0.719,0.25,0.812,0.25s0.781,0,0.781,0l1-0.156
		c0,0,0.312-0.281,0.406-0.344s0.656-0.406,0.656-0.406l1-0.125l0.906,0.125c0,0,0.938,0.25,1.125,0.312s1.562,0.594,1.562,0.594
		l1.125-0.188l0.625-0.531l1.156-0.781l0.719-0.281l1-0.5l1.531-0.938l1.469-1.75l1.25-1.312l0.656-0.625l0.938-0.062
		c0,0,0.969,0.406,1.062,0.5s1.844,1.688,1.844,1.688l1,0.875l1.062,1.188l1.188-0.344l1.094-0.844l0.531-0.531l0.844-0.156
		l1.125,0.062l1.062,0.594l0.844,0.125l0.594-0.094l0.75-0.062l0.344-0.344l0.344-0.281l0.531,0.031l0.031,0.25
		c0,0,0.281,0.375,0.375,0.406s0.812,0.156,0.812,0.156l0.75-0.156l0.375-0.25c0,0,0.156-0.094,0.25-0.094s0.688,0.281,0.688,0.281
		l0.656,0.625h0.281c0,0,0.594-0.375,0.75-0.406s0.562-0.156,0.656-0.125s2.156-0.062,2.156-0.062h0.594l0.531,0.312l0.938,0.094
		l0.594-0.531l0.875-0.406l1.281-0.062l0.969-0.125l0.969-0.719l1.375-1.094l0.875-0.062l0.438,0.219l0.688-0.438l1.781-1.656
		l0.562-0.312l1.062,0.125l0.656,0.156l0.406-0.25c0,0,0.188-0.094,0.281-0.062s0.656,0.406,0.656,0.406l0.688,0.656l1.188,0.562
		l0.75,0.062l1.219,0.406h0.594c0,0,0.656,0.344,0.688,0.438s0.25,0.438,0.25,0.438l0.531,0.438l0.969,0.469l1.125-0.25l0.562-0.438
		c0,0,0.219-0.156,0.312-0.188s0.656-0.156,0.781-0.188s0.312-0.188,0.312-0.188s0.406-0.062,0.562,0s1.031,0.438,1.031,0.438
		l0.875,0.281l0.75,0.594l0.5,0.312l2.531,0.281l1.75,0.062l0.906-0.031c0,0,0.531-0.281,0.625-0.281s0.656,0.031,0.656,0.031
		s0.781,0.25,0.844,0.344s0.875,0.594,0.875,0.594l0.906,0.625l1.25,0.469l2.031,0.375h1.125l1.188,0.094l1.125,0.469l1.906,0.688
		l2.219,1.125l1.688,1.125l1.656,2l5.375-0.406l1.312-0.562l0.875-0.062l0.781-0.094l1.094,0.031l0.438,0.406l0.562,0.406h2.031
		l2.125-0.312l0.781-0.219l0.719-0.406l1.406,0.25l0.812,0.531l1.125,0.219h0.625l0.562,0.469l0.969,1.031l2.156,1.25l1,0.562
		l0.969,0.688l0.688,0.375l1.719,0.438l2.625,0.406l1.688,0.062l0.594-0.125l0.5-0.219l0.562,0.094l1.188,0.531l1.75,0.812l1,0.281
		l0.875-0.188c0,0,0.25-0.156,0.469-0.031s0.938,0.281,0.938,0.281s0.781,0.281,0.906,0.375s2,0.656,2,0.656
		s0.969,0.156,1.094,0.125s0.719-0.625,0.719-0.625l1-0.75l0.875-0.312l1.094-0.031l1.312,0.219l1.281,0.125l2.281,0.25l1.375-0.062
		l1.094,0.031l1.281-0.625h0.719l0.594,0.594l0.438,0.312l0.969,0.031l0.938,0.031l1.531,0.938c0,0,0.219,0.188,0.406,0.188
		s0.719-0.031,0.844-0.031s0.656,0,0.844,0.062s1.125,0.438,1.125,0.438l1.094,0.406l2.719-0.312l1.156-0.406
		c0,0,1.5-0.125,1.594-0.125s1.375-0.344,1.375-0.344l2.562-0.094h1l1.125-0.156l1.062,0.156l0.719,0.094h0.938l1.52-0.094"/>
</g>
</svg>
