<?xml version="1.0" encoding="utf-8"?>
<!-- Generator: Adobe Illustrator 16.0.4, SVG Export Plug-In . SVG Version: 6.00 Build 0)  -->
<!DOCTYPE svg PUBLIC "-//W3C//DTD SVG 1.1//EN" "http://www.w3.org/Graphics/SVG/1.1/DTD/svg11.dtd">
<svg version="1.1" id="svg" xmlns="http://www.w3.org/2000/svg" xmlns:xlink="http://www.w3.org/1999/xlink" x="0px" y="0px"
	 width="724px" height="486px" viewBox="0 0 724 486" enable-background="new 0 0 724 486" xml:space="preserve">
<g id="image">
	
		<image overflow="visible" enable-background="new    " width="2896" height="1944" xlink:href="AK01b_20100915_200427.JPG"  transform="matrix(0.25 0 0 0.25 0 0)">
	</image>
</g>
<g id="gcp-peaks">
	<circle id="P5330" fill="#FF0000" cx="179.938" cy="151.062" r="0.25"/>
	<circle id="P7910" fill="#FF0000" cx="232.875" cy="159" r="0.25"/>
	<circle id="P8249" fill="#FF0000" cx="262" cy="158.688" r="0.25"/>
	<circle id="P8510" fill="#FF0000" cx="288.125" cy="153.938" r="0.25"/>
	<circle id="P6940" fill="#FF0000" cx="323.5" cy="161.188" r="0.25"/>
	<circle id="P6330" fill="#FF0000" cx="416.938" cy="157.188" r="0.25"/>
	<circle id="P5360" fill="#FF0000" cx="474.062" cy="155.438" r="0.25"/>
	<circle id="P5090" fill="#FF0000" cx="546.812" cy="149.625" r="0.25"/>
	<circle id="P5170" fill="#FF0000" cx="583.188" cy="147.375" r="0.25"/>
</g>
<g id="gcp">
	<circle id="topshelf" fill="#FF0000" cx="15.062" cy="203.375" r="0.25"/>
	<circle id="nostril" fill="#FF0000" cx="83.875" cy="208.438" r="0.25"/>
	<circle id="dragonduct" fill="#FF0000" cx="158.281" cy="195.125" r="0.25"/>
</g>
<g id="horizon">
	<path fill="none" stroke="#FF0000" stroke-width="0.25" stroke-miterlimit="10" d="M0,131.641l1.25-0.094l1,0.078l2.516,0.672
		l2.312,1.047l2.484,1.594l1.844,1.688l0.859,1.109l0.609,1.078l1.031,1.016l0.968-0.037l0.907-0.338l1.078-0.047l1.062,0.172
		l1.201,0.171l2.167,0.208L22.917,140h0.875l1.005,1l0.661,1l1,2.042l1.417,1.583l0.917,0.833l0.364,0.651l0.531,0.266l0.344-0.281
		l0.688-1.297l0.781-0.171h0.875l1.281,0.593l0.636,0.657l0.458,0.874l1,0.584l2.042,1.167l1.542,1.333l0.792,0.25l1-0.042
		l0.625-0.333l0.583-0.083l1,0.208l0.583,0.292l0.792-0.167L46,150.25l1.583-1.375l0.583-0.583l1.5-0.625l1.417,0.042L51.417,148
		l0.833,1.042l1.583,0.083l0.75-0.333l0.458-0.542l0.708-1.167l0.667-0.625l0.542-0.083l0.75,0.042l1.541,1.083l0.958,0.542
		l0.708,0.417l0.625,0.375l1.167,0.542l0.917,0.542l1.292,0.125h0.75l0.833,0.417l1.042,0.25l1.333,0.417h0.542h0.917l2.167,0.083
		l0.708,0.083l1.417,0.292l0.922,0.712l0.953,0.672l1.234,0.938l0.984,0.266l1.6,0.162l0.635,0.104l1.048,0.271l1.452,1.307l1,0.562
		l2.256,0.589l1.667-0.125l1.208-0.125l0.75,0.125L91.917,157l1.958-0.25l0.917-0.25l1.333-0.917l0.75-0.75l0.458-0.208
		c0,0,0.458,0.208,0.583,0.25s0.75,0.458,0.75,0.458l0.667-0.042l0.708-0.083l0.917,0.458l0.542,0.625l0.917,0.042l0.875-0.417
		h1.375l1.667,0.083l1.833-0.375l1.333-0.792l1.208-0.375l0.667-0.042l0.917,0.833l0.917,0.708l1.25,1.125l1.083,1.375l0.625,0.583
		l1,0.583c0,0,0.75,0.042,0.875,0.083s0.792-0.083,0.792-0.083l0.583-0.292l0.708-0.25l0.958,0.208l0.542,0.292l1.5-0.917
		l1.625-1.75l0.958-0.5h0.708l1.833,0.792l1.208,1.333l1.25,0.792l1.042,0.542l1.375-0.458l1.583-0.583l0.958-0.042l1.458,0.375
		l0.75,0.292l1.083,0.25l0.625,0.625l0.542,0.5l1.125,0.625l1.333,0.792l1.833,0.375l1.208-0.042l1.083-0.75l1-0.667l1.417-0.542
		l1.083-0.417l2.125-0.333l1.167-1l1.167-0.5l1.458-0.292h0.833l1.833,0.25l1.042-0.667l0.958-0.583l0.417-0.542l0.5-0.25
		l1.958-0.208l0.625,0.167l1.083-0.25l0.833-0.333l0.833-0.625l0.542-0.458l0.667-0.083l1.667,0.708l1.792,0.292l1.458-0.25
		l1.917-0.708l1-0.708l0.917-0.833l1.417-1.375l0.583-0.542l0.75-0.333l1.125,0.5l0.75,0.917l1.167,1.375l1.375,0.958l1.625,0.667
		h1.333l1.25,0.25l1.083,0.458l1.125,0.5h0.292h1.75l0.708,0.208l1.083,0.208l2.083-0.167l1.25-0.333l0.917-0.417l0.667-0.25
		l1.333-0.208h0.625l1.417-0.625l0.833-0.625l1.167-0.125l0.792,0.625l1.5,1.042l1.083,0.667l1.042,0.917l1.5,1.125l1.667,1.875
		l1.917,1.708l1.125-0.042l0.583-0.25l0.917-0.042l1.292,0.208l1.083,0.333l1.667,0.625l0.542,0.125l1.083-0.292l1.25-1.042
		l0.958-0.875l0.792-0.625l1-0.375l2.5-0.708l2.542-0.125h1.75l1.042,0.5l1.5,0.875l1.042,0.5l2.375,1l2.5,0.958l1.917,0.292
		l1.5,0.208l1.417-0.5l2.708-1l2.333-0.958l1.208-0.333l2.292-0.417l1.458-0.208l2.25,0.042l1.542-0.792l0.75-0.542l1.458,0.083
		l0.875,0.833l0.542,0.292l1.125,0.125l0.583-0.375l0.5-0.25l0.667,0.167l0.958,0.583l1.042,0.333l2.458-0.25l2.083-0.083
		l0.958-0.375l0.875-1.208l1.458-1.292l0.625-0.458l1.25-0.292l1.75-0.042l2.917-0.208l1.083-0.125l1.167-0.5l0.875-1.208
		l0.792-0.417l1.211,0.062l1.289,0.438l1.167,0.625l0.75,0.5l1.125,0.625l0.583,0.042l1.458,0.25l1.542,0.417l3.083,0.208
		l1.458,0.542l1.292,0.75l0.833,0.625l1.125,0.542l1.417,0.333l2.375,1l2.25,0.708l1.458,0.333l1.208,0.417l1.583,0.458l1.583,0.208
		l2.125-0.667l1.167-0.583l1.5-0.625h1.708l0.794,0.104l1.081,0.354l1.125,0.542l1.167,0.542h1.167"/>
	<path fill="none" stroke="#FF0000" stroke-width="0.25" stroke-miterlimit="10" d="M331.581,161.125h1.875l1.542,0.083l1.792,0.5
		l1.458,0.25l1.208-0.083l1.25-0.375l0.875-0.5l1.292-0.667l1.25-0.542l1.625-0.792l2.375-0.75l2.25-0.667l1.75-0.083l2.125,0.583
		l1.75,0.917l2.625,1.208l1.333-0.208l1.542-0.292l1.5,0.083l2.458,0.292h1.292l0.875,0.292l1.791,0.625l1.667,0.25l1.917,0.375
		l2.583-0.333l2.292-0.417l0.625-0.167l1.166,0.375l1.25,0.708l1.875,0.5l1.167,0.042l4.542,0.375l2.666-0.333l0.334-0.25
		l1.166-0.083h2.209h1.708l1.541-0.083l2.292,0.458l1.208,0.417l0.834,0.792c0,0,0.541,0.25,0.666,0.25s0.875,0.042,0.875,0.042
		l0.459-0.625l0.875-1.208l1.75-0.875l1.041-0.125l0.792,0.042l1.583,0.208l1.625-0.75l2.125-1.75l1.917-1.375l0.521-0.271
		l0.854-0.062l1.375,0.042l1.292,0.125h1.083l0.458,0.083l0.667,0.375l1.333,0.833l1.042,0.667c0,0,0.374,0.458,0.583,0.458
		s0.667,0.083,0.667,0.083l1.083-0.208l0.917-0.167l0.833,0.042L430.58,160l1.458,1.042l0.667,0.625l1.333,0.042l1.167,0.042
		l1.458,0.458l1.5,0.458l1.375,1l0.875,0.958l1.292,0.958l1.042,0.75c0,0,0.584,0.417,0.75,0.417s1,0,1,0l0.916-0.167l2.542-0.875
		l3.25-1.042l3.917-0.875l2.75-1.083l2.375-0.75l1.458-0.333l2.167-2.458l1.916-1.708l0.834-0.583l0.916-0.25l0.625,0.208
		l1.042-0.417l0.333-0.083l0.75,0.125l0.459,0.083l0.791-0.375l0.75-0.333l0.792-0.375l0.979-0.271l1.229,0.312l0.959,0.125h1.041
		l1.667,0.417l1.75,0.458l1.292,0.583l0.958,0.5l1.167,0.417l0.708-0.208l0.75-0.458l0.75-0.042l1.209,0.208l1.208,0.333
		l0.833,0.083l0.709,0.208l0.416,0.333l0.542,0.167l0.875,0.292l0.75,0.083l0.583,0.167l0.625,0.458l0.667,0.083l0.792-0.25
		l2.458-2.208l1.708-1.542l1.042-0.667l0.5,0.167l0.792,0.833l1.333,0.958l0.833,0.667l0.792,0.292l0.75-0.375l1-0.708l1.083-0.25
		l1.501,0.167l1.958-0.083l1.083-0.208l0.667-0.167l1.375,0.083l1,0.167h0.542l1-0.5l0.458-0.417l0.625-0.125l0.917,0.25
		l1.083,0.208l1.042,0.208l0.875,0.417l1.5,0.25l0.583-0.125l0.917-0.5l0.958-0.208l0.583,0.083l1.334,0.375l1.416,0.417
		l0.834-0.042l1-0.417l0.708-0.583l1.542,0.125l1.375,0.292l1.166,0.542h1.292l0.541-0.625l0.542-0.542l0.75-0.25l0.667-0.5
		l0.791-0.125l0.667-0.042l1.458-1.458l1.5-1.875l1.334-1.458l0.625-0.542l1.021,0.208l1.479,0.833l1.708,1.417l1.792,1.583
		l1.083-0.125l0.625-0.167l0.75-0.667l0.917-0.458h1.125l0.666-0.208l0.667,0.333l1.167,0.042l0.916,0.208l1.125-0.458l0.417-0.25
		l0.292,0.125l0.375,0.5l0.5,0.333h0.541l0.709-0.167l0.625-0.458l0.75,0.083l0.333,0.625l0.583,0.083l2.084-0.375l1.666-0.125
		l0.792,0.292l0.458,0.125l1.459-0.583l1.416-0.583l1.5-0.292l0.834-0.375l1.5-1.083l1-0.417l0.333,0.125l0.709,0.083l0.541-0.292
		l1.125-1.333l0.834-0.583l0.479-0.042h0.5l0.604,0.042l1.417-0.125l0.583,0.458l1.125,0.708l0.667,0.375h0.708l0.458,0.208
		l0.792,0.25l0.792,0.083l0.5,0.375l0.458,0.417l0.5,0.458l0.75,0.167l0.959-0.083l0.666-0.458l1-0.25l2.25,0.083l0.792,0.583
		l0.917,0.542l1.708,0.375l1.167,0.125h0.916l1.042-0.25l1.5-0.458l0.542,0.042l0.625,0.458l1.125,0.792l1.708,0.833l1.833,0.458
		l1.5,0.083h1.125l1.292,0.333l2.417,0.667l1.25,0.792l1.041,0.583l1.709,1.083l1.416,1.25l0.792,0.792l4-0.375l1.833-0.667
		l1.167-0.25h1.042l0.791-0.042l1.542,0.5l0.875,0.542h2.333l1.459-0.625l1.416-0.375l1.417,0.333l2.542,0.75l1.416,0.667
		l1.042,0.708l2.626,1.667l1,0.75l1.5,0.875l1.708,0.167l1.958,0.375l1.417-0.25l1.583-0.25l0.5,0.083l1.167,0.625l2.375,1.042
		l1.083-0.083l2.125,0.125l1.125,0.25l1.084,0.458l1.208,0.417l1-0.583l1.625-1.042l1.375-0.458l2.042,0.125l1.333,0.25l1.417,0.333
		l1.041,0.125l1.125-0.167l1.209-0.333h1.5l1.25,0.167l1.916,0.5l1,0.333l0.709,0.458l0.583,0.125h0.75c0,0,0.501,0.083,0.792,0.292
		s1.166,0.583,1.166,0.583l0.667,0.208l1.25-0.167l1.167-0.25l1.208-0.125l1.75-0.458l1.583-0.208h2.584l3.543-0.458l1.083,0.125
		l0.958,0.208l0.584-0.042c0,0,0.375,0,0.5,0s0.834,0.333,1,0.417s0.5,0.417,0.5,0.417L710,167.25l0.708,0.375l0.667,0.083
		l0.666,0.333l0.417,0.458l0.625,0.292l1.125,0.211l1.229,0.23l1.689,0.615l1.69,0.384l1.536,0.154h1.846"/>
</g>
<g id="land">
	<polygon fill="none" stroke="#FF0000" stroke-width="0.25" stroke-miterlimit="10" points="0,414.25 21.5,425 42.75,440.75 
		61.25,457.75 88.5,474.5 100.75,486 0,486 	"/>
	<polygon fill="none" stroke="#FF0000" stroke-width="0.25" stroke-miterlimit="10" points="273.5,484.75 322,466.75 340.5,462.25 
		370,441 397.5,428.5 413.25,428.5 441.75,425 465,423 481,426.5 492,430 506.5,426.75 517.75,425.25 547,427.25 565.25,430 
		592.25,434.5 607.5,436.5 637,437.25 651.25,439 669.5,448.5 679.5,451 696.75,456.5 710,453.875 720.25,453.875 724,453.875 
		724,486 273.5,486 	"/>
	<path fill="none" stroke="#FF0000" stroke-width="0.25" stroke-miterlimit="10" d="M0,229h25h7.75l6.75-5.75L22.75,207h9.75
		l26.25,3.25l12.25,2l4.75,4.5l4.75,3.75l8.75,3l9-0.25l9.25-2.75l8-2.5h5.75h11.25l7.5-6.25l10.75-3.562L163,205.5h5.75l4-2.375
		L174,200.5l-10.5-5.125l-5.469-4.625H166l25.5,1.5l19.5,1c0,0,10.5,0.5,11.25,0.5s4.5-1.5,4.5-1.5l3-1.5L225,185.5l-1-2l6,0.5
		l6.75-0.25l6.25-0.25l4.5-1.25l-10.75-3.5L232,177l0.5-3.75l11-1.5l11.5,0.5h10.5l4.75-0.75l7-0.5l6.25-0.25l3.5,3.5l-2.25,1.25
		l2.75,3l4.25,3.25l5,1.75h9.75l7.5-0.5l6,1.25l4.25,1.25l5.25,2l5.5,0.5l7.75-1l13-0.25l-2.5,2.5l-0.75,3.5l4.25,1l7.5,0.75H375
		l14-1l18.75-2.625l9-2.375l13.625-0.75l23.25-1.375l13.5-0.75l12.125-0.125l-1.75,1.875l-7.75,2l-6.625,1.125l-9.25,1.75
		L449.75,195l1.5,1.25l10.25,1l6.125,0.25l7.375-0.125l8.875-0.25l10.375-2.625l5.5-1.75l9.25-1l8-1.125L532.5,189l10.5,0.75
		l14.875,0.625l11.625-0.25l7.875-1l12.25-0.125l17.875,0.875l37-1.25l26.375-1h18.5L704.5,188.5l11.875,0.375L724,188.75v-23
		l-3.875-2.375H717l-4.25,0.375l-9,0.25l-15.5,0.75L680,163l-12-0.5l-7.875-0.25l-9.5-2.75l-5.375-2.125l-5.5-1.25h-9l-4.375,0.375
		l-12.875-5.375L605.625,149l-8-1.375l-15-2.625l-7.125,2.875l-6.125,1.875l-6.625,0.375l-10.875,0.125l-6.25-2.875l-3.5,1.5
		L537.75,152l-2.875,0.875l-4.625,0.75L526.375,154h-5.75h-4l-5.5-0.375l-4.125,1l-2.625,0.125l-3.625-1.625l-7.625,1.75l-2.75,0.75
		L486,155.25l-5-1.125l-7.5-0.75l-5.625,0.75l-8.375,3l-2.5,2.25l-6.25,1l-7,1.625l-5.375-1.625l-6.5-2.5l-9-3.25l-7.625-0.125
		l-7.375,2.875l-4.75,1.625h-7.75c0,0-6.625,0.25-7,0.375S377.75,159,377.75,159l-6.875-0.5l-11.375-1.75l-5.625-1.25L348,155.875
		l-7.375,2.375L331.75,159l-5.625,0.125H315.25l-7.5-1.75l-7.75-2.25L296.25,154l-4-1.625l-6-0.75l-6,0.375l-7.875,3l-2,1.125
		l-5.25-0.5l-4.375,0.5l-4.375,1.25l-7.75,1.75l-4.875,0.625l-2.25-0.625l-5.25-2.5l-4.75-0.5l-7.375,1.5l-2.625,1l-6.125-0.25
		l-3.75-2l-3.875-3.125l-4.625-1.375H200.5L193.75,153H189l-3.125-1.25l-2.5-1.5l-2.75-1.375l-4-0.125l-4,1.25l-7.875,2.625l-5,2
		l-9,2.375l-5.75,1.375L141,158l-4.625-1.25l-4.125-0.875l-4.75-1.25l-7.75,1.5h-3.125l-3.25-3l-4.5-0.625l-3,0.25H103l-4-0.25
		l-3.125,0.25l-3.125,1.125l-6,0.125l-4.125-1.125l-5.25-2.375l-7.125-2.125L65.5,148l-7.125-3.625L55,144.25l-7.75,1.25L44,147.25
		l-3.5-0.375l-3.375-2.375l-2.75-0.75h-2.25L30,142.5l-4.875-5c0,0-3.375-0.5-3.75-0.5s-5-0.125-5-0.125l-4.5-3.125l-3.75-2.625
		l-3.375-1.25L0,129.125V229z"/>
</g>
</svg>
