<?xml version="1.0" encoding="utf-8"?>
<!-- Generator: Adobe Illustrator 16.0.4, SVG Export Plug-In . SVG Version: 6.00 Build 0)  -->
<!DOCTYPE svg PUBLIC "-//W3C//DTD SVG 1.1//EN" "http://www.w3.org/Graphics/SVG/1.1/DTD/svg11.dtd">
<svg version="1.1" id="svg" xmlns="http://www.w3.org/2000/svg" xmlns:xlink="http://www.w3.org/1999/xlink" x="0px" y="0px"
	 width="968px" height="648px" viewBox="0 0 968 648" enable-background="new 0 0 968 648" xml:space="preserve">
<image overflow="visible" width="3872" height="2592" xlink:href="AK01_20070922_230210.JPG"  transform="matrix(0.25 0 0 0.25 0 0)">
</image>
<g id="gcp-peaks">
	<circle id="P8249" fill="#FF0000" cx="43" cy="154.062" r="0.25"/>
	<circle id="P8510" fill="#FF0000" cx="82.125" cy="147.812" r="0.25"/>
	<circle id="P6940" fill="#FF0000" cx="132" cy="158.875" r="0.25"/>
	<circle id="P6330" fill="#FF0000" cx="268.312" cy="154.5" r="0.25"/>
	<circle id="P5360" fill="#FF0000" cx="345.062" cy="153.188" r="0.25"/>
	<circle id="P5090" fill="#FF0000" cx="441.062" cy="146.625" r="0.25"/>
	<circle id="P5170" fill="#FF0000" cx="486.812" cy="144.438" r="0.25"/>
</g>
<g id="gcp-unused">
	<circle id="T20070922-01" fill="#FF0000" cx="895.688" cy="339.188" r="0.25"/>
	<circle id="T20070922-02" fill="#FF0000" cx="688.75" cy="361.25" r="0.25"/>
	<circle id="T20070922-03" fill="#FF0000" cx="344.875" cy="475.062" r="0.25"/>
	<circle id="T20070922-04" fill="#FF0000" cx="578.688" cy="333.812" r="0.25"/>
</g>
<g id="gcp">
	<circle id="nosebridge" fill="#FF0000" cx="695.875" cy="210.812" r="0.25"/>
	<circle id="shorenode" fill="#FF0000" cx="929.062" cy="327.312" r="0.25"/>
	<circle id="T20070922-07" fill="#FF0000" cx="393.072" cy="187.386" r="0.25"/>
	<circle id="T20070922-08" fill="#FF0000" cx="462.167" cy="184.917" r="0.25"/>
</g>
<g id="terminus">
	<polyline fill="none" stroke="#FF0000" stroke-width="0.25" stroke-miterlimit="10" points="326.5,493.312 328.188,491.125 
		330.688,489.188 331.938,488.438 333.125,487.562 336,486.312 336.938,485.688 337.625,484.5 338.188,483.312 339.25,481.812 
		341.312,479.438 342.75,477.688 345.125,475.062 346.375,473.562 347.438,472.312 	"/>
	<polyline fill="none" stroke="#FF0000" stroke-width="0.25" stroke-miterlimit="10" points="348.188,468.75 350.812,467.125 
		352.812,465.938 353.375,465.25 355.25,464.375 358.062,463.312 359.25,462.5 360.312,461.75 360.875,461.375 361.562,460.625 
		362.25,460.062 364.875,458.688 367.562,456.75 369.062,455.938 371.312,455.438 374.438,454.188 375.938,453.5 377.188,453.125 
		379.125,452.688 381.5,451.5 383.812,450.438 385.938,449.5 387.938,448.562 389.938,447.75 391.25,447.25 392.312,447 
		393.438,446.938 394.625,446.562 399.938,444.812 404.25,443.312 412.188,440.812 420.062,438.75 422.188,438.188 425.75,436.812 
		428.875,435.375 431.312,433.812 433.562,432.562 436.125,431.562 439,430 441.688,428.688 444,428.062 445.812,427.125 
		448,425.938 448.812,425.062 450.812,424.562 452.875,423.75 454.875,422.875 455.688,422.188 	"/>
	<path fill="none" stroke="#FF0000" stroke-width="0.25" stroke-miterlimit="10" d="M458.938,416.875l3.562-0.375l2.625-0.375
		l2.562-0.438l2.438-0.625l1.75-0.625l1.5-0.312l2.625-0.438l3.062-1l3.5-1.188l4.062-1.312l6.312-2.562l1.688-1.125l1.062-1.125
		l0.562-0.5l0.812-0.375l0.594-0.5l0.406-0.812l1.969-1.125l3.688-1.562l2.438-0.781c0,0,1.531-0.062,1.719-0.094
		s1.344-0.156,1.344-0.156l1.188-0.312l4.531-1.219l3.531-0.906l4.25-1.188l3.688-1.344l2.062-0.031l2.156-0.531l4.094-1.156
		l4.156-1.656l3.031-0.562l3.469-0.875l5.5-1.469l9.406-1.781l10.281-2.25l2.844-0.156l3.031-0.625l4.906-1.562l7.562-2.156
		l4.656-1.25l2.156,0.094l2.719,0.062L601.5,378l2.938-0.656l1.969-0.75l0.719-0.531l2.719-0.375l2.469-0.406l3.188-0.781
		l4.406-1.062l3.25-0.469l4.594-0.656l4.094-1.062l4.438-1.031l5.438-1.188l4.781-0.812l2.438-0.531l2.406-0.094l3.531-0.438
		l3.156-0.656l2.594-0.5l6.438-1.281l6.312-0.969l4.594-0.688l4.5-0.656l4.031-0.938l0.844-0.125l3.156-0.094l3.188-0.062
		l2.906,0.031l1.281-0.156l1.219-0.5l1.656-0.062l1.375-0.156l1.688-0.562l1.594-0.625l2.875-0.375l3.281-0.312l2.406-0.219
		l1.594-0.25l2.688-0.781l3.281-0.75l1.906-0.5l1-0.281l0.406-0.375l2.5-0.5l3.531-0.625l3.75-0.5l4.25-0.531l4.094-0.281
		l3.625-0.375l4.781-0.344l4.469-0.25l4.156-0.188l4.406-0.281l6.219-0.438l6.312-0.625l6.625-0.531l6.875-0.531l10.875-0.719
		l2.062-0.281"/>
	<path fill="none" stroke="#FF0000" stroke-width="0.25" stroke-miterlimit="10" d="M803.906,347.094l3.781-0.719l3.375-0.875
		l6.562-0.875l4.062-0.438l4.125-0.469l6.125-0.219l5-0.219l5.844-0.281l5.875-0.406l4.938-0.25l3.219-0.406l2.781-0.344h2.656
		l3.156,0.062l2.75-0.219l1.812-0.312c0,0,0.5-0.25,0.656-0.281s1.594-0.031,1.594-0.031l2.812-0.188c0,0,1.219-0.062,1.312-0.094
		s0.719-0.469,0.719-0.469s0.688-0.281,0.781-0.312s1.844-0.062,1.844-0.062l5.125-0.25l3.281-0.188l5.875-0.125l1.219,0.031"/>
</g>
<g id="coast">
	<polyline fill="none" stroke="#FF0000" stroke-width="0.25" stroke-miterlimit="10" points="895.438,339.188 897.75,339.25 
		900.583,339.333 902.417,339.333 904.083,339.333 905.667,339.25 907.667,339.25 909.583,339.25 913.25,339.333 915.333,339.333 
		918.417,339.583 921.917,339.583 925.583,339.917 929.583,340 932.833,340.167 936.25,340.25 938.75,340.333 941.5,340.583 
		942.667,340.667 945.5,340.583 946.917,340.417 949.583,340.333 951.5,340.333 953.333,340.25 954.917,340.167 956.25,340 
		957.75,339.833 959.75,339.75 961.583,339.75 962.5,339.667 963.333,339.333 965.333,339.167 968,339 	"/>
</g>
<g id="horizon">
	<path fill="none" stroke="#FF0000" stroke-width="0.25" stroke-miterlimit="10" d="M676.921,179.835l1.292-0.333l1.125-0.542
		l0.917-0.417c0,0,0.958-0.667,1.125-0.625s0.875-0.542,0.875-0.542l0.75-0.208c0,0,0.666,0.084,0.791,0.167
		c0.06,0.039,1.07-0.229,2.084-0.375c1.139-0.163,2.291-0.208,2.291-0.208l0.75-0.292l1.328-0.417l1.209-0.792l0.666-0.208
		l0.875-0.083l0.584-0.083l0.666-0.458l0.625-0.375c0,0,0.5-0.25,0.667-0.208s0.833,0,0.833,0l0.75-0.042l0.918-0.708l0.875-0.583
		l1.542-0.542l1.875-0.75l1.125-0.542l0.708-0.083l0.709-0.208l0.791-0.458l1.417-0.083l0.583-0.042l1.125-0.208l1.292-0.667
		l0.875-0.292l1.125-0.292c0,0,0.834-0.042,1.042-0.25s0.625-0.792,0.625-0.792l0.875-0.458l0.75-0.25l1.416-0.208l1.417-0.708
		l0.792-0.292l2.208-0.708h1.208l0.209,0.167l0.541,0.292l1.542,0.208c0,0-0.001-0.042,0.708,0.042s1.75,0.125,1.75,0.125
		l1.875,0.208h0.417c0,0,0.917-0.375,1.042-0.375s0.25-0.167,0.25-0.167l2.458-0.292l1.333-0.167l0.792-0.75l0.958-0.083l0.5-0.083
		c0,0,0.458-0.208,0.625-0.25s0.375-0.25,0.375-0.25h0.584l1.75,0.208l0.834-0.167l0.75-0.5l0.541-0.458c0,0,0.5-0.208,0.625-0.25
		s1.042-0.083,1.042-0.083s0.501,0.083,0.542,0.208s0.084,0.25,0.25,0.333s0.5,0.042,0.5,0.042s0.209-0.125,0.75-0.25
		s1.416-0.333,1.666-0.292s0.625,0,0.625,0h0.875l1.667,0.208l1.042,0.375h1l0.583-0.125c0,0,0.458-0.208,0.583-0.208
		s0.959-0.208,0.959-0.208l1.041-0.292l0.334-0.458c0,0,0.334-0.583,0.375-0.708s0.375-0.5,0.375-0.5l0.75-0.292l1.166-0.083
		l1.459,0.583l0.625,0.417l0.416,0.25l0.542,0.042l0.667-0.375l1.625-1.292l1.875-0.708l0.833-0.25l1.125-0.292l2.667-0.125
		l1.25-0.958l0.5-0.458l0.875-0.25h1.334l1.25-0.333l0.875-0.292c0,0,0.416-0.083,0.666,0s0.667,0.292,0.667,0.292l0.5,0.375
		c0,0,0.375,0.291,0.5,0.333s0.75,0.208,0.75,0.208l1.125,0.333c0,0,0.875,0.041,1,0.083s0.376,0.042,0.792-0.167
		s0.791-0.417,0.791-0.417l0.875-0.125l1.042,0.083c0,0,0.167,0.208,0.625,0.208s2.458-0.667,2.458-0.667l1.584-0.708l1.333-0.625
		l0.625-0.5l1.083-0.583l1.292-0.583l1.042-0.125h0.75l0.375,0.292l0.625,0.625c0,0,0.207,0.208,0.916,0.25s1.75,0,1.75,0
		L802.04,154l0.375-0.375l0.791-0.167l0.834,0.25l0.291,0.375h0.334l0.375-0.167l0.25-0.375l0.541-0.167l1.25-0.125h0.5l0.959,0.5
		c0,0,0.375,0.25,0.5,0.292s0.75,0.542,0.75,0.542l0.541,0.333l0.667,0.375c0,0,0.458,0.125,0.625,0.25s0.667,0.333,0.792,0.417
		s0.499,0.208,0.666,0.208s0.376,0.125,0.584,0s0.458-0.417,0.458-0.417s-0.042-0.333,0.583-0.333s1.084,0,1.084,0l0.625,0.167
		l1.668,0.208l1.458-0.375l2.208-0.833c0,0,1.667-1,1.792-1.083s1.083-0.625,1.083-0.625l0.834-0.458l0.583-0.042l1.125,0.042
		c0,0,0.292,0.333,0.417,0.375s0.708,0.292,0.708,0.292l0.5,0.208l0.667,0.333l1.5-0.083h0.791l0.459,0.208l0.458,0.25l0.208,0.25
		c0,0,0.542,0.25,0.667,0.333s0.75,0.667,0.75,0.667l0.292,0.292l0.875-0.25l0.375-0.667l1-1.25l0.416-0.708l0.459-0.458
		l0.375-0.042l0.958,0.208l0.917,0.625c0,0,1.208,0.5,1.333,0.542s1.417,0.625,1.417,0.625l1.041,0.75l0.5,0.333l0.5,0.083
		l0.375-0.125l1,0.208l0.542,0.667l1.458,1.083l1,0.792l1.043,0.208l0.5-0.208L851.5,158l0.084,0.292l0.375,0.208
		c0,0,0.208-0.208,0.333-0.25s0.625-0.542,0.625-0.542l0.583-0.375l0.917-0.292l0.708-0.083l0.834-0.208c0,0,0.666,0,0.833-0.167
		s0.333-0.458,0.333-0.458s0.167-0.583,0.292-0.875s0.417-0.625,0.417-0.625l0.75-0.458l1.708-0.375l1.917-0.292l0.75-0.167
		l0.666-0.333l0.75-0.042l0.709,0.25c0,0,0.458,0.083,0.583,0.083s0.876-0.25,1.042-0.333s0.833-0.375,0.833-0.375l1.042-0.625
		l1.5-0.042l1.375-0.083c0,0,1.125,0.042,1.25,0.083s0.958,0.292,0.958,0.292l1.75-0.208l2.125-0.375l0.792-0.292l1.166-0.125
		l1.709-0.125l1.708,0.167l1.209,0.583l0.708,0.5l0.958,0.583l0.417,0.167l1.5-1.25l1.542-0.583l0.916-0.917l0.5-0.875l0.459-0.667
		l0.833-0.25l0.75-0.333l2.083-2.708l0.917-0.708l0.625-0.5l0.958-0.25l0.875-0.375c0,0,0.375-0.458,0.5-0.625
		s0.292-0.625,0.292-0.625l0.417-0.208l0.958-0.042l0.625-0.125l1.459-1l1.792-1.167l1.875-1.167l0.625-0.458l0.916-0.167h1.125
		h1.292l0.875-0.208l0.958-0.375l1.042-0.583l0.917-0.583l1.541-0.542l1.292-0.583l1.625-1.083l0.792-0.375l1-0.792l0.666-0.5
		l0.584-0.292l0.708,0.25l1.25,0.458l1.292,0.042l2.458-0.208l1.25-0.917l0.708-0.583l0.584-0.583c0,0,0.25-0.916,0.333-1.083
		s0.167-0.459,0.417-0.917s0.916-1.292,0.916-1.292l1.792-0.792l1.167-0.333l0.583-0.083l0.917-0.083l1.041,0.208l1.084,0.375
		l1.416,0.458l1.709,0.375l1.291,0.375l1.042,0.292l0.458,0.25l0.584,0.458c0,0,0.25,0.375,0.375,0.542s0.333,0.417,0.333,0.417
		l0.875,0.25l1.208,0.125h0.625h0.917l0.75-0.292l0.417-0.917l1.666-1.625l0.917-0.75l0.625-0.625l1.167-0.5l1.291-0.667l0.75-0.458
		l0.667-0.542l0.292-0.417l1.416-0.708l1.167-0.708l0.833-0.542l0.917-0.625l0.708-0.417l0.709-0.458l0.5-0.542l0.166-0.417
		c0,0,0.417-0.375,0.542-0.333s0.417-0.042,0.417-0.042l0.666-0.125l0.75-0.417l1.999-1.5"/>
	<path fill="none" stroke="#FF0000" stroke-width="0.25" stroke-miterlimit="10" d="M0.062,154.5l1.125,0.375l1.438,0.938
		l1.062,0.75l1.625,0.188l1.562,0.438l1.562,0.688l0.75,0.312l0.75,0.625l1.438,0.688l1.125,0.312l1.062,0.062L15,160.062
		l1.25,0.125l1.125,0.125l1.375,0.438l0.938,0.062l1.938-1.75l1.75-0.812l1.5-0.312h1.062l0.688-0.5l0.625-0.5l0.312-0.25
		l1.188-0.25l0.875-0.062l1.25-0.062l0.625-0.375l1.438-0.188l1.438-0.062l1.438,0.062l1,0.25l0.938,0.188l1.333-0.646l1.5-0.583
		l1-0.542l0.917-0.542l0.792-0.333l0.5,0.375l0.417,0.5l0.25,0.5l0.792,0.458l0.667,0.333L46.792,156h0.625h0.75L49,155.667
		l0.458-0.375l0.375-0.042l1.083,0.083l0.667,0.208l0.833,0.417l0.625,0.375l0.833,0.208l0.833-0.042l1.333-0.042l1.375-0.042
		l2.417-0.167l1.958-0.125l1-0.167l0.875-0.75l0.458-1.083l0.25-0.792l0.833-0.667l0.5-0.042l0.833-0.708l0.333-0.208l0.917-0.167
		c0,0,0.625,0,0.833,0s1.208,0.083,1.208,0.083h0.875h1.333L72.667,151l0.833-0.292h1.625l0.792,0.167l0.333,0.083h0.583
		l1.333-0.292l1.5-0.292l0.458-0.958v-0.875l0.417-0.625l1-0.542l1.167,0.083l1.167,0.167l0.75,0.333l1,0.5
		c0,0,1.542,0.5,1.75,0.625s1.292,0.667,1.292,0.667l1.167,0.875l1.042,0.5l1.583,0.417l1.083-0.125l0.667,0.167L95,151.917
		l0.75,0.25l0.958,0.083l1.208,0.042h1.167l1.666,0.25l0.5,0.417l0.917,0.667l0.542,0.417c0,0,0.25,0.125,0.417,0.167
		s0.333,0.083,0.625,0.167s0.5,0.167,0.625,0.25s0.458,0.458,0.458,0.458l0.667,0.583l0.375,0.25l0.542,0.167h0.917l0.458,0.167
		l1.292,0.417l1.042,0.458l0.583,0.125l0.958,0.833c0,0,0.458,0.208,0.542,0.333s2.417,0.542,2.417,0.542l1.708,0.25l0.875-0.042
		l0.667-0.083c0,0,0.667,0.208,0.75,0.333s0.583,0.458,0.792,0.542s1,0.292,1,0.292l1.083,0.333l1.042,0.167l0.917,0.083
		l1.167,0.208l0.708,0.083h0.708l2.083-1.083l0.875-0.333l1.042-0.5l0.875-0.25l1.375-0.333h0.875l1.125-0.125l1,0.083
		c0,0,0.625,0.125,0.75,0.25s0.75,0.292,1,0.458s0.542,0.333,1,0.375s1.167,0.292,1.167,0.292l0.625,0.417l0.958,0.333l0.958,0.25
		l1.208,0.292l0.75,0.208h0.5l0.75-1.042l0.958-0.875l0.958-0.75l1.375-0.25l1.708-0.208l1.875,0.167l1.333,0.542l2.375,0.542
		l1.792,0.25l1,0.125l1.125-0.292l1.417-0.292l1.208-0.958l0.917-0.542l0.917-0.292l1.083-0.458c0,0,0.875-0.708,1.083-0.75
		s1.208-0.583,1.208-0.583l1.458-0.792l2.125-0.625L172.29,154l2.208-0.083l1.333-0.042l2.25,0.208l2.417,0.917l2.208,1.292
		l1.874,1.083l1.125,0.5c0,0,1.125-0.042,1.292,0s1.167-0.042,1.167-0.042l1.25-0.333l1.25-0.125h1.292l1.833,0.292l1.167,0.125
		l1.583-0.042l2.208,0.25l1.167,0.125l1.5,0.458l2.083,0.583l0.833,0.25l1.208,0.125l2.375,0.208l2.375,0.042l1.042,0.083h0.875
		l1.083-0.792l0.75-0.792l0.75-0.167l0.625,0.208l1.083,0.875l1.083,0.708l1.125,0.333c0,0,1.167,0.125,1.417,0.125
		s2.375,0.167,2.375,0.167l0.542,0.083c0,0,0.833,0.292,1,0.375s1.542,0.25,1.542,0.25s1.625,0.042,1.958,0.042
		s3.458-0.208,3.458-0.208l0.667-0.375l0.625-0.458l1.25-0.042l1.458,0.167l1.625,0.25h1.042l1.458-0.292l1.625,0.167l1.083,0.208
		h1.167l1.042,0.208l0.458,0.125l0.625,0.208l0.875,0.208l1.166,0.542l0.917,0.792l0.5,0.458l0.792,0.292l0.625,0.042l0.5-0.292
		l0.333-0.75l1.083-1.083l0.958-0.917l1-0.5l0.792-0.25l1.375,0.125l2.167,0.417l2.792-1.083l2.5-1.708l2.083-1.625l1.417-1.417
		l0.833-0.375l1.292-0.208l2.917,0.292l2.333,0.25l0.458,0.208l1.167,0.75l1.5,1l0.917,0.667l0.583,0.5l0.917,0.25l1.208,0.083
		c0,0,0.958,0.083,1.083,0s0.792-0.167,0.792-0.167l1.208-0.292l0.666,0.417l0.833,0.333l0.667,0.292l1.125,0.583l1.042,0.583
		l0.75,0.792l0.458,0.5l0.5,0.375L292.12,161h1.417l1.417,0.333l1.042,0.458l1.708,0.917l1.833,1.458l1.375,1.208l1.333,1
		l0.458,0.458l1.792,1.458l1.292,0.042l0.75-0.292l1.292-0.083c0,0,0.708-0.292,0.833-0.333s0.375-0.25,0.5-0.333
		s1.083-0.625,1.083-0.625l1-0.333l1.625-0.125l0.875-0.458l0.75-0.458l1.208-0.458l1.875-0.458l3.75-0.958l2.917-0.833l2.083-0.5
		l1.083-0.167l0.792-0.333l1.583-1.042l1.375-1.667l1.75-1.75l1.542-1.208l1.417-0.708l0.583-0.417c0,0,0.167,0,0.333,0
		s0.5,0.083,0.5,0.083l0.875,0.167l0.5-0.375l0.417-0.458l0.625-0.042l0.333,0.125l0.333,0.375h0.75l1.25-0.542l0.417-0.625
		l1.333-0.708l0.417-0.083h1.333l1.708,0.25l1.958,0.25l2,0.5c0,0,1.458,0.458,1.625,0.5s1.417,0.375,1.417,0.375l2.333,1.042
		l1.292,0.875l1.167,0.417l0.708-0.042l0.417-0.625l0.292-0.458l0.5-0.083l1.542,0.333l1.167,0.292l0.75,0.458l0.625,0.25
		l0.292-0.333l0.458-0.125l0.542,0.083l0.667,0.583l0.542,0.333l0.75,0.292l1,0.125l1.125,0.125l0.625,0.125
		c0,0,0.208,0.292,0.417,0.458s0.708,0.542,0.708,0.542l0.625,0.167c0,0,0.833,0,1-0.125s2.5-2.375,2.5-2.375l1.708-2l1.042-0.708
		l0.708-0.75l0.417-0.25l0.958-0.042l0.333,0.25l0.542,0.875l1.25,0.833l1.125,0.833l0.708,0.375l1.083,0.458l0.458-0.042
		c0,0,0.708-0.083,0.833-0.167s0.417-0.458,0.417-0.458l0.75-0.542c0,0,0.208-0.292,0.458-0.292s1,0,1,0l1.875,0.333l0.917,0.042
		l0.75-0.208h0.542h1l0.458-0.125l0.542-0.292l1-0.042l1.542,0.167l0.958,0.208l1.333,0.333l0.417-0.708l0.417-0.208l0.958-0.75
		l0.833,0.125c0,0,0.292,0.166,0.417,0.208s1.458,0.125,1.458,0.125h0.875l0.875,0.375l0.5,0.25l1.167,0.125l0.542,0.208
		l0.542,0.417l0.958,0.208c0,0,0.625-0.167,0.667-0.292s0.625-0.583,0.625-0.583l0.792-0.25h1.125l0.375,0.042l0.917,0.417
		l1.542,0.542c0,0,0.125,0,0.417,0s1.375-0.083,1.375-0.083l0.208-0.042l1.083-0.583l1.042-0.542l1.083-0.25l1.792,0.167
		l1.208,0.375l1.333,0.542c0,0,0.667,0.333,0.833,0.375s1.208-0.167,1.208-0.167s0.458-0.375,0.625-0.583s0.375-0.583,0.375-0.583
		l0.25-0.167l0.75-0.042l0.417-0.125l0.416-0.583l1-0.125l0.583,0.042l0.625-0.625l0.875-0.667l0.792-0.792l0.5-0.75l0.708-0.833
		l0.625-0.708l1.083-1.375l0.833-0.583l1.292-0.792l0.875,0.042l0.5,0.417l1.75,1.125l2.375,2.375l1.792,1.792l0.375,0.333
		l1.292-0.625l0.958-0.708l0.583-0.708l0.5-0.417c0,0,0.167-0.042,0.292,0s0.792-0.042,0.792-0.042l0.292-0.292l0.625-0.292
		l0.75,0.25l0.208,0.375l0.417,0.208l0.958,0.083l2.125,0.292l0.5-0.375l0.667-0.542l0.625-0.083l0.208,0.083l0.292,0.542l0.375,0.5
		l0.958,0.125h0.792l0.417-0.542l0.375-0.167l0.583,0.083l0.125,0.5l0.375,0.375l0.583,0.125h1.083l0.75-0.542l0.875-0.208h0.792
		h1.333l1.042,0.208l0.875,0.292l0.542,0.167l1.374-0.667l1.208-0.667c0,0,0.375-0.208,0.5-0.208s0.5,0,0.5,0h0.542l0.792-0.125
		l0.75-0.458l1-0.208l0.583-0.708l0.5-0.417l0.875-0.542l1.042,0.083l0.542,0.208l0.542-0.292l0.667-0.583l1.125-1.208l1.042-1
		l0.708-0.417c0,0,0.417-0.083,0.542-0.042s0.375,0.292,0.375,0.292l0.625-0.083l0.875-0.083l0.583,0.083l0.583,0.583
		c0,0,0.792,0.333,0.917,0.458s0.75,0.833,0.75,0.833l0.542,0.375c0,0,0.166,0.083,0.416,0.042s0.5-0.167,0.667-0.167
		s0.625,0.167,0.625,0.167l0.583,0.458l0.375,0.208l0.75-0.042c0,0,0.584-0.083,0.709-0.042s0.458,0.333,0.458,0.333l0.542,0.5
		l0.583,0.5l0.875,0.542l1.042,0.333h0.583l0.417-0.583l0.583-0.333l1.042-0.208h1.458l1.542,0.333l0.916,0.5l0.834,0.667
		l0.958,0.25l0.667,0.167l1.083,0.542l0.875,0.083l1-0.125l1.042-0.125c0,0,0.416,0,0.541,0.042s0.667-0.042,0.792,0
		s0.625-0.375,0.625-0.375l0.625-0.083l1.125,0.25l1.833,1.167l1.292,0.75l1.292,0.583l1.291,0.25l1.625,0.125l1.042,0.167
		l1.667,0.167l1.583,0.292l1.291,0.583l1.917,1.167l1.833,1.042l1.875,1.083l1.375,1.208l0.5,0.708l0.75,0.5l2.25,0.125l3.125-0.25
		l1.042-0.042l0.958-0.458l0.958-0.167h0.959l0.791-0.125l0.375-0.25h1l0.709,0.292c0,0,0.5,0.292,0.583,0.417
		s0.292,0.375,0.292,0.375h2.5l1.833-0.083l0.875-0.25l1.542-0.458l0.75-0.125h0.958l1,0.333l0.542,0.458l0.666,0.417l0.834-0.083
		h0.625l0.583,0.208l1.083,1.125l1.459,1.042l1.083,0.792l0.625,0.5l0.75,0.208l0.458,0.625l0.542,0.5l1.125,0.542h0.708h1.042
		l0.792,0.375l0.708,0.292l0.958,0.292l1.167,0.208h0.958h1.375l1.209-0.542l0.25-0.25l0.583,0.083l0.583,0.292l0.625,0.458
		c0,0,0.418,0.375,0.584,0.417s2.792,1.292,2.792,1.292s0.334-0.25,0.459-0.25s1.041-0.25,1.041-0.25l1.5,0.25l0.959,0.083h0.541
		l0.5,0.25c0,0,0.375,0.25,0.542,0.417s0.75,0.833,0.75,0.833s1,0,1.125,0s1.083,0,1.083,0l1.042-0.917l0.958-1.042l0.834-0.333
		l0.583-0.208l0.75,0.125l0.5,0.25l0.375,0.042l0.792-0.042l1.291,0.292l0.417,0.208l1-0.25h0.667c0,0,0.416,0.333,0.541,0.375
		s0.167,0.25,0.292,0.25s1.125-0.042,1.125-0.042l0.583-0.167l0.5-0.542l0.667-0.042l0.583,0.167l0.5,0.125l0.584-0.208
		c0,0,0.25-0.125,0.458-0.125s0.625,0,0.625,0l0.792,0.167c0,0,0.624,0.458,0.791,0.542s0.917,0.167,0.917,0.167l1.083,0.042
		l0.75,0.458l0.334,0.375l0.625,0.458l0.75,0.167l0.791-0.042h0.834l1.291,0.583c0,0,0.501,0.125,0.709,0.333s0.666,0.5,0.666,0.5
		l1.25-0.333h1.167l1.042,0.042l0.583-0.125c0,0,0.75-0.375,0.875-0.375s1.542-0.25,1.542-0.25l0.583-0.042l0.333-0.375l0.334-0.042
		l1.166,0.042l1.543-0.083l1.709-0.125l1.75-0.292l0.958-0.25h0.75l0.625,0.208c0,0,0.292,0.167,0.417,0.25s0.541,0.292,0.541,0.292
		l0.625-0.125l0.584-0.042h0.791l0.667,0.5c0,0,0.291,0.167,0.458,0.375s0.75,0.708,0.75,0.708l0.417,0.25l0.833,0.083l0.75,0.25
		l0.625,0.417l0.25,0.417l0.292,0.167l0.716,0.292l1.375,0.208l1.208,0.125l1.042,0.292l0.791,0.292l1.334,0.25l1.166,0.292
		l1.334,0.25l1.583,0.25l1.583,0.375l1.459,0.708c0,0,1.041,0.542,1.166,0.625s0.709,0.917,0.709,0.917l0.708,0.792l0.375,0.167
		l0.667-0.208l0.416-0.292l0.417-0.208l0.542,0.042l0.875,0.333h0.708l0.625,0.208l0.667,0.458l0.583,0.083l0.542,0.25l0.583,0.542
		l0.333,0.375"/>
</g>
<g id="moraines-unused">
	<g id="moraine-04">
		<polyline fill="none" stroke="#FF0000" stroke-width="0.25" stroke-miterlimit="10" points="343.9,467.692 302.969,464.468 
			237.229,458.762 176.7,454.296 138.994,452.56 33.315,447.103 15.206,446.854 		"/>
	</g>
	<g id="moraine-03">
		<polyline fill="none" stroke="#FF0000" stroke-width="0.25" stroke-miterlimit="10" points="628,262.062 623.875,260.812 
			622.125,260.375 621.25,260.375 619.812,260.062 618.125,259.312 614.438,258 611.438,257.25 608.688,256.375 607.312,255.375 
			605.188,253.938 604.75,252.938 604.5,250.438 604.625,248.625 605,247.5 605.438,246.688 607.375,245.25 609.188,244.312 
			611.438,242.938 615.062,240.5 617.562,239.375 620.312,238 622.562,236.938 625.25,235.938 626.375,235.438 626.75,235.062 		"/>
	</g>
</g>
<g id="moraines">
	<g id="moraine-01">
		<polyline fill="none" stroke="#FF0000" stroke-width="0.25" stroke-miterlimit="10" points="674.499,350 658.333,348.5 
			645.499,347.333 630.833,345.333 619.666,342.666 607.166,339.666 591.999,336.666 577.999,332.5 563.833,328 551.833,322.833 
			536.25,317.75 523.375,313.75 515.625,311.125 497.375,307.75 479.75,303.125 471.125,302 457.75,299.375 445.625,297 
			430.5,294.75 410.5,291.75 395.75,289.75 378.5,287.375 364.875,285.75 346.75,283.875 325.75,281.75 308.875,280.25 288.5,278.5 
			272.875,277.125 246.875,274.375 227.125,271.5 212.5,267.375 199,263.375 183.125,258.625 167.75,254.625 152.25,251.25 
			144.667,249.417 137.5,246.833 133.583,244.583 131,242.25 130.417,240 131.167,238.667 134.25,237 141.5,234.583 148.833,232 
			155.417,230.167 160.917,229.417 166.167,228.334 170.167,226.584 172.917,224 175.334,222.125 175.5,221.417 174.959,220.542 
			173.709,220.125 172,219.792 		"/>
		<polyline fill="none" stroke="#FF0000" stroke-width="0.25" stroke-miterlimit="10" points="166.417,219.125 163.667,218.167 
			161.375,216.917 158.959,215.583 157.584,214.708 156.334,214.125 154.209,213.792 151.876,213.458 147.917,213.083 		"/>
		<polyline fill="none" stroke="#FF0000" stroke-width="0.25" stroke-miterlimit="10" points="129.042,212.25 123.459,211.25 
			119.876,210.375 117.001,209.833 114.917,209.375 111.628,208.916 107.878,208.708 103.961,208.625 99.794,208.75 96.628,208.708 
			90.961,208.583 87.544,208.375 84.003,208.166 80.586,208.125 76.836,207.875 71.67,207.458 68.17,207 64.67,206.333 
			61.753,205.833 57.711,205.458 53.878,205 49.503,204.791 44.628,204.708 40.753,204.708 37.503,204.666 		"/>
		<polyline fill="none" stroke="#FF0000" stroke-width="0.25" stroke-miterlimit="10" points="3.129,204.374 5.212,203.499 
			7.254,202.874 		"/>
		<polyline fill="none" stroke="#FF0000" stroke-width="0.25" stroke-miterlimit="10" points="15.629,202.249 18.129,201.249 
			18.92,200.791 19.129,200.416 18.67,200.041 17.17,199.666 15.212,199.166 13.962,198.958 		"/>
	</g>
	<g id="moraine-02">
		<polyline fill="none" stroke="#FF0000" stroke-width="0.25" stroke-miterlimit="10" points="221.667,243.835 218.083,242.918 
			212.917,242.335 206.833,241.501 200,240.251 193.833,238.585 191.75,237.501 191.667,236.335 192.667,235.251 195.167,233.918 
			198.083,232.668 203,231.168 209.667,229.085 214.917,227.668 221.333,225.501 225.25,223.835 226.583,222.501 227.5,221.251 
			227.75,220.001 227.5,218.751 226.417,217.751 225.167,217.251 222.188,216.5 219.25,216.312 		"/>
		<polyline fill="none" stroke="#FF0000" stroke-width="0.25" stroke-miterlimit="10" points="210.125,213.812 205.812,212.688 
			203.188,212.125 		"/>
		<polyline fill="none" stroke="#FF0000" stroke-width="0.25" stroke-miterlimit="10" points="198.875,211.438 194.938,211 
			192.688,210.938 		"/>
		<polyline fill="none" stroke="#FF0000" stroke-width="0.25" stroke-miterlimit="10" points="172.938,210.875 167.312,209.938 
			163.688,209.312 158.75,208.562 153.875,207.812 148.375,207.312 143.062,206.812 137.688,206.562 131.438,206.438 
			126.125,206.25 117.625,206.062 112.125,206.125 106.188,205.938 100.875,205.812 95.188,205.562 90.75,205.25 85.75,204.938 
			81.75,204.188 79.312,203.5 78.697,203.176 78.014,202.915 77.652,202.674 77.612,202.473 77.773,202.151 78.597,201.75 
			79.822,201.026 82.012,200.162 83.258,199.861 84.021,199.62 84.484,199.459 84.785,199.278 		"/>
	</g>
	<g id="moraine-05">
		<polyline fill="none" stroke="#FF0000" stroke-width="0.25" stroke-miterlimit="10" points="457.375,218.125 457.938,217.688 
			464,216.75 469.375,215.938 478.812,214.812 485.625,214 490.25,213.562 496.438,213.375 501.25,212.938 505.688,212.5 
			509.625,212.438 511.625,212.312 515,212.062 520.375,211.562 525.938,210.812 532.688,209.812 537.188,209.312 542.312,208.938 
			547.188,208.875 552.875,208.312 556.812,208.188 562,207.875 567.5,207.875 573.625,207.938 577.688,208.188 587.625,208.375 
			596.625,208.375 604.875,208.062 613.062,207.938 618.938,207.688 626.875,207.688 633.625,207.812 639.75,207.625 
			647.625,207.375 654.25,207.062 667.438,206.188 672.562,205.875 		"/>
	</g>
</g>
</svg>
