<?xml version="1.0" encoding="utf-8"?>
<!-- Generator: Adobe Illustrator 16.0.4, SVG Export Plug-In . SVG Version: 6.00 Build 0)  -->
<!DOCTYPE svg PUBLIC "-//W3C//DTD SVG 1.1//EN" "http://www.w3.org/Graphics/SVG/1.1/DTD/svg11.dtd">
<svg version="1.1" id="svg" xmlns="http://www.w3.org/2000/svg" xmlns:xlink="http://www.w3.org/1999/xlink" x="0px" y="0px"
	 width="695.04px" height="466.559px" viewBox="0 0 695.04 466.559" enable-background="new 0 0 695.04 466.559"
	 xml:space="preserve">
<image overflow="visible" enable-background="new    " width="2896" height="1944" xlink:href="AK01b_20120731_192459.JPG"  transform="matrix(0.24 0 0 0.24 0 9.765625e-04)">
</image>
<g id="land">
	<path fill="none" stroke="#FF0000" stroke-width="0.25" stroke-miterlimit="10" d="M0,290l17.75,1.5l11-0.75L38.5,290l4.75-2v-4.5
		l-10.75-9.75l-4.75-4.5l-0.5-2.5h8.25H50L61.25,270l8.25,3.5l10,5.625L85,282l6,1.75l6.75,0.75l14.5-5.375l8-2.125l15.25-4l15-3
		l9.5-3.25l6.75-2.25l1.75-4.5l-3.25-2l-8.25-5.5l-1-1.75h4h16.25l19.5,1.75h11l7.25-0.25l5.25-1.5l3.75-1.25l-5.75-5.5l2.5-1.75
		H228l10.5-1.25l2.5-2l3.75-2.25l12.75-2.25H269l9,2.25l5.75,4.5l-6.25,2.25l-1.25,2.25l4.5,1l11.5-0.25l13.75-0.25l14,0.75
		l11.25-1.75l10.25-0.75l1.25,1.25L340,247.5l0.5,2.75l9.25,2.75l9-0.5l4,0.25l4.25,2.5l7.75-0.75l3.75-2.25l4.25-4l2.75-3
		l5.75-0.75l24.75-1.75h11.5l15.25-0.5l18-1.75l4.75,1l-2.25,2l-7.5,1.25L440.5,249l-7.75,2.25l-1,2c0,0,4.5,1.75,5.5,1.75
		s17.25-0.25,17.25-0.25l11,0.5l10.5-1l4-2.5l7.25-4.25l9-1.25l12-0.25l12.75-1.25l13,0.5l21-1.25l36,1.5l28-1.5l25-2.75l20.75,0.5
		l19.5,1.25h10.789v-24.25L671,217h-20.25h-13.5l-8.25-1.75L614,210l-9.5-3l-15-3.25l-21.25-3.5H559l-8.25,4.5l-8.5,1l-7.75-0.5
		l-8.5-1.5l-6.5,0.5L508.25,208l-17,2L476,208.5h-8.25l-22.25,1.25l-5.75,6.75l-3.25,1.5l-9.25-0.5l-6-2.25l-13.5-2H399L373.5,214
		l-25.98-1.25L334.75,213L317,214.25h-17.25l-8.5-1.75l-13.5-2.25l-10,0.75L252,213l-22,1.5l-12-1.75h-8l-18.25-2.25l-11-3.25
		l-8.5,0.25L161,211.75l-13,3c0,0-7.5,0.25-8.25,0.25S128,212.75,128,212.75L111.25,212l-10.5-2l-9.5-0.25l-11-0.75L70,207.75
		l-10.25-4.25l-8.5-1.25l-10.75,1l-6-4.75l-10-4l-9.75-2.75L0,190"/>
</g>
<g id="horizon">
	<path fill="none" stroke="#FF0000" stroke-width="0.25" stroke-miterlimit="10" d="M0,196.113l3.438-2.083h2l4.167,1.042
		l2.167,1.042l2.25,2l1.333,1l1,1.917l1.083,0.667l1.25-0.583l0.917-0.167l1.333,0.25l1.75,0.583h2.417l1-0.167l1.167,0.583
		l0.833,2.167l1,1.667l2.75,2.667l0.833-1.5l1-0.083l2,0.417l0.917,1.667l1.833,0.917l2.75,1.917l1.667,0.333l0.5-0.417l1.25,0.167
		l1.083,0.25l1-0.667l2.708-2.104l1.25-0.562h1.312l0.812,0.375l0.5,0.688l0.875,0.125l1-0.062l1-0.5l0.312-1.062l0.875-0.688
		l0.938-0.188l1.125,0.625l2.5,1.75l1,0.125l0.812,0.875l1.062-0.125l2.562,0.438l2.312,0.312h2.5l1.375,0.5l2.375,1.312l1.5,1
		l1.25,0.5l2.125,0.125l0.875,0.5l1.125,1.062l0.688,0.5l1.625,0.312h1.625l1.312-0.188l1.438,0.125l1.562,0.5l1.938-0.688
		l1.312-0.688l1-0.75l0.625-0.438h0.5l0.875,0.562l0.75-0.125h0.625l1.25,0.688l0.438,0.688l1.25-0.438l1.312-0.188l1.688,0.062
		l0.938-0.625l0.75-0.25h0.875l0.75-0.5h1.188l1.062,0.188l1.125,1.25l2.062,2.375l1,0.938l1.25,0.625l0.625-0.312h0.75l0.375-0.562
		h0.875l0.562,0.562l1.125-0.75l1.75-1.938l0.875-0.625l1.062-0.312l1.625,1.062l1.438,1.375l1.125,1.062l1.562-0.312l2.25-0.562
		l0.75-0.375l1.062,0.125l1.25,0.562l0.938,0.375l1.938,1.625l2,1l1.438,0.188l2.188-0.75l0.625-0.75l0.938-0.5l3-0.312l1.75-0.875
		l0.562-0.938l1.5-0.5l1.188,0.25h2.125l0.938-0.5l0.688-0.625l0.5-0.625l1.125-0.188l1.938,0.125l1.938-0.438l0.375-0.938
		l0.75-0.375l1.062,0.188l1.438,0.562l2.938-0.125l2.375-1.062l2.125-2l0.75-0.688c0,0,0.188-0.312,0.375-0.25
		c0.187,0.062,1.25,0,1.25,0l0.812,0.875l2,1.938l1.625,0.312l2.062,1l2.125,0.75l1.688,0.625l2.188-0.062h1.688l1.625-0.375
		l1.75-0.625l0.812-0.25l1.5-0.188l0.875,0.062l1.125-0.875l0.5-0.375l1.125,0.375l1.125,1.062l1.812,0.812l1.688,1.375l1.438,1.5
		l1.5,2l1.062,0.438l0.688-0.125l0.875-0.5l1.438,0.125l1.312,0.625l1.75,0.875l1,0.188l1.312-0.75l1.938-1.812l0.75-0.625
		l1.625-0.438l2.062-0.562l2.125-0.188l1.5,0.25l1.375,1.25l1.688,0.938l1.375,0.375l3.188,0.75l2.312,0.5l1.812,0.312l1.75-1.062
		l2.312-1.125l2.812-0.938l3.125-0.5l1.812,0.312l1.312-0.125l0.625-0.688l0.75-0.562h0.812l1.688,0.812l1.25,0.062h1.312
		l1.125,0.188l0.938,0.5l2.938-0.062l2.062-0.438l1-0.188l1.125-1.438l0.75-1.062l1.188-0.312l3-0.125l2.5-0.375h1.875l0.625-1.688
		l1.062-0.375l1.688-0.188l1.812,0.938l2.125,1.75l1.625-0.062l1.5,0.125l1,0.188l2.625,0.5l2.688,1.5l3.375,1.062l2.75,1.25
		l2.25,0.5l2.062,0.562l1.5,0.125l1.5-0.188l0.625-0.562l1.188-0.625l1.812-0.062l1.688-0.312l0.688-0.188l1.625,1l1.062,0.688
		l1.688,0.062l2.625-1.062l1.875-0.562l1.938,0.125l1.875,0.688l2.125,0.062l1.438-0.188l1.125-0.688l4.562-2.625l3.25-0.75
		l2.938,0.25l4,1.875l1.625,0.312h1.875l0.75-0.125l3-0.125l3.438,0.562l2.438,0.562l2.625,0.188l2.875-0.312l1.125-0.125
		l0.562-0.438l1.312,0.75l2.562,0.562l3.375,0.5l2.625,0.125l1.5-0.25l0.875-0.438h1.125h2.5l2.562,0.125l1.938,0.312l1.625,0.5
		l1.125,1.438l0.812-0.125l0.625-1.188l1.562-1.5l1-0.312l2.125-0.125l1.562,0.312l0.875-0.188l0.938-1l2.062-2l1.625-0.938
		l1.25-0.375l2.312,0.188l1.938,0.125l0.938,0.938l0.938,0.688l1.062,0.5l1.75-0.188l1-0.125l1.438,0.438l1.562,0.875l1.188,1
		l1.25,0.062h1.312l2.25,0.688l2.188,1.625l1.812,1.438l1.188,1l0.625,0.25l1.562-0.625l5.688-2.062l5.875-1.688l3.125-0.812
		l1.125-0.312l3.25-3.688l2.875-1.125l3.062-0.625l3.25-0.562l3.812,0.562l3.188,1.25l1.625,0.562l0.812-0.25l0.5-0.375l1.25-0.125
		l1,0.562l1.812,0.188l1.25,0.5l1.375,0.375l1.125,0.25l0.625,0.625l1.375-0.75l2.625-2.5l1-0.875l0.688-0.5l1.625,0.562l1.25,1.062
		l1.688,1.062l0.688-0.625l1.5-0.812l1.689,0.125l3.561-0.375h1.75l1.439,0.312l0.625-0.75l0.811-0.312l1.689,0.25l1.811,0.5
		l1.689,0.562l1.188-0.625l0.812-0.25l0.811-0.062l0.875,0.438l1.062,0.25l1.875-0.062l1-0.625l0.438-0.438l1.25,0.188l1.689,0.375
		l1.5,0.312l1.062-0.375l0.688-0.75l0.812-0.125l0.561-0.312l0.375-0.312l0.562,0.062l0.812-0.25l2.812-3.688l1.5-1.062l1.125-0.125
		l1.561,1.125l2.25,2l1.125,0.938l2.812-1.688l1-0.25l2,0.438l1,0.438l1.5-0.875h0.688l0.689,0.562l0.75,0.25l0.688-0.312
		l0.188-0.25l0.625,0.062l0.438,0.5l2-0.312l2.25-0.125l1.562,0.312l1.188-0.375l0.75-0.5l1.439-0.5l1.311-0.438l1.25-1.125
		l0.689-0.25l0.561,0.312l0.939-0.25l2.188-2l0.938-0.312l1.75,0.062l0.938,0.812l1.375,0.875h1.25l1.062,0.25l2.062,1.25l1,0.312
		l1.188-0.5l1.75-0.562h1.312l0.75,0.75l0.875,0.562l2.812,0.5l1.75-0.062l0.688-0.5h1.062l1.5,0.625l2.561,1.188l2.5,0.312
		l2.375,0.25l2.812,1.125l2.438,1.125l2,1.5l1.062,1.125l5.562-0.562l1.312-0.688h1.375l1.561,0.5l1.125,0.125l2.25-0.062
		l2.439-0.812l1.5-0.062l2.061,0.688l3,2l3.062,1.875l2.062,0.625l2.438,0.625l1.938,0.062l1.189-0.125l0.375-0.438l1.188,0.25
		l0.938,0.75l1.938,0.438l2.562,0.375l4.5-0.25l1.562-0.375l0.875-0.375l1.375,0.125l2.125,0.312l2.625,0.188l1.5-0.312l0.75-0.375
		h1.312l1.438,0.312l2.125,0.5"/>
</g>
<g id="gcp">
	<circle id="topshelf" fill="#FF0000" cx="15.958" cy="262.279" r="0.25"/>
	<circle id="nostril" fill="#FF0000" cx="81.979" cy="267.155" r="0.25"/>
	<circle id="dragonduct" fill="#FF0000" cx="153.687" cy="254.029" r="0.25"/>
	<circle id="brokens" fill="#FF0000" cx="110.001" cy="253.778" r="0.25"/>
</g>
</svg>
