<?xml version="1.0" encoding="utf-8"?>
<!-- Generator: Adobe Illustrator 16.0.4, SVG Export Plug-In . SVG Version: 6.00 Build 0)  -->
<!DOCTYPE svg PUBLIC "-//W3C//DTD SVG 1.1//EN" "http://www.w3.org/Graphics/SVG/1.1/DTD/svg11.dtd">
<svg version="1.1" id="svg" xmlns="http://www.w3.org/2000/svg" xmlns:xlink="http://www.w3.org/1999/xlink" x="0px" y="0px"
	 width="724px" height="486px" viewBox="0 0 724 486" enable-background="new 0 0 724 486" xml:space="preserve">
<g id="image">
	
		<image overflow="visible" enable-background="new    " width="2896" height="1944" xlink:href="AK01b_20100525_200710.JPG"  transform="matrix(0.25 0 0 0.25 0 0)">
	</image>
</g>
<g id="gcp-peaks">
	<circle id="P5330" fill="#FF0000" cx="177" cy="73.125" r="0.25"/>
	<circle id="P7910" fill="#FF0000" cx="231.75" cy="76.812" r="0.25"/>
	<circle id="P8249" fill="#FF0000" cx="260.938" cy="73.938" r="0.25"/>
	<circle id="P8510" fill="#FF0000" cx="287.438" cy="66.75" r="0.25"/>
	<circle id="P6940" fill="#FF0000" cx="323.25" cy="71.125" r="0.25"/>
	<circle id="P6330" fill="#FF0000" cx="418.625" cy="58.625" r="0.25"/>
	<circle id="P5360" fill="#FF0000" cx="476.75" cy="51.938" r="0.25"/>
	<circle id="P5090" fill="#FF0000" cx="550.75" cy="39.562" r="0.25"/>
	<circle id="P5170" fill="#FF0000" cx="588.25" cy="34.438" r="0.25"/>
</g>
<g id="gcp">
	<circle id="topshelf" fill="#FF0000" cx="17.25" cy="141.562" r="0.25"/>
	<circle id="nostril" fill="#FF0000" cx="87.25" cy="140.562" r="0.25"/>
</g>
<g id="horizon">
	<path fill="none" stroke="#FF0000" stroke-width="0.25" stroke-miterlimit="10" d="M3.116,72.166l1.027,0.963l0.963,0.385
		l0.77,0.578l0.963,1.476l0.963,0.834l2.118,0.321l1.091-0.385l1.861-0.385l2.439,0.064l1.541,0.192l1.091-0.257l1.348,0.45
		c0,0,0.063,0.256,0.256,0.513s2.118,2.824,2.118,2.824l2.696,3.016c0,0,0.193,0.129,0.449,0.193s0.706-0.385,0.706-0.385
		l0.256-0.834l0.257-0.578c0,0,0.514-0.128,0.706-0.128s1.348,0,1.348,0l1.412,0.642l0.642,0.77l0.514,0.578l1.604,0.898
		l1.925,1.155l1.604,0.642l1.091,0.064l0.834-0.257l0.834-0.385c0,0,0.642-0.064,0.898,0.064s1.22,0.257,1.22,0.257l1.604-1.155
		L44,82.307l1.54-0.834h1.22c0,0,0.706,0.578,0.898,0.642s0.449,0.385,0.449,0.385h1.284l0.77-0.45l1.155-1.604l0.642-0.898
		l0.834-0.257l0.45,0.193l1.861,0.962l2.888,1.155l1.861,0.642l1.733,0.385l1.348-0.064l1.284,0.257l1.155,0.064l1.219-0.321h1.669
		l1.412,0.128l1.99,0.898l1.861,1.284l1.733,0.578l1.027,0.064l1.155,0.128c0,0,0.77,0.193,0.962,0.257s1.284,0.706,1.284,0.706
		l0.963,0.513l1.476,0.514c0,0,0.77,0,1.027,0s1.604-0.321,1.604-0.321s1.733-0.128,2.118-0.128s3.145-0.321,3.145-0.321
		l2.247-0.642l0.898-0.578l0.706-0.642l1.027-0.193H96.5l2.247,0.385l1.668,0.064l1.027-0.385l0.898,0.128"/>
	<path fill="none" stroke="#FF0000" stroke-width="0.25" stroke-miterlimit="10" d="M107.796,82.949l1.219,0.578
		c0,0,1.669,0.77,1.861,0.898s1.925,1.925,1.925,1.925l1.155,1.155l0.77,0.706c0,0,0.45,0,0.642,0s0.898-0.514,0.898-0.514
		l0.77-0.513l1.476-0.128c0,0,0.128,0.064,0.385,0.128s0.898-0.193,0.898-0.193l1.027-1.412l0.706-1.348l1.412-0.77l0.642-0.064
		l1.348,0.642l1.797,1.027l1.733,1.027l0.963,0.064l1.412-0.257h1.091l0.963-0.898c0,0,0.193-0.128,0.449,0s1.604,0.449,1.604,0.449
		l1.348,0.064l1.541,0.449l2.118,1.348l1.412,0.578l1.54,0.256h1.541l1.604-1.219l-0.064-0.898l1.348-0.128l1.861-1.219l1.155-0.514
		l0.578-0.642l0.962-0.771l1.155-0.642h1.22h1.861l1.733-0.449l0.898-1.091c0,0,0.256-0.321,0.513-0.321s1.284,0,1.284,0l0.77,0.128
		l1.155-0.578l0.642,0.064l0.898-0.642l0.513-0.449l0.771-0.898l1.219,0.128l1.412,0.578l2.129-0.959l1.75-0.125l1.688-0.812
		l1.438-2.062l0.625-1.125l0.812-0.438h1.312l1.375,1l2,1.438l1.375,0.375l1.438,0.375l1.5,0.438l1.812,1L189,78.062L190.25,78
		l1.062-0.188l1.5,0.062l1.375-0.625c0,0,0.75,0.062,0.938,0.125S196.688,77,196.688,77l1.125-1.188l2.625-0.25L201.625,74
		l1.25-0.062c0,0,0.75,0.438,0.938,0.562s0.812,0.562,0.812,0.562l2.312,1.125l1.438,1.062l1.5,1.938l0.25,0.438l1.062,0.562
		l1.75,0.75l1.125-0.312l1.188-0.125l1.312,0.188l2.062,0.562l1.875,0.5l0.688-0.188l0.938-1.125l0.75-1l1.562-0.812l1.25-0.562
		l1.625-0.312l1.75-0.438l1.5-0.5h0.938h1.562l2.25,1.062l1.188,0.5l3.688,1.188L243.062,80l1.875-0.375l2-1.25l2.688-1.25
		l1.812-0.562l2.312-0.812l2.625-0.25l1.25,0.062l1.125-0.75l1-0.812l0.938-0.062h1l1.062,0.75l1,0.25l0.812-0.688l1.375-0.312
		l1,0.375l1.875,0.188l3.062-0.25l1.875-0.75l1.375-1.875L276,70.75l0.875-0.688l1.5-0.125l1.875-0.312l2.375-0.5l0.938-0.438
		l0.875-1l1.062-0.75l1.438-0.25l2.125,0.25l2.812,1.188l1.875,0.625l1-0.125l0.875,0.312L296.5,69l1.625-0.125l1.438,0.062
		l2.188,0.938L303.812,71l1.312,0.062l1,0.125l1.062,0.625l1.062,0.625l2.312,0.125l0.75-0.25c0,0,0.688,0,0.938,0.188
		s1.375,0.5,1.375,0.5l1.75,0.188l1.938-0.5l2.812-1.438l1.938-0.5h1.5c0,0,1.562,0.688,1.75,0.688s2.125,0.625,2.125,0.625
		l1.625-0.188l2.312-1.125l1.5-0.562l2.375-0.062h2.062l2.875,0.375c0,0,0.625,0.062,0.938-0.125s1.25-1.062,1.25-1.062l2.812-2.125
		l2.938-1.625L349.938,65l2.25-0.312L354.25,65l4.062,1.562l0.75,0.125h1.625l2.312-0.25l1.812,0.062l2.562-0.188l2.312,0.125
		L372,66.875l1.562,0.188l2.812-0.25l1.938-0.938l0.875-0.062l1.188-0.125l0.438,0.375l0.75,0.375l1.562,0.125l2.125,0.062
		l0.75,0.188l1.438,0.125l3.312-0.312L392.5,66l1.125-0.312l1.5,0.062l2.688-0.062l2.125-0.312l1.5,0.312l1,0.25l2.188,0.812
		l0.938-0.25l0.812-1.125l0.812-0.75l1.312-0.812l0.875-0.125h1.938l1.562-0.438l1.375-1l2.125-2.25l2-1.375l1.125-0.25h2.125
		l1-0.062l0.875,0.062L424.375,59l1.188,0.562l1.312,0.375l1.625,0.125l1.688,0.062l1.188,0.188l2.062,0.625l2.375,0.375l1.75,0.062
		l1.938,0.688L442.625,64l0.875,1.125l1.438,0.625L446,66.312l1.438-0.125l1-0.562l3.75-1.75l4.688-1.75l5.062-1.875l1.625-0.75
		l1.375-1.438l2.25-2.625L469,54.5l2.125-0.688l1.125-0.875l2-0.688l1.75-0.375l1.938-0.125l3.75,0.562l3.688,0.875l1.125,0.188
		l0.875-0.188L489,52.812h1.25l2,0.562l2,0.438l1.188,0.375l1.688,0.312l1.25-0.062l1.312-1.5l2.562-2.25l1.062-1.312l0.625-0.188
		l0.562,0.438l2,1.375l1.875,1l0.938-0.938l1.125-0.5L512,50.438l2.75-0.562c0,0,1.5-0.25,1.688-0.188s1.75-0.125,1.75-0.125h0.875
		l1.75-0.812l0.688-0.25l1.375,0.25l1.75,0.438h1.688l1.125-0.062l0.875-0.688l1.5-0.188l0.938,0.188L533,49l1.438-0.812
		l1.625-0.562h1.688l1.812,0.25l1.375,0.188l1.75-1.312l1.875-1.062l1.875-1.562l2.125-3.438l1.25-1.062l0.938-0.312l1.062,0.75
		l1.562,1.125l2,1.875l1.125,0.312l1-0.438l1.375-1.375l1.438-0.25l2.125,0.125h1.875l1.188-0.562l1.062,0.25l1,0.438l1.25-0.438
		l1-0.125l0.688,0.438l1.062-0.312l1.188-0.5l2,0.125l0.688,0.062c0,0,0.562,0.375,0.75,0.375s1.75-1,1.75-1l1.125-0.75l1.125-0.188
		l1.438-1l1.938-1.188l1.375-0.188l1-1.062L587,34.438l0.812-0.25h1.688l1.938,0.938l1.625,0.562c0,0,0.438,0.062,0.875,0.125
		s1.688,0.438,1.688,0.438l1.125,0.375l1.625,0.75l1.312-0.75l1.688-0.5h1.312l1,0.375l1.188,0.5l2.188,0.438l2.562-0.188
		l1.188-0.375l1.938,0.25l2.25,0.938l2.125,0.312h1.812l1.438-0.188l1.438,0.312l3.312,1l3.375,1.688l1.125,1.062l0.938,0.625h1.562
		l3.938-0.75l1.875-0.562l1-0.062h0.875c0,0,0.875,0.125,1,0.312s0.875,0.25,0.875,0.25h1.062l1.625-0.5l2.375-0.875l1.188-0.25
		l1.75,0.25l1.875,1l3.938,1.75l3.25,1.75l1.625,0.312h1.812l1.75,0.125l2.25-0.25l3,0.375l1.188,0.688l1.562,0.375l1.438-0.312
		c0,0,2.125,0.25,2.312,0.312s1.875,0.5,1.875,0.5l2.312-1.625l1.75-0.688c0,0,1.375,0,1.625,0s2.938,0.188,2.938,0.188l2-0.438
		l2-0.812l1.875,0.375l2.375,0.812l2.688,0.625l2.25,0.188l1.438,0.312l2.812-0.375l3.75-0.688l3-0.688l4.438-0.688l1.625-0.562
		c0,0,2.438,0.75,2.688,0.875s2.438,1.125,2.438,1.125l1.312,0.625"/>
</g>
</svg>
