<?xml version="1.0" encoding="utf-8"?>
<!-- Generator: Adobe Illustrator 16.0.4, SVG Export Plug-In . SVG Version: 6.00 Build 0)  -->
<!DOCTYPE svg PUBLIC "-//W3C//DTD SVG 1.1//EN" "http://www.w3.org/Graphics/SVG/1.1/DTD/svg11.dtd">
<svg version="1.1" id="svg" xmlns="http://www.w3.org/2000/svg" xmlns:xlink="http://www.w3.org/1999/xlink" x="0px" y="0px"
	 width="695.04px" height="466.56px" viewBox="0 0 695.04 466.56" enable-background="new 0 0 695.04 466.56" xml:space="preserve">
<image overflow="visible" width="2896" height="1944" xlink:href="AK01b_20150820_212106.JPG"  transform="matrix(0.24 0 0 0.24 0 0)">
</image>
<g id="land">
	<polygon fill="none" stroke="#FF0000" stroke-width="0.25" stroke-miterlimit="10" points="0,369.5 37.25,388.75 60,408.5 
		89.25,429.5 113.5,442.5 127,450.75 141.75,454 177.75,456.75 183.5,459.75 187.75,466.56 0,466.56 	"/>
	<polygon fill="none" stroke="#FF0000" stroke-width="0.25" stroke-miterlimit="10" points="220.5,466.56 255.25,448.5 
		273.25,442.75 316.25,427.75 340.5,424.25 360.25,407 371,399 384.5,393.5 397.25,391.5 406.5,391.5 428.25,388.75 446,386.75 
		459.25,386.75 472.75,391.75 481.75,394.25 492.75,392.5 507.25,391.75 519.5,391.5 528.75,392.5 548.75,395.25 583.75,401.5 
		615.75,401.5 636.25,404.25 652.5,413.75 659.25,415.75 669.25,419 677,421.5 687.75,420.5 695.04,421 695.04,466.56 	"/>
	<polygon fill="none" stroke="#FF0000" stroke-width="0.25" stroke-miterlimit="10" points="427.25,208.25 469.25,206.5 
		481.5,204.25 491.5,200.25 490.25,197.25 480.5,197.25 468.25,197.25 460.5,195.75 451.5,194.25 443.5,194.25 437,198.75 	"/>
	<path fill="none" stroke="#FF0000" stroke-width="0.25" stroke-miterlimit="10" d="M695.04,185.25l-10.54,1.5l-8.25,3.25
		c0,0,2.5,3.5,3.25,4.25s6.145,4.25,6.145,4.25l1.605,2.75l-5.5,5.75l-9.75,3.25l-2.75,4.75c0,0,4,4.75,4.75,5s10.25,2.5,10.25,2.5
		l10.79-1V185.25z"/>
	<path fill="none" stroke="#FF0000" stroke-width="0.25" stroke-miterlimit="10" d="M0,203.75h29.75l28.5-1.75l5-3.75v-5l-12-2.5
		L40.5,181v-3.5h9l18.25,3.5l9.25,3.75L88,188c0,0,11.5,2.5,12.25,2.625S112,192.5,112,192.5l20.25-3.25l23-4.25l14.75-3.75
		l9.25-3.75l4.75-4.25l-7-3.5l-11.25-7.25h7.5h16.25l22.75,2h15.5l8.25-2l-10-8.25h7.75h11.75h9L241,148.5l13.5-1.5h23h9.5l5,3.75v2
		l-6.75,3.75l-1.25,3l8,2.75l8.75-1.75l-5.5-3.25l2.25-1.75l8.5-1.25l11,2l7.25,2.25l5.75,1.25h9.75l13.5-1.25l-5.73,4l-8.27,2.75
		l10.25,0.5l6,0.5v2l4.75,0.25l3.5-0.75l3.25-0.25l4,0.75l3.25,1.75l2.75,0.5l6-0.5l14.25-1.5l11-1.75v-3.5l2.5-1.75l6.75-1.75
		l23.75-0.5l15,0.25l12.5-0.5l-6.25,3l-14.75,3.25l-6.75,2.5l-2,2.5l4.25,1.75l7-0.75l9.125,0.75l6.375,3.375h4.75h9.75h11.25h7
		l8-1.625l4-4l10.25-2l13-0.75l18-2.5h16.75l14.5,0.25l22.25,0.75l27.75-0.75l28.75-0.75l22.25,0.5l11.04,1.5v-26l-21.54-1.25
		l-15-1.5l-16-2.5l-13.25-4.5l-14.5-3.25l-17.5-4.75l-12.75-1.75H572l-13.25,2.25l-12.5,1l-9-0.75h-9.75l-23.25,2.25H487l-12-1
		l-15.625,0.25l-11.625,7l-4.25,1.5l-11-1l-11.75-3.25h-8.25l-11,1.5L383.25,131H373l-7-0.25l-12.5-3.5l-11.25,0.25l-13.5,1.75
		l-10,0.25l-11.5-0.5l-6-2.5L291,123.75l-9-0.75l-21.25,3h-14l-12.25,0.25h-10.75l-11.25-2.75l-7.5-3l-12.25-2.25h-9.5l-23,6
		L147,125.5l-8.25-2.5l-12.5-2.75H112l-12,0.25l-10-2.25L73.75,113H63h-6l-7.75-2.5l-5.5-2.75l-14-4.25l-9.25-5H13l-6.25,2.75
		L0,105.5V203.75z"/>
</g>
</svg>
