<?xml version="1.0" encoding="utf-8"?>
<!-- Generator: Adobe Illustrator 16.0.4, SVG Export Plug-In . SVG Version: 6.00 Build 0)  -->
<!DOCTYPE svg PUBLIC "-//W3C//DTD SVG 1.1//EN" "http://www.w3.org/Graphics/SVG/1.1/DTD/svg11.dtd">
<svg version="1.1" id="svg" xmlns="http://www.w3.org/2000/svg" xmlns:xlink="http://www.w3.org/1999/xlink" x="0px" y="0px"
	 width="968px" height="648px" viewBox="0 0 968 648" enable-background="new 0 0 968 648" xml:space="preserve">
<g id="image">
	
		<image overflow="visible" enable-background="new    " width="3872" height="2592" xlink:href="AK01b_20080811_193452.JPG"  transform="matrix(0.25 0 0 0.25 0 9.765625e-04)">
	</image>
</g>
<g id="gcp-peaks">
	<circle id="P5330" fill="#FF0000" cx="237.438" cy="198.375" r="0.25"/>
	<circle id="P8510" fill="#FF0000" cx="382.125" cy="200.312" r="0.25"/>
	<circle id="P6940" fill="#FF0000" cx="429" cy="209.312" r="0.25"/>
	<circle id="P6330" fill="#FF0000" cx="553.375" cy="202.5" r="0.25"/>
	<circle id="P5360" fill="#FF0000" cx="629.875" cy="199.25" r="0.25"/>
	<circle id="P5090" fill="#FF0000" cx="726.688" cy="190.062" r="0.25"/>
	<circle id="P5170" fill="#FF0000" cx="775.188" cy="186.688" r="0.25"/>
</g>
<g id="gcp">
	<circle id="T20080811-01" fill="#FF0000" cx="407.25" cy="435.75" r="0.25"/>
	<circle id="T20080811-02" fill="#FF0000" cx="321.875" cy="480.688" r="0.25"/>
	<circle id="T20080811-03" fill="#FF0000" cx="450" cy="296.562" r="0.25"/>
	<circle id="topshelf" fill="#FF0000" cx="17.875" cy="270.875" r="0.25"/>
	<circle id="nostril" fill="#FF0000" cx="110" cy="276.438" r="0.25"/>
</g>
<g id="terminus">
	<polyline fill="none" stroke="#FF0000" stroke-width="0.25" stroke-miterlimit="10" points="299.25,498.625 303.625,492.375 
		309.5,486.375 318.281,481.537 324,479.875 327.375,477 328.75,474.125 335,468.125 344.034,465.504 358.125,462.125 372,458 
		380.105,454.703 386.75,452 394.293,446.814 397.5,444.125 399.25,441.375 	"/>
	<path fill="none" stroke="#FF0000" stroke-width="0.25" stroke-miterlimit="10" d="M968,385.499l-11.998,0.334l-16.833,0.333
		l-16.333,0.167l-15-0.167l-16.334,0.167l-19.668,1.167l-21.167,0.5l-17.333,0.666L813.667,389l-23.833,1.333l-43.668,0.478
		L732.5,391l-13.816,0.611l-3.894,0.112l-5.038-0.229l-11.919,0.67l-11.326,0.935l-7.1,0.229l-5.153,1.029l-6.184,0.229
		l-7.215,0.458l-6.645,0.458l-7.1,0.459l-10.865,0.286c-9.507,1.074-19.052,0.443-28.577,1.303"/>
	<polyline fill="none" stroke="#FF0000" stroke-width="0.25" stroke-miterlimit="10" points="436.125,426.25 442.375,423.5 
		446,422.125 448.75,422.125 452.75,421.5 459.625,420.5 467.625,419 	"/>
</g>
<g id="horizon">
	<polyline fill="none" stroke="#FF0000" stroke-width="0.25" stroke-miterlimit="10" points="-0.001,175.417 2.916,176.167 
		7.583,178.167 10.666,181.083 13.083,183 13.999,184.75 15.999,186.167 18.499,185.167 20.083,185.167 22.749,185.667 25.833,186 
		27.749,185.917 29.249,186.417 30.999,188.417 32.333,191.25 34.249,193.75 35.999,195.75 36.833,195.917 37.666,194.167 
		38.333,193.333 40.416,193.583 41.249,193.583 42.416,195 43.499,196.5 45.499,197.5 49.666,200 52.166,200.833 52.999,200.083 
		54.749,200.083 56.333,200.833 58.749,199.167 61.749,196.5 63.083,196.167 65.166,195.833 66.333,197.083 67.583,197.75 
		69.249,197.75 70.499,196.5 71.749,194.583 72.999,193.833 74.416,194.333 76.166,195.583 78.083,196.583 79.416,197.417 
		80.5,197.583 81.583,198.583 82.5,199.083 84.75,198.667 86.333,199.25 88.583,199.833 92.083,199.833 95.167,200.083 
		97.083,201.083 99.5,202.917 102.25,204.083 104.625,204.333 106.458,204.667 107.542,205.792 109.375,207.125 111.292,207.5 
		114.25,207.417 116.542,207.5 119.25,207.708 121.458,207.75 123.458,207.042 124.875,206.333 126.25,205.792 126.5,205.042 
		127.041,204.167 128.083,204.292 128.625,205.292 129.291,205.417 129.875,204.875 131.083,205.042 132.375,205.583 
		133.375,206.625 134.125,206.625 134.666,206 135.916,206 137.5,206.25 	"/>
	<polyline fill="none" stroke="#FF0000" stroke-width="0.25" stroke-miterlimit="10" points="148.124,205.458 150.999,208.042 
		153.374,210.792 153.874,211.167 154.375,211.125 155.291,210.541 156.708,210.541 157.458,209.833 158.75,209.875 
		159.916,209.958 160.791,209.083 162.375,207.25 163.833,206.416 165.291,206.416 167.125,207.125 168.5,208.291 169.833,209.291 
		171.458,210.5 172.416,210.624 174.75,210.041 176.041,209.791 	"/>
	<polyline fill="none" stroke="#FF0000" stroke-width="0.25" stroke-miterlimit="10" points="204.708,207.499 206.5,207.916 
		208.958,208.166 210.208,207.499 211.417,207.083 212.042,205.833 212.708,205.249 214.125,205.249 215.792,205.249 
		216.833,205.124 217.5,204.833 218.292,204.833 219.333,204.458 219.625,203.916 220.25,202.541 221.375,202.583 223.083,203.083 
		224.25,203.666 224.75,204.083 226.417,204.166 228.208,203.541 231.042,202.291 232.875,201.291 234.333,199.666 235.583,198.749 
		236.708,198.124 238,198.208 	"/>
	<polyline fill="none" stroke="#FF0000" stroke-width="0.25" stroke-miterlimit="10" points="378.916,201.166 380.041,200.499 
		381.374,199.749 382.958,199.874 384.249,200.499 385.374,201.249 	"/>
	
		<line fill="none" stroke="#FF0000" stroke-width="0.25" stroke-miterlimit="10" x1="457.456" y1="206.874" x2="459.831" y2="205.582"/>
	<polyline fill="none" stroke="#FF0000" stroke-width="0.25" stroke-miterlimit="10" points="539.164,208.166 540.706,207.832 
		542.247,207.916 544.497,207.916 546.622,207.249 548.206,206.124 550.206,204.582 551.997,202.832 552.914,202.374 
		554.622,202.291 557.122,202.207 559.164,202.082 560.622,202.791 562.622,203.874 564.206,204.999 565.581,205.291 
		567.539,205.124 568.789,205.124 571.164,205.874 573.081,206.582 574.706,207.749 574.955,208.249 575.622,208.125 
		577.997,207.833 580.414,208.666 582.331,209.375 584.164,210.791 586.497,212.875 587.997,214.375 588.956,215.333 
		591.164,214.291 596.332,212.667 604.499,210 612.999,207.917 615.499,205.417 617.582,203.167 618.999,202.417 620.415,201 
		621.832,201.667 623.582,200.333 624.165,200.833 624.832,201.583 626.665,199.917 627.499,199.667 628.082,200.333 
		628.665,198.917 631.999,199.417 632.915,199.083 634.415,199.25 636.832,200.167 639.915,201 642.915,202.75 644.082,202.583 
		645.332,201.333 646.582,201.5 648.915,202.333 650.415,202.167 651.915,202.833 653.165,203.5 654.915,203.583 655.915,203.833 
		656.999,204.833 658.582,204.083 663.249,199.5 664.499,198.333 665.582,198.083 666.332,198.667 668.165,200 669.582,201.083 
		671.165,201.833 671.999,201.583 673.082,200.667 674.832,199.833 676.082,200.333 677.665,200.333 680.75,199.917 
		681.917,199.667 684.25,200 685.5,200.333 686.667,199.917 687.334,198.833 689.084,198.75 690.584,199.167 692.584,199.583 
		694.334,200.167 695.667,200.667 697.167,199.667 698.334,199.083 699.75,199.5 700.75,200.083 702.834,200.167 704.5,200.25 
		705.917,199.333 706.834,198.833 708.25,198.667 710.834,199.417 713.334,199.917 715,199 715.334,198.25 716.334,198.333 
		717.417,197.25 718.25,197.667 720.417,195.833 723.167,192.583 724.917,190.583 726.25,189.667 728.334,190.833 730.917,192.75 
		732.917,194.667 734.084,195.75 735.834,194.667 737.25,193.333 738.417,192.75 739.084,193.167 739.917,192.75 741.167,193.25 
		742.917,193.833 745.001,193.25 746.001,192.5 747.501,193.333 749.001,193.583 750.085,193.25 751.251,193.083 751.918,193.917 
		753.085,193.917 756.251,193.5 758.085,193.583 759.001,194.25 760.501,193.667 762.251,192.5 763.251,192.417 765.751,191.75 
		767.751,190.167 768.835,189.667 769.668,189.667 770.585,190 772.001,188.667 773.918,186.75 774.918,186.333 776,186.833 
		777.042,186.667 777.875,186.708 779.458,187.708 780.5,188.667 781.583,188.542 782.708,188.75 783.083,189.167 784.25,189.042 
		784.958,189.208 785.417,189.875 786.542,190.708 788.542,191.292 789.583,191.042 790.167,190.292 791.458,190 792.625,189.708 
		794.708,190.083 795.833,190.833 796.458,191.333 797.875,191.792 800.167,192.125 802.5,192.292 803.833,191.958 805.25,191.25 
		806.792,191.625 808.5,192.542 810.125,193.5 811.667,194.208 813.75,194.583 815.167,194.583 816.167,194.417 817.5,194.792 
		819.292,195.375 822.417,196.25 824.584,197.5 827.042,199 828.75,200.625 830,201.583 834.959,201.292 837.75,200.5 
		839.709,199.792 841.375,199.583 843.292,200.292 844.209,200.958 846.584,200.917 852.043,199.792 853.501,199.833 
		854.96,200.375 856.46,200.833 859.501,202.583 864.877,206.292 867.627,206.875 869.669,207.333 871.211,207.708 872.752,207.792 
		874.169,207.625 875.294,207.25 875.961,207 877.586,207.708 881.562,209.625 883.625,209.5 886.062,209.75 888.312,210.562 
		889.562,211.062 891.125,210.438 893.5,208.75 895,208.188 897.688,208.375 902,209.188 904.438,208.938 905.25,208.375 
		906.688,208.5 907.938,208.312 909.438,208.562 912.375,209.375 914.625,210.188 915.312,210.688 917.5,210.688 919.375,211.438 
		920.062,211.688 922.438,211.438 926.375,210.938 928.75,210.125 932.312,209.875 935.5,209.375 938.938,209.062 941,209.25 
		942.25,209.688 943.562,210.938 945.125,211.5 946.875,212.062 948.125,213.312 949.188,213.438 950.669,213.665 951.906,213.802 
		952.731,214.352 954.45,214.765 955.756,214.902 957.544,215.04 959.606,215.177 960.5,214.971 961.394,214.971 961.943,215.658 
		962.562,216.14 963.25,216.208 963.868,216.277 	"/>
</g>
<g id="moraines">
	<g id="moraine-01">
		<polyline fill="none" stroke="#FF0000" stroke-width="0.25" stroke-miterlimit="10" points="905.833,373.667 879.833,368.001 
			850.833,361.501 825.5,356.167 806.166,352.667 771.333,345.834 742,340.001 727.666,337.667 711.333,335.834 690.666,333.667 
			661.999,330.834 630.333,328.501 599.833,325.501 568.332,323 546.666,322 523.832,319.167 509.832,316 496.999,312.667 
			488.499,309.667 482.666,306.667 470.166,302.5 448.999,297.334 435.332,293.334 425.999,290.667 421.832,287.667 
			420.832,285.501 422.332,283.334 424.833,282.502 430.583,281.169 436.25,279.502 442.833,277.502 447.25,276.419 
			452.167,275.419 455.167,274.919 459.333,273.169 461.917,270.419 463.25,268.085 462.417,266.835 		"/>
		<polyline fill="none" stroke="#FF0000" stroke-width="0.25" stroke-miterlimit="10" points="452.917,266.085 451.25,264.919 
			449.667,263.419 447.917,261.835 445,260.919 442.083,260.252 439.417,260.169 		"/>
		<polyline fill="none" stroke="#FF0000" stroke-width="0.25" stroke-miterlimit="10" points="422.25,259.919 416.833,258.585 
			411,257.252 407.667,256.669 402.75,256.752 395.583,256.835 389.5,256.835 382.833,256.835 376.417,256.835 371.167,256.502 
			366.251,255.919 360.918,254.836 355.751,254.086 351.751,253.586 346.084,253.336 343.584,253.252 		"/>
	</g>
	<g id="moraine-02">
		<polyline fill="none" stroke="#FF0000" stroke-width="0.25" stroke-miterlimit="10" points="383.5,450.25 371.25,447.75 
			357.5,445.75 339.75,445.25 320,444.25 304.75,442.5 290.75,443.25 268.75,441 252,437 231.5,434 199.75,429 170.25,425 
			150,424.25 109,420.75 82.25,420 49.5,422.5 15,425.25 0,426.75 		"/>
	</g>
	<g id="moraine-03">
		<polyline fill="none" stroke="#FF0000" stroke-width="0.25" stroke-miterlimit="10" points="272.667,306 263.167,303.5 
			257.333,300.667 255.667,298 255.833,294.667 261.5,291.667 269.167,289.667 279,287.333 293,282.5 306.167,277.833 
			316.667,273.833 326.167,271 335.5,268.333 		"/>
	</g>
	<g id="moraine-04">
		<polyline fill="none" stroke="#FF0000" stroke-width="0.25" stroke-miterlimit="10" points="885.166,323 873.832,318.833 
			856.999,315 841.999,311.333 826.166,308.167 814.666,306.5 806.332,305.167 794.499,303.667 789.499,302.167 787.166,298.167 
			786.999,292 786.832,287 786.332,282.5 783.332,278.167 780.999,275.5 777.666,273.667 774.999,273.167 773.332,272.667 
			771.499,271.333 768.832,270.5 765.999,269.833 764.166,268.833 760.999,267.5 756.999,266.667 752.832,265.167 748.499,264 
			744.666,263.833 743.166,262.5 744.166,261.333 748.332,260.5 757.499,259.167 768.666,257.667 782.499,256.5 794.166,255.667 
			805.666,255 816.832,253.333 825.999,252.167 834.999,251.333 844.499,250.5 855.332,250 863.499,250 872.832,250 
			886.166,250.167 899.166,249.667 911.832,249.167 925.999,248.833 948.5,248 958.833,247.5 967.667,246.833 		"/>
	</g>
	<g id="moraine-05">
		<polyline fill="none" stroke="#FF0000" stroke-width="0.25" stroke-miterlimit="10" points="511.25,292.875 497,288.75 
			487.75,287.25 478.625,285.875 473.5,284.625 471.875,283.5 472.125,281.75 474.375,280.5 480.75,278.25 491.375,275.25 
			500.834,273.167 506.834,272.167 512.25,270.5 514.334,269.167 514.25,267.583 512.5,266.333 509.917,264.5 508,264.333 
			505,264.083 502.5,264.083 498.834,262.833 495.084,261.167 490.417,259.417 486,258.667 480.25,258.083 474.833,257.75 		"/>
		<polyline fill="none" stroke="#FF0000" stroke-width="0.25" stroke-miterlimit="10" points="464.083,258.417 455.917,257.5 
			449.333,256.333 443.167,255.583 435.75,254.75 430.25,254.333 		"/>
		<polyline fill="none" stroke="#FF0000" stroke-width="0.25" stroke-miterlimit="10" points="422.167,254.167 416.501,254.167 
			410.751,254.167 403.917,254.25 397.751,254.333 393.334,254 388.917,253.75 383.584,253.25 379.334,252.75 377.167,251.917 
			376.251,251 376.334,249.917 377.417,248.833 379.667,248.083 		"/>
	</g>
	<g id="moraine-06">
		<polyline fill="none" stroke="#FF0000" stroke-width="0.25" stroke-miterlimit="10" points="35.589,279.361 41.059,279.969 
			49.366,281.083 55.14,281.894 63.648,283.414 71.043,284.528 77.932,285.338 83.098,286.25 		"/>
		<polyline fill="none" stroke="#FF0000" stroke-width="0.25" stroke-miterlimit="10" points="110.347,294.151 99.407,296.076 
			80.768,299.013 60.61,302.863 47.34,306.003 38.223,308.231 31.537,308.839 		"/>
	</g>
</g>
<g id="land">
	<polygon fill="none" stroke="#FF0000" stroke-width="0.25" stroke-miterlimit="10" points="0,550.5 47.75,576.5 79.5,605 
		122,630.25 141,648 0,648.001 	"/>
	<polygon fill="none" stroke="#FF0000" stroke-width="0.25" stroke-miterlimit="10" points="338.25,646.75 408.25,627.25 
		469.25,601.75 517.75,569 558,562.75 617.75,557.5 659.75,564.25 702.5,559.5 737.25,561.5 782.25,565.5 805.75,573 839.25,573 
		874.5,574.75 892.75,583 900.25,589.5 907,589.5 928.5,596.25 953.25,592 968,594 968,648.001 338.25,648 	"/>
	<path fill="none" stroke="#FF0000" stroke-width="0.25" stroke-miterlimit="10" d="M0,299.565l-0.001-130.42l7.307,4.78
		l7.056,4.552l7.739,2.731l13.656,4.097l6.146,4.324l7.284,2.959l8.876,1.138h6.373l7.511-2.048l6.373,0.683l11.38,3.642
		l24.582,6.373h11.608l7.056-0.683l16.616,1.138l10.698,0.683l9.104,0.455l8.649,2.504l14.112,2.048l16.388-5.462l15.478-5.007
		l7.056-0.683l12.746-2.503h21.396l43.246,4.097l39.832,0.228l29.361-0.91l26.858,2.959l30.044,1.593l15.933-0.456h17.298
		l17.981,1.138l27.086,0.455h21.168l8.876-1.821l7.284-1.821c0,0,11.151-0.228,12.062-0.228s20.03,4.097,20.03,4.097l14.566,3.87
		l9.56-0.683l7.739-5.007l10.015-5.917l14.339,1.365l14.795,2.276l5.463-2.504l8.877-2.959l8.876,1.138h16.616h11.835l8.422-2.503
		l6.373-3.415l6.601-2.503l8.422,1.593l8.876,0.683l15.478-0.228l8.194-3.869l7.966-1.593l8.877,0.91l13.429,2.959l17.071,2.276
		l14.111,2.503l8.194,1.593l12.746,1.366l15.478,2.731l12.291,4.324l13.656,2.504l15.25,0.228l15.705,1.593l18.437-0.455
		l12.746-0.911l14.75,2.049v31.41l-27.496,0.456l-6.828-1.366l-11.381-0.456l-24.354,0.456l-18.892,0.91l-24.809,1.138
		l-17.526,1.138l-29.589,0.683l-27.086,0.228h-17.754l-13.429,0.228l-19.803-0.91l-32.548-0.911l-27.085-0.91h-5.463l-2.959,2.731
		l-1.594,4.097l-8.876,4.552l-8.877,1.138l-5.918-0.911l-0.228-2.276l-2.959-0.683l-11.153,1.366l-10.925,1.138l-4.097-1.366
		l2.731-2.276l15.249-3.187l15.478-4.552l1.821-1.821l-14.34,0.456l-21.851,1.366H585.66l-15.478,0.455H550.38l-13.201,1.593
		c0,0-6.372,1.138-7.056,1.366s-9.56,4.097-9.56,4.097l-11.836,2.276l-14.34,1.138l-12.746,0.911l-5.235-0.683l-4.78-2.276
		l-2.731-2.503l3.642-2.731l3.642-3.187l-11.608,1.366l-19.119,1.821l-8.194-0.228l-6.146-1.366L419,237.5h-6.5l-11.5,1.167
		L392.167,239l-5.667,0.667l1.5-1.833l0.833-1l-2-2.833L384,232l-3.333-1.5l-8.5-3.333l-7.333-0.833l-9.167-0.5l-12,0.833
		l-12.5-0.333l-7.667-0.5l-12.167-0.333l-4.667,0.333l-1.167,1.5l9.333,3.5l6.833,2.167l5,2.5l2,1.5l0.333,1.167l-4.667,1.333
		l-7.5,0.667l-4.5,0.667L306.5,241.5l-7.833-0.167l-1.5,0.167l0.667,2.167l5.333,4l2.167,2.333l-1.833,1.833l-5,2.333l-6.667-1
		l-20.833-1l-23.833-0.833l-20.167-0.5L213.833,251H210l6.667,5.667l6.5,2.167l3.667,2.833l-0.667,2.833l-6.833,1.5l-10.833,2.167
		l-9.833,2.667l-8.5,2.333l-11.333,2.667l-5.833,2l-16.5,3.833l-8.667,0.833l-11.333,2.833L131.833,288l-11.167,4l-7.333-0.833
		l-6.833-3.833l-7.667-6.667L93.667,278l-4-1.167l-21-1.833L49.5,273.333L38.667,272L27,271.167l11,12.167l6.5,5.5l3,3l-2.333,2.667
		l-7.333,3l-9.667,1l-7,0.667L0,299.565z"/>
</g>
</svg>
