<?xml version="1.0" encoding="utf-8"?>
<!-- Generator: Adobe Illustrator 16.0.4, SVG Export Plug-In . SVG Version: 6.00 Build 0)  -->
<!DOCTYPE svg PUBLIC "-//W3C//DTD SVG 1.1//EN" "http://www.w3.org/Graphics/SVG/1.1/DTD/svg11.dtd">
<svg version="1.1" id="svg" xmlns="http://www.w3.org/2000/svg" xmlns:xlink="http://www.w3.org/1999/xlink" x="0px" y="0px"
	 width="695.04px" height="466.56px" viewBox="0 0 695.04 466.56" enable-background="new 0 0 695.04 466.56" xml:space="preserve">
<image overflow="visible" width="2896" height="1944" xlink:href="AK01b_20120731_192459.JPG"  transform="matrix(0.24 0 0 0.24 0 0)">
</image>
<g id="land">
	<path fill="none" stroke="#FF0000" stroke-width="0.25" stroke-miterlimit="10" d="M0,290l17.75,1.5l11-0.75L38.5,290l4.75-2v-4.5
		l-10.75-9.75l-4.75-4.5l-0.5-2.5h8.25H50L61.25,270l8.25,3.5l10,5.625L85,282l6,1.75l6.75,0.75l14.5-5.375l8-2.125l15.25-4l15-3
		l9.5-3.25l6.75-2.25l1.75-4.5l-3.25-2l-8.25-5.5l-1-1.75h4h16.25l19.5,1.75h11l7.25-0.25l5.25-1.5l3.75-1.25l-5.75-5.5l2.5-1.75
		H228l10.5-1.25l2.5-2l3.75-2.25l12.75-2.25H269l9,2.25l5.75,4.5l-6.25,2.25l-1.25,2.25l4.5,1l11.5-0.25l13.75-0.25l14,0.75
		l11.25-1.75l10.25-0.75l1.25,1.25L340,247.5l0.5,2.75l9.25,2.75l9-0.5l4,0.25l4.25,2.5l7.75-0.75l3.75-2.25l4.25-4l2.75-3
		l5.75-0.75l24.75-1.75h11.5l15.25-0.5l18-1.75l4.75,1l-2.25,2l-7.5,1.25L440.5,249l-7.75,2.25l-1,2c0,0,4.5,1.75,5.5,1.75
		s17.25-0.25,17.25-0.25l11,0.5l10.5-1l4-2.5l7.25-4.25l9-1.25l12-0.25l12.75-1.25l13,0.5l21-1.25l36,1.5l28-1.5l25-2.75l20.75,0.5
		l19.5,1.25h10.79v-24.25L671,217h-20.25h-13.5l-8.25-1.75L614,210l-9.5-3l-15-3.25l-21.25-3.5H559l-8.25,4.5l-8.5,1l-7.75-0.5
		l-8.5-1.5l-6.5,0.5L508.25,208l-17,2L476,208.5h-8.25l-22.25,1.25l-5.75,6.75l-3.25,1.5l-9.25-0.5l-6-2.25l-13.5-2H399L373.5,214
		l-25.98-1.25L334.75,213L317,214.25h-17.25l-8.5-1.75l-13.5-2.25l-10,0.75L252,213l-22,1.5l-12-1.75h-8l-18.25-2.25l-11-3.25
		l-8.5,0.25L161,211.75l-13,3c0,0-7.5,0.25-8.25,0.25S128,212.75,128,212.75L111.25,212l-10.5-2l-9.5-0.25l-11-0.75L70,207.75
		l-10.25-4.25l-8.5-1.25l-10.75,1l-6-4.75l-10-4l-9.75-2.75L0,190"/>
</g>
</svg>
