<?xml version="1.0" encoding="utf-8"?>
<!-- Generator: Adobe Illustrator 16.0.4, SVG Export Plug-In . SVG Version: 6.00 Build 0)  -->
<!DOCTYPE svg PUBLIC "-//W3C//DTD SVG 1.1//EN" "http://www.w3.org/Graphics/SVG/1.1/DTD/svg11.dtd">
<svg version="1.1" id="svg" xmlns="http://www.w3.org/2000/svg" xmlns:xlink="http://www.w3.org/1999/xlink" x="0px" y="0px"
	 width="968px" height="648px" viewBox="0 0 968 648" enable-background="new 0 0 968 648" xml:space="preserve">
<g id="image">
	
		<image overflow="visible" enable-background="new    " width="3872" height="2592" xlink:href="AK01_20070817_200132.JPG"  transform="matrix(0.25 0 0 0.25 0 0)">
	</image>
</g>
<g id="gcp-peaks">
	<circle id="P8249" fill="#FF0000" cx="43" cy="155" r="0.25"/>
	<circle id="P8510" fill="#FF0000" cx="82.5" cy="148.75" r="0.25"/>
	<circle id="P6940" fill="#FF0000" cx="135.25" cy="159.25" r="0.25"/>
	<circle id="P6330" fill="#FF0000" cx="267.75" cy="155.25" r="0.25"/>
	<circle id="P5360" fill="#FF0000" cx="345.25" cy="153.75" r="0.25"/>
	<circle id="P5090" fill="#FF0000" cx="440.75" cy="147.25" r="0.25"/>
	<circle id="P5170" fill="#FF0000" cx="486.75" cy="145" r="0.25"/>
</g>
<g id="coast">
	<polyline fill="none" stroke="#FF0000" stroke-width="0.25" stroke-miterlimit="10" points="903.157,340.066 909.031,340.342 
		914.446,340.434 918.576,340.525 920.319,340.617 922.798,340.984 925.184,340.893 926.744,340.709 929.223,340.709 
		932.159,340.984 938.4,341.26 940.97,341.443 943.815,341.627 946.752,341.627 950.331,341.443 954.92,340.801 957.307,340.709 
		961.438,340.801 963.364,340.801 964.648,340.709 965.107,340.158 967.953,339.975 	"/>
</g>
<g id="gcp">
	<circle id="nosebridge" fill="#FF0000" cx="696.25" cy="211.25" r="0.25"/>
	<circle id="shorenode" fill="#FF0000" cx="929" cy="327.25" r="0.25"/>
</g>
<g id="horizon">
	<path fill="none" stroke="#FF0000" stroke-width="0.25" stroke-miterlimit="10" d="M856.379,157.037l0.708-0.875l0.5-0.75
		l0.458-0.667l0.459-0.333l1.083-0.208l0.75-0.167l1.333-0.125l1.167-0.208l1.125-0.25l1.208,0.042c0,0,0.667,0.083,0.792,0.083
		s0.75-0.458,0.75-0.458l0.958-0.417l1.292-0.333l1.5-0.083h1.542l1.458,0.417l0.75-0.125l1.5-0.292l1.042-0.083l1.876-0.417
		l1-0.125l1.125-0.125l0.958,0.042l1.042,0.208l0.833,0.375l0.834,0.625l0.708,0.583l0.542,0.417l0.625-0.583l0.625-0.375
		l0.791-0.458l0.792-0.417l0.708-0.625l0.459-0.458l0.416-0.792l0.375-0.542l0.75-0.458l0.792-0.292l0.375-0.25l1.791-1.708
		l0.792-1.083l0.792-0.833c0,0,0.25-0.208,0.5-0.25s1.166-0.333,1.166-0.333l0.667-0.417c0,0,0.292-0.458,0.375-0.583
		s0.333-0.458,0.333-0.458l0.834-0.125l0.708-0.208l0.875-0.583l2.125-1.167l1.917-1.208l1.625-0.708l0.791-0.25l1.25-0.083
		l1.167-0.042l0.917-0.292l1.958-0.75l1.875-1.208l1.833-0.917l1.167-0.792l1.375-0.625l0.625-0.583l0.542-0.417l0.708-0.125
		l0.458,0.042l0.834,0.5l0.875,0.25l1.083-0.125l2.125-0.25l0.708-0.292l1-0.708l0.709-0.667l0.416-0.667l0.625-1.417l0.417-0.792
		l0.917-0.75l1.167-0.667l1.75-0.667c0,0,1.375-0.208,1.5-0.167s1.417,0.5,1.417,0.5l1,0.292l1.458,0.417L940.92,128l0.833,0.25
		l0.959,0.25l1.291,0.458l0.459,0.333c0,0-0.001,0.083,0.166,0.333s0.333,0.5,0.375,0.625s0.375,0.292,0.625,0.375
		s0.667,0.042,0.667,0.042l1.417,0.167l0.458-0.083l0.917-0.208l1.166-1.417l1.792-1.875l0.75-0.667l0.75-0.542l1.083-0.458
		l0.709-0.417l0.708-0.375l0.542-0.5l0.751-0.792l0.666-0.375l0.917-0.208l0.583-0.208l0.375-0.292l0.417-0.667l0.542-0.333
		l0.708-0.292l0.708-0.417l0.459-0.292l0.333-0.583l0.417-0.708l0.833-0.125l0.542-0.167c0,0,0.542-0.042,0.75-0.292
		s0.5-0.583,0.5-0.583l1.833-1.292"/>
	<path fill="none" stroke="#FF0000" stroke-width="0.25" stroke-miterlimit="10" d="M678.438,179.874
		c0.124-0.042,1.875-0.812,1.875-0.812l1.25-0.938l0.688-0.438l1.125-0.062l0.688,0.312l0.812-0.375l0.625-0.312l0.688,0.062
		l1.188,0.125l0.874-0.188l3.792-1.458l3.291-0.875l1.792-0.792l1.708-0.917l1.459-0.75l1.833-0.75l5.292-1.667l3.5-1.125
		l2.625-0.667l2.916-1l2.376-1.083l1.708-0.333l0.917-0.167h0.583l0.542,0.292l1.125-0.042l1.542-0.042l0.75,0.167l2.916,0.292
		l3.709-0.958l2.458-0.542l1.625-0.5l2.25-0.417l1.625-0.167l0.875-0.208l0.708-0.708l0.709-0.25c0,0,0.625,0.125,0.75,0.167
		s1.125,0.333,1.125,0.333h0.5l1.416-0.167l2.125-0.167l2.5,0.25l0.875,0.5l0.959-0.167l0.708-0.417l1.251-0.208l0.833-0.333
		l0.709-1.292l0.333-0.417l0.792-0.25h0.958l1.125,0.25l1.125,0.542l0.333,0.25l0.625-0.083c0,0,0.834-0.375,0.959-0.458
		s0.666-0.5,0.666-0.5l1.334-0.625l1.5-0.417l0.541-0.208l1.667-0.25l0.917-0.083l1-0.167l0.375-0.292l0.916-0.917l0.667-0.542
		l1.333-0.083l1.709-0.208l0.75-0.292l0.666-0.292h0.459l0.791,0.625c0,0,0.168,0.458,0.334,0.458s0.916,0.083,1.041,0.125
		s0.667,0.208,0.667,0.208s0.292,0.208,0.542,0.292s0.708,0.083,0.708,0.083h0.5l0.667-0.375l0.791-0.25l1.125,0.042l1.375,0.208
		l1.292-0.125l1.875-0.625l1.666-1.083l1.542-0.625l0.917-0.75l0.416-0.25l0.959-0.292l0.916-0.083c0,0,0.625,0.042,0.75,0.125
		s0.959,0.5,0.959,0.5l0.333,0.458c0,0,0.249,0.25,0.583,0.292s1.459-0.042,1.459-0.042l1.083-0.25l1.167-0.25l0.375-0.292
		c0,0,0.416-0.125,0.541-0.083s0.667,0,0.667,0s0.542,0.125,0.625,0.25s0.375,0.125,0.375,0.125l0.292-0.292l0.625-0.333
		l1.125,0.042l0.708,0.042l1.083,0.333l0.75,0.667l1.084,0.708l0.791,0.25l0.625,0.333l1.042,0.375l1.333-0.292l1.167-0.167
		l1.5-0.083l2.333-0.25l1.292-0.333l1.042-0.375l0.791-0.375l1-0.625l1.542-0.833l0.25-0.042l0.833-0.375l0.834,0.125l0.625,0.375
		l0.333-0.042l0.542,0.042l0.458,0.375l0.208,0.208l1.542,0.25l0.667-0.125l0.668,0.125l0.791,0.5l0.792,0.542l0.5,0.5l0.667,0.292
		l0.791-0.083l0.709-0.875l0.791-1l0.625-0.75l0.5-0.458l0.334-0.083l0.833,0.208l1.375,0.625l1.042,0.708l1.458,0.833l0.958,0.417
		l0.917,0.208l1.059,0.021c0,0,0.454,0.292,0.621,0.459s0.864,0.756,0.864,0.756l0.945,0.837"/>
	<path fill="none" stroke="#FF0000" stroke-width="0.25" stroke-miterlimit="10" d="M-0.042,155.083l2.75,1.833l2.542,1.333
		L8.417,159l1.542,0.542l0.833,0.583l0.75,0.25l1.583,0.25l2.042,0.417l1.125,0.292l1.375,0.375L19.208,162l0.25-0.167l1.042-1.125
		l1.375-0.458l1.667-0.5l1.958-0.583l1.583-0.667l0.75-0.417l2.25-0.542l1.833-0.375l1.917-0.25l1.292-0.042l1.625,0.083
		l1.125-0.042l1.292-0.25l1.292-1l1.25-0.875l0.75-0.167l0.958,0.208l0.667,0.75l0.75,0.667l0.625,0.458l1.042,0.042l1.333,0.083
		l0.792,0.208l0.583-0.292l0.958-0.542l1-0.042l0.667,0.333l1.042,0.458l1.833,0.125l2.625-0.125h2.458l3.083-0.458L64,154.833
		l1.042-1l0.958-0.5l0.625-0.75l0.75-0.292l0.958,0.125l3.083,0.208l3.292-0.167l1.833-0.208l1.542-0.5l1.083-0.667l0.792-0.583
		l0.75-0.958l0.5-0.375L82,148.875l1.208-0.208l1.625,0.208l2.125,1.083l0.958,0.708l1.167,0.667l0.625,0.583l1,0.333h1.708
		l0.875-0.083l1.083,0.625l0.75,0.5l1.374-0.125h2.208l1.833,0.208l1,0.542l1.167,0.792l0.583,0.458l0.583,0.25
		c0,0,0.875,0.542,1,0.667s0.792,0.542,0.792,0.542l0.625,0.458l1.208-0.042l1.5,0.208l2.375,1.167l2.625,1.167l2.208,0.792
		l1.083-0.167l0.458-0.042l1,0.25l1,0.417l1.625,0.708l1.125,0.125h2l2.5-0.542l0.75-0.458l1.917-1l1.583-0.292l1.458-0.167
		l1.333-0.042l1.792,0.125l0.833,0.417l0.833,0.583l1.625,1.125l0.708,0.208h2.375l2.417-1.375l2.208-1l2.125-0.083h1.167
		l2.625,0.458l1.333,0.458l0.958,0.375l1.875,0.458l2.333-0.042l1.375-0.583l1.458-0.833l2.875-1.5l2.375-1.458l2.125-0.875l2-0.417
		l2.667-0.708l2.125,0.125l2.125,0.667l1.667,0.583l1.542,0.5l1.042,0.75l1.292,0.917l0.75,0.542l1.375,0.125l1.083-0.208
		l1.458-0.25l1.667-0.208l1.083,0.167l0.708,0.292l1,0.292l0.708-0.208l1.375,0.083l1.375-0.083l1.542-0.083l1.75,0.542l2.25,0.875
		l2.375,0.667l2.5-0.125l4.333-0.292l2.167-0.5l1-0.167c0,0,1.167,0.375,1.292,0.458s1.458,0.792,1.458,0.792l1.375,0.458
		l1.375,0.333l1.667-0.083l1-0.083c0,0,0.792,0.125,0.958,0.25S224.58,162,224.58,162s1.25-0.167,1.5-0.167s1.75,0.042,1.75,0.042
		l3.125-0.417l1.167-0.083h1.208l1.333,0.042l1.875,0.208l2.208-0.125l1.208-0.083l0.792-0.083l2.167,0.208l1.125,0.458l1.5,0.542
		c0,0,1.125,0.5,1.25,0.625s1,0.667,1,0.667s0.75,0.541,0.917,0.583s1.25,0.083,1.25,0.083l0.792-1.125l1.458-1.75l1.167-0.917
		l1.917-0.292l2.5,0.125l1.792-0.167l0.917-0.208l1.083-0.542l2.625-1.792l1.958-1.708l1.208-0.875l1.417-0.292l2.042-0.042
		l1.667,0.417l0.958-0.333l1.167,0.208l1.125,0.625l1.167,1.042l1.916,1.208l0.625,0.708l1.375-0.125l1.417-0.208l0.75-0.125
		l1.583,0.125l1.792,0.542l1.875,1.167l1.208,1.208l0.583,0.583l1.708-0.208l1.417,0.042l2.708,1.042l2.583,1.417l1.583,1.458
		l1.792,1.708l1.583,1.292l1.125,0.25l2.167-0.375l3.125-0.833l2.333-0.708l2.25-0.708l3.791-1.292l3.583-0.958l4-1.167l2.417-0.792
		c0,0,1.125-0.458,1.208-0.583s2.5-2.542,2.5-2.542l1.458-1.667l1.458-1.042l1.875-0.667l1-0.042l1.208-0.083l0.583-0.458
		l0.958-0.042l0.917,0.292l0.833-0.375l0.958-0.792l1.042-0.458l1.5-0.083l1.5,0.5l1.333-0.083l1.833-0.042l1.375,0.333l2.041,1
		l3.75,1.458l1.25,0.792h1.167l0.917-0.875l0.833-0.5l1.292,0.5l0.75,0.375l0.75,0.5l0.792-0.042l0.708-0.208l1.292,0.333
		c0,0,0.125,0.083,0.375,0.333s0.458,0.75,0.458,0.75h0.625l1.042-0.083l1.375,0.125l0.667,0.667l0.375,0.542l0.542,0.208l2-1.042
		l2.167-2.125l2.042-1.917l1.583-1.5l0.792,0.083l0.333,0.5l1.125,1.583l2,0.958l1.625,0.708h0.792l1-0.667l0.875-0.333l1-0.208
		h1.167h1.833l2.624-0.167l0.958-0.375h1.917c0,0,1.167,0.208,1.417,0.25s1.458,0.292,1.458,0.292l0.667-0.833
		c0,0,0.334-0.292,0.542-0.333s1-0.167,1-0.167l1.167,0.25l1,0.542h1.292c0,0,0.917,0.292,1.167,0.375s1.083,0.333,1.083,0.333
		l1.208,0.167l0.708,0.042l0.75-0.625l1.333-0.583l0.625-0.042c0,0,0.625-0.042,0.708,0.083s0.375,0.542,0.375,0.542l0.583,0.167
		l1,0.333l0.375,0.25l0.792-0.167h1.333l0.542,0.083l1.042-0.833l0.708-0.708h1.542l1.292,0.333l2.167,0.75l1.375,0.5
		c0,0,0.708-0.167,0.833-0.25s0.708-1.208,0.708-1.208l0.333-0.458l0.458,0.208l0.25,0.292l0.417-0.333l0.583-0.542l0.25-0.708
		l0.667,0.042l0.208,0.333l0.083,0.167l0.542,0.125l0.542-0.583l1-0.375l0.542-0.667c0,0,1.125-1.917,1.208-2.042
		s1.042-1.167,1.042-1.167l0.792-0.917l0.833-0.875l0.917-0.625l0.5-0.042l0.833,0.25l0.5,0.458l0.625,0.5l0.958,0.417l0.625,0.833
		l1.083,1c0,0,0.083,0.042,0.417,0.375s1.25,1.458,1.25,1.458l1.083,0.792l1.458-0.458l1.708-1.083l0.958-0.625l0.792-0.333
		l0.75-0.5l0.583,0.25l0.875,0.375l0.75,0.333c0,0,0.625-0.042,0.75,0s1.167,0.083,1.167,0.083l0.958-0.5l0.542-0.417l0.417,0.083
		l0.417,0.583l0.333,0.375l1.333,0.208h0.625l0.833-0.417l0.5-0.25l0.75,0.167l0.042,0.5c0,0,0.042,0.167,0.083,0.292
		s0.708,0.292,0.708,0.292s0.375,0.083,0.833-0.208s0.833-0.417,0.833-0.417l2.208-0.125l1,0.042l1.125,0.167l0.292,0.542
		c0,0,0.5,0,0.625-0.042s0.667-0.375,0.667-0.375s0.708-0.458,0.833-0.542s0.583-0.375,0.792-0.458s0.833-0.292,0.833-0.292
		l0.875,0.083l1.042-0.042l0.75-0.417l0.417-0.458l1.375-0.708l0.5-0.792l0.75-0.208l0.917,0.042l0.458,0.167l0.708-0.25
		l0.792-0.583l0.875-1l0.792-0.917l0.542-0.208l0.708-0.042l0.5,0.083l0.708,0.083l0.75-0.417h0.209l0.75,0.375l0.458,0.5
		c0,0,0.458,0.292,0.833,0.5s1.709,0.583,1.709,0.583l1.541,0.458l0.833,0.333l0.667-0.042l0.458,0.167l0.167,0.333l0.417,0.417
		l0.916,0.708l0.625,0.417l1,0.5c0,0,0.5-0.042,0.667-0.042s0.75-0.5,0.75-0.5l0.667-0.542l1.625-0.583l1.041,0.042l1.125,0.333
		l1.417,0.542l0.417,0.542l0.541,0.458c0,0,0.417,0.042,0.542,0s0.792,0.083,0.792,0.083l0.5,0.292l0.5,0.125l1.416,0.292
		l0.417-0.125c0,0,0.333-0.334,0.5-0.292s0.667,0,0.667,0l0.625,0.125h0.791l0.5-0.125l0.292-0.167c0,0,0.333,0,0.5,0
		s0.542,0.208,0.542,0.208l1.041,0.708l1.542,0.75l1.083,0.667l1.042,0.417l1.542,0.292l1.083,0.208l0.834-0.208l0.875-0.167
		l0.542-0.042l0.75,0.333l0.25,0.375c0,0,0.375,0.292,0.5,0.333s1,0.125,1,0.125l1.458,0.458l0.75,0.333l1.917,1l1.625,1.125
		l1.666,1.042l1.209,1.542l0.916,0.75l2.375,0.167l2.042-0.167l1.458-0.625l1-0.083h1.084l1.416-0.375l0.667-0.042l1.083-0.125
		l0.709,0.125c0,0,0.709,0.583,0.875,0.667s0.833,0.375,0.833,0.375l2.167-0.042l2.5-0.333l1.416-0.5l1.292-0.333l1,0.25
		l0.667,0.458l0.666,0.5l0.502,0.042l0.959,0.042l1.166,0.417l0.542,0.625l0.917,0.708l1.291,0.875l1.334,0.792l0.666,0.375
		l0.709,0.75l0.291,0.708l0.542,0.333l1,0.042l0.375-0.125l0.625,0.042l1.083,0.5l0.417,0.292l1.25,0.083l1.167,0.167h1.041
		l1.167,0.083l0.583-0.125L579.37,167l0.375-0.208c0,0,0.374,0,0.541,0s0.75,0.208,0.75,0.208l0.459,0.458l2.625,1.333l1.5,0.292
		l0.708-0.5l0.25-0.083l1.417,0.167c0,0,0.709,0.5,1,0.5s0.291,0,0.291,0s0.625,0.042,0.75,0.125s0.5,0.417,0.5,0.417
		s0.043,0.208,0.209,0.333s0.208,0.209,0.583,0.292s1,0.042,1,0.042l0.625-0.167l0.875-0.542l0.917-0.625l1.166-0.583l1-0.417
		l0.792-0.333L598.87,168l0.625,0.25c0,0,0.375,0.167,0.833,0.333s1.333,0.333,1.333,0.333l0.334-0.167c0,0,0.792,0,0.875,0.125
		s0.375,0.375,0.375,0.375l0.75,0.083c0,0,0.75-0.042,1-0.167s0.5-0.458,0.5-0.458l0.25-0.125c0,0,0.458,0,0.583,0.125
		s0.125,0.125,0.125,0.125s0.5,0.166,0.625,0.208s0.625-0.125,0.625-0.125l0.208-0.292c0,0,0.709-0.083,0.834-0.083
		s0.625,0.209,0.75,0.292s0.916,0.125,0.916,0.125l1.25,0.25h1.125l0.75,0.583l0.459,0.5l0.458,0.333l0.792,0.25l0.626,0.042
		l0.75-0.042l0.708,0.25l0.417,0.333l0.875,0.583l1.208,0.25l0.417-0.167l0.458-0.458l0.834-0.042l0.833,0.25l0.542-0.083l1.166-0.5
		l0.959-0.208l1.416,0.083l0.5-0.25l0.292-0.375l0.917,0.042l1.208,0.25l1.5-0.333l1.333-0.333l0.625-0.208l0.709-0.25h1.166
		l0.792,0.292l0.875,0.375c0,0,0.667,0.042,0.792,0s0.791-0.167,0.791-0.167l0.917,0.125c0,0,0.583,0.375,0.625,0.5
		s0.333,0.75,0.333,0.75l0.417,0.458l0.5,0.167l0.958,0.167l0.584,0.167c0,0,0.083,0.083,0.208,0.25s0.417,0.417,0.417,0.417
		s0.416,0.333,0.708,0.417s0.458,0.125,0.458,0.125l0.542-0.083l2.188,0.646l2.5,0.75l2.438,0.625l2.438,0.125l2.25,0.75
		l1.938,1.375l1.438,1.312l0.75,0.25l0.938-0.312l0.688-0.312l1.125,0.062l1.562,0.812l1.438,1l0.688,0.812"/>
</g>
<g id="land">
	<polygon fill="none" stroke="#FF0000" stroke-width="0.25" stroke-miterlimit="10" points="258.5,647.5 281,622.5 296,610 
		312,604.5 345.5,604.5 430,603 470,603 544,600 608.5,603 638.5,614 661,625.5 681,638 686.5,647 	"/>
	<polygon fill="none" stroke="#FF0000" stroke-width="0.25" stroke-miterlimit="10" points="137.5,647.5 122.5,619.5 103.5,592.5 
		73,573 55.5,557 38.5,553.5 20.5,553.5 0,553.5 0,648 	"/>
	<path fill="none" stroke="#FF0000" stroke-width="0.25" stroke-miterlimit="10" d="M0,191.5l-0.042-46.75L15,148.5h20l15.5-3.25
		L65,142.5l13.5-2.5H96l19.5,4.75l10,3.75l26,0.613L173,145l15.5,0.25l10,3.863L214,153.5h14h14l28-4.387l18.5-1.613l10,6l9,2h6.5
		l18-8.5l16-1.75l13,3.25l11.5,0.613l20-0.113l27.5-0.5l10-1.5l5.5-4.5L449,140l8.5,4.75L468,145l7.5-2.5l11.5-8l13,4l14,4l20.5,6
		L550,154l20.5,5l19,4h24l20,2.5l28-2.5l18.5,3.5l13,0.5l37-7.5l30.5-4l25.5-2l17.5-4.387h14l16-0.613l22.5,0.613l23.5-3.863
		L897,134.5l17-7.5l15.25-7.5l14.25,0.5l11-4.5l13.421-5.5L968,337h-39.25H907l3.5-13l-7.343-8l-35.657-8.5l-30-3l-18-1.5l-15.5-5.5
		l-20-8.5l2.5-11v-10c0,0,3-15,4.5-15s18-13,18-13l40-20.5l18-8.5l-0.5-9.5l-11-1l-22-3l-20,6l-31,17.5l-23,13.5l-20,7L703,251
		l-36.5,7l-16-1l-7-6.5l15-8.5l43-10.5l33-8l30-12l3.5-4l-5.5-4l-26,4.5l-40,10.5l-37.5,11l-19,1.5l-8.5-1l9.5-6.5l44-18l18-3.5
		l-40.5-5l-39-0.5l-72,2H501l-45.5,1.5l-50-1.5l-24.5-2l-4.25,5.25l-7.75,3.5l-11,2l-8-0.5l1.25-3l-30.5,3.75l-12,0.25l34.25-8.5
		l8.25-3.5l2-2l-23-0.25l-18,1.75L278,195l-14.75,1.75l-6,2.25L245,203h-14.25l-30.25,0.75l-10.25-0.5l-19-3l12-2.5l3.5-3.25
		L160,196l-12.5,0.25L135,194l-12.25-3.25l-8.5-2l-24.25,2l-0.75-4.25l-6.5-3.25l-3.25-1.688l-21-3.312l-15.75,1.5l-7,1.812
		l-8.25,6.688l-7,2.75L5,192.25L0,191.5z"/>
</g>
</svg>
