<?xml version="1.0" encoding="utf-8"?>
<!-- Generator: Adobe Illustrator 16.0.4, SVG Export Plug-In . SVG Version: 6.00 Build 0)  -->
<!DOCTYPE svg PUBLIC "-//W3C//DTD SVG 1.1//EN" "http://www.w3.org/Graphics/SVG/1.1/DTD/svg11.dtd">
<svg version="1.1" id="svg" xmlns="http://www.w3.org/2000/svg" xmlns:xlink="http://www.w3.org/1999/xlink" x="0px" y="0px"
	 width="929.28px" height="622.08px" viewBox="0 0 929.28 622.08" enable-background="new 0 0 929.28 622.08" xml:space="preserve">
<image overflow="visible" width="3872" height="2592" xlink:href="AK03b_20090503_162210.JPG"  transform="matrix(0.24 0 0 0.24 0 0)">
</image>
<image display="none" overflow="visible" width="3872" height="2592" xlink:href="AK03b_20090503_162210-b.JPG"  transform="matrix(0.24 0 0 0.24 0 0)">
</image>
<g id="land" display="none">
	<polygon display="inline" fill="none" stroke="#FF0000" stroke-width="0.25" stroke-miterlimit="10" points="0,504 104,498.5 
		167.5,501.25 213.5,514 253.5,530.5 290,542 349.244,555.195 388.269,563.731 414.5,567.5 436.5,574 461.5,571 503.5,561.5 
		578.5,547.5 644.976,557.634 710.829,558.854 750.464,566.78 830,542 879.5,523.5 919.5,504.5 929.281,498.5 929.281,622.08 
		0,622.08 	"/>
	<path display="inline" fill="none" stroke="#FF0000" stroke-width="0.25" stroke-miterlimit="10" d="M0,118V30.5L23,33l15-5.5h26
		h24.5h45h23L176,21l10-3h28.5l18.5,5.5l29.5-2l18-8.5L314,4.5l36,3L363.5,0H713l25,13l20.5,2L779,9.5l22.5-6l8-3.5h94l25.781,26.5
		v109H798H661.5h-120l-50.793,5.061l-86.585-5.488l1.829-15.244l-9.146-3.658l-23.78,1.219l-79.269,4.878l-22.561,2.439L255.5,131.5
		l-14,4l-30,3l-57.378-3.427l-34.756-7.317l-17.683-7.927c0,0,1.317-8.329,1.817-10.829S90,105,90,105l-24.902,9.341l-37.805,2.439
		L0,118z"/>
</g>
<g id="horizon">
	<path fill="none" stroke="#FF0000" stroke-width="0.25" stroke-miterlimit="10" d="M0.125,42.375L4,43.125L7.75,43H11h2.25
		l3.125,0.375l1.75-0.125l2-0.25l2.5,0.125l2,0.625l2.25,1.625l3,1.625l6.5-0.125L40,44.5l3.875-2.625l3.125-2.5l1.625-1.5
		c0,0,0.625-0.5,1-0.375s1.875,0.375,1.875,0.375l2.375,1.625L57,43.75l3.75,2.125l2-1L65.625,43l5-0.875l3.625-0.25h2.25
		l3.125,2.25l6.75,1.625l3.875-0.25l4.5-0.5l2.875-2.875l4-2.625l2.75-2.25l4.875,0.625l4.5,1.75l2,1.25h2.625l2-1h2.5l3.625,1
		l3.5,0.875l6.5,1.375L149.375,43l11-1.125l4.25-1l3.625-3.75l5.125-2.5l3.25-0.625L182,36l1.375,1l2,0.25L187.25,37l4-4.5
		l2.875-4.125l1.25-1.25l1.875,0.375l3.75,1.875l2.125,1.5l2.375-2.5l1.75,0.75l4.25,4.125l4.625,3.875l5.75,2.375l2.5,0.125
		l1.5-1.875l2-1l5,0.5l5.5,2.125l2.5-1.625l2.25-0.875l2.25,0.5l3.875,1.375l4,1.125L258.375,37L263,35.625l4.125-0.25l5.5,0.875
		l4,0.625L283.5,28.5l4.875-3.25l3.5-3.125l2.5-0.875h2.75l3-2.125l4.25-2.25L308,15.5h3.5l3.75-1.625l2.875-1.125h4.25L327,13.625
		l7.75,3.5l6,2.25l1.75-1.25h4l3.125,0.25l2.75,0.75h2.5l1.375-0.875l1.25-1.875l3.125-2.5l4.25-1.375l3.5-1.25l3.25-1.375
		L377,8.625l3-1.875l2.25-1.875l2.5-0.375l5.5-0.625l3.125-0.625l2.75-0.75h6.375l6.25,3.125l2.75,1.25l3.625-0.125l3.125,2
		l2.125,0.375L424.75,8l3,0.75L429,9.625h2.625l2-0.125l4,1l4.875,2.125l2.875,1.5h2.125l1.875-1.5l1.5-1.625
		c0,0,1.75-0.375,2.25-0.125s1.375,1.75,1.375,1.75l1.25,1.125l1.625-2.375l5.5-6.625l5.75-4.625"/>
	<path fill="none" stroke="#FF0000" stroke-width="0.25" stroke-miterlimit="10" d="M520.625,0.125l6.125,1.75L533,2.5l1.75-0.25
		h2.5l2.875,0.375L543,3.375l2.25-0.125h2.25l2.75,0.875l3.25,0.625l4.375-0.875l3.5-0.5l4.125,1.75L571.875,8l8.375,2.875
		l6.375,1.875l1.5,1.25l1.75,1.25l4.25-1l4,0.625l4.125,0.875l6.125-3.125l3.75-2.25l4.25-0.375l2.75-0.125l4-2.25l3-0.5l3,0.375
		l2.5,1l9.875-0.125L644.875,9l3.875,1l9.5,1.75l7.125,0.625l5.625,0.5l7-0.75l6.875-1.625l6.5-1.375l3.75-1l2.75-0.875L700.5,8
		l5.125,2.5l4.625,4.125l1.5,2.625l4.375,3.125l2.25,2.625l6.125,2.125l10.375,4.375l6.375,3.125l4.5,2.375l1.75,1.375l8.5-2.625
		l7.625-4l7-3l3.375-2l3.25-1l2.75-0.125l2.75,2.875l3.75,3.5l2.125,1.375l3.625,1.125l3,0.875l3.875-1.625l2.75-1.625l3.75-5.125
		L811,17.375l3.125-3.5L819.25,9.5l3.875-2.625l2.25-1.75l1.125-0.5c0,0,1.5,0.375,1.875,0.625s0.75,1,0.75,1l3.625,0.625L839.5,7.5
		l3.875,0.5l2,1.125h4.75l5.5-0.375l3.625-0.5l5.125-2.125l2-0.625l1,1.375l2.375,1l2,0.5l1.125-0.875L875,8.75l0.5,1.375l2.875,2
		L880.5,12h1.25l3.125-0.75l1.625-0.875l1.875-0.125l1.25,0.375l0.5,1l3-1.25L895,11l0.75,1.625l1.375,2l1.375,1.75l4.25,3.25
		l7.5,3.75l3.875,1.875l1.875,2l1.375,2.625l3.5,3.5l1.5,3.875l2.125,1.625l4.78-1"/>
</g>
<g id="gcp">
	<circle id="theodolite" fill="#FF0000" cx="67.333" cy="531.667" r="0.25"/>
	<circle id="CCFG001" fill="#FF0000" cx="156.75" cy="577.625" r="0.25"/>
	<circle id="portaledge" fill="#FF0000" cx="911.75" cy="109.75" r="0.25"/>
	<circle id="xcrack" fill="#FF0000" cx="318.159" cy="102.693" r="0.25"/>
</g>
</svg>
