<?xml version="1.0" encoding="utf-8"?>
<!-- Generator: Adobe Illustrator 16.0.4, SVG Export Plug-In . SVG Version: 6.00 Build 0)  -->
<!DOCTYPE svg PUBLIC "-//W3C//DTD SVG 1.1//EN" "http://www.w3.org/Graphics/SVG/1.1/DTD/svg11.dtd">
<svg version="1.1" id="svg" xmlns="http://www.w3.org/2000/svg" xmlns:xlink="http://www.w3.org/1999/xlink" x="0px" y="0px"
	 width="968px" height="648px" viewBox="0 0 968 648" enable-background="new 0 0 968 648" xml:space="preserve">
<g id="image">
	
		<image overflow="visible" enable-background="new    " width="3872" height="2592" xlink:href="AK03_20080608_181855.JPG"  transform="matrix(0.25 0 0 0.25 0 0)">
	</image>
</g>
<g id="gcp-peaks">
	<circle id="P4930" fill="#FF0000" cx="234" cy="188.5" r="0.25"/>
	<circle id="P7010" fill="#FF0000" cx="402.25" cy="187.5" r="0.25"/>
	<circle id="TOOTH" fill="#FF0000" cx="526.5" cy="175" r="0.25"/>
	<circle id="P7930" fill="#FF0000" cx="575" cy="172.25" r="0.25"/>
	<circle id="TRIANGLEPK" fill="#FF0000" cx="669.5" cy="159.75" r="0.25"/>
</g>
<g id="gcp">
	<circle id="CCFG005" fill="#FF0000" cx="46.062" cy="581.911" r="0.25"/>
	<circle id="CCFG004" fill="#FF0000" cx="92.75" cy="607.25" r="0.25"/>
	<circle id="nipple" fill="#FF0000" cx="42" cy="233.25" r="0.25"/>
	<circle id="kadin-cairin" fill="#FF0000" cx="153.75" cy="200" r="0.25"/>
	<circle id="xcrack" fill="#FF0000" cx="780.75" cy="229.75" r="0.25"/>
	<circle id="JNCSLDR" fill="#FF0000" cx="861" cy="258" r="0.25"/>
</g>
<g id="horizon">
	<path fill="none" stroke="#FF0000" stroke-width="0.25" stroke-miterlimit="10" d="M0.062,137.562l2.5,1.812l1.812,2l0.625,0.5
		l2.062-0.188H9l2.125,0.438l2.125,0.688h1.562l1.375,0.438l1.5,1.125l1.812,2.188l0.875,2l1.688,1.375l3.812,1.875L31.188,155
		l5.438,2.875l3.938,2.562l4.375,3.25l3.438,3.062l4.438,4.938l1.625,1.625l2,1.812l2.062,1.312L60.438,178l1.375,2.375l1.75,0.688
		l2.062,0.625l1.812,1.188l2.375,1.438l1.5,1.875l0.688,1.5l0.875,2.062l0.875,1.125h0.812l0.938-1.312l0.875-1.188L77,188.25
		l1.062-1.188l1.125-0.25h1.375l1.125,0.625l0.938,0.5l2.75-0.125l2.5-0.125l2.125-0.25L91.75,187l0.75-0.125h0.625l0.5,0.75
		l0.438,0.438l1.188-0.375l0.688-0.75l1.438-0.5l1.312-0.312l1-0.375l1.125-0.188l1.312-0.188l1.188,0.375l1.375,0.625l0.625,0.375
		h1.438l1.375-0.438h1.062l1.75,0.312l4,1.938l2.625,2l1.875,1.188l1.125,0.25l0.875,0.688l1.25,0.938l1.188,0.812l1.5,0.5l2-0.188
		l0.938-0.188l1.312,0.188l0.688,0.562l0.875,0.438l0.5-1.25l0.375-1.5l1.125-1.25l1.25-0.375l1.812-0.125l1.812,0.5l1.5,0.375
		l0.5,0.125l0.75-0.875l1.312-1l1.438-0.062l1.375-0.312l0.938-0.188l1.062,0.188l0.812,0.625l0.25,0.75l0.75,0.312l0.562-0.75
		l0.312-0.438l2.25-0.312l1.625,0.125l1.625,0.812l1.75,1.625l1.438,2.438l0.938,1l0.875,0.625l1,1.5l0.75,1.062l0.938-0.125
		l0.688-0.938l1.25-0.625l1.5-0.188h1.312l1.188,0.188l0.562,0.438c0,0,0.125,0.312,0.312,0.312s1.938-1.062,1.938-1.062
		l1.562-0.562l1.375-0.938l0.5-0.5l0.812-0.688l1.5-0.125l1.75-0.125l1.25,0.312l0.688,0.312h2.062l1.438-1.312l0.812-1.312
		l1.438-0.375l1.375-0.375h1.125l0.938,0.438l1.312-0.75l0.562-0.438l1.5-0.125l1.312,0.125l1.812,0.875l2.188,1.062l1.875,0.562
		l1.438,0.75l0.938,0.625l2-0.062l2.438-0.375l2-0.375l2.938-0.562l1.75-0.562l2.938-0.625l2.375-0.375l2.125,0.062l1.438,0.562
		l1.562-0.188l1.625-0.938l3.438-1.562l1.625-0.875l1.5-0.688H234l0.625,0.25l1.188,1.188l0.938,1.5l0.688,1.125l1.062,1.5
		l0.625,1.125l1.125,1.125l1.75,0.625l1.188,0.5l0.688,0.75l0.792,0.396l2.958,1l2.375,1.042l2.583,1.542l1.917,1.208l1.958,1.583
		l2.458,2.208l0.583,0.875l0.292,0.917l0.375,0.75l1.125,0.708l1.833,1l1.083,0.458l1.75,0.167l1.542-0.042h0.542l0.792,0.417
		l1.125,1.417l0.458,0.792L270.75,215l0.458,0.292l1.125-0.25l2.292-0.625l2.167-1l3.25-1.208l0.625-0.5l0.667-0.333l1-0.042
		l0.667,0.292l0.625,0.042l0.958,0.208l0.667-0.042l0.583-0.917l0.708-1.25l1.167-0.333l1.042-0.042l1.333-0.125l1.25-0.167
		l0.875,0.167l0.458-0.375l1.083-0.042l0.75,0.125l0.667,0.5l0.333,0.25l0.625,0.042l0.458-0.292l0.833,0.208l0.667,0.5l0.542,1.125
		l1,1l1.083,0.583l0.708,0.208l1.208,0.708c0,0,0.208,0.667,0.375,0.833s0.667,0.958,0.667,0.958l0.292,0.542
		c0,0,0.458,0.25,0.583,0.292s0.667,0.5,0.667,0.5l0.875,0.667l0.458,0.5l1.208,0.208l1.125,0.083l1.25,0.208l2-0.167l1.292-0.25
		l1-0.5l0.542-0.458l1.167-0.25l1.25-0.208l1.125-0.083l0.917-0.708l1.5-0.417l1.458-0.542l1.625-0.833l1.083-0.667l0.542-0.375
		l0.833-0.458l0.708-0.042l0.333-0.333l0.583,0.125l1,0.375l1.208,0.5l0.958,0.458l0.875,0.167l1.25,0.292l2.542-0.208l1.417-0.042
		l1.25-0.458l1.208-0.917l1.042-0.75l0.708-0.5l0.75-0.542l0.375-0.708l0.167-0.75l0.417-0.958l0.542-0.75l0.792-0.708l1.792-1.708
		L347.25,204l1.208-1.167l1.583-1.333l1.833-2.208l1.417-1.375l2.25-2.333l1.625-1.708l0.875-1.292l0.458-0.458l0.542-0.083
		l0.792,0.542l0.917,0.208l0.792-0.417l0.292-0.083l0.667-0.417l1.042,0.333l1.375,0.542l0.792,0.625l0.708,0.375l1.75-0.458
		l1.875,0.25l1.75,0.583l2.5,0.958l0.542,0.708l0.958,0.833l0.917,0.208l0.5-0.25l0.958-0.458h0.625l0.667,0.458
		c0,0,0.208,0.542,0.25,0.667s0.5,0.708,0.5,0.708s0.25,0.292,0.375,0.375s1.667,0.125,1.667,0.125l1.083-0.25l0.5-0.583
		l0.917-0.667l1.792-0.792l2.042-0.542l1.375-0.25l1.042-0.167l0.417-0.958l0.667-0.583l1.042-0.583l2.083-1.792l1.292-1l1-1
		l1.083-0.208l1.375-0.417l0.875-0.792l0.542-0.458l1.167-0.458l0.792,0.292l0.958,0.375l0.75,0.167l1.958,0.125l1.75,0.333
		l1.167,0.75l1.875,1.667l1.208,0.833l0.708,0.75h2.042h0.958l0.917,0.333l0.417,0.625l0.375,0.333l1.292,0.25l1,0.125l0.917,0.208
		l0.875,0.625l1.042,0.917l0.542,0.417l0.958-0.083l0.542-0.708l1.917-0.25l0.625-0.125l0.458-0.5l0.917-0.042l0.875,0.167
		l0.708,0.292l1.042,0.042l0.958,0.083l0.708,0.5l0.833,0.25l1.375-0.708l1.417-0.417l1.708-0.042l0.667-0.25l1.167-1.125
		l1.25-0.333l1.125-0.042l1.25-0.375l0.917-0.542l0.75-0.5l1.083-0.458h1.958l1.708-0.042l1.208-1.458l1.042-1.25l1.042-1.25
		l0.667-0.75l0.667-0.208l1.25,0.333l1.292,0.875l0.917,0.167l1.333-0.417l2-0.709l0.875-0.5l1.125-0.292l1.167-0.375l0.625-0.917
		l0.5-0.292h1.833l1.292-0.042l1.083-0.542l0.917-0.375l0.833-0.375c0,0,0.75,0,0.958,0.042s1.25,0.375,1.25,0.375l0.833,0.667
		l0.875,0.458l0.875-0.5l0.875-0.75l1.333-0.542l1.5,0.125l1,0.458l1.583-0.333l0.583-0.625l1.417-0.083l0.958-0.083l0.917-0.208
		l1.208,0.333l0.834,0.208l1.666-0.292l1.292-0.042l1.542-0.042l1.375,0.208l0.666-0.75l0.584-0.042l0.583,0.375l0.625,0.5
		l0.917-0.042l1.083-0.542l0.708-0.375l1.792-0.125l1.958,0.333l1.709,0.5l1.083,0.75l1.042,0.875l0.666,0.375l2.042,0.375h1.167
		h1.458l1.75,0.125l1.91-0.204l0.708-1.417l1.458-1.375l1.667-1.042l0.874-0.708l1-1.083l1.25-0.958l0.5-0.5l0.667-0.875
		l0.333-0.333l0.167-0.667l0.75-0.458h1.083l1.375,0.958l1.25,0.917l0.959,1.167l0.75,1.833l0.583,1.333l0.875,0.875l1.542,0.333
		l1.208,0.125l1.417-0.875l1.416-0.958l1.042-0.708l0.667-0.458l0.958-0.625l1.583-0.042l1.667-0.083l1.625-0.167l0.875-0.625
		l1.667,0.042l1.041,0.292l1.209,0.917l0.625,0.667l1.083,0.333l1.208,0.208l1.042,0.125l1.083,0.375l1.5,0.625l1.042,0.333
		l1.125,0.042l1.833-0.542l3.542-2.625l2.917-2.208l1.791-1.167l1.375-0.917l0.543-0.5l0.833-0.208l0.584-0.292l0.666-0.792L575,172
		l1.248,0.124l2.209,0.75l0.958,0.292l1.208,0.167l1.209,0.875l0.958,0.708l1.167,0.708l1.583,0.208l0.917-0.042l0.833-0.417
		l1.542-1.125l1.416-0.125l1,0.125l1,0.5l0.584,0.292l1.5,0.208l1.375,0.167l0.333,0.333l0.5,0.292l2.458,0.25l6.209,0.333
		l4.708,0.25l2.625-0.333l3.292-0.75l3.5-0.792l3.125-0.417l3.667-0.25l1.75-0.583l1.208-0.583l1.709-1.375l2.375-2.083l2.125-1.333
		l1.416-0.375l1.417-0.708l0.625-0.5l0.75-0.5l1.958,0.375l0.917,0.333h1.125l1.167,0.375l1.25,0.583l0.291,0.583l0.375,0.583
		l2.959,0.125l1.25-0.167l1-0.625l1.666-1.958l1.375-1.833l0.5-0.958l0.75-1.25l0.459-0.958l0.958-1.042l0.708-0.625l1.417-0.417
		l0.958-0.125l2.375,0.625l0.709,0.458l0.583,0.75l1.042,0.583l1.166,0.542l1.25-1.583l0.75-0.875l1.043-0.291l1.082,0.624
		l1.667,1.167l1.25,1.5l0.792,1.292l1.792,1.625l2.333,1.542l2.334,1.083l2.416,0.792l2.459,0.75l0.916-0.208l1.417-1.417
		l1.792-1.125l2.541-0.417l3.084,0.542l2.208,0.542l1.542,0.625l0.916,0.542l0.584,0.292l1.791-1.25l1.709-1.167l1.333-0.583
		l1.375-0.083l1.75,0.208l2.292,0.875l1.791,0.625l1.292,0.25l1.668,0.125l1.333-0.75l1.917-1.083l2.417-0.833l2.083-0.542
		l1.917-0.375l1.5-0.417l1.375-0.5l3.083-0.083l1.708,0.208l1.625,0.333l0.834,0.25l2.208,0.292l0.917,0.083l1.792-1.708
		l2.166-2.167l1.167-1.542l1.167-0.542l0.541-0.625l0.752-1.583l1.792-1.542l1.208-0.583l0.958-0.375l1.084-1.25l1.708-1.875
		l1.208-0.833l1.375-0.5l1.042-0.75l1.375-0.542l1.75-0.083l2.958-0.75l2-1.292l0.917-0.833l1.042-0.583l1.333-0.583l0.917-0.5
		l1-0.25l0.666-0.208l1.042-1.042l1.625-0.667l2.875-0.75l2.5-0.583l1.667-0.417l1.291-0.542l2-0.833l2.043-0.792l2.542-0.125
		l3.375,0.167l2.583,0.333l2.125,0.625l1.833,0.875l1.792,0.5l2.042,0.75l1.291,0.833l1.167,0.458l1.292,0.5l1.291,0.458
		l0.834,0.125l1.041,0.167l0.625-0.042l1.917-1.042l1.333-0.333l0.917,0.292l1.458-0.292l1.75-0.125l0.625,0.083l0.543-0.208
		l2.084-0.208l0.916,0.417l1.334,0.417l0.416,0.333l0.542,0.542l0.583-0.583l1.417-0.875l0.875-0.708l0.458-0.625l1.584-0.833
		l0.5-1.375l1.791-0.833l3.25-1.209l1.167-0.708l1-0.667l1.542-0.5l2.875-1l1.625-0.583l0.5-0.625l0.75-0.875l0.541-0.208
		l0.709,0.375l1,0.042l2.958-1.417l1.417-0.292l1.375-0.583l1.333-1.5l1.833-1.042l1.792-1.125l3.917-0.875l3.292-0.417l1.791-0.5
		l1.834-0.042l1-0.042l2-1.292l1.791-0.333l2.709-0.417l2.583-0.083h2.625l2.667,0.208l2.791,0.958l1.459,1.042l1.375,1.125l1,0.542
		l0.916-0.458l0.875-0.708l1.709,0.417l0.5,0.083l1,0.042l0.791-0.208h0.959l0.166,0.458l0.167,0.583l0.375,0.292l0.583,0.042
		l0.959,0.083l0.5,0.625l0.375,0.583l1.166,0.042l1.334-0.542l1.541-0.75l1.042-0.375l1.125-0.292l1.875-0.167l1.083-0.125
		l1.042,0.042l0.875,0.625l0.667,0.583l1-0.208l1.666-0.208l1.917,0.042l1.25,0.042l0.75,0.208l1.042,0.375l2.542,0.292h0.875
		l1.458,0.167l1.042-0.167l1.083,0.208l1.792,0.625l0.708,0.167l1.125,0.667l0.667,0.5l0.208,0.5l0.208,0.875l0.375,0.167l1-0.292
		l1.375-0.542l1.542-0.75l1.458-0.417l0.584-0.458l0.208-0.542l0.667-0.583l0.875-0.625l0.541-0.292l0.584-0.083h0.416l0.917,0.458
		l0.75,0.333l0.75,0.542l0.458,0.792l0.459,0.458l0.75-0.667l1.625-1.125l1.75-1.792l1.833-2.458l3-3.167l1.833-2.5l2.875-2.792
		l2.875-2.042l2.917-1.708l2.208-1.792l1.75-1.417l1.75-0.958"/>
</g>
<g id="land">
	<polygon fill="none" stroke="#FF0000" stroke-width="0.25" stroke-miterlimit="10" points="0,582.161 26.43,570.844 
		55.729,570.844 97.13,570.844 164.01,582.161 216.876,582.161 342.354,592.5 433.437,602.055 511.144,614.793 561.462,626.258 
		614.965,648 0,648 	"/>
	<path fill="none" stroke="#FF0000" stroke-width="0.25" stroke-miterlimit="10" d="M234.25,286.768l-10.368,17.834l-17.198,6.37
		h-15.287l-15.287-7.644L154,293.774l-32.666-7.007l-57.962-3.821H0.062L0,126.895l13.054,7.006l21.019,10.191l26.115,18.177
		L71.653,172l10.828,3.25h14.013l14.013,3.237l15.287,5.732l15.287-4.458l18.471,2.548l8.28,4.941l20.382-3.667l8.917-1.911
		l26.115-2.548l16.561,3.822l18.471,10.191l12.739,6.613l10.191,0.5l14.013-0.5l12.263,4.215l10.03,3.185l13.376-6.9l14.649-11.5
		l28.025-6.441l9.554,5.941l12.102-1l7.28-7.489l18.197,2.548l5.732,1.274l16.561-3.185l17.834-5.148l19.108-0.5l31.21-2.75
		l11.465-5.614l17.197-0.637L553.182,172l14.649-3.067l14.013-6.664l21.656,4.753l22.293-4.753l19.108-7.349l7.644-2.547
		l21.655-0.637l12.739,3.822l17.197,3.942l15.287-5.216l19.108-7.006l17.834-12.102l29.3-8.28l28.662,3.185l11.465-3.185h7.006
		l14.65-9.554l26.114-3.185l23.567,3.185l28.025,1.911l10.19-2.548l7.644-6.37l11.465-7.643l13.509-6.37v175.796l-63.827-3.822
		l-28.025,2.548l-21.656-1.911v-6.369c0,0,19.745-8.917,21.656-9.554s27.389-13.376,27.389-13.376l3.821-7.006l-13.375-3.127
		l-42.038,7.586l-40.128,6.369l-52.866-0.637l-25.478,1.911l-10.828,4.458l-28.662,14.013l-24.196,3.185l-18.479-1.274
		l-26.751-2.548L599.041,258l-17.834-5.627l-12.102-1.911l-10.828-0.637l-16.561-3.185l-26.752-0.637l-49.681,1.274l-22.293,1.274
		H418.15L402,247.914l-16.334-3.821l-23.567-7.644l-14.649-11.465l-10.191-1.274h-16.561l-21.019,5.79l-2.548,8.86l-12.739,10.191
		l-7.007,2.548l-17.197,0.637h-8.917l-4.459,2.548l9.554,9.554l6.37,5.732l-4.458,10.191l-10.191,1.911L234.25,286.768z"/>
</g>
</svg>
