<?xml version="1.0" encoding="utf-8"?>
<!-- Generator: Adobe Illustrator 16.0.4, SVG Export Plug-In . SVG Version: 6.00 Build 0)  -->
<!DOCTYPE svg PUBLIC "-//W3C//DTD SVG 1.1//EN" "http://www.w3.org/Graphics/SVG/1.1/DTD/svg11.dtd">
<svg version="1.1" id="svg" xmlns="http://www.w3.org/2000/svg" xmlns:xlink="http://www.w3.org/1999/xlink" x="0px" y="0px"
	 width="929.281px" height="622.08px" viewBox="0 0 929.281 622.08" enable-background="new 0 0 929.281 622.08"
	 xml:space="preserve">
<image overflow="visible" enable-background="new    " width="3872" height="2592" id="image" xlink:href="AK03_20071007_185318.JPG"  transform="matrix(0.24 0 0 0.24 0 0)">
</image>
<g id="gcp">
	<circle id="CCFG004" fill="#FF0000" cx="85.9" cy="588.435" r="0.25"/>
	<circle id="CCFG005" fill="#FF0000" cx="41.44" cy="562.658" r="0.25"/>
	<circle id="JNCSLDR" fill="#FF0000" cx="828.208" cy="247.732" r="0.25"/>
	<circle id="nipple" fill="#FF0000" cx="36.863" cy="227.081" r="0.25"/>
	<circle id="kadin-cairin" fill="#FF0000" cx="147.961" cy="194.955" r="0.25"/>
	
		<circle id="xcrack" fill="none" stroke="#FF0000" stroke-width="0.25" stroke-miterlimit="10" cx="746.505" cy="222.023" r="0.25"/>
</g>
<g id="coast">
	<polyline fill="none" stroke="#FF0000" stroke-width="0.25" stroke-miterlimit="10" points="100.908,308.263 105.152,308.193 
		110.37,307.915 115.866,307.775 120.597,307.775 124.006,307.706 127.346,307.497 131.45,307.497 135.694,307.358 140.425,307.358 
		144.251,307.428 149.261,307.428 152.461,307.289 157.54,307.01 162.271,306.732 166.514,306.662 170.132,306.593 175.35,306.454 
		179.385,306.245 184.395,306.106 188.569,305.967 193.996,305.758 197.404,305.688 	"/>
</g>
<g id="horizon">
	<path fill="none" stroke="#FF0000" stroke-width="0.25" stroke-miterlimit="10" d="M0.167,137.583l2.083,2l2.75-0.25l1.667,0.333
		l1.25,0.833h2.167l1.417,0.083l1.25,0.833l1.417,1.333l1.583,1.75l0.667,0.917l3.083,2.417l4.25,2.333l5,3l2.333,1.417l2.167,0.917
		l1,0.333l1.75,1.25l1.25,1.25c0,0,0.917,0.5,1.25,0.583s1.75,1.583,1.75,1.583l0.75,0.833l0.917,1.25l2.167,1.167l2.75,2.917
		l1.333,1.833l1.583,1.333l1.583,1.917l3,1.75l1.5,1.5L57,176.417l1.083,0.417l2.083,0.417L61,178l1.083,0.917l1.833,0.583
		l0.667,0.833l1,2.083l1.833,3.417l0.833,1.083l0.667-0.667l0.75-1.75l0.917-0.917l1.167-0.75l1.667-0.333l1.083,0.083l2.25,0.75
		l2.417-0.083l3.75-0.333l1.667-0.5l0.667-0.167l1.417,0.333l1.417,0.167l2.417-0.667l1.167-0.5l2.083-0.417l1.167-0.5L96,181
		l2.25,1.5l2-0.167l1.083-0.5l1.25-0.083l1.333,0.417l4.75,2.667l4,2.583l1.417,0.917l0.917,0.75l2.167,1l1.333,0.167l0.833-0.5
		h0.833l0.917,0.25l1.167,0.5l1.333-0.25l0.667-1.417l0.583-1.167l1.083-0.5l1.25-0.083l2,0.083l1.417-0.333l1.583-0.5l2.583-0.667
		l1.75-0.167l1.75,0.083l0.917,0.417l0.583,0.583l0.917-0.25l0.5-0.667h1.417h2l0.75,0.333l1.334,0.958l1.375,1.333l0.583,1.208
		l0.667,0.833l0.792,0.625l0.708,0.5l0.5,0.458l0.792,1.375l0.292,0.708l0.25,0.25l0.833-0.083l0.917-0.583l0.542-0.625l1.833-0.333
		l2.458-0.167l0.917,0.375l1.167-0.5l1.375-0.667l1.542-0.833l1.208-0.667l0.708-0.333l1.417-0.042l1.292,0.083l1.125,0.125
		l2.125,0.5l1.5-0.292l1.167-0.792l1.167-1.458l1.042-0.458l0.958-0.292l0.875,0.125l0.792,0.292l1.125-0.875l0.833-0.5l1.333-0.292
		l1.458,0.333l1.542,0.5l1.292,0.792l1.375,0.417l1.375,0.667l1.792,0.792l1,0.5l1.083,0.083l0.75-0.167l1-0.333l1.667-0.5
		l1.25,0.042l1.125-0.167l0.667-0.542l0.875-0.375l0.5-0.25l1.333-0.042h1.625l2-0.542l1-0.25h1.292l1.458,0.417l1.208,0.333
		l1.167-0.292l1.458-0.875l2.208-0.667l1.583-0.5l1.667-0.958l1.042-0.625l1-0.333l1,0.292l1.125,0.875l0.417,0.75l0.625,1.25
		c0,0,0.5,0.958,0.667,1.167s1.167,1.958,1.167,1.958l0.958,1l1,0.625l2.292,1.208c0,0,0.417,0.208,0.5,0.333s1,0.667,1,0.667
		l2.25,0.958l2.208,1.083l1.458,0.583l3.125,1.792l1.916,1.583l1.417,1.042l0.667,0.5c0,0,0.833,1.083,0.958,1.25
		s0.625,1.125,0.625,1.125l0.542,0.625l1.542,1.042l1.208,0.458l2.292,0.167l1.167,0.25l0.708,0.458l0.833,0.792l0.375,0.75
		l0.708,0.917l1.625,0.542l1.958-0.25l1.417-0.458l1.667-0.917l2.583-1.083l1.375-0.833l2.042-0.292l0.917,0.333l0.875-0.208
		l0.75-0.667l0.5-0.625l0.708-0.333l1.125-0.25l1.208-0.042l0.666-0.375h1.167h1.125l0.583-0.542h0.583l1.625,0.792l1.333,0.292
		l0.417,0.083l0.75,0.708l0.917,1.042l0.958,0.583l0.958,0.458l0.708,0.458l0.875,0.792l1.208,1.5l1.25,1.083l1,0.667l1.542,0.625
		l1.792,0.167l2.375-0.167l2.042-0.458l0.583-0.458l0.833-0.375l1.375-0.333h1.375l1.333-0.667l1.792-0.583l1.792-0.792l1.458-0.917
		l0.958-0.875l1.625-0.375l1.167,0.333l2.042,1.167l0.667,0.792l1.042,0.208l1.042-0.25l0.833-0.333l2-0.25l1.333-0.417l1.125-0.917
		l1.208-0.708l1.708-1.958l1-1.917l1.708-1.667l1-1.25l1.042-1.333l0.833-0.625l0.875-0.875l1.542-1.25l1.792-2.167l1.375-1.333
		l1-0.792l1.083-1.292l0.75-1.167l0.5-0.792l0.458-0.333l0.75,0.167l0.625,0.958l0.583,0.333c0,0,0.458-0.542,0.542-0.667
		s0.292-0.667,0.292-0.667l0.875-0.208l1,0.042l1.042,0.292l1.208,0.833l0.75,0.458l2.75-0.292l1.458,0.083l1.375,0.333l0.833,0.292
		l0.958,0.167l0.333,0.417l0.167,0.708l0.583,0.458l0.875,0.417l0.583,0.083l0.708-0.25c0,0,0.333-0.333,0.458-0.333
		s0.583-0.167,0.583-0.167l0.583,0.042l0.375,0.583l0.208,0.875l0.25,0.625l0.333,0.292h1.125l1.125-0.417c0,0,0.708,0,0.833,0
		s0.917-0.583,0.917-0.583l0.75-0.25l1.292-0.75l2.125-0.625h1.583l0.75-0.667l0.625-1.042l1.042-0.5l0.667-0.458l0.75-0.75
		l0.75-0.625l0.542-0.542l0.583-0.583l0.667-0.458l1.375-0.458l0.667-0.292l0.75-0.333l0.458-0.375l0.875-0.417l0.458-0.333l1-0.042
		l1.417,0.375l1.667,0.042l1.333,0.083l1,0.542l2.167,0.833l0.833,0.708l0.5,0.625l0.75,0.708l1.083,0.625l1.375,0.25l0.792-0.167
		h1.042l0.75,0.292l0.542,0.583l0.375,0.708l1.083-0.125l0.792-0.25l0.708,0.167l0.833,0.625l0.333,0.5l0.25,0.75l1.125,0.083
		l1.167-0.458l1.167-0.333l0.792-0.208l0.5-0.667l0.708-0.042l1.25,0.125l1.042,0.5l1.166,0.542h0.958l0.292,0.375l1.042,0.167
		l0.5-0.417l0.708-0.583c0,0,0.5-0.167,0.625-0.125c0.125,0.042,0.792-0.042,1.167,0c0.375,0.042,0.75-0.125,0.75-0.125l0.917-0.542
		l0.625-0.458l0.417-0.292l1.208-0.208l1.292-0.083l0.833-0.042l0.792-0.5l0.708-0.5l1.083-0.375l1.792-0.083l1.542-0.083
		l1.167-1.583l1.083-1.333l1.375-1.542l0.5-0.833l0.833-0.25l0.917,0.625l0.792,0.75l1.083,0.292h0.833l2-0.833l1.333-0.583
		l0.583-0.25l1.167-0.167l0.625-0.458l0.458-0.875l1.208-0.333l1.417,0.125l1.167-0.083l1.667-0.458l0.583-0.583l0.667-0.375
		l0.958,0.042l1,0.542l0.583,0.292l0.875,0.583l0.417,0.042l0.417-0.292l0.708-0.583l1-0.375l1.5-0.042l1.042-0.083l0.75,0.167
		l0.667,0.208l0.292-0.708l0.708-0.125l1.375-0.167l1.708-0.083l1.125,0.208l0.793,0.208l0.457,0.167l0.625-0.542l1.168-0.083
		l1.207,0.167l0.793,0.167l0.916-0.583l0.75-0.125L474,176.25l0.875,0.208l1.125,0.333h0.291l0.834-0.542l1.332-0.292h2.209
		l1.209,0.375l1.541,0.583l0.959,0.917l1.041,0.5l1.207,0.542l1.666,0.042h0.875l1.084,0.167l2.541-0.167l1.375-0.583l0.875-1.208
		l1.459-1.25l1.709-1.333l1.457-1.583l1.584-1.333l0.791-0.5l0.459-0.417l0.416-0.625h0.793l1.75,0.958l1.832,1.292l0.75,1.125
		l0.625,1.417l0.584,0.958l0.584,0.542l1.166,0.125l1.125,0.292l0.584,0.125h0.75l0.207-0.667l1.543-1.083l0.875-0.667l0.75-0.583
		l1.375-0.292h1.375l1.541-0.333l1.541-0.042l1.043-0.333l1-0.083l1.082,0.542l0.75,0.417l0.959,0.667l0.959,0.667
		c0,0,0.625-0.083,0.75-0.083s0.416-0.083,0.582-0.083c0.168,0,0.959,0.042,0.959,0.042l1.584,0.542l0.541,0.167l1.416,0.208
		l1.75,0.25l1.25-0.667l4-2.833l1.875-1.542l1.584-1l0.916-0.333l1-1.083l1.084-0.208l0.75-0.917c0,0,0.416-0.5,0.541-0.458
		s1.168,0.167,1.168,0.167l1.082,0.5l1.168,0.292l1.207,0.125l0.918-0.125l0.791,0.375l0.791,0.75l0.418,0.542l1.166,0.583h0.666
		l1.459,0.375l0.209,0.083l1.332-0.583l0.75-0.333l1.168-0.625h1.75l0.582,0.167l0.543,0.5l0.707,0.375l1.209-0.083l0.834-0.167
		l0.582,0.583l0.125,0.458l0.709,0.333l1.5,0.083h2.334l8.709,0.458l1.209-0.167l1.082-0.25l1.543-0.458l3.332-0.708l2.334-0.333
		l2.334-0.333l2.666-0.333l1.625-0.125l1-0.417l1.375-0.75l1.375-1.375l2.918-2.25l1.875-1.167l1.332-0.292l0.875-0.333l0.5-0.542
		l0.543-0.292l0.875-0.042l1.457,0.125l1.75,0.542l1.084,0.292l0.875,0.458l0.416,0.542l0.584,0.625l1.416,0.042l1.5,0.125
		l1.209-0.25l0.541-0.75l1.709-1.958l1.709-1.667l0.75-0.958l0.416-1.542l1.25-1.625l1.416-0.917l0.75-0.292l2.043,0.208
		l0.707,0.333l1.168,0.583l0.957,0.833l0.459,0.458l0.834,0.542l0.75-0.75l1.041-0.875l0.709-0.75l0.457-0.167l0.584,0.125
		l1.125,0.792l1.459,1.625l1.875,1.792l0.916,1.292l1.041,0.792l1.793,0.833l1.5,0.708l2.041,1.042l1.25,0.417l0.834,0.333
		l0.875,0.458l0.582,0.042l1.293-1.292l0.875-1l1.25-0.75l0.916-0.25h1.875l2.25,0.375l4.75,1.208l1.168,0.208l0.832-0.25
		l1.459-1.125l1-0.625l1.291-0.375l1.834,0.167l1.584,0.417l1.5,0.583l1.457,0.417l0.875,0.25l1.375,0.333l1.043,0.042l1.375-0.833
		l2.625-1.417l2.207-0.917l2.334-0.417l1.541-0.083l0.959-0.25l1.875-0.542l2.084,0.125l1.75,0.125l2.375,0.542l1.291,0.25
		l1.125,0.125l1.75-1.625l2.709-2.833l0.75-1.042l0.541-0.167l0.625-0.542l1.959-2.458l0.875-0.875l0.959-0.542l0.916-0.292
		l0.334-0.417l1.541-1.25l1.209-1.125l0.541-0.667l0.791-0.333l1.043-0.25l0.832-0.5l0.668-0.333l1.166-0.292l1.209-0.167h1.582
		l1.502-1l2.332-1.875l1.5-0.792l2.168-0.833l2.041-1.208l1.789-0.877l1.291-0.542h1.418l0.957-0.167l1.668-0.708
		c0,0,1.041-0.167,1.332-0.208c0.293-0.041,1-0.375,1-0.375l3.127-1.375l1.375-0.458l3.166,0.125l3.125,0.25l3.291,0.333l2.5,0.792
		l2,0.917l1.793,1l2.957,0.917l1.834,0.375l1.334,0.167l0.832-0.083l0.793-0.208l1-0.458l0.832-0.292l0.668,0.167L778,138.5
		l1.293-0.208l1-0.583l0.707-0.042c0,0,0.459,0.125,0.584,0.208s0.291,0.292,0.291,0.292l0.709-0.417l0.666-0.458l0.625-0.083
		l1.168,0.292l0.957,0.708l0.584,0.5l0.959-0.042l1.541-0.75l1.084-0.958l1.416-1.417l1-1.292l1.125-0.958l1.459-0.375l1.875-0.333
		l0.748-0.876l1.25-0.917l1.125-0.417l1.5-0.125l0.918-0.083l1.291-0.417l0.916-0.458l0.793-1.375l0.375-0.458l0.707-0.25
		l0.875,0.25l1.043,0.292l1.416-0.5l2.5-1.042l1.375-0.542l0.666-0.542l0.709-0.542l0.5-0.458l0.875-0.5l0.916-0.625l1.584-0.625
		l2.25-0.833l2.334-0.208l2.041-0.292l1-0.042l1.25-0.042l1.25-0.417l1.541-0.792l1.75-0.792l1.625-0.083l0.918-0.167l3.832-0.375
		h2.25l1.918,0.208l2.125,0.667l1.832,0.917l1.459,1.125l0.584,0.75l0.666,0.292l1.416-0.833l0.959-0.167l0.834-0.083l1.625,0.292
		l0.832-0.25h0.625l1.168,0.833l1.25,1.083l0.875,0.792l1,0.25l1.375-0.292l1.332-0.917l1.586-0.583l1.75-0.208l1.416-0.125
		l0.791-0.25l0.668,0.083l0.625,0.333l0.541,0.417l0.959,0.125l2.291-0.167l1.209-0.042l1.416,0.125l0.834,0.25l1.207,0.5
		l1.084-0.042l1.125-0.208l1.541,0.125l0.543,0.333h0.957l0.875,0.208l1.834,0.667l1.125,0.583l0.834,0.542l0.877,0.958l0.25,0.625
		l0.791-0.042l0.875-0.25l1.084-0.25l0.332-0.375l0.293-0.708l0.582-0.208h0.5l0.584-0.292l0.375-0.417l0.541-0.958l0.543-0.417
		l0.75-0.333l1.041-0.125l1.209,0.083l1.25,0.417l0.791,0.458l0.584,0.417l0.332,0.25h0.5l1.459-1.25l2.084-2.876l1.291-1.5l1.375-2
		l1.459-1.667l0.875-1.042l1.875-1.792l2.625-2.208l1.75-1.375l1.916-0.917l1.25-0.875l1.959-1.542l1.791-1.166l0.959-0.792
		l1.041-0.75l0.793-0.542l1.375-0.25l1.068-0.083"/>
</g>
<g id="land">
	<polygon fill="none" stroke="#FF0000" stroke-width="0.25" stroke-miterlimit="10" points="0,562.658 34.14,550.04 58.64,550.04 
		86.15,558.54 131.14,565.04 167.14,578.04 194.14,583.04 259.64,583.04 292.64,583.04 347.64,566.54 407.14,566.54 467.14,580.04 
		493.14,604.04 507.14,622.08 0,622.08 	"/>
	<polygon fill="none" stroke="#FF0000" stroke-width="0.25" stroke-miterlimit="10" points="0.167,279.54 0,132.04 20.64,139.04 
		41.14,151.54 64.14,172.54 85.14,178.54 106.14,179.54 128.14,180.04 158.14,181.54 191.14,181.54 210.64,181.04 225.64,180.54 
		238.64,186.04 252.64,194.705 263.64,199.04 279.14,197.54 289.64,195.205 304.64,199.04 320.14,195.205 327.64,189.04 
		335.64,181.54 352.64,178.54 363.64,179.54 375.64,175.04 392.14,174.54 407.64,180.54 421.14,180.54 432.64,176.04 460.14,172.54 
		486.14,171.54 497.14,165.04 526.14,161.54 579.64,160.54 602.64,157.017 622.64,153.04 633.64,148.54 649.14,148.04 
		662.14,153.04 684.64,151.54 702.14,145.54 722.64,137.54 742.64,129.54 759.14,124.54 785.14,124.54 802.64,121.54 819.64,113.54 
		839.64,113.54 862.14,113.54 883.64,113.54 898.14,108.04 911.64,101.87 929.281,95.54 929.281,263.04 813.14,260.04 
		820.14,253.04 854.14,238.04 857.64,229.04 845.14,229.54 766.64,237.04 721.14,242.04 690.14,247.482 679.64,247.982 
		675.14,254.04 667.64,256.54 628.64,255.54 573.64,250.04 546.14,247.982 539.14,247.482 538.64,240.04 534.64,237.54 
		521.64,239.04 508.14,238.54 464.724,239.54 439.14,240.54 419.64,241.54 398.64,241.04 391.64,238.54 371.64,236.54 
		357.14,233.54 348.64,229.04 329.64,224.54 313.14,226.831 297.14,227.331 291.64,233.04 291.14,240.04 290.14,246.04 
		284.14,248.54 259.14,249.54 241.64,246.54 231.14,246.54 241.64,256.04 246.64,261.04 244.64,266.04 226.64,270.54 215.64,279.54 
		207.64,287.04 185.64,290.54 159.14,284.54 135.64,282.54 65.14,280.54 25.14,280.04 	"/>
</g>
</svg>
