<?xml version="1.0" encoding="utf-8"?>
<!-- Generator: Adobe Illustrator 16.0.4, SVG Export Plug-In . SVG Version: 6.00 Build 0)  -->
<!DOCTYPE svg PUBLIC "-//W3C//DTD SVG 1.1//EN" "http://www.w3.org/Graphics/SVG/1.1/DTD/svg11.dtd">
<svg version="1.1" id="svg" xmlns="http://www.w3.org/2000/svg" xmlns:xlink="http://www.w3.org/1999/xlink" x="0px" y="0px"
	 width="929.28px" height="622.08px" viewBox="0 0 929.28 622.08" enable-background="new 0 0 929.28 622.08" xml:space="preserve">
<image overflow="visible" width="3872" height="2592" id="image" xlink:href="AK03b_20080621_201611.JPG"  transform="matrix(0.24 0 0 0.24 0 0)">
</image>
<g id="gcp-peaks">
	<circle id="P5080" fill="#FF0000" cx="825.448" cy="24.1" r="0.25"/>
</g>
<g id="gcp">
	<circle id="theodolite" fill="#FF0000" cx="65.172" cy="548.266" r="0.25"/>
	<circle id="CCFG002" fill="#FF0000" cx="43.531" cy="571.078" r="0.25"/>
	<circle id="CCFG001" fill="#FF0000" cx="153.457" cy="594.584" r="0.25"/>
	<circle id="CCFG003" fill="#FF0000" cx="542.993" cy="563.375" r="0.25"/>
	<circle id="JNCSLDR" fill="#FF0000" cx="393.453" cy="145.781" r="0.25"/>
	<circle id="JUNCTURE-old" fill="#FF0000" cx="620.224" cy="68.273" r="0.25"/>
	<circle id="xcrack" fill="#FF0000" cx="318.625" cy="119.458" r="0.25"/>
</g>
<g id="horizon">
	<path fill="none" stroke="#FF0000" stroke-width="0.25" stroke-miterlimit="10" d="M0.083,60.834l2.833-1.167l2.167-0.083l3,0.25
		l2.167,0.167l2-0.167l1.083,0.083l1.167-0.333l1.333-0.333l1.75,0.5l1.583,0.833l1.333-0.333l1.25-0.583h2.083l2.083,0.333
		l1.417,0.5l2,0.833l0.917,0.75l1.833,0.75l1.667,0.25l2.417,0.5l1.167,0.083l3.917,0.333l0.583-0.083l0.833-1l0.583-0.833
		l0.75-1.25l2.75-0.667l0.5-1.5l1.833-1.167l1-0.167l0.583-0.917v-1.667l0.75-1.333l1.917,0.083l1.75,1l2.5,2.417l2.083,3.167
		l0.583,1.083l0.833,0.583l2.333,0.833L65,62.917l0.917-1.083l1.333-0.583l1-1.083l0.833-0.833c0,0,0.25-0.167,0.583-0.167
		s1.667,0.167,1.667,0.167l1.833,0.25l2.083-0.167l2-0.333l0.833-0.167l1.667,0.25l1.583,0.75l1.167,0.917l1.167,0.75L86,62.001
		l0.75,0.25l1.083,0.667l1.083,0.5l1.833,0.167l1-0.167l2.583-1.417l5.666-3.25l2.75-1.583l1.583-1.25l1.5-0.667l0.917-1.167
		l0.917-0.083c0,0,1.25,0.084,1.5,0.167s1.75,0.667,1.75,0.667l2.583,1l2.667,1.167l1.333,1.25l1.75,0.333l1.917-0.25l0.917-1
		l1.167-0.333l1.667,0.083l2.167,0.833l1.75,0.833l2.667,0.333l2.167,0.583l4.167,0.583l4.333,0.333L146,61.168l4.167-0.583
		l2.75-0.5l4.5-0.5l4.417-0.333l3.333-0.5l1.25-0.417l2.25-1.667l2.75-2.5l0.917-0.75l2-0.417l1.167-0.083l0.667-1.083l1.167-0.417
		c0,0,0.5,0,0.75,0.083s1.333,0.667,1.333,0.667l2.167,0.5l0.583,0.25l0.833,0.5l1.167,0.333l1.083,0.917l1,0.5l2.333,0.083l1-0.5
		l0.75-0.167l0.25-0.999l0.667-0.917l0.833-1.083l1.083-0.75l0.75-0.917l0.25-0.667l0.333-1"/>
	<path fill="none" stroke="#FF0000" stroke-width="0.25" stroke-miterlimit="10" d="M197.666,45.002l1.833,0.417l1.75,0.417l1.25,1
		l1.083,0.833l1.5,0.583l0.667-0.417l0.917-1.417l1-0.75h0.667l1.083,1.25l2.75,2.583l1.083,1.5l2.167,1.667l2.25,1.75l2.75,1.333
		l2.25,1.167l1.833,0.417h1.083l1.167-1.417l1-0.833l2.083-0.25h2.167l2.5,0.583l2.75,0.917l2.417,0.583l1.167,0.083l0.75-0.833
		l2.333-1.333l2.25-0.167l2.5,0.583l1.583,0.667l2.417,1l1.167,0.25l1.417-0.25l3-1.5l1.5-0.833l4.083-0.917l3.583-0.417
		l1.667,0.083l2.333,0.667l2.583,0.667l2.75,0.5l1-0.5l2.25-2.166l2.667-3l2.5-2.5l1.833-1.333l2-0.75l1.333-2.25l2.083-1.583
		l2.083-1.333l2-0.333h2.333l1.667-0.583l1.5-0.667l2.333-1.833l3.083-1.667l2.417-0.917l2.083-0.083l2.333-0.583l2.417-1.167
		l3.167-1l3.083,0.083l2.75,0.25l2.667,0.667l3.25,1.5l2.667,1.583l2.833,1.417l3.417,1.25l2.083,0.083l1.25-0.917l1.667-0.25h2.167
		l2.333-0.167c0,0,1.167,0,1.417,0.167s2.667,0.75,2.667,0.75l1.5,0.25l1.167-0.417l1.833-1.583l0.583-1.25l1.417-0.75l1.833-0.417
		l2.25-0.417l1.167-1.083l1-0.75l0.917-0.5l2.167-0.667l3.167-0.833l1.583-0.833l1.583-0.75l1.25-0.083l1.5-0.167l2.5-2l1.583-1.417
		l2.417-0.583l3.417-0.083l3.833-0.249l1.917-0.917l3-0.5l3.5-0.083l2.917,0.5l2.667,0.75l1.667,1.167l1.75,1.75l1.167,0.667
		l1.583-0.75l2.5,0.083l2.167,1.083l1.083,1.25l0.75,0.5l1.917-0.083l1.333-0.917l2.167-0.75l2.583,0.583l0.917,0.5l1.333,0.5
		l1.417-0.333l2.583,0.417l1.167,0.417l1.167,0.417l3,0.333l1.083,0.5l1.5,0.75l1.75,1.083l1.417,1.167l2.167,0.583l1.25-0.333
		l1.833-1.583l1.083-1.083l0.667-0.667l1.001,0.184l1.688,1.25l0.875,0.75l1.188-0.062l1-1.75l1.875-2.188l1.812-2.562l3.062-3.188
		l2.875-3.125l2.812-1.688l2.25-1.562l1.438-1.188l1.25-1l1.75-0.75L479,13.5l2.312,0.812l2.062,0.375l1.562-0.75l0.812-0.562
		c0,0,1.125-0.188,1.312-0.125s2.125,1.25,2.125,1.25l2.312,1.25l1.438,0.312L494,15.938l0.25-0.562l1.125-0.688l1.75-0.062
		l2.25-0.375l1.438,0.125"/>
	<path fill="none" stroke="#FF0000" stroke-width="0.25" stroke-miterlimit="10" d="M563.5,22.938L565.312,24l1.562,1.25L569,25.812
		l3,1l2.25,0.938l1.375,1.062l1.438,0.875l1.25,0.375h1.75h1.625l1.625,0.75c0,0,1.188,0.438,1.375,0.562s2,1.062,2,1.062
		l1.438,1.125l1.625,0.875l3.25-1l1.062-0.25l1.875,0.062l3,0.75l1.812,0.5l1.562,0.438l1.5-0.25l1.438-1.25l1.125-1.062l1.625-0.75
		l1.312-0.688l1.25-0.625l1.5-0.875l1.938-0.5l1.688-0.188l1.875,0.062L619,29.25l1.375-0.938l1.938-1.062l1.312-0.625l1.75-0.5
		l1.375-0.188L627.812,26"/>
	<path fill="none" stroke="#FF0000" stroke-width="0.25" stroke-miterlimit="10" d="M643.312,27.5l3.375,1.062l4,1.188l3.875,0.812
		l2.625,0.188l2.5,0.062h2.5l2.75,0.562L667,31.812h3.5h3.5l3.5-0.125l2.188-0.25l1.438-0.625l1-0.125l1.688-0.938l1.562-0.688H687
		l2.062,0.188l1.188,0.125l2.562-0.812l1.75-0.812l1.625-0.562l0.875-0.312l1.188-0.188l2.188,0.562l2.5,1.25l1.688,0.562
		l1.438,1.375l1.312,1.688l0.688,1.25l1.188,1.438l0.875,1.062l2.188,2l3.062,3.25L716.5,42l1.875,0.438l1.438,0.375l1.625,0.812
		l1.25,0.625l2,0.312l2.188,0.688l0.875,0.312L730,46.75l1,0.688l2.625,1.312l1.625,1.188l2.438,1L738,51.125l2.25,1.375
		l1.312,1.125l2.062,0.875l1.625,0.75l0.688,0.625l1.688-1.188L749,54.25l2-0.375l1.5-0.5l1.688-0.438L755,52.375l1.312-0.812
		L757.25,51l1.625-0.125l1.688-0.75l2.312-1.25l1.875-0.812l1.625-0.625l1.188-0.125L769.188,46l1.375-0.625l1.75-1.062l2.625-1.188
		l1.375-0.375l1-0.312l0.75,0.312l0.625,0.938L780.062,45l1.812,2l2.625,2.062l3.5,2.125l0.688-0.125c0,0,0.75,0.188,0.938,0.25
		s0.875,0.438,0.875,0.438l0.875,0.188h1.688l0.75-0.125l0.875,0.625l0.438,0.812l0.188,0.312l1.562-1.812l1.875-1.5l1.438-1.438
		l1-1.25l0.875-1.188l1.625-1.5l2.25-3.25l2.438-2.688L810.312,36l0.875-1.812l1.75-1.875l2.312-1.188l1.312-1.062l1.062-0.688
		l1-1.062l1.5-0.875l1.938-1.5l1.188-0.875l1.125-1l0.5-0.312l0.573,0.1l1.177,0.712c0,0,0.375,0.625,0.438,0.812
		s0.312,0.812,0.312,0.812l0.875,0.688l2.438-0.062l4.812,0.312l1.375,0.062l1-0.188l1.625,0.188l1.75,0.688l1,0.188l0.562,0.438
		l1.5,0.25l2.312,0.25l3.438,0.125l4.062-0.625l2.625-0.5l2.25-0.625l1.75-1.125l1.312-0.688l0.812-0.25l0.938,0.188l0.875,0.562
		l0.625,0.312l1.438,0.438l0.75,0.25L868,27.5c0,0,0.312,0.5,0.375,0.688s1.312,0.125,1.312,0.125l1-0.375h0.688l0.562,0.625
		l0.625,0.562l1.25,1.062L874.375,31l1.188,1.062l0.688,0.312l1.312-0.438l0.938,0.188l1.25,0.125l1.375-0.5l0.812-0.375l1-1
		l1.312-0.562l0.875-0.188l1.5,0.75l1.938,0.5L890,30.438l1.5,0.125l0.875,0.375c0,0,0.688,0.812,0.75,1.062s0.5,0.812,0.562,1
		s0.688,0.875,0.688,0.875L895.25,35l1.375,2.125L897.688,38L899,38.438l1.438,0.812l2.375,1.625l1.75,0.875l1.25,1l1.125,0.5
		l0.812,0.188l1.812,0.875l0.562,0.562l1.125,0.812l0.562,0.062l0.75,0.75l0.625,1.375l0.875,1l1.375,1.188l0.812,0.562l1.188,1
		L918.125,53l0.812,1.438l0.875,1.375l0.625,0.812l1.062,0.75l0.875,0.25l1.438,0.125l2.25-0.375l3.188-0.875"/>
</g>
</svg>
