<?xml version="1.0" encoding="utf-8"?>
<!-- Generator: Adobe Illustrator 16.0.4, SVG Export Plug-In . SVG Version: 6.00 Build 0)  -->
<!DOCTYPE svg PUBLIC "-//W3C//DTD SVG 1.1//EN" "http://www.w3.org/Graphics/SVG/1.1/DTD/svg11.dtd">
<svg version="1.1" id="svg" xmlns="http://www.w3.org/2000/svg" xmlns:xlink="http://www.w3.org/1999/xlink" x="0px" y="0px"
	 width="968px" height="648px" viewBox="0 0 968 648" enable-background="new 0 0 968 648" xml:space="preserve">
<g id="image">
	
		<image overflow="visible" enable-background="new    " width="3872" height="2592" xlink:href="AK03_20080208_205507.JPG"  transform="matrix(0.25 0 0 0.25 0 0)">
	</image>
</g>
<g id="gcp-peaks">
	<circle id="P4930" fill="#FF0000" cx="229" cy="170.75" r="0.25"/>
	<circle id="P7010" fill="#FF0000" cx="398.25" cy="164.562" r="0.25"/>
	<circle id="TOOTH" fill="#FF0000" cx="523.438" cy="148.062" r="0.25"/>
	<circle id="P7930" fill="#FF0000" cx="571.125" cy="144.438" r="0.25"/>
	<circle id="TRIANGLEPK" fill="#FF0000" cx="665.938" cy="129.062" r="0.25"/>
</g>
<g id="gcp">
	<circle id="CCFG005" fill="#FF0000" cx="58.25" cy="565.25" r="0.25"/>
	<circle id="CCFG004" fill="#FF0000" cx="102.25" cy="590.5" r="0.25"/>
	<circle id="nipple" fill="#FF0000" cx="39.562" cy="218.75" r="0.25"/>
	<circle id="kadin-cairin" fill="#FF0000" cx="155.125" cy="183.375" r="0.25"/>
	<circle id="xcrack" fill="#FF0000" cx="786.125" cy="206.25" r="0.25"/>
	<circle id="wfalls" fill="#FF0000" cx="827.75" cy="208.562" r="0.25"/>
</g>
<g id="horizon">
	<path fill="none" stroke="#FF0000" stroke-width="0.25" stroke-miterlimit="10" d="M0.083,130l2.083,0.083l4.083,0.75l4,1.417
		l1.75,2.5l2.167,2.417l2.667,1.167l3.333,2.083l5.083,2.917l5.667,3l5.917,3.417l2.25,1.583L41,153l2.333,1.75l2.083,2.583l3,2.417
		l2.021,2.062l1.938,1.812l3.312,2.125l1.688,1.688l3.312,1.75l2.312,1.25l1.375,0.625l0.938,1.375l2.375,3.5l1.5,1.875L70,176.375
		L71.188,174l1-0.938l1.312-0.438h1.062L76,173.562l1.812,1l1.688-0.25L83.062,174l3.75-1.25l2.125,0.188l2.625-0.625l3.75-1.25
		l2.5-0.25L99.625,172l1.875,1l1-0.5l0.875-0.812l1.188-0.062l1,0.625l0.875,0.438l1.875,0.438l1.375,0.625l3.75,2.5l2.938,1.438
		l1.938,1.125l1.812,0.938l0.938,0.312l1.25-0.25l0.812-0.625l1.062,0.188l0.938,0.688l0.375,0.25l1.125-0.938l1.125-1.812
		l1.188-1.125l1.875-0.188h1.875l1.188,0.188l1.438-0.562l2.5-1.062l2.312-0.375l2.062,0.188l1.375,0.562l1.25-0.188l0.75-0.5
		l2.188-0.062l1.5,0.125l1.25,0.812l1.812,1.5l1.312,1.688l2.75,3.188l1.5,1.125h1.812l0.75-0.75l1.25-0.25h1.375l0.812-0.812H165
		l0.812,0.25l1.25-0.875l1.125-0.438l1.562-1.25l1.562-0.75l1.562-0.25l2.312,0.062l0.938,0.562l1.312,0.25l2.625-1.375l2.812-2.125
		l1.875-0.312l1.812-0.125l0.938-0.625l1.812-0.188l2,0.5l2.875,1.25l1.75,0.688l1.438,0.188l1.375,0.812l1.312,0.25l2.375-0.938
		l2.312-0.375l1.875-0.438l2.875-0.938l3.5-0.625l2.938-0.5h0.875l1,0.812l1.062-0.25l1.375-0.625l1.562-0.562l2-0.75l1.625-1.125
		l1.438-0.625l0.688-0.625l1.062-0.375l1.688,0.562l0.688,0.5l0.938,1.938l0.5,1.375l2,1.875l0.625,0.75l0.438,0.812l2.312,1.062
		l2.125,1.312l3.938,1.438l4.562,1.938l3.812,2.625l1.312,1.375L255,188l0.438,1.062l0.625,1.062l0.938,0.75l1.25,0.75l1.625,0.875
		l1.625,0.188l1.375-0.062l0.938-0.312c0,0,0.625,0.062,0.75,0.25s1,1.312,1,1.312l1.562,1.188l0.75,0.438l1.25,0.188l2.5-0.625
		l1.688-1l2.688-1.5l1.5-0.75l1.188-0.188l0.688,0.125h0.938l1.25-0.625l0.938-0.875l0.938-0.562l2.312-0.5l1.5-0.312l2.625-0.25
		l1.438,0.312l1.625,0.688l1.625,0.75l0.938,0.875l0.688,0.75l1.25,0.25l0.25,0.062l0.75,0.812c0,0,0.312,0.812,0.5,1
		s2,2.062,2,2.062l1.812,1.375l2.25,0.375l0.688-0.375l1,0.062l1.125,0.438l1-0.312l1.375-0.25l1-0.938l0.688-0.562l1.188-0.125h1
		l0.875-0.312l1.25-0.25l1.625-0.938l3.5-2.062l1.625-1l0.688-0.5l0.875-0.312l0.875,0.375l0.688,0.625l0.875,0.625l1.25,0.688
		l1.062,0.438l0.625,0.188l3.25-0.625l2.5-1.25l2.188-2.25l1.5-2.438l3-4.062l3.375-3.375l3.562-3.688l3.438-4.062l1.062-1.562
		l0.5-0.688l0.812,0.5l0.688,0.688l0.812-0.25l1.125-0.812l0.562-0.062c0,0,0.812,0.375,1,0.375s1.25,0.688,1.25,0.688l1.312,0.812
		l1,0.312l1.5-0.438l1.875,0.312l1.188,0.312l1.375,0.25h0.75l0.812,0.312l1.125,0.875l1,0.875l0.875-0.312l1.312-0.438h0.5l0.5,0.5
		l0.312,0.75l0.75,0.812l1.625,0.25l1.125-0.125l1.375-0.938l2.562-1.5l1.625-0.562h1.562l1.938-1.812l2.25-1.938l1.188-1.5
		l0.625-0.75l1.438-0.5l1-0.312l0.688-0.188l0.938-0.875l0.812-0.312l1.75,0.125l1.875-0.25l1.438,0.5l1.438,0.312l1.062,0.438
		c0,0,1.438,0.75,1.75,0.875s0.812,0.562,1,0.812s0.938,1.312,0.938,1.312h1.75l1.25,0.375l0.562-0.438l1.062,0.312l0.938,0.5
		l0.5,1.125l1.75-0.25h1.25l0.938,0.188l0.812,0.5l0.938,0.688L422,171.25l1.562-0.625L424.5,170l1.188-0.062l1.375,0.5l1.812,0.625
		l1.375,0.188l0.75,0.375l1.312-0.5l1.312-0.625l1.25-0.25l0.938-0.062l0.75-0.562l0.938-0.875l0.562-0.312l0.812,0.062h0.562
		l1.5-0.438l1.875-1l1.375-0.438l1.938-0.312l0.625-0.062l1.75-2.25l1.5-1.312l0.625-1.25l0.5-0.625l0.375-0.062l0.688,0.562
		l0.688,0.562c0,0,0.625,0.312,0.812,0.438c0.187,0.126,1.188,0.5,1.188,0.5l1.312-0.875l1.375-0.875l2.812-1.062l0.938-0.438
		L462,158.75l1.188-0.188h1.25l1.25-0.188l1.5-0.312l0.938-0.438l0.625-0.562l1.938,0.062l1.125,0.25l0.875,0.438L474,157.25
		l1.688-0.75l2.125,0.188l0.812,0.25l1.75-0.875l2.062-0.312h1.312l1.375,0.438l2.812-0.562l2.75-0.25l1.938-0.125l1.375-0.125
		l0.438,0.438l1.438-0.438l0.75-0.5l1.562-0.312h1.25l1.062,0.5l1,0.25c0,0,1,0.562,1.25,0.75s1.125,0.875,1.125,0.875l0.125,0.375
		l1.812,0.25l3.625,0.312l2.875,0.188l1.125-0.25l1.062-1.938l2.062-1.688l2.375-2.25l1.938-1.75l0.812-1.25l0.375-0.812
		l0.938-0.312l1.375,0.688l1.5,1.5l0.688,0.625l0.75,0.312l0.625,1.062l0.688,1.188l0.812,1.312l0.625,0.625l1.562,0.562
		l1.562-0.125l0.75-1.875l1-0.375l1.438-0.812l0.062-0.25l1.25-0.812l1.062-0.125h0.875l3.062,0.25l1.812-1.125l0.938-0.062
		l1.625,0.625l0.75,0.75l0.438,0.5l1.75,0.312l1.375,0.188l0.938,0.188l1.5,0.438c0,0,1.375,0.188,1.625,0.25s2.25-0.188,2.25-0.188
		l1.875-1l2.812-2.062l3.125-2.562l2.375-2.062l1.438-0.625l0.938-0.375l0.625-0.625h0.688l1.312,0.312l1,0.312l0.812,0.438
		l0.812-0.188l0.875-0.062L577.25,145l0.812,0.938l0.625,0.625l0.625,0.562L581,147.25l1.25-0.062l1-0.062l0.938-0.75l0.625-0.75
		l1.062-0.125h0.875l1.188,0.188l0.562,0.25l0.625,0.562l0.312,0.312l1.125-0.25l0.75-0.438l0.875,0.25l0.625,0.625l0.688,0.438
		l6.562,0.25l5.188,0.188l1.688-0.188l2.188-0.5l4.875-1.125l4.062-0.812l4.75-0.5l1.875-0.625l1.812-1.375l4.438-3.938l2.312-0.875
		l1.188-0.625l0.812-0.688l0.875-0.562l1.188,0.125l0.75,0.438l1.625,0.062l1.188,0.188l1.312,0.562c0,0,0.25,0.312,0.438,0.5
		s0.562,1.188,0.562,1.188l2.25-0.062l1.5-0.188l0.812-0.812l1.062-1.125L651,134.25l1-2.688l1.125-1.25l1.875-1.75l1.562-0.125
		l1.25-0.062l0.938,0.312l1.375,1.312l1.188,0.688l0.625,0.312l1.062,0.188l0.688-1.188l1-1l0.75-0.438l0.5,0.25l1.438,1
		l0.875,0.875L669.5,132l1.75,1.312l1.25,1.125l0.625,1.125l0.938,0.188L675,136l0.625,0.625l1,0.75l0.75,0.375l2.125,0.375
		l2.25,0.5l1-0.125l1.875-1.938l1.5-1l3.062-0.25l3.5,0.562l2.5,0.688l1.5,0.438l0.812,0.062l1.625-1.188l1.812-0.875l0.938-0.562
		l1.5-0.125l1.875,0.062l2.25,0.812l1.375,0.5l2.5,0.625l1.25-0.312l2.688-1.375l3.125-1.562l2.5-0.625l1.312-0.188l1-0.75
		l2.25-0.25l2.625,0.125l2.875,0.312l1.875,0.125l0.938,0.375l1.125,0.25l4.188-4.688l3.812-4.438l1.688-1.562l2.5-1.375
		l1.375-1.312l1.562-1.5l1.625-1.062l1.938-1l1.625-0.5l1.938-0.438l2.875-1.062l1.188-1l0.938-1.125l0.938-0.5l2.562-0.938l3.25-2
		l3.188-0.938l3.625-0.688l1.312-0.438l1.938-1.25l2.625-0.938l1.625-0.312h3.562l3.625,0.25l4.5,1.188l2.875,1.188l4.375,1.375
		l2,0.688l1.312,0.5l1.562-1l0.875-0.75h1.25l1.125,0.312l0.75,0.25l1.938-0.5l1.312-0.25l1.375-0.438l0.688-0.5l1.5,0.312
		l1.125,0.812l0.75,0.438l0.688,0.188l1.875-1.625l2.375-2l0.875-1.125l2.312-1.75l1.562-0.625h1.312l1.625-1.562l2.062-0.438
		l2-0.562l1.062-0.375l0.938-0.688L839,95.812l0.75-1.062l2.375-0.312l1.188,0.188L844.5,94l2-0.625l0.938-0.25l1.25-1.188
		l2.625-2.062L853,88.938l3.75-0.75l3.062-0.625l1.438-0.125l1.062-0.062l1.562-0.062l1.125-0.5l2.062-1.125l2.312-0.625
		l2.125-0.375l2.188-0.25l2.5-0.062h2.5l1.812,0.688l1.75,0.812l2.312,1.375l1.062,0.938l0.5,0.312l0.625-0.875l0.938-0.688
		l0.5-0.25H889l1,0.625l0.938-0.125l0.75-0.438h0.625l0.938,0.688l0.875,0.688l1.562,0.812l1.125,0.688L899,89.062l1.625-1.125
		l1.312-0.438h1.125l1.312,0.375l0.938-0.688l1.188-0.125c0,0,0.375,0.375,0.562,0.5c0.187,0.125,0.812,0.562,0.812,0.562
		l1.562,0.375l1.375-0.688l0.875-0.312l1.375,0.375l0.5,0.375l1.125-0.125h1.062l1.75-0.062l1.062,0.062l1.625,0.125l1.5,0.5
		l1.438,0.312l2.438,0.625l0.875,0.562l0.5,0.75l0.938,1.125l0.688,0.25l1.562-0.812l1.25-1.25l0.375-0.562
		c0,0,0.438-0.188,0.75-0.125s0.875,0,0.875,0l0.438-0.938l0.188-0.25l0.688-0.562l2-0.75l1.188,0.438l1,0.5l1.375,0.75l0.75,0.25
		l1.938-1.562l2.75-3.688l3.25-3.688l2.5-3.25l3.312-2.938l3.5-2.438l1.938-0.938l1.875-2l2.438-1.688l1.938-1.25l1.5-0.5"/>
</g>
<g id="land">
	<polygon fill="none" stroke="#FF0000" stroke-width="0.25" stroke-miterlimit="10" points="0,561.5 76.5,553.5 114,557.5 167,576 
		206.5,590.75 228,601 273,593 313.5,577.25 399.5,572 462,573 547.5,585 593.5,596.5 624.5,608.5 667,632.5 685,648 0,648 	"/>
	<path fill="none" stroke="#FF0000" stroke-width="0.25" stroke-miterlimit="10" d="M0.083,277.5L0,122l32.5,19.5L58,158l10.5,6.812
		h16H99l14,5.688l15.5,0.5l14-0.5l12.375,0.5h8.625l35-0.5l18.5-5.688l12-0.5L241,171l11,7.5l13,5.125l11,2.875l10-2.875L302,186
		l8,4l12-3.5l12.5-8.5l18-13.688H364h15.5l8.5-3.812l6.5-3.5l13.5,1l10,4h14.5l14.5-6.5l20-7.188h35l15.5-3.874l9.5-0.25L548.5,141
		l17-3H584l22.5,2.5l17-8.908H634l9-6.592l4-3h22.5l11,4.5l18,2.312L722,124.5l9.5-2.5l13-11.5L770,99l22.5-3.5H811l17-2l18.5-8
		l15.5-3l36-2.5h22.5H934l13-12.5l21-9.5l-0.061,173.5H883.5L873,230c0,0-0.5-9.5,1.5-9.5s7.5-9,7.5-9l-0.5-5.5h-10l-26,2.562
		L792,216.5h-45.5l-31.5,5l-20,5.5l-14,2c0,0-19,1-20.5,1.5S634,231,634,231l-45.5-2.5l-22-7L555,219l-18.5-1.5H512l-55.5,3l-29,1
		l-29.5,1l-17.5-2L361,215l0.5-6.438l-15-2.562l-44.5,2.812L307.5,219l5.5,6l-2.5,6.5l-5.5,5l-9,2.5l-15.5,2H268l-9,4
		c0,0,1,3.5,2.5,4s15,8.5,15,8.5l0.5,4.5l-9.5,2l-35.5,2l-53.5,4.5l-61,1l-59,1.5l-38,1L0.083,277.5z"/>
</g>
</svg>
