<?xml version="1.0" encoding="utf-8"?>
<!-- Generator: Adobe Illustrator 16.0.4, SVG Export Plug-In . SVG Version: 6.00 Build 0)  -->
<!DOCTYPE svg PUBLIC "-//W3C//DTD SVG 1.1//EN" "http://www.w3.org/Graphics/SVG/1.1/DTD/svg11.dtd">
<svg version="1.1" id="svg" xmlns="http://www.w3.org/2000/svg" xmlns:xlink="http://www.w3.org/1999/xlink" x="0px" y="0px"
	 width="929.281px" height="622.08px" viewBox="0 0 929.281 622.08" enable-background="new 0 0 929.281 622.08"
	 xml:space="preserve">
<image overflow="visible" enable-background="new    " width="3872" height="2592" id="image" xlink:href="AK03b_20080621_201611.JPG"  transform="matrix(0.24 0 0 0.24 0 0)">
</image>
<g id="gcp-peaks">
	<circle id="P5080" fill="#FF0000" cx="825.449" cy="24.1" r="0.25"/>
</g>
<g id="gcp">
	<circle id="theodolite" fill="#FF0000" cx="65.172" cy="548.266" r="0.25"/>
	<circle id="CCFG002" fill="#FF0000" cx="43.531" cy="571.078" r="0.25"/>
	<circle id="CCFG001" fill="#FF0000" cx="153.457" cy="594.584" r="0.25"/>
	<circle id="CCFG003" fill="#FF0000" cx="542.994" cy="563.375" r="0.25"/>
	<circle id="JNCSLDR" fill="#FF0000" cx="393.453" cy="145.781" r="0.25"/>
	<circle id="JUNCTURE-old" fill="#FF0000" cx="620.224" cy="68.273" r="0.25"/>
	<circle id="xcrack" fill="#FF0000" cx="318.625" cy="119.458" r="0.25"/>
</g>
<g id="horizon">
	<path fill="none" stroke="#FF0000" stroke-width="0.25" stroke-miterlimit="10" d="M0.083,60.834l2.833-1.167l2.167-0.083l3,0.25
		l2.167,0.167l2-0.167l1.083,0.083l1.167-0.333l1.333-0.333l1.75,0.5l1.583,0.833l1.333-0.333l1.25-0.583h2.083l2.083,0.333
		l1.417,0.5l2,0.833l0.917,0.75l1.833,0.75l1.667,0.25l2.417,0.5l1.167,0.083L41.25,64l0.583-0.083l0.833-1l0.583-0.833l0.75-1.25
		l2.75-0.667l0.5-1.5l1.833-1.167l1-0.167l0.583-0.917v-1.667l0.75-1.333l1.917,0.083l1.75,1l2.5,2.417l2.083,3.167l0.583,1.083
		l0.833,0.583l2.333,0.833L65,62.917l0.917-1.083l1.333-0.583l1-1.083l0.833-0.833c0,0,0.25-0.167,0.583-0.167
		s1.667,0.167,1.667,0.167l1.833,0.25l2.083-0.167l2-0.333l0.833-0.167l1.667,0.25l1.583,0.75l1.167,0.917l1.167,0.75L86,62.001
		l0.75,0.25l1.083,0.667l1.083,0.5l1.833,0.167l1-0.167l2.583-1.417l5.666-3.25l2.75-1.583l1.583-1.25l1.5-0.667l0.917-1.167
		l0.917-0.083c0,0,1.25,0.084,1.5,0.167s1.75,0.667,1.75,0.667l2.583,1l2.667,1.167l1.333,1.25l1.75,0.333l1.917-0.25l0.917-1
		l1.167-0.333l1.667,0.083l2.167,0.833l1.75,0.833l2.667,0.333l2.167,0.583l4.167,0.583l4.333,0.333L146,61.168l4.167-0.583
		l2.75-0.5l4.5-0.5l4.417-0.333l3.333-0.5l1.25-0.417l2.25-1.667l2.75-2.5l0.917-0.75l2-0.417l1.167-0.083l0.667-1.083l1.167-0.417
		c0,0,0.5,0,0.75,0.083s1.333,0.667,1.333,0.667l2.167,0.5l0.583,0.25l0.833,0.5l1.167,0.333l1.083,0.917l1,0.5l2.333,0.083l1-0.5
		l0.75-0.167l0.25-0.999l0.667-0.917l0.833-1.083l1.083-0.75l0.75-0.917l0.25-0.667l0.333-1"/>
	<path fill="none" stroke="#FF0000" stroke-width="0.25" stroke-miterlimit="10" d="M197.666,45.002l1.833,0.417l1.75,0.417l1.25,1
		l1.083,0.833l1.5,0.583l0.667-0.417l0.917-1.417l1-0.75h0.667l1.083,1.25l2.75,2.583l1.083,1.5l2.167,1.667l2.25,1.75l2.75,1.333
		l2.25,1.167l1.833,0.417h1.083l1.167-1.417l1-0.833l2.083-0.25h2.167l2.5,0.583l2.75,0.917l2.417,0.583l1.167,0.083l0.75-0.833
		l2.333-1.333l2.25-0.167l2.5,0.583l1.583,0.667l2.417,1l1.167,0.25l1.417-0.25l3-1.5l1.5-0.833l4.083-0.917l3.583-0.417
		l1.667,0.083l2.333,0.667l2.583,0.667l2.75,0.5l1-0.5l2.25-2.166l2.667-3l2.5-2.5l1.833-1.333l2-0.75l1.333-2.25l2.083-1.583
		l2.083-1.333l2-0.333h2.333l1.667-0.583l1.5-0.667l2.333-1.833l3.083-1.667l2.417-0.917l2.083-0.083l2.333-0.583l2.417-1.167
		l3.167-1l3.083,0.083l2.75,0.25l2.667,0.667l3.25,1.5l2.667,1.583l2.833,1.417l3.417,1.25l2.083,0.083l1.25-0.917l1.667-0.25h2.167
		l2.333-0.167c0,0,1.167,0,1.417,0.167s2.667,0.75,2.667,0.75l1.5,0.25l1.167-0.417l1.833-1.583l0.583-1.25l1.417-0.75l1.833-0.417
		l2.25-0.417l1.167-1.083l1-0.75l0.917-0.5l2.167-0.667l3.167-0.833l1.583-0.833l1.583-0.75l1.25-0.083l1.5-0.167l2.5-2l1.583-1.417
		l2.417-0.583l3.417-0.083l3.833-0.249l1.917-0.917l3-0.5l3.5-0.083l2.917,0.5l2.667,0.75l1.667,1.167l1.75,1.75l1.167,0.667
		l1.583-0.75l2.5,0.083l2.167,1.083l1.083,1.25l0.75,0.5l1.917-0.083l1.333-0.917l2.167-0.75l2.583,0.583l0.917,0.5l1.333,0.5
		l1.417-0.333l2.583,0.417l1.167,0.417l1.167,0.417l3,0.333l1.083,0.5l1.5,0.75l1.75,1.083l1.417,1.167l2.167,0.583l1.25-0.333
		l1.833-1.583l1.083-1.083l0.667-0.667l1.001,0.184l1.688,1.25l0.875,0.75l1.188-0.062l1-1.75l1.875-2.188l1.812-2.562l3.062-3.188
		l2.875-3.125l2.812-1.688l2.25-1.562l1.438-1.188l1.25-1l1.75-0.75L479,13.5l2.312,0.812l2.062,0.375l1.561-0.75l0.812-0.562
		c0,0,1.125-0.188,1.312-0.125s2.125,1.25,2.125,1.25l2.312,1.25l1.438,0.312L494,15.938l0.25-0.562l1.125-0.688l1.75-0.062
		l2.25-0.375l1.438,0.125"/>
	<path fill="none" stroke="#FF0000" stroke-width="0.25" stroke-miterlimit="10" d="M563.5,22.938L565.312,24l1.562,1.25L569,25.812
		l3,1l2.25,0.938l1.375,1.062l1.438,0.875l1.25,0.375h1.75h1.625l1.625,0.75c0,0,1.189,0.438,1.375,0.562
		c0.188,0.124,2,1.062,2,1.062l1.439,1.125l1.625,0.875l3.25-1l1.061-0.25l1.875,0.062l3,0.75l1.812,0.5l1.562,0.438l1.5-0.25
		l1.438-1.25l1.125-1.062l1.625-0.75l1.312-0.688l1.25-0.625l1.5-0.875l1.938-0.5l1.688-0.188l1.875,0.062L619,29.25l1.375-0.938
		l1.938-1.062l1.312-0.625l1.75-0.5l1.375-0.188L627.812,26"/>
	<path fill="none" stroke="#FF0000" stroke-width="0.25" stroke-miterlimit="10" d="M643.312,27.5l3.375,1.062l4,1.188l3.875,0.812
		l2.625,0.188l2.5,0.062h2.5l2.75,0.562L667,31.812h3.5h3.5l3.5-0.125l2.188-0.25l1.439-0.625l1-0.125l1.688-0.938l1.562-0.688H687
		l2.062,0.188l1.188,0.125l2.562-0.812l1.75-0.812l1.625-0.562l0.875-0.312l1.188-0.188l2.188,0.562l2.5,1.25l1.689,0.562
		l1.438,1.375l1.312,1.688l0.688,1.25l1.188,1.438l0.875,1.062l2.188,2l3.062,3.25L716.5,42l1.875,0.438l1.438,0.375l1.625,0.812
		l1.25,0.625l2,0.312l2.189,0.688l0.875,0.312L730,46.75l1,0.688l2.625,1.312l1.625,1.188l2.438,1L738,51.125l2.25,1.375
		l1.312,1.125l2.062,0.875l1.625,0.75l0.688,0.625l1.688-1.188L749,54.25l2-0.375l1.5-0.5l1.688-0.438L755,52.375l1.312-0.812
		L757.25,51l1.625-0.125l1.688-0.75l2.312-1.25l1.875-0.812l1.625-0.625l1.188-0.125L769.187,46l1.375-0.625l1.75-1.062l2.625-1.188
		l1.375-0.375l1-0.312l0.75,0.312l0.625,0.938L780.062,45l1.812,2l2.625,2.062l3.5,2.125l0.688-0.125c0,0,0.75,0.188,0.938,0.25
		s0.875,0.438,0.875,0.438l0.875,0.188h1.688l0.75-0.125l0.875,0.625l0.439,0.812l0.188,0.312l1.562-1.812l1.875-1.5l1.438-1.438
		l1-1.25l0.875-1.188l1.625-1.5l2.25-3.25l2.438-2.688L810.312,36l0.875-1.812l1.75-1.875l2.312-1.188l1.311-1.062l1.062-0.688
		l1-1.062l1.5-0.875l1.938-1.5l1.189-0.875l1.125-1l0.5-0.312l0.572,0.1l1.178,0.712c0,0,0.375,0.625,0.438,0.812
		s0.312,0.812,0.312,0.812l0.875,0.688l2.438-0.062l4.812,0.312l1.375,0.062l1-0.188l1.625,0.188l1.75,0.688l1,0.188l0.561,0.438
		l1.5,0.25l2.312,0.25l3.438,0.125l4.062-0.625l2.625-0.5l2.25-0.625l1.75-1.125l1.312-0.688l0.812-0.25l0.938,0.188l0.875,0.562
		l0.625,0.312l1.438,0.438l0.75,0.25L868,27.5c0,0,0.312,0.5,0.375,0.688s1.312,0.125,1.312,0.125l1-0.375h0.688l0.562,0.625
		l0.625,0.562l1.25,1.062L874.375,31l1.188,1.062l0.689,0.312l1.311-0.438l0.939,0.188l1.25,0.125l1.375-0.5l0.811-0.375l1-1
		l1.312-0.562l0.875-0.188l1.5,0.75l1.938,0.5L890,30.438l1.5,0.125l0.875,0.375c0,0,0.688,0.812,0.75,1.062s0.5,0.812,0.562,1
		s0.688,0.875,0.688,0.875L895.25,35l1.375,2.125L897.687,38L899,38.438l1.438,0.812l2.375,1.625l1.75,0.875l1.25,1l1.125,0.5
		l0.812,0.188l1.812,0.875l0.562,0.562l1.125,0.812l0.561,0.062l0.75,0.75l0.625,1.375l0.875,1l1.375,1.188l0.812,0.562l1.188,1
		L918.125,53l0.812,1.438l0.875,1.375l0.625,0.812l1.062,0.75l0.875,0.25l1.438,0.125l2.25-0.375l3.188-0.875"/>
</g>
<g id="land">
	<path fill="none" stroke="#FF0000" stroke-width="0.25" stroke-miterlimit="10" d="M0.083,136.04L0,57.335l29.14-1.209l11.25,1.209
		l5.75-4.295l6.5-1.75c0,0,4.75,1.25,5.5,1.75s7,3.085,7,3.085h15.25h14.25l7.5-3.335l3.25-1.5l12.25,3l15,1.835l26.25-2.585
		l16-5.289l17.25-3.461l10-2h9.5l5.5,4.25l9.25,3.25l11.25,1.75h16l10.75-1c0,0,11.75-2.578,12.5-2.789s6.75-6.961,6.75-6.961
		l8.25-7.25l14.75-5.103l17.25-3.397l9.5,3.397l14.25,1.103l12.5-4.5l13-5.5l17.25-2.25h24.25c0,0,17.75,1.75,18.5,2
		s12.5,3.148,12.5,3.148l14.75-5.148l12.5-6.5l21.25-2l39.5,3.586l22.5,3.914l17,4.25l11,3.75l11.516,3.25l6.984,0.897l17.834-5.999
		l13.666-1.898l16.5,2.711c0,0,10.75,2.289,11.5,2.289s12,0.25,12,0.25l13.5-1.94l13-0.25l10.5,2.44c0,0,10.75,6.25,11.75,7.25
		s8.25,5.5,8.25,5.5l6.5,2.5l9.75,2l8.5,0.75c0,0,7.5-3.829,8.25-3.79s3.75-1.71,3.75-1.71l15.75,1.71l11.5,4.04l19.75-19l9-6
		l23,1.5l20.5-0.75l19.75,3.81l16.5,7.69l9,6.5l11.5,9l5.141,5.75v101.75l-70.891-2.5l-65,2.5h-80l-74.5,2l-54-2.5l-71.25,4.75h-30
		l-57.25-2.5l-25.5-0.5l-12-0.75l-0.25-3.25l6.25-3.75l22.25-13l14.5-6.5l-8-3.5l-13.75,3l-35.5,5l-41,2.75l-23.5,1.75l-26.75,0.75
		l-16.25,4.25l-8.25,4.25l-13.5,4l-24,2h-16.75l-31.25-3.75l-26.5-3.759l-24.5-3.741l-18.25-1.5l-4-2.75l-2.599-3.5l-5.151-1.75
		l-20.75-0.75l-44.25,0.25L0.083,136.04z"/>
	<polygon fill="none" stroke="#FF0000" stroke-width="0.25" stroke-miterlimit="10" points="0,523.207 46.807,517.207 
		121.14,517.207 198.807,532.54 286.14,561.207 347.807,576.874 402.807,583.874 440.14,596.874 495.14,579.54 574.14,568.874 
		622.807,573.54 719.473,582.874 739.807,584.54 792.14,575.04 859.14,553.54 929.281,513.54 929.281,622.08 0,622.08 	"/>
</g>
</svg>
