<?xml version="1.0" encoding="utf-8"?>
<!-- Generator: Adobe Illustrator 16.0.4, SVG Export Plug-In . SVG Version: 6.00 Build 0)  -->
<!DOCTYPE svg PUBLIC "-//W3C//DTD SVG 1.1//EN" "http://www.w3.org/Graphics/SVG/1.1/DTD/svg11.dtd">
<svg version="1.1" id="svg" xmlns="http://www.w3.org/2000/svg" xmlns:xlink="http://www.w3.org/1999/xlink" x="0px" y="0px"
	 width="929.28px" height="622.08px" viewBox="0 0 929.28 622.08" enable-background="new 0 0 929.28 622.08" xml:space="preserve">
<image overflow="visible" width="3872" height="2592" xlink:href="AK03b_20090421_202200.JPG"  transform="matrix(0.24 0 0 0.24 0 0)">
</image>
<g id="land">
	<polygon fill="none" stroke="#FF0000" stroke-width="0.25" stroke-miterlimit="10" points="0,504 104,498.5 167.5,501.25 
		213.5,514 253.5,530.5 290,542 350.5,549 389,558 414.5,567.5 436.5,574 461.5,571 503.5,561.5 578.5,547.5 646,543.5 716,540.5 
		801,540 830,542 879.5,523.5 919.5,504.5 929.28,498.5 929.28,622.08 0,622.08 	"/>
	<path fill="none" stroke="#FF0000" stroke-width="0.25" stroke-miterlimit="10" d="M0,118V30.5L23,33l15-5.5h26h24.5h45h23L176,21
		l10-3h28.5l18.5,5.5l29.5-2l18-8.5L314,4.5l36,3L363.5,0H713l25,13l20.5,2L779,9.5l22.5-6l8-3.5h94l25.78,26.5v109H798H661.5h-120
		h-94l-41.5-8l3-10l-10-7l-25,0.5l-83,1.5l-21,7l-14.5,12l-14,4l-30,3L148,130l-41-7l-4.5-8c0,0,0.5-3.5,1-6S90,105,90,105
		l-15.5,4.5l-46.5,5L0,118z"/>
</g>
</svg>
