<?xml version="1.0" encoding="utf-8"?>
<!-- Generator: Adobe Illustrator 16.0.4, SVG Export Plug-In . SVG Version: 6.00 Build 0)  -->
<!DOCTYPE svg PUBLIC "-//W3C//DTD SVG 1.1//EN" "http://www.w3.org/Graphics/SVG/1.1/DTD/svg11.dtd">
<svg version="1.1" id="svg" xmlns="http://www.w3.org/2000/svg" xmlns:xlink="http://www.w3.org/1999/xlink" x="0px" y="0px"
	 width="929.281px" height="622.08px" viewBox="0 0 929.281 622.08" enable-background="new 0 0 929.281 622.08"
	 xml:space="preserve">
<image overflow="visible" enable-background="new    " width="3872" height="2592" id="image" xlink:href="AK03b_20080811_191645.JPG"  transform="matrix(0.24 0 0 0.24 0 0)">
</image>
<g id="moraines-unused">
	<g id="moraine-01">
		<polyline fill="none" stroke="#FF0000" stroke-width="0.25" stroke-miterlimit="10" points="445.833,239.167 458.719,238.391 
			481.292,238.391 518.359,237.555 551.802,236.161 574.933,235.604 598.623,235.046 632.343,232.817 662.722,231.423 
			692.263,231.702 730.722,231.145 755.804,231.145 784.23,231.981 806.527,230.587 837.74,230.309 		"/>
	</g>
</g>
<g id="gcp-peaks">
	<circle id="P5080" fill="#FF0000" cx="824.855" cy="25.577" r="0.25"/>
</g>
<g id="gcp">
	<circle id="theodolite" fill="#FF0000" cx="64.429" cy="548.738" r="0.25"/>
	<circle id="CCFG002" fill="#FF0000" cx="42.333" cy="572.541" r="0.25"/>
	<circle id="CCFG001" fill="#FF0000" cx="152.383" cy="595.704" r="0.25"/>
	<circle id="JNCSLDR" fill="#FF0000" cx="392.169" cy="147.008" r="0.25"/>
	<circle id="JUNCTURE-old" fill="#FF0000" cx="620.396" cy="70.241" r="0.25"/>
	<circle id="T20080811-04" fill="#FF0000" cx="560.326" cy="101.872" r="0.25"/>
	<circle id="T20080811-05" fill="#FF0000" cx="598.732" cy="102.763" r="0.25"/>
	<circle id="xcrack" fill="#FF0000" cx="318.312" cy="120.312" r="0.25"/>
	<circle id="bullseye" fill="#FF0000" cx="229.5" cy="110.25" r="0.25"/>
	<circle id="clubarm" fill="#FF0000" cx="217.312" cy="109" r="0.25"/>
	<circle id="T20080811-06" fill="#FF0000" cx="331.438" cy="108.188" r="0.25"/>
	<circle id="T20080811-07" fill="#FF0000" cx="365.292" cy="121" r="0.25"/>
	<circle id="pinch" fill="#FF0000" cx="514.251" cy="116.917" r="0.25"/>
	<circle id="jawlip" fill="#FF0000" cx="626.75" cy="133.312" r="0.25"/>
	<circle id="alcove" fill="#FF0000" cx="689.25" cy="130.75" r="0.25"/>
	<circle id="butt" fill="#FF0000" cx="811.937" cy="144.562" r="0.25"/>
	<circle id="portaledge" fill="#FF0000" cx="909.656" cy="129.594" r="0.25"/>
	<circle id="screepit" fill="#FF0000" cx="927.083" cy="87.333" r="0.25"/>
	<circle id="T20080811-08" fill="#FF0000" cx="848.687" cy="75.5" r="0.25"/>
	<circle id="T20080811-09" fill="#FF0000" cx="752.437" cy="84.125" r="0.25"/>
</g>
<g id="horizon">
	<path fill="none" stroke="#FF0000" stroke-width="0.25" stroke-miterlimit="10" d="M0.183,61.174l3.13-0.412l0.989-0.33h1.895
		l1.73,0.33h3.212h1.4l1.977,0.165l2.471-0.247l1.483,0.33l1.647-0.165l1.565-0.576l1.977,0.082l1.895,0.247l1.071,0.412l2.06,1.4
		l1.235,0.824l1.4,0.577l2.059,0.247l2.389,0.247l4.201,0.33l1.4-0.165l1.565-1.565l1.071-1.4l3.542-2.142l1.482-1.318l1.236-0.824
		l0.741-1.071l0.741-1.318l1.73-0.165l1.812,0.824l1.73,1.73l0.988,1.235l0.989,1.483l0.988,1.482l0.824,1.236l0.494,0.577h1.071
		l1.73,0.165l1.235-0.906l1.236-0.165l0.741-0.659l1.236-0.906l0.906-0.577H71.6h2.142l2.553-0.33c0,0,1.07-0.577,1.318-0.494
		c0.248,0.083,2.307,0.824,2.307,0.824l2.059,1.4l2.142,0.988l2.306,0.247l1.647,0.659l1.318,0.494l1.73-0.165l1.565-0.412
		l2.224-1.071l3.46-2.224l1.647-0.906l1.4-0.494l1.318-0.741l0.577-1.236l1.318-0.659l1.153,0.247l0.412-1.153l1.895-0.33
		l1.977,0.659l2.636,0.988l1.895,0.412l1.318,0.659l1.565,1.153l1.647,0.412h1.483l1.235-0.577l0.494-0.33l1.483-0.083l2.389,0.165
		l1.236,0.659l2.306,0.495h1.236l0.659,0.412l0.577,0.412l6.014,0.824l6.343,0.494l3.048,0.33l3.212-0.742l3.789-0.659l4.036-0.577
		l3.542-0.083l2.224-0.33l1.895-0.659l1.318-1.071l3.625-2.883l1.977-1.071l1.565-0.494l1.565-0.989h1.4l1.318,0.412l2.636,0.741
		l1.565,0.412l1.071,0.824l0.742,0.741h3.459l2.389-2.059l1.895-2.307l1.4-1.812l0.412-1.236l1.153-1.4l1.318-0.659l1.729-0.165
		l1.977,0.906l1.153,0.659l1.482,0.824l0.659,0.494l1.071,0.33l0.988-1.565l1.318-1.071l1.153,0.33l0.906,1.153l0.824,1.071
		l1.565,1.318l0.495,0.988l1.647,1.565l1.318,1.482l3.459,1.483l3.459,1.895l2.307,0.659l1.483-0.659l1.071-1.483l0.906-0.577
		l2.142-0.165l2.389,0.083l3.212,0.741l4.119,1.483l1.977-0.824l0.988-1.071l1.73-0.412h2.142l1.73,0.741l2.059,1.153l3.212,0.659
		l2.224,0.247l1.153-1.565l2.389-1.318l2.142-0.494h2.554l1.318-0.577l1.236-0.082l5.437,0.412l1.977,0.494l1.977,0.577l0.824,0.165
		l0.989-0.495l3.459-4.283l0.989-0.906l0.659-0.741l1.812-2.142l1.318-0.659l1.812-0.659l0.906-0.577l1.153-1.565l0.906-1.236
		l2.06-0.824l0.824-0.577l2.389-0.33l1.812-0.082l1.483-0.247l0.659-0.495l1.236-1.235l2.718-1.4l1.647-0.824l2.883-1.235
		l1.73-0.412l3.048-0.659l3.048-0.823l1.812-1.318l2.142-0.577l1.236-0.082l3.377,0.824l4.448,1.318l3.625,1.729l2.965,1.565
		l2.389,0.824l2.06,0.741l1.565,0.165l1.895-0.577l1.977-0.083h2.224l1.977-0.083l2.06,0.083l1.153,0.494l1.071,0.659l1.647,0.082
		l1.647-1.482l1.565-2.307l0.741-0.741l1.812-0.577l3.212-1.071l1.236-0.906l2.059-1.153l1.895-0.33l1.4-0.494l0.412-0.906h1.565
		l1.483-0.659c0,0,0.329-0.576,0.576-0.494c0.247,0.082,1.071,0.082,1.071,0.082l1.153,0.33l1.73-0.988l1.895-1.73l1.4-1.153
		l1.73-0.659h3.542l3.624-0.248l1.73-0.082l0.988-1.153l2.883-0.33h3.542l3.296,0.33l1.812,0.741l1.812,1.153l2.307,1.4l0.906,1.153
		l0.658,0.082l0.495-0.659l0.988-0.083l0.659,0.33l0.659-0.33l1.152-0.165l0.741,0.33l1.483,1.895l0.74,0.494l2.802,0.165
		l1.399-0.906l0.741-0.577l1.236-0.083l2.883,0.741l1.318,0.742l1.07,0.247l2.143-0.412l0.987,0.083l1.896,0.906l0.989,0.33h2.306
		l1.236,0.247l1.399,0.577l1.565,1.071l1.399,1.071l1.318,1.236l1.565-0.247l1.729-0.577l0.906-0.906l0.741-0.247l0.74-0.906
		l0.659-0.329c0,0,0.658,0.494,0.906,0.494s1.483,0.906,1.483,0.906l1.317,0.906l1.647-2.059l4.447-5.602l2.225-2.965l3.789-3.459
		l2.637-1.483l2.307-1.153l0.658-1.235l1.73-0.741l0.986-0.989l1.896-0.082l1.895,0.741l3.131,1.318l1.564-0.741l1.152-0.824
		l1.234,0.494l2.555,1.318l3.295,0.824l1.812-0.824l1.729-0.824l1.895-0.33l2.061,0.247l1.318,0.742l1.152,0.659h1.318l1.398-0.659
		l0.66-0.577l1.564-0.083l1.646,0.494l1.152,0.33l1.318,1.153l1.729,1.318l3.789,0.988l2.885,0.495l1.562,0.577l1.566,0.494
		l1.482-0.33l1.729,0.412l1.73,1.236l2.965-0.247l1.729-0.083l1.154-0.083l1.152,0.412l1.07,0.494l1.234-0.741l1.979,0.247
		c0,0,1.152,0.494,1.4,0.577c0.246,0.083,2.717,0.659,2.717,0.659l1.73-0.741l1.316-0.083l2.143,0.412l0.988,1.235l2.143,0.165
		l2.637-0.165l1.4-0.247l1.316-0.659l0.824-0.494l2.059-0.248l2.637,0.659l1.482,1.153l1.564,0.988l3.213,0.824l2.637,1.153
		l2.883,1.4l2.143,1.235l1.4,0.906l2.883,0.083l1.482,0.412l2.801,0.906l2.059,1.153l0.164,0.906l0.578,0.659l1.729,0.165
		l1.564-0.247l2.307-0.494l2.555-0.083l2.059,0.412l1.896,0.577l1.564,0.412l0.74-0.247l3.049-1.565l3.459-2.471l3.707-1.4
		l2.801-0.412l2.143,0.576h0.988l3.705-1.977l1.73-1.071l2.225-0.165l2.307,0.165l1.234,0.659l2.061,0.494l1.729-0.082l3.627,0.247
		l2.471-0.33l1.646-0.247l1.318,0.083c0,0,0.986,0.659,1.316,0.824s2.473,0.741,2.473,0.741l3.377,0.906l1.729,0.577l3.213,0.495
		l3.707,0.082l2.803,0.33l2.553,0.247l1.482,0.165l1.646,0.659l3.789-0.083l4.119-0.247l3.789-0.412l3.047-0.577l2.143-0.741
		l1.895-0.906l1.73-0.083l1.316,0.33h1.07l2.719-1.235l2.555-1.153l1.811-0.494h1.73l1.318,0.988l2.635,1.153l2.061,1.071
		l1.564,1.235l2.801,3.46l3.377,3.707l2.883,2.554l1.648,1.4l2.143,0.412l1.398,0.659l1.979,1.318l2.389,0.824l2.061,0.247
		l1.729,0.412l1.234,0.906l1.648,1.071l3.707,2.06l4.529,1.895l2.225,1.565l1.152,0.741l1.812,1.153l1.236,0.247l1.316-1.153h2.309
		l1.811-0.659l1.482-0.494l1.234-0.577l1.4-0.659l0.742-0.824h1.811l1.564-0.741l2.967-1.647l2.307-0.988l1.564-0.577l0.742-0.577
		l1.15-0.906l1.648-0.659l1.236-0.33l0.986-1.071l1.896-0.659l1.48-0.083l0.66-0.165h0.906l0.988,0.906l1.564,1.895l1.152,1.071
		l2.389,2.059l2.061,1.318l2.801,1.153l2.801,0.659l1.646-0.412l0.906,0.412l0.658,0.659l1.07,0.083l1.73-1.071l1.895-1.071
		l1.234-1.4l0.906-2.224l1.73-1.153L804.687,44l2.189-2.812l1.561-1.812l0.5-0.812l0.75-0.875l0.75-1.562l0.5-0.875l1.25-1.062
		l2.189-1.5l2.125-1.75l2.438-1.625l1.75-1.438l1.75-1l1.438-1.375l0.562-0.5L825,25.125l1,0.438l0.75,0.625l0.312,1.062
		l1.062,1.125L830.437,28l2.189,0.312l2.125,0.5l1.75-0.375l1.25-0.188l2.561,0.625l1.5,0.562L843.125,30L844,30.062l0.75,0.188
		c0,0,1.062,0.25,1.25,0.375s1.312,0.188,1.312,0.188H849l3.562-0.75l1.562-0.438l2.061-0.438l1.439-0.375l1.438-0.562l0.812-0.438
		l1.311-0.625l0.625-0.25l0.689-0.062l1.061,0.375l1.312,0.688L865.937,28l0.75,0.5l0.75,0.562l1.062,0.5l1.812,0.25l0.75,0.188
		l1.062,1.125l0.625,0.625l1.688,0.812c0,0,0.125,0.25,0.375,0.375s0.625,0.75,0.625,0.75l1,0.062l0.75-0.625L878.062,33
		l1.125,0.312l1.125-0.062l0.938-0.562L883.5,32l0.562-0.438l0.688-0.062h0.938l0.375,0.25l1.062,0.375L888.062,32l0.812-0.125
		L890.062,32l1.125,0.562l0.938,0.938l0.812,0.875l1.375,1.312l0.625,0.875l0.875,1.312l0.812,1.25l2.5,1l2.311,1.5l1.939,1.25
		l1.061,0.625l2,1.688l1.125,0.375l1.812,0.75l1.5,0.625l1.25,0.938l0.438,0.875l0.625,1.188l1.939,1.938l1.25,1.125L917,53.375
		L917.687,54c0,0,0.189,0.312,0.375,0.812c0.188,0.5,0.625,1.375,0.625,1.375l0.939,1.438l1.688,1.25l1.25,0.812l1-0.062l1.25-1
		l0.75,0.25l1.625-0.125l0.812-0.5l0.25-0.062l1.029,0.125"/>
</g>
<g id="terminus">
	<polyline fill="none" stroke="#FF0000" stroke-width="0.25" stroke-miterlimit="10" points="-0.011,206.31 13.127,206.439 
		22.753,206.439 35.63,206.439 	"/>
	<polyline fill="none" stroke="#FF0000" stroke-width="0.25" stroke-miterlimit="10" points="167.662,205.269 174.816,204.749 
		182.231,204.358 189.385,204.488 197.32,204.749 205.515,205.529 213.58,206.31 223.856,206.7 233.742,207.09 242.068,206.96 
		254.425,206.7 268.344,206.83 	"/>
	<polyline fill="none" stroke="#FF0000" stroke-width="0.25" stroke-miterlimit="10" points="309.839,208.131 320.375,208.131 
		330.912,208.911 340.147,209.692 	"/>
	<polyline fill="none" stroke="#FF0000" stroke-width="0.25" stroke-miterlimit="10" points="377.351,212.684 388.017,214.504 
		396.602,216.196 401.415,217.106 406.878,217.236 414.293,217.757 420.927,218.017 423.919,218.017 428.082,219.708 
		430.553,220.749 432.114,222.31 433.024,224.391 435.886,225.562 437.837,226.212 	"/>
</g>
<g id="moraines">
	<g id="moraine-02">
		<polyline fill="none" stroke="#FF0000" stroke-width="0.25" stroke-miterlimit="10" points="304,179.5 288.25,175.75 
			273.75,171.25 260.5,167 251,165 		"/>
	</g>
	<g id="moraine-07">
		<polyline fill="none" stroke="#FF0000" stroke-width="0.25" stroke-miterlimit="10" points="377.167,168.167 366.333,167 
			356,165.167 349.5,164.167 342.667,162.667 337.167,161.167 332.667,160.333 330.167,159 330.167,157.667 332,156.667 
			335.667,155.833 338.333,155.167 343,153 348.167,151.333 353.333,149.667 359,148.333 367.333,146 376.167,143.167 
			380.667,141.833 384.167,140 387.667,139.167 392.333,138.5 397.5,138 		"/>
	</g>
</g>
</svg>
