<?xml version="1.0" encoding="utf-8"?>
<!-- Generator: Adobe Illustrator 16.0.4, SVG Export Plug-In . SVG Version: 6.00 Build 0)  -->
<!DOCTYPE svg PUBLIC "-//W3C//DTD SVG 1.1//EN" "http://www.w3.org/Graphics/SVG/1.1/DTD/svg11.dtd">
<svg version="1.1" id="svg" xmlns="http://www.w3.org/2000/svg" xmlns:xlink="http://www.w3.org/1999/xlink" x="0px" y="0px"
	 width="695.04px" height="466.559px" viewBox="0 0 695.04 466.559" enable-background="new 0 0 695.04 466.559"
	 xml:space="preserve">
<image overflow="visible" enable-background="new    " width="2896" height="1944" id="image" xlink:href="AK09b_20100602_200818.JPG"  transform="matrix(0.24 0 0 0.24 0 4.882812e-04)">
</image>
<g id="horizon">
	<path fill="none" stroke="#FF0000" stroke-width="0.25" stroke-miterlimit="10" d="M0.035,28.167l1.34-0.536h1.004l1.407-0.067
		l0.871-0.335l0.871-0.737l0.938-0.201h0.737l1.339,0.469l0.737,0.669l1.339,0.804l1.139,0.334l1.139,0.067l0.402-0.067l0.536,0.201
		l0.871,0.603l1.406,0.938c0,0,1.406,0.803,1.607,1.004c0.201,0.201,0.871,1.139,0.871,1.139l1.206-0.603l1.004-0.335l0.737,0.067
		l0.536,0.268l1.004-0.134l0.804-0.402l1.273-0.402l0.938,0.268l0.938,0.536l0.469,0.201l0.536-0.268l0.402-0.268l0.871-0.067
		l1.139,1.005l2.076,1.809L34.13,35.6l1.004,1.206l1.607,0.804l1.875,1.071l2.076,1.474l3.349,1.875l1.942,0.871l1.339,0.804
		l1.139,0.737l0.737,1.139l1.541,2.009l1.541,0.871l1.407,2.144l1.741,1.474l1.875,0.938l1.339,0.201l0.536-0.268l0.804,0.067
		l0.603-0.268l0.737-0.335h0.67c0,0,0.871,0.201,1.072,0.335s1.607,0.67,1.607,0.67l1.206,0.871l1.942,0.871l1.406,1.339
		l0.804,0.938l1.742-1.272l2.21-1.339l2.21-0.536l3.684-0.134l2.947-0.201l2.143-0.067h1.541l2.88,0.402l3.148,0.804l3.081,0.67
		l3.617,1.072l2.478,1.206l2.277,1.072l1.339,0.536l0.536,0.335l0.871,0.067l1.339-1.271l1.541-1.407l0.804-1.072l0.536-1.004
		l1.072-0.067l2.21,0.804l1.607,0.804l1.272,0.603c0,0,0.269,0.268,0.469,0.402c0.2,0.134,0.736,0.535,0.938,0.736
		s0.603,0.603,0.603,0.603l1.875,0.402l0.938,0.134l0.669,0.268h1.273c0,0,0.67,0.134,0.871,0.268
		c0.201,0.134,0.871,0.603,0.871,0.603l1.742,1.206l0.669,0.335h0.871l1.139-0.938l0.938-0.67l1.541-0.737l0.737-0.268l2.143,0.067
		h0.804l2.612-1.34l0.938-0.402l0.871-0.268l1.541-0.067l1.004,0.268l0.871-0.201l0.469-0.536l0.938-0.067l0.871-0.536l0.268-0.469
		c0,0,0.134-0.536,0.402-0.603c0.268-0.067,2.143-0.402,2.143-0.402l2.01-0.402l1.272-0.67h1.474h1.473l0.737,0.603l0.469,0.604
		l0.603,0.335c0,0,1.071,0.201,1.272,0.335c0.201,0.134,1.474,0.536,1.474,0.536l0.603-0.335l0.871,0.134l0.536,0.268l1.139-0.201
		l1.139-0.469l0.603-0.201h1.206l1.206,0.067l1.139,0.268l0.938,0.134l0.603-0.134c0,0,0.134-0.067,0.402,0
		c0.268,0.067,1.004,0.201,1.004,0.201h1.34l1.474-0.402l0.469-0.335l1.139-0.134l0.804-0.334l1.005,0.201l2.277,0.67l1.407,0.469
		l0.804,0.335l1.072,0.067l1.474,0.067l1.406-1.406l0.938-1.206l0.603-0.938l0.536-1.004l1.005-0.335l0.67-1.273l0.47-1.139
		l0.201-1.004l0.938-0.335c0,0,1.005-0.201,1.206-0.134c0.201,0.067,1.139,0.134,1.139,0.134s0.938,0.603,1.272,0.804
		c0.334,0.201,1.607,0.938,1.607,0.938l2.545,0.871l2.545,0.938l1.875,0.804l0.603,0.603c0,0,0.938,0.066,1.139,0.201
		c0.201,0.135,1.474,0.067,1.474,0.067s0.938-0.268,1.206-0.201c0.268,0.067,1.139-0.737,1.139-0.737l1.34-0.402l1.339-0.335
		l1.741,0.335l1.34,0.335l0.871-0.804l0.804-0.268l2.813-0.335l2.479,0.067l1.809,0.268l1.607,0.871l2.277,1.875l3.081,1.607
		l3.282,1.942l2.679,1.675l3.416,2.009l1.139,0.469l1.607-0.067l1.674,0.268c0,0,0.736,0.268,0.938,0.402
		c0.202,0.134,0.603,0.335,0.603,0.335l1.474,0.201l1.474-0.134l0.669-0.603l1.742-0.402l2.411-0.603l2.143-0.334l1.608-0.335
		l1.071-0.134h2.277l1.541,0.134l2.88-0.469c0,0,1.272-0.201,1.474-0.134c0.202,0.067,1.139,0.402,1.139,0.402l1.407,0.134
		l1.875,0.201h0.669l0.871-0.67l1.34-0.871l0.804-0.469l1.741-0.134l1.206,0.67l1.071,1.34l2.077,1.206l1.071,0.603l0.67-0.603
		l1.742-2.077l1.942-2.612l1.272-1.541l1.139-0.938l0.67-0.804l0.871-0.871l0.669-0.804l0.871-0.737l1.473-1.072l1.742-0.402
		l1.407,0.067l1.272,0.736l1.139,1.139l1.406,1.675l1.34,1.473l0.669,0.871l1.407,0.201l2.277-0.067l0.938,0.603l0.603,0.804
		l1.272,1.942l0.938,1.138c0,0,1.339,0,1.54,0.067c0.201,0.067,1.139,0.268,1.139,0.268l0.67,1.541l0.536,0.737l0.804-0.804
		l1.473-0.469l1.072-0.402l1.809-0.201l0.536-0.402l0.804-0.201l2.144-0.134l1.674-0.402l0.67-0.469l1.741,0.067l1.875,0.201
		l1.809,0.536l1.875,0.335l0.938,0.67l1.139,0.737l0.871,0.669l1.741-0.134h1.875l1.875,0.67l2.813,1.072l2.21,1.272l1.474,0.268
		l1.606,0.736l1.006,0.402l1.941,0.201l1.139,0.536l0.805,0.067h1.809h3.014l2.277,0.402l1.607,0.536l1.139,0.469l2.88,1.474
		l2.011,1.206l3.549,2.076l1.006,0.268l1.271,0.134l1.875,0.469l2.077,0.469c0,0,0.804,0.067,1.004,0.201
		c0.201,0.134,0.938,0.402,0.938,0.402l2.143,1.139l2.076,1.407l1.34,1.071l1.005,0.335l1.675,0.603l1.34-0.268l0.871-1.072
		l1.809-0.737l1.07-0.736l1.541-1.675l1.34-1.541"/>
	<path fill="none" stroke="#FF0000" stroke-width="0.25" stroke-miterlimit="10" d="M419.926,74.181l1.809-1.139l1.271-0.536
		l1.34-0.201l0.938-0.402l0.938-0.603l0.871-0.268c0,0,0.135-0.134,0.402-0.201c0.266-0.067,0.938,0.134,0.938,0.134l1.205,1.072
		l0.402,0.804l0.803,0.402l0.939,0.268l0.334,0.669l1.34,0.737l2.211-0.201l1.205-1.072l1.674-0.737l1.742-0.938l1.541-0.67
		l0.469-0.402l1.072-1.005l1.338-0.268h1.809l0.805,0.334l1.34,0.335l1.541,0.067l0.871,0.134l0.871,0.536l1.004,0.603
		c0,0,0.066,0.268,0.199,0.469c0.135,0.201,0.336,0.938,0.336,0.938l0.67,0.268h1.34l0.604,0.134l0.871,0.469l1.137-0.402
		l1.541-0.335c0,0,0.939,0,1.141,0s1.07-0.737,1.07-0.737l0.27-0.469l0.803-0.67l1.607-0.067l1.271,0.335
		c0,0,0.27,0.134,0.471,0.402c0.199,0.268,0.334,0.604,0.334,0.604l1.607-0.469l0.67,0.067l0.736,0.67c0,0,0.402,0.268,0.67,0.603
		s0.268,0.335,0.268,0.335l1.006,0.402l0.602,0.268l0.402,0.603l0.402,0.134l0.535,0.335l0.803-1.072l1.141-1.339l0.469-1.005
		l0.535-0.469c0,0,0.604-0.335,0.805-0.402s0.736-0.134,0.736-0.134l1.072,0.536c0,0,0.736,0.469,0.803,0.67
		c0.066,0.201,0.4,0.871,0.4,0.871s0.27,0.402,0.471,0.469s0.871,0.134,0.871,0.134"/>
	<path fill="none" stroke="#FF0000" stroke-width="0.25" stroke-miterlimit="10" d="M484.961,71.368l0.939,0.603l0.67,0.737
		l1.473-0.134l0.604-0.67l0.67-0.536l1.139-0.469l0.871-0.134l1.541,0.201h1.941l2.076-0.67l2.947-0.268l1.875-0.134l1.34-0.402
		l1.34-0.402l0.604-0.603l0.604-0.603l0.535-0.335l0.736,0.067l0.537,0.201l1.539-0.67l1.207-1.206l0.869-0.536l0.871-0.737
		l1.539-0.335l0.471-0.469l0.869-0.335l0.939,0.067l1.004,1.005l1.943,2.009l0.736,0.804l1.139,1.474l0.938,1.406l1.006,1.139
		l1.271,0.804l0.738,0.737l0.602,0.67l0.871,1.474l1.004,1.541l0.605,0.737l1.203,0.871l4.02,2.545l0.938,0.603l1.207-0.737
		l1.34-1.139l1.34-1.072l0.871-0.804l0.734-0.871l1.141-1.005l1.139-0.736l1.271-0.603l1.34-0.335h2.611l1.811,0.335l1.34,0.402
		c0,0,0.668,0.134,0.869,0.268c0.201,0.134,0.805,0.603,1.072,0.871c0.268,0.268,1.004,0.804,1.004,0.804h2.746l1.541-0.201
		l1.006-0.804l1.473-1.875l1.34-1.541l0.803-1.072l0.537-0.603l1.205-0.804l1.34-0.268l1.809,0.067l2.145,0.536l0.604,0.067
		l1.205,0.871l1.34,0.469l1.541,0.402l1.74,0.134l2.01,0.134l1.072-0.469l1.605-0.268c0,0,1.006,0,1.207-0.067
		c0.199-0.067,0.668-0.536,0.668-0.536s1.006-0.268,1.207-0.268s1.004-0.201,1.004-0.201h1.674l1.342-1.34l1.139,0.134l1.473,1.139
		l1.141,0.804L592,72.037l1.205,1.072c0,0,0.736,1.205,0.938,1.473c0.203,0.268,0.604,0.604,0.805,0.871s0.938,1.272,1.139,1.406
		c0.201,0.134,1.34,0.938,1.34,0.938l0.871-0.804l1.742-0.938l0.803-0.134c0,0,0.871,0.134,1.141,0.335
		c0.268,0.201,1.004,0.201,1.004,0.201h0.871c0,0,0.402,0.067,0.938,0.402s2.209,1.474,2.209,1.474l1.541,1.005l1.271,0.268
		l1.207-0.737l1.605-0.804c0,0,0.672-0.603,0.871-0.737c0.201-0.134,0.67-0.87,0.871-1.004c0.201-0.134,2.812-1.407,2.812-1.407
		l2.076-0.469l3.35-0.335l1.205-0.402h0.805c0,0,1.674,0.871,1.941,1.005c0.268,0.134,1.139,0.469,1.139,0.469l1.541,0.536
		l2.344,0.938l1.475,0.402l1.273-0.268l1.807-1.005l2.277-0.736l0.938-0.335l2.412-0.469l1.607-0.268l1.74-0.268"/>
	<polyline fill="none" stroke="#FF0000" stroke-width="0.25" stroke-miterlimit="10" points="662.325,73.244 664.2,72.507 
		665.338,71.301 667.213,70.029 668.487,69.627 669.959,69.56 671.567,69.426 673.979,69.158 675.786,68.89 677.393,68.086 
		678.6,67.015 679.739,66.546 681.211,66.68 682.686,67.082 684.159,67.617 685.499,68.421 687.04,69.359 688.313,69.493 
		689.786,69.426 691.793,69.225 693.469,69.225 	"/>
</g>
<g id="terminus">
	<polyline fill="none" stroke="#FF0000" stroke-width="0.25" stroke-miterlimit="10" points="-0.003,182.474 12.199,181.344 
		22.593,179.988 37.958,178.858 54.679,178.068 66.542,177.503 79.309,176.034 84.393,175.13 	"/>
	<polyline fill="none" stroke="#FF0000" stroke-width="0.25" stroke-miterlimit="10" points="211.384,163.268 222.569,162.703 
		234.319,162.477 243.019,162.025 253.752,161.234 259.401,160.669 	"/>
</g>
<g id="gcp">
	<circle id="portaledge" fill="#FF0000" cx="48.568" cy="107.389" r="0.25"/>
	<circle id="jawlip2" fill="#FF0000" cx="84.875" cy="110.333" r="0.25"/>
	<circle id="ledgedot" fill="#FF0000" cx="123.708" cy="92" r="0.25"/>
	<circle id="kissers" fill="#FF0000" cx="254.206" cy="109.209" r="0.25"/>
	<circle id="rustcut" fill="#FF0000" cx="321.868" cy="101.083" r="0.25"/>
	<circle id="brokens" fill="#FF0000" cx="316.285" cy="100.292" r="0.25"/>
	<circle id="dragonduct" fill="#FF0000" cx="405.534" cy="101.875" r="0.25"/>
</g>
<g id="land">
	<polygon fill="none" stroke="#FF0000" stroke-width="0.25" stroke-miterlimit="10" points="284.524,466.559 293.24,427.807 
		316.535,404.871 388.653,362.669 413.882,351.202 457.46,342.027 529.02,329.183 557.919,324.137 572.139,320.926 611.589,289.275 
		665.259,259.917 690.947,251.202 695.04,251.202 695.041,466.56 	"/>
	<path fill="none" stroke="#FF0000" stroke-width="0.25" stroke-miterlimit="10" d="M0.035,135.28v-116l21.735,4.5l20.425,6.5
		l12.575,9l7.25,5.25l12.75,2.5l12.5,1.75l19.25,1.75l32,0.75h24.25l14.75-2.5l10-5.25l8.25-0.5h8.25l18.5,2.75l23,5.25l20,2.424
		l14-2.174l9.5-5.75l5.5-0.75l11.5,1.75l10.015,2.5l17.735,6.75l32.75,7.749l14.5,6.095h10.25l18-1.594l40-2.75h25.75l14-0.25
		l10.75-1.501l11-2.749l7-0.75l9.5,1.5l10,0.75l13.5,4.266l22.25-2.016l12.5-1.001l24,3.017h18l27-1.016l17-2.001l23.52-3.749v40.25
		l-15.52-3.75l-10.25-2.25l-5.5-2l-22.75-3.75l-13.5-0.25l-11.5,2.25l-9.75,3l-9.25,2.75h-11.25l-14.25-1l-9.5,0.75l-5.75,2.75
		l-6.25,2l-17.5,1.595h-32.5l-27.5-2.595l-24.25-3.5l-3.75-1.25l-1.75-2.25l-1-3.25l-2.25-3.5l-5.5-3.25l-10.75,0.25l-10.75,0.25
		l-5.25,1.25l-4.5,3.75l12.25,6.5l8.75,0.5l12.25,4.75l8.25,6l-2.5,1.5l-14.25,1l-36.75,2.5h-27l-32.25,4.5l-24.25,2.75h-16.75
		h-10.5l-13,2.75l-23.5,2.5l-9.5,1.25l-3.5-3.75c0,0-3.75-5.5-3.75-6.25s-2-8.75-2-8.75l1.75-3.905l10.25-5.845l6.75-3.78l1.25-1.72
		l-1.75-2.5h-5.75l-9.75,1.25l-31.75,6.75l-19.75,4.512l-10.75,1.333l-8,0.25l-4.25,1.405l3.75,5.429l7,6.321l5.5,7.5l-2.25,4.25
		l-10.75,1.5l-20.5,1.75l-9.5,0.75l-31-1.25l-39.5,2.25l-19.5,1.5l-21.5,0.5L0.035,135.28z"/>
</g>
</svg>
