<?xml version="1.0" encoding="utf-8"?>
<!-- Generator: Adobe Illustrator 16.0.4, SVG Export Plug-In . SVG Version: 6.00 Build 0)  -->
<!DOCTYPE svg PUBLIC "-//W3C//DTD SVG 1.1//EN" "http://www.w3.org/Graphics/SVG/1.1/DTD/svg11.dtd">
<svg version="1.1" id="svg" xmlns="http://www.w3.org/2000/svg" xmlns:xlink="http://www.w3.org/1999/xlink" x="0px" y="0px"
	 width="929.281px" height="622.08px" viewBox="0 0 929.281 622.08" enable-background="new 0 0 929.281 622.08"
	 xml:space="preserve">
<image overflow="visible" enable-background="new    " width="3872" height="2592" xlink:href="AK09b_20100101_195948.JPG"  transform="matrix(0.24 0 0 0.24 0 0)">
</image>
<g id="land">
	<polygon fill="none" stroke="#FF0000" stroke-width="0.25" stroke-miterlimit="10" points="380.386,622.078 392.039,568.181 
		423.188,536.283 519.613,477.589 553.347,461.639 611.617,448.879 707.296,431.016 745.937,423.996 764.949,419.53 
		817.699,375.512 889.46,334.679 923.806,322.558 929.279,322.558 929.281,622.08 	"/>
	<path fill="none" stroke="#FF0000" stroke-width="0.25" stroke-miterlimit="10" d="M0,179.334V18l29.062,6.259l27.31,9.04
		l16.814,12.518l9.693,7.301l17.047,3.478l16.714,2.434l25.739,2.434l42.787,1.043h32.424l19.722-3.477l13.371-7.302l11.031-0.695
		h11.032l24.735,3.825l30.753,7.301l26.742,3.371l18.72-3.023l12.702-7.997l7.354-1.043l15.377,2.434l13.391,3.478l23.714,9.387
		l43.788,10.778l19.389,8.478h13.705l24.066-2.218l53.482-3.824h34.43l18.719-0.348l14.375-2.087l14.707-3.823l9.359-1.043
		l12.703,2.086l13.371,1.043l18.051,5.933l29.75-2.804l16.713-1.392l32.092,4.196H839l36.102-1.413l22.729-2.783l31.449-5.214
		v55.979l-20.75-5.215l-13.705-3.129l-7.355-2.782l-30.418-5.215L839,113.622l-15.377,3.128l-13.035,4.173l-12.369,3.824h-15.041
		l-19.055-1.39l-12.701,1.043l-7.688,3.825l-8.357,2.781l-23.398,2.219h-43.455l-36.771-3.61l-32.424-4.868l-5.016-1.738
		l-2.338-3.129l-1.338-4.52l-3.008-4.869l-7.355-4.52l-14.373,0.348l-14.375,0.348l-7.02,1.738l-6.016,5.216l16.379,9.04
		l11.699,0.696l16.379,6.606l11.029,8.345l-3.342,2.086l-19.053,1.391l-49.139,3.477h-36.102l-43.121,6.259l-32.424,3.825h-22.396
		h-14.04l-17.382,3.825l-31.421,3.477l-12.702,1.739l-4.68-5.215c0,0-5.014-7.649-5.014-8.692s-2.674-12.17-2.674-12.17l2.339-5.431
		l13.705-8.13l9.026-5.257l1.671-2.392l-2.34-3.477h-7.688l-13.037,1.738l-42.453,9.387l-26.407,6.276l-14.374,1.854l-10.697,0.348
		l-5.683,1.954l5.015,7.551l9.359,8.791l7.354,10.431l-3.008,5.911l-14.374,2.085l-27.411,2.434l-12.702,1.043l-41.449-1.739
		l-52.815,3.129l-26.07,2.084l-28.748,0.695L0,179.334z"/>
</g>
<g id="horizon">
	<polyline fill="none" stroke="#FF0000" stroke-width="0.25" stroke-miterlimit="10" points="0.052,29.343 4.242,28.382 
		7.821,27.771 11.313,26.549 12.012,25.763 14.02,25.763 15.678,27.16 18.996,28.819 21.266,29.081 22.051,28.557 24.059,29.779 
		24.757,30.565 27.464,32.747 28.599,34.231 29.297,33.533 30.694,32.922 32.789,33.533 34.186,32.922 35.321,31.961 37.503,31.7 
		39.773,33.009 40.559,33.708 42.13,32.834 42.566,32.834 44.487,33.969 50.162,39.208 53.304,41.303 60.986,46.191 65.962,48.548 
		67.272,49.683 69.716,52.215 73.121,55.445 76.089,59.111 79.232,61.12 81.938,61.818 84.121,61.73 87.001,60.857 89.446,61.818 
		90.93,63.214 93.636,64.262 95.993,66.27 97.652,68.104 98.874,67.667 	"/>
	<path fill="none" stroke="#FF0000" stroke-width="0.25" stroke-miterlimit="10" d="M111.794,64.087l7.159-0.698l3.928,0.262
		l4.714,1.397l3.143,0.524l4.976,1.31l5.063,2.444l4.19,2.531l2.095-1.135l0.96-0.698l1.659-2.095l1.397-1.397l1.746-0.611
		l2.444,0.087l1.659,0.96l1.31,1.048l2.008,0.437c0,0,1.048,0.785,1.222,1.047s1.396,1.571,1.396,1.571h2.095l2.008,0.524
		l0.96-0.087l1.222,0.087l3.23,1.659l2.27,1.659l2.794-1.92l5.412-1.659l1.833,0.087l1.833-1.223l1.921-0.873l3.143-0.611
		l2.532,0.175l1.92-0.96h1.746l1.048,0.087l1.309-1.659l1.222-0.698l2.008-0.262l1.484-0.611l1.484-0.611l1.921-0.087l2.793,0.349
		l1.571,1.397c0,0,1.309,0.611,1.571,0.698s3.841,0.437,3.841,0.437l2.008,0.175h1.31l1.397-1.048l2.27,0.087l2.532,0.175
		l0.611,0.437l0.873,0.437l0.262-0.786l1.571-0.087l1.222,0.698h2.619l3.055-1.222l3.317,0.349l3.841,1.31l3.928,1.571l2.444-2.095
		l2.183-2.008l1.659-2.27l1.047-1.659l1.222-1.571l0.96-1.921l0.698-0.698l2.008-0.611l2.444,0.699l3.317,1.833l2.706,1.746
		l1.397,0.262l2.008,0.262l2.619,1.396c0,0,0.96,0.786,1.222,0.96s2.968,0.786,2.968,0.786l3.492-1.222l1.659-0.873l1.746-0.087
		l2.619,0.611l2.357-0.262l0.699-0.96l1.746-0.611l1.921,0.087l1.396,0.349l0.699-0.349c0,0,0.873-0.087,1.396,0
		s2.444,0.611,2.444,0.611l3.23,1.484l2.445,1.659l5.15,3.143l7.42,4.453l5.238,2.706l3.58,0.786l5.849,1.135l2.707-0.698
		l3.055-0.96l3.58-0.698l3.841-0.611h2.445h2.968l3.405-0.087l1.659-0.611l2.793,0.175l2.008,0.437l3.23,0.349l1.222-0.437
		l1.571-1.571l1.222-0.786l1.484-0.349l2.619,1.484l2.357,1.659l2.357,1.659l1.135,0.349l4.714-5.937l3.143-3.23l3.667-2.881
		l0.175-0.96l2.532-2.008l1.135-0.786l2.532-0.523l1.746,0.087l2.27,2.095l4.016,4.54l1.746,1.31l2.619-0.437l1.484,0.175
		l1.222,1.31l0.873,1.571l0.698,0.96l1.135,2.182l0.524,1.048l1.921-0.786l1.309,0.262l0.873,0.524l0.873,1.396l0.96,0.524
		l1.484-0.175c0,0,0.873-0.523,1.135-0.611s1.572-0.349,1.572-0.349l2.793-0.786l1.396-0.873l1.222-0.087l2.183,0.087l0.96-0.262
		l0.437-0.873l0.611-0.262l1.833,0.437l3.317,1.048l1.396-0.873l0.786,0.611l1.921,1.048l2.531,0.698c0,0,0.611,1.047,0.873,1.222
		s3.056,1.135,3.056,1.135l1.31-0.523l2.357,0.523l3.579,0.611l3.929,1.833l2.357,0.96l1.484,0.611l3.754,1.047l4.364,0.96
		l2.881,0.437l2.444,0.174l3.58,0.437l3.229,0.698l4.277,2.095l6.983,4.277l4.016,1.659l3.405,0.349l5.237,1.921l3.579,2.532
		l2.183,1.571l3.056,0.873l2.531,0.437l1.746-0.087c0,0,2.096-1.833,2.357-1.833s2.095-1.92,2.095-1.92l1.659-2.183l1.658-1.484
		l0.873-0.611l2.881-2.881l1.484-0.873l1.135,0.436l0.961,1.397l1.745,0.873l6.723,2.095l5.325,1.746h1.658l1.048-0.611l1.921,0.087
		l1.571,0.349l2.793-0.786l3.842-2.968l2.531-0.262l2.444-1.135l2.008-0.96L575,88.793l1.31,0.786l1.397,1.92l1.135,1.048
		c0,0,1.659,1.222,2.183,1.222s1.396,0,1.396,0l5.587-1.659l3.143-1.31l3.405-2.008l1.571-1.222l2.357-0.437l2.008,0.96l2.27,0.699
		h1.223l2.444,0.087l1.658,1.222l0.262,1.135l1.572,0.96l2.182,0.611l2.271,0.087l2.27-0.873l2.881-0.786c0,0,0.698-0.96,1.135-0.96
		s0.96-0.087,0.96-0.087l2.444,0.262l4.104,0.349l1.31,0.437l0.96,0.96l0.437,0.873l0.437,0.087l1.135,0.175l0.961,0.698
		l0.785,0.873l0.698,0.087l1.746-0.699l2.968-3.753l1.31-0.611h1.746l2.096,1.92l1.222,0.699c0,0,0.263-0.437,0.524-0.611
		s1.047-0.524,1.047-0.524l2.532-1.222l1.571-0.611c0,0,0.698-0.262,0.873,0.174s0.523,1.572,0.523,1.572l0.873,0.349l2.706-1.833
		l1.921-0.262l1.658,0.349l3.23-0.175l1.659-1.047h3.143l4.364-0.175l3.58-0.873l1.135-1.484l1.921-1.222h1.222l0.262,0.873
		l1.571-0.611l2.357-2.531l3.056-1.921l2.881-1.222l0.96-0.174l1.31,0.873l2.27,2.531l1.31,1.746c0,0,1.658,1.746,1.833,2.008
		s1.136,2.27,1.136,2.27l2.793,1.833l2.27,2.532l1.31,2.183l2.183,3.23"/>
	<polyline fill="none" stroke="#FF0000" stroke-width="0.25" stroke-miterlimit="10" points="721.4,99.531 724.107,96.824 
		727.598,94.642 	"/>
	<polyline fill="none" stroke="#FF0000" stroke-width="0.25" stroke-miterlimit="10" points="748.114,97.348 751.344,92.983 
		753.526,90.189 755.447,88.618 756.843,88.444 	"/>
	<path fill="none" stroke="#FF0000" stroke-width="0.25" stroke-miterlimit="10" d="M817.428,101.975l5.063-3.492l3.841-2.357
		c0,0,0.785-0.611,1.135-0.611s2.27-0.349,2.27-0.349l5.588-1.047l2.27,0.174l5.325,2.357l3.404,1.222l2.619,0.786l2.096-0.437
		l1.571-0.262l2.356-0.699l2.532-1.571l1.571-0.524l2.008-0.523c0,0,1.135-0.262,1.396-0.262s1.921-0.087,1.921-0.087l4.103,0.786
		l3.492,0.349l4.977-1.572l1.047-0.786l1.135,0.087l1.223,0.349l0.785,0.611l3.056,0.437l5.063-0.873l2.881-2.008l2.183-1.921
		l3.754-0.523l2.881,0.087l2.183-0.35c0,0,1.745-0.873,2.095-0.873s3.841-1.658,3.841-1.658l2.794-0.96h1.571l1.921,0.873
		l2.968,1.31l2.532,0.786l2.356,0.262l2.183,0.698l2.096,0.087"/>
</g>
</svg>
