<?xml version="1.0" encoding="utf-8"?>
<!-- Generator: Adobe Illustrator 16.0.4, SVG Export Plug-In . SVG Version: 6.00 Build 0)  -->
<!DOCTYPE svg PUBLIC "-//W3C//DTD SVG 1.1//EN" "http://www.w3.org/Graphics/SVG/1.1/DTD/svg11.dtd">
<svg version="1.1" id="svg" xmlns="http://www.w3.org/2000/svg" xmlns:xlink="http://www.w3.org/1999/xlink" x="0px" y="0px"
	 width="695.04px" height="466.56px" viewBox="0 0 695.04 466.56" enable-background="new 0 0 695.04 466.56" xml:space="preserve">
<image overflow="visible" width="2896" height="1944" id="image" xlink:href="AK09b_20100602_200818.JPG"  transform="matrix(0.24 0 0 0.24 0 0)">
</image>
<g id="horizon">
	<path fill="none" stroke="#FF0000" stroke-width="0.25" stroke-miterlimit="10" d="M0.035,28.167l1.34-0.536h1.004l1.407-0.067
		l0.871-0.335l0.871-0.737l0.938-0.201h0.737l1.339,0.469l0.737,0.669l1.339,0.804l1.139,0.334l1.139,0.067l0.402-0.067l0.536,0.201
		l0.871,0.603l1.406,0.938c0,0,1.406,0.803,1.607,1.004s0.871,1.139,0.871,1.139l1.206-0.603l1.004-0.335l0.737,0.067l0.536,0.268
		l1.004-0.134l0.804-0.402l1.273-0.402l0.938,0.268l0.938,0.536l0.469,0.201l0.536-0.268l0.402-0.268l0.871-0.067l1.139,1.005
		l2.076,1.809l1.608,1.473l1.004,1.206l1.607,0.804l1.875,1.071l2.076,1.474l3.349,1.875l1.942,0.871l1.339,0.804l1.139,0.737
		l0.737,1.139l1.541,2.009l1.541,0.871l1.407,2.144l1.741,1.474l1.875,0.938l1.339,0.201l0.536-0.268l0.804,0.067l0.603-0.268
		l0.737-0.335h0.67c0,0,0.871,0.201,1.072,0.335s1.607,0.67,1.607,0.67l1.206,0.871l1.942,0.871l1.406,1.339l0.804,0.938
		l1.742-1.272l2.21-1.339l2.21-0.536l3.684-0.134l2.947-0.201l2.143-0.067h1.541l2.88,0.402l3.148,0.804l3.081,0.67l3.617,1.072
		l2.478,1.206l2.277,1.072l1.339,0.536l0.536,0.335l0.871,0.067l1.339-1.272l1.541-1.407l0.804-1.072l0.536-1.004l1.072-0.067
		l2.21,0.804l1.607,0.804l1.272,0.603c0,0,0.269,0.268,0.469,0.402s0.736,0.535,0.938,0.736s0.603,0.603,0.603,0.603l1.875,0.402
		l0.938,0.134l0.669,0.268h1.273c0,0,0.67,0.134,0.871,0.268s0.871,0.603,0.871,0.603l1.742,1.206l0.669,0.335h0.871l1.139-0.938
		l0.938-0.67l1.541-0.737l0.737-0.268l2.143,0.067h0.804l2.612-1.34l0.938-0.402l0.871-0.268l1.541-0.067l1.004,0.268l0.871-0.201
		l0.469-0.536l0.938-0.067l0.871-0.536l0.268-0.469c0,0,0.134-0.536,0.402-0.603s2.143-0.402,2.143-0.402l2.01-0.402l1.272-0.67
		h1.474h1.473l0.737,0.603l0.469,0.603l0.603,0.335c0,0,1.071,0.201,1.272,0.335s1.474,0.536,1.474,0.536l0.603-0.335l0.871,0.134
		l0.536,0.268l1.139-0.201l1.139-0.469l0.603-0.201h1.206l1.206,0.067l1.139,0.268l0.938,0.134l0.603-0.134c0,0,0.134-0.067,0.402,0
		s1.004,0.201,1.004,0.201h1.34l1.474-0.402l0.469-0.335l1.139-0.134l0.804-0.334l1.005,0.201l2.277,0.67l1.407,0.469l0.804,0.335
		l1.072,0.067l1.474,0.067l1.406-1.406l0.938-1.206l0.603-0.938l0.536-1.004l1.005-0.335l0.67-1.273l0.47-1.139l0.201-1.004
		l0.938-0.335c0,0,1.005-0.201,1.206-0.134s1.139,0.134,1.139,0.134s0.938,0.603,1.272,0.804s1.607,0.938,1.607,0.938l2.545,0.871
		l2.545,0.938l1.875,0.804l0.603,0.603c0,0,0.938,0.066,1.139,0.201s1.474,0.067,1.474,0.067s0.938-0.268,1.206-0.201
		s1.139-0.737,1.139-0.737l1.34-0.402l1.339-0.335l1.741,0.335l1.34,0.335l0.871-0.804l0.804-0.268l2.813-0.335l2.479,0.067
		l1.809,0.268l1.607,0.871l2.277,1.875l3.081,1.607l3.282,1.942l2.679,1.675l3.416,2.009l1.139,0.469l1.607-0.067l1.674,0.268
		c0,0,0.736,0.268,0.938,0.402s0.603,0.335,0.603,0.335l1.474,0.201l1.474-0.134l0.669-0.603l1.742-0.402l2.411-0.603l2.143-0.334
		l1.608-0.335l1.071-0.134h2.277l1.541,0.134l2.88-0.469c0,0,1.272-0.201,1.474-0.134s1.139,0.402,1.139,0.402l1.407,0.134
		l1.875,0.201h0.669l0.871-0.67l1.34-0.871l0.804-0.469l1.741-0.134l1.206,0.67l1.071,1.34l2.077,1.206l1.071,0.603l0.67-0.603
		l1.742-2.077l1.942-2.612l1.272-1.541l1.139-0.938l0.67-0.804l0.871-0.871l0.669-0.804l0.871-0.737l1.473-1.072l1.742-0.402
		l1.407,0.067l1.272,0.736l1.139,1.139l1.406,1.675l1.34,1.473l0.669,0.871l1.407,0.201l2.277-0.067l0.938,0.603l0.603,0.804
		l1.272,1.942l0.938,1.138c0,0,1.339,0,1.54,0.067s1.139,0.268,1.139,0.268l0.67,1.541l0.536,0.737l0.804-0.804l1.473-0.469
		l1.072-0.402l1.809-0.201l0.536-0.402l0.804-0.201l2.144-0.134l1.674-0.402l0.67-0.469l1.741,0.067l1.875,0.201l1.809,0.536
		l1.875,0.335l0.938,0.67l1.139,0.737l0.871,0.669l1.741-0.134h1.875l1.875,0.67l2.813,1.072l2.21,1.272l1.474,0.268l1.607,0.736
		l1.005,0.402l1.942,0.201l1.139,0.536l0.804,0.067h1.809h3.014l2.277,0.402l1.607,0.536l1.139,0.469l2.88,1.474l2.01,1.206
		l3.55,2.076l1.005,0.268l1.272,0.134l1.875,0.469l2.077,0.469c0,0,0.803,0.067,1.004,0.201s0.938,0.402,0.938,0.402l2.143,1.139
		l2.076,1.407l1.34,1.071l1.005,0.335l1.675,0.603l1.339-0.268l0.871-1.072l1.809-0.737l1.071-0.736l1.541-1.675l1.339-1.541"/>
	<path fill="none" stroke="#FF0000" stroke-width="0.25" stroke-miterlimit="10" d="M419.926,74.181l1.808-1.139l1.272-0.536
		l1.34-0.201l0.938-0.402l0.938-0.603l0.87-0.268c0,0,0.135-0.134,0.402-0.201s0.938,0.134,0.938,0.134l1.205,1.072l0.402,0.804
		l0.804,0.402l0.938,0.268l0.335,0.669l1.34,0.737l2.21-0.201l1.206-1.072l1.674-0.737l1.742-0.938l1.54-0.67l0.469-0.402
		l1.072-1.005l1.339-0.268h1.809l0.804,0.334l1.34,0.335l1.54,0.067l0.871,0.134l0.871,0.536l1.004,0.603
		c0,0,0.067,0.268,0.201,0.469s0.335,0.938,0.335,0.938l0.67,0.268h1.34l0.603,0.134l0.871,0.469l1.138-0.402l1.541-0.335
		c0,0,0.938,0,1.139,0s1.071-0.737,1.071-0.737l0.269-0.469l0.804-0.67l1.607-0.067l1.272,0.335c0,0,0.268,0.134,0.469,0.402
		s0.335,0.603,0.335,0.603l1.607-0.469l0.67,0.067l0.736,0.67c0,0,0.402,0.268,0.67,0.603s0.268,0.335,0.268,0.335l1.005,0.402
		l0.603,0.268l0.402,0.603l0.402,0.134l0.535,0.335l0.804-1.072l1.139-1.339l0.469-1.005l0.536-0.469c0,0,0.603-0.335,0.804-0.402
		s0.736-0.134,0.736-0.134l1.072,0.536c0,0,0.737,0.469,0.804,0.67s0.401,0.871,0.401,0.871s0.268,0.402,0.469,0.469
		s0.871,0.134,0.871,0.134"/>
	<path fill="none" stroke="#FF0000" stroke-width="0.25" stroke-miterlimit="10" d="M484.962,71.368l0.938,0.603l0.67,0.737
		l1.474-0.134l0.603-0.67l0.67-0.536l1.139-0.469l0.871-0.134l1.54,0.201h1.942l2.077-0.67l2.946-0.268l1.876-0.134l1.339-0.402
		l1.34-0.402l0.603-0.603l0.604-0.603l0.535-0.335l0.737,0.067l0.536,0.201l1.54-0.67l1.206-1.206l0.87-0.536l0.871-0.737
		l1.54-0.335l0.469-0.469l0.871-0.335l0.938,0.067l1.005,1.005l1.942,2.009l0.737,0.804l1.139,1.474l0.938,1.406l1.005,1.139
		l1.272,0.804l0.737,0.737l0.603,0.67l0.87,1.474l1.005,1.541l0.604,0.737l1.205,0.871l4.019,2.545l0.938,0.603l1.206-0.737
		l1.34-1.139l1.339-1.072l0.871-0.804l0.736-0.871l1.139-1.005l1.139-0.736l1.272-0.603l1.34-0.335h2.612l1.809,0.335l1.34,0.402
		c0,0,0.669,0.134,0.87,0.268s0.805,0.603,1.072,0.871s1.004,0.804,1.004,0.804h2.746l1.541-0.201l1.005-0.804l1.474-1.875
		l1.339-1.541l0.804-1.072l0.536-0.603l1.206-0.804l1.339-0.268l1.809,0.067l2.144,0.536l0.603,0.067l1.206,0.871l1.339,0.469
		l1.541,0.402l1.741,0.134l2.01,0.134l1.071-0.469l1.607-0.268c0,0,1.006,0,1.206-0.067s0.669-0.536,0.669-0.536
		s1.005-0.268,1.206-0.268s1.005-0.201,1.005-0.201h1.674l1.34-1.34l1.139,0.134l1.474,1.139l1.139,0.804l1.272,0.804l1.206,1.072
		c0,0,0.736,1.205,0.938,1.473s0.603,0.604,0.804,0.871s0.938,1.272,1.139,1.406s1.34,0.938,1.34,0.938l0.871-0.804l1.741-0.938
		l0.804-0.134c0,0,0.871,0.134,1.139,0.335s1.005,0.201,1.005,0.201h0.87c0,0,0.403,0.067,0.938,0.402s2.21,1.474,2.21,1.474
		l1.54,1.005l1.272,0.268l1.206-0.737l1.607-0.804c0,0,0.671-0.603,0.871-0.737s0.669-0.87,0.87-1.004s2.813-1.407,2.813-1.407
		l2.076-0.469l3.349-0.335l1.206-0.402h0.804c0,0,1.675,0.871,1.942,1.005s1.139,0.469,1.139,0.469l1.54,0.536l2.345,0.938
		l1.474,0.402l1.273-0.268l1.808-1.005l2.277-0.736l0.938-0.335l2.411-0.469l1.607-0.268l1.741-0.268"/>
	<polyline fill="none" stroke="#FF0000" stroke-width="0.25" stroke-miterlimit="10" points="662.324,73.244 664.199,72.507 
		665.338,71.301 667.213,70.029 668.486,69.627 669.959,69.56 671.566,69.426 673.979,69.158 675.786,68.89 677.394,68.086 
		678.6,67.015 679.738,66.546 681.212,66.68 682.686,67.082 684.159,67.617 685.498,68.421 687.039,69.359 688.312,69.493 
		689.785,69.426 691.794,69.225 693.469,69.225 	"/>
</g>
<g id="terminus">
	<polyline fill="none" stroke="#FF0000" stroke-width="0.25" stroke-miterlimit="10" points="-0.003,182.474 12.199,181.344 
		22.593,179.988 37.958,178.858 54.679,178.068 66.542,177.503 79.309,176.034 84.393,175.13 	"/>
	<polyline fill="none" stroke="#FF0000" stroke-width="0.25" stroke-miterlimit="10" points="211.384,163.268 222.569,162.703 
		234.319,162.477 243.019,162.025 253.752,161.234 259.401,160.669 	"/>
</g>
<g id="gcp">
	<circle id="portaledge" fill="#FF0000" cx="48.568" cy="107.389" r="0.25"/>
	<circle id="jawlip2" fill="#FF0000" cx="84.875" cy="110.333" r="0.25"/>
	<circle id="ledgedot" fill="#FF0000" cx="123.708" cy="92" r="0.25"/>
	<circle id="kissers" fill="#FF0000" cx="254.206" cy="109.209" r="0.25"/>
	<circle id="rustcut" fill="#FF0000" cx="321.868" cy="101.083" r="0.25"/>
	<circle id="brokens" fill="#FF0000" cx="316.285" cy="100.292" r="0.25"/>
	<circle id="dragonduct" fill="#FF0000" cx="405.534" cy="101.875" r="0.25"/>
</g>
</svg>
