<?xml version="1.0" encoding="utf-8"?>
<!-- Generator: Adobe Illustrator 16.0.4, SVG Export Plug-In . SVG Version: 6.00 Build 0)  -->
<!DOCTYPE svg PUBLIC "-//W3C//DTD SVG 1.1//EN" "http://www.w3.org/Graphics/SVG/1.1/DTD/svg11.dtd">
<svg version="1.1" id="svg" xmlns="http://www.w3.org/2000/svg" xmlns:xlink="http://www.w3.org/1999/xlink" x="0px" y="0px"
	 width="929.281px" height="622.08px" viewBox="0 0 929.281 622.08" enable-background="new 0 0 929.281 622.08"
	 xml:space="preserve">
<image overflow="visible" enable-background="new    " width="3872" height="2592" xlink:href="AK09b_20091102_195909.JPG"  transform="matrix(0.24 0 0 0.24 0 0)">
</image>
<g id="land">
	<polygon fill="none" stroke="#FF0000" stroke-width="0.25" stroke-miterlimit="10" points="335.5,622.08 390,558 440.5,497.5 
		546.5,444.5 640.5,430 742,418 770,401.5 824,362.5 865.5,340.5 906.5,332.5 929.281,329.5 929.281,622.08 	"/>
	<polygon fill="none" stroke="#FF0000" stroke-width="0.25" stroke-miterlimit="10" points="0,144.667 0,0 46.334,0 94.668,29.667 
		110.334,32 132.168,35 155.667,34.333 172.667,36 183,38 199.667,36 215.667,35.667 236.333,38 248.333,37.667 256.667,31 
		262,28.667 281.333,30 297.333,31.667 318,35.667 338.333,44.333 358,46.667 375.333,44 387.333,37 402.333,33 419.333,39.333 
		440.333,48.667 472.667,54.667 491,61.667 521.667,66.333 536.667,67 547.667,67.667 581.666,68 617,67.333 644.666,68.333 
		665.333,68.333 689,62.333 709,62.667 722,70 738.333,72.333 753,72.333 766,72.333 799,73.667 822.666,77.333 841.333,79 
		870.333,79 896.333,77.333 915.666,72.333 929.281,69 929.281,122.667 902.333,121 892,117.333 886.666,115 884.333,112.333 
		879.666,108.333 871.666,106 854.333,103.667 838.666,104.667 837.333,109.333 836.333,112.333 819,113.667 789,113.667 
		759.333,111.667 752.333,113.333 752.333,115.667 743,119.333 715.333,119 673.666,115.667 649.666,115 638,113 633.666,106 
		629,102.667 619,101.333 607.333,101 601.666,99 598,96 592.666,94.333 580,92.667 556,91.333 551.333,92 547.666,95.667 
		555.333,101 574,105.333 596,116.333 598.333,120.333 582.666,122.333 563.333,124.333 544.333,125 518,124.667 477,125.333 
		427.333,128.667 394,130 359,131 334,134.333 323,132.333 318.333,126.333 312.666,123 307,119.333 303,109.667 307.333,105.333 
		316,102 324.333,96.667 323,92 317,89.667 302,91.333 270,95.667 251.666,99 246.333,103 237.333,105 219.666,105 210.333,104.667 
		207.333,107 213.666,115 226.666,124.333 233.333,133 228,137.333 211.333,139 164.333,136.333 135.666,136.333 91.332,138.333 
		52.666,137.333 13.666,139.667 	"/>
</g>
<g id="gcp">
	<circle id="wedge" fill="#FF0000" cx="190.878" cy="129.384" r="0.25"/>
	<circle id="nostril" fill="#FF0000" cx="331.724" cy="122.624" r="0.25"/>
	<circle id="brokens" fill="#FF0000" cx="429.578" cy="108.978" r="0.25"/>
</g>
<g id="horizon">
	<path fill="none" stroke="#FF0000" stroke-width="0.25" stroke-miterlimit="10" d="M25.557,0l3.583,3.042l1.167,1.5l1.167,1
		l1.167-0.833l1.333-0.417l1.083,0.667l1,0.417l1.417-0.083c0,0,0.75-0.75,1-0.917s1.083-0.583,1.083-0.583l1.583,0.25l2,1.5
		l0.917,0.583l0.917-1.25h0.75l1.833,0.333l0.25,1.167l2.333,1.833l3.25,3.25l1.333,1.333l4.583,2.833l5.167,3.333l3.75,2.083
		l2.583,1.417l1.25,1.5l3.417,3.75l3.5,4.583l3.417,2.833l2.417,0.667l0.75-0.583l1.083,0.333c0,0,0.583,0,0.833-0.167
		s2.083-1.167,2.083-1.167l2.25,0.75l1.167,0.917l2.917,2.167l3.333,1.667l1.5,1.75"/>
	<path fill="none" stroke="#FF0000" stroke-width="0.25" stroke-miterlimit="10" d="M114.64,38.125l5.917-0.833l5.333,0.583
		l5.583,1.583l5.333,1.333l5,2.333l4.833,2.417l2.583,0.667l1.917-1.667l3.833-3.417l1.583-0.667l1.75,0.25l1.583,0.917l3.25,1.833
		l2.667,1.583l0.583,1l1.167,0.333l1-0.083l1.25,0.583l0.5,0.5l1.417-0.833l1.917,0.667l2.5,1.583l2.333,1.5l1.917-1.417
		l5.417-1.667l3-0.167l2.917-1.333l2.5-1.333l2.667,0.25l1.75,0.333l1.333-0.333l0.833-0.75l1.667-0.75l1.75-0.833l3.083-0.583
		l3.25-0.833l1.667-0.75l2.083,0.583l1.75,1l1.583,1l1.917,0.75l2.833,0.5l2.083-0.083l2.333-0.833l1.75-0.167h2.583l1.25,0.583
		l1.333,0.25l0.667-0.75l1.167,0.083l1.25,0.5l1.583,0.167l1.083-0.5l1.833-0.417l2.917,0.25l2.667,1l3,1.083l2.833,0.833l2-0.667
		l1.917-1.667l1.583-3l1.083-1.833l2.083-2.167l0.917-1.25l0.417-0.917l1-0.5l3.083,0.167l2.583,1.417l2.917,1.583l3.083,1.25h1.833
		l1.417,0.75l1.5,1.583l2,1.083c0,0,1.333-0.083,1.667-0.083s2.25-0.333,2.25-0.333l1.5-0.833l1.833-0.167h3.667h1.833l1.667-1.25
		l3-0.167l1.25,0.333l1.083-0.417l2.417,0.167l2.333,0.333l3.167,2.167l3.25,2.333l4.5,2.417l4.833,2.833l4.5,3l2.5,1.583
		l3.25,0.333l3.083,1.25l2.667,0.667l3.75-0.833l4.083-1.333l5.25-0.417l4.833-0.25l3.667,0.333l1.667-0.333l2.417-0.333l2.833,0.5
		l4,1l3.583-2.833l1.583-1.083l1.583,0.667l1.75,1.167l1.5,1.833l2,1.833l1.917,0.833l6.25-7.333l5.167-5.667l4.083-2.917l2.5-0.917
		l2.25,0.5l2.083,2.167l4.5,5.083l2.25,1l2.583-0.167l0.917-0.083l1.333,1.25l0.833,2.75c0,0,1.833,2.167,2.083,2.25
		s2.167,0.667,2.167,0.667l2.083,0.667l1.417,1.583h1.5l3.583-1.083l1.833-0.417l2.917-0.417l1.917-0.167l0.917-0.75l1.833-0.583
		l1.917,0.25l1.5,0.5l3.25,0.583l1.583,0.417l2.5,1.083l1.833,1.5l1.5,0.917l2.583-0.5l3.417,0.667l2.667,1.083l3.583,1.667
		l2.75,1.667l1.333-0.083c0,0,0.916,0.333,1.25,0.5s1.5,0.833,1.5,0.833l4.584,1.167l4.166,0.333l6.166,0.583l3.5,1.5l4.5,2.333
		l5.5,3.917l5.583,1.75l4.667,1.083l6,2.917l1.5,1.417l3.833,2.333"/>
	<path fill="none" stroke="#FF0000" stroke-width="0.25" stroke-miterlimit="10" d="M537.887,76.791l2.75-2.667l1.25-0.917
		l0.917-0.083l0.75,0.583l0.833,0.917l0.667,0.75l3.666,1l4.417,1.833l4.25,1.333l1.417,0.25l1.833-0.5l2.333-0.083l1.334,0.333
		h1.916l0.917-0.083l2.667-2.167l1.833-1.167l1.75-0.417l1.917-0.083l1.583-0.167l0.917-0.917l1.75-0.917l0.5-0.083l1.75,0.667
		l1.416,1.583l1.417,1.833l1.333,0.667l3.084,0.417l3.333-1l2.5-1.25l1.917-1.25l3.417-1.25l2.5-1.667l1.917,0.167l1.083,0.75
		l2,0.583l2.833,0.167l1.917,0.5l0.5,0.917l0.75,1.417l1.417,0.833l2.5,0.5h3.083l3.25-0.833l1.833-0.75c0,0,1.167-0.75,1.417-0.667
		s1.75,0,1.75,0l1,0.083l0.833,0.667l0.167,0.833l1.083-0.25l1.084-0.417l1.335,0.167l1.25,0.917l0.166,1.667l0.667,0.417
		l0.833-0.333c0,0,0.5-0.167,0.75-0.167s1.084,1.417,1.084,1.417s0.333,0.417,0.583,0.417s1-0.333,1-0.333l1.25-0.667
		c0,0,0.751-0.917,0.917-1.167s1.333-1.917,1.333-1.917l0.917-0.5l1.666-0.917l1.917,0.333l0.75,1.333l0.583,0.833l1.834,0.5
		l1.333-1.167l2.583-0.333l1.167-0.167l1.583,0.5l1.5,0.333l2.167-0.917l1-1c0,0,0.334-0.417,0.667-0.417s1.666,0.167,1.916,0.167
		s2,0.667,2,0.667l2.5-0.583h3.417l4.25-0.833c0,0,2.667,0.083,2.917,0s2.083-1,2.083-1l0.583-1l0.667-0.5h1.417l1.167,0.917
		l1.25-0.583l2.333-2.333l3.084-2l2.5-1.333l1.583-0.333l0.833,0.417l2.167,3.25l1.5,0.917l1.083,1.083l1.917,3.417l1.25,2
		l1.667,0.25c0,0,0.332,0.333,0.666,0.667s2.584,3.083,2.584,3.083l1.833,3.5l3,3.333l3.75,3l2,0.667l3.502-2.667l7.333-6l1.75-1.25
		l2-0.333l3.417,0.667l3.083,1.25l3.5,1.083c0,0,2.417,1.417,2.75,1.5s2.167,0.25,2.167,0.25l2.416-0.917l3.5-4l3.084-3.5
		l2.416-1.583l1.5-0.083l2.417,0.5l3.25,1.083l4.583,1.75l2.167,0.833l2,0.25l2.667,0.083l2.416-0.167l2.334-1.667l1.416-0.417
		c0,0,1.583,0.25,2,0.25s2.334-0.333,2.334-0.333l0.666-0.5l0.75-0.833l1.5-0.333l2.167,2.25l2.167,1.75"/>
	<path fill="none" stroke="#FF0000" stroke-width="0.25" stroke-miterlimit="10" d="M807.725,89.208l4.167-2l3.25,1.167l3.083,1.083
		l2.083,1.083l1.084,0.75l1.083,1.167l1.25,0.167l4.167-2.333l4.083-2.833l2.667-1.5l2.75-0.333l3.25-0.167l2.5-0.417l2.083,1
		l2.583,1.333l2.5,0.667c0,0,1.5,0.667,1.75,0.833s2,1.5,2,1.5l1.25,0.417l3.418-1.667l5.167-1.917l3-1.083l5.666-0.167l4.25,0.583
		h3.417l2.167-0.75l1.666-0.833l1.25-0.167l2.334,1.167l3.25,0.75l4.166-0.5l3-1.333l1.917-1.75l1.333-1.25l3-0.083l3.584-0.25
		l3.166-0.583l2.084-0.083l2.083-0.833l1.584-1.833l1.667-0.333h2.083l1.833,1.083l3,1.417l1.834,0.75l2.054-0.083"/>
</g>
</svg>
