<?xml version="1.0" encoding="utf-8"?>
<!-- Generator: Adobe Illustrator 16.0.4, SVG Export Plug-In . SVG Version: 6.00 Build 0)  -->
<!DOCTYPE svg PUBLIC "-//W3C//DTD SVG 1.1//EN" "http://www.w3.org/Graphics/SVG/1.1/DTD/svg11.dtd">
<svg version="1.1" id="svg" xmlns="http://www.w3.org/2000/svg" xmlns:xlink="http://www.w3.org/1999/xlink" x="0px" y="0px"
	 width="695.04px" height="466.56px" viewBox="0 0 695.04 466.56" enable-background="new 0 0 695.04 466.56" xml:space="preserve">
<image overflow="visible" width="2896" height="1944" id="image" xlink:href="AK09b_20100525_200819.JPG"  transform="matrix(0.24 0 0 0.24 0 0)">
</image>
<g id="terminus">
	<polyline fill="none" stroke="#FF0000" stroke-width="0.25" stroke-miterlimit="10" points="29.125,180.97 38.31,180.146 
		46.553,179.439 56.916,178.262 70.93,176.613 81.292,175.789 91.42,174.375 99.545,173.434 104.167,172.667 108.333,172.417 
		110,172.417 113.25,171.917 117.083,171.417 121.5,170.75 125.333,170.5 132.417,169.583 	"/>
	<polyline fill="none" stroke="#FF0000" stroke-width="0.25" stroke-miterlimit="10" points="149.083,168.417 155.417,168 
		161.833,167.583 167,167.75 172.833,168.083 175.083,167.917 177.917,167.417 181.083,167.167 185.5,166.583 189.5,166.25 
		193.417,165.917 200.833,165.583 208.916,165 	"/>
</g>
<g id="horizon">
	<path fill="none" stroke="#FF0000" stroke-width="0.25" stroke-miterlimit="10" d="M0,27.75h2.417l1.417-0.417l1.5-0.5L6.167,26
		l0.667,0.083L8,26.75l2.5,1.083l1.417,0.5h1H14l0.5,0.5l0.833,0.833l0.75,0.75l1.167,0.5l0.583,0.583L19,31.833h0.75h2.083
		L23,31.75l0.917-0.583l0.75-0.417h1l0.833,0.667l0.667,0.25l0.75,0.083l0.333-0.667l1.083-0.167l0.5,0.417l0.833,1l1.583,1.5
		l2.167,2.25l1.25,1.25l2.75,1.25l2.5,1.833l1.75,0.833l1.583,1.083l1.667,0.833l1.75,1.167L49.25,46l1.583,1.417l2,1.667
		l1.917,2.167l1.083,1.083l1,0.667H58.5l1.75-0.25l1.083-0.417h1l1.5,0.417l1.583,0.917l2.167,1.5l2.25,2l1.417-0.833l3.083-1.25
		l3-0.417l4.583-0.417l4.5-0.5l3.5,0.833l4.667,0.917l2.583,0.667l2.583,0.917l3,1.5l2.917,1.167l2.166-1.5l2.083-1.333l0.583-1
		l0.583-0.5l1.167,0.167c0,0,0.333,0.166,0.833,0.333s3.833,1.667,3.833,1.667l1.25,1.083l1.167,0.667l1.583,0.25l1.083,0.25h1.417
		l1.583,0.5l1.5,1l1.333,0.833l0.75,0.083l1.583-1.25l2.667-1.167l1.833-0.417l1.25,0.167l0.917-0.167l1.417-0.833l1.083-0.75
		l0.833-0.333h1.25l1.667,0.083h1L144.916,57l0.917-0.167l0.917-0.333l1.417-0.917l3.167-0.667l1.833-0.417l1.083-0.083l1.333,0.167
		l1.417,0.75l0.917,0.583l2.167,0.417l1,0.167h1.25l0.75-0.417l0.75-0.25h1.667h1.333l1.083,0.083l1,0.333L169.5,56h1.333h0.917
		h1.917l1.833-0.417l0.75-0.25l1.25,0.333l2.75,0.833l2.333,0.583l1.417,0.083l1.583-1L186.416,55l0.583-1.083l0.5-1l0.833-1.083
		l1.083-0.667l0.75-1.25L190.499,49l0.833-0.917h1.5l1.583,0.5l1.75,1.333l2.417,1l2.167,0.583l1.167,0.167l1.167,0.583l1.25,0.75
		l1.167,0.5l1.833-0.25l1.917-0.917l1.75-0.5h2.167l1.167,0.25l1.333-0.167l0.667-0.583l1.667-0.083l1.083,0.083l0.583-0.25h1
		l2.25,0.333l1.25,0.417l1.75,1.167l2.75,1.833L232.749,57l3.333,2.083l3,1.667l1.333,0.917l1.667-0.083l1.333,0.167l1.833,0.833
		l1.083,0.25l1.833,0.083l1.5-0.333l1.5-0.583l2.167-0.417l2.5-0.5l2.167-0.417l1.667-0.083l2.25,0.167l1.917-0.083l0.667-0.5
		L266.416,60l2.083,0.417l2.5,0.583l1.5-0.333l1.75-1.5l0.833-0.667l1.083-0.083l1.667,1.083l1.167,1.25l1.917,1.333l0.917,0.667
		l1-0.75l2-2.833l2-2.833l2.333-2.417l1.583-1.667l2.25-1.333l1.667-0.667c0,0,0.583-0.333,0.833-0.333s0.583,0.167,0.583,0.167
		l0.917,0.333l1.25,0.917l1.5,1.5l1.167,1.417l0.917,1.333l1.5,0.167l1.917-0.167l0.917,0.167l1.25,1.75l1.583,2.167l0.75,0.75
		h1.083l1.333,0.333l0.667,0.667l0.667,0.833l0.75,0.167l1.583-0.25l1-0.333l0.75-0.167l1.417-0.5l1-0.5l1.75-0.167l1.25-0.083
		l0.917-0.5l0.667-0.417l1.833-0.083l2.667,0.75L331.665,61l2.167,1.25l0.667,0.5l2.583,0.25h1.333l2,0.5l2.167,0.667l2.5,1.25
		l1.667,0.75l1.584,0.583l1.25,0.333l2.666,0.583l1.917,0.25l2.5,0.167l2.167,0.167l1.583,0.333l2.583,0.667l3.167,1.75l2.833,1.833
		l2.584,0.667l2.25,0.833l2.75,0.75l4.5,1.833l2,1.25l1.25,1c0,0,1.25,1.084,1.5,1.167s2.083,0.083,2.083,0.083h1.833l2.583-2.5
		l2.5-2.333l2.167-1.75l1.083-1.417l1.083-0.833h1l0.584,0.5l2,1.25l3.083,0.833l2.833,1.083l3.084,0.75l1.75-0.083l0.75-0.5
		l1.25,0.167l1,0.333l2-0.5l2.083-1.5l2.333-1.083l2.334-1l2.333-0.75l1.25-0.083l0.667,0.75l0.25,0.5l1.083,0.583l1.167,0.667
		l0.416,0.667l2,0.25l3.584-1.083l2.5-1.333l2.083-1.083l0.917-0.5l0.666-0.833l1.084-0.167l1.25,0.583l1,0.417h1.083l2.333,0.167
		l1.751,0.75"/>
	<path fill="none" stroke="#FF0000" stroke-width="0.25" stroke-miterlimit="10" d="M455.331,73.583l1.084-0.25l0.833,0.25
		l0.833-0.167l1.667-0.667l1.167-0.333l0.666-0.25l1.25-0.583l1-0.167h1.334l0.583,0.333l0.833,0.917l0.75,0.083l1-0.667L468.915,72
		l0.833,0.583l1.333,1.083l0.834,0.667l1.083,0.5l1.167-0.083l0.666-0.667l1.334-2.167l1.25-0.833h0.666l0.75,0.583
		c0,0,0.917,0.833,1.167,1.083s0.75,0.917,0.75,0.917l1.083-0.083L482.748,73l1.25-0.917l0.583-0.25l0.417-0.5l0.5,0.167
		l0.667,0.667l0.333,0.583l1.834-0.5l0.75-0.917c0,0,0.834-0.667,1.084-0.583s1.416-0.167,1.416-0.167h2.084l1.583-0.25l2.917-0.167
		l2.5-0.333h2.666l1.084-1l1.083-0.917l0.833-0.25c0,0,0.334,0,0.667,0s1.5-0.167,1.5-0.167l1.417-0.833l1.25-0.583l1.333-1.417
		l1.75-1.083l0.75-0.25l1.168,0.917l1,1.167c0,0,0.333,0.583,0.583,0.833s0.584,0.333,0.917,0.5s0.833,1,0.833,1l0.834,1.333
		l0.666,1l2.417,1.5l1.25,1.25l0.583,0.833l1.25,1.75L527.334,77l2,1.667l3.583,2.583l1.083,0.5l2.75-2.333l2.5-2.333L540.584,76
		l2.083-0.833l1.833-0.333l2.167-0.167L549,75.083c0,0,1.917,0.667,2.167,0.75s1.25,0.833,1.25,0.833L554.584,77l1.666-0.167
		l1.25-0.5l1.75-1.583l1.25-1.583l1-1.25l0.75-1.167l2.25-0.833h1.75l2.25,0.25L570.834,71l1.083,0.75l2.333,0.75l3.25-0.417
		L581.167,71l1.75-0.083l2-0.083l1.25-0.417L587,69.583c0,0,0.083-0.417,0.5-0.333s1.417,0.667,1.417,0.667l2.25,1.583l2.167,1.917
		l0.75,1.333c0,0,0.25,0.667,0.583,0.917s1.333,1.5,1.333,1.5l0.834,0.5l1.75-0.75l1.25-0.417H601l3.584,0.833l3.166,1.5l0.75,0.5
		l3.167-1l2-1.167l0.917-0.583c0,0,0.583-0.584,0.833-0.667s1.584-0.583,1.584-0.583l1.666-0.417l1-0.5l1.25-0.5l1.167-0.167h2.333
		l1.584,0.583l2.916,1.833l3.25,1.417h1.167l1.5-1.083l3.333-1.333l3.75-1.167l2.334-0.583l1.5,0.167l1.583,0.833l1.25,0.333
		l1.25-0.167l2.5-0.583l1-0.667l1.5-0.25h1.583l1.5,0.417l1.834,0.25l4.666-1.083l2.084-2.167l2.333-0.917h2.417l3.833-0.75
		l1.25-0.417l1-0.5l1.167-0.667l1.25-0.333h1.583c0,0,0.999,0.083,1.333,0.333s2.667,1.333,2.667,1.333l2.084,0.667l2.75,0.25h1.75
		h1.167"/>
</g>
<g id="gcp">
	<circle id="portaledge" fill="#FF0000" cx="48.26" cy="107.285" r="0.25"/>
	<circle id="jawlip2" fill="#FF0000" cx="85.062" cy="110.5" r="0.25"/>
	<circle id="kissers" fill="#FF0000" cx="254.29" cy="109.328" r="0.25"/>
	<circle id="rustcut" fill="#FF0000" cx="322.031" cy="101.219" r="0.25"/>
	<circle id="dragonduct" fill="#FF0000" cx="405.562" cy="101.812" r="0.25"/>
</g>
</svg>
