<?xml version="1.0" encoding="utf-8"?>
<!-- Generator: Adobe Illustrator 16.0.4, SVG Export Plug-In . SVG Version: 6.00 Build 0)  -->
<!DOCTYPE svg PUBLIC "-//W3C//DTD SVG 1.1//EN" "http://www.w3.org/Graphics/SVG/1.1/DTD/svg11.dtd">
<svg version="1.1" id="svg" xmlns="http://www.w3.org/2000/svg" xmlns:xlink="http://www.w3.org/1999/xlink" x="0px" y="0px"
	 width="929.28px" height="622.08px" viewBox="0 0 929.28 622.08" enable-background="new 0 0 929.28 622.08" xml:space="preserve">
<image overflow="visible" width="3872" height="2592" xlink:href="AK09b_20100101_195948.JPG"  transform="matrix(0.24 0 0 0.24 0 0)">
</image>
<g id="land">
	<polygon fill="none" stroke="#FF0000" stroke-width="0.25" stroke-miterlimit="10" points="380.386,622.078 392.039,568.181 
		423.187,536.283 519.613,477.589 553.348,461.639 611.617,448.879 707.296,431.016 745.938,423.996 764.949,419.53 
		817.698,375.512 889.46,334.679 923.807,322.558 929.278,322.558 929.28,622.08 	"/>
	<path fill="none" stroke="#FF0000" stroke-width="0.25" stroke-miterlimit="10" d="M0,179.334V18l29.062,6.259l27.31,9.04
		l16.814,12.518l9.693,7.301l17.047,3.478l16.714,2.434l25.739,2.434l42.787,1.043h32.424l19.722-3.477l13.371-7.302l11.031-0.695
		h11.032l24.735,3.825l30.753,7.301l26.742,3.371l18.72-3.023l12.702-7.997l7.354-1.043l15.377,2.434l13.39,3.478l23.714,9.387
		l43.788,10.778l19.388,8.478h13.705l24.068-2.218l53.482-3.824h34.43l18.719-0.348l14.375-2.087l14.707-3.823l9.359-1.043
		l12.702,2.086l13.372,1.043l18.05,5.933l29.75-2.804l16.714-1.392l32.091,4.196h24.066l36.102-1.413l22.729-2.783l31.449-5.214
		v55.979l-20.751-5.215l-13.705-3.129l-7.354-2.782l-30.418-5.215l-18.052-0.347l-15.376,3.128l-13.036,4.173l-12.368,3.824h-15.042
		l-19.055-1.39l-12.701,1.043l-7.688,3.825l-8.356,2.781l-23.399,2.219h-43.455l-36.771-3.61l-32.424-4.868l-5.015-1.738
		l-2.339-3.129l-1.338-4.52l-3.008-4.869l-7.354-4.52l-14.374,0.348l-14.374,0.348l-7.02,1.738l-6.017,5.216l16.379,9.04l11.7,0.696
		l16.378,6.606l11.031,8.345l-3.343,2.086l-19.053,1.391l-49.138,3.477h-36.102l-43.12,6.259l-32.424,3.825h-22.396h-14.04
		l-17.382,3.825l-31.421,3.477l-12.702,1.739l-4.68-5.215c0,0-5.014-7.649-5.014-8.692c0-1.043-2.674-12.17-2.674-12.17l2.339-5.431
		l13.705-8.13l9.026-5.257l1.671-2.392l-2.34-3.477h-7.688l-13.037,1.738l-42.453,9.387l-26.407,6.276l-14.374,1.854l-10.697,0.348
		l-5.683,1.954l5.015,7.551l9.359,8.791l7.354,10.431l-3.008,5.911l-14.374,2.085l-27.411,2.434l-12.702,1.043l-41.449-1.739
		l-52.815,3.129L48.449,176.9l-28.748,0.695L0,179.334z"/>
</g>
</svg>
