<?xml version="1.0" encoding="utf-8"?>
<!-- Generator: Adobe Illustrator 16.0.4, SVG Export Plug-In . SVG Version: 6.00 Build 0)  -->
<!DOCTYPE svg PUBLIC "-//W3C//DTD SVG 1.1//EN" "http://www.w3.org/Graphics/SVG/1.1/DTD/svg11.dtd">
<svg version="1.1" id="svg" xmlns="http://www.w3.org/2000/svg" xmlns:xlink="http://www.w3.org/1999/xlink" x="0px" y="0px"
	 width="3872px" height="2592px" viewBox="0 0 3872 2592" enable-background="new 0 0 3872 2592" xml:space="preserve">
<image overflow="visible" enable-background="new    " width="3872" height="2592" xlink:href="AK10b_20120629_205821.JPG" >
</image>
<g id="land">
	<polygon fill="none" stroke="#FF0000" stroke-width="0.25" stroke-miterlimit="10" points="2212.576,2592 2469.062,2454.533 
		2511.062,2441.034 2548.561,2441.034 2584.559,2427.535 2638.555,2397.536 2911.541,2294.041 3075.033,2225.045 3397.518,2136.549 
		3561.009,2123.05 3714.001,2106.551 3872,2115.551 3871.999,2592.001 	"/>
	<path fill="none" stroke="#FF0000" stroke-width="0.25" stroke-miterlimit="10" d="M0,959.916V547.021l70.101-25.757h18.732
		l20.293-10.927l28.879-20.293l35.904-32.001l31.221-6.244l24.196,3.902l29.66,24.977l45.27,52.295l75.71,83.516l72.588,32.781
		l96.784,11.708l62.441,32.782l24.195,21.854l21.854,10.927l32.782,6.244h47.611l89.76,16.391l24.196,10.927l49.172-12.487
		l54.637,9.366l74.148,7.023l44.49,3.122l25.757,2.342l26.538-5.464l33.562-7.805l58.539-3.122l66.344,1.561l86.638-3.122
		l62.441-1.561l75.71,3.903l88.199,5.463l55.417-4.684l27.318-2.341l50.733-14.049l84.297-17.952l69.466-22.635l46.051-3.122
		l10.146,7.805l28.1,17.171l38.245,13.27l78.833,26.538l35.902-7.806l33.562-7.805l42.146-1.561l81.955-21.074l78.832-1.562
		l73.369,6.244l11.707-3.122l14.83-21.854l33.562-9.366l23.415-0.781l60.881-10.146l54.636-19.513l48.394-1.562l60.881,0.781
		l57.758,5.463l37.466,12.488l10.928,15.609l41.367,8.586l67.123-17.171l69.468-5.464l81.174-7.023l35.123,2.341l19.513,19.513
		l24.196,3.122h50.733l60.881,9.366l74.148,21.074l45.27,31.221l21.854,12.488l42.147,4.683l40.588,3.903l40.586-17.171
		l23.416-0.781l17.172,2.342l42.929-6.244l45.27-2.342l25.759-4.684l20.293-12.487l36.685-6.244l53.854-3.122l38.246,17.171
		l7.021,4.683v448.799h-78.827l-126.443-33.562l-39.026-19.513l-37.465-18.732c0,0-31.222-10.146-35.123-10.927
		c-3.902-0.781-135.811-12.488-135.811-12.488l-14.05-8.586l-11.708-13.27l79.613-39.807l73.368-41.367l15.609-22.635l-20.293-7.805
		l-145.177-35.904l-52.295-9.366l-74.147-8.585l-58.539,7.024l-123.321,18.731l-152.201,22.636l-38.245,18.731l-37.465,14.049
		l-41.368,23.416l-218.545-10.927l-122.54-7.808l-99.906-12.488l-36.685-32.781l-40.587-22.636l-75.711-14.049l-124.883-7.805
		l-50.733,2.342l-31.221,0.78l-19.513,7.805l-16.392,17.952l-19.514,22.635l-68.687-3.901l-58.539-7.806l-7.023-5.464l9.365-7.023
		l15.61-7.025l19.513-6.244l17.171-10.927l-32.781-7.024l-227.911-7.024l-149.079-9.366l-160.006-7.024l-34.343-8.586l-17.172-7.805
		l-87.418-8.586l-34.343-3.122l-15.61,3.122l28.88,21.854l74.93,33.562l92.882,25.757l25.757,11.708l6.244,10.927l-22.635,10.147
		l-104.589,2.341l-115.518,0.781l-87.418,1.561l-71.808-3.903L768.665,951.33l-103.029-22.635l-126.443-19.514l-61.661-3.901
		l-59.319-20.293h-40.587l-40.587,6.244l-7.805,15.609l61.661,47.611l20.293,25.757l-6.244,11.708l-107.711,10.927l-55.417,1.562
		h-99.906l-70.247-33.562l-49.953-9.366L0,959.916z"/>
</g>
<g id="gcp">
	<circle id="slant" fill="#FF0000" cx="2455.406" cy="894.957" r="0.25"/>
</g>
<g id="horizon">
	<polyline fill="none" stroke="#FF0000" stroke-width="0.25" stroke-miterlimit="10" points="0,559.818 18.204,549.516 
		31.412,545.024 37.488,545.024 43.564,540.798 52.281,539.477 62.055,537.364 73.679,537.364 88.208,535.779 109.077,531.288 
		128.361,519.929 146.853,503.286 158.74,491.663 172.477,477.398 179.345,471.322 184.364,467.888 191.232,469.209 
		194.138,467.888 196.78,464.19 201.799,460.756 210.517,462.869 224.253,470.794 232.707,476.87 239.575,484.002 250.67,505.928 
		262.293,518.608 276.822,529.967 280.785,532.609 282.333,536.833 286.5,540.333 295,547.667 304.667,556.5 306.5,562.667 
		312.833,571.167 314.667,573.833 324,582.333 328.333,587.833 330,592.167 337.333,597.667 342,602.333 348,609.5 353.167,613.667 
		355.167,617.167 355.167,619.167 362.333,624.166 377.5,633.999 391.667,640.499 400.167,643.166 405.833,643.166 417.333,647.833 
		434.833,652.666 440,653.499 443.333,655.833 451.833,660.499 454.833,663.666 459.167,665.999 461.5,665.999 466.167,669.166 
		475.5,671.999 480.167,672.666 485,672.666 488.333,672.666 491.167,669.999 493.167,668.166 495.333,666.666 501.333,667.166 
		506.833,667.499 514.667,667.666 528.167,670.999 544,676.666 557,680.999 565.333,682.499 583.667,688.666 598.5,695.999 
		604.167,701.166 608.5,708.332 619.333,722.332 627.167,729.166 632.167,734.332 639.833,740.166 643,740.999 648.333,743.999 
		655.167,750.166 670.833,747.999 682.833,744.666 687.667,741.999 691.667,740.666 696.333,740.332 701.667,742.332 
		702.833,743.666 708.167,745.499 713.667,747.499 717.333,748.499 727.667,746.832 733.5,747.666 737.666,748.999 744.833,753.166 
		752.833,753.166 760.833,753.166 775,756.166 782.333,758.332 789,759.166 793,759.166 796,760.499 808.666,765.166 
		818.833,769.666 823.666,769.666 827.333,768.332 830.5,767.166 835.833,766.332 840.833,766.666 848.166,769.666 856.333,772.666 
		859.333,773.666 861.833,775.332 864.499,778.665 870.833,783.665 878.999,783.665 891.499,785.832 908.833,791.332 
		916.666,794.665 923.833,797.832 930.499,798.832 936.333,797.499 940.499,796.832 945.333,796.999 948.499,795.832 
		951.666,796.832 958.999,801.499 965.499,806.499 973.166,808.665 980.999,812.332 993.166,817.332 	"/>
	<path fill="none" stroke="#FF0000" stroke-width="0.25" stroke-miterlimit="10" d="M1048.165,820.288l16.334-13.956l17.667-11.5
		l14-4.833l4-2.833l4.167-1.833l8.333-2l11.333-4.667l11.333-4l7.5-2.333l12.5-2.833l7.667-3.167l5.667-2.167h4.833l3.333,1.833
		l7.5,2.333l8.667,3.167l5.833-1.833l6.167-0.5l4.667,0.5l8.833,3.833l4.833,5.167l12.167-0.167l9.5-2.333l11.167-1.333l4.333-0.667
		l4.5-4l6.333-1.167l10.667-0.667l7.5-0.667l3.833-1.5l5.167-0.5l10,1.167l9.333,1.5l4.333-2.333l4.5-0.333l7-1.5h7.167l2.667,1.667
		l17.667-1.667l1.333-1.833l2.333-1.5l5.167-1l5.667-4.833h4.5l3.667,1.5l4.667,1.333l9.167-0.167l4.167-1l6.167,1l8,2.5
		l5.667,2.333l6.5,1.167l3.833,1.167l3,0.833l6.333,1.5l10.5,1.667l4.167-1.333l5.833-2.5l4.833-1.667l3.833-1l4.667,2l5.667,2.833
		l3.167,1.667l4.167,1.333l9.166,1.667l7-0.167l15,0.333l11.667,0.333l9.167-3l7.667-2.5h3.667l3.333,2.333l3.333,2.5l5.667,1.667
		l8.167,0.667l5.833,0.667c0,0,6-0.167,6.5-0.5s5.333-0.5,5.333-0.5l5.5-0.167l7.5,2l6.833,1.5l9.833-1l9.833-0.5l3-2.333l5.167-2.5
		l13-2.667l13.833-2.5l9,0.667l7.333,2.333l9.333,3l4.333,1l4.667-2.833l2.5-2.167l7-2.333l5-2.833l7.333-5.333l4.667-2.833
		l10.167-0.833l12.167-1.333l6.833-1.833l3.5-2.667l5.333-1.667h6.333h6.167l3-4.167l4-2l4.167-0.833h6.167h6.167l6.5-1.667l5-1.667
		l2.833-2l2.667-1.5h7.333h6.667l4.5-2.167l4.833-2l9.833-3.5l6.333-3.833l9.333-2.333l7.333,1.333l5,0.333l1.833-0.5l1-2.833
		l6.5-3.667l6.333-2.333l9.833-1.667l5.667,0.667l10.5,3.833l7.167,5l3.833,4.333l4.666,4.167l9.667,4l7.333,4.833l13.5,7l7,0.833
		l10.333,1.667l16.834,6.167l7.333,0.833l7-0.667l8.667,2.167l11,3.167l2.666,1.667l4.5,0.833l10.334,1.833l8.333,3l7.333,3.667
		l5.167,0.667l24.833,1.5l9-2.5l7.334-2.333l5.166-1.5l9.834-6.167l8.166-1.833h10.334c0,0,2.5,0.667,2.833,1.5s1.5,2.167,1.5,2.167
		l6.167,0.5l2.333-2l0.667-2.5l4.166-2l3.667-0.667l4.167,0.333l3.333,2l2.333,1.833l3.167,2l2.5,1.5l1.667,0.833l9.833,0.167
		l7.167-2.667l18.333-7l20.667-7.333l19.166-6.167l22.5-4.333l15.667-0.167l23.667-2.333l24.834-1l10.833,0.333l14,0.833
		l13.333,3.833l16.167,2.333l11.667,1.667l7.5,2l15.667,2.5l8.666,0.833l3.334-0.167l20-21.667l5.5-6.667l5.833-6l4.667-1.333
		l5.5,0.667l6.333-0.667l7-2.333l8.167-1.167l4.833,1.5l6.667,1.333l4.5-1.833l5.333-1l5.333-1.333h2.667l6.333,2.333l3.5,0.5
		l5-0.833l3.167-2h5.833l7.5-1.5l11.5-3.333l7.834-4.667l4.5-4.167l5.666-3.167l5-1.667h8l3.668-1.333l8.167-9l7.5-2.833h9.5
		l3.333,1.167v2.167l2.167,1.5l4.833,1.333l3.667,1.333l6.666,0.833h9.5h4.5l5.834-0.167l6,0.167l14-1l5.833-1.833h8.167l7,0.833
		l7-1.833l5.5,1l2.5-0.833l3.333,0.5l7.333,2.833l4.834,3.333l4.5,1l3-1l3.5-0.5l4.5,1.167l4.666,1.167l3.5-0.833l4.167-1.333
		l3.167-1.667l5.666-0.667l12,0.333l6.167,0.833l3.667,2.667l2.5,3.333l3.501,9.667l3.667,8.167l6.666,8.167l3,4.333l4,4.333l4.5,3
		l4,0.833h8.167l11.333-1l12-4.333l23.667-7l8.833-1.5l11.5,0.333l6.5-1.333l10-6.667l5.667-4.333l7.333-0.5l7.167-0.667
		l5.333-1.833l3-0.667l4.834-0.167l2.666,2.167l2.834,2.833l4.333,0.167l9.834,1.333c0,0,5.332,0.333,6.166,0.333s8.167-1,8.167-1
		l5.667-1.667l6.833-0.167l5.667,2.333l6.833,2.833l7-6.333l6.167-3l5.833-0.167l5.667,0.333l6.333-3.833l10.667-4.5l7.833,0.333
		l19.5-2l13.5-1h8.167l4.333,1l3.5,5l7.5,9.333l5.833,7.833l3.5,5.5l2.834,3.5l2,0.833l2.333,1l2.667,3.5l5.166,5.833l1.834,1h4.833
		l9.667-4.167l8.333-5.167l6.833-3.5l3.5-3.5l5.5,0.167l4.334,0.5l7.666,0.167l12.834,2.333l3.167,1.667l3.833,1.5l4.334,1
		l5.166,0.5l4,1l4.167,1.833l1.833-0.333l2.5-1.5l5.334,0.167l2.833,2l3,2.5l3,2.167l7.333,3.5l14.167-4.5l9.333-2.667l6.5-2.667
		l6.667-0.667l5.834,1.833l4.166,2.167l4.667,2.5l2.333,0.167l5.834,3.5l2.333,1.333l5.667,2.167l3.666,0.833l3.834,1.833l3,3.667
		l1.833,2.167l1.5,2.083l5.167,1.583h5.833l3.833-0.667l3.167-0.917l3.833,3.083l6.5,9.5l5.5,8l5.5,11l5.334,4.5l20.333,4.5
		l20.333,2l13.5-0.333l6.667-2.5c0,0,4.167-0.667,5.167-0.667s6.833,0.5,6.833,0.5l10.167,1l5,4.167l10.333,3.833h13.167l16-1.833
		l13.001-7.167l11.667-5.167l5-2.667l3.333-2.167l5.167-1.167l5.833-0.833l8.833,4.5l1.834,3l3.166,2l5.667-0.833l3.333,1.667
		l5.5,5.333l6.5,5.5l4.334-3.5l6.166-5l5.667-4.333l9.5-4.667l12.834-0.167l6.167-1.333l4.166-1.667l10.667-3l3.667,0.5
		c0,0,4.333,1.833,4.833,2s9.5,4.833,9.5,4.833l5.333,4l3.167,2.833l2.667,0.833l1.666-4l13.834-8.5l12.5-6.667l16.166-7.5
		l11.834-6.833l5.833-1.167l0.667,2.333l1.166,3l2.167,2.167l6.833,0.5l4.834,1l5.833,1l4.834,2.167l13-7.667l8.334-3.333l7.5-1.667
		l6.666-2.833l5.667-2.083l6.5,1.083l7.167,3.5l13.333,6l10.5,4.167l8.33,3.167"/>
</g>
<g id="coast">
	<polyline fill="none" stroke="#FF0000" stroke-width="0.25" stroke-miterlimit="10" points="137.199,1009.632 170.355,1009.632 
		202.5,1009.25 234.75,1008.25 284.5,1007.25 313.25,1006.25 347.75,1005 388.25,1003.75 414,1003 	"/>
	<polyline fill="none" stroke="#FF0000" stroke-width="0.25" stroke-miterlimit="10" points="876.75,985.25 921.75,986.75 
		959,987.5 1008.75,987.25 1045.75,987.5 1093.5,985.75 1122.75,985.25 1144.75,985.5 1167,986.75 1185,985.75 1202.75,984.5 
		1223.167,983.667 1235.167,982.334 1246.667,979.667 1258.667,978.167 1272.333,976.834 1287.333,977 1309,977 1321,977.334 
		1336.667,977.334 1349.833,977.667 1362,976.834 1366.5,975.834 	"/>
	<polyline fill="none" stroke="#FF0000" stroke-width="0.25" stroke-miterlimit="10" points="1295.333,885.333 1344.333,890.333 
		1391,893 1418.667,896 1461,898.333 1502.333,901.333 1543,903.667 1562.333,905.667 1600,907.667 1637.333,908.667 
		1677.667,909.333 1745.001,910.333 1792.334,912 1855.667,914.667 1879.667,917.667 	"/>
	<polyline fill="none" stroke="#FF0000" stroke-width="0.25" stroke-miterlimit="10" points="1822.667,952.667 1844.001,956.333 
		1878.667,962 1902.334,964 	"/>
	<polyline fill="none" stroke="#FF0000" stroke-width="0.25" stroke-miterlimit="10" points="1922.001,964.333 1958.668,965.333 
		1973.335,965.667 	"/>
	<polyline fill="none" stroke="#FF0000" stroke-width="0.25" stroke-miterlimit="10" points="2410.334,995 2431.667,1000 
		2454.001,1003 2495.001,1007.333 2516.334,1010.333 2560.001,1014 2614.001,1015.333 2659.667,1017.667 2711.001,1020 
		2748.334,1023 2783.334,1023.333 2835.334,1026 2882.667,1028 2909.667,1029.333 2946.001,1030 2978.334,1031 3006.001,1030.333 	
		"/>
</g>
</svg>
