<?xml version="1.0" encoding="utf-8"?>
<!-- Generator: Adobe Illustrator 16.0.4, SVG Export Plug-In . SVG Version: 6.00 Build 0)  -->
<!DOCTYPE svg PUBLIC "-//W3C//DTD SVG 1.1//EN" "http://www.w3.org/Graphics/SVG/1.1/DTD/svg11.dtd">
<svg version="1.1" id="svg" xmlns="http://www.w3.org/2000/svg" xmlns:xlink="http://www.w3.org/1999/xlink" x="0px" y="0px"
	 width="929.28px" height="622.08px" viewBox="0 0 929.28 622.08" enable-background="new 0 0 929.28 622.08" xml:space="preserve">
<image overflow="visible" width="3872" height="2592" xlink:href="AK10b_20160918_201825.JPG"  transform="matrix(0.24 0 0 0.24 0 0)">
</image>
<g id="horizon">
	<path fill="none" stroke="#FF0000" stroke-width="0.25" stroke-miterlimit="10" d="M0,132.75l6.625,4.5L12,139.875l1.75,2L15,143
		l0.125-1.875l1.125-1.5l8.125-8.75l1.75-1.5L28.667,130l2.667,0.917l1.083,1.25l1.083,1.417h2.25l1.083,0.333l3.5,2.75l2.75,2.833
		l2.417,2.167l1.583,2.25l1.333,0.417l2.417,1.167L53,146.417l1.417,0.5l2.083-0.083l3.25,0.333l1.75,0.667l3.833,0.083l0.833-0.5
		l1.25-0.083h1.417l1.333-0.75l1.333-0.75l1.583,0.667l3.833,3.5l3,2.583l4.75,3.833l4.167,3.25l2,1.75l1.583,2.083l4,0.417
		l1.917,0.333l1.083-0.333l1.167,1.417l1.917,1.5l1.25,2.167l1.5,2l1.417,0.167l2-0.25l1.833,0.833h1.75l1.667,0.667l1.333,0.5
		l2.167,0.083l1.833-0.167l2.333,0.833l1.25,0.5l3.917-0.917l2.333-0.667l2.25-0.25l3.583-0.333l3.5-0.667l4.5-0.583l2.75-1
		l2.167-0.5l1.25-0.75l0.833-0.417l2.167,0.333l2.833,0.833l3.75-0.25l1.75-0.083l2.833-1.667l3.833-1.75l4.833-1.667L175,163.25
		l1.5,0.083l3.332-1.75l1.583-1.667l1.417-0.833l3.5-1.833l4.917-2.667l2.917-3l1-0.667l1.917,0.083h1.583l1.083-0.833
		c0,0,1.667,0,1.917-0.083s1.417-1.75,1.417-1.75l2.917-0.583l2.333-1.75l3.167-2l1.333-0.75l1.833-0.75l1.333-0.25l0.5-1.083
		l1.583-1.167l2.75-0.75l1.25-1.25l0.75-0.917l1.583-1.75l0.833-1.917l1-2l1.5-1.75l2.083-0.667l1.167-0.417l1.333-0.667
		l0.917-0.667l1,0.25l0.667,0.333l0.917-0.833h1.917l1.75-0.333l1.5,0.5l0.583-1l0.917-0.417l1.75-0.916l2.083-2l1.5-1.417
		l1.583-0.167l1.167,0.333l0.75,1.417l1.833,0.083l1.667,0.25l0.833,1.167h1.75l1.5,0.417l1.5,0.667l2.083,1.75l2.083,1.667
		l2.25,0.167h1.417l1.5,0.5l1.833,0.5l0.917,0.25l0.833-0.333l2.333,0.667l2,1l1.25,1.25l1.75,0.583l2,1l1.25,1.167l1.083,1.583
		l2.083,0.167l1.833,0.833l2,1.833l2.583,2.25l2.667,1.75l2.5,0.5l2.25,0.75l0.667,0.75l2.417,2.583l1.667,1.167l1.5-0.083
		l2.083-0.5l1.417,0.083l1.833,0.25l1.75-0.333h2l1.583,0.583l1.583-0.083l6.25-2.5l4.667-2.583l2.833-1.75l2.25-2.25l2.5-1.75
		l1.333-0.667l1.25-1.25l2.833-1.917l1.667-0.083l1.833-0.583l2.083-1l1.833-0.417h1.833l2-0.583l1.5-0.417l1.75-0.25l4.917-3
		l3.5-3.583l4.333-4.917l2.416-3l1.167-1l1.5,0.5l1.333-1.667l1.833-0.583l1.25,0.667l2,0.917l2.083,1.167l0.917,1.25l2.333,4.833
		l2.917,3.583l1,0.583h1l1.083,1.083l0.417,0.917l0.917,0.75l1.417,1.333l1.75,1.917l0.917,1.5l0.917,1.833l2.5,2.167l0.917,1.333
		l0.583,0.75l2.167,2.333l2.667,2.167l0.333,1.167l2.5,1.833l2,1.5l3.167,1.667l3.833,0.583l3,0.583l2,0.583l1.667,0.583l1.5,0.583
		l0.833,1.333l2.083,0.75l2.333,1.167l1.25-0.167l1.167-0.167l1-0.667l0.667-0.917l1.75-0.083l2.417,0.167l2.667,0.25l2.25,1.25
		l1.917,0.75h2.5l3.917,1.083l3.667,1.333l2,1.167l1.833,2.667l1.917,2.833l2.5,2.333l2.75,1.417l1.25,0.917l1.167,1l2.833-0.583
		l2.75-0.5l1.417-1l1.663-0.417l1.167,0.083l1.583,1l1.333,0.167l1,0.333l1.75-0.5l1.667-0.083l1.333,0.417l0.834,0.917l2.75,0.167
		l2.416,0.25l2.334,0.333l2.083,0.167l1.5,0.333l2.333,0.833l4.584,1.5l1.333-0.833l2-0.333l1.333,0.167l2,0.667l1.584,0.417
		l1.5,1.333l6,1.583l5.166,1.5l2.334,0.5l2.083-0.333l2.75-0.083l1.667,0.083l1.5,1.333l1.75,0.917l2.583,0.833l2.417,1l1.583,0.5"
		/>
	<path fill="none" stroke="#FF0000" stroke-width="0.25" stroke-miterlimit="10" d="M560.244,185.834l3.75-2.583l2.416-2.083
		l3.584-2.25l2-0.417l1.416-1.167l2-0.417l1.417-0.167l3.583-2.083l3.584-1.167l3.333-1l1.251-0.917l0.833-0.333
		c0,0,0.75-0.083,1,0.083s1.167,0.667,1.167,0.667l2.083,0.917l2.25,0.5l0.833-0.667l2.667-0.083l1.417,0.25l0.833,0.833l0.917,1
		l6.166-0.917l1.584-0.417l1.416-0.667l1-0.75l1.334-0.083l4.084-0.917l3.667-0.333l3.417,0.25l2.916-0.667l3.584,0.083h2.833
		l1.583-1.333l1.75-0.917l1.25-0.583l2.667-0.167l2.417,0.25l1.166,0.167h1.75l2.667,0.667l2.667,0.667l1.833,0.667l2.667,0.333
		l1.583-0.417l2.167-0.667l0.833-0.25h1.167l0.75,0.083l1.25,0.333l3.334,1.083l3.416,0.083l3.834,0.333l4.083-1.167l2.167-1.083
		l1.416-0.167l1.334,1l1.916,0.417l3,0.167l4.167,0.417h4.083l2.75-0.083l3.584-1l8.083-2.083l1.583-0.25l1.75,0.333l2.834,1.25
		l1.583-0.25l1.667-0.833l4.25-2.583l1.25-0.667l2.583-0.417l3.084-0.833l6.166-1.75l3.25-1.417l3.167-0.667l2.5-0.083l1.667-1.083
		l2-0.667l1.083-0.083l1.667,0.083l2.583-1.167l4.167-1.75l1.25-0.667l1.416-0.333h2.667h0.75l3-1.917l1.667-0.583l2.833-0.833
		l2.917,0.5l1.916,1.083l2,1.917l2.5,1.25l8.501,3.5l2-0.25l1.917,0.417l3.333,0.917l1.917,0.75l1.583-0.167l2-0.333h2.167
		l1.083,0.833l1.334,0.833l1.416-0.333l1.917,0.417l2.5,0.667l2.333,1l3.084,0.417l1.75-0.25h4l1.583,0.25l2.417-1.417l2.333-0.417
		l1.5-0.583l1.167-0.917l1.416-0.583l3.584-0.583l2.083,0.583l0.75,0.75l1.333-1.167l1.25-1.083h2.25l1.667,0.5l2.417,1.167
		l4.166-0.667l3.834-1.25l5.416-1.75l6.334-2.167l6-1.833l3.083-0.5l3.333-0.083l5.417-0.667l7.334-0.75l2.917,0.083l4.583-0.167
		l7.917,0.583l2.833,0.417l7.417,0.75l3.333,0.583h3.114"/>
</g>
<g id="coast">
	<polyline fill="none" stroke="#FF0000" stroke-width="0.25" stroke-miterlimit="10" points="499.831,226.5 512.331,226.833 
		525.331,226.583 539.414,226.25 553.248,226 	"/>
	<polyline fill="none" stroke="#FF0000" stroke-width="0.25" stroke-miterlimit="10" points="618.666,222.666 626.833,222 
		632.333,221.666 635.25,221.333 636.75,220.833 	"/>
	<polyline fill="none" stroke="#FF0000" stroke-width="0.25" stroke-miterlimit="10" points="617.169,198.083 620.336,198.583 
		624.502,199 631.752,199.25 638.086,199.416 647.752,199.75 654.669,199.833 659.252,200 663.169,200.083 668.086,200.333 	"/>
	<polyline fill="none" stroke="#FF0000" stroke-width="0.25" stroke-miterlimit="10" points="753.505,212.666 761.671,213.833 
		767.921,214.583 775.588,215.25 782.838,215.333 789.173,215.166 793.673,215.166 	"/>
</g>
<g id="gcp">
	<circle id="doug-17" fill="#FF0000" cx="774.235" cy="149.938" r="0.25"/>
	<circle id="doug-13" fill="#FF0000" cx="378.787" cy="114.589" r="0.25"/>
</g>
</svg>
