<?xml version="1.0" encoding="utf-8"?>
<!-- Generator: Adobe Illustrator 16.0.4, SVG Export Plug-In . SVG Version: 6.00 Build 0)  -->
<!DOCTYPE svg PUBLIC "-//W3C//DTD SVG 1.1//EN" "http://www.w3.org/Graphics/SVG/1.1/DTD/svg11.dtd">
<svg version="1.1" id="svg" xmlns="http://www.w3.org/2000/svg" xmlns:xlink="http://www.w3.org/1999/xlink" x="0px" y="0px"
	 width="3872px" height="2592px" viewBox="0 0 3872 2592" enable-background="new 0 0 3872 2592" xml:space="preserve">
<image overflow="visible" width="3872" height="2592" xlink:href="AK10b_20120605_203759.JPG" >
</image>
<g id="horizon">
	<polyline fill="none" stroke="#FF0000" stroke-width="0.25" stroke-miterlimit="10" points="0,566.333 23,551.333 52.333,544 
		85.333,539.667 117,534.667 136.667,522 157.667,499.667 175.333,481.667 194.333,470 206.667,466.667 214.667,467.667 227,475 
		242,487.667 247.333,501 259,518.667 279.667,535.667 292.667,548 309.667,567.667 314.667,579 324.334,587.667 337.667,603 
		354,618.333 370.334,631.333 392.667,646 422,654.333 448,662.667 468,674.333 485,678 500,673 509.667,672 531.667,677.667 
		571.334,690.333 592,697.333 601,703 610.334,713 622.334,729.667 641.667,742 656.667,752.667 676,749.333 694.334,746.667 
		706,748.333 722.667,752.667 743,754.667 756.667,758 782.334,763 815.334,771.999 827,772.666 835,772.332 844.667,772.666 
		851.334,775.666 861.334,779.332 878,785.666 900,791.999 913.334,796.999 925.334,800.999 939,799.999 945.334,799.999 
		951.667,800.666 959.667,806.332 975.334,814.999 985.334,816.332 997.667,821.999 	"/>
	<polyline fill="none" stroke="#FF0000" stroke-width="0.25" stroke-miterlimit="10" points="1047.334,825.999 1068.001,807.999 
		1083.001,798.332 1098.001,793.665 1111.334,787.665 1130.001,780.665 1159.334,771.665 1165.667,768.665 1172.667,768.332 
		1181.334,770.665 1192.334,772.999 1203.667,773.999 1210.334,773.665 1216.667,775.665 1222.334,778.999 1229.001,783.665 
		1247.001,780.999 1261.667,777.999 1269.001,772.999 1280.667,772.665 1293.667,768.332 1306.334,767.999 1323.667,770.665 
		1330.334,767.999 1341.001,768.332 1349.334,770.665 1365.334,766.665 1374.001,760.999 1380.334,759.332 1397.667,759.665 
		1416.001,762.665 1435.334,768.665 1447.667,771.332 1458.667,769.332 1465.001,766.332 1477.334,768.665 1489.001,772.999 
		1515.001,776.999 1532.334,776.332 1543.667,772.999 1552.001,772.332 1559.667,774.332 1564.334,775.332 1575.001,776.332 
		1589.001,775.665 1610.334,778.332 1626.334,777.665 1646.334,773.665 1665.334,768.665 1674.334,767.665 1681.667,770.665 
		1693.334,774.665 1701.667,772.332 1716.001,763.665 1725.334,758.665 1736.334,757.665 1745.668,755.666 1768.668,748.999 
		1790.334,742.666 1806.001,741.999 1815.001,738.666 1826.334,735.666 1840.001,733.999 1858.334,723.999 1866.001,721.666 
		1880.001,721.333 1894.001,713.999 1905.334,712.333 1914.001,713.666 1925.668,722.999 1939.334,731.999 1959.668,742.666 
		1971.668,746.666 2008.668,755.333 2030.668,760.666 2062.002,770.333 2080.335,772.333 2107.335,770.999 2119.668,765.999 
		2131.335,760.666 2147.668,760.333 2157.002,761.999 2163.002,757.999 2174.335,757.666 2186.668,763.666 2197.335,764.333 
		2216.335,756.999 2253.335,744.999 2280.002,738.333 2325.002,734.666 2358.002,734.666 2378.002,736.333 2397.335,739.666 
		2419.668,743.333 2437.335,745.666 2447.335,747.666 2478.335,715.999 2489.001,712.333 2508.001,708.666 2526.335,708.333 
		2542.668,706.999 2551.335,708.999 2577.001,701.999 2597.668,693.333 2605.335,688.666 2615.001,686.999 2621.001,685.999 
		2627,678.333 2633,676.666 2640.667,675.333 2651.334,676.999 2661.334,680.333 2681.334,683.333 2695.334,683.999 
		2713.334,680.666 2727.334,678.999 2738.667,678.999 2752.667,683.666 2763.334,686.999 2773.334,688.999 2781.334,688.333 
		2791.334,683.333 2799.334,683.333 2810.334,685.999 2815.334,690.666 2824,707.999 2835.667,723.999 2841.334,730.333 
		2862.334,727.666 2889,719.666 2905,715.666 2924.667,713.666 2939.667,708.999 2950,704.333 2961,701.333 2976.334,702.666 
		2991.667,704.666 3011,704.999 3018.334,704.333 3029.667,705.999 3036,703.666 3046,700.333 3054.334,697.333 3066.667,693.999 
		3073.667,690.666 3087.667,689.999 3100.334,689.666 3112,687.666 3122.667,688.333 3127.334,691.666 3130.334,697.999 
		3146.667,721.999 3152.334,722.666 3158.667,727.666 3162.667,731.333 3175.334,728.333 3191.667,719.666 3199.334,715.666 
		3211.667,715.666 3225,719.666 3251.667,725.333 3260.667,727.333 3267,730.999 3283.667,734.999 3297.667,728.999 3312,724.999 
		3322,726.333 3330,728.999 3338.667,734.333 3349,738.333 3357,745.666 3366.333,750.333 3376.667,749.666 3382.333,751.666 
		3384.667,758.333 3394,771.666 3410.333,780.999 3425,787.999 3432.333,789.666 3453,790.999 3459.666,790.666 3466,787.666 
		3478,787.999 3486.666,790.999 3494.666,795.999 3511,797.666 3528.666,795.666 3539,790.999 3559.666,780.666 3568.333,779.999 
		3582,781.666 3593,785.332 3603.333,791.999 3609.666,795.999 3617.333,790.332 3630.333,781.999 3640,780.666 3650.666,780.666 
		3661,777.666 3667,774.999 3674.333,774.999 3682.333,775.666 3687,780.332 3695.666,787.999 3703.666,782.332 3726.333,769.332 
		3746.333,759.999 3756,753.666 3763.333,753.332 3769.666,757.666 3776.333,763.332 3785.333,763.999 3800,758.666 
		3810.666,754.666 3820,750.999 3826.333,747.666 3831.333,748.666 3837.333,752.332 3846.666,755.999 3859.333,761.332 
		3872.333,766.332 	"/>
</g>
<g id="gcp">
	<circle id="T20120605-11" fill="#FF0000" cx="2341" cy="2124" r="0.25"/>
	<circle id="T20120605-12" fill="#FF0000" cx="2446" cy="2194.667" r="0.25"/>
	<circle id="T20120605-13" fill="#FF0000" cx="1322.833" cy="968.667" r="0.25"/>
	<circle id="T20120605-14" fill="#FF0000" cx="1139.833" cy="954.167" r="0.25"/>
	<circle id="T20120605-15" fill="#FF0000" cx="861" cy="860.333" r="0.25"/>
	<circle id="T20120605-16" fill="#FF0000" cx="431.333" cy="794.834" r="0.25"/>
	<circle id="T20120605-17" fill="#FF0000" cx="147.167" cy="683.5" r="0.25"/>
	<circle id="T20120605-18" fill="#FF0000" cx="162.75" cy="876.875" r="0.25"/>
</g>
<g id="coast">
	<polyline fill="none" stroke="#FF0000" stroke-width="0.25" stroke-miterlimit="10" points="1246.333,877.333 1261.333,878.667 
		1277.333,881.333 1289,885.667 1306,888.333 1351,891 1384.333,892.333 1415.667,893.667 1446.667,895.667 1476,897.333 1498,898 
		1520,900 1536,899.333 1550.333,901.333 1560,906 1583,908 1623.333,909.667 1652.333,910.333 1695.333,911.333 1745.667,914 
		1780.333,915 1808,916.333 1837,918 1865.333,920 1881,921 	"/>
	<polyline fill="none" stroke="#FF0000" stroke-width="0.25" stroke-miterlimit="10" points="1823.333,957.333 1863.333,963 
		1896,966 1921,968.333 	"/>
	<polyline fill="none" stroke="#FF0000" stroke-width="0.25" stroke-miterlimit="10" points="2431.165,1002.5 2449.332,1005.333 
		2472.332,1008.5 2494.499,1010.833 2516.499,1013.333 2537.832,1015.667 2564.499,1016.833 2594.165,1017.5 2626.666,1018.5 
		2661.166,1020 2687,1021.167 2724.5,1023.667 2762.5,1025.333 2800.167,1026.833 2827.333,1027.833 	"/>
	<polyline fill="none" stroke="#FF0000" stroke-width="0.25" stroke-miterlimit="10" points="917,990 954.5,989.75 998.5,989.75 
		1045.25,990.25 1073.75,989.5 1098.5,989.5 1108,988 1119.5,988.25 1143.5,989.25 1160,989.75 1181,989.75 1195,988.5 
		1200.5,987.5 1213.5,987.5 1225.25,987 1233.5,986 	"/>
	<polyline fill="none" stroke="#FF0000" stroke-width="0.25" stroke-miterlimit="10" points="1269,979.75 1286,979.75 1302,980.25 
		1315.25,980.5 1330.25,981 1344.25,980.5 1359.75,979.5 1369.75,977.75 	"/>
</g>
</svg>
