<?xml version="1.0" encoding="utf-8"?>
<!-- Generator: Adobe Illustrator 16.0.4, SVG Export Plug-In . SVG Version: 6.00 Build 0)  -->
<!DOCTYPE svg PUBLIC "-//W3C//DTD SVG 1.1//EN" "http://www.w3.org/Graphics/SVG/1.1/DTD/svg11.dtd">
<svg version="1.1" id="svg" xmlns="http://www.w3.org/2000/svg" xmlns:xlink="http://www.w3.org/1999/xlink" x="0px" y="0px"
	 width="968px" height="648px" viewBox="0 0 968 648" enable-background="new 0 0 968 648" xml:space="preserve">
<g id="image">
	
		<image overflow="visible" enable-background="new    " width="3872" height="2592" xlink:href="AK10b_20131106_200636.JPG"  transform="matrix(0.25 0 0 0.25 0 9.765625e-04)">
	</image>
</g>
<g id="gcp-doug">
	<circle id="doug-12" fill="#FF0000" cx="305" cy="226.25" r="0.25"/>
	<circle id="doug-13" fill="#FF0000" cx="8.5" cy="94" r="0.25"/>
	<circle id="doug-14" fill="#FF0000" cx="623.75" cy="153.5" r="0.25"/>
	<circle id="doug-15" fill="#FF0000" cx="666.5" cy="156.75" r="0.25"/>
	<circle id="doug-16" fill="#FF0000" cx="744.5" cy="159.5" r="0.25"/>
	<circle id="doug-17" fill="#FF0000" cx="440.25" cy="161" r="0.25"/>
	<circle id="doug-25" fill="#FF0000" cx="877.75" cy="181.5" r="0.25"/>
</g>
<g id="gcp">
	<circle id="beetle" fill="#FF0000" cx="589.562" cy="229.75" r="0.25"/>
	<circle id="slant" fill="#FF0000" cx="577.25" cy="210.125" r="0.25"/>
</g>
<g id="coast">
	<polyline fill="none" stroke="#FF0000" stroke-width="0.25" stroke-miterlimit="10" points="43.667,233.334 59.167,232.667 
		66.583,232.417 76.167,231.584 86.833,230.417 99.084,229.917 115.75,229.084 126.584,229.167 	"/>
	<polyline fill="none" stroke="#FF0000" stroke-width="0.25" stroke-miterlimit="10" points="257.125,229.375 265.25,229.125 
		272.75,229.188 274.188,228.25 277.562,227.375 282.438,227.312 290.312,227.562 299.75,227.188 305,226.938 	"/>
	<polyline fill="none" stroke="#FF0000" stroke-width="0.25" stroke-miterlimit="10" points="237.75,198.062 242,197.938 
		248.938,198.25 256.25,198.438 264.812,198.75 267.312,198.812 	"/>
	<polyline fill="none" stroke="#FF0000" stroke-width="0.25" stroke-miterlimit="10" points="257.125,200.375 261.812,200.562 
		266.438,200.812 272.5,201.312 275.562,201.312 277.062,201.562 277.875,202.25 280.438,202.938 282.5,202.875 285.062,202.938 
		286.062,203.188 287.938,203.625 290.625,204 293.5,204 295.25,204.438 300.25,204.75 305.25,205 311.688,205.25 318.312,205.75 
		326.25,206.438 333.688,207.188 339.75,206.938 342.438,207.312 347.125,207.812 348.75,207.812 350.438,208.25 	"/>
	<polyline fill="none" stroke="#FF0000" stroke-width="0.25" stroke-miterlimit="10" points="355.938,209.875 361.875,209.875 
		368.438,210.062 374.812,210 378.875,210.188 383.812,210.25 390.562,210.625 398.062,211.125 404.938,211.438 411.062,211.875 
		421.75,212.312 429.438,212.875 	"/>
	<polyline fill="none" stroke="#FF0000" stroke-width="0.25" stroke-miterlimit="10" points="414.688,221.312 418.375,221.938 
		420.938,222.438 424.812,223.188 430.625,224 437.125,224.875 443.062,225.375 	"/>
	<polyline fill="none" stroke="#FF0000" stroke-width="0.25" stroke-miterlimit="10" points="536.062,230.375 544.375,231 
		548.875,231.5 554.375,232.688 559.625,233 561.75,233.438 563,233.875 566.312,234.438 570.562,235.125 575,235.938 
		579.688,236.75 585.125,237.688 589.688,238.062 594.5,238.5 604.438,238.875 609.875,239.375 620.5,240.062 626.875,240.438 
		638.188,241.188 650.062,242.25 660.75,243.188 668.062,243.562 	"/>
	<polyline fill="none" stroke="#FF0000" stroke-width="0.25" stroke-miterlimit="10" points="680.875,243.375 692.75,243.688 
		707.125,244.062 720.75,244.438 730.25,244.812 740.688,245.312 751.5,246.062 761.812,246.625 773.625,247.188 787.938,248 
		804.688,249 814.438,249.812 819.25,250.125 	"/>
</g>
<g id="horizon">
	<polyline fill="none" stroke="#FF0000" stroke-width="0.25" stroke-miterlimit="10" points="0,98.667 1.403,97.501 2.539,96.101 
		4.585,95.823 5.361,95.279 6.871,94.592 9.458,94.345 11.975,95.867 14.237,97.002 17.953,100.79 19.848,105.494 22.167,108.5 
		24.833,110.667 26.167,110.667 28.167,112.833 30.667,116 33.667,118.5 35.167,121.333 38,124.333 41.333,128.167 44.167,131.167 
		47,133.333 48,135.333 51.5,137.833 56.333,140.667 61.5,141.667 66.333,143.5 70.375,144.5 73.125,146.708 76.042,147.958 
		78.708,149.292 81.833,149.042 83.125,147.458 86.667,147.5 91.206,148.417 92.203,148.91 94.212,149.905 95.404,150.495 
		96.35,150.879 98.402,151.076 100.291,151.572 102.708,152.45 105.27,152.827 106.899,153.569 109.415,154.584 110.833,156 
		112.082,157.167 113,159.333 115.833,162.667 118.369,165.084 120,166 122.667,167.167 124.202,168.75 125.119,168.959 
		127.363,168.366 128.373,168.034 131.087,167.82 132.494,167.084 135.167,166.667 137.411,167.875 138.929,168.263 
		140.995,168.843 142.08,168.459 143.244,168.292 144.994,168.5 146.878,169.822 147.911,169.959 151.607,170.315 154.328,171.125 
		155.411,170.875 156.578,171.448 158.869,171.584 161.444,172.433 164.2,173.332 165.652,174.074 167.494,174.459 168.232,174.166 
		168.953,173.792 170.242,173.573 171.423,173.417 172.878,174.076 174.045,174.406 175.328,174.625 176.202,174.917 176.91,175.25 
		177.285,175.584 177.41,176.5 178.327,177.042 179.702,177.5 181.077,177.75 182.369,177.75 183.744,178.042 185.494,178.5 
		187.494,179.084 189.202,179.875 190.494,180.459 191.535,180.917 192.702,181.125 193.869,181.125 195.202,181.042 
		197.244,180.792 199.035,180.834 200.202,180.917 201.077,181.459 202.577,182.459 203.66,183.5 204.619,184.042 206.119,184.667 
		207.744,185.5 209.869,185.959 211.244,186.667 	"/>
	<polyline fill="none" stroke="#FF0000" stroke-width="0.25" stroke-miterlimit="10" points="225.535,186.584 226.868,185.334 
		228.202,184.25 229.743,183.167 231.785,181.625 234.16,180.584 235.667,180.167 237.25,179.583 238.667,178.5 241.25,178.417 
		242.167,177.667 244.333,176.917 247.417,175.667 251,175.333 252.5,174.417 254.167,173.917 256,173.167 257,173.667 259,174.667 
		260.917,175.5 262,175.583 263.083,175 264.417,175 266,175 267.083,175.5 268.417,176.417 268.833,177 269.417,177.583 
		271.083,177.5 274,177 274.667,176.917 276.583,176.917 277.75,176.667 279,175.583 280.333,175.083 282.417,175.083 
		284.417,174.5 286,174.5 287.667,174.333 289.5,174.083 291.917,174.583 293.583,175 294.583,174.167 296.667,174.167 299,174.167 
		300.417,174.583 301.667,174.583 303.25,174.417 304.417,173.083 305.333,172.25 306,172.333 306.75,172.333 307.917,171.833 
		311.167,172 313.667,172.667 315.083,172.667 316.667,172.667 319,173.417 321.333,174.167 323,174.667 324.167,175.5 
		326.667,175.417 328.75,174.667 330.167,174.083 331.833,174.167 334.083,175.083 336.667,175.917 338.833,176.5 343.667,176.833 
		346.417,176.833 348.75,175.833 350.25,175.083 352.25,175.083 353.334,176.083 354.834,176.5 359.584,176.833 363.5,177 
		366.167,177.333 367.917,177.667 370.584,177.333 373.25,176.667 376.834,176.167 379.834,175.167 382.417,174.833 
		383.417,175.417 385.5,176.25 387.584,176.917 389.417,175.833 390.25,175.167 391.834,174.75 394.417,173.001 395.751,172.417 
		397.501,172.584 399.917,172.334 401.917,171.417 404.417,170.584 406.417,170.251 408.167,170.251 408.917,169.167 
		409.917,168.834 411.834,168.417 413.751,168.334 415.751,168.667 417.084,167.834 419.501,167.001 420.917,167.334 
		423.001,167.251 424.501,166.417 426.084,165.417 427.501,164.917 428.751,163.667 430.584,163.501 431.417,163.501 
		433.167,163.834 435.251,162.584 437.584,161.501 440.584,161.001 443.334,161.584 444.501,162.667 446.667,164.584 
		448.751,166.251 451.667,167.834 455.251,169.667 458.167,170.417 460.334,170.751 463.834,171.834 465.834,172.501 
		467.417,172.251 469.001,172.251 471.251,172.751 473.001,173.917 476.252,174.5 479.668,175.834 483.335,176.75 485.585,176.5 
		487.418,176.584 490.002,176.75 491.752,175.834 494.752,175.584 495.835,174.417 497.252,173.917 499.252,173.75 501.835,173.834 
		503.335,174 504.418,173.667 505.668,172.75 508.418,173.167 510.502,174.334 511.336,175.084 514.42,174.501 518.753,172.917 
		522.086,171.667 527.17,170.667 529.92,169.751 532.92,168.667 536.17,168.667 539.586,168.751 542.586,168.584 547.253,167.834 
		552.67,167.834 556.253,168.167 560.67,169.001 566.42,169.917 571.503,170.667 576.253,172.001 579.42,167.918 582.086,164.918 
		585.586,162.668 587.254,162.251 588.254,162.668 589.92,162.168 591.004,162.668 592.587,162.084 593.837,162.334 
		595.337,162.584 596.42,162.418 597.254,161.668 598.92,161.668 601.004,162.168 602.754,162.418 603.92,161.918 606.087,161.834 
		608.504,160.251 611.42,159.001 614.42,157.251 616.337,156.751 617.67,156.834 620.337,155.168 621.337,153.834 622.42,153.418 
		624.754,153.418 627.42,155.251 631.337,156.001 636.837,156.418 640.17,156.418 643.754,156.168 646.504,155.918 649.92,155.584 
		651.837,156.751 653.504,157.501 656.087,157.834 658.837,157.834 661.087,156.584 663.42,156.168 665.837,156.584 
		667.087,157.918 669.087,161.751 672.587,166.751 674.754,168.334 677.17,168.335 679.92,167.668 683.836,166.751 686.836,165.585 
		691.92,164.751 693.586,164.918 696.253,163.918 699.586,161.918 701.42,161.751 702.67,161.668 704.42,161.085 705.753,161.085 
		707.003,161.668 707.503,162.168 710.086,161.918 711.336,162.418 714.086,162.585 715.92,162.168 717.503,162.335 
		721.336,162.918 723.67,161.085 725.42,160.918 727.67,161.085 729.42,159.168 730.92,159.001 733.003,158.918 735.503,158.918 
		738.17,158.335 739.42,158.418 741.42,158.418 744.003,159.001 745.586,160.835 747.836,164.001 749.753,166.668 750.92,167.001 
		752.003,168.501 753.42,170.001 755.42,168.668 758.003,167.751 760.92,166.085 762.753,165.585 764.753,165.751 766.67,166.251 
		769.503,166.835 771.17,167.835 773.836,167.918 775.753,168.918 777.253,168.585 778.086,168.918 779.753,170.168 
		781.586,170.918 786.586,168.918 790.753,168.335 793.836,169.168 797.42,171.585 798.503,171.251 800.086,172.668 802.17,174.085 
		804.586,174.501 806.17,174.585 807.67,176.585 809.42,179.585 811.42,181.001 814.837,183.251 818.17,184.418 822.087,184.918 
		824.42,185.251 826.42,184.585 828.92,184.251 831.92,184.585 833.837,186.001 835.503,186.835 839.587,186.751 843.003,186.501 
		846.753,184.668 849.92,182.835 853.253,181.918 855.003,182.501 856.669,183.168 857.503,183.835 859.169,183.835 
		860.003,184.668 862.336,186.668 866.919,183.501 869.586,182.751 872.086,182.668 875.836,181.835 878.253,181.835 
		881.003,182.835 883.586,184.751 885.253,183.668 888.586,181.418 893.502,179.335 897.002,177.168 898.752,176.835 
		901.085,178.001 903.085,178.918 904.419,178.918 905.252,179.501 907.419,178.751 909.335,177.251 911.169,177.168 
		913.419,176.751 915.502,175.001 916.835,175.085 918.502,176.418 922.252,178.085 926.835,180.085 929.169,179.835 
		929.919,178.751 930.835,178.668 932.169,179.168 935.002,180.001 937.169,179.418 938.502,178.585 939.585,178.585 
		941.835,179.335 944.334,181.418 945.834,183.168 946.751,183.751 948.084,183.084 949.751,182.751 951.834,182.918 
		953.501,183.501 955.918,185.834 957.668,187.584 958.918,189.668 959.584,190.918 962.918,189.501 966.001,187.084 
		967.834,186.668 	"/>
</g>
<g id="land">
	<polygon fill="none" stroke="#FF0000" stroke-width="0.25" stroke-miterlimit="10" points="493.168,648 581.501,601.497 
		623.501,580.497 698.501,549.164 774.168,525.83 866.167,512.83 898.834,512.83 939.167,519.164 968,526.83 967.999,648 	"/>
	<polygon fill="none" stroke="#FF0000" stroke-width="0.25" stroke-miterlimit="10" points="968,329.854 941.428,364.216 
		936.258,372.122 933.521,387.022 923.182,411.958 923.182,422.297 943.86,425.946 958.456,423.817 968,410.134 	"/>
	<polygon fill="none" stroke="#FF0000" stroke-width="0.25" stroke-miterlimit="10" points="0,233 0,93.75 8.75,89.75 16,93.75 
		26.75,101.5 48.25,122.5 66.5,135.5 74.75,140.75 96.25,146.75 113.5,152.5 119.25,157.5 127.75,162.5 142.5,164.5 162.25,169.25 
		173,170.25 185.75,167 198,168 206.25,172 220,171.5 232.25,174.25 238.25,174 244.75,170.5 257,168.75 271.25,171.25 289.5,170.5 
		304.75,168.75 318.5,168.75 338.75,170.75 356.5,172.25 368.5,174.25 403.25,166.5 419.25,161.25 431.25,157.25 442.25,156.5 
		457.75,164.5 476,168.75 491,169.25 506.5,166 515.75,165.75 550.25,161.375 563,164 571.75,163.75 583.75,157 594.75,157 
		604.5,155.25 620,148.75 631.75,148.75 650.5,148.5 662.75,149.75 675,157 681.75,159.25 700,156.5 713.5,156.5 739.75,153.5 
		753,159.25 774.5,161.375 789.75,164.25 806.75,168.25 823.5,175.75 838.75,180 849,175.5 856.75,173.75 877.5,175.75 895,171.75 
		909,169.75 927.5,171.5 945.591,174.25 954,178.5 968,184.5 968,286.25 933.75,293 920.5,293 866.25,282.25 845.5,274 818.75,266 
		810.75,262.75 809.75,259 820.75,251 836.25,244 841.75,240.5 840.5,235.75 821.75,227.5 792.5,218 771.25,218 744.25,223 721,230 
		693.25,237.25 679.25,241 640.5,239.75 598.75,237.5 563.25,230 543.75,228 532,218.75 517,216.75 502.75,216.5 490.75,216 
		481.5,216.75 472.25,218.5 462,222 445,224 430.5,222.25 424.75,220.5 424.75,217.25 431.25,214.5 437.75,213 436.75,210.375 
		426,209.875 390.5,208 372.5,206.25 359.75,206.5 329.25,205.25 297.5,203.25 284.25,201.75 273.25,199.5 268.25,199 255.25,198 
		244.25,198 238.25,198.5 251,203 297.25,220.25 300.5,222.5 299.75,226 284.5,226.5 245,229.5 211,229.5 183.25,229.5 144.5,226 
		109.75,217.5 84,210.25 55.75,206.25 47.25,207.25 41.5,210.25 45.75,220 51.25,229.75 27.75,231.25 	"/>
</g>
</svg>
