<?xml version="1.0" encoding="utf-8"?>
<!-- Generator: Adobe Illustrator 16.0.4, SVG Export Plug-In . SVG Version: 6.00 Build 0)  -->
<!DOCTYPE svg PUBLIC "-//W3C//DTD SVG 1.1//EN" "http://www.w3.org/Graphics/SVG/1.1/DTD/svg11.dtd">
<svg version="1.1" id="svg" xmlns="http://www.w3.org/2000/svg" xmlns:xlink="http://www.w3.org/1999/xlink" x="0px" y="0px"
	 width="929.281px" height="622.08px" viewBox="0 0 929.281 622.08" enable-background="new 0 0 929.281 622.08"
	 xml:space="preserve">
<image overflow="visible" enable-background="new    " width="3872" height="2592" xlink:href="AK10b_20160918_201825.JPG"  transform="matrix(0.24 0 0 0.24 9.765625e-04 0)">
</image>
<g id="horizon">
	<path fill="none" stroke="#FF0000" stroke-width="0.25" stroke-miterlimit="10" d="M0,132.75l2.422,2.343l2.027,0.338l1.892,1.554
		l2.433,2.027l2.027,0.811l1.757-0.203l0.878,1.487l0.676,1.284L15,143l0.125-1.875l1.125-1.5l8.125-8.75l1.75-1.5L28.667,130
		l2.667,0.917l1.083,1.25l1.083,1.417h2.25l1.083,0.333l3.5,2.75l2.75,2.833l2.417,2.167l1.583,2.25l1.333,0.417l2.417,1.167
		L53,146.417l1.417,0.5l2.083-0.083l3.25,0.333l1.75,0.667l3.833,0.083l0.833-0.5l1.25-0.083h1.417l1.333-0.75l1.333-0.75
		l1.583,0.667l3.833,3.5l3,2.583l4.75,3.833l4.167,3.25l2,1.75l1.583,2.083l4,0.417l1.917,0.333l1.083-0.333l1.167,1.417l1.917,1.5
		l1.25,2.167l1.5,2l1.417,0.167l2-0.25l1.833,0.833h1.75l1.667,0.667l1.333,0.5l2.167,0.083l1.833-0.167l2.333,0.833l1.25,0.5
		l3.917-0.917l2.333-0.667l2.25-0.25l3.583-0.333l3.5-0.667l4.5-0.583l1.75-0.294l1.938-0.63l1.211-0.581l1.308-0.775l0.63-0.291
		l1.163-0.048l1.647,0.63l2.354,0.489l3.75-0.25l1.75-0.083l2.833-1.667l3.833-1.75l4.833-1.667L175,163.25l1.5,0.083l3.332-1.75
		l1.583-1.667l1.417-0.833l3.5-1.833l4.917-2.667l2.917-3l1-0.667l1.917,0.083h1.583l1.083-0.833c0,0,1.667,0,1.917-0.083
		s1.417-1.75,1.417-1.75L206,147.75l2.333-1.75l3.167-2l1.333-0.75l1.833-0.75l1.333-0.25l0.5-1.083l1.583-1.167l2.75-0.75
		l1.25-1.25l0.75-0.917l1.583-1.75l0.833-1.917l1-2l1.5-1.75l2.083-0.667l1.167-0.417l1.333-0.667l0.917-0.667l1,0.25l0.667,0.333
		l0.917-0.833h1.917l1.75-0.333l1.5,0.5l0.583-1l0.917-0.417l1.75-0.916l2.083-2l1.5-1.417l1.583-0.167l1.167,0.333l0.75,1.417
		l1.833,0.083l1.667,0.25l0.833,1.167h1.75l1.5,0.417l1.5,0.667l2.083,1.75l2.083,1.667l2.25,0.167h1.417l1.5,0.5l1.833,0.5
		l0.917,0.25l0.833-0.333l2.333,0.667l2,1l1.25,1.25l1.75,0.583l2,1l1.25,1.167l1.083,1.583l2.083,0.167l1.833,0.833l2,1.833
		l2.583,2.25l2.667,1.75l2.5,0.5l2.25,0.75l0.667,0.75l2.417,2.583l1.667,1.167l1.5-0.083l2.083-0.5l1.417,0.083l1.833,0.25
		l1.75-0.333h2l1.583,0.583l1.583-0.083l6.25-2.5l4.667-2.583l2.833-1.75l2.25-2.25l2.5-1.75l1.333-0.667l1.25-1.25l2.833-1.917
		l1.667-0.083l1.833-0.583l2.083-1l1.833-0.417h1.833l2-0.583l1.5-0.417l1.75-0.25l4.917-3l3.5-3.583l4.333-4.917l2.416-3l1.167-1
		l1.5,0.5l1.333-1.667l1.833-0.583l1.25,0.667l2,0.917l2.083,1.167l0.917,1.25l2.333,4.833l2.917,3.583l1,0.583h1l1.083,1.083
		l0.417,0.917l0.917,0.75l1.417,1.333l1.75,1.917l0.917,1.5l0.917,1.833l2.5,2.167l0.917,1.333l0.583,0.75l2.167,2.333l2.667,2.167
		l0.333,1.167l2.5,1.833l2,1.5l3.167,1.667l3.833,0.583l3,0.583l2,0.583l1.667,0.583l1.5,0.583l0.833,1.333l2.083,0.75l2.333,1.167
		l1.25-0.167l1.167-0.167l1-0.667l0.667-0.917l1.75-0.083l2.417,0.167l2.667,0.25l2.25,1.25l1.917,0.75h2.5l3.917,1.083l3.667,1.333
		l2,1.167l1.833,2.667l1.917,2.833l2.5,2.333l2.75,1.417l1.25,0.917l1.166,1l2.834-0.583l2.75-0.5l1.416-1l1.664-0.417l1.166,0.083
		l1.584,1l1.332,0.167l1,0.333l1.75-0.5l1.668-0.083l1.332,0.417l0.834,0.917l2.75,0.167l2.416,0.25l2.334,0.333l2.084,0.167
		l1.5,0.333l2.332,0.833l4.584,1.5l1.334-0.833l2-0.333l1.332,0.167l2,0.667l1.584,0.417l1.5,1.333l6,1.583l5.166,1.5l2.334,0.5
		l2.084-0.333l2.75-0.083l1.666,0.083l1.5,1.333l1.75,0.917l2.584,0.833l2.416,1l1.584,0.5"/>
	<path fill="none" stroke="#FF0000" stroke-width="0.25" stroke-miterlimit="10" d="M560.244,185.834l3.75-2.583l2.416-2.083
		l3.584-2.25l2-0.417l1.416-1.167l2-0.417l1.418-0.167l3.582-2.083l3.584-1.167l3.334-1l1.25-0.917l0.834-0.333
		c0,0,0.75-0.083,1,0.083s1.166,0.667,1.166,0.667l2.084,0.917l2.25,0.5l0.832-0.667l2.668-0.083l1.416,0.25l0.834,0.833l0.916,1
		l6.166-0.917l1.584-0.417l1.416-0.667l1-0.75l1.334-0.083l4.084-0.917l3.668-0.333l3.416,0.25l2.916-0.667l3.584,0.083h2.834
		l1.582-1.333l1.75-0.917l1.25-0.583l2.668-0.167l2.416,0.25l1.166,0.167h1.75l2.668,0.667l2.666,0.667l1.834,0.667l2.666,0.333
		l1.584-0.417l2.166-0.667l0.834-0.25h1.166l0.75,0.083l1.25,0.333l3.334,1.083l3.416,0.083l3.834,0.333l4.084-1.167l2.166-1.083
		l1.416-0.167l1.334,1l1.916,0.417l3,0.167l4.168,0.417h4.082l2.75-0.083l3.584-1l8.084-2.083l1.582-0.25l1.75,0.333l2.834,1.25
		l1.584-0.25l1.666-0.833l4.25-2.583l1.25-0.667l2.584-0.417l3.084-0.833l6.166-1.75l3.25-1.417l3.166-0.667l2.5-0.083l1.668-1.083
		l2-0.667l1.082-0.083l1.668,0.083l2.582-1.167l4.168-1.75l1.25-0.667l1.416-0.333h2.666h0.75l3-1.917l1.668-0.583l2.832-0.833
		l2.918,0.5l1.916,1.083l2,1.917l2.5,1.25l8.5,3.5l2-0.25l1.918,0.417l3.332,0.917l1.918,0.75l1.582-0.167l2-0.333h2.168
		l1.082,0.833l1.334,0.833l1.416-0.333l1.918,0.417l2.5,0.667l2.332,1l3.084,0.417l1.75-0.25h4l1.584,0.25l2.416-1.417l2.334-0.417
		l1.5-0.583l1.166-0.917l1.416-0.583l3.584-0.583l2.084,0.583l0.75,0.75l1.332-1.167l1.25-1.083h2.25l1.668,0.5l2.416,1.167
		l4.166-0.667l3.834-1.25l5.416-1.75l6.334-2.167l6-1.833l3.084-0.5l3.332-0.083l5.418-0.667l7.334-0.75l2.916,0.083l4.584-0.167
		l7.916,0.583l2.834,0.417l7.416,0.75l3.334,0.583h3.113"/>
</g>
<g id="coast">
	<polyline fill="none" stroke="#FF0000" stroke-width="0.25" stroke-miterlimit="10" points="617.169,198.083 620.335,198.583 
		624.501,199 631.751,199.25 638.085,199.416 647.751,199.75 654.669,199.833 659.251,200 663.169,200.083 668.085,200.333 	"/>
	<polyline fill="none" stroke="#FF0000" stroke-width="0.25" stroke-miterlimit="10" points="753.505,212.666 761.671,213.833 
		767.921,214.583 775.587,215.25 782.837,215.333 789.173,215.166 793.673,215.166 	"/>
</g>
<g id="gcp">
	<circle id="doug-17" fill="#FF0000" cx="774.236" cy="149.938" r="0.25"/>
	<circle id="doug-13" fill="#FF0000" cx="378.787" cy="114.589" r="0.25"/>
</g>
<g id="land">
	<path fill="none" stroke="#FF0000" stroke-width="0.25" stroke-miterlimit="10" d="M0,200.873V128.54l13.14,2.667l5.333-2.667l8-4
		l13.667,2.333l7,6.333l3,1.667l15.667,3l6.667-1.667l9,4.667l22.667,16l21.333,5.833h23.333l18.333-5.167l34.667-14.333l17.333-15
		l15.333-9.667l15-3.956l22,5.623l18.667,9l15,12.667l13-0.667l11.667-7.667l13.333-8l14.333-8.333l13-7.667l18,1.667l7.667,8l13,14
		l6,6.333l11.333,3.333l15.667,4.667l27.333,11.667l18.333,5.333l15.667,3.294l20,1.373l36.771,0.667l26.229-2.04l26-4.627
		l76.333-0.333l30-2.667l16-5l20.667-5.518l18.515-5.482l14.818,2.667l8,2.815l15.333,0.52l16.667,4.999l32.333-4.999l22.667-5.002
		l27.667-3.333l17.808,1v79.793l-103.142-5.127l-21.666-2.206l-36-1.46l-12.667-3.333c0,0,0-2.667,1-2.667s8.333-2.333,8.333-2.333
		l-4.666-3.333l-14.334-0.333l-55.333-1.333l-37.667-0.667l-35.333-3l-18.333-0.667l-16.667-0.333h-9.333l20,7.333l26.333,8.667
		l8.333,3.667l4,1.667l1.334,2.333l-9,3.127l-40.334,1.873h-92l-22-3l-31.667-7l-21.333-4h-11.667l0.333,2.333l8.667,5.667l5,6
		l-3,5.333l-20.667,2H365.14l-29-2.333l-24-2.667l-17.333-9.667l-22.667-3.667l-23.333-0.667l-34,0.333l-10,3.333l-21.333,2.667
		l-40.333,2.333l-41.667-4l-23-4.333l-6-3.333l-1.333-5l3.333-3.667l-1-2l-57.667,1L0,200.873z"/>
</g>
</svg>
