<?xml version="1.0" encoding="utf-8"?>
<!-- Generator: Adobe Illustrator 16.0.4, SVG Export Plug-In . SVG Version: 6.00 Build 0)  -->
<!DOCTYPE svg PUBLIC "-//W3C//DTD SVG 1.1//EN" "http://www.w3.org/Graphics/SVG/1.1/DTD/svg11.dtd">
<svg version="1.1" id="svg" xmlns="http://www.w3.org/2000/svg" xmlns:xlink="http://www.w3.org/1999/xlink" x="0px" y="0px"
	 width="724px" height="486px" viewBox="0 0 724 486" enable-background="new 0 0 724 486" xml:space="preserve">
<image overflow="visible" enable-background="new    " width="2896" height="1944" id="image" xlink:href="AK10_20090827_202655.JPG"  transform="matrix(0.25 0 0 0.25 0 0)">
</image>
<g id="gcp">
	<circle id="orb" fill="#FF0000" cx="187.75" cy="57.812" r="0.25"/>
	<circle id="slant" fill="#FF0000" cx="650.375" cy="91.312" r="0.25"/>
	<circle id="beetle" fill="#FF0000" cx="660.562" cy="110.75" r="0.25"/>
	<circle id="T20090827-05" fill="#FF0000" cx="657.625" cy="118" r="0.25"/>
	<circle id="T20090827-06" fill="#FF0000" cx="304" cy="104.5" r="0.25"/>
	<circle id="T20090827-07" fill="#FF0000" cx="714.312" cy="63.5" r="0.25"/>
	<circle id="T20090827-08" fill="#FF0000" cx="160.125" cy="30.375" r="0.25"/>
	<circle id="T20090827-09" fill="#FF0000" cx="172.75" cy="38.188" r="0.25"/>
	<circle id="T20090827-10" fill="#FF0000" cx="130.25" cy="26.25" r="0.25"/>
	<circle id="T20090827-11" fill="#FF0000" cx="639.5" cy="425.5" r="0.25"/>
</g>
<g id="coast" display="none">
	<polyline display="inline" fill="none" stroke="#FF0000" stroke-width="0.25" stroke-miterlimit="10" points="363.125,104.791 
		364.708,104.541 366.417,104.458 368.333,104.375 	"/>
	<polyline display="inline" fill="none" stroke="#FF0000" stroke-width="0.25" stroke-miterlimit="10" points="369.792,103.541 
		372.833,103.458 374.958,103.458 377.042,103.5 378.5,103.666 380.417,103.833 381.917,103.958 384.25,103.958 387.583,103.916 
		389.792,103.791 392.667,103.708 393.708,103.625 	"/>
	<polyline display="inline" fill="none" stroke="#FF0000" stroke-width="0.25" stroke-miterlimit="10" points="375.833,82.125 
		376.958,82.5 377.916,82.667 378.958,82.833 379.916,82.875 381.665,83.167 384.124,83.167 385.374,83.292 386.457,83.417 
		387.665,83.667 388.707,83.792 390.04,83.917 390.79,83.958 391.999,83.875 392.707,83.917 394.332,84.042 396.874,84.333 
		399.332,84.458 402.374,84.625 406.332,85 409.207,85.125 411.955,85.292 414.622,85.583 416.955,85.625 418.997,85.792 
		420.413,85.833 423.622,86.083 426.622,86.208 430.497,86.583 432.247,86.708 433.413,86.833 434.33,86.958 	"/>
	<polyline display="inline" fill="none" stroke="#FF0000" stroke-width="0.25" stroke-miterlimit="10" points="454.703,89.25 
		459.12,89.5 463.787,89.792 468.328,90.042 472.12,90.417 476.578,90.667 480.328,90.917 484.62,91.208 489.661,91.458 
		493.411,91.75 496.786,92.083 501.661,92.417 504.619,92.625 507.328,92.875 510.953,93.208 	"/>
	<polyline display="inline" fill="none" stroke="#FF0000" stroke-width="0.25" stroke-miterlimit="10" points="497.541,101.417 
		500.791,102.042 503.999,102.667 507.166,103.125 511.583,103.917 514.833,104.292 	"/>
	<polyline display="inline" fill="none" stroke="#FF0000" stroke-width="0.25" stroke-miterlimit="10" points="635.459,114.25 
		638.459,114.875 642.167,115.667 645.751,116.25 649.709,116.833 653.001,117.333 656.251,117.833 	"/>
</g>
<g id="terminus">
	<polyline fill="none" stroke="#FF0000" stroke-width="0.25" stroke-miterlimit="10" points="667.793,119.583 671.627,119.833 
		675.377,120.125 680.127,120.5 683.877,120.625 687.252,120.791 691.25,121.125 	"/>
	<polyline fill="none" stroke="#FF0000" stroke-width="0.25" stroke-miterlimit="10" points="705.688,125.25 708.125,125.5 
		711.062,126 712.812,126.312 	"/>
</g>
<g id="horizon">
	<polyline fill="none" stroke="#FF0000" stroke-width="0.25" stroke-miterlimit="10" points="48.095,0 49.278,1.024 50.139,1.104 
		50.784,1.266 51.134,1.643 51.726,2.396 52.425,3.605 52.828,4.144 53.043,4.386 54.065,4.386 54.926,4.574 55.813,4.843 
		56.459,5.112 57.427,5.918 58.691,7.075 60.413,8.796 61.972,10.114 63.075,11.028 63.962,11.62 64.823,11.997 65.738,12.212 
		66.571,12.427 67.701,12.75 69.18,13.314 70.041,13.917 70.958,14.875 71.75,16 72.041,16.5 72.708,16.792 73.125,16.875 
		73.5,17.25 73.708,17.625 73.916,18.208 74.666,18.5 75.041,18.5 75.75,18.333 76.333,18.208 77.75,18.25 79.333,18.458 
		80.291,18.792 81.541,18.833 82.25,18.583 83.5,18.542 85,18.458 85.75,18.458 86.416,18.5 87,18.667 87.416,19.125 87.666,19.208 
		88.5,19.125 89.666,18.917 90.25,18.625 92.666,18 93.166,17.792 94,17.5 95.083,17.292 96.375,16.917 97.208,16.542 98.083,16 
		98.958,15.667 99.5,15.333 99.75,15.167 99.958,14.875 100.375,14.458 101.541,13.917 102.5,13.75 103,13.583 103.375,13.292 
		104.25,12.5 105.166,11.333 106.04,10.583 107.123,9.875 107.915,9.375 108.748,9.125 109.373,8.958 109.873,8.042 110.373,7.667 
		111.79,6.875 112.873,6.375 113.915,6.125 114.915,6 115.707,6.042 116.207,5.875 116.623,5.5 117.207,5.292 118.332,4.875 
		119.623,4.5 120.332,4.375 121.29,4.333 121.707,4.542 122.873,4.625 123.957,4.5 124.79,4.167 125.29,3.833 126.123,3.667 
		126.748,3.792 127.915,3.708 129.123,3.208 130.248,2.792 131.415,2.25 132.332,1.583 134.373,0.167 	"/>
	<path fill="none" stroke="#FF0000" stroke-width="0.25" stroke-miterlimit="10" d="M160.456,0.042l1,1.375l1.333,0.083l0.583,0.417
		l0.458,0.708l0.292,0.333l0.542,0.792l-0.083,0.458l0.583,0.417l1.125,0.833l1.5,1.417l1.125,1.292l0.208,0.75
		c0,0,0.208,0.625,0.292,0.75s0.5,1,0.5,1l0.542,1L170.997,12l0.833,0.708l0.917,0.958c0,0,0.417,0.542,0.458,0.667
		s0.208,0.833,0.208,0.833l0.792,0.875l1.208,0.792l1.542,2l1.458,1.417l0.542,0.417l0.208,0.417l0.208,0.458
		c0,0,0.167,0.5,0.292,0.583s0.667,0.708,0.667,0.708l1.875,1.375l1.625,0.958l1.625,1.292l1.417,0.792l1,0.042l0.708,0.042
		l0.958,0.375L190.622,28l1.167,0.333l1.167,0.333l0.458,0.292l0.875,0.208l0.875,0.042l0.792,0.292l0.917,0.25l0.958,0.542
		l0.833,0.667l0.5,0.417l0.542,0.5l0.458,0.333l0.542,0.042l1,0.5l0.5,0.208l0.375,0.208l0.625,0.625l0.625,0.458l0.542,0.042
		l1.125-0.208l0.292-0.042L206.372,34l0.417-0.292l0.292-0.333l0.458-0.542l0.167-0.292l0.542-0.208l0.792,0.167l1.625,0.25
		l0.5,0.083h0.708l1.125,0.333l1.042,0.292l1,0.292l1.375,0.583l0.833,0.333c0,0,0.292,0.208,0.417,0.292s0.5,0.25,0.5,0.25
		s0.292,0,0.417,0.042s0.833,0,0.833,0l0.542,0.167l1.25,0.291l1.708,0.667l1.75,0.542l1.875,0.625l1.333,0.542l0.833,0.417
		l0.708,0.583l0.708,0.625l0.458,0.708c0,0,0.167,0.208,0.25,0.417s0.667,0.833,0.667,0.833L232.08,43l0.958,1.333l0.875,1l1,0.917
		l1,1.25l1.083,0.75l0.625,0.292l0.667,0.333l0.833,0.375l0.667,0.458l0.75,0.917l0.417,0.583l1.542-0.375l1.042-0.208l0.208-0.208
		l0.375-0.125l0.708,0.083h0.25l0.417-0.125L246.58,50l0.583-0.208l0.875-0.25l0.375-0.167l0.542-0.25l0.458-0.208h0.333
		l1.083,0.375l0.25,0.5l0.417,0.333l0.542,0.125h0.292h0.375l0.417,0.125l0.583,0.375l0.167,0.083l0.417,0.042l0.667-0.208
		l0.375-0.208l0.458-0.125l0.875-0.001l1.292,0.208l0.417,0.458l0.458,0.458l0.458,0.333l0.667,0.208l1.458-0.042h0.583l1,0.208
		l0.792,0.167l0.625,0.417l0.292,0.208l0.417,0.042l0.542,0.167l0.458-0.333l0.625-0.083l0.417,0.208l0.5,0.417h0.417l1.25,0.042
		c0,0,0.167-0.042,0.417,0.083s1,0.542,1,0.542l1.667,0.5l1.083,0.375l1.417,0.458l0.542,0.375l0.792,0.208l0.583-0.083l0.458-0.333
		l0.25-0.417c0,0,0.25-0.042,0.417,0s0.708,0,0.708,0l0.25-0.125l0.667-0.083l0.792,0.25l0.875,0.417l0.875,0.5l1,0.125l0.917,0.417
		l0.417,0.167l0.25,0.292l0.292,0.375c0,0,0.167,0.333,0.292,0.375s0.625,0.375,0.625,0.375l0.583,0.292c0,0,0.875,0.292,1,0.292
		s2.417,0.5,2.417,0.5l1.458,0.25l1.917,0.583l1.25,0.542l0.792,0.333l0.833,0.417l0.875,0.458h1.583l1.167-0.292h1.25l1.417,0.083
		h0.833l0.917,0.083l0.958,1.042l1,0.875l0.75,0.583l0.792,0.375l0.875,0.292l1.125,0.5l1.125,0.375l1.125,0.542l0.958,0.542l1,0.5
		l0.888,0.608l0.891,0.838l0.891,0.891l0.681,0.681l1.101,0.314l0.786,0.314l0.734,0.524l0.576,0.157l0.629-0.262l0.681-0.419
		l0.786-0.524l0.577-0.472l0.419-0.681l0.262-0.681l0.262-0.786l0.21-0.314l0.153-0.25l0.75-0.125l1.5-1.188l1.688-1.438
		l2.125-1.438l2.062-1.188l1.5-0.5l1.438-0.312l0.625-0.438l0.312-0.438l0.938-0.438l1-0.062h0.875l0.688-0.5L340.5,59l1.188-0.438
		l2.312-1l1.688-0.25l1.562-0.375l1.125-0.188L349,56.312l1.25-0.5l0.625-0.312l0.75-0.25H352l0.938,0.25l0.188,0.312l1.062,0.375
		l0.625,0.25l1.25,0.438l0.625,0.5h0.5L357.875,57l0.312-0.188l1,0.062L360,56.812l1.188,0.062l0.5,0.312l0.938,0.875l0.438,1.062
		l1.312,0.188l3.375-0.562L369,58.5l0.938-0.062h1.25l0.938-0.812l0.438-0.312l1.125-0.25h1.188l1.562-0.125l1.75-0.5l2-0.438
		l1.312,0.188l0.938,0.25l1.25,0.125l0.562,0.062h0.625l1.125-0.25l2.188-0.188h1.062h0.625c0,0,0.812,0.25,1.062,0.25
		s1.062,0,1.062,0s0.875-0.375,1.125-0.375s1-0.375,1-0.375l0.625-0.438l0.75-0.438l0.438-0.125h0.812l0.625-0.375L397.938,54h0.625
		l1.5,0.125l0.75,0.062l1.062,0.125l0.688,0.438l0.5,0.188L404,54.875l0.938-0.125l0.875,0.188l2,0.875L409.5,56l1.188,0.75
		l1.438,0.625h1.125l0.688-0.188h0.75h0.375l1.438-0.5l0.625-0.438l1-0.125l2.125,0.625l1.312,0.5l1.688,0.562l1.25,0.5l1.125,0.25
		h1.75l1.688,0.125l1.312,0.125l1.5-0.062l2-0.625l1.188-0.562l0.75-0.562L437,56.938l0.562,0.188c0,0,0.938,0.562,1,0.75
		c0.062,0.188,0.5,0.5,0.5,0.5l1.688,0.25l2.375,0.25l1.562,0.25l1.25-0.188h1.125l1.688,0.188l2.125,0.5c0,0,2-0.25,2.188-0.188
		C453.251,59.5,456,58.875,456,58.875l2.812-0.5l2.188-0.25l1.625-0.562l0.688-0.25l1.188-0.062l1.125,0.062l0.625,0.312l1.438,0.75
		l0.75,0.25h0.312l1.75-0.188l1.25-0.688l1.812-0.625l1.375-0.938l1-0.562l0.5-0.25l0.938-0.312h1.062h1.062l1.562-0.375L483.75,54
		l2.812-0.5l1.5-0.375l1.188-0.375l0.5-0.812c0,0,0.75-0.25,0.938-0.25c0.188,0,0.625,0,0.938-0.062s0.812-0.312,0.812-0.312
		l1.312-0.125c0,0,0.375,0.125,0.625,0.188S495,51.438,495,51.438l1.375-0.5l0.938-0.312l1.438-0.312l0.875-0.062l1.438,0.438
		l1.125-0.625l1.125-0.625L504.75,49l1.438-0.812L507.5,47.5l0.875-0.5l1.125-0.188l0.875,0.062l1.438,0.312l1.062,0.125
		l0.938-0.875l2.25-1.125l1.625-0.625l1.375-0.125l1.625,0.25l0.875,0.25L522.75,46l0.688,0.562l0.75,0.875l1.25,0.875l0.625,0.562
		l2.312,1.688l2.062,0.812l2.188,1.125l1.875,0.688l1.25-0.062l1.125,0.188l1.812,0.562l1.938,0.875l0.875,0.438l1.25,0.375
		L544,55.25l0.5-0.125l0.75-0.188h1l1.562,0.75l0.812,0.625l0.562,0.312l1.125,0.062l0.938,0.188l0.812,0.312l1.312,0.438
		l1.562,0.562l2.562,1.125l2.75,0.062L562,59.25l1.75,0.375l0.938,0.062l0.938-0.312l1-0.688L568,58.375h0.875l1.312,0.062l1-1
		l1-0.688l1-0.312h1.438l1,0.062l1.125,0.188l0.562,0.375l0.688,0.25l0.688-0.062l0.688-0.5l0.5-0.812l0.312-0.125l1.188-0.062
		l1.188,0.125l1.312,0.562l1.688,1.062l1.188,0.438h1.188l1.688-0.438l1.062-0.5L591,56.875l3.688-1.375l1.875-0.5L598,54.625
		l1.688-0.312l1.438-0.375l2.438-0.812l2.375-0.688l1.375-0.312l1.688-0.25h1.625l1.312-0.125h1.688l1.875-0.125l2.312-0.312
		l2.125-0.125l1.562-0.125l2.75-0.125h1.312L628,50.875h1l1.688,0.188L633,51.688L634.188,52l1.875,0.312l1.438,0.125l2.125,0.438
		l3.312,0.562l1.312,0.188l1.938,0.688l1.375,0.375l1.312,0.438l1,0.062l0.688-0.25l1.812-1.875l1.438-1.375l2.562-2.625
		l1.312-1.438l1.125-1l0.688-0.562l1-0.25l0.625-0.125l1.25,0.062h1.75l1.5-0.25l0.875-0.125l0.938-0.062h0.875l1.562,0.812
		l0.812-0.25l1.375-0.812l0.812-0.438l0.562,0.25l0.875-0.125h0.625c0,0,0.125,0.062,0.312,0.188s0.625,0.312,0.625,0.312
		l0.688,0.312l0.562,0.25l0.812-0.188l0.438-0.5l0.5-0.25l1.062-0.062l1.312-0.062l2.125-0.375l1.375-0.625l1.625-1l1.125-0.312
		l1-0.5l0.688-0.5l0.75-0.5l0.875-0.375l0.625-0.125l1.188-0.125l0.688,0.062h0.5l0.438-0.25l0.75-0.5l0.875-0.812l0.5-0.938
		l1.562-0.438l1.125-0.312L700,36.938h0.812l0.688,0.312l0.625,0.5l0.5,0.312L704,38.5l1.5,0.25l2.938,0.375l2.5,0.188l0.75-0.125
		l0.812-0.125l1.125,0.188h0.812h0.938l1-0.312l1-0.062l2.25-0.188h1.5l1.625-0.125L724,38.25"/>
</g>
<g id="land">
	<polygon fill="none" stroke="#FF0000" stroke-width="0.25" stroke-miterlimit="10" points="376.75,486 393.5,478.25 412,476.25 
		430.25,476.25 463.25,478.75 480,481.125 495.75,478.5 510.5,478.5 544.75,472 576,467.25 601.75,457.5 623.5,449.25 
		635.75,447.75 647,449.25 652.5,451 667.75,440.5 683.25,434.75 705.25,430 719.75,425.75 724,425.25 724,486 	"/>
	<path fill="none" stroke="#FF0000" stroke-width="0.25" stroke-miterlimit="10" d="M0,69V0h56.25L68.5,6L76,9.604h7.75h7.484
		L99.75,8.25l7.5-3.75L119.5,0H168l15.5,19.208l9,5.042l7,2.25l11,3.625l24.25,8.313L238,43.5l2,1.25l7.25,0.5l10,0.5l9.5,2.75
		l6.75,2.75L281,52l11.75-2l9,0.25l16.75,1.5l12.25,1.75l6.25,2.25L350.25,53l14-1l13.5,0.25l21-2.5L414,51l14,2.25l23.75,1.5
		l21.75-3.25l15-2.25l14.5-5.5l13.5-2L527.75,43l11.75,4.75l10,2.25l12.25,2.25l12.25,0.5L586.5,52l7.75-1.5l8.25-2l13.5-1.25
		l12.5-0.75l13.25,1.25h8.375l9.125-6.25l10.75-1l14-1l7.25-4.75l4.25-2l8.5-0.25l10.562,1H724v82.542l-19.5-1.792H696L686,111
		h-6.479H672l-11.688,3.25H653l-9-1.25l-4.5-2l-4.041-3.5l-10.959-6.083l-18-4.167l-21-4.042L566.25,95H553.5l-6,1l-4.5,2.75
		l-4.75,4.104h-10l-22.062-1.438L503,99l7.953-2.75l2.547-1.5l0.5-1.542l-3.047-2.146L500.25,89.25h-26L459,86.958h-14.75
		l-6.75-2.417l-9.25,0.208L403,83.5l-22.75-1.75L371,80l-4.25-0.75L363.5,78l-9-1l-11-0.25h-6l-3.25,0.5c0,0,1.75,1,2.75,1.5
		s11.25,4,11.25,4l15,6l10,4l8.5,4L388,98.5l2,2.25l0.25,1.5l-5,0.75l-10,0.25l-5.75,0.5h-12.25L337,103h-11.75l-13-0.5l-6.5-1.25
		l-7.5-3.25L288,95l-25-4.75l-40.75-5l-22.75-4l-11.5,1l-6,1.25l-4,3.75L173,90l-10.75-1L141,85.75L105.5,81l-19-3.25l-18.25-3.5
		l-38.25-6H19L7.75,69.5L0,69z"/>
</g>
</svg>
