<?xml version="1.0" encoding="utf-8"?>
<!-- Generator: Adobe Illustrator 16.0.4, SVG Export Plug-In . SVG Version: 6.00 Build 0)  -->
<!DOCTYPE svg PUBLIC "-//W3C//DTD SVG 1.1//EN" "http://www.w3.org/Graphics/SVG/1.1/DTD/svg11.dtd">
<svg version="1.1" id="svg" xmlns="http://www.w3.org/2000/svg" xmlns:xlink="http://www.w3.org/1999/xlink" x="0px" y="0px"
	 width="929.281px" height="622.08px" viewBox="0 0 929.281 622.08" enable-background="new 0 0 929.281 622.08"
	 xml:space="preserve">
<image overflow="visible" enable-background="new    " width="3872" height="2592" id="image" xlink:href="AK10b_20150724_172806.JPG"  transform="matrix(0.24 0 0 0.24 0 0)">
</image>
<g id="gcp">
	<circle id="slant" fill="#FF0000" cx="560.958" cy="201.362" r="0.25"/>
	<circle id="beetle" fill="#FF0000" cx="572.085" cy="221.05" r="0.25"/>
	<circle id="orb" fill="#FF0000" cx="62.895" cy="169.806" r="0.25"/>
</g>
<g id="coast">
	<polyline fill="none" stroke="#FF0000" stroke-width="0.25" stroke-miterlimit="10" points="286.413,218.523 290.046,218.358 
		293.348,218.193 295.907,218.069 297.765,217.986 299.003,217.656 	"/>
	<polyline fill="none" stroke="#FF0000" stroke-width="0.25" stroke-miterlimit="10" points="0,224.125 6.562,224 13.75,223.938 
		23.188,224 29.938,224 40.562,223.688 46,223.688 50.438,223.562 56.688,223.125 61.562,223.125 67,223.062 71.812,222.812 
		74.812,222.688 78.188,222.25 80.438,221.438 82.188,221 85.312,220.438 89.562,220 93,219.812 97.25,219.75 101.625,219.625 
		106.75,219.438 110.312,219.312 115,219.562 118.625,219.562 123.25,219.5 130.312,219.438 136.688,219.625 143,219.75 
		150.25,219.812 155.438,219.938 157.914,219.803 166.583,219.679 173.765,219.431 179.875,219.349 184.085,219.514 
		187.346,219.596 192.217,219.72 195.932,219.761 207.571,219.72 213.103,219.844 219.418,219.844 224.702,219.844 228.871,220.009 
		232.917,219.926 238.077,219.803 241.957,219.72 245.795,219.926 249.8,220.133 251.863,220.215 253.101,220.092 	"/>
	<polyline fill="none" stroke="#FF0000" stroke-width="0.25" stroke-miterlimit="10" points="274.549,194.571 276.239,194.677 
		279.125,194.853 280.639,195.169 281.835,195.521 283.103,195.663 284.511,195.733 287.538,195.874 289.755,196.226 
		290.952,196.472 291.973,196.753 293.416,196.753 295.422,196.93 297.991,197.035 299.646,197.035 300.913,197.105 
		302.391,197.352 304.081,197.528 305.524,197.633 306.333,197.633 308.128,197.458 309.36,197.493 310.311,197.704 311.332,197.81 
		313.162,197.845 313.62,197.774 314.358,197.774 316.013,197.845 317.737,197.845 318.617,197.915 319.814,198.091 
		321.398,198.126 322.982,198.232 325.727,198.196 327.417,198.161 	"/>
	<polyline fill="none" stroke="#FF0000" stroke-width="0.25" stroke-miterlimit="10" points="344.664,201.083 348.183,201.259 
		351.421,201.505 355.364,201.646 357.581,201.751 360.503,201.787 362.791,201.822 	"/>
	<polyline fill="none" stroke="#FF0000" stroke-width="0.25" stroke-miterlimit="10" points="403.833,212.417 405.417,212.792 
		407.292,213 409.083,213.417 411.083,213.917 414.5,214.542 417.958,215.292 420.75,215.625 424.542,216.167 427.333,216.667 
		429.625,216.875 431.875,217.042 433.458,216.917 435.292,216.917 437.417,216.917 	"/>
	<polyline fill="none" stroke="#FF0000" stroke-width="0.25" stroke-miterlimit="10" points="552.125,225.875 555.75,226.333 
		559.332,226.792 563.291,227.375 569.5,228.5 573.5,229 578.041,229.458 582.041,229.75 587.583,229.917 592.25,230.125 
		595.166,230.208 600.666,230.583 607.333,230.875 611.208,231.083 617.166,231.417 621.208,231.667 625.875,232 628.833,232.208 
		633.5,232.5 637.291,232.625 641.25,233.125 642.667,233.083 645.375,233.25 648.125,233.333 653.208,233.5 656.042,233.667 
		658.667,233.666 660.875,233.749 662.75,233.916 663.5,234.082 663.792,234.499 665.208,234.541 667.708,234.457 672.126,234.416 
		676.542,234.582 680.542,234.541 684.376,234.541 690.542,234.624 694.96,234.832 698.917,234.957 700.71,235.082 702.375,235.062 
		706.688,235.375 711.375,235.5 717.5,236 722.875,236.562 728.062,237 732.562,237.438 736.562,237.625 739.5,237.938 
		742.625,237.938 746.75,237.875 750.5,238 754.938,238.125 759.25,238.375 763.062,238.438 766.625,238.375 769.312,238.562 
		771.125,238.75 773.812,238.938 779,238.812 781.438,238.812 786.438,239.125 	"/>
</g>
<g id="horizon">
	<path fill="none" stroke="#FF0000" stroke-width="0.25" stroke-miterlimit="10" d="M221.93,179.331l1.958-1.458l3.458-2.542
		l2.875-1.917l1.896-0.911l1.875-0.188l2.625-1l3.25-1.188l5.375-1.562l2.188-0.625l2.125-0.5l2.062-1h0.75l0.375,0.188l1.25,0.625
		l1.75,0.5l1.5,0.625l1.062-0.062L260.75,168l1.312,0.062l1.312,1.062l0.625,1.062l1.375,0.25l3.5-0.25l3.062-0.5l0.625-0.125
		l1.188-0.75l1.438-0.75l2.5-0.062l2.312-0.5l2.375-0.188l1.875-0.062l1.688,0.438l1.75,0.062l2-0.25l1.938-0.25l2.875,0.312h1.375
		l1.188-0.5l1.312-1l0.688-0.375l1.375-0.5l2.312-0.062l4.125,0.312l2.75,0.125l3.438,1.188l3.75,1.75l1.938-0.062l2.25-0.25
		l1.062-0.688l0.75-0.312l2,0.375l1.625,0.438l2.812,1l1.812,0.375l2.312,0.125l2.625,0.125l2.25,0.375l2.125-0.875l1.875-1
		l1.062-0.062l1.188,0.375l1.688,0.812l2.938,0.375l3.312,0.25l2.688,0.25L357,170.25l1.625,0.25l2.375,0.062l5.375-1.25
		l3.312-0.562l1.312-0.062l0.188-0.562l1.375-0.062l0.875,0.125l1.562,0.5l0.938,0.312l1.438,0.75l2.375-0.812l3.5-1.938
		l1.812-0.875l1.125-0.312h2l4.625-1.062l4-0.938l1.625-0.812l1.062-0.5l1.25-0.125l1.75-0.438c0,0,1.062-0.062,1.25,0
		s1.188,0,1.188,0l1.375-0.5L407.5,161l2.125-0.188l1.688-0.125l2.062-1.125l3.875-1.5l1.25-0.562h1.562l1.625,0.25l2.5-1.25
		l2.438-1l1.5-0.188l1.438,0.062l2.938,1.062l1.562,1.25l2.062,1.812l2.125,1.25l2.312,1.062l3.562,1.625l5.062,1.312l2.125,0.75
		l1.688,0.375l1.188,0.062l1.375-0.25l2.188,0.438l2,0.938l3.062,0.812l3.937,1.312l2.562,1l1.688-0.312h1.312l1.75,0.188h1.562
		l0.938-0.188l1.375-0.625l1.062-0.125l1.061-0.5l1.062-0.375l1.438-0.688l1.625-0.438l2.562,0.125h1.062l0.875,0.75h0.75l1.5-1.625
		l1.125-0.125l1.812,0.5l2.25,1.062l1,0.625h1.75l3.561-1.25l4.625-1.812l7.189-2.062l5.688-1.062l6.875-0.75l5.5-0.188l5.062,0.312
		l7.25,0.625l6.811,1.5l4.812,1.188l2.438,0.562l4-4.062l2.812-3.188l1.188-1.062l1-0.625l1.939-0.188h4.625l1.561-0.062
		l0.812,0.438L577.5,157l1.188-0.875l1.439-0.688c0,0,0.688,0.062,0.875,0.062c0.186,0,1.375,0.375,1.375,0.375l1.561,1l0.75-0.562
		l1.5-0.375l2.812-0.5l2.875-1.375l2.188-1.312l1.689-1.062l1.188-0.375h0.875L599,151.25l1.188-0.562l1.125-1.125l0.625-0.625
		l2.5-0.625l1.939-0.062l0.688,0.5l1.375,0.812l1.31,0.437l2.562,0.625l2.75,0.125l1-0.5l1.875,0.562l0.875,0.062l1.5-0.5
		l2.312-0.188l1.375-0.062h1.811l1-0.188h0.812l1.938,0.188l1.125,0.312l2.125,0.938l1.062,0.562h1.062H636l1.312,0.25l2.312-0.375
		l2.375-0.938h1.625h1.75l0.75,0.188l1.061,2.125l1.125,2.25l1.562,2.875l1.5,1.75l0.5,0.625l0.188,1.062l0.689,0.312l1.75-0.125
		h2.875l1.188-0.062l1.5-0.5l2.812-0.875l2.561-1l3.189-0.375l3.875,0.062l1.938-0.812l2.625-1.625l2.5-0.75l2.125-0.25l1.562-0.188
		l0.811,0.25l1.125,0.625l0.812,0.125l1.062-0.062l1.625,0.062L689.5,157l3.062-0.062l1-0.125l1.25-0.062l2.688,0.375l1.062,0.188
		l1.75-1.438l1.125-0.438l0.938-0.062l1.625,0.188l1-0.5l0.625-0.562l2-0.688l3.812-0.125l3.312-0.188l2.938-0.25l1.688-0.062
		l1.438,0.312l0.875,0.812L722.75,156l1.438,2.562l1.25,2.062l0.625,0.25h0.562l1.125,0.812l0.938,1.312l0.625,0.875l0.875-0.062
		l2.062-1l1.5-0.562l0.625-0.562l1.125-0.438l1.188-0.875l1.312-0.438l2.25,0.25l2.125,0.312l0.625-0.125l1.562,0.625l0.938,0.562
		l1.188,0.062l1.812,0.312l0.812,0.125l1.188,0.375l0.875,0.375l0.625-0.5l0.875,0.188l0.688,1l0.812,0.5l1.688,0.5l1.562-0.125
		l2.375-0.688l2.625-1l2-0.312l3.312,1l2.562,0.812l0.625,1.25l0.561,0.25l0.689-0.125l0.875,0.125l1.811,1.375l0.562,0.438
		l0.375,0.75l0.625,0.125h1.562l2.375,0.25l0.688,0.875l1.438,2.75l1.689,2.312l0.974,0.628l1.425,0.639l1.007,0.467l1.867,0.884
		l2.163,0.882l4.062,0.25h2.25l1.125-0.375l2.625-0.062l1.438,0.312h1.062l1.25,0.438l1.688,0.812l1.939,0.688h2.375l3.438-0.125
		l3-1.188l2.938-1.625l2.5-1.25l1.75-0.688l1.688,0.562l1.375,0.75l1.5,0.875l1.875,0.062l1.312,1l0.688,0.875l1.5,1.125l2.5-2.375
		l2.189-1.25l2.938-0.375l3.062-0.188l2.75-0.875l2,0.125l1.875,0.875l1.125,0.875l1.188,0.688l0.625,0.438l1.375-0.75l1.875-1.562
		l3.875-2.125l3.062-1.438l1.438-0.938l2.125-0.562l1.5,0.25l1.062,0.625l1.5,0.875l2,0.562l1.75-0.188l2.25-1l0.75-0.625
		l0.375-0.312h1h0.875l0.938-0.188l1.438-0.875l0.875-0.438l0.625-0.062h1l0.625,0.438c0,0,1.438,0.625,1.625,0.688
		c0.188,0.063,1.25,0.312,1.25,0.312l2.125,1l1.188,0.688l1.25,0.5l1.812,0.5l1.25,0.188l0.938-0.125l1.062-1.188l0.375-0.125
		l2.125,0.812l1.688,0.562l2-0.188l1.438-0.688l1.312-0.312l2.125,0.312l2.188,1.375l1.438,2.188l0.938,1.062l0.938-0.062
		l0.875-0.688l0.625-0.375l1.812,0.312L921,177.25l1.812,0.438l1.312,0.375l0.938,1.312l0.812,0.938l0.811,0.938l0.312,1.125
		l0.938,1.312l1.345,0.562"/>
	<path fill="none" stroke="#FF0000" stroke-width="0.25" stroke-miterlimit="10" d="M0,100.5l6-5.75l3.375-2.25l1.375-0.375h0.625
		l2.25-1.25l1.75-0.375l1.375,0.125l1.375,0.75l2.125,1.25l2.625,2.5l2,3.375l2,3.5l3.25,3.25l1.5,0.875l1.062,0.375l0.75,0.812
		l0.812,1.312l0.562,0.938l0.938,0.75l1.75,1.25l1.188,1l0.938,1.312l1.062,1.812L41,117.062l1.062,1.062l1.562,1.312l2.125,2.5
		l1.312,1.188l1.062,0.938l1.375,1.562l1.375,1.562l1.25,0.688l0.5,0.5L53,129.438l0.938,0.938L56,131.562l1.312,1l1.562,1
		L60,134.188l1.562,0.875l1.312,0.25L64.5,135.5l0.875,0.25l3,1l1.812,0.5l1.75,0.312l0.938,0.312l1.25,0.438l0.875,0.5l0.812,0.875
		L77,140.375l2,0.812l1.625,1l0.812,0.562l1.188,0.125l1.5-0.062h1l0.75-0.375l0.062-0.5l1.75-1l1.812,0.5l2.938,0.5l1.5,0.062
		l1.188,0.562l1.812,0.75l1.875,1.062l1.562,0.188l1.688,0.375l2.812,0.688l2.562,0.875l2.5,0.875l2,0.875l1.312,1.375l1,1.125
		l0.938,1.562l1.312,2.188l0.812,0.75l2,1.875l1.375,1.25l2.125,1l1.25,0.438l0.938,1.062l0.688,0.75l0.5,0.188l1.812-0.125
		l1.938-0.438l1.062-0.188l3.125-0.75l1.312-0.438h1.188l0.688,0.188l0.875,0.75l0.938,0.375l0.75,0.125l2,0.5l0.812-0.312
		l1.625-0.188l1.125,0.062l0.938,0.438l1.062,0.688l1.312,0.438l1.875,0.062l1.188,0.125l1.375,0.625l1.062,0.312l0.938-0.125
		l0.562-0.062l1.312,0.438l0.812,0.25l1.875,0.062l1.312,0.438l1.562,0.75l3,1.188l1.562,0.188l0.75-0.062l0.875-0.375l1.562-0.438
		h0.562l1.25,0.438l0.625,0.538l2.25,0.458l0.917,0.5l0.875,1.042l1.833,0.792l1.625,0.458l1.667,0.125l3.333,0.958l4.042,1.625
		l1.5,0.417l1.583,0.167h1.708l2-0.125l1.667-0.083l0.875,0.083l0.958,0.583l1.125,1.25l1.292,0.875l5.792,2.25"/>
</g>
</svg>
