<?xml version="1.0" encoding="utf-8"?>
<!-- Generator: Adobe Illustrator 16.0.4, SVG Export Plug-In . SVG Version: 6.00 Build 0)  -->
<!DOCTYPE svg PUBLIC "-//W3C//DTD SVG 1.1//EN" "http://www.w3.org/Graphics/SVG/1.1/DTD/svg11.dtd">
<svg version="1.1" id="svg" xmlns="http://www.w3.org/2000/svg" xmlns:xlink="http://www.w3.org/1999/xlink" x="0px" y="0px"
	 width="1029.121px" height="683.52px" viewBox="0 0 1029.121 683.52" enable-background="new 0 0 1029.121 683.52"
	 xml:space="preserve">
<image overflow="visible" enable-background="new    " width="4288" height="2848" xlink:href="AK12_20110606_195154.JPG"  transform="matrix(0.24 0 0 0.24 0 0)">
</image>
<g id="land">
	<path fill="none" stroke="#FF0000" stroke-width="0.25" stroke-miterlimit="10" d="M661.5,683.52L676,677l37.5-16c0,0,10.5-1,12,0
		s19,2,19,2l29-7l33-20.5l8-7h17H855l31.5-10l53-14L958,602l20,2.5l13,0.5h12l26.121-1.5v80.02H661.5z"/>
	<path fill="none" stroke="#FF0000" stroke-width="0.25" stroke-miterlimit="10" d="M0,262.734l76.505-9.638l68.633-4.965
		l69.509-2.044l136.974-6.425l71.846-2.628h52.862h40.596l10.805-7.302l-14.894-19.567l-19.276-18.984L476.33,178.33l1.46-3.504
		h10.222l11.391,5.841l13.143,6.717l16.355,2.336l24.24-2.044l35.047-8.47l44.102-8.178l21.904-3.212h6.424l-17.23,10.514
		l-29.498,12.851l-8.469,7.301l-2.629,16.793l7.885,18.837l17.816,2.336l19.566-2.628l16.355-4.673l15.186-0.876l16.064,0.876
		l16.938,0.876l23.949,0.584l17.816-4.381l9.637-3.213l15.188,0.292l8.762,1.168h10.514l7.303-2.92l5.549-2.044l8.178-0.292
		l14.311-0.584l22.197,0.584l14.311-0.292l18.984-1.46h12.266l12.852-0.584l21.318-1.606l19.275-1.314l8.471-2.92l-4.381-5.257
		l-27.453-14.895l-24.531-7.593l-16.648-5.549l-16.354-8.47l-4.674-3.212l13.145-2.044h43.516l34.463,1.752l8.178,9.93l2.629,7.009
		l9.346,7.009l22.781,3.797l15.186,6.425l10.441,2.044v-53.738l-18.91-2.92l-10.514-3.797l-10.516-1.168h-8.762l-7.301,3.505
		l-10.514-2.336l-8.764-1.168l-11.682,4.381l-6.426,0.292l-8.178-0.292l-7.887-2.92l-8.469-1.46l-11.684,2.628l-12.559,6.133
		l-9.053,2.044l-5.842-0.292c0,0-8.764-1.46-9.639-1.752c-0.877-0.292-15.188-3.796-15.188-3.796l-9.93-4.965h-8.762h-13.143
		l-9.055-5.549l-12.268-7.009l-14.895-3.213l-10.807,1.168l-14.895-1.168l-6.428-2.336l-12.266-7.885l-6.133-1.46h-7.887
		l-7.301,6.425l-8.178,3.504l-16.355,0.876l-24.824,1.752l-14.02-1.46L639,118.754l-8.471-5.841H617.97h-11.682h-9.93
		c0,0-2.338-2.628-3.213-2.628c-0.877,0-7.012-2.044-7.012-2.044h-6.717l-4.381,3.504l-6.426,3.797l-9.639-0.584l-23.654-0.584
		l-28.915-0.584l-16.063-1.752h-11.682l-23.657-3.797h-7.593l-16.647,2.336l-11.39-0.584l-15.187-7.594l-21.32-7.885l-13.143-3.505
		l-20.444-2.92l-11.975-2.92h-18.399l-13.435-2.044l-9.638-2.044l-8.178,6.425l-5.841,2.628l-7.885-0.876l-10.807,3.797
		l-9.054,3.213l-8.177-0.584l-17.523-7.009l-11.098-5.841l-7.301-7.01l-9.346-5.549h-9.054H179.3l-28.914-1.168l-15.479-2.628
		l-14.895-3.212h-15.187c0,0-17.232,4.381-18.108,4.673S71.53,70.276,71.53,70.276l-15.187-4.381L41.448,60.93l-12.266-6.425H23.34
		l-18.399-2.92H0V262.734z"/>
</g>
<g id="gcp">
	<circle id="jawlip" fill="#FF0000" cx="46.829" cy="216.375" r="0.25"/>
	<circle id="alcove" fill="#FF0000" cx="125.8" cy="210.251" r="0.25"/>
	<circle id="butt" fill="#FF0000" cx="266.894" cy="218.646" r="0.25"/>
	<circle id="portaledge" fill="#FF0000" cx="365.008" cy="199.992" r="0.25"/>
	<circle id="jawlip2" fill="#FF0000" cx="411.285" cy="204.647" r="0.25"/>
	<circle id="ledgedot" fill="#FF0000" cx="463.382" cy="181.421" r="0.25"/>
	<circle id="nostril" fill="#FF0000" cx="628.544" cy="213.819" r="0.25"/>
	<circle id="kissers" fill="#FF0000" cx="644.627" cy="209.45" r="0.25"/>
	<circle id="brokens" fill="#FF0000" cx="742.893" cy="197.468" r="0.25"/>
	<circle id="dragonduct" fill="#FF0000" cx="890.685" cy="201.843" r="0.25"/>
</g>
<g id="horizon">
	<path fill="none" stroke="#FF0000" stroke-width="0.25" stroke-miterlimit="10" d="M0.061,57.01l3,0.417l1.583-0.25l2.917-0.167
		l2.25,0.333l1.5,0.667l2.25,1.25l2.167,0.333l2.25,0.25h2.917l1.167-0.667l1.167-0.583l2.25-0.167h2l1.75,1.167l2.917,1.25
		l4.333,2.5l3.167,0.583l2.833,1.167l3.583,1.583l2.583,1.917l2.667,0.667l2.833,0.333l2.25,0.667l2.583,1.667l3.333,1.917
		l2.083,1.25l2.083,0.667l4.667,0.333l2.417-0.083l3.083,0.667l2.25,0.833h1.667l4.667-2.833l6.583-3.083l2.833-0.833h2.5h2.167
		l2.583,0.167l1.417-0.583l1.5-0.833l2.167-1l1.5-0.5h1.75l2,0.5l2.5,0.667l2.25,0.417l3.333,0.417l4.083,0.333h2.583l1.833-0.167
		h1.583l2.5,0.75l3.167,1.25l4.333,1.167l5.417,1.25l5,0.667h3l2.417,0.667l2.25,0.75l4.333,0.25h3.667l3.333-0.083h1.5h3.583
		l1.833-0.667l2.25-1.083l2-0.25h1.75l1.75,0.25l3.917-0.833l1.667-0.833l2.833-0.167l1.25-0.25l1.583,0.583l1.5,0.5l3.417,1.667
		l2.667,1.75l1.667,1.583l1.417,2.333l2.083,2l3.5,3.833l2.083,1.75l2.5,1.083l4.917,2l3.5,1.167l3.75,1.25l5.583,3.417l4.917,1.833
		l3.583,2.167l3,1.667l2.083,1.833l1.167,1l2.5-1l4.083-2l4.917-1.583l5.333-2.667l4.833-2.75l3.5-1.417l2-0.417l0.75,0.167l1.833,2
		l1,1.333l1.75,1.583l2.083,1.083l1.583-2.083l0.917-2.25l1.5-2.25l4.333-2.75l4.75-3.5l1.917-1.75l0.833,0.167l1.167,1.083
		l1.417,1.333c0,0,2.083,0.083,2.333,0.083s4.25,0.25,4.25,0.25l3.833,0.75l2.167,0.333l2.167,0.5l2.833,0.833l3.417,0.5
		l3.667,0.333l2.75-1.083l2.333-0.25l1.917-0.417c0,0,0.667-0.583,1-0.75s1.583-1,1.583-1l1.083,0.333l1.25,1.083l1.917,1.25
		l1.667,0.417h1.75l0.583,0.25l0.5,0.583c0,0,1.083,0.75,1.417,1.083s2.5,2.5,2.5,2.5l1.917,0.167h1.167l2.25-0.417l1.5-0.667
		l0.667-0.667l1-0.083c0,0,0.667-0.083,1,0.25s0.833,0.667,0.833,0.667l1-0.083l1.5-0.417l1.167,0.417l0.75,0.833l0.5,0.833
		l1.417,1.333l1.333,0.667l4-2.417l3,0.167l3.167,0.5l4.167,1.083l2.75,0.75l4,2.583l2.583,0.917l1.083,0.25l1.667-0.25l0.833-0.167
		l1.5,0.25c0,0,2.417,1.583,2.667,1.75s3.083,2.333,3.083,2.333l5.25,2.75l5.583,2.75l3.917,1.833l4.167,1.417l5.25,1.667
		l2.417,0.583l2,0.083l2.167-0.583c0,0,1.333-0.833,1.667-0.833s1.833-1.333,1.833-1.333l2-0.917l3.5-0.75l2.917,0.083l4.333-0.333
		l3.083-0.333l1.917-0.25l1.667,0.333l2.167,0.917l3,0.75l7.25,1.833l1.833,0.75l1.917,1.333l4.333,1.833l3-0.083l1.5-1.333
		l2.583-2.083l0.667-0.917c0,0,0.75,0.166,1,0.333s2.167,0.833,2.167,0.833l1.5,0.5l1.333,0.333l1.583,0.75
		c0,0,0.5,0.917,0.75,1.167s1.917,1.917,1.917,1.917l2.167-0.167l2.833,0.083l1.333-0.333l1.25-0.083l1.417,0.833l2.415,1.748
		l2.5,1.417l1,0.083l1.5-0.5l1.5-0.75l1.917-0.583l0.75-0.083l1.917,0.5l1.5,0.083l0.917-0.417l0.75-0.333l1.583-0.667l0.75-0.75
		l0.75-0.917l0.834-0.5l1.916-0.167l1.334-0.167l1.75-0.917l1-0.25l1.166-0.083l2.167-0.083l0.917,0.25l0.75,0.75l1.833,1.5
		l4.333,1.25h2.584l2.333-0.917l1.5-0.167l2.833,0.083l1.417,0.5l1.583-0.083l1.5,0.333h1.334l1.166-0.083h0.917l1-0.25
		c0,0,0.5-0.75,1-0.75s1.333-0.083,1.333-0.083l1.25-0.083l2.334,0.583l3.083,1.083l2.917,1h1.75l1.916-1.917l2.334-3.167l3.083-3
		l1.833-2.083l2-1.5l1.417-0.083l2,0.417l4,2.25l2.5,1.167l2,0.333l1.917,0.25l1.666,1.167l1.417,1.5l3.667,0.333l3.082-0.833
		l1.334-1l1.083-0.167h1.417l2.416,0.083l1.5,0.25h1.834l1-1.167l1.75-0.5l1.25,0.083l1.083,0.167h0.833l0.834-0.833h1.5l1.833,0.5
		l2,0.5l1.083,0.667l2.584,1.917l3.166,1.833l5,3l4.75,2.833l4.25,2.917l2,1.5l1.75,0.167l1.417-0.333l2,0.667l2.417,1.417
		l2.25,0.667l5.25-1.583l3.5-0.833l3.333-0.5h2.167l1.5-0.917l1.166,0.083l1.917,0.417l3.333,0.083l4.417-0.583
		c0,0,1.333-0.333,1.583-0.333s1.834,0.5,2.084,0.5s1.583,0.167,1.583,0.167l1.5-0.333l1.667-1.083l1.666-0.167h1.75l1.751-0.667
		l1.75-0.5l2.084,0.333l1.75,0.833l2.833,0.167l1.083,0.75l1.167,0.833l6.667-6.917l3.416-2.917l5.25-2.667l1.667-0.5l1.833,0.75
		l1.75,1.75l2.25,2.5l2.75,2.583l2.167,0.583l1.167,0.917l0.916,0.25h1.084l1.166,0.75c0,0,0.834,1.75,0.917,2
		s0.917,1.917,0.917,1.917l2.5,1.083l1.833,0.083l2.583,0.917l2.417,1.083l2.667,0.333l2.333,0.083l3.25-1.75l2.833-0.417l1.5-0.083
		l2,0.5l2.084,0.25l2.501-1l2.916-1.333l3.417-0.333l2,0.583l1.917,0.667l3.833,1.25c0,0,1.833,1.333,2.083,1.333
		s0.834,1.417,0.834,1.417l2.666,0.167l2.25,0.667l4.584,1.833l3.666,2.583l2.25,1.5l3.584,2.833l2.25,0.833l6.25,0.25l7.917-1.085
		l3.333-1.167l3.833-0.167l2.417,0.75l1.25,1.333l1.667,0.917l2.333,1l2.333,1.5l1.917,2.083l1.167,0.417l2.333,0.5l4.667,0.417
		l3.916,1.167l3.167,1.833l2.75,2.083l1.5,0.75h1.833l2.917,0.75l5.083,0.667l2.5-0.833l3.25-1.917l1.334-0.333l2.5-0.083l2.5-0.25
		h2.5l2-0.333h2.916l3.667-1.167l2.5-2.5l2.834-2.917l2.25-1.5l2.416-1.833l1.667-1.833l0.667-0.667l1.416-0.083l2.25,1.417
		l2.084,1.333l5,1.667l5.083,2l4.5,1.083l4.917,0.417l5.166-0.667l4.5-2.583l1.834-1.25l1.583-0.417c0,0,2.334-0.333,2.667-0.25
		s2.666-0.917,2.666-0.917l3.334-1.167l1.416-1.083h0.584l1.25,1.5l2.25,1.167l1.583,1.5c0,0,0.501,0.333,0.667,0.667
		s1.25,1.75,1.25,1.75l1.75,0.417l3.5-1l2.916-1.083l1.584-0.583l2.583-1.5l2.083-1.25l1.75-0.167l1.834-1.5
		c0,0,1.334-0.5,1.75-0.583s3.166-0.167,3.166-0.167l0.834,0.583l2.083,0.667h2.5l3,0.167l1,0.417l2.167,1.417l0.75,1.333
		l0.666,0.75l1.334,0.667l3.166,0.583l2.25,0.167l2.75-0.083c0,0,1.166-1,1.5-1.167s1-0.667,1-0.667l1.417,0.083l2.083,0.25
		l0.75,0.25l0.584,0.75l0.666,1.25l1.334-0.167l0.75-1.333l1.333,0.083l1.75,0.417l1.083,1.833l2.479,0.75"/>
</g>
</svg>
