<?xml version="1.0" encoding="utf-8"?>
<!-- Generator: Adobe Illustrator 16.0.4, SVG Export Plug-In . SVG Version: 6.00 Build 0)  -->
<!DOCTYPE svg PUBLIC "-//W3C//DTD SVG 1.1//EN" "http://www.w3.org/Graphics/SVG/1.1/DTD/svg11.dtd">
<svg version="1.1" id="svg" xmlns="http://www.w3.org/2000/svg" xmlns:xlink="http://www.w3.org/1999/xlink" x="0px" y="0px"
	 width="1029.12px" height="683.52px" viewBox="0 0 1029.12 683.52" enable-background="new 0 0 1029.12 683.52"
	 xml:space="preserve">
<image overflow="visible" width="4288" height="2848" xlink:href="AK12_20110606_195154.JPG"  transform="matrix(0.24 0 0 0.24 0 0)">
</image>
<g id="land">
	<path fill="none" stroke="#FF0000" stroke-width="0.25" stroke-miterlimit="10" d="M661.5,683.52L676,677l37.5-16c0,0,10.5-1,12,0
		s19,2,19,2l29-7l33-20.5l8-7h17H855l31.5-10l53-14L958,602l20,2.5l13,0.5h12l26.12-1.5v80.02H661.5z"/>
	<path fill="none" stroke="#FF0000" stroke-width="0.25" stroke-miterlimit="10" d="M0,262.734l76.505-9.638l68.633-4.965
		l69.509-2.044l136.974-6.425l71.846-2.628h52.862h40.596l10.806-7.302l-14.895-19.567l-19.276-18.984L476.33,178.33l1.46-3.504
		h10.222l11.39,5.841l13.143,6.717l16.355,2.336l24.24-2.044l35.047-8.47l44.101-8.178l21.904-3.212h6.425l-17.231,10.514
		l-29.497,12.851l-8.47,7.301l-2.629,16.793l7.886,18.837l17.815,2.336l19.567-2.628l16.355-4.673l15.187-0.876l16.063,0.876
		l16.939,0.876l23.949,0.584l17.815-4.381l9.638-3.213l15.187,0.292l8.762,1.168h10.514l7.302-2.92l5.549-2.044l8.178-0.292
		l14.311-0.584l22.196,0.584l14.312-0.292l18.983-1.46h12.267l12.85-0.584l21.32-1.606l19.275-1.314l8.471-2.92l-4.381-5.257
		l-27.453-14.895l-24.533-7.593l-16.647-5.549l-16.354-8.47l-4.673-3.212l13.143-2.044h43.516l34.463,1.752l8.178,9.93l2.629,7.009
		l9.346,7.009l22.78,3.797l15.187,6.425l10.441,2.044v-53.738l-18.911-2.92l-10.514-3.797l-10.514-1.168h-8.762l-7.302,3.505
		l-10.514-2.336l-8.762-1.168l-11.683,4.381l-6.425,0.292l-8.178-0.292l-7.886-2.92l-8.47-1.46l-11.683,2.628l-12.558,6.133
		l-9.054,2.044l-5.842-0.292c0,0-8.762-1.46-9.638-1.752s-15.187-3.796-15.187-3.796l-9.93-4.965h-8.762h-13.143l-9.054-5.549
		l-12.267-7.009l-14.895-3.213l-10.807,1.168l-14.895-1.168l-6.426-2.336l-12.266-7.885l-6.134-1.46h-7.886l-7.301,6.425
		l-8.178,3.504l-16.355,0.876l-24.824,1.752l-14.019-1.46l-11.099-5.257l-8.47-5.841h-12.559h-11.682h-9.93
		c0,0-2.337-2.628-3.213-2.628s-7.01-2.044-7.01-2.044h-6.717l-4.381,3.504l-6.426,3.797l-9.638-0.584l-23.656-0.584l-28.914-0.584
		l-16.063-1.752h-11.682l-23.657-3.797h-7.593l-16.647,2.336l-11.39-0.584l-15.187-7.594l-21.32-7.885l-13.143-3.505l-20.444-2.92
		l-11.975-2.92h-18.399l-13.435-2.044l-9.638-2.044l-8.178,6.425l-5.841,2.628l-7.885-0.876l-10.807,3.797l-9.054,3.213
		l-8.177-0.584l-17.523-7.009l-11.098-5.841l-7.301-7.01l-9.346-5.549h-9.054h-12.266l-28.914-1.168l-15.479-2.628l-14.895-3.212
		h-15.187c0,0-17.232,4.381-18.108,4.673s-15.187,2.336-15.187,2.336l-15.187-4.381l-14.895-4.965l-12.266-6.425h-5.842
		l-18.399-2.92H0V262.734z"/>
</g>
</svg>
