<?xml version="1.0" encoding="utf-8"?>
<!-- Generator: Adobe Illustrator 16.0.4, SVG Export Plug-In . SVG Version: 6.00 Build 0)  -->
<!DOCTYPE svg PUBLIC "-//W3C//DTD SVG 1.1//EN" "http://www.w3.org/Graphics/SVG/1.1/DTD/svg11.dtd">
<svg version="1.1" id="svg" xmlns="http://www.w3.org/2000/svg" xmlns:xlink="http://www.w3.org/1999/xlink" x="0px" y="0px"
	 width="1029.121px" height="683.52px" viewBox="0 0 1029.121 683.52" enable-background="new 0 0 1029.121 683.52"
	 xml:space="preserve">
<image overflow="visible" enable-background="new    " width="4288" height="2848" xlink:href="AK12_20110217_204832.JPG"  transform="matrix(0.24 0 0 0.24 0 0)">
</image>
<g id="land">
	<path fill="none" stroke="#FF0000" stroke-width="0.25" stroke-miterlimit="10" d="M0,476.667L43.667,462l38-4
		c0,0,39.333,10.001,41.333,9.334s116.667,9.333,116.667,9.333L314.333,486l62,11.334L441,504l68.667,19.334l56,32L630.333,602
		L647,626l31.334,29.334L697,683.52L0,683.521V476.667z"/>
	<path fill="none" stroke="#FF0000" stroke-width="0.25" stroke-miterlimit="10" d="M0,262.667v-184h51l28,8.667L112.333,88
		l11.333-2.667L148.333,82L181,85.333L207.667,98l20.667,5.333H263l9.333-1.333l20-14L307,84l47.333-2l51.333,2l24.667-2
		l21.333-3.333h42H569l28-8h41.334l32.666,10L700.333,76l25.334-5.333h26.666l32.666-10L816.333,56l50,4l26-4l21.334-11.333
		l30.666-9.333h34.668l26.666,5.333l23.453,4.667V240l-133.453,3.333l-70-5.333l-46-6.667v-12l8-15.333l-24-14
		c0,0-22.666-0.667-24.666,0s-71.334,1.333-71.334,1.333l-31.334,7.333l-19.332,8.667L603.667,214l-19.334,0.667h-14l-14.666-4
		l-19.334-6l-13.332-7.333l-8.441-8V176l-4.894-8L491,163.333L435,164l-35.333-1.333h-31.333L323.001,149l-34.667-8.333h-18.667
		h-17.333L239.668,149l-13.333,16.333l2.667,5.333l-4.667,8.667l-12.667,4l-51.941-12.072L95.06,157.927l26,24l32.667,21
		l28.667,16.667l14.333,9.667l2,7.333l-1.667,8L174.334,256l-34,6.667H0z"/>
</g>
</svg>
