<?xml version="1.0" encoding="utf-8"?>
<!-- Generator: Adobe Illustrator 16.0.4, SVG Export Plug-In . SVG Version: 6.00 Build 0)  -->
<!DOCTYPE svg PUBLIC "-//W3C//DTD SVG 1.1//EN" "http://www.w3.org/Graphics/SVG/1.1/DTD/svg11.dtd">
<svg version="1.1" id="svg" xmlns="http://www.w3.org/2000/svg" xmlns:xlink="http://www.w3.org/1999/xlink" x="0px" y="0px"
	 width="1029.121px" height="683.52px" viewBox="0 0 1029.121 683.52" enable-background="new 0 0 1029.121 683.52"
	 xml:space="preserve">
<image overflow="visible" enable-background="new    " width="4288" height="2848" xlink:href="AK12_20101118_194702.JPG"  transform="matrix(0.24 0 0 0.24 0 0)">
</image>
<g id="land">
	<path fill="none" stroke="#FF0000" stroke-width="0.25" stroke-miterlimit="10" d="M0,249.667l37.333-23l23.333-14l4.667-6.333
		l-1.667-4.333H45.333l-15.667,5L22,208.334l-15,0.333H0v-128L24.667,74l20.667-7.333h13.333l28,3l28,4.333l17.667,2.333L138,75.001
		l10.667-5l10-8c0,0,10.667-10.333,11.667-10.333s18.333-2.333,18.333-2.333H205l23,3l26.333,5.667l17.667,3l18,5.333l20.333,6.333
		l10,1.667l7.333-2.333L344,69.334l20-0.333l21.667,3.667l14,3.667l16.667-3.667l8-2.667l17.333,6.333L451,85.667l19,11
		c0,0,6,3,7.333,3.333s11.333,0,11.333,0l15-6.333l16-8L530,84.001l21.668,2l23,3.667l57,16L655,116.334l12.334-5.333l14,0.667
		L695,116.334l24.334,2.667l12,2.333l8.666,2.667l10.002-4.667h14.332l13.668,1.333l18-0.667l6-5.667L815.333,109l17.334,3l12,3.333
		l9.334-2.333l17.666,0.333l9.334,6.333l14.666,8.667l8.666,1.333l17.334-2.667l30,2.333l15.334-13.333l11.332-0.667l17,5
		l8.334,8.667l15.666,4.667l9.787,1v101.667l-46.119,3.333h-35l-40.334-1.333l-22.666,1.333l-40.668,4l-7.332-2.667l-8.334-6
		l2.666-14.333l3.668-7.667l12-10.333l26.332-10l22.334-13.333l1.666-5l-3.666-3.667l-18.334-0.667l-46.332,13.333l-35.334,9.667
		l-29.666,4.667l-18.334-2.667l-8.334-3.667l-8.332-8.333l8-6l3.666-5.333l-12-6.667l-14.334-2l-11.666,0.333l-10.334,8.667l2,5.667
		l6.668,10l12.666,11.667l9,9l10.666,11l6.334,8l0.334,3.667l-3,3.333l-8,3.333l-17.334,2.333l-42.334-3.667l-23-4.667l-36-2l-14,1
		l-20.666,2.333l-17.334,2h-16.332l-11.334-2.667l-32.333-3l-8.667-1h-16l-17,2.667l-25,4.667l-35.333,2l-32.667,0.667l-18-0.333
		l-25.333-3.333l-16.333,1.333l-10,4l-35.333,2l-19-0.667l-14,2l-17,4.667l-56.333,4.667l-43-2.333l-43.333-2.667l-42,0.333
		L0,249.667z"/>
</g>
<g id="horizon">
	<path fill="none" stroke="#FF0000" stroke-width="0.25" stroke-miterlimit="10" d="M0.131,84.479l3.912-0.763l2.767-0.096
		l3.625,1.623l2.672-1.718l2.767-2.099l3.53-0.763l2.1-0.859l3.53-1.431l3.244,0.191l2.767-2.29l2.958-0.191l4.58-0.668l2.194-0.382
		l1.431-1.049l2.577-1.813l2.671-1.336l2.386-0.763l4.484,0.286l3.435,0.095l1.717-0.572l6.584-1.431l2.958,0.477l2.194,0.572
		l2.481,0.382l2.099,0.477l2.099,1.24l2.29,1.241l1.718,1.335l1.24,0.287l3.435-0.382l2.958,0.668l2.099,1.24l2.29,1.622
		l1.908-0.477l3.244-0.858l3.721-0.096l0.954,0.382l2.672,1.717l3.721-0.191l3.912,0.191l5.439,2.004l2.767,1.24l2.194,1.336
		l2.576,0.859l0.955-0.763l5.152-1.813l2.099-0.477l3.053-0.573l1.336-0.954l1.908-0.477h2.863l2.958-0.095l4.198-2.1l3.816-1.145
		l3.245-0.095l2.194-2.29l5.439-5.916l2.958-3.912l4.103-3.721l4.199-2.671l5.152-3.149L184,53.087l3.721,1.145l3.721,0.763
		c0,0,1.336-0.191,1.622-0.286s1.05-0.477,1.05-0.477l3.244,0.954l4.866,2.29l1.526-0.573l3.053-0.763l4.199,0.286l2.099,1.336
		l2.099,0.477l2.481-1.049l2.385-0.096l1.908,0.287l2.481,1.145l1.813,1.431l2.194,0.954l3.817,0.954l1.717,0.191l4.866,1.431
		l3.149,0.859l5.916,0.668l6.393,0.954l2.003-0.191l4.389,0.572l2.481,0.287l2.099,0.191l2.195,0.667l2.481,0.668h2.671l2.099,0.382
		l1.622-0.477l1.527-0.573l1.908-0.19l2.099,0.477l2.863,1.336l5.534,3.053l2.194,0.572l5.439,2.958l2.672,1.145h1.526l2.863,0.763
		l5.057,2.672l2.576,1.431l1.145,0.668h1.431h2.576h1.908l4.008,1.05l1.049,0.286l4.867-3.053l6.202-2.481l3.148-0.954l2.863,0.095
		l2.29-0.191l3.625-1.717l1.622-0.668l2.386-0.382h1.622l2.671,1.05l1.909,0.477l3.53-0.095h6.393l2.29,0.763
		c0,0,2.385,1.049,3.053,1.24s7.347,1.718,7.347,1.718l7.824,0.954l6.011,1.049l2.862,0.477h3.817h4.961h2.577l3.912-1.24
		l4.293-0.763l2.672,0.286l1.431-0.191l4.58-1.526l2.004-0.191l3.339,0.668l3.912,3.053l2.767,3.244l4.962,6.011l4.293,3.721
		l3.149,0.477l4.962,1.813l6.679,3.053l3.244,1.622l7.824,3.912l2.29,1.527l1.812,1.813l4.58-1.431l9.542-3.912l3.625-1.527
		l2.29-1.336l3.816-1.431l1.527-0.668l1.431-0.095l1.527,1.813l2.48,2.29l1.813,1.335l1.718-1.335l1.431-2.958L515,98.411
		l4.771-3.435l3.912-3.34l1.146-0.954l0.858-0.382l1.24,0.764l1.718,1.24l1.908,0.286l5.058,0.668l2.099,0.191l1.622,0.382
		l3.816,1.049l5.534,0.954h4.485c0,0,2.003-0.858,2.385-0.858s4.008-0.859,4.008-0.859l1.336-0.954l2.29,0.668l2.48,1.24
		l2.576,0.477l0.573-0.191l1.24,1.145l1.24,0.955l2.194,1.526h1.527l2.29,0.382h0.381l1.813-0.763l1.05-0.382l2.29,0.286
		l0.954,0.763l1.908-0.667l1.336,0.286l1.336,1.717l1.431,1.431l1.432,0.764l3.435-2.672l3.245-0.191l3.435,1.05l3.626,0.763
		l4.198,1.718l4.866,2.385l2.194,1.145"/>
	<path fill="none" stroke="#FF0000" stroke-width="0.25" stroke-miterlimit="10" d="M677.018,116.349l4.008,0.763l5.248,1.622
		l5.152,1.431l4.198,1.336l4.104,2.099l1.908,0.763l2.099-1.622l2.004-1.431l1.146-0.954h2.48l3.34,1.336l1.526,1.145l2.672,1.813
		l1.908,1.049l3.626-0.477l2.768,0.191l3.339,1.145l2.958,2.385l3.912-0.477l1.717-0.763h3.054l2.672-0.477l1.145-0.191l1.241-0.095
		l1.431-1.145l1.336-0.859l2.1-0.477l2.48-0.191l2.1-0.954l1.717-0.477l1.718-0.096l3.148,1.718l1.336,0.954l3.816,0.859
		l1.241,0.286l1.908-0.286l1.145-0.382l2.195-0.286l3.435,0.095l1.526,0.573l1.05-0.382c0,0,0.572-0.477,1.24-0.286
		s1.24,0.381,1.24,0.381l1.241,0.478l1.145-0.287l2.768-0.572l0.858-0.191l4.103,0.095l0.955,0.955l3.244,0.763l2.194,0.668h2.576
		l3.054-3.054l4.771-6.011l1.812-1.908l0.954-0.668l2.481-0.668h2.29l2.767,1.336l4.198,3.053c0,0,1.528,0.096,1.909,0.096
		s1.908,0.095,1.908,0.095l1.24,0.859l2.194,1.431c0,0,1.907,0.763,2.194,0.763s2.672,0.096,2.672,0.096s0.859,0,1.146-0.096
		s2.004-0.858,2.29-0.858s1.05-0.573,1.05-0.573l2.862-0.286h4.103l3.054-0.954l3.053-0.477l1.909-0.096l1.145-0.381l2.004-0.096
		l2.767,0.859l2.768,1.24l3.626,2.386l10.782,5.82l5.248,3.912l5.152,1.908l2.862,0.477l4.198,1.909l4.58,0.095l2.862-0.763
		l2.29-1.145l3.244-0.859l4.294,0.095l4.484-0.667l4.962,0.19h6.012l5.152-0.858l2.48-0.191c0,0,0.478-0.573,1.05-0.573
		s3.148-0.19,3.148-0.19l3.34-0.764l3.244-0.286l2.386,0.572l3.244,0.573l2.48,0.763l0.954,0.859l9.16-8.778l6.393-3.626
		l3.436-1.336l1.622,0.096l2.194,0.858l3.722,4.294l3.053,2.385l3.244,1.813l1.813,0.096l2.386,0.954l0.477,1.145l3.148,2.862
		l2.1,0.954l3.912,1.241l2.672,0.859l2.862,0.858h1.718l2.958-1.049h2.958l1.24-0.954l1.812-0.287l1.526,0.573l1.336,0.381
		l0.764-0.381l2.1,0.954l1.049,0.477"/>
</g>
</svg>
