<?xml version="1.0" encoding="utf-8"?>
<!-- Generator: Adobe Illustrator 16.0.4, SVG Export Plug-In . SVG Version: 6.00 Build 0)  -->
<!DOCTYPE svg PUBLIC "-//W3C//DTD SVG 1.1//EN" "http://www.w3.org/Graphics/SVG/1.1/DTD/svg11.dtd">
<svg version="1.1" id="svg" xmlns="http://www.w3.org/2000/svg" xmlns:xlink="http://www.w3.org/1999/xlink" x="0px" y="0px"
	 width="1029.12px" height="683.52px" viewBox="0 0 1029.12 683.52" enable-background="new 0 0 1029.12 683.52"
	 xml:space="preserve">
<image overflow="visible" width="4288" height="2848" xlink:href="AK12_20101118_194702.JPG"  transform="matrix(0.24 0 0 0.24 0 0)">
</image>
<g id="land">
	<path fill="none" stroke="#FF0000" stroke-width="0.25" stroke-miterlimit="10" d="M0,249.667l37.333-23l23.333-14l4.667-6.333
		l-1.667-4.333H45.333l-15.667,5L22,208.334l-15,0.333H0v-128l24.667-6.667l20.667-7.333h13.333l28,3l28,4.333l17.667,2.333
		L138,75.001l10.667-5l10-8c0,0,10.667-10.333,11.667-10.333s18.333-2.333,18.333-2.333H205l23,3l26.333,5.667l17.667,3l18,5.333
		l20.333,6.333l10,1.667l7.333-2.333L344,69.334l20-0.333l21.667,3.667l14,3.667l16.667-3.667l8-2.667l17.333,6.333L451,85.667
		l19,11c0,0,6,3,7.333,3.333s11.333,0,11.333,0l15-6.333l16-8L530,84.001l21.667,2l23,3.667l57,16L655,116.334l12.334-5.333
		l14,0.667L695,116.334l24.334,2.667l12,2.333l8.666,2.667l10.001-4.667h14.333l13.667,1.333l18-0.667l6-5.667l13.333-5.333
		l17.333,3l12,3.333l9.334-2.333l17.666,0.333l9.334,6.333l14.666,8.667l8.667,1.333l17.333-2.667l30,2.333l15.334-13.333
		l11.333-0.667l17,5l8.333,8.667l15.667,4.667l9.786,1v101.667l-46.119,3.333h-35l-40.334-1.333l-22.666,1.333l-40.667,4
		l-7.333-2.667l-8.334-6l2.667-14.333l3.667-7.667l12-10.333l26.333-10l22.333-13.333l1.667-5l-3.667-3.667l-18.333-0.667
		l-46.333,13.333l-35.334,9.667l-29.666,4.667l-18.334-2.667l-8.333-3.667l-8.333-8.333l8-6l3.666-5.333l-12-6.667l-14.333-2
		l-11.667,0.333l-10.333,8.667l2,5.667l6.667,10l12.666,11.667l9,9l10.667,11l6.333,8l0.334,3.667l-3,3.333l-8,3.333l-17.334,2.333
		l-42.333-3.667l-23-4.667l-36-2l-14,1l-20.666,2.333l-17.334,2h-16.333l-11.333-2.667l-32.333-3l-8.667-1h-16l-17,2.667l-25,4.667
		l-35.333,2l-32.667,0.667l-18-0.333l-25.333-3.333l-16.333,1.333l-10,4l-35.333,2l-19-0.667l-14,2l-17,4.667l-56.333,4.667
		l-43-2.333l-43.333-2.667l-42,0.333L0,249.667z"/>
</g>
</svg>
