<?xml version="1.0" encoding="utf-8"?>
<!-- Generator: Adobe Illustrator 16.0.4, SVG Export Plug-In . SVG Version: 6.00 Build 0)  -->
<!DOCTYPE svg PUBLIC "-//W3C//DTD SVG 1.1//EN" "http://www.w3.org/Graphics/SVG/1.1/DTD/svg11.dtd">
<svg version="1.1" id="svg" xmlns="http://www.w3.org/2000/svg" xmlns:xlink="http://www.w3.org/1999/xlink" x="0px" y="0px"
	 width="1029.121px" height="683.52px" viewBox="0 0 1029.121 683.52" enable-background="new 0 0 1029.121 683.52"
	 xml:space="preserve">
<image overflow="visible" enable-background="new    " width="4288" height="2848" xlink:href="AK12_20110217_204832.JPG"  transform="matrix(0.24 0 0 0.24 0 0)">
</image>
<g id="land">
	<path fill="none" stroke="#FF0000" stroke-width="0.25" stroke-miterlimit="10" d="M0,476.667L43.667,462l38-4
		c0,0,39.333,10.001,41.333,9.334s116.667,9.333,116.667,9.333L314.333,486l62,11.334L441,504l68.667,19.334l56,32L630.333,602
		L647,626l31.334,29.334L697,683.52L0,683.521V476.667z"/>
	<path fill="none" stroke="#FF0000" stroke-width="0.25" stroke-miterlimit="10" d="M0,262.667v-184h51l28,8.667L112.333,88
		l11.333-2.667L148.333,82L181,85.333L207.667,98l20.667,5.333H263l9.333-1.333l20-14L307,84l47.333-2l51.333,2l24.667-2
		l21.333-3.333h42H569l28-8h41.334l32.666,10L700.333,76l25.334-5.333h26.666l32.666-10L816.333,56l50,4l26-4l21.334-11.333
		l30.666-9.333h34.668l26.666,5.333l23.453,4.667V240l-133.453,3.333l-70-5.333l-46-6.667v-12l8-15.333l-24-14
		c0,0-22.666-0.667-24.666,0s-71.334,1.333-71.334,1.333l-31.334,7.333l-19.332,8.667L603.667,214l-19.334,0.667h-14l-14.666-4
		l-19.334-6l-13.332-7.333l-8.44-8V176l-4.895-8L491,163.333L435,164l-35.333-1.333h-31.333L323.001,149l-34.667-8.333h-18.667
		h-17.333L239.668,149l-13.333,16.333l2.667,5.333l-4.667,8.667l-12.667,4l-51.941-12.072L95.06,157.927l26,24l32.667,21
		l28.667,16.667l14.333,9.667l2,7.333l-1.667,8L174.334,256l-34,6.667H0z"/>
</g>
<g id="horizon">
	<path fill="none" stroke="#FF0000" stroke-width="0.25" stroke-miterlimit="10" d="M0.186,88.385l3-0.375l6.125-0.375l3.625-0.625
		l0.875,0.5l4.125-1l2.625-0.625l1.375-0.25l2,0.875l1.125,0.875l2.25,0.5l1.375-0.25l0.75-0.375l2.25,0.375l6.75,3.5l5.625,3.625
		l3.625,1.875l3.375-0.25l1-0.125l1.5,0.75l1.625,0.625l0.875-1.375l1.5-2.625l1.5-0.75l3.125-0.25l4.75-0.625l3.75-0.75h2.75
		l2.375,1.125l2-0.625l2.125-0.125l2,0.75l3.75,4.125l3.25,4.375l1.375,0.75l2.375-0.75l0.5-0.375h3.125l3.625-0.125l4.875-2.75
		c0,0,1-0.5,1.375-0.5s2.625,0,2.625,0l2.125,0.75l2.125,0.125l1.25-0.75l1.75-1.25l1.5-0.875l1.875-0.5l2.125,0.125l2-1l1.5-0.125
		l2.375,0.875l2.75,2l3.875,1.5l2.625,0.125l2.625-0.25l2.75-0.125l3.25-0.688l2.75-0.75h1.812l1.75-0.625l1.625-0.25l1.5,0.25
		l2.438,0.688c0,0,0.5-0.062,0.75-0.125c0.25-0.062,4-1.062,4-1.062l4.438-2.125l0.938-0.5h1.125l1.125,0.5l1.125,0.938l1.188,1.938
		l2.062,3.5l1.438,1.125l1.062,1.25l3.312,1.875l4.625,2.312l2.062,0.688l1.688,1.25l2.562,1.75l3.312,3.438l1.875,2l1.938,2.562
		l2.125,1.25l3,1h1.062l1.25,0.188l1.062,1.188l1.5,1.438l2.062-0.562l0.875-1l0.5-0.875l1.75-0.625l1.938-0.5l2.75-0.625
		l4.562-1.938l1.688-0.375l2.188-0.062l2.188-0.562l2.062-0.938l1.438-0.625l2.062-0.25l3.188-0.062l1.625,0.625l1.125,0.875
		l2.062,2.188l4,3.062l2.5,1.312l4.562,0.375h6.125l3.25-0.625l3.812-1l2.688-0.688l2.062-1.312l2.438-1.438l1.5-0.5l1.062,0.438
		l1.75,1.125l1.688,0.688l0.875,0.75l1.688,1.188l2.188-0.562l4.062-2.875l2-1.875l1.062-1.312l0.875-1.938l2.375-2.125l4.438-4.438
		l3.625-3.562l3.438-3.688l1.438-1.188c0.438,0.188,1.75,0.75,1.75,0.75l0.562-0.25l1.875-0.375l1.188,0.625l1.875,1.312l0.688,0.5
		l2.375,0.25c0,0,1.062-0.062,1.438,0.062s1.5,0.625,1.5,0.625l1.312-0.062l0.938,0.375l1.25,0.875l0.875,1l0.625,0.312l0.938-0.062
		l1.125-0.562l1.125,0.375l0.312,0.312v1.062l0.688,0.875l1.375,0.062l2.188-0.188l2.188-1.375l1.312-0.5l1.688-0.438l1.75-0.375
		l1.75-0.188l1.5-1.875l1.938-0.812l2-2.312l0.812-0.75l1.25-0.688h1.188l1-0.375l0.688-0.625l1.312-0.562l1.5,0.375l4,0.312
		l1.125,0.25l1.062,0.812l1.562,1.375l1.625,1.625l0.875,0.312l1.438,0.312l1.188,0.312l1.438,0.375l0.938,0.438l0.812,0.938
		l1,0.375l0.938,0.125l1.812,0.125l0.438,0.438l1.125,1.062l2.188,0.75l3.75,1.25l3.188,0.875h1.188l1-0.812l1.188-0.562
		l1.938-1.375l1.312-0.062l1.312,0.562h0.875l2.438-0.688l2.812-1.062l1.062-0.688l1.438-0.438l1-0.312l1.375-0.188l1.438-1.562
		l2.375-2.812l1.5-1.125l0.938,0.188l1.438,1l1,0.25l1.812-0.375l2.75-0.688l2.062-0.688l1.938-1.5l1.125-0.062l1.125,0.312
		l0.812-0.125l0.938-0.25"/>
	<polyline fill="none" stroke="#FF0000" stroke-width="0.25" stroke-miterlimit="10" points="432.998,95.072 435.373,95.135 
		436.936,95.76 437.686,95.26 438.123,94.822 439.561,94.697 442.498,94.822 443.248,95.322 445.873,94.885 448.811,94.76 
		450.061,94.885 451.123,94.697 451.686,94.51 452.248,95.135 453.498,95.572 454.811,94.76 455.873,94.385 457.498,94.51 
		459.811,94.947 460.436,95.447 461.873,97.072 463.186,97.385 464.373,97.697 465.623,98.197 468.373,98.447 470.811,98.635 
		472.936,98.635 474.561,97.51 477.061,94.697 477.936,93.822 479.123,92.947 482.248,90.385 484.811,88.01 485.498,87.197 	"/>
	<path fill="none" stroke="#FF0000" stroke-width="0.25" stroke-miterlimit="10" d="M497.686,93.572l3-1.25l1.125-1l1.438-0.188
		l2.688,0.438l1.812-0.125l0.625-0.5l1.75,0.125l1.125,0.75l1.688,1l1.688,0.562l2,0.312l1.312,0.375l1.75,0.375l2,0.188
		l1.625,0.312l1.438-1l2.25-1.062l2.562-2.5l1.562-0.938l1.312-0.75l1.75-0.688l0.375-0.25c0,0,0.938,0,1.125-0.125
		c0.188-0.125,0.625-0.812,0.625-0.812l0.875-0.375l1.312,0.312l1.875,0.688l1,0.312l1.062,0.312l1,0.812l1.25,1.375l0.75,0.562
		h1.062l1.688,0.438l1.375,0.812l1.75,0.75l5.062,0.688l5.938,0.688l6.875,0.312l8.188-1.062l6-0.812l5.938-0.562l2-0.625
		l1.438-1.062l2.5-1.875l3.312-2l2-0.562l1.125-0.562l1.5-0.625l1.938,0.125l1.938,0.875l2.062,0.75l0.875,0.875l1.438,1
		l2.125-0.062l1.688-0.5l2.25-2l3.75-5.812l1.312-1.312l1.5-0.5l2.312,0.312l1.438,1l1.25,1.188l1.25,0.875l1.312-0.625l1.188-1.312
		l1.062-0.812l0.5,0.75l1.938,1.875l2.562,3.188l1.5,2.062l2.188,1.25l1.25,1.188l0.688,0.375l2.75,1.062l1.938,0.5h1.125l1.375-1.5
		l0.562-0.375l2.25-0.688h1.938l3.188,0.625l2.625,0.812l1.938,0.562l1.375,0.125l0.938-0.312l1.688-1.25l1.312-0.875l2.125-0.312
		h1.5l3.062,1.25l1.875,0.625l2.688,0.812l2.688,0.75l3.125,0.688l2.125-0.625l0.625-0.688l3.062-0.375l1.438-1.438l3.312-1.812
		l2.062-0.438l3.312-0.312l1.312-0.188l2.312-2.25l1.312-0.562l2.75-0.875l2.5-1.375l3.375-0.375l2.75-0.75l1.688-0.375
		c0,0,1.312-0.562,1.625-0.562s2.5-0.812,2.5-0.812l2.25,0.062L731,78.637l3,0.688l3.375,1.625l3.75,1.562l3.688,1.75l2.688,1.188
		l1.375,0.062l1.812-1.312l1.688-1.5l2.062-1.125l1.188-0.188c0,0,0.625,0.312,0.875,0.438s1.188,0.125,1.188,0.125
		s1.688-0.5,1.875-0.562c0.187-0.062,2.938-0.25,2.938-0.25l1.688,0.25l0.75,0.688c0,0,0.625,0.312,0.812,0.312
		s0.938-0.75,0.938-0.75l3.625-2.5c0,0,1.25-0.75,1.625-0.812s1.438-0.125,1.438-0.125h1l1.125-0.375l0.938-0.875
		c0,0,1.062-1.062,1.25-1.062c0.188,0,3.375-0.062,3.375-0.062l1-0.438l1.812-1.125l0.875-0.5l2.938-0.375l3.25-0.938l2.375-0.625
		l2.062-1.938l3.875-2.438l3.75-0.625l3.188-0.125l3.875-0.125l1.438-0.812l1.125-0.562h2.688l3.75-0.125l4.312,0.25l3.188,1.25
		l2.438,2.312l1.25,0.625l1.25-0.25c0,0,0.875,0,1.062-0.125c0.188-0.125,1.812-0.125,1.812-0.125l1.562,0.438l1.062,0.375
		c0,0,0.75,0.75,1.125,1.062s1.312,0.812,1.562,0.812s3.5-0.625,3.5-0.625l2.688-0.438h1.938l2.25,0.688l2.188,0.625l2.625-0.062
		l2.312,0.125l3.375,0.75l2.375,1.062l2.062,0.188l2.688,1.438l1.062,0.875l0.75,1h1.375l1.438-0.562l2.438-0.812l1.438-1.375
		l2-0.938l0.938,0.188l1.5,0.25c0,0,0.625-0.5,1.188-0.75c0.562-0.25,3-0.938,3-0.938l3-1l2.375-0.125l1.5-0.188l3.25-1.312
		l3.688-1.562l3.125-0.875l1.75-0.375l1.375-0.438l4.375-3.625l3.375-4l3.75-4l2.062-2.062l1.75-1.062l3.875-2.75l2.438-1.312
		l2.938-2.25l1.75-1.25l1.438-0.625l1.188-0.312l3.75,0.688l2.875,0.812l2.062,0.438l1.375-0.812l0.75-0.25l1.562,0.438l3.188,0.938
		l1.062,0.688l1.438,0.75l1.75,0.125l0.875-0.75l0.75-0.688l3.25-0.375l2.188-0.188l2.125,0.188l2.125,0.75l1.062,0.062h1.938
		l1.812-1l2.688-0.625l1.562,0.375l1.5,0.812l2.312,1l1.812,1.312l2.688,1.062l3.25,0.5l2.812,0.188l3.438,0.875l1.875,0.062
		l2.562,0.688l3.188,0.688l4.312-0.25l1.938-0.062l1.812,0.562l1.25,0.25l0.75-0.062l2-0.688l1.188,0.438
		c0,0,0.938,0.375,1.188,0.438s2.688,0.125,2.688,0.125l2.125,0.062c0,0,2.625,0.062,2.812,0s1.25-0.438,1.25-0.438h1.188
		l2.25,0.875l2.936,0.812"/>
</g>
</svg>
