<?xml version="1.0" encoding="utf-8"?>
<!-- Generator: Adobe Illustrator 16.0.4, SVG Export Plug-In . SVG Version: 6.00 Build 0)  -->
<!DOCTYPE svg PUBLIC "-//W3C//DTD SVG 1.1//EN" "http://www.w3.org/Graphics/SVG/1.1/DTD/svg11.dtd">
<svg version="1.1" id="svg" xmlns="http://www.w3.org/2000/svg" xmlns:xlink="http://www.w3.org/1999/xlink" x="0px" y="0px"
	 width="1029.121px" height="683.52px" viewBox="0 0 1029.121 683.52" enable-background="new 0 0 1029.121 683.52"
	 xml:space="preserve">
<image overflow="visible" enable-background="new    " width="4288" height="2848" id="image" xlink:href="AK12_20100906_214611.JPG"  transform="matrix(0.24 0 0 0.24 0 0)">
</image>
<g id="horizon">
	<path fill="none" stroke="#FF0000" stroke-width="0.25" stroke-miterlimit="10" d="M0,118.125l4.5,1.25l4.625,2.125l2.875,2
		l1.5,0.25l1.375,0.5l1,0.625l1.5-0.75L19,123.75l0.625-0.625L20.75,122l0.875-0.75l1.25-1.5h0.75l1.875,0.5l2.875,1.125l3.125,1.5
		L33.75,124l1.25,0.875l0.625,1.375l1,0.375h2.5l2,0.125L42.5,127c0,0,0.375,0,0.875,0s2-0.25,2-0.25l1.75,0.625l4,2.625l3.5,1.75
		l1.75-0.25l1.75-1.125L60,130h1.5h1.75l2.375,0.5l0.5,0.125l1.5-0.75l1.25-0.25l0.875-0.375l0.625-1.25l1-0.5L74,127.375l2.375-0.5
		L79,126.75l1.75-0.875l1.625-0.25h1.75l0.75,0.5l1,1.625l0.75,0.875l0.875,0.5L88.25,129l0.875-0.25l2.875,0.5l0.625,0.375l2,0.5
		c0,0,0.625-0.25,1-0.25s1.75-0.25,1.75-0.25h1h0.875l2.75-0.25c0,0,0.5-0.125,0.875-0.125s2,1,2,1l0.75,0.125l1.125-0.875
		l1.25,0.375l1.5,0.5h1.188l1.438,0.062l0.812,0.25l0.438-0.562c0,0,0.125-0.438,0.375-0.438s1.125-0.062,1.125-0.062
		s0,0.188,0.312,0.188s0.938,0,0.938,0l0.625-0.375c0,0,0.188-0.312,0.5-0.25s1.188,0.25,1.188,0.25l0.688,0.5l0.875,0.25
		l1.125,0.562l0.938,0.25l1.375,0.25l0.438,0.25l0.938,0.375l1.188,0.312l1.25,0.125l1.062,0.188l1.125,0.125l1.062-0.562
		l0.438-0.562l0.125-0.938l0.312-0.625c0,0,0.25-0.25,0.438-0.188s0.938-0.125,0.938-0.125l0.5-0.5l0.25-0.75l0.812-1.312
		l0.25-1.188l0.5-0.312c0,0,0.688-0.5,0.875-0.562s1.062-0.5,1.062-0.5l0.562-0.5l0.5-0.625l0.625-1.062l0.31-0.564l0.438-0.562
		l0.625-0.25l0.75-0.438l0.938-0.125l1.062-0.25l1.375,0.375c0,0,0.438,0.25,0.625,0.438s0.75,0.375,0.75,0.375l1.125,0.375
		c0,0,0.812,0.562,1,0.688s0.562,0.375,0.75,0.438s0.875,0.438,0.875,0.438l1,0.188l1.188,0.375c0,0,0.438,0.312,0.625,0.375
		s0.812,0.562,0.812,0.562s0.125,0,0.312,0.188s0.688,0.125,0.688,0.125H155l0.625-0.062l0.812,0.312l1,0.688
		c0,0,0.625,0.375,0.875,0.625s0.562,0.5,0.812,0.688s1.062,0.688,1.062,0.688l2.5,1.188l1.375,0.062l0.688-0.125l1.875-0.125
		l0.75-0.375l1.188-0.562l0.688-0.5l1.688-0.25l1.5-0.062h0.688h1.062c0,0,0.938,0.25,1.25,0.375s1.062,0.312,1.062,0.312
		l0.938,0.062c0,0,0.25-0.25,0.438-0.25s1.125-0.562,1.125-0.562l1.062-0.438l0.875-0.188l0.875-0.062l1.25,0.188l0.75,0.125
		l0.375,0.188l0.5-0.25l0.75-1l0.375-0.438l0.625-0.25c0,0,0.188,0.188,0.375,0.375s0.875,0.688,0.875,0.688l1.062,0.375h1.125
		h1.188l0.812,0.125l0.688,0.188l1,0.625L194,128.25l1.562,1.438l1.25,1.125l0.938,0.312l1.188,0.438l1.688,0.812l2.375,1.438
		l1.875,0.875l1.312,1.062l1.938,1.062l1.062,0.438l1.812,1.188l2.5,2.25c0,0,0.938,0.688,1.125,0.812s1.125,0.625,1.125,0.625
		s1.062,0.5,1.25,0.625s1.312,0.375,1.312,0.375l0.938,0.062h1.062c0,0,0.375-0.125,0.625,0s0.938,0.625,0.938,0.625l1.062,0.375
		l1.312,0.438l1.312,0.438L227,145.5l1.75,0.5h0.5l2.188-0.688l1.375-0.875l1.125-0.562l1.25-0.188l0.938,0.062h0.688l0.5-0.5
		l1-0.125h1.125l1.625,0.188l0.812,0.062c0,0,0.75-0.312,0.938-0.375s0.75-0.25,0.75-0.25s0.5-0.062,0.688-0.062
		s1.375,0.188,1.375,0.188l0.562,0.125l2.375,0.25l2.75-0.188h1.438l0.938-0.25l1.25-0.562l1.25-0.062l1.25,0.25l0.562,0.188
		l1.125,0.25l1.125-0.188l2.125-1.25l1-0.25c0,0,1.188-0.062,1.375,0s1.375,0.188,1.375,0.188l1.438,0.312l0.938-0.125
		c0,0,0.5-0.375,0.75-0.375s1.125,0,1.125,0l0.188-0.562l1-0.062l0.688,0.312c0,0,0,0.312,0.188,0.375s0.688,0.188,0.688,0.188
		s0.75-0.062,0.938,0s1.188,0.125,1.188,0.125l1.25,0.062l0.938,0.25c0,0,0.688,0.312,0.938,0.438s0.938,0.438,0.938,0.438
		l0.75,0.438l2.312-1.812l1.438-1.812l1.688-1.75l1.562-1.438c0,0,0.438-0.312,0.625-0.312s0.688-0.625,0.688-0.625l0.812-0.75
		l0.938-0.812l1.812-0.875l2.188-1.062l0.938-0.375l1-0.188l1.188,0.25l1.25,0.812l1.5,0.688l1.5,1.625l2.375,2.75l1.5,1.562
		l1.062-0.062l1,0.562l0.875,0.75l0.625,0.562l0.75-0.062h0.812l0.625,0.312c0,0,0.75,0.75,0.875,0.938s0.938,0.938,1.125,1.188
		s0.938,1.438,0.938,1.438l0.5,0.75l2.375,0.562l3.812,1.375l1.438,0.938l1,0.625c0,0,0.5,0.312,0.812,0.375s1.312-0.25,1.312-0.25
		l1-0.125l1,0.312c0,0,0.188-0.188,0.5-0.375s0.688-0.438,0.688-0.438l1.375-0.625l1-0.062l1.062-0.188l1.25-0.062h1.125
		l1.375,0.125l1.312,0.188l1.062,0.375l0.438,0.25l0.312,0.062l1.812-0.625l2.5-1.25l2.062-0.625l2.125-0.25c0,0,1,0.062,1.25,0.125
		s1.312,0.375,1.5,0.438s0.625,0.188,0.938,0.375s0.812,0.625,1.062,0.75s0.625,0.312,0.625,0.312s0.562,0,1.062,0.125
		s1.188,0.312,1.188,0.312s0.75,0.625,0.875,0.812s0.938,0.438,0.938,0.438l0.938,1.188l0.625,0.438l1,0.375l0.812-0.125h1.312
		c0,0,0.812,0.062,1.188,0.25s1.688,0.688,1.688,0.688l1.25,0.562l3.125,1.75l1.812,1l2.312,1.875l1.812,2l1.125,0.812l3,1.125
		l2.25,0.312l2.188-0.125L389,161.25l3.938-0.562l1.312-0.438l0.812-0.438l0.938-0.375l0.75-0.062c0,0,0.875-0.188,1.125-0.062
		s0.812,0.375,1.062,0.438s1.062,0.438,1.062,0.438l0.688,0.438l0.875,0.75l0.75,0.625l1.812,0.688l2.062,0.75l1.938,1.188
		c0,0,1,0.875,1.125,1.062s1,1.312,1,1.312s0.312,0.25,0.5,0.375s1.25,0.25,1.25,0.25l0.75-0.125l1.125-0.062
		c0,0,0.875,0.062,1.125,0.25s1.375,0.875,1.625,0.938s0.875,0.5,0.875,0.5h0.75l0.875-0.25l1.312,0.375
		c0,0,0.938,0.438,1.188,0.625s2,1.438,2,1.438l2.062,1.25l1.125,0.75l1.312,0.688l1,0.125l1.188,0.438l0.5,0.188l2,0.062
		l0.625,0.312l1.062,0.312l2.562,0.125l2.25-0.562l0.688-1l0.625-0.625l0.625-0.438l1.188-0.312h1.438l1.562,0.312h1.625
		l1.375,0.062l1.875,0.125H452h1.562L455,172.75l1.375-1.062c0,0,1-0.75,1.188-0.812c0.188-0.062,1.438-1.062,1.438-1.062
		l0.688-0.812l2.125-2.188l2.125-1.812l1.438-1.188l0.75-1.125l1.062-0.875l0.688-0.25l1.062-0.188c0,0,0.625-0.062,0.75,0.125
		s0.312,0.438,0.5,0.688C470.377,162.439,471,163,471,163l1.25,0.562l2.438,0.938l3.438,1.312l2.438,1l2.625,0.812l2.562,0.625
		l1.625,0.312l3.438,0.062l3.625,0.062l1.062-0.5l1.562-0.938l1.625-1.188l1.125-0.875L501,164.5c0,0,0.625-0.25,0.812-0.125
		c0.187,0.125,0.188,0.25,0.562,0.312s1.438-0.125,1.438-0.125l2.312-1.125l2.062-0.75l0.375-0.375l0.75-0.312l0.688,0.188
		c0,0,0.75,0.5,0.938,0.562c0.188,0.062,0.812,0.688,0.812,0.688l0.375,0.938l0.312,0.688c0,0,0.75,0.312,0.938,0.375
		s1.5,1.312,1.5,1.312l0.438,0.688l0.812,0.5l1.625,0.438l1.811-0.188l1.312-0.625l2.062-1.062l0.938-0.75l1.125-0.062l1.812-0.562
		l0.875-1l0.625-0.188l1.125-0.25l1.188-1.25l1.312-0.75l0.688-0.25c0,0,0.875-0.125,1.062-0.062s1.062,0.125,1.312,0.375
		s1.438,1.188,1.438,1.188l0.625,0.25h1.875c0,0,0.5-0.188,0.688-0.125s1.188,0,1.188,0l0.939,0.438l0.75,0.5l0.688,0.312
		l0.688,0.25c0,0,0.375,0.438,0.438,0.75c0.064,0.312,0.375,0.75,0.439,1.062c0.062,0.312,0.375,1.062,0.375,1.062
		s0.688-0.062,0.875-0.125c0.186-0.063,0.188-0.062,0.188-0.062l1,0.688h0.438l0.688-0.375l0.689-0.438l0.5,0.75l0.25,0.75
		l0.561,0.25c0,0,0.312-0.562,0.5-0.5c0.189,0.062,0.875,0,0.875,0h0.939L553.25,168l0.562-0.688l1.125-0.875l0.938-0.25
		c0,0,0.625,0.625,0.625,0.812s0.438,0.5,0.438,0.5l1.125-0.625L558.75,167c0,0,0.438,0.188,0.562,0.375
		c0.123,0.187,0.312,0.25,0.438,0.625c0.127,0.375,0.375,0.75,0.375,0.75l0.5-0.188l0.5-0.625l0.562-0.25h0.875l0.938,0.188
		l0.625,0.438L564.75,170l0.188,0.5l0.812,0.438l1.875-0.062l1.562,0.062h1.25l1.062-1.438l0.938-1.25l0.938-0.438
		c0,0,0.5-0.125,0.75-0.125s1.625,0.375,1.625,0.375l0.75,0.875l1.25,1.25l0.5,0.438l0.75,0.062l1.312-0.625l1.438-0.438
		l1.688-0.625l1.812-0.75l1.125-0.5l1.312-0.562l0.75-0.125c0,0,0.438,0.062,0.688,0.25s0.688,0.75,0.688,0.75l0.5,0.438
		l1.062,0.312c0,0,1.438,0.062,1.688,0.125s2.125,0.312,2.125,0.312l1.25-0.625l2.625-0.438h2.562l1.25-0.062h1.938L606.75,168
		l2-0.625l1.625-0.938l0.875-0.375l0.438-0.75l0.189-0.5l0.75-0.312l0.875,0.312l1,0.5c0,0,0.188,0.062,0.375,0.125
		c0.186,0.063,1-0.125,1-0.125l0.561-0.562l0.062-1l1-0.562l0.875-0.75l1-0.5c0,0,1-0.5,1.25-0.5s1.062-0.438,1.062-0.438l1.5-0.5
		l0.938-0.312L625,160l1,0.312l1.438,0.875l1.562,2.125l0.625,1.562l0.938,0.125h0.625c0,0,0.375,0.5,0.5,0.75s0.812,2,0.812,2
		l1.188,2.25c0,0,0.875,0.688,1.25,0.938s2.062,1.375,2.062,1.375l1.625,1.312l1.375,1.812l0.688,1.625l0.875,2
		c0,0,0.375,0.25,0.5,0.438s1.5,0.438,1.689,0.562c0.188,0.124,2,0.438,2,0.438l1.625,0.312c0,0,0.375,0.25,0.561,0.438
		c0.188,0.188,0.875,0.688,0.875,0.688l0.625,0.438l2.562,0.25c0,0,0.375,0.062,0.688,0.062c0.314,0,1.25,0.25,1.25,0.25
		l1.939,0.312l2.125,1l0.688,0.5l1.5-1.5l1.125-1.188l1.062-1l1.561-1.062l1.812-1.875l0.938-0.875l0.625-0.125l0.75-0.875
		l0.939-0.875l1.25-0.812l1.125-0.375l1.311-0.625l1.689-0.125h1.875l1.5,0.062c0,0,1.125,0.625,1.25,0.812s0.75,0.5,0.75,0.5
		l0.811,0.125l1.062-0.062h0.625l0.938,0.25l0.875,0.688l0.5,0.5l1.375,0.812l1.75,0.375l2.375-0.188l2.312-0.25l0.875-0.5
		l1.125-0.812l1.312-2.125l1.125-1.5l1.125-1.438l0.375-0.688l0.625-0.875l1.188-0.5l1.062-0.312l0.938-0.188l0.875-0.188h1.312
		l1.5,0.312l1.625,0.438l1.188,0.688l0.938,0.438l1.062,0.188l1.375,0.25c0,0,0.312,0.312,0.5,0.438s0.75,0.625,0.75,0.625
		l1.125,0.438h1.438l2.689,0.062c0,0,0.5,0.125,0.75,0.125s0.938-0.188,0.938-0.188s1.188-0.312,1.438-0.312s0.75-0.062,1.125,0
		s1,0,1.188,0c0.189,0,0.439-0.625,0.625-0.625c0.188,0,0.75-0.312,0.75-0.312l1-0.125c0,0,0.689-0.062,1.189-0.062
		s1.811,0.125,1.811,0.125s0.562,0.062,0.939,0.125c0.375,0.063,1.061-0.062,1.061-0.062s0.25-0.188,0.625-0.688
		s0.5-0.875,0.5-0.875l1.125-0.5l0.75,0.438c0,0,0.812,1.188,1.062,1.25s1.188,0.812,1.188,0.812l1.375,0.562l1.25,0.562l1,1.125
		l0.625,1.188c0,0,0.439,0.875,0.689,1.125s0.938,1.188,0.938,1.188s0.5,0.625,0.75,0.812s1.25,1.25,1.25,1.25l1.688,1.438
		l1.062,0.625h0.938l1.062-0.625l0.562-0.688l0.625-0.688c0,0,0.5-0.312,0.688-0.312s1.375,0.25,1.375,0.25l0.875,0.312l1.875,0.125
		h1.5l0.562,0.312c0,0,0.811,0.438,1.125,0.75c0.312,0.312,0.625,0.562,0.875,0.75s1.061,0.875,1.061,0.875l1.062,0.5
		c0,0,0.562,0,0.938,0.375c0.377,0.375,0.875,0.625,1.062,1s0.938,0.688,0.938,0.688s0.689,0.062,1.125-0.25
		c0.438-0.312,0.439-0.312,0.439-0.312l1-0.938l1.75-1.062l1.188-0.812c0,0-0.125,0.125,0.625-0.312s0.75-0.438,0.75-0.438
		l1.25-1.062l0.75-0.875l1.25-0.688l0.688-0.188c0,0,0.812,0,1.125,0s1.062-0.062,1.062-0.062s0.438-0.438,0.75-0.438
		s1.625-0.5,1.625-0.5l1.062-0.062h1.875l1.188-0.188c0,0,0.562-0.062,0.75,0s1.25,0.562,1.25,0.562l1.75,1l1.188,0.75
		c0,0,0.75,0.25,0.938,0.312c0.189,0.062,1.439,0.438,1.439,0.438l1.188,0.562c0,0,1.188,0.625,1.375,0.75s0.75,0.375,0.938,0.562
		s0.938,0.812,0.938,0.812h0.625l1.939-0.562l2.688-1.312l1.125-0.562l1.125-0.188l0.625-0.5l0.438-0.562h1.125l1.75-0.125
		l0.875-0.312l1.188-0.125l1.439-0.25h1.125c0,0,1.188,0.125,1.625,0.312c0.436,0.187,1.311,0.438,1.311,0.438l2,0.625l1.189-0.125
		l1.5-0.312c0,0,0.438,0.125,0.688,0.312s0.938,0.125,0.938,0.125L822.25,178l1.938-0.75l0.812-0.375l0.5-0.312
		c0,0,0.312-0.562,0.625-0.5s0.688,0,0.688,0s0.439,0.375,0.625,0.562c0.188,0.187,1.062,1.062,1.062,1.062l0.812,0.5l2.125,0.438
		l2.875-0.188l1.812-0.312l1.5-0.625l1.061-1.125l0.562-0.938l0.75-0.5c0,0,0.75,0.062,1.062-0.188s0.5-0.625,0.5-0.625l0.375-0.375
		l1.188-0.188l2.875-0.125l2.125-0.125c0,0,0.375-0.188,1.25-0.312s3.062-0.062,3.062-0.062l1.75-0.875l1.375-1.188l0.375-0.812
		c0,0,1-0.188,1.312-0.25c0.311-0.062,0.938,0,0.938,0l1,0.188l1.5,0.75l2.5,1.688c0,0,2.188,1.125,2.438,1.188
		s1.562,0.312,1.812,0.438s1.062,0.125,1.312,0.188s1.938,0.25,2.25,0.312c0.311,0.062,1.375,0,1.375,0s1-0.062,1.188,0
		s0.75,0.125,1.062,0.188c0.311,0.063,1.25,0.375,1.25,0.375l1.188,0.938l0.688,0.625c0,0,0.188,0.062,0.375,0.25
		s0.938,0.75,0.938,0.75l1.062,0.5c0,0,0.438-0.125,0.688,0s1.312,0.5,1.312,0.5s0.688,0.5,0.938,0.625s1.939,0.75,1.939,0.75
		l2.188,0.75l1.625,0.312l0.812,0.25l1,0.438c0,0,1.25,0.438,1.438,0.562s2.438,0.562,2.438,0.562l1.125-0.062l2.562-0.688
		c0,0,0.75-0.562,1-0.75s0.25-0.188,0.25-0.188s1.375-0.688,1.625-0.688s1.5-0.188,1.5-0.188l1.25-0.125l1.375-0.125l1.062,0.062
		l0.811,0.312l0.689,1.062l1,1l0.561,0.125c0,0,0.689,0.5,1,0.625c0.312,0.125,1,0.188,1,0.188h1.189l1.375-0.5l1.5-0.312
		l1.25-0.062l1.625,0.312c0,0,1.5,0.312,1.75,0.438s3.061-0.125,3.061-0.125l2-0.938l2.189-0.75l2-0.375l1.938-0.062
		c0,0,1.938,0.438,2.125,0.5s1.125,0.188,1.688,0.375s2.375,0.562,2.375,0.562h1.75h1.688l1.689-0.375l1.625-1.188l2.25-1.188
		l2.561-1l6.062-2.125l2.812-0.25l2.125,0.125l1.5,0.438c0,0,1.75,0.5,1.938,0.562s2,0.625,2,0.625l2.25,1.625l0.688,0.438
		l0.75-0.562l1.062-0.5l0.938-0.062c0,0,0.625,0,0.875-0.125s0.75-0.312,0.75-0.312s0.939,0.062,1.189,0.062
		s1.875,0.188,1.875,0.188l1,0.188l1-0.062l1.561,0.25c0,0,0.75,0.062,1.125-0.062s1.189-0.312,1.189-0.312l2,0.125l2.188,0.25
		l1.188,0.25l1.438,0.312l1.939-0.25l1.061-0.312l1.439,0.125l0.688,0.375c0,0,0.5,0.125,1.062,0.5c0.561,0.375,1,0.625,1.375,1
		s1,0.688,1,0.688l2.561-0.125l1.125-0.625l1.312-1.188l1.562-1.312l0.875-0.188l1.125-0.062c0,0,1.688,0,1.875,0
		s1.438,0.25,1.438,0.25l0.938,0.062c0,0,1.375-0.688,1.625-0.75s0.689-0.188,0.689-0.188l2.438-0.062l1.875,0.188l1.25,0.375
		l0.5,0.375l0.938,0.312l0.812,0.062l1.438,0.562c0,0,0.812,0.438,0.938,0.625c0.127,0.187,1.312,0.188,1.312,0.188l0.938-0.125
		l0.939-0.25l0.938-0.438l1.438-1.188l1.25-1.062"/>
</g>
<g id="gcp">
	<circle id="ledgedot" fill="#FF0000" cx="2.341" cy="192.459" r="0.25"/>
	<circle id="kissers" fill="#FF0000" cx="212.756" cy="223.018" r="0.25"/>
	<circle id="brokens" fill="#FF0000" cx="313.562" cy="210.688" r="0.25"/>
	<circle id="rustcut" fill="#FF0000" cx="322.438" cy="212.438" r="0.25"/>
	<circle id="dragonduct" fill="#FF0000" cx="452.75" cy="214.688" r="0.25"/>
</g>
<g id="land">
	<polygon fill="none" stroke="#FF0000" stroke-width="0.25" stroke-miterlimit="10" points="355.06,681.927 445.06,627.26 
		502.061,598.26 597.727,570.26 675.727,554.594 678.06,562.594 657.06,580.26 589.394,601.927 535.727,635.594 492.061,671.594 
		481.727,683.52 	"/>
	<path fill="none" stroke="#FF0000" stroke-width="0.25" stroke-miterlimit="10" d="M0,253.926v-142l13.06,4.667l8.667-1.667l9,1
		l8,5l14.667,4.333l9-0.333l8.333-3l8.667-2l7.333,1l11,3.333l20.667,1.667l9.667-2.333l8-5.468h14l7,1.468l9,3l16-2l7.333-0.667
		l10.667,4.667l21.667,12.333h21.333l19.333-1.333l16.333-0.333l7.333-9l14.333-1l9.667,5.667l7.667,7.667l15,2.333l12.667-0.667
		l13.667,4l15,7.177l12,3.156h10.667l16.667,3.333l14.333,8l17.667-0.333l9.667-2.333l9.333-6.667l20,0.667l10.333,2.667
		l19.833-3.667l25.834,2.333l48.333,3.667l16.333-0.333l10-4l12-2l14.667,7.333l4.667,5.333l5,1l7-0.333l7-3.667l12.666-1.667
		l25.667-3h22l18,2.333l8.333,5.333l11.334,3l11-0.667l9-1.333h24.333h28l14.334-4.667l19.333,0.667l17,5.333l13.333,2.333l20,2
		l36-3.333l31.334-3l42.06,2v52.333l-29.06,2.667l-10.667,2.667l-14.667,2.333l-16.333,0.667l-7.333-2.333l2-3l3.333-2.333l15-2
		l7.333-3l0.667-3l-8-3h-25.667l-27.666,0.333l-17.334,4l-13.666,5.333l-8.334,1.667l-26.333-0.333l-14-2l-1.333-4l7-5l-3-4.667
		l-6-2l-3.333-5l-14.334-4l-13.333,1l-17-1.333h-10.333l-6.334,2.333c0,0,3.334,2.333,4.334,2.333s7,3.333,7,3.333l-2.667,1h-17.333
		l-24-0.667h-11.667l-28-1.333h-7.667l-12.666-0.333l-2,0.667l5,4.667l3.333,2.333l-4.333,4.333l-16,1l-18.667,0.667l-34-1.333
		l-31.667-1.667l-13-1.572l-6.666-2.25l-4-2.845l-11.334-3l-4.666-5.667l-8-4l-7.667-2l-0.667-6l-3-4l-60-1.667l-21.333-1
		l-3.667,2.667l9.667,7l18.333,8l17.333,3.667l14.333,6l13.333,7.345l3,4.988l-7.333,3.667l-19,2.333l-26,1l-28,2.667l-34.667,1
		l-22.667,1.333l-44,2l-51.667,4.667l-32,2l-24,5l-21.333,2.667l-11.667,0.667l-7-0.333l-5.333-6.333l-7.667-16v-14.072
		l15.333-8.595l17.667-8.333l13.667-5l2-5.511l-5.222-1.823l-18.112,1.823l-49,7.96l-27.667,5.884l-17,2l-17,1.333l-20.667-0.667
		l-8-4.333l0.333-6.333l1.667-5.844l-9.333-8.823l-19.667-1.333l-6,0.333l-3,3.667l1.333,9.667l4,6.667l26.333,17.762l18.667,19.238
		l9,10.667l-2.667,6l-9.333,3l-47,2.333H0z"/>
</g>
</svg>
