<?xml version="1.0" encoding="utf-8"?>
<!-- Generator: Adobe Illustrator 16.0.4, SVG Export Plug-In . SVG Version: 6.00 Build 0)  -->
<!DOCTYPE svg PUBLIC "-//W3C//DTD SVG 1.1//EN" "http://www.w3.org/Graphics/SVG/1.1/DTD/svg11.dtd">
<svg version="1.1" id="svg" xmlns="http://www.w3.org/2000/svg" xmlns:xlink="http://www.w3.org/1999/xlink" x="0px" y="0px"
	 width="1029.121px" height="683.52px" viewBox="0 0 1029.121 683.52" enable-background="new 0 0 1029.121 683.52"
	 xml:space="preserve">
<image overflow="visible" enable-background="new    " width="4288" height="2848" xlink:href="AK12_20101130_211712.JPG"  transform="matrix(0.24 0 0 0.24 0 0)">
</image>
<g id="land">
	<polygon fill="none" stroke="#FF0000" stroke-width="0.25" stroke-miterlimit="10" points="0,523.5 157.5,523.5 288.5,530.5 
		414.5,557.5 495.5,605 547.5,657.5 557.5,683.52 0,683.52 	"/>
	<polygon fill="none" stroke="#FF0000" stroke-width="0.25" stroke-miterlimit="10" points="0,292 42.5,281.5 56.5,273.5 56.5,256 
		44.5,247 13.5,239 0,236 	"/>
	<path fill="none" stroke="#FF0000" stroke-width="0.25" stroke-miterlimit="10" d="M0,208.5V109l23,18.5l18.5,9H52l12.5-4.5l14,1
		l12,5.5L103,137l12-3.5l15-1l7.5-6l9.5-7.5l16-5l13,1l6.5,1.5l10-5c0,0,14-1.5,15.5-2.5s12,3,13.5,3.5S235,118,235,118l13-1l9-3.5
		l45-11.5l21,5.5l22-11l14.5,4.5l16.5,2.5l26-3.5l25.5,2.5l19-6L460,92l17-7l27.5,4l20.5,7l19-2.5l32.5-8.5h17h20l16.5-5l28-8h22
		c0,0,27.5,3.5,29,3.5s19.5-3.5,19.5-3.5l22-15.5l14-6.5l24.5-3h16.5L846,57.5l54.5,6.5H920l23.5-6.5H977l22,4.5l30.121-4v187H868
		H717l-114.5-6l38-24l24.5-10l-2.5-9l-57,9.5l-52.5-1l-22.5,1.5l-32.5,6l-13,10.5L462.5,233l-19.5,2.5l-56-9L361.5,211l-8-8l11-15
		l-9-6l-30.5,2l-63.5,8l-25.5-2.5l-21.5-2l-37-7.5l-47-11.5L107,167l-21-2.5l-4,4.5l22,17l-7.5,5l-9,1.5l1,8L97,206l-8,4.5L70,214
		l-37-4L0,208.5z"/>
</g>
<g id="horizon">
	<path fill="none" stroke="#FF0000" stroke-width="0.25" stroke-miterlimit="10" d="M0.263,117.278l2.749-0.458l1.833,1.833
		l3.207,4.581l2.901,3.207l4.525,3.153l4.333,1.75l4.583,1.5l3.667,2.417l2.833,2.333l2.167,2.583l3.167,3.25l5.25,1.833l2-0.167
		l1.583,0.5l1.25,1.417l1.333,1.167h1.083l1.417-1.083l2-1.333l0.833-0.5l1.833-0.083l7-2.667l2.667-1l1.917-0.417l2.417-0.833
		l2.917-1.333l2.583-0.5l3.083-0.167h2l1.917,1.083l4,2.25l4.833,3.5l2.75,1l5.5,0.75h3.583l3.083-0.917l0.75-0.583
		c0,0,1.833-0.417,2.167-0.333s1.75,0.25,1.75,0.25l5.667-2.333l2.333-1.583l1.667-1.25l1.833-0.25c0,0,0.75,0.583,0.917,0.833
		s2.833,1.5,2.833,1.5l2.417,1.083l1.667,0.833l3.167-1.5l4.167-3.583l3-4.417l4.5-4.583l4.833-4.5l3.167-3.667l1.833-2.083
		l0.5-0.333l1.167,0.333l0.833,0.667l2.417-1.333l1.167,0.333l1.667,1.167l1.417,0.333l0.417,0.5l2.75,0.417l4.417,1.083l2,0.417
		c0,0,0.167,0.417,0.417,0.667s1.917,1.667,1.917,1.667l1-0.417l0.917-0.667l0.917,0.167l0.583,1.583l1,0.333l2.167,0.333
		l1.583,0.083l1.25-0.333l2.167-1.833l2.75-0.833l2.5-0.083l4.583-4.417l4.167-2.583l1.667-0.833l1.5-0.833l1.25-0.083l2.583,0.75
		l4.917,0.917l1.917,0.75l2.083,2.5l1.333,0.333l2.833,0.25l1.75,0.917l1.583,1.167l1.417,0.083l1.5-0.25l0.833,0.75l1.25,1.083
		c0,0,1.833,0.583,2.333,0.833s4.25,1.167,4.25,1.167l3.167,0.667l1.583-0.667l1.5-1.25l1.25-0.917h2.417l1.583,0.333l1.25,0.083
		l0.917-0.083l2.333-1.167l1.083-1.083l2-1.167l2.667-0.583l1.749-0.833l2.5-2.583l1.667-1.75l2.75,1.167l1.417,0.5l1.583-0.75
		l2.917-0.833l1.75-0.5l1.5-1l1-0.167h1.667l1.667-0.333l1.417-0.833l1.667-0.5l2.583,0.833l1.75,1.25l0.75,0.083h1.167l2.167,0.167
		l1.333-0.5l2.833-0.417l1.083-0.167l1.25,0.667l1.833,0.167c0,0,1-0.084,1.417-0.167s1.917-0.167,1.917-0.167h2.25l0.583-0.333
		l0.833-0.083l1.667,0.5l0.917-0.417l1.583-0.75l2.5,0.333l1,0.333l2,1.083l2.5,1.75l1.917,0.167l2.917,0.25l3.5,0.25l1.833-0.333
		l4.083-4.417l3.583-2.667l2.167-2.333l1-1.167l1.167-1.5l2,0.583l0.833,1.083l3.5,3.917l0.5,1.25l1.333,0.75l1.667,0.583"/>
	<path fill="none" stroke="#FF0000" stroke-width="0.25" stroke-miterlimit="10" d="M353.557,111.343l2.25-1l1-0.917l0.833-0.333
		h1.167l2.25,0.25l1.25-0.417l1.75-0.5l1.333,0.417l1.833,1l0.833,0.75l2.833,0.75l5.25,0.833h2.75l2.417-1.333l2.25-1.583
		l3.417-2.75l1.167-1l1.75-1.167l0.917-0.583l1.083-0.5l1.75,0.333l1.75,0.833l1.583,0.167l0.417,0.083l1.25,0.917l2.917,2
		l2.083,0.25l0.75,0.167l1.917,1l1.167,1.083l4.083,0.167l6.333,0.583l6.583-0.083l5.917-0.917l3.417-0.833l6.75-0.917h4.25
		l2.917-1.25l3.333-3.25l3.833-2.167l2-0.667l0.75-0.417h1.833l2.583,0.583l1.417,0.25l1,0.667l1.083,1.333l1,0.667l2.167-0.25
		c0,0,0.583-0.5,0.917-0.667s1.75-1,1.75-1l3.083-4.917l2.667-3.167l2.25-0.75l2.5,0.667l1.667,1.5l1.667,1.083l0.917-0.417
		l1.5-1.333l0.75-0.667l0.833,0.167l0.667,1.417l2.667,2.25l2.5,2.833l3.25,2.417l3.167,1.417l2.75,0.583l1.667-0.25l1.083-1.417
		l0.917-0.25l2.667-0.167l2.083,0.5l2.333,0.083l2.583,0.917l1.917,0.5l2.583-1.083l2.834-1.75l2.083-0.5l3.083,0.917l1.5,1.167
		l1.667,0.333l2.167,0.25l5.083,0.75c0,0,0.751,0.333,1.167,0.333s1.333-0.667,1.333-0.667l1.5-0.667l1.5,0.083l1.917-2.083l2.5-1
		l3.833-1.083l2.167-0.583l1.166-1.167l2-1.333l2.084-0.583l4.999-2.25l5.417-0.833l2-0.917l2.416-0.833l8,0.417l5.75,2.083
		l8.084,3.833l3.083,0.083l2-2.5l2.5-1.167l2.167-0.5l1.416,0.25l2.167-0.583l2.083-0.25l2.084,0.167l0.666,1l1.167-0.083l2.25-2
		l2.167-1.417l5.333-2.167l2.75-0.75l2.5-0.833l0.917-1l0.416-0.5c0,0,0.666-0.167,1,0s1.5,0.417,1.5,0.417l1-0.667l0.834-0.417h2.5
		l4.166-3.833l3.667-1.833l4.75-0.583l3.5-0.083l1.5-0.5l1.583-0.75l4.584-0.417h5.25l3,1.083l3.5,3.083l1.583,0.667l0.835-1.333
		l2.5-0.25l2.333,0.417l1.25,1.667l1.667,0.917l2.833-0.333l3-0.917l2.417,0.167l3.833,0.5l4.584,0.5l3.5,0.583l2.916,0.75l2.584,1
		l1.416,1.417l0.5,1.083l1.667,0.083l1.167-0.917l1.25-1.083l0.833-0.417l1.917-1.417l1.083-0.25l1.833,0.417l1.667-0.833
		l4.333-2.083h2.417h1.416l1.667-0.5l4.583-1.917l4-1.667l2.584-1.25l1.666-1.167l6.834-7.75l6.916-6.25l5.084-3.917l2.916-2.25
		l2.167-0.167l4.25,1.333l2.5-0.083l1.667-0.583l1-0.167l1.333,0.333l2.333,0.75l2.167,0.917l2.167,0.667l1.583-1l2.75-0.833
		l1.5-0.25l2.25,0.333l2.417,0.917c0,0,1.916,0.334,2.333,0.417s1.75-0.583,1.75-0.583l1.75-0.5c0,0,1.751-0.333,2.167-0.25
		s2.167,1,2.167,1l1.25,1.167l4.583,1.75l3.667,0.5l4.583,0.5l4.75,1.083l4.25,0.417h2.917l4.25,0.583l4.416,0.083h3.917h2.667
		l2.333,0.083c0,0,3.083,0.584,3.333,0.667s3.334,0.083,3.334,0.083l4.416-1.25l2.334-0.167l3.333,0.417
		c0,0,2.917,1.167,3.167,1.333s3.583,2.333,3.583,2.333l5.584,1.583l4.667,2.083l2.5,0.833l1-0.417l2.166,0.417l2.417,1.5
		l2.667,0.917l3.166,2.083l0.834,0.167l3.166,0.5l1.584-0.167h3.083c0,0,1-0.083,1.25,0s3.917,0.5,3.917,0.5l1.416-0.333l2.584-1.5
		l5.5-3.5l4.833-2.083l4.333-0.5h4.75l4.417-2.667c0,0,1.917-0.917,2.25-0.917s3-0.083,3-0.083s3.25,0.333,3.5,0.417
		s4.167,0.5,4.167,0.5l5.084-0.167l3.333-0.25l3.75,0.167l7.667,2.25l6.5,0.833l7.333,0.417l5.583,0.417l1.917,0.417l3.833-0.5
		c0,0,2.167,0.083,2.417,0.083s3-0.167,3-0.167l5-0.667l3.417,0.167l2.75-0.75l2.917-1.5l2.666-1.333h1.417l1.583,0.667h1.417
		l1.562-0.416"/>
</g>
</svg>
