<?xml version="1.0" encoding="utf-8"?>
<!-- Generator: Adobe Illustrator 16.0.4, SVG Export Plug-In . SVG Version: 6.00 Build 0)  -->
<!DOCTYPE svg PUBLIC "-//W3C//DTD SVG 1.1//EN" "http://www.w3.org/Graphics/SVG/1.1/DTD/svg11.dtd">
<svg version="1.1" id="svg" xmlns="http://www.w3.org/2000/svg" xmlns:xlink="http://www.w3.org/1999/xlink" x="0px" y="0px"
	 width="1029.121px" height="683.52px" viewBox="0 0 1029.121 683.52" enable-background="new 0 0 1029.121 683.52"
	 xml:space="preserve">
<image overflow="visible" enable-background="new    " width="4288" height="2848" id="image" xlink:href="AK12_20110812_210007.JPG"  transform="matrix(0.24 0 0 0.24 0 0)">
</image>
<g id="terminus">
	<path fill="none" stroke="#FF0000" stroke-width="0.25" stroke-miterlimit="10" d="M2.25,301.5L8,302.125l4.083-0.293l4.75,0.083
		l2.583-0.25l1.917-0.167l2.083,0.25l2.083-0.083H28l3-0.083h3.5h3.083l2.917-0.167l3.25,0.167l1.583,0.167l2.083,0.167l2.667,0.25
		l1.833,0.5l1.5,0.333l1.5,0.083l4.333,0.25l1.667,0.083l1.667,0.333l1.75,0.167l2.75,0.083h2.167h1.5l0.917,0.167l2.083,0.667
		l1.167,0.417l1.333,0.083l2.833-0.167l6.083-0.083h5.25h5.333l3.667-0.083l6.667-0.25l4.25-0.25l5.5-0.25l4.583-0.167l4.667-0.333
		l4-0.333l8.667-0.333l3.5-0.167l8-0.25l11.5-0.54l8.25-0.25l8.062-0.188l6.75-0.188l6.75-0.25l4.188-0.188h1.562l1.188,0.312
		l1.312,0.125h1.75h1.375l1.25,0.188l1.312,0.062h1.812l4.25-0.188l3.5-0.375l2.75-0.062L219.75,301l2.812-0.125
		c0,0,2.75,0.062,2.938,0.125s5.5-0.062,5.5-0.062h3.25l3.375-0.062H240l1.875-0.125l1.25-0.125l0.812-0.188l0.688-0.125h0.875
		l3.5-0.125l4.438-0.375l7.188-0.25l4.062-0.25l4.5-0.375l4.438-0.25l2.812-0.25l5.188-0.375l4.875-0.25l4.25-0.188l5.75-0.062
		l4.25,0.062h2.812l2.5,0.25l3.625,0.062l3.812-0.188l3.188-0.188l3.188-0.25l4.125-0.375l2.75-0.125h3.875l4-0.062l3,0.125h3.125
		l4.625-0.062l7.75-0.125l13.188-0.312l7.625,0.25h8l9.312-0.125l6.812,0.062l6.812-0.062l3.688,0.062l5.312,0.062l6.688,0.125
		l6.312,0.062l7.188,0.188l7.875,0.188l4.938,0.25l3.812,0.062l9.375,0.25l7.625,0.25l11.375,0.125h7.438l12.625-0.5h8.938h8.25
		l15.5,0.25l9.375,0.062l8.875,0.25l5.562,0.062l3.125,0.062l4.5,0.188l5,0.438l5.5,0.25l5.311,0.438l3.439,0.125l5.75,0.375
		l8.938,0.438L606.5,301l6.438,0.375l5.625,0.125l6.75,0.312l7.25,0.812l5.75,0.625l5.5,0.688l5.439,0.75l4.688,0.25l5.812,0.375
		l4.438,0.188l3.562,0.125l3.438,0.25l3.5,0.312l3.25,0.375l2.938,0.375l4.188,0.312l4.875,0.5h5.689l5.561-0.062l4.189-0.062
		l3.688-0.188l3.188-0.125l1.562-0.562l2.188-0.5l1.188-0.438l0.939-0.438l4.438-0.062l6.25-0.062h10.562L747.5,305l6.125,0.125
		l4.812,0.25l5.75,0.312l4.688,0.25l8.625,0.312l6.75,0.312l5.062,0.188l6.75,0.375l7.688-0.188l5.312-0.125l4.375-0.062
		l4.875-0.188l6.5-0.188l5.438-0.062l3.75,0.062l3,0.125l4,0.562l3.188,0.312l3,0.188l4.439-0.125l4.25-0.25l2.25-0.188h1.625
		l2,0.125l5.5,0.125h4.561h3.562h3.5l3.438,0.125l5.375,0.25l6.5,0.375l6.062,0.062l9.5,0.188l9.188,0.188l6.25,0.125l3.5,0.062
		l4.062,0.25l5.812,0.375h7.562h5l10.625,1.125l5.125,0.375l5.061,0.062h3h2.812c0,0,3.75,0.312,4.062,0.438
		s4.062,0.375,4.062,0.375l7.375,0.25l7-0.438h7.375h4.625l6.875-0.375l4.061,0.188l5.939,0.5"/>
</g>
<g id="horizon">
	<path fill="none" stroke="#FF0000" stroke-width="0.25" stroke-miterlimit="10" d="M-0.074,68.025l2.229,1.114l1.764,0.557
		l2.228,1.949l1.021,0.929l2.414,0.464l3.157,0.186l1.485-0.279l1.671-0.093l1.857,0.186l1.671,0.835l2.228,0.929l1.207,0.186
		l1.671-0.743l1.021-0.65l0.928-0.743l0.464-0.835l1.393-0.372h1.114l1.021-0.557l1.207-0.836l1.021-0.464l1.393-0.279l1.021-0.186
		l1.021-0.557l2.042-0.464l2.785-0.372l1.857,0.464l1.485,0.371l1.021,0.093l3.435-1.764l3.064-1.114l0.928-0.464l1.485-0.093
		l1.578,0.093l1.857,0.464l1.021,0.464l1.856,0.928l1.3,0.093l2.321-0.093h1.207l1.578,0.464l2.042,0.278h1.857l2.042-0.093
		l1.299-0.093h1.3l1.114,0.65l2.414,0.928l6.592,2.135l4.549,1.3l5.106,0.557l4.642,0.464l2.229,0.464l1.949,0.557l1.393,0.557
		l2.507-0.372l1.764,0.372l1.114,0.278c0,0,1.021,0,1.3-0.093c0.279-0.093,1.114-0.371,1.393-0.371c0.279,0,1.764,0.093,1.764,0.093
		l1.021,0.093h1.021c0,0,0.371-0.278,0.743-0.186c0.372,0.092,1.578,0.093,1.578,0.093l0.65,0.186h1.485l0.929-0.278l1.671-0.093
		l2.042-1.207l1.764-0.65h1.579c0,0,1.207,0.185,1.485,0.464c0.278,0.279,0.65,0.557,0.65,0.557l1.671-0.278l1.485-0.835
		l3.342-0.743l1.764-0.557h1.393l1.671,0.371l5.663,2.971l1.578,1.671l2.878,2.6l2.414,2.971l3.342,3.342l2.971,2.321l2.6,1.393
		l3.435,1.578l7.891,2.785l3.063,1.3l2.878,1.485l1.114,1.021l1.949,0.929l4.457,2.414l4.271,2.228l3.713,2.878h1.485l3.25-1.114
		l1.578-0.835l1.393-0.65l2.321-0.464l6.87-2.878l1.764-0.65l0.929-0.743l1.299-0.928l1.207-0.464l1.3-0.65l1.485-0.557l1.764-0.557
		l0.835-0.186l1.393-0.186l0.743,0.835l1.393,1.207l3.342,3.342l1.021,1.114l2.877-3.713l0.464-1.485c0,0,1.021-0.928,1.3-0.835
		s1.207-0.929,1.485-0.929c0.278,0,1.95-1.207,1.95-1.207l1.3-1.114l1.114-0.835l1.485-1.114l1.764-1.393l0.835-0.835l1.207-0.743
		c0,0,0.743-0.186,1.021-0.093c0.278,0.093,1.114,0.464,1.114,0.464l0.928,0.835l0.835,0.743l1.857,0.464l1.021,0.093l2.785,0.371
		l1.671,0.279l3.806,0.278l2.228,0.278l1.207,0.372l1.021,0.557l1.207,0.65l1.671,0.649c0,0,1.856,0,2.228,0.093
		c0.372,0.093,4.457,0.186,4.457,0.186l3.156-0.464l2.878-0.928l1.579-0.835l0.835-0.372l1.3-0.186l0.928,0.371l1.114,0.743
		l1.139,0.807l1,0.375c0,0,0.062-0.125,0.375,0.062s0.375,0.312,0.562,0.375s0.625,0.188,0.625,0.188h0.875l0.688-0.188L295.5,94
		l0.438,0.312l0.5,0.75l0.75,0.375l1.312,0.875L299,97c0,0,0.188,0.438,0.312,0.625s0.375,0.625,0.375,0.625l0.25,0.688
		c0,0,0.125,0.062,0.375-0.125s1.188-0.875,1.188-0.875h0.625l0.562,0.25l0.5,0.312h0.625h1.062l1-0.438l0.75-0.688
		c0,0,0.312-0.312,0.5-0.375s0.812-0.188,0.812-0.188h0.938l0.25,0.25l0.375,0.562l0.375,0.188l0.562,0.125h0.438l1.125-0.25
		l0.812-0.125l0.625,0.188l0.438,0.375l1.5,1.688l1.375,1.625l0.625,0.25l1.5-1l2-1.438l1-0.875l1.375-0.312L324.438,98l1.5,0.375
		l1.312,0.688l1.188,0.312l1.375,0.375l1.75,0.375h0.875l0.438,0.25l0.812,0.562l1.062,0.625l1.625,0.812l2.75,1.562l2.812,1.375
		l1.625,0.5l0.812-0.438l0.938-0.5h0.75l1.188,0.25l0.875,0.75c0,0,0.375,0.312,0.562,0.375s1.125,0.375,1.125,0.375l0.875,0.562
		l0.812,0.625l1.125,0.875l0.812,0.812l2.875,1.688l2.188,0.75l1.812,1.062l0.938,0.75l2.25,0.75l2,0.75l2.75,1.312l2.125,0.938
		l3.562,1.5l1.625,0.812l2.75,0.5l3.062,0.188l2-0.125l1.5-1.062l1.562-1.375l2.625-1.25l1.438-0.312l2.375-0.062h3.812l3.75-0.25
		l2.625-0.188l2.312-0.062l1.25,0.188l2.812,0.875l3.5,0.875l4.312,1.312l2.5,0.562l1.062,0.625l1.688,0.625
		c0,0,1,0.438,1.438,0.625c0.438,0.187,1.062,0.625,1.312,0.75s0.75,0.562,0.75,0.562l1.125,0.562l0.812,0.688l0.375,0.125
		c0,0,0.688-0.562,1.062-0.625s1.25-0.688,1.25-0.688l0.938-0.625l1.125-0.75l0.5-0.562l0.75-0.938l0.812-0.625l0.562-0.062
		l1.5,0.562l1.438,0.375l1.688,1l0.5,0.312l1,0.25l0.875,0.312l0.438,0.375l1.25,0.938l0.562,0.625l0.312,0.5
		c0,0,0.438,0.312,0.688,0.375s2.312,0.438,2.312,0.438h1.375l1.125-0.188l0.875-0.25l1-0.188l1.188,0.625l2.062,1.438l2.188,1.312
		l1.312,0.75l1.375,0.375l1.125-0.5l1.188-0.562l1.875-0.125l0.875-0.625c0,0,0.125-0.312,0.312-0.25s1.062,0.25,1.062,0.25
		l0.938,0.25l0.438-0.062l0.75-0.688L470,127l0.938,0.062l0.75-0.375l1.438-1.188l0.625-0.625l0.875-0.312H476l1.312-0.562
		l2.188-0.562l1.438-0.438l1.875-0.062l1.062-0.062l1.062,0.062l1,0.688l0.312,0.438l0.438,0.75l0.688,0.375l1.25,0.438l1.125,0.125
		c0,0,0.875,0.125,1.062,0.188c0.187,0.063,0.875,0.25,1.062,0.438s1.25,0.5,1.25,0.5l1.375-0.25c0,0,0.438-0.125,0.688-0.312
		s1.125-0.688,1.125-0.688l1.5-0.188l2.125,0.062l1.688,0.625c0,0-0.062,0.125,0.25,0.188s1.562-0.25,1.562-0.25
		s0.375-0.25,0.625-0.125s1.5,0.562,1.5,0.562l0.938,0.188l0.812-0.125l1.125-0.062l1.188-0.25l0.812-0.562c0,0,0.5-0.125,0.875,0
		s-0.062,0.062,0.375,0.125c0.437,0.063,0.938-0.438,0.938-0.438l1.438,0.25c0,0,1.562,0.625,1.75,0.75
		c0.189,0.125,2.562,0.938,2.562,0.938l3.25,0.812l0.875,0.125l1.312-0.625l0.75-0.875l0.375-0.688l0.688-0.5l0.625-0.812l1-1.125
		l0.438-1l0.562-0.938l1.125-0.25l0.938-1.25l0.625-0.688l0.5-0.938l0.439-0.938c0,0,0.188-0.562,0.375-0.625
		c0.186-0.063,1.438-0.562,1.625-0.562c0.186,0,1.123-0.189,1.123-0.189l1.375,0.062l2,0.938l1.688,0.938l1.375,0.75l2.375,0.938
		l0.939,0.688l1.25,0.5l1.061,0.125l1.062,0.375c0,0,1,0.312,1.188,0.5c0.189,0.188,1.125,1,1.125,1l1.189,0.562l1.5,0.375
		l2.061,0.312l1.312-0.25l1.25-0.688l0.688-0.688l0.875-0.375l1.25-0.5h1.189l1,0.25l1.438,0.562l1.5-0.125l1.312-0.25l0.688-0.688
		l1-0.562c0,0,1.188-0.125,1.375-0.062s0.562,0,0.75,0.125s1.375,0.375,1.375,0.375l0.5,0.062l0.938-0.875l0.5-0.562
		c0,0,0.25-0.125,0.5,0s0.875,0.688,0.875,0.688l0.875,0.25l1.938,0.062l1.439,0.25l1.188,0.625l1.062,1.25l1.5,1.5l1.875,0.812
		l3.061,2.375l2.625,1.375l2.375,1.375l2.939,1.5l1.375,1.062c0,0,1.438,0.812,1.561,1.062c0.125,0.25,0.875,0.688,0.875,0.688
		l0.75,0.75l1.689,0.75l1.438,0.062l1.812,0.375l1.688,0.75l0.625,0.312l1.375,0.625l1.562,0.125l1.75,0.312H614l1.5-0.875
		l0.938-0.312l1.189-0.75l0.938-0.188h1l0.938-0.062l0.562-0.5h0.875l0.875-0.062h0.688l0.562,0.062h1.062l0.623-0.31l1.062-0.125
		l1.062-0.062l0.811-0.25c0,0,0.689,0.25,0.875,0.312c0.188,0.062,3.375,0.125,3.375,0.125l1.812,0.062L635.81,136l1.854-0.75h1.334
		h1.666l1.5,0.417l1.5-0.583l1.75-0.667l1.25-0.417h1.834l1.334,0.167l1-0.083l2.082-0.333l1.084-0.167h0.834l2.25,0.5l2.25,0.417
		l1.416,0.667l1,0.75l3.584-3.917l3.332-2.833l1.334-0.75l0.75-0.833l1.5-1.25l1.416-1l2.334-1.083l1.416-0.417l2.334,0.5l1.416,0.5
		l1.25,1.167l2.668,3l1.25,1.667l0.75,0.5l0.75-0.167l0.582,0.333l0.918,0.75l0.5,0.583l0.75,0.083l0.916-0.083l0.75,0.083
		l0.75,0.833l0.75,1.083l0.666,0.667c0.5,0.333,1.584,1.5,1.584,1.5l2.416,1.083l2.418,1.083l2.334,0.917l2.084,0.667l1.582,0.083
		l1,0.083H709l1.416-0.333l1.834-0.667l1.332-0.167c0,0,1.334-0.25,1.584-0.167s1.416-0.083,1.416-0.083h1.25l0.918,0.083
		l1.25,0.417l1.25-0.167l1.666-0.917l1.666-0.75l2-0.667l1.75-0.167l2,0.083l2.25,0.917l1.084,0.833l2.334,0.833l1.166,0.75
		l0.75,0.583c0,0,0.416,0.417,0.666,0.667s0.25,0.25,0.25,0.25l2.918,0.5H743c0,0,1.084,0.333,1.5,0.583s0.916,0.583,0.916,0.583
		l0.916,0.25l2.168,0.917l4.332,3.25l1.668,1.333l0.916,1.167l1.5,0.917l2.5,0.917l1.584,0.667l2.082-0.333l1.918-0.167l2.416,0.167
		l3.584-0.5l1.5-0.417l2.082-0.25l1.084-0.333l2.084-0.5l1.584-0.167h1.332l1.5,0.583l1.334,0.917l1.416,1.083l0.584,0.5l1.666,0.25
		l1.75,0.833l2,1.333l2.168,2l1.75,0.833l2.082,0.417c0,0,1.168-0.084,1.418,0.083s1.832,0.5,2.166,0.583s1,0.25,1.25,0.417
		s1.25,0.333,1.25,0.333l1.416,0.583c0,0,0.918,0.083,1.168,0.333s0.75,0.75,0.75,0.75s1.248,0.75,1.416,1
		c0.166,0.25,0.666,0.917,0.666,0.917l1.668,0.667l0.916,0.25l0.75,0.083c0,0,2.5,0.583,2.834,0.75
		c0.332,0.167,2.832,0.166,3.082,0.333s2.75,0.25,2.75,0.25l1.918-0.417l1.25-1l0.916-0.417l1.166-0.583l0.834-0.25h1l1.166,0.083
		h0.5c0,0,0.334-0.333,0.75-0.25c0.418,0.083,2,0,2,0l1.668,0.167l3,0.333c0,0,1.166-0.083,1.5,0c0.332,0.083,2.916-0.75,2.916-0.75
		l1.416-0.75l1.168-1.25l0.416-0.25l1.416-1.5l1.418-1.583l2.582-1.833l1.75-1.75l2.5-2l0.834-0.5c0,0,0.418-0.25,0.834-0.25
		s1.082,0.167,1.082,0.167l1.418,0.667l0.5,0.667l0.666,0.667l1.5,0.5l4.082,1.417l3.25,1.333l4.25,1.333l3,0.667l4.334,0.417
		l2.834-0.083l2.666-1.167l1.666-0.917l2.418-1.5l1.5-1.083l1.582-0.167l3.334-0.583l2.166-1.083l1.584-0.583l0.834-0.5l1.5-0.167
		l1.166,0.5l0.75,0.667l0.5,0.667c0,0,0.416,0.667,0.666,0.75s1.25,0.917,1.25,0.917l0.75,0.833l0.834,1.25l1.084,0.833l0.416,0.083
		h1.584l1.916-0.083l1-0.583l1.584-0.5l1.25-0.917l0.666-0.25l1.5-0.25l2.084-1l0.75-0.583l1.416-0.833l1.166-0.25
		c0,0,0.334-0.167,0.584-0.25s0.916-0.667,0.916-0.667l0.668-0.75l0.666-0.417l1.834-0.083l0.916,0.083l1.25,0.25l0.916,0.417
		l1.168,0.583l1.082,0.333l2.5,0.25h1l0.584,0.083l1.834,1l0.832,0.833l0.5,1.333l0.418,1.25l0.75-0.083l0.416-0.333l1.166,0.167
		l0.334,0.25H945l0.75-0.25l0.5,0.167c0,0-0.002,0.333,0.166,0.667c0.166,0.334,0.666,0.333,0.666,0.333h1.25l0.5-0.167l2.002-0.583
		l1.332-1.083l1.168-0.25l0.75,0.083l0.75,0.667h0.75l0.666-0.5l1.084-0.083l1.332,1.333c0,0,0.166,0.583,0.25,0.833
		s1.418-0.417,1.418-0.417l0.916-0.75h1.084l1.5,0.417l0.166,0.75c0,0,0.084,0.5,0.334,0.75s0.666,0.667,0.916,0.75s1,0.167,1,0.167
		l2.166,0.25l1.084,0.167l1.334,0.167c0,0,0.5,0.083,0.75-0.167s1.166-1.583,1.166-1.583l0.834-0.667l0.75-0.583l0.916-0.333
		l0.666-0.333l1.334,0.25l1.416,0.833l0.918,0.75l1.166,1l0.75-0.167l1.834-0.167l2.5-1.167l1.25-0.417l1.582-0.583l1-0.25
		l1.25-0.333l1.418-0.417l1.25-0.083c0,0,0.166,0.5,0.416,0.667s0.75,0.75,0.75,0.75s0.666,0.5,0.916,0.583s3.418,0.417,3.418,0.417
		l2.416-0.333l2.418-0.833l2.666-0.333h2.334l2.582-0.083l1.75-0.333h1.834h0.666l1.168-0.667l0.832-0.583l1.25-0.167l1.168-0.417
		l0.666-0.583l0.584-0.583l0.582-0.75l0.584-0.083h1.25l1.5,0.583h0.916l0.834-0.417l0.584-0.833l1.449-1.167"/>
</g>
<g id="gcp">
	<circle id="portaledge" fill="#FF0000" cx="315.562" cy="202.25" r="0.25"/>
	<circle id="screepit" fill="#FF0000" cx="342.812" cy="156.875" r="0.25"/>
	<circle id="ledgedot" fill="#FF0000" cx="414.688" cy="184.25" r="0.25"/>
	<circle id="kissers" fill="#FF0000" cx="594.812" cy="213.5" r="0.25"/>
	<circle id="brokens" fill="#FF0000" cx="691.812" cy="202.25" r="0.25"/>
	<circle id="dragonduct" fill="#FF0000" cx="835.25" cy="207.5" r="0.25"/>
	<circle id="butt" fill="#FF0000" cx="215.833" cy="220.75" r="0.25"/>
	<circle id="jawlip2" fill="#FF0000" cx="361.5" cy="207.5" r="0.25"/>
	<circle id="alcove" fill="#FF0000" cx="70.668" cy="210.832" r="0.25"/>
	<circle id="rustcut" fill="#FF0000" cx="700.208" cy="204.25" r="0.25"/>
</g>
<g id="land">
	<path fill="none" stroke="#FF0000" stroke-width="0.25" stroke-miterlimit="10" d="M633.393,681.261l76-22.334l47.333-31
		l7.667-3.666c0,0,15.333-2,17,0s15.667,5.666,15.667,5.666l36-15.333l59-11l44.666-3.333l54.667-4.334h26.667l11.061-2.333v27.667
		l-55.061,2.333l-27.334,3.333l-47.333,22l-41,21.334l-14.667,13.259h-212L633.393,681.261z"/>
	<path fill="none" stroke="#FF0000" stroke-width="0.25" stroke-miterlimit="10" d="M-0.074,255.26L0,63.51l11.81,4.5l11,0.75
		l10-3.337l8.5-3.413l7.5-1.75h16l26.75,4l16.75,5.5l13.5-0.25l20.75-3l12.25,4l12.5,11.75l11.75,9.5l14,6l12.5,1.5l10.023-8
		l17.477-3.75l19-5l13.75,3.25l25.25,0.5l15.75,3.75l31.75,5.25l31.75,13l12.75,5l13-2.75l8.75-0.25l16.75,4.25l28.25,5.5l19.75,1.5
		l15.5-3.75l21.75,1.5l11.25-0.75l6.75-4.5l8.75-3.25l15,4l13.5,1.325l15.75-1.825c0,0,8.25,3.75,9.5,4s13.5,7.75,13.5,7.75
		l21.75,2.5c0,0,16.5-0.25,17.5-0.25s27-5.75,27-5.75l15.5-6.425l11.5,4.925l15.25,9.25l19,1l20.75,4l6.5,4.25c0,0,7.25,3.5,8.25,4
		s9.75,0.5,9.75,0.5l15.5,2l11,5.5l21.75,6.25h10.5l15-6.25l8.5-4l14.25,3.75l15.5,0.5l19-6l9.75,2l13.25-0.75l10,0.25l16.75,5.5
		l22-0.25l29.5-2l23.307-6v67.75l-50.557-3l-21-2.01l-12.75-4.74l-4.5-6.25l-13-7.25l-9.75-1.5l-2.5-4l-1.75-5l-8.5-6l-32.5-0.75
		l-28,0.25h-25.25l-5.25,1l5,4.25l14,7.5l8.25,4.75l13,2.25l13.25,3.25l20.25,8.5l10.5,5.5l7,6.5v2.5l-9,3.25l-15.5,1.25l-17,0.5
		l-28.561,1l-91.689,2l-33,3l-16.5,2.25l-44.25,1.75l-21,0.25l-11,1l-19.25,2.75l-20.25,1.25h-17.75l-4.5-12.25l-1.25-18.76l9-8.49
		l15.25-9l15.752-6.25l8.248-2l1.5-4.75l-12.25-3l-27,4.75l-24.25,4l-18,4.75l-11,3.75l-8.5,1.5l-13.25,1.5h-21l-12.25-3.25
		l-1.25-6.76l5-5.49l1.5-5l-5-4.75l-10.5-0.75l-8.5,2.5l-3,3.25l-5.25,7.25l6.5,6.25l13.5,12.75l10.5,9.75l10.25,12.75l8.25,10.25
		l-1.75,5.25l-9.5,1.25l-26.25,0.5l-33.5,0.5l-13.5-1.75h-77.25l-41.5,0.5l-71.5,2.25c0,0-46.75,0-47.75,0.25s-57.75,6-57.75,6
		l-30.5,1.25l-30.5,2.5l-21.75,0.75L-0.074,255.26z"/>
</g>
</svg>
