<?xml version="1.0" encoding="utf-8"?>
<!-- Generator: Adobe Illustrator 16.0.4, SVG Export Plug-In . SVG Version: 6.00 Build 0)  -->
<!DOCTYPE svg PUBLIC "-//W3C//DTD SVG 1.1//EN" "http://www.w3.org/Graphics/SVG/1.1/DTD/svg11.dtd">
<svg version="1.1" id="svg" xmlns="http://www.w3.org/2000/svg" xmlns:xlink="http://www.w3.org/1999/xlink" x="0px" y="0px"
	 width="1029.12px" height="683.52px" viewBox="0 0 1029.12 683.52" enable-background="new 0 0 1029.12 683.52"
	 xml:space="preserve">
<image overflow="visible" width="4288" height="2848" xlink:href="AK12_20100925_231620.JPG"  transform="matrix(0.24 0 0 0.24 0 0)">
</image>
<g id="land">
	<polygon fill="none" stroke="#FF0000" stroke-width="0.25" stroke-miterlimit="10" points="415.667,681.667 448,668.667 
		469,665.333 496.333,653.667 514.56,642.333 520.334,633 523,627 530.334,622 543,622 558.667,623.667 573,616.667 
		589.334,607.667 628.334,591.667 649,587.667 671.667,584.667 702,577.333 741.333,571.333 773,565.667 789,563.333 
		805.333,563.333 798,575 789.333,583.333 749,594.667 713.667,603.333 686.667,613.667 663.667,628.333 628,650.667 610.5,661.667 
		596,683.52 415.667,683.52 	"/>
	<path fill="none" stroke="#FF0000" stroke-width="0.25" stroke-miterlimit="10" d="M0,255.001v-172l17.333,5.333L32,90.668h10.333
		L60,94.001l17.667,9l14.333,8l15.333,5h10l4-2.667l11.333-1l15,2.333l11,3.333l12.667,1.333l11.333-1.667l13.667,6.333l5.667,3.333
		l8-1.333l15.333-4l14,1.333l11,1.333l16,2l13-11l17,1L307,119.335l9.667-0.667H329l15.333,9.333l9,4.667l16,2l18,1l17.333,1.333
		l9-3.667l7.333-5.333h10l11,6l8,5.667l8,3.333l15-2.333l6-1.667l8,3.667l13,7l10.333,4.333l8.333,0.667h9.667l9,4l14.001,6l6,4.333
		h12l10.666-5l8.667-7.667h14l6,3.333l10.667,1.333l8-4.667l7-2l6.666,2.333l5,2.667l4,0.333l7.334-4.667l6.666,0.333l10.334,3
		l18.333,2.667l24,1.667l10.667-1l16.333-5.333L754,153.001l10,1.667l11.334,14.333l9.333,6.333L796,170.668l15-1.667h11.667
		l7.333-6.333l14,0.667l17,1.667l6.334-1.333l10,1l6,4.333l14.333,4l18.667-4h17h10.333H962l27-5.667l31-0.667l6.333,4.667
		l2.787,1.667v55.667l-29.12-0.333l-8-0.333l-8.333-1.667l3.666-4.667l3.667-3.333l-2.667-4l-6.666-1l-5.334-3l2.334-2.333
		l4.333-2.333l-3-2.667l-6.333-2l-19.334-3l-19.666-2.333h-15l-12,1.333l-2,3l5,3l8.666,5L916,207.335l-17,0.667l-46.333-3.333
		l-18.334-3.333l-15.333-3l-13.667,0.333h-4c0,0,7.001,4.667,8.334,5.667s10,6.667,10,6.667l-4,2.333l-9.334,2l-41,0.333l-53-2.333
		l-19.666-2L683,208.668l-17.333-5L647,200.001l0.667-4.333l2-6.667l-0.334-9.667l-10-1l-19.333-3l-7.667,1l-7,3L599,179.668
		l-19-0.667l-15,1.667l-4,3l11.667,7.333L588,195.668l28,9l13.667,5.667l6.666,4.667l4.334,4.333v3.667l-20,3L594,228.335
		l-23.667-1.667l-30,2l-22,0.667l-17.667,0.667L465,230.668l-25,4l-55,4.333l-27.667,2.667l-28,4l-12.667,0.333l-8.333-14.667
		l-1.333-17l3.333-8l14-7.333l12.667-5l12-5.667l-2.667-4h-27.667l-19.667,3l-25.333,3.667L264,193.335l-8.667,4.333L241,200.335
		l-9.667,0.667h-12l-7.667-0.333l-7.333-2.333l-6.667-5l6-7.667l0.667-9l-12.667-3.333l-11.333-1.333l-11.667,1.667L165,180.001
		l0.333,6l12.333,10.333l23.333,19l16.667,18.667l5,5.667l-3.333,4.333L206,246.668l-47.667,1.333l-24-0.333l-22.667-2
		l-34.333-3.667l-40,5L0,255.001z"/>
</g>
</svg>
