<?xml version="1.0" encoding="utf-8"?>
<!-- Generator: Adobe Illustrator 16.0.4, SVG Export Plug-In . SVG Version: 6.00 Build 0)  -->
<!DOCTYPE svg PUBLIC "-//W3C//DTD SVG 1.1//EN" "http://www.w3.org/Graphics/SVG/1.1/DTD/svg11.dtd">
<svg version="1.1" id="svg" xmlns="http://www.w3.org/2000/svg" xmlns:xlink="http://www.w3.org/1999/xlink" x="0px" y="0px"
	 width="1029.12px" height="683.52px" viewBox="0 0 1029.12 683.52" enable-background="new 0 0 1029.12 683.52"
	 xml:space="preserve">
<image overflow="visible" width="4288" height="2848" id="image" xlink:href="AK12_20100924_204619.JPG"  transform="matrix(0.24 0 0 0.24 0 0)">
</image>
<g id="terminus">
	<polyline fill="none" stroke="#FF0000" stroke-width="0.25" stroke-miterlimit="10" points="0.167,317 11.917,317 23.167,316.583 
		32.416,316.583 41.583,316.167 50.333,315.667 57.916,315.667 67.166,315.333 78.25,315.417 86.166,315.417 93.833,315.5 
		101.583,315.25 108.166,315.167 114.416,315 119.833,314.917 126.75,314.5 135.999,314.167 142.583,314.083 147.916,313.917 
		152.916,313.667 155.333,313.417 159.916,313.417 164.333,313.417 168.999,313.5 172.999,313.25 178.666,313.25 184.416,313.25 
		189.749,313.333 194.333,313.583 202.999,313.917 211.332,314.667 216.082,315 219.416,315 223.166,315 229.332,315.167 
		234.999,315.083 240.749,315.25 245.999,315.167 250.916,315.25 257.416,315.333 262.332,315.167 267.582,315.167 275.832,315.167 
		282.666,315.167 288.749,315.417 301.165,315.333 308.665,315.5 315.832,315.917 321.665,316.417 329.998,316.75 340.248,317.583 
		344.332,318 348.998,318.333 354.165,318.667 358.082,318.667 360.082,318.75 362.165,318.667 364.582,318.333 367.582,318.167 
		371.165,318.083 376.498,317.917 383.748,318.083 389.165,318.167 394.582,318.167 400.332,317.917 405.498,317.75 
		410.748,317.333 416.415,317.083 420.082,316.417 424.582,316 428.248,315.333 430.082,315.083 433.915,314.583 437.082,314.583 
		441.248,314.75 445.665,314.75 450.998,314.833 456.832,314.833 462.332,314.917 468.665,315 474.498,315.083 477.164,315 
		481.414,315 486.164,315.167 494.583,315.375 498.417,315.417 502.25,315.333 505.875,315.208 508.417,315.083 510.958,314.833 
		512.875,314.625 514.5,314.375 516.667,314.083 519.667,313.75 522.083,313.583 524.292,313.458 528.083,313.417 530.042,313.5 
		533.542,313.667 537.25,313.667 543.666,313.583 547.124,313.542 551.874,313.25 555.832,313.083 559.666,313.125 565.166,313.125 
		569.542,313.167 573.708,313.042 578.708,312.958 584.5,313.042 589.167,313 594.042,313.083 599,313.125 605.125,313.125 
		610.959,313.125 614.793,313.208 621.126,313.417 625.876,313.5 631.251,313.542 637.834,313.583 643.293,313.708 646.126,313.792 
		648.834,313.792 652.252,314.292 655.793,314.833 659.252,315.292 662.627,315.75 665.835,315.833 668.919,316.042 
		672.335,316.583 675.377,316.917 676.752,317.125 678.627,317.458 681.502,318.167 684.794,318.75 688.335,319.583 
		691.294,320.083 695.335,320.792 698.335,321.375 701.919,322.292 707.044,323.792 711.127,324.833 715.128,325.75 
		720.545,327.167 723.336,328 724.045,328.5 724.67,329.042 725.42,329.708 726.67,330.042 727.961,330.208 729.253,330.083 
		731.128,330.292 733.17,330.875 737.087,331.958 739.545,332.5 742.253,333.375 743.628,333.875 746.045,334.375 	"/>
	<polyline fill="none" stroke="#FF0000" stroke-width="0.25" stroke-miterlimit="10" points="744.92,339.584 746.961,340.084 
		748.67,340.251 750.546,340.376 	"/>
	<polyline fill="none" stroke="#FF0000" stroke-width="0.25" stroke-miterlimit="10" points="756.879,354.126 761.379,355.251 
		765.504,355.876 769.254,356.668 772.088,357.251 774.046,357.834 	"/>
	<polyline fill="none" stroke="#FF0000" stroke-width="0.25" stroke-miterlimit="10" points="766.588,376.126 768.38,376.834 
		771.13,377.751 774.005,378.459 777.796,378.959 780.213,379.251 781.421,379.543 784.421,380.293 787.88,381.459 	"/>
	<polyline fill="none" stroke="#FF0000" stroke-width="0.25" stroke-miterlimit="10" points="774.838,401.459 778.213,402.709 
		781.546,404.168 	"/>
	<path fill="none" stroke="#FF0000" stroke-width="0.25" stroke-miterlimit="10" d="M760.838,437.165l2.375,1.375l3,0.75l3.167,1
		l2.333,0.584l2,0.416l1.833,0.125c0,0,2.25,0.376,2.375,0.459s1.667,0.416,1.792,0.458s1.542,0.499,1.667,0.583
		s1.166,0.668,1.416,0.834s1.625,0.791,1.625,0.791l2.209,0.251l3.083,0.667"/>
</g>
<g id="horizon">
	<path fill="none" stroke="#FF0000" stroke-width="0.25" stroke-miterlimit="10" d="M-0.068,97.343l4.362,2.447l4.574,2.34
		l3.83,1.17l1.489-0.745l0.957-0.106l1.383,0.639l1.915,1.808l2.127,0.851l3.511,2.021l3.723,1.915l7.659,4.255l6.276,2.234
		l6.063,2.979l5.638,1.915l3.83,0.745l4.042,0.213l1.276-0.851l1.383-1.383l2.553-1.277l3.085-0.638l4.149-0.213l3.085,0.213
		l0.851-0.106h5l2.979-0.106l2.553,0.532l2.659,0.851l6.702,1.808l5.425,1.596l2.66,1.17l2.659,1.17l2.66,1.489l1.383,0.638
		l0.958,0.532l1.489-0.106l1.489-0.745l1.596-1.489l1.158-1.045l0.812-0.875l0.312-0.375l0.625-0.062l0.625,0.25l0.812,0.5
		l0.688,0.25l0.875,0.062l0.438,0.062l0.75,0.562l0.375,0.375l0.812,0.375l1.938,0.625l0.75,0.25l0.75,0.5l1.938,1.75l0.375,0.688
		l1.938,0.5h2.938h3.375l1.125,0.125c0,0,0.562,0.188,0.75,0.25s1.812,1.125,1.812,1.125l1.688,1.188l1.688,1.062l1.312,0.562
		l1.062,0.312L152,133.25c0,0,1.062-0.125,1.25-0.125s1.312-0.125,1.312-0.125l0.75-0.5l1.125,0.062l0.938,0.25l0.625,0.375l1-0.312
		l1.562-0.438l1.25-0.25l0.625-0.25l1.062-0.75l0.75-0.312l0.75-0.438l0.875-0.438l1.375-0.062l2-0.438l1.75-0.375l1.125-0.375
		c0,0,1.625-0.062,1.812-0.062s0.688-0.125,0.688-0.125H176c0,0,1.125,0,1.312,0.125s0.938,0.75,0.938,0.75s0.375,0.312,0.562,0.5
		s0.562,0.625,0.562,0.625l0.625,0.25l1.125,0.375l0.562,0.125l1.5,0.438l0.312,0.062l1.25,0.625l1.688,0.562l1.188-0.375
		c0,0,0.625-0.375,0.812-0.375s0.938-0.25,0.938-0.25l1.875-0.125c0,0,0.5,0,0.75,0s1.062,0,1.062,0l1.062,0.062l1.062,0.25
		l0.75,0.5l0.5,0.125l1-0.25l0.438-0.375l0.625-0.062l0.5,0.25l0.562,0.438l1,0.312l1.125-0.125l0.812-0.125h1l0.938-0.438
		l0.688-0.125c0,0,0.625-0.062,0.875,0s0.625,0.062,0.625,0.062l0.875-0.188l0.5-0.125c0,0,1.125,0.188,1.438,0.312
		s1.375,0.375,1.375,0.375l1.125,0.312c0,0,0.938,0.438,1.188,0.562s0.625,0.312,1.125,0.5s0.938,0.5,1.312,0.562
		s1.062,0.25,1.062,0.25l1.062,0.312h1.188l1.188-0.75l0.875-0.938l0.5-0.938l1.062-0.375l1.188-2.062l0.375-1.062l0.125-0.438
		l1.25-0.562l0.562-0.5l1.125-1.125l0.875-1.125l0.5-0.812l0.625-0.625l1.062-0.562l1.5-0.312l1.5,0.438l2.562,0.938l1.062,1
		l1.188,0.5c0,0,0.312,0.188,0.5,0.375s0.938,0.688,0.938,0.688s0.75,0.062,0.938,0.25s1.625,1,1.625,1l0.812,0.375h0.75
		c0,0,0.25-0.312,0.5-0.312s1.938,0.312,1.938,0.312s0.188,0.125,0.75,0.5s0.812,0.75,1.062,0.938s0.438,0.312,0.625,0.562
		s0.875,0.688,0.875,0.688s1.188,0.25,1.438,0.438s3.188,0.25,3.188,0.25l1.875-0.25L256.5,131c0,0,0.5-0.562,0.688-0.562
		s0.938-0.062,0.938-0.062s1.312-0.25,1.625-0.188s1.312,0,1.312,0l1.188,0.188l1.312,0.312l1.438,0.188l0.938-0.438l1.062-0.562
		l0.938-0.25l1.312-0.125h0.812l1.312,0.125l0.875-0.125l0.375-0.625l0.625-0.625h0.562l0.438,0.438l0.875,0.688l0.562,0.625
		l0.625,0.5l0.312-0.125l0.562-0.5h1.062l0.812,0.438l1,0.562l1.5,0.938c0,0,0.562,0.625,0.812,0.812s0.5,0.375,0.688,0.562
		s1.125,1.062,1.125,1.062l3.062,1.438l5.688,3.562l2.188,0.938c0,0,0.562,0.438,0.875,0.562s1.625,1.25,1.625,1.25l1,1l2.5,1.5
		l2.25,1.375l1.5,0.5h1.062l0.438-0.125l1,0.125c0,0,0.438,0.375,0.688,0.5s1.125,0.5,1.125,0.5l1.438,0.375l0.812,0.25l1.062,0.312
		l1.688,0.438l1.625-0.5l1.188-0.625l1.125-0.625l0.75-0.188c0,0,1-0.125,1.188-0.062s1.5-0.062,1.5-0.062l0.5-0.5l0.75-0.25h1.75
		l1,0.188L326.75,146l1.562-0.438l1.312-0.188c0,0,0.688,0.125,0.875,0.25s1.188,0.375,1.188,0.375l1.125,0.062l2,0.188l0.562-0.188
		h0.938c0,0,0.562,0.062,0.75,0.062s0.438,0,0.688,0s1.5-0.25,1.5-0.25l1.5-0.25l1.125,0.062l1.062,0.438h0.375l1.875-0.188
		l0.812-0.562l0.562-0.438c0,0,0.5-0.125,0.75-0.188s0.312-0.062,0.875-0.062s1.938,0.125,1.938,0.125l1.375-0.062l0.688-0.312
		l1.5-0.312l0.938-0.375c0,0,0.562-0.062,0.75,0s0.5,0.25,0.75,0.438s0.875,0.5,0.875,0.5l0.438,0.062l1.125,0.125l1.312,0.188
		l0.75-0.125l0.812,0.375l1.188,0.562l0.438,0.438l0.438,0.312l1.188-1.375l1.938-1.938l1.625-1.812l2.25-1.562l0.688-0.5
		l1.125-0.938l1-0.875l1.25-0.875l1.25-0.562l1.312-0.562l0.875-0.438l1-0.375l1.312,0.125l1.562,0.812l1.5,0.938l1.75,1.562
		l1.688,2.375l1.812,1.875l0.625,0.062l0.688,0.25l0.812,0.625l0.562,0.688l0.812,0.062h1.5l0.562,0.125l0.688,0.625
		c0,0,0.5,0.75,0.938,1.25s0.938,2.188,0.938,2.188l0.688,0.75l1.25-0.125l1.438,0.625l0.562,0.375l0.688,0.188
		c0,0,0.688,0.062,0.938,0.25s0.562,0.375,0.562,0.375l0.375-0.125c0,0,0.312-0.125,0.562,0.125s0.312,0.438,0.562,0.625
		s0.5,0.312,0.5,0.312l0.688,0.188c0,0,0.312,0.312,0.5,0.438s0.188,0.125,0.188,0.125h0.875c0,0,0.312-0.062,0.688,0
		s0.938,0.062,1,0.25s0.062,0.188,0.062,0.188s0.812,0.062,1-0.062s0.375-0.438,0.375-0.438l1.125-0.312h1.25l0.812-0.312
		l0.312-0.125l1.062-0.5h1.625l1.125-0.062h1.188c0,0,1.062,0.25,1.312,0.312s0.25,0.312,0.625,0.562s1.062,0.562,1.062,0.562
		l0.812-0.688l0.688-0.25l0.875-0.625l1.375-0.688l1.375-0.5l2.062-0.25h1.625l1.125,0.125l0.875,0.25l1.25,0.562l0.188,0.562
		l0.375,0.312h1.312l0.938,0.812l1.25,0.625l0.625,0.125l0.438,0.812l0.312,0.75c0,0,0.5,0.25,0.688,0.312s1,0.062,1,0.062
		l1.125,0.25h1.125l1.062-0.062c0,0,0.625,0.188,0.688,0.375s0.188,0.5,0.188,0.5h0.812l0.438,0.062l0.75,0.438l2.062,1.562
		l0.688,0.5l0.625-0.188l0.875,0.312l0.562,0.688l0.562,0.562l0.875,0.562l0.5,0.5l0.625,0.688c0,0,0.312,0.25,0.562,0.562
		s0.562,1,0.562,1l1.688,0.875l2.375,1.062l3.25,0.375l3.188,0.125l3.625-0.188l3.875-0.438l1.562-0.438L476.5,164l1.125-0.125
		l1.438-0.25l1.5,0.375l0.938,0.938c0,0,0.312,0.25,0.562,0.5s1.688,1,1.688,1l1.625,0.312l1.062,0.625l0.688,0.25l1,0.312
		l0.75,0.562c0,0,0.438,0.25,0.688,0.5s1.625,1.75,1.625,1.75l0.375,0.625l2.625,0.688l2.062,0.625l2.938,0.875l1,0.5
		c0,0,0.625,0.125,0.875,0s0.688-0.125,0.688-0.125l1.125,0.312l1.062,0.875l3.125,2.562l1.062,0.312l1.062,0.188l0.812,0.188
		c0,0,0.438,0.25,0.562,0.438s0.5,0.188,0.75,0.25s1.062-0.125,1.062-0.125s0.625,0,0.812,0.125s1.562,0.25,1.562,0.25l1.875,0.125
		l2.188-0.188c0,0,0.625-0.188,0.812-0.25s1-0.938,1-0.938l0.812-0.438l1.312-0.375h1.5l0.938-0.25l0.75-0.188l0.75,0.062
		l2.125,0.625l1.062,0.125l1.375,0.062h0.688l1.188,0.062l1-0.25l0.812-0.438l0.625-0.562l0.688-0.438c0,0-0.25-0.188,0.5-0.375
		s1.688-0.375,1.688-0.375l0.875-0.562l2.062-1.688l1.688-1.812l1.125-1.312l0.875-1.062l1.312-1.188"/>
	<path fill="none" stroke="#FF0000" stroke-width="0.25" stroke-miterlimit="10" d="M553.375,168.438l1.938,0.688l1.625,0.688
		c0,0,1.125,0.562,1.438,0.75s1.188,0.5,1.188,0.5L562,172l3.438,0.938l3.188,0.438l2.75,0.125l2.562-0.062l1.625-0.375l1.438-0.5
		c0,0,1-0.875,1.188-1s1.125-1.062,1.125-1.062l1.188-0.562l1.188-0.188l1.75-0.312l1.625-0.312l1.688-0.688l0.438-0.312"/>
	<path fill="none" stroke="#FF0000" stroke-width="0.25" stroke-miterlimit="10" d="M591.562,168.125l1.75,1.562l0.812,0.938
		l1.312,0.938l1.125,1l0.5,0.375l2.375,0.125l2.688-0.688l1.625-0.812l1.812-0.812c0,0,1.562-0.75,1.75-0.812
		s1.375-0.688,1.375-0.688s1.812-0.688,2-0.688s1.562-1.062,1.562-1.062l0.312-0.438l2.188-0.125l0.875,0.062l0.875,0.438
		l0.875,0.562l1.25,0.375l2.812,0.062l0.812,0.125l1.125,0.875l0.938,0.688l0.812,0.75l0.062,1.312l0.25,0.625l0.625-0.438
		c0,0,0.188-0.25,0.375-0.188s0.562,0.375,0.562,0.375l0.562,0.5c0,0,0.375,0,0.75-0.25s0.375-0.25,0.375-0.25
		s0.625,0.062,0.875,0.312s0.562,0.625,0.562,0.625l0.5,0.125c0,0,0.812,0,1.062,0s1.25-0.062,1.25-0.062s1.375-0.75,1.5-0.938
		s0.562-0.812,0.562-0.812s-0.062-0.188,0.562-0.188s1.062,0.188,1.25,0.312s1.188,0.188,1.188,0.188s0.562-0.062,0.75,0
		s0.938,0.5,0.938,0.5s0.438,0.375,0.625,0.625s0.562,0.812,0.562,0.812l1.062-0.312l0.75-0.312l1,0.188l0.812,0.562
		c0,0,0.5,0.438,0.75,0.688s0.562,0.812,0.562,0.812l1.625,0.5l2.5,0.375l1.25-0.625l0.562-0.438l0.875-0.938l0.688-0.562
		c0,0,0.938-0.25,1.125-0.25s1.5-0.375,1.5-0.375l0.812,0.688l1.062,0.938c0,0,0.875,1,1.062,1.062s1,0.562,1,0.562
		s0.938-0.312,1.125-0.438s1.188-0.75,1.188-0.75s1.25-0.875,1.562-0.875s2.062-0.625,2.062-0.625l1.188-0.312
		c0,0,0.812-0.188,1.062-0.188s0.875-0.25,0.875-0.25s0.125-0.062,0.75,0s0.75,0,0.938,0.188s0.375,0.5,0.438,0.75
		s0.5,0.375,0.5,0.375l1.75,0.438h2l1.312-0.125l1.312-0.375l2.5-0.188l3.438-0.188h2l1.312-0.062c0,0,0.938-0.375,1.125-0.312
		s1.312-0.438,1.312-0.438s0.875-0.312,1.062-0.312s0.75-0.438,0.75-0.438L692,172l0.938-0.75l0.562-0.625l0.312-0.188l1.125,0.25
		L695.5,171l1.125,0.25l0.938-0.562l0.938-1l0.938-1.25l1.375-0.312l1.188-0.5l1.062-0.438l0.5-0.375l0.75-0.25l0.75-0.25
		l0.562-0.562l0.625-0.312l0.75,0.25l1.125,0.875l2.188,2.062l1.188,2l0.562,0.688l0.562-0.312c0,0,0.562,0.125,0.688,0.375
		s0.438,0.875,0.688,1.312s1,1.562,1,1.562l0.625,1.5l0.25,0.625l0.812,0.812l1.812,1.25l1.188,0.938l1.5,1.812l1.812,2.938
		l0.375,1.625"/>
</g>
<g id="gcp">
	<circle id="ledgedot" fill="#FF0000" cx="99.417" cy="192.334" r="0.25"/>
	<circle id="jawlip2" fill="#FF0000" cx="37.25" cy="217.333" r="0.25"/>
	<circle id="screepit" fill="#FF0000" cx="13.5" cy="159.667" r="0.25"/>
	<circle id="kissers" fill="#FF0000" cx="297.188" cy="224.375" r="0.25"/>
	<circle id="brokens" fill="#FF0000" cx="394.917" cy="213.25" r="0.25"/>
	<circle id="dragonduct" fill="#FF0000" cx="531.956" cy="219.167" r="0.25"/>
</g>
</svg>
