<?xml version="1.0" encoding="utf-8"?>
<!-- Generator: Adobe Illustrator 16.0.4, SVG Export Plug-In . SVG Version: 6.00 Build 0)  -->
<!DOCTYPE svg PUBLIC "-//W3C//DTD SVG 1.1//EN" "http://www.w3.org/Graphics/SVG/1.1/DTD/svg11.dtd">
<svg version="1.1" id="svg" xmlns="http://www.w3.org/2000/svg" xmlns:xlink="http://www.w3.org/1999/xlink" x="0px" y="0px"
	 width="1029.121px" height="683.52px" viewBox="0 0 1029.121 683.52" enable-background="new 0 0 1029.121 683.52"
	 xml:space="preserve">
<image overflow="visible" enable-background="new    " width="4288" height="2848" xlink:href="AK12_20100925_231620.JPG"  transform="matrix(0.24 0 0 0.24 0 0)">
</image>
<g id="land">
	<polygon fill="none" stroke="#FF0000" stroke-width="0.25" stroke-miterlimit="10" points="415.667,681.667 448,668.667 
		469,665.333 496.333,653.667 514.56,642.333 520.333,633 523,627 530.333,622 543,622 558.667,623.667 573,616.667 
		589.333,607.667 628.333,591.667 649,587.667 671.667,584.667 702,577.333 741.333,571.333 773,565.667 789,563.333 
		805.333,563.333 798,575 789.333,583.333 749,594.667 713.667,603.333 686.667,613.667 663.667,628.333 628,650.667 610.5,661.667 
		596,683.52 415.667,683.52 	"/>
	<path fill="none" stroke="#FF0000" stroke-width="0.25" stroke-miterlimit="10" d="M0,255.001v-172l17.333,5.333L32,90.668h10.333
		L60,94.001l17.667,9l14.333,8l15.333,5h10l4-2.667l11.333-1l15,2.333l11,3.333l12.667,1.333l11.333-1.667l13.667,6.333l5.667,3.333
		l8-1.333l15.333-4l14,1.333l11,1.333l16,2l13-11l17,1l10.667,2.67l9.667-0.667H329l15.333,9.333l9,4.667l16,2l18,1l17.333,1.333
		l9-3.667l7.333-5.333h10l11,6l8,5.667l8,3.333l15-2.333l6-1.667l8,3.667l13,7l10.333,4.333l8.333,0.667h9.666l9,4l14.002,6l6,4.333
		h12l10.666-5l8.666-7.667h14l6,3.333L619.333,161l8-4.667l7-2l6.666,2.333l5,2.667l4,0.333l7.334-4.667l6.666,0.333l10.334,3
		l18.332,2.667l24,1.667l10.668-1l16.332-5.333L754,153.001l10,1.667l11.334,14.333l9.334,6.333L796,170.668l15-1.667h11.668
		l7.332-6.333l14,0.667l17,1.667l6.334-1.333l10,1l6,4.333l14.334,4l18.666-4h17h10.334H962l27-5.667l31-0.667l6.334,4.667
		l2.787,1.667v55.667L1000,224.336l-8-0.333l-8.332-1.667l3.666-4.667l3.666-3.333l-2.666-4l-6.666-1l-5.334-3l2.334-2.333
		L983,201.67l-3-2.667l-6.332-2l-19.334-3l-19.666-2.333h-15l-12,1.333l-2,3l5,3l8.666,5L916,207.335l-17,0.667l-46.332-3.333
		l-18.334-3.333l-15.334-3l-13.666,0.333h-4c0,0,7,4.667,8.334,5.667c1.332,1,10,6.667,10,6.667l-4,2.333l-9.334,2l-41,0.333
		l-53-2.333l-19.666-2L683,208.668l-17.332-5L647,200.001l0.668-4.333l2-6.667l-0.334-9.667l-10-1l-19.334-3l-7.666,1l-7,3
		L599,179.668l-19-0.667l-15,1.667l-4,3l11.668,7.333L588,195.668l28,9l13.668,5.667l6.666,4.667l4.334,4.333v3.667l-20,3
		L594,228.335l-23.666-1.667l-30,2l-22,0.667l-17.667,0.667L465,230.668l-25,4l-55,4.333l-27.667,2.667l-28,4l-12.667,0.333
		l-8.333-14.667l-1.333-17l3.333-8l14-7.333l12.667-5l12-5.667l-2.667-4h-27.667l-19.667,3l-25.333,3.667L264,193.335l-8.667,4.333
		L241,200.335l-9.667,0.667h-12l-7.667-0.333l-7.333-2.333l-6.667-5l6-7.667l0.667-9l-12.667-3.333l-11.333-1.333l-11.667,1.667
		L165,180.001l0.333,6l12.333,10.333l23.333,19l16.667,18.667l5,5.667l-3.333,4.333L206,246.668l-47.667,1.333l-24-0.333l-22.667-2
		l-34.333-3.667l-40,5L0,255.001z"/>
</g>
<g id="gcp">
	<circle id="ledgedot" fill="#FF0000" cx="152.894" cy="190.843" r="0.25"/>
	<circle id="brokens" fill="#FF0000" cx="442.498" cy="209.01" r="0.25"/>
</g>
<g id="horizon">
	<path fill="none" stroke="#FF0000" stroke-width="0.25" stroke-miterlimit="10" d="M0,87.135l1.685-0.375l2,0.75l1.625,1.5
		l3.125,1.375l1.875-0.25l1.625,0.5l3.625,3.5l2,1.25l1.125-0.25h1.125l2.25,0.5l1.75-0.625l1.875-0.75l1.125-0.25l2.875,1.125
		l2,0.125l0.5-0.375l1.125,0.5l3.75,3.875l1.25,0.25l6-3.25l3.75,0.5l8.875,2.625l7,3.5l5.5,2h1.625l1.625-0.5
		c0,0,0.625,0.375,1.125,0.75s1.25,1.125,1.25,1.125l3.875,2.5l5.5,2.25l8.125,4l8.875,3.875l4.5,2.125l3.875,0.75l4.25,0.375
		l2.875-0.375l1.875-1.375l1.875-1.375l3.875-0.875l5.125,0.25l4.125-0.375l4.375-0.375l5,0.75l4.375,1.5l5.375,1.5l4.375,1.125
		l5.5,2.75l3.5,2.25l2.5-1.5l3-1.75l0.75-1l1.5-0.625l1.625,0.25h1l2.875,2.125l3,1.125l2.125,1.875l1.875,0.5l3.75,0.125l2.5-0.25
		l1,0.25l2.375,1.5l4.75,3.25l3.312-1.312l2.438-0.125l3.312,0.188l0.938,0.125l1.375-0.75l2.188-0.562l1.375-1.062l2.25-1
		l4.625-0.938l3.062-0.75l1.938,0.188l1.25,1.188l2.125,1.688l2.438,0.625l2.688,0.25l1.25,0.25l2.125-0.5l1.25-0.562l1.812-0.062
		h1.25l1.5,0.5l3.438,0.438l3,0.125l2.5-0.062l1.875-0.688l2.312-0.125l2,0.25l2.812,1.188l1.125,1l2.188,0.688h2.125l1.875-2
		l3.812-4.188l3.125-3.938l1.625-1.562l2.125-0.688c0,0,1.5-0.125,1.812,0s4.188,2.5,4.188,2.5l1.75,1.438l2.312,1.188l2.125,0.062
		l1.438,0.188l1.312,0.75l1.438,0.938l0.812,1.25l2.312,0.25h2.812l1.438-0.875"/>
	<path fill="none" stroke="#FF0000" stroke-width="0.25" stroke-miterlimit="10" d="M314.435,128.385l1.625-0.688l2.562-0.25
		l1.938,0.188l0.812-0.938l0.438-0.625h0.75l1.812,1.062l1.25,0.25h1.688l2.125,1.125l1.562,1.438l1.875,1.438l3.25,2l5.188,2.812
		l2.938,1.812l4.312,2.938l3.562,2.188l2.25-0.25l0.938-0.062l1.125,0.812l1,0.875l3.812,0.875l1.875,0.125
		c0,0,0.812-0.625,1.125-0.75s1.312-0.625,1.312-0.625l2.062-0.875h2.125l0.625-0.375l1.625,0.125l2.062,0.188l2-0.938l1.438-0.062
		l1.875,0.625l3.562-0.312h2.562l1.188-0.5l1.312-0.5l1.125,0.25l1.438,0.562l1.875-0.062l1.438-0.438l1.375-0.875l1.438-0.062h1.5
		h1.375l2.875-0.375l1.375,0.375l2.062,0.375l2.062-0.188l3.375,1.688l7.188-7.125l3.812-2.562l3.125-1.688l2.438-0.25l1.812,0.812
		l1.812,1.688l2.938,3.438l1.688,1.5l1.562,1.25l1.188,0.188h2l0.625,0.25l0.688,1l2.062,3.125l2.375,0.938l2.25,0.688l1.312,0.688
		l1.5,0.125l1.25,1.062l1,0.812l1.5-0.25l1.125-0.062l0.5,0.062l1.562-1.125l4-0.625h2.688l2.062,0.938l3.625-1.312l3.375-0.938
		l1.875-0.375l2,0.125l1.562,0.562l1.125,0.875l1.875,0.438l1.312,0.375l1.562,1.375l1.125,1.125c0,0,1,0.375,1.188,0.375
		s1.125,0,1.125,0l1.438,0.125c0,0,1.312,0.438,1.5,0.5s2.062,1.062,2.062,1.062l3.312,1.562l2.5,1.688l2.688,2.875l2.188,1.562
		l3.688,0.938l4.625-0.125l5-0.438l4.375-0.5l3-0.312l1.812,0.25l3.375,1.75l1.688,0.812l2.625,0.688l1.312,1.125
		c0,0,1,0.688,1.188,0.938s1.062,1.5,1.062,1.5l2.25,0.438l3.562,0.812l4.062,1.25l4.938,2.688l2.625,1.5l0.812-0.062
		c0,0,0.812,0.125,1,0.188s2.75,0.75,2.75,0.75s0.812,0.438,1,0.438s2.375,0.188,2.375,0.188l1.625-0.25l1.375-0.938l3.188-1.375
		l2.5-0.062l5.062,0.375l2.562-0.062l1.75-0.312l2.188-1.5l1.062-0.25l1.125-0.188l2.812-3.5l3.062-2.375l1.812-2.25l1.062-1.062
		l1.25-0.188l1.375,0.375l1.688,1.438l3.438,1.312l6.312,2.438l4.688,1.188l3.125,0.375h2.062c0,0,2.812-0.188,3.125-0.312
		s1.562-0.375,1.562-0.375l2.688-1.875l2.25-1.438l2.25-0.125l2.938-0.5c0,0,1.125-0.625,1.312-0.75s1.312-1.062,1.312-1.062
		l1.125-0.562l1,0.5l1,1.438l1.375,1.688l1.25,0.875c0,0,0.812,0.375,0.938,0.562s0.75,0.562,0.875,0.75s0.625,0.75,0.625,0.75
		l4.688-0.438l2-1.125l2.438-0.875l3.062-2l2-0.812l0.688-0.438l1.062-0.625l1.125-0.438l1,0.375l1.188-0.062l0.812,0.438
		l0.625,0.438l1.438,0.25l1.75,0.188l1.438-0.062l2.562,1.688l0.75,1.062l0.25,1.312l0.625,0.375l0.688-0.5l0.438,0.438l0.625,0.5
		l0.938-0.312l0.438-0.25l0.438,0.312l0.938,1.125l2.562-0.562l2.188-1.062l0.562-0.875c0,0,0.625-0.312,0.812-0.125
		s0.5,0.688,0.5,0.688l0.75,0.062h1.188l0.812,0.562l0.438,0.75l0.875,0.25l0.938-0.5l1.688,0.062l0.75,0.625l1.125,1.062
		l0.562,0.75l2.75,0.5l1.25,0.188h1.5l1.688-2.25l0.938-0.438l1.5-0.625h0.5l2.125,1.875l1.375,0.875h1.062l1.875-1l2.812-1.062
		l1.625-1.062l1.812-0.25l1.75,0.062l0.812,0.938l1.062,0.5l3.5,0.75l2.75-1l3.25-0.562l3-0.312l2.875,0.062l2.062-0.125
		l1.188-0.688l2.438-0.875l0.812-1.312l0.312-0.062l1.875,0.875l2.062-0.75l0.938-1.688c0,0,0.562-0.875,0.812-1
		s1.938-0.625,2.125-0.562s1.312-0.562,1.312-0.562l1.812-0.812l1.75-0.688l0.625-0.062l1.062,0.875l2.375,2.125l1,2.062l1.688,0.75
		l1.062,1.188l1.312,3.188l2.312,1.812l3.062,2.375l1.438,2.375l1.562,2.75l1.125,1l2.062,0.188l3.438,0.688l0.5,1.062l0.438,0.688
		l1,0.25l1.25-0.125l2.25,0.625h1.25l1.312,0.062l1.375,0.75l2,1l5.062-4.938l6.375-5.438l3.062-1.438l2.062-0.375l3.062,0.188
		l2.812,2l0.812,0.062l1.188-0.188l1.562,0.688l0.375,0.5l1.188,0.5l3.188,1.062l3.188,0.188l2.438-1.875l3.062-3.438l1.125-1.25
		l2.375-2.812l3.875-0.688l3.812,0.75l3.25,1.312l2.438,1.188l1.438,0.5l1.625,0.875l1.125-0.438l1.75-0.188l1.562,0.562
		l1.625-0.062l2-0.812l1.625-0.062"/>
	<path fill="none" stroke="#FF0000" stroke-width="0.25" stroke-miterlimit="10" d="M874.185,170.51l2.5,1.375l2.125,1.938
		l2.438,3.25l2.688,2.375l2.25,0.5l0.562-0.312l1.25-1.125l0.75-0.625l0.75-0.062l2.375,0.75l1.875,0.188l0.75-0.125l1.188,0.5
		l2.562,1.25l2.375,1.5l2.25,1.312l0.812,0.188l5.562-3.375l4.75-2.875l3.812-1.25l3.875-0.438l3.438-0.062l2.188,0.812l4.812,2.375
		l5.625,2.375l1.25-0.25l4.188-1.75l5.75-1.625l4.312-0.75l4.75,0.562l3.188,0.75l3.812,0.125l2-0.5l2.688-0.812l1.125-0.938
		l0.625-0.375l1.25,0.438l1.125,0.812l2.875,0.375l4.938-0.562l2.25-0.562l1.938-2.375c0,0,1.188-0.938,1.375-0.875s1.5-0.5,1.5-0.5
		l2.375-0.438l4.938-0.312l2.938,0.062l2-0.375l2.438-1.562l1.938-1.062c0,0,1.062-0.062,1.25-0.062s2.125,0.625,2.125,0.625
		l1.688,0.938l1.812,1.125l1.812,0.562l1.312,0.312l1.188,0.25l1.125,0.375l2.062,0.438l2.062,0.125l2.062-0.125l1.438-0.062
		l0.625,0.562l1.562,1.062l1.686,0.375"/>
</g>
</svg>
