<?xml version="1.0" encoding="utf-8"?>
<!-- Generator: Adobe Illustrator 16.0.4, SVG Export Plug-In . SVG Version: 6.00 Build 0)  -->
<!DOCTYPE svg PUBLIC "-//W3C//DTD SVG 1.1//EN" "http://www.w3.org/Graphics/SVG/1.1/DTD/svg11.dtd">
<svg version="1.1" id="svg" xmlns="http://www.w3.org/2000/svg" xmlns:xlink="http://www.w3.org/1999/xlink" x="0px" y="0px"
	 width="1029.12px" height="683.52px" viewBox="0 0 1029.12 683.52" enable-background="new 0 0 1029.12 683.52"
	 xml:space="preserve">
<image overflow="visible" width="4288" height="2848" xlink:href="AK12_20101130_211712.JPG"  transform="matrix(0.24 0 0 0.24 0 0)">
</image>
<g id="land">
	<polygon fill="none" stroke="#FF0000" stroke-width="0.25" stroke-miterlimit="10" points="0,523.5 157.5,523.5 288.5,530.5 
		414.5,557.5 495.5,605 547.5,657.5 557.5,683.52 0,683.52 	"/>
	<polygon fill="none" stroke="#FF0000" stroke-width="0.25" stroke-miterlimit="10" points="0,292 42.5,281.5 56.5,273.5 56.5,256 
		44.5,247 13.5,239 0,236 	"/>
	<path fill="none" stroke="#FF0000" stroke-width="0.25" stroke-miterlimit="10" d="M0,208.5V109l23,18.5l18.5,9H52l12.5-4.5l14,1
		l12,5.5L103,137l12-3.5l15-1l7.5-6l9.5-7.5l16-5l13,1l6.5,1.5l10-5c0,0,14-1.5,15.5-2.5s12,3,13.5,3.5S235,118,235,118l13-1l9-3.5
		l45-11.5l21,5.5l22-11l14.5,4.5l16.5,2.5l26-3.5l25.5,2.5l19-6L460,92l17-7l27.5,4l20.5,7l19-2.5l32.5-8.5h17h20l16.5-5l28-8h22
		c0,0,27.5,3.5,29,3.5s19.5-3.5,19.5-3.5l22-15.5l14-6.5l24.5-3h16.5L846,57.5l54.5,6.5H920l23.5-6.5H977l22,4.5l30.12-4v187H868
		H717l-114.5-6l38-24l24.5-10l-2.5-9l-57,9.5l-52.5-1l-22.5,1.5l-32.5,6l-13,10.5L462.5,233l-19.5,2.5l-56-9L361.5,211l-8-8l11-15
		l-9-6l-30.5,2l-63.5,8l-25.5-2.5l-21.5-2l-37-7.5l-47-11.5L107,167l-21-2.5l-4,4.5l22,17l-7.5,5l-9,1.5l1,8L97,206l-8,4.5L70,214
		l-37-4L0,208.5z"/>
</g>
</svg>
