<?xml version="1.0" encoding="utf-8"?>
<!-- Generator: Adobe Illustrator 16.0.4, SVG Export Plug-In . SVG Version: 6.00 Build 0)  -->
<!DOCTYPE svg PUBLIC "-//W3C//DTD SVG 1.1//EN" "http://www.w3.org/Graphics/SVG/1.1/DTD/svg11.dtd">
<svg version="1.1" id="svg" xmlns="http://www.w3.org/2000/svg" xmlns:xlink="http://www.w3.org/1999/xlink" x="0px" y="0px"
	 width="1029.121px" height="683.52px" viewBox="0 0 1029.121 683.52" enable-background="new 0 0 1029.121 683.52"
	 xml:space="preserve">
<image overflow="visible" enable-background="new    " width="4288" height="2848" id="image" xlink:href="AK12_20110721_200018.JPG"  transform="matrix(0.24 0 0 0.24 0 0)">
</image>
<g id="terminus">
	<polyline fill="none" stroke="#FF0000" stroke-width="0.25" stroke-miterlimit="10" points="0,303.083 8.583,303.5 17.083,303.667 
		21.5,303.75 25.5,303.667 30,303.5 33.5,303.5 36.833,303.417 41.833,303.5 46.833,303.333 49.583,303.417 52.333,303.417 
		55.333,303.667 57.583,304 59.5,304 61.333,304.167 62.5,304.333 	"/>
	<polyline fill="none" stroke="#FF0000" stroke-width="0.25" stroke-miterlimit="10" points="63.25,306 66.75,306.083 
		69.917,306.083 72.833,306.083 75.5,306.333 79,306.417 81.5,306.667 84.75,307.167 86.417,307.667 88.333,307.833 92.75,307.417 
		97.5,307 101.25,306.417 107.166,305.667 113.25,305.25 118.166,304.75 123.333,304.833 127.083,304.833 129.25,304.75 
		132.166,304.75 134.75,304.667 137.583,304.417 141.833,304.583 143.75,304.333 146.166,303.917 148.25,303.667 151.25,303.5 
		156.083,303.167 159.999,303.167 163.499,303.167 166.749,303.25 171.166,303.083 175.749,303.083 179.999,302.917 183.916,302.75 
		187.166,302.5 189.499,302.333 194.166,302.083 198.833,301.833 205.438,301.5 213.25,301.188 	"/>
	<polyline fill="none" stroke="#FF0000" stroke-width="0.25" stroke-miterlimit="10" points="220.562,300.562 225.812,300.5 
		232,300.312 236.188,300.312 240.938,300 244.312,300.125 247,300.062 253.438,299.812 258.375,299.5 262.625,299.125 	"/>
	<path fill="none" stroke="#FF0000" stroke-width="0.25" stroke-miterlimit="10" d="M271.875,298.5l4.562-0.188l3.625-0.125h4h3.125
		l3.438-0.375l4.375-0.438l3.75-0.25l3.625-0.5l2.812-0.438l2.188-0.188l2.438-0.25l1.625-0.062l1.875,0.062l1.625,0.062l1.5,0.188
		l1.688,0.062l1.688-0.062c0,0,1.875-0.25,2.062-0.188s2.812-0.25,2.812-0.25h1.938l2.938-0.312l1.25-0.25l1.562-0.062l2.375-0.188
		H338l3-0.125l5.625,0.062l4.5,0.062l3.875-0.062l3.688,0.062l4.312,0.125l3.188-0.062"/>
	<polyline fill="none" stroke="#FF0000" stroke-width="0.25" stroke-miterlimit="10" points="375.375,294.312 380.625,294.312 
		385.312,294.188 390.188,294.25 394.812,294.188 398.25,294.25 405.938,294.188 410.812,294.312 415.562,294.375 421.375,294.375 
		425.312,294.312 431.312,294.375 436.75,294.625 441.75,294.625 442.5,294.625 	"/>
	<path fill="none" stroke="#FF0000" stroke-width="0.25" stroke-miterlimit="10" d="M442.938,295.062l3.875-0.188L451,295l4.75,0.5
		l4.562,0.188l2.688,0.125l2.5,0.062l4.5,0.25l5.062,0.125h3.312l2.75,0.25l1.125,0.375l2.312-0.062h1.75
		c0,0,2.125,0.125,2.375,0.188s1.875,0.312,1.875,0.312l1.75,0.062l2.25,0.25l2.625,0.188l2.125-0.125l2.375,0.062l1.812,0.188
		l3.375,0.125l1.688,0.438l1.562,0.062l1.188,0.062l1.75,0.188l1.5,0.188l2.875,0.188l4.062,0.125l5.562-0.125l5.062-0.062h4.938
		l3.562-0.062l4.5-0.062h3.561h6.689l3.5,0.062l4.311,0.062l4.125,0.125h4.125l4,0.25l1.439-0.062l2.061-0.125h2.25h3.875L587,299.5
		l2.375,0.75l2.812,0.312h2.562l2.938,0.25h1.688l2.312,0.312l2.312,0.062h1.5l1.688,0.188l2.625,0.188l2.75-0.062l6.938,0.562
		l5.375,0.25l3.812,0.312l2.938,0.188l3.812,0.188l3.375,0.188l2.25,0.125l2.875,0.188l4.188,0.312l4.375,0.625l4.25,0.75
		c0,0,1.75,0.375,1.938,0.438c0.189,0.063,2.5,0.312,2.5,0.312l1.625,0.188c0,0,1.375,0.188,1.625,0.188s2.562,0.062,2.562,0.062
		l3.438,0.375l1.875,0.125l2.439,0.062h1.561l2,0.188l2.25,0.125l3.439,0.125l4.188,0.188l3.625,0.062l5.188,0.062l4.062,0.25h4.188
		l1.438,0.062h2.062c0,0,1.312-0.438,1.5-0.438c0.188,0,1.625-0.5,1.625-0.5l2.625-0.25l2.25-0.375l3-0.188l1.312-0.25l1.125-0.125
		l1.5-0.562l2.125-0.062l2.75,0.125l4.688-0.062l4.688-0.188l4.312-0.062L746.5,305l5.562-0.125l7.188,0.25l4.625,0.25l2.188,0.188
		l3.25,0.188l4.125,0.062l3.312,0.312l2.812,0.188l3.438,0.25l2.562-0.062l5.625,0.312l3.812,0.125c0,0,3.188,0.062,3.375,0.062
		c0.186,0,3.811,0.062,3.811,0.062h3.25h3.312h3.375l5.438-0.125l5.125-0.25l8.689-0.125l3.061,0.25L837,307l2.562,0.188h3.125
		h2.875h2.875l4.938,0.188l4.25-0.188l5.25,0.062l3.875,0.188l3.688,0.062l3.875,0.062l9.812-0.125l5.312,0.188h5.688l3.938,0.312
		l1.875,0.25l5.375,0.25l5.562,0.188l6,0.125l4.562,0.25l7.25,0.312l5.125,0.125l4,0.062l4.562-0.188l7.25,0.125l5.125,0.062
		l7.188,0.875l4.375,0.062l7.125,0.25l7.625,0.5l4.625,0.25l7.312,0.375h8.5l6.75-0.125l8.125-0.188h6.311l5.312-0.062"/>
</g>
<g id="horizon">
	<path fill="none" stroke="#FF0000" stroke-width="0.25" stroke-miterlimit="10" d="M0.084,67.918l3.083,1.333l1.75,0.833
		l1.333,1.083l1,1.083l2.667,0.917l1.25,0.25h1.583h2.75c0,0,0.917-0.25,1.167-0.25S16.5,72.835,17.5,73.085s2.5,0.75,2.5,0.75
		l1.75,0.667L24,75.085l0.833-0.25L27,73.668l1.083-1.083l1.333-0.583l1.917-0.083l1.25-1.333l1.25-0.75L36,69.252l2.75-0.75
		l3-0.167l1.75-0.083l2.167,0.5l2.583-0.083l1.25-1l0.75-0.583l1.333-0.5l1.5-0.583l1.667-0.583h1.917l2.417,0.75l1.417,0.667
		l1.917,0.583l1.667,0.083l1.75,0.25L68,68.002l3.667,0.5l2.667-0.333H76l1.5,0.5l3.5,0.917l3.583,1.417l3.083,0.917l4.75,1.083
		L96,73.585l2.583,0.25l1.667,0.333l1.917,0.25l1.75,0.417l2.75,0.917l2.5-0.167h1.333l2.167,0.25l1.833-0.083h2.583l1-0.083
		l2,0.417c0,0,0.917,0.25,1.167,0.333s1.917-0.667,1.917-0.667l1.25-0.417l1-0.5l1.083-0.583l2-0.417l1.667-0.167h1.25l1.5,0.417
		l0.5,0.333l1.333-0.5l1.417-0.5l1.75-0.667l1.833-0.25l1.667-0.333l2.5,0.667l2.417,0.917l2.833,1.083l0.917,0.917l1.167,1.25
		l1.417,1.167l1.167,1.083l1.333,1.333l1.333,1.417l0.917,1.667l1.667,1.833l3.167,1.917l1.083,1.083l1.417,1.167l3.917,1.667
		l4.417,1.75l3.5,1.25l3,0.833l1.5,0.917l1.667,0.917l2.75,1.583l1.833,0.75l1.667,1l2.25,0.667l2.75,2l3.25,2.167l1.5,1.083
		l3.75-1.25l3.083-1.25l2.5-0.583c0,0,1.417-0.583,1.667-0.583s2.25-0.667,2.25-0.667l2.333-0.917l1.417-0.667l1-0.5l1.083-1.25
		l1.25-0.75L220,97.418l1.333-0.667l1.583-0.667l2.083-0.25l1.25-0.333l1.333,0.167l1.333,1.25l0.833,1.583l1,0.75l0.917,0.667
		l0.583,0.833l1.25,0.5l0.75,0.333l1.917-2.75l0.917-1.667l0.5-0.833l1.25-0.833l1.333-0.833l1.167-0.833l1.833-1.75l2.5-1.75
		l1.75-1.5l1.333-1l0.833-0.75l1.167-0.167l1.5,1.083l0.667,0.75l1.25,1.167l1.5,0.333l1.083-0.25l1.75,0.667h2.25l1.917-0.083
		h1.667l1.583,0.083l1.5,0.417l1.25,0.583l0.667,0.667L270,92.918l1.833,0.5l2.25,0.167h3.167l2.667-0.5l1.75-0.25l1.667-0.333
		l1.333-0.5c0,0,0.167-0.167,0.75-0.333s1.5-0.417,1.5-0.417l0.75-0.417h1.167l0.667,0.5l1.25,0.917l1.833,0.917l2.083,0.5
		l1.417,0.167l1.167,0.833l0.75,0.417l0.833,0.917l0.75,0.417l0.5,0.75l0.417,0.917l0.75,0.167l1.25-0.417h1.083L305,98.168
		l1.083-0.417l1.75-0.833l0.667-0.417h0.917L310,96.918l0.833,0.75l0.667,0.583l1.167-0.75l1-0.333L315,97.752l0.583,0.667
		c0,0,0.417,0.5,0.667,0.833s0.833,1.333,0.833,1.333l1.083,1.083l2.667-1.833l1.667-1l1.833-0.583l2.667,0.5l1.667,0.667
		l3.083,0.667l1.917,0.5l2.333,0.917l2.5,1.5l4.583,2.083l1.5,0.333l1.417-0.5h1.083l0.833,0.417l2.833,1.917l4.5,2.583l5.167,2.333
		l3.083,1.917l2.5,1.333l2.917,1.083l3.25,1.833l3.25,1.083l3.333,1.083l4,0.25l2-0.833l1.417-0.917l1.5-1.25l1.167-0.75l3-0.417
		l4.167-0.417h5.833l2.333-0.167h1.75l2.083,0.333l2.833,0.833l5.5,1.417l4,1.333l3.083,1l3.333,1.75l2.167,0.667h0.917l1.917-0.583
		l0.833-0.917l1.167-0.667l1.667-0.833c0,0,0.583-0.417,1-0.417s1.917,0.25,1.917,0.25l1.75,0.5l2.833,1.417l1.417,1.167
		l0.917,0.917l2,0.75h2.167l1.25,0.083l0.5-0.083h1.583l1.417,0.25l1.417,0.667l1.417,0.833l0.833,0.833l1.167,0.75l1.583,0.417
		c0,0,1.25-0.75,1.583-0.75s1.5-0.5,1.5-0.5l1.75,0.083c0,0,1.25,0,1.5,0.083s1.583-0.167,1.583-0.167l1.25-0.333l0.75-0.167h2.083
		l0.833-1.667l0.5-0.417l2.667-0.083l1.75,0.5l1.833,0.083l0.417-1.417l1.583-0.667l1.667-0.333l1.667,0.167l1.167,0.417l0.75,0.667
		l0.25,0.917l1.167,0.417l1.75,0.333l1.5,0.333l2.417,0.417l1.083-0.417l0.583-0.333l2.083-0.333h1.25h1.667l1.583,0.583
		l0.917,0.167l0.667-0.583l1.25,0.083l0.75,0.333l1.333,0.167l1.167,0.083l1.417,0.083l0.5-0.75l1.583,0.083l1-0.25l0.5-0.25
		l2,0.333l1.584,0.583l0.5,0.083l1.25,0.5l0.584,0.833l1.5,1.167l1.25,0.25l1.416-1.5l1.75-1.417l0.166-1l1.168-0.083l0.666-0.917
		l0.75-1.417l0.334-1l0.582-0.5l1.084-0.333l0.834-1l1-1.5l0.75-1l0.582-0.833l2.334-0.583l1.916,0.583l2.084,0.75l1.834,1.167
		c0,0,1.332,0.75,1.582,1s1.668,1.333,1.668,1.333l1.332,0.167h1.5l1.334,0.333l0.834,0.583l1.082,0.75c0,0,0.334,0.417,0.584,0.583
		s1.5,0.333,1.5,0.333l2.416,0.083l1.5,0.167l1.168-0.417l1.166-0.583h1.25l0.916-0.333h0.5l1.25-0.5l1.084-0.083l1.584,0.5
		l1.332-0.167l1.418-0.583l0.832-0.417l1.25-0.083l1.75,0.083h1.334l0.75-1.167l0.666-0.25l1.584,0.833l1.416,0.5l2.168,0.5
		l1.5,0.417c0,0,1.082,0.666,1.332,0.833s2,1.667,2,1.667l2.584,1.833l4.25,2.333l3.334,2.333l1.332,0.5l2.168,1.583l1.832,1.333
		l2.334,1.25l1.5,0.583l1.666,0.167l2.584,0.833l2.084,0.667l1.916,0.583l1.75-0.167l1.75-0.667l1.916-1.25l1.418-0.25l1.582,0.083
		l1.084-0.583h1.25h1.166l0.918-0.167l1.666-0.333l2.166-0.25l1.25,0.583l2.168,0.083h2.166h2.084l1.166-0.417l1.416-0.417
		l2.668,0.583l1.25,0.167l1.5-0.833l0.832-0.583l1.5-0.167h1.918h1.25l1.416-0.833h1.584l1.832,0.167l3.25,0.583l3.834,1.5
		l3.334-3.5l2.5-2.583l1.416-1l1.25-1l0.918-1l2-1.167l1.582-1l1.584-0.583l1.334-0.083l2.082,0.5l1.918,1.083l2.166,2.583
		l3.416,3.583l1.75,0.833l1.584,0.25l1.5,0.167l0.75,0.75c0,0,0.832,1.25,1,1.5c0.166,0.25,0.75,0.667,1.166,1.167
		c0.418,0.5,1.584,1.5,1.584,1.5l1.5,0.833l2.5,0.333l1.416,0.417l0.834,0.583l2.5,0.583l1.666,0.083l1.25-0.083l2.084-0.583
		l2.916-0.667h1.918l2.416,0.417l1.584,0.25l2.166-0.5l1.834-0.667l1.75-1.083l1.832-0.583l1.25-0.083l2.25,0.333l1.668,0.5l1.832,1
		l1.834,0.5l1.916,1.167l1.084,1.166l1.5,0.667l1.25-0.167l2.334,0.583l1.5,0.417l0.666,0.583l1.668,0.417l1.916,1.167l1.25,0.917
		l1.5,1.083l1.25,0.917l1.416,1.333l0.75,0.833c0,0,0.834,0.417,1.084,0.75s1.666,1.083,1.666,1.083l3.918,0.583l3.916-0.083
		l2.5-0.167h2.25l2.75-0.417c0,0,1-0.75,1.416-0.75c0.418,0,2.084-0.583,2.084-0.583l1.5-0.167h1.25l2,0.417l1.584,1.083l1.082,1
		l1.168,0.667l0.916,0.083l1,0.333l1.5,1.167l2.5,2l0.916,0.917l3.25,0.75l2.334,0.333l2.5,0.667l2.25,0.667l1.5,0.5l2.834,1.5
		l1.75,1.75l2.5,1h2.082l1.334,0.167l2.25,0.25l2.084,0.333l1.166-0.083l1.5-0.583l1.5-0.667l1.416-0.75l1.25-0.417h1.668
		l3.416,0.083l3,0.25l2.666,0.333l1.918-0.333l1.416-0.583c0,0,1.666-0.667,1.916-0.75s1.168-0.667,1.168-0.667l1.332-1.417
		l1.75-1.917l2.5-2.167l1.668-1.5l1.832-1.25l0.75-1.333l1.084-1l1.166-0.167l1,0.417l1.334,1.083l1.916,0.917l3.418,1.167l4.5,1.75
		l4,1.25c0,0,2.916,0.667,3.25,0.75s2.084,0.25,2.084,0.25h2.832h2.918l2.25-0.417l2.916-2l2.334-1.167l1.916-0.667l2.25-0.417
		c0,0,0.584-0.583,0.834-0.5s2.666-0.917,2.666-0.917l2-0.417l1.416-0.333l1.418,0.667l0.832,1.167l1.5,1.167l1.584,0.667
		l0.75,0.833l1,0.667l1.5,0.75l5.166-1l3.834-1.583l3-1.25l1.416-0.833l2.418-1l1.5-0.917l0.582-0.417h1.584l1.5,0.417
		c0,0,1.166,0.167,1.5,0.5s1.916,0.333,1.916,0.333l2.584,0.25l1.25-0.083l2.084,1.333l0.332,1c0,0,0.416,1.417,0.584,1.667
		c0.166,0.25,0.666,0.917,0.666,0.917l0.75-0.583h0.5l0.75,0.667l0.418,0.167l1.166-0.583h0.5l0.584,0.5
		c0,0,0.416,0.583,0.666,0.583s1.334,0,1.334,0l1.332-0.417l1.834-0.083l1.25-1.25l0.834-0.5l1.082-0.083l0.418,0.917l1.582-0.25
		c0,0,0.084-0.166,0.418-0.083c0.332,0.083,1.416,1,1.416,1l0.584,0.667l1.416-0.083l1-0.583l1.584,0.333l1,0.833l0.666,0.75
		l0.584,0.583l1.5,0.167l2.5,0.417l1.832,0.167l1-0.917l1.25-1.417l1.5-0.75l1.334-0.25l1.666,0.167l1.166,1.083l1.334,1.417
		l1.084,0.167l2.332-1.167l2.418-0.583l2.332-0.417l1.834-0.75l1.666-0.917l0.918-0.5l0.75,0.25l1.25,1.417c0,0,0.75,0.5,1,0.5
		s2.332,0.083,2.332,0.083h2.668h1.08l2.668-0.833l3.166-0.25h3l1.416-0.333l1.5-0.083l2-0.25l0.918-0.5l1.5-0.333l0.666-0.25
		l1.666-0.417l0.75-0.75l0.5-1l0.918-0.333h0.582l2.334,0.583l2.537-1"/>
</g>
<g id="gcp">
	<circle id="alcove" fill="#FF0000" cx="71.75" cy="210.875" r="0.25"/>
	<circle id="butt" fill="#FF0000" cx="216.75" cy="220.5" r="0.25"/>
	<circle id="screepit" fill="#FF0000" cx="344.167" cy="156.417" r="0.25"/>
	<circle id="portaledge" fill="#FF0000" cx="316.333" cy="202" r="0.25"/>
	<circle id="jawlip2" fill="#FF0000" cx="362.167" cy="207.25" r="0.25"/>
	<circle id="ledgedot" fill="#FF0000" cx="415.583" cy="183.916" r="0.25"/>
	<circle id="kissers" fill="#FF0000" cx="595.812" cy="213.062" r="0.25"/>
	<circle id="brokens" fill="#FF0000" cx="692.5" cy="201.75" r="0.25"/>
	<circle id="rustcut" fill="#FF0000" cx="701.042" cy="203.375" r="0.25"/>
	<circle id="dragonduct" fill="#FF0000" cx="836.167" cy="206.958" r="0.25"/>
</g>
<g id="land">
	<polygon fill="none" stroke="#FF0000" stroke-width="0.25" stroke-miterlimit="10" points="611.56,683.52 642.06,672.76 
		670.56,665.26 708.56,659.26 742.56,645.26 760.06,631.26 772.06,628.26 791.56,628.26 814.06,623.76 859.06,610.26 904.56,599.76 
		950.06,599.76 1020.06,594.76 1029.121,594.76 1029.12,683.52 	"/>
	<path fill="none" stroke="#FF0000" stroke-width="0.25" stroke-miterlimit="10" d="M0.084,256.979L0,62.075l8.808,6.014
		l12.027,1.093l7.654-2.187l7.654-2.46l15.308-1.094L68.4,63.715l21.869,4.374l17.222,4.374l16.948,0.273l12.848-3.28l8.748-0.273
		l15.855,7.381l4.374,6.561l16.128,8.474l11.481,5.74l7.927,3.554l5.467-2.733l9.294-4.92l13.941-1.64l5.467-1.914l9.841-4.92
		l12.848-1.367l10.388,3.007l12.575,0.273l11.208,0.82l22.142,6.014l17.222,2.187l31.436,10.388l9.841,5.741l8.474,2.46l9.294-0.82
		l11.754-0.547l13.121,1.64l14.487,3.007l15.035-1.093l6.562,2.733l7.381,3.007l6.561,0.82c0,0,5.468-1.641,7.107-2.187
		c1.64-0.546,14.488-3.007,14.488-3.007l16.128,3.827l15.582,0.547l7.928-4.921l8.747-6.014l12.028,0.273l15.854,4.92l18.315,0.82
		l5.739,4.374l14.488,6.014l12.574,4.374h12.574l17.222-0.82l9.841-3.827l10.388-2.46l14.488-3.28l6.014,1.367l9.294,5.467
		l11.208,6.014l15.31-0.82l10.934-1.914l10.114,3.28l8.748,5.467l8.474,4.1l5.741,1.367h9.841l6.562,1.093l12.574,4.374
		l13.668,4.647l7.653,2.733l13.396-0.273l10.661-0.273l8.2-6.014l7.381-4.647l6.834-0.547l10.935,4.647l7.107,1.64l7.927-0.273
		l4.646-2.46l6.287-3.554l8.201,1.367l7.927,2.46l9.568-3.28l6.287-1.64l7.381,0.546l8.474,3.827l19.955,3.28h19.955l11.481-1.367
		l13.121-3.554l17.51-3.827l0.123,67.52l-15.72-2.46l-13.667-0.547l-20.775-0.547l-13.668-0.82l-7.107-1.64l-7.106-1.914
		l-3.827-2.187v-3.554l3.554-4.647v-3.28l-8.475-2.187l-9.021,1.094l-9.841,1.913l-9.021,1.641l-7.654,0.546h-4.374l1.641-3.007
		c0,0,1.913-2.46,2.733-2.46s6.561-7.927,6.561-7.927l0.547-2.187l-5.467-5.74l-9.021-0.82l-34.989,0.82h-28.703l-15.308,0.546
		h-3.008c0,0,0.819,1.64,1.641,2.187s12.848,6.287,12.848,6.287l9.294,5.467l11.208,4.101l16.676,3.554l11.48,4.1l10.936,5.194
		l9.294,5.467l6.561,4.374l0.82,4.374l-7.654,0.82l-22.143,3.554l-28.43,0.273l-22.416,1.367l-36.63,1.094l-17.768,0.273
		l-15.31,0.273l-26.241,0.82l-22.144,2.733l-13.939,2.187l-21.597,1.64l-19.955,0.82h-14.487l-8.475-1.913h-7.653l-13.396,2.46
		l-13.395,3.007l-23.235,3.28l-7.654-1.093l-7.106-5.194l-2.46-6.287l-3.28-12.028l-0.547-11.208l1.094-4.647l8.747-6.014
		l18.315-6.014l18.86-7.38l3.827-4.647l-1.641-1.914l-7.107-0.273l-17.768,1.093l-22.144,5.467l-25.422,5.194l-12.575,3.28
		l-11.207,4.101l-9.021,0.273l-15.31-1.093h-13.94l-6.288-1.367l-4.1-3.554l-0.82-5.194l2.733-3.554l-0.272-3.007l-4.647-4.101
		l-4.921-0.546l-6.561,0.546l-9.841,5.194l-1.367,1.64l-0.547,3.827l8.748,6.834l13.668,10.388l12.574,14.214l8.201,11.481
		l4.101,6.561v3.007l-5.194,3.007l-13.941,2.187l-34.717,0.547l-44.011-1.914l-50.025,0.82l-31.163,0.547l-45.924,0.82l-56.585,2.46
		l-37.997,1.367l-51.118,1.914l-31.709,4.101l-43.464,1.367L0.084,256.979z"/>
</g>
</svg>
