<?xml version="1.0" encoding="utf-8"?>
<!-- Generator: Adobe Illustrator 16.0.4, SVG Export Plug-In . SVG Version: 6.00 Build 0)  -->
<!DOCTYPE svg PUBLIC "-//W3C//DTD SVG 1.1//EN" "http://www.w3.org/Graphics/SVG/1.1/DTD/svg11.dtd">
<svg version="1.1" id="svg" xmlns="http://www.w3.org/2000/svg" xmlns:xlink="http://www.w3.org/1999/xlink" x="0px" y="0px"
	 width="933.121px" height="622.08px" viewBox="0 0 933.121 622.08" enable-background="new 0 0 933.121 622.08"
	 xml:space="preserve">
<image overflow="visible" enable-background="new    " width="3888" height="2592" id="image" xlink:href="AKJNC_20121001_155719.JPG"  transform="matrix(0.24 0 0 0.24 -9.765625e-04 0)">
</image>
<g id="terminus">
	<polyline fill="none" stroke="#FF0000" stroke-width="0.25" stroke-miterlimit="10" points="772.332,309.833 773.666,309.583 
		776.166,309.083 778.5,309.083 780.666,308.833 783.5,308.667 785.416,308.5 787.582,308.583 789.25,308.917 791.5,309.167 
		793,309.167 795,308.917 797.582,308.667 800.75,307.75 803.082,307.167 804.5,306.5 805.75,305.917 808.082,305.5 809.5,305.083 	
		"/>
	<path fill="none" stroke="#FF0000" stroke-width="0.25" stroke-miterlimit="10" d="M785.812,268.438l3.125-0.188l2.688-0.062h1.625
		h1.688l0.812-0.125l0.875-0.25l0.625-0.312l1.438-0.312h1.562l2.875,0.188l3.062,0.062l4,0.438l3.75,0.188l5.75,0.312l3.125,0.062
		L827,268.75h1.312l3.375,0.438l2.188,0.062l4.375-0.062l3.125-0.188c0,0,3.688-0.312,3.875-0.312s2.625-0.188,2.625-0.188
		l2.188,0.188L854,269.25l3.125,0.188l2.188,0.25l2.689,0.188c0,0,2.5,0,2.75,0s6.75,0.25,6.75,0.25l4,0.375l3.75,0.25l4.061,0.312
		l6.312,0.375l4.812,0.438l5.062,0.375l4.561,0.188l3.812,0.312h3.75h1.75l2.625,0.312l1.875,0.312l4.75,0.562l4.688,0.562
		l5.81,0.688"/>
	<polyline fill="none" stroke="#FF0000" stroke-width="0.25" stroke-miterlimit="10" points="933.121,498.999 926.241,501.339 
		920,503.679 916.384,505.381 913.76,507.579 911.988,510.132 911.279,511.054 	"/>
</g>
<g id="horizon">
	<path fill="none" stroke="#FF0000" stroke-width="0.25" stroke-miterlimit="10" d="M0.062,125L2,124.688l1.75,0.188l1.5-0.062
		l1.25-0.125h1.812l0.812-0.25l0.75-0.25l0.875-0.25l0.812-0.312h0.688l0.688,0.5l0.5,0.562l1.125,0.812l1.062,0.5l1.625,0.25
		l2.625,0.312l1.375-0.062l0.5,0.5l0.5,0.562l0.5,0.25l1-0.312l1.25-0.062l0.875-0.062L27,127.562l1.375,0.312l1.375-0.25
		l0.625-0.188l1.062-0.062l0.625-0.25l0.875-0.438L34,126.75l2.125,0.375L37,127.562l0.75,0.062l0.5-0.188l0.938-0.312l1.688,0.188
		l1,0.188l0.375-0.688l1.375-0.125l1.125,0.375l1.375,0.375l0.688,0.375l0.812,0.625h0.438h0.5l0.625,0.25l1.125,1l1.75,1.25h0.688
		L53.875,131l0.75,0.25l0.625-0.125l0.625-0.438l1.062-0.812l0.438-0.5l0.5-0.625l0.812-0.062h1.062l1.812,0.188l0.938,0.438
		l1,0.562l0.812,0.875l1.438,1.5l1.312,0.938l1.188,0.312l0.875-0.375l1.25-0.688l1.188-1.062l1.375-0.938l1.125-0.625l0.562-0.188
		l1.062,0.125l1.938,1.562l1,1l0.688,0.375l0.75,0.438l0.688-0.438l0.812-0.312L84,132.312l0.875-0.188l0.688-0.188l0.375-0.375
		L86.5,130.5l0.562-1.312l1.25-1.438L89.25,127l0.688-0.438l1.5-0.312l1.375,0.062l1.562,0.188l1,0.438l1,0.188l2.312-0.438
		l2.188-1.125l2.062-1.25l0.688-0.75l1-0.688l1.188-0.375l0.438-0.375l1.125-0.938l0.438-0.438l0.438-0.312l0.625-0.188l0.375,0.188
		l0.625,0.25l0.5-0.062l1-0.25c0,0,0.125,0,0.312,0s1,0.312,1,0.312l0.562,0.25l1.062,0.312l0.375-0.375l0.5-0.188h0.625l2.25,1.438
		l2.438,1.625l2.562,1.562l1.625,0.875l0.938,0.438h0.688l0.75-0.625l0.938-0.812l0.938-0.312l0.812-0.25h1.062l2.375,1.062l2,1.5
		l0.5,0.125l0.688,0.25l0.438,0.438l0.312,0.562c0,0,0,0.062,0.188,0.25s0.938,0.438,0.938,0.438l0.688,0.312l0.688,0.25l0.25,0.438
		c0,0,0.312,0.5,0.5,0.688s0.5,0.438,0.5,0.438l1.25,0.75l1.062,0.875l1.125,1.125l0.562,0.562c0,0,0.375,0.312,0.688,0.438
		s1.75,0.5,1.75,0.5l1.438,0.062l1.062,0.75l0.625,0.625l0.562,0.312l0.812,0.062h0.75l0.438-0.25l0.688-0.688l0.5-0.125
		l0.938-0.312l1.25-0.25l0.75-0.688l0.625-0.562l1.062-0.75l0.875-0.562l1.875-0.625L163,132.5l1.25,0.125l1.062-0.75l0.562-0.938
		l0.75-1l0.812-0.625l1-0.5l0.875-0.312l0.812,0.062c0,0,1.312,0.312,1.5,0.375s1.125,0.438,1.125,0.438h1.375l0.375-0.438
		l0.75-0.062l0.688,0.438h0.75l1-0.062l1.438,0.875l1.562,0.875l1.125,0.812l0.438,0.438l0.938,0.938l0.562,0.312l0.75,0.125
		l0.625-0.062l0.438-0.5l0.625-0.875l0.938-0.938l0.5-0.562l0.188-0.688l0.375-0.562l0.75-0.5h0.75l1.25,0.188l1.188,0.438
		l0.938,0.062l0.875,0.062l0.5-0.125l1.438-0.75l0.812-0.375l2.125,0.125l1,0.375l2.5,1.125l1.875,1.438l0.812,0.812l1.25,0.938
		l0.5,0.312l0.688-0.062l0.812-0.312h1.125h1.188l1.188-0.375l1.125-1.188l2.438-2.375l2.25-2l1.375-1.625l1.312-0.938l1-0.688
		l0.688-0.5l0.688-0.312l1.25,0.375l0.938,0.062l0.688-0.312l0.5-0.812l0.438,0.062l0.812,0.375l0.562,0.062l1.312-0.312
		l1.188-0.625l0.938-0.438l0.812-0.312h1.438l1.312,0.25l0.875,0.25h0.875l0.75-0.312h0.938l0.75,0.25l2,0.875l2.562,0.812l2,0.938
		l2.688,1.375l1.938,1.5l1.625,0.562l0.938,0.25l1.438,0.25l2.188-0.438l2.125-0.625l1.438-0.562l0.812-0.5l0.625-0.75l0.562-0.188
		h1.125l1.812,0.438l1,0.688l0.438,0.062l1-0.062l0.625-0.062c0,0,0.188,0.062,0.375,0.188s1.125,0.625,1.125,0.625
		s0.625,0.5,0.812,0.625s1.5,0.25,1.5,0.25l2.125,0.312l0.562,0.938l0.688,0.562H276l1.625-0.188l0.75-0.062l0.438-0.188l0.625-0.5
		l0.625-0.688l0.625-0.438H281l0.75,0.625l0.625,0.562l1.125,1l1.375,0.375l1.312-0.375l1.062-0.438l0.875-0.5l0.75-0.938l0.5-0.75
		l0.5-0.812l0.938-0.375l1.188-0.562l0.875-0.25l1.625-0.562l0.625-0.812l0.688-0.562l0.75-0.438l0.438-0.125l0.812-0.062
		l0.688,0.312l0.812,0.812l1.938,1.625l2,1.25l0.625,0.438l1.562-0.062h1.312l0.938,0.562l1.312,0.688h0.75l1.125-0.188l1.688-0.25
		L313.75,127l0.625-0.688l0.625-0.688l0.688-0.312h1.188l1.312,0.5L318.75,126l0.312-0.125l1.062-0.125l1,0.125h1l0.5-0.375
		l1.125-0.312h1.375l1.438,0.5l0.938,0.25l0.875,0.062l1-0.188l0.688-0.438l0.625-0.562l0.875-0.25l0.875,0.188l0.5,0.375
		l0.562,0.188h1l0.875,0.312c0,0,0.312,0.438,0.5,0.562s0.75,0.188,0.75,0.188l0.625-0.062h0.375l0.688,0.25l0.5,0.688L340,127.5
		l1.062-0.438l0.875-0.5l0.5-0.438l0.625-0.25l0.75-0.125c0,0,0.312,0.062,0.5,0.312s0.562,0.438,0.562,0.438l0.75,0.375l1.062,0.25
		l0.875,0.125l1.375,0.188h0.75l0.562,0.375h0.625l0.688-0.375l0.688-0.75L353.5,126l0.438-0.188l0.688,0.188l1.125,0.062
		l0.562,0.062l0.625,0.312l1.125,0.375l1.562,0.438c0,0,0.375,0.062,0.625,0.188s0.938,0.438,0.938,0.438H362l0.5-0.25l0.625-0.562
		l0.875-0.75h1l1-0.5l0.688-0.562h0.438l0.688-0.125l1.062-0.625l1-0.812l0.562-0.438l0.625-0.188l0.688-0.125l0.688-0.375
		l0.375-0.688l0.688-0.938l0.812-0.875l1.75-1.312l1.375-0.75l0.5-0.312l0.625-0.375h0.375l1.688,1l1.188,1.125l1.688,1.312l1,1.125
		l1.125,0.938l0.5,0.812l0.625,0.5l1,0.25l0.688,0.062c0,0,0.25-0.062,0.625-0.188s1.312-0.438,1.312-0.438l1.25-1l1-0.562
		l0.438-0.5l0.5-0.125l0.375,0.125l1.062,0.562l1.125,0.375h0.562h0.938h1.125l0.688-0.125l0.688-0.438h0.938l0.688,0.375
		l0.438,0.438l0.625,0.125h0.688l1.062,0.062l0.625-0.25l0.5-0.438l0.5,0.188l0.188,0.312c0,0,0.125,0.188,0.312,0.312
		c0.187,0.124,0.562,0.062,0.562,0.062l1,0.062l2.75-0.125l2.062,0.125l0.938,0.25l0.688,0.188h0.562l0.938-0.062l0.812-0.5
		l0.375-0.312l0.812-0.312l0.688-0.312l1.625-0.25l1.125-0.25l1.188-0.312l0.812-0.562l0.688-1l0.625-0.25l0.625-0.125l0.688,0.375
		l0.625,0.188h0.688l0.812-0.25l0.5-0.562l0.938-1.5l1.062-0.812l0.438-0.438l0.5-0.062l0.5,0.438l0.312,0.312h0.438l0.875-0.312
		l0.312-0.062H435l1.188,0.625l0.75,0.75l0.812,0.562l0.312,0.375l0.875,0.375l0.625-0.125h0.25l0.5,0.25l0.562,0.375l0.75,0.062
		h0.688l0.562,0.188l0.75,0.875l0.875,0.5l0.625,0.75c0,0,0.188,0.25,0.375,0.375s0.875,0.25,0.875,0.25h0.562l1.375-0.312
		l0.625-0.312l0.5-0.562l0.812-0.188l1-0.062H452h0.875l0.938,0.25l0.688,0.438l0.375,0.25l0.438,0.688l0.312,0.312l1.188,0.688
		l2.312,0.688h1.625l0.625-0.062l0.438-0.188c0,0,0.125,0,0.312,0s0.562,0,0.562,0l0.875-0.438l0.375-0.188h0.812l1.625,0.375
		l1.312,0.875l0.875,0.875l0.875,0.438l0.688,0.25l1.062,0.312l1.5,0.062c0,0,1,0,1.25,0.062s2.125,0.188,2.125,0.188h1.25
		l0.312,0.062l1.125,0.625l0.561,0.562l1.062,0.75l2,1.125l2.625,0.688l1.5,0.188l0.688,0.375l0.689,0.375l0.5,0.625l0.688,0.375
		l1.062,0.312l1.811,0.562l3.25,0.812l2.062,0.688l3.25,0.625l2.75,0.625l3,0.375l3.438,0.125l3.001-0.125
		c0,0,3.125-0.375,3.312-0.375s1.875-0.5,1.875-0.5l1.062-0.25l0.875-0.125h1h0.938l0.75-0.125l1.125,0.625l0.688,0.312l0.438,0.562
		h1.062l1.062-0.062l1.312-0.062l1.25-0.188l0.875-0.188l1.625-0.688l0.812-0.062l0.875,0.438l1.688,1.188l1.375,1.312l2.688,1.625
		L542.25,143l1.375,1.125l1.062,0.188H546l1.688,0.312l1.312,0.312l1.25,0.188l1.25,0.375l0.75,0.75l1.25,0.875l1.5,0.438
		l1.938,0.625l2.689,1.188l1.375,0.938l0.75,0.875l0.375,0.812l1.688,0.688l1.062,0.625l0.75,0.375l1.188,0.312l0.938,0.562
		l1.438,0.562l1,0.875l0.375,0.562l0.312,0.375l0.5,0.062l1.312,0.438l0.375,0.25l0.938,0.938l0.375,0.625l0.438,0.75l0.938,0.562
		l0.5,0.188l0.5,0.188l0.5,0.75l0.562,0.375l0.312,0.375l0.312,1.812l1.25,1.75l1.125,0.688l0.5,0.562l1.625,0.25l4.75-0.25
		l4.75-0.375l2.625-0.438l5.438-0.312l5-0.312l6.625-0.375l7.188-0.688l3.875-0.125l6.938-0.688l5.688-0.188l5.25-0.188L644.75,163
		l2.625-0.312L649.5,162l2.062-1.375l1-0.812l2.062-0.5L657,158.75l3.688-0.625l1.939-0.562l3.061-0.438l1.875-0.438l4.25-1.5
		l2.125-0.75l3.189-0.375l2.438-0.062l1.812-0.25l1.5-0.312l2.061-0.562l2.189-0.75l2.061-0.5l2.25-0.438l10-1.938l1.75-0.562
		l1.562-0.875l0.75-0.5l0.625-0.5l0.75-0.312l0.812-0.188l0.625-0.938l0.312-0.75l1-0.938l0.625-0.062l1.375,0.562l1,0.875
		l0.25,0.438l0.311,0.688L714,146.25l2-0.062l1.688-0.375l0.812-0.562l0.562-0.562l0.438-0.562l0.812-0.688l0.625-0.438l0.688-0.062
		l0.562,0.188c0,0,0.25,0.375,0.375,0.562s0.125,0.188,0.125,0.188l0.438,0.438h0.562l0.312-0.25l0.811-0.188h0.375l0.75,0.125
		l0.439,0.25l0.438,0.188l0.688,0.188h0.688l0.375-0.062l0.439-0.25l0.688-0.375h0.938l1.5-0.188l1-0.562l2.125-0.938l1.75-0.75
		h1.125l0.75-0.062l0.312,0.625l0.25,0.125l1.438-0.125l1.562-0.812l2-0.812l1.5-1l1.5-0.75l0.812-0.438l0.875-0.312h0.688
		l0.562,0.375l0.561,1l0.5,0.562l2.312,0.375l2.25-0.188l2.188-0.25h1l0.812,0.375l0.5,0.125l1.75,0.062l0.438,0.125
		c0,0,0.25-0.062,0.439,0.188c0.188,0.25,0.811,0.312,0.811,0.312l1.312-0.312l0.562,0.188l1.062,0.562l0.188,0.5l0.812,0.875
		l1.188,0.062l0.625-0.062l0.812-0.438l0.688-0.125h1.188l0.375,0.25l0.75,0.75l0.5,0.312h0.688l1.25-0.062
		c0,0,0.25,0.062,0.875-0.125s1-0.25,1-0.25l0.812-0.375l0.812-0.562l0.312-0.375l1-0.25l0.5-0.062h1.561l0.5-0.125l0.625-0.188
		l0.5-0.125l0.439,0.062l0.438,0.25l0.375,0.312l1.188,0.312l1.375,0.625l1.438,0.188h1l0.689-0.062l1.375-0.188l0.688-0.375
		l0.438-0.312l0.625-0.25l1,0.25l0.625,0.25L797.25,142l0.875-0.625l1.125-0.438l0.75-0.25l0.75-0.188h0.75l1.062,0.125l1,0.312
		l0.375,0.062h0.625l0.75-0.625l0.312-0.062l1.125-0.125l2.311-0.125h0.812l0.438-0.375l0.375-0.125l0.625,0.062l0.312,0.188h0.562
		l0.812-0.25l0.438-0.312h1.438l0.5,0.688l0.688,0.438l0.562,0.688l0.812,0.5l0.812,0.375l0.561,0.562l0.562,0.188l1.25-0.25
		L821.75,141l0.625-0.812l1.062-0.625l0.625-0.375l1.062,0.312l2.625,1.25l1.938,1.312l1.562,0.625h1.061l0.5,0.062l0.562,0.438
		l0.938,0.875l0.625,0.75l1,0.625l0.939,0.188l1.25,0.125h0.688l0.75,0.812l0.5,0.562l0.812,0.438h0.688l1.188-0.375l0.562-0.5
		l1.562-0.688l1.875-0.562l4.875-1l4.625-1.125l2.5-0.625l2.5-0.625l2.811-1.375l0.75-0.688l1.25-0.688h0.625l0.562,0.562
		l1.062,0.438h0.812l0.688,0.312l0.688,0.5h1.188h0.75h1l1.125,0.25l0.812,0.375l0.625,0.062c0,0,0.375,0.062,0.75-0.062
		s1.25-0.562,1.25-0.562l1.688-0.688l2.25-0.375l1.75,0.062l1.812,0.312l1.188,0.312h0.625l0.875-0.188l1.625-0.312l0.875-0.25
		l1.75-0.25h0.689l1.311,0.375L895.75,141l2.5,1.688l1.938,1.188l1.062,0.625l1.375,0.312c0,0,0.562-0.062,0.875,0
		s1.812,0.062,1.812,0.062h2h1.438l0.5-0.188l0.562-0.688l0.375-0.062l1.375,0.438l0.5,0.938l1.062,0.062l0.688-0.562l1.062-0.625
		h1.061l0.562,0.188l0.438,0.312l0.875,0.25l0.375-0.062l0.5-0.562l0.312-0.438l1-0.062l1.312,0.062H922h1
		c0,0,0.625,0.188,0.812,0.438c0.187,0.25,0.625,0.562,0.625,0.562l1.25,0.625c0,0,0.438,0.375,0.75,0.562
		c0.312,0.187,1.688,1.062,1.688,1.062l0.438,0.562l0.562,0.688l1,0.312l1.188-0.25l0.562-0.188l1.062-0.875"/>
</g>
<g id="moraines">
	<g id="moraine-04">
		<polyline fill="none" stroke="#FF0000" stroke-width="0.25" stroke-miterlimit="10" points="742.5,301.125 731.625,299.375 
			721.25,298.625 710.917,297.333 695.25,296.333 682.667,294.583 672.417,293.5 662.917,292.167 655.333,291 640.75,289.083 
			630.833,287.167 619.833,285.75 607.916,283.833 596.75,281.333 589.166,279.917 579.333,278.5 570.166,276.5 565.916,275.833 
			555.25,273.667 547.75,272.333 543.75,271.583 536.332,269.583 531.75,269.083 523.582,267.25 517.416,266.167 510.166,264.917 
			504.582,263.5 499.416,262.333 494.332,261.25 489.916,260.25 477.416,257.75 467.166,255.667 454.583,252.833 446.166,250.417 
			436.833,248.333 431.416,246.75 428.75,245.75 425.25,244.5 421.562,243.312 416.125,242.125 411.312,240.875 404.812,239.938 
			399.438,239.25 397.188,238.562 393.375,238.062 389.75,237.25 386.312,236.5 382.812,235.688 376.938,233.875 368.688,231.688 
			360.188,229.188 353.375,227.312 348.375,225.75 343.5,224.562 338.5,223.5 334,222.5 327,221.312 319.562,219.875 
			315.312,219.25 312,219 305.625,218 299.375,217.062 292.812,216.125 285.062,215 278.438,214.125 		"/>
		<polyline fill="none" stroke="#FF0000" stroke-width="0.25" stroke-miterlimit="10" points="226.375,209.5 219.625,208.125 
			213.062,206.688 205.125,204.875 199.188,203.688 194.125,202.812 186.938,201.875 182.375,201.312 177.312,200.5 
			170.875,199.812 160.375,198.812 153.875,198.625 		"/>
		<polyline fill="none" stroke="#FF0000" stroke-width="0.25" stroke-miterlimit="10" points="115.875,196.812 106.125,195.5 
			98.75,194.188 92.438,193.25 86.875,192.625 81.125,191.75 76.875,191.25 67.125,190.938 59.938,190.5 53,190.312 46.5,190.25 
			41.5,189.625 31.75,188.562 24.375,187.75 16.438,187.312 10.625,187 3.812,186.5 0,186.25 		"/>
	</g>
	<g id="moraine-01">
		<polyline fill="none" stroke="#FF0000" stroke-width="0.25" stroke-miterlimit="10" points="472.25,379.25 461,379.5 452,378.75 
			445.5,378 435.25,375.75 424,373.75 409.75,371.5 398.75,370.5 380.25,369 365.5,368 354.75,367.75 343.25,367.25 333.75,367.25 
			328,367.25 316.75,366.25 304.75,365.25 297.5,364.75 289.75,363.75 283.75,364 277.5,364 272,362.75 264.25,361.25 248,358.25 
			236.25,356.25 218.5,353.25 205,351.5 192,349 177.75,346.25 159,343 146.5,340.75 124.75,338.75 		"/>
	</g>
	<g id="moraine-05">
		<path fill="none" stroke="#FF0000" stroke-width="0.25" stroke-miterlimit="10" d="M690.63,207.553l0.285-0.055l3.334-0.5
			l3.332-0.333l3.084-0.667l3.25-0.333l2.5-0.333l6.021-0.146l5.812-0.562l3.625-0.562l2.375-0.75l2.938-0.562l5.688-0.5
			l6.562-0.438l7.625-0.375l5.625-0.562c0.976-0.039,1.949-0.078,2.925-0.117c1.439-0.058,2.896-0.405,4.323-0.405
			c0.542,0,1.083,0,1.625,0c1.348,0,2.663-0.062,3.984-0.125c3.026-0.143,6.217-0.101,9.186,0.188
			c0.987,0.096,1.919,0.269,2.894,0.46l4.25,0.375l4.438-0.062l4.189,0.188l4.311,0.25l2.689,0.125h3.25l5.25,0.375l5.938-0.25
			L819.5,202l7.062,0.062l9.625,0.312L845,202.5l7.875,0.188l5.812-0.062l7.188-0.562l11.75-0.188l7.938-0.438l9.062-0.438
			l7.125-0.188l6.625-0.062l5.688,0.25l5.125,0.375l6.125,0.188"/>
		<path fill="none" stroke="#FF0000" stroke-width="0.25" stroke-miterlimit="10" d="M878.375,252.625l-12.125-4.5l-10-3
			L840.625,240l-8.375-2.25l-8.25-1.875l-9.875-1.5l-11.459-1.875l-11.166-1.917l-7.084-1.25l-9.582-1.583l-5.918-1l-10.332-1.417
			l-6.834-1.167l-9.084-1.667l-5.416-1.167l-9.25-1.5l-8.5-1.25l-5.584-0.833l-7.25-1l-7.666-1l-7.084-0.917"/>
	</g>
</g>
<g id="gcp">
	<circle id="T20121001-01" fill="#FF0000" cx="453.873" cy="187.29" r="0.25"/>
	<circle id="T20121001-02" fill="#FF0000" cx="369.685" cy="186.103" r="0.25"/>
	<circle id="T20121001-03" fill="#FF0000" cx="167.998" cy="168.853" r="0.25"/>
	<circle id="T20121001-04" fill="#FF0000" cx="153.935" cy="174.259" r="0.25"/>
</g>
<g id="moraines-unused">
	<g id="moraine-02">
		<polyline fill="none" stroke="#FF0000" stroke-width="0.25" stroke-miterlimit="10" points="675,622.08 658.25,615.75 
			643.75,611.5 633.75,608.5 624.25,604.25 620.5,601 615,597.5 606.5,595.25 601.25,594.5 597,597 590,597 578.5,593.5 571.5,592 
			560,589.75 546.75,584.5 538.25,580 522.75,576.75 510.5,573 503,569.25 499.25,566.25 494.5,564.25 484.25,560.5 473.25,557.25 
			465,556.25 450.75,552.25 438.75,551.25 428.5,550 417.25,549.5 408.75,547.5 403.75,547 390.25,542.25 378,537.5 368.75,532.25 
			363.5,529 357.5,527 347.5,524.75 340.25,524.5 333.25,524.25 325.25,523 315.5,520.5 308.25,518.25 299,512 290.75,508.5 
			282.25,503.75 277.5,501.5 270,499.5 259.25,498.25 255.25,497.75 249,494.25 237,489.5 230,487.25 227,485 223,482.5 
			220.75,480.75 216.75,480.5 211.75,480.75 207,479.75 201.75,476 198.5,474 192.25,472 188,469.25 187.25,467 185.5,465.25 
			176,462 		"/>
	</g>
	<g id="moraine-03">
		<path fill="none" stroke="#FF0000" stroke-width="0.25" stroke-miterlimit="10" d="M47.553,391.221l-2.354-0.234l-3.297-0.589
			l-2.943-0.706l-2.355-1.061l-1.884-0.941l0.354-0.706l2.001-0.235l2.237-0.235l2.119,0.354l2.119,0.588l2.59,0.707l1.884,0.117
			l1.883-0.354l2.355-0.354l2.472,0.117l2.602,0.334l0.289,0.228L59.75,389c0,0,1.5,0.875,1.875,1.375s2.875,2.5,3,2.875
			s4.875,3.125,4.875,3.125l3.25,1.25l4.125,1.125l4.625,1.375l4.25,1.5l3.362,5.726l2.708,3.18l4.592,2.235l4.591,0.942l3.65,0.235
			h3.061c0,0,2.786,0.557,3.161,0.682s6.875,1.875,6.875,1.875l10.625,4.5l6.25,2.75l4.625,3.375l0.875,2.5l-2,0.625l-4.625-1.5
			l-3.5-1.25h-2.125c0,0-1.25-0.125-1.125,0.25S126,429,126,429l-1.875,0.625l-3.75-0.25l-7.375-2.5l-3.625-1l-4.875-0.625
			l-4.5-0.375l-3.25-0.25l-1.375,0.25c0,0,0.25,1.625,0.625,1.75s3.25,1.5,3.25,1.5l2.875,0.5l2.125,1l1.75,1.75l2.5,2.875
			l4.375,2.625l3.375,2.375l4.5,1.875l4.625,3.125l4.25,2.75l-0.366,0.851l-2.354-0.471l-6.593-2.119l-4.945-1.53l-4.944-1.767
			l-2.826-0.471l-4.356-0.235h-3.296l-1.766-0.118l1.178-1.884l1.883-2.119l0.354-1.178l-1.177-0.941H98.06l-3.179-0.117
			l-3.414-0.117l-3.768-0.472l-6.711-1.178l-4.474-1.413l-4.003-0.94l-0.942-0.589l-3.179-1.413l-3.179-1.061l-1.295-1.177v-0.824
			l0.471-0.941l-0.707-0.706l-2.354-0.354l-2.826-0.353l-4.592,0.234l-3.414-1.06l-3.179-1.884l-2.826-1.413"/>
	</g>
</g>
<g id="land">
	<path fill="none" stroke="#FF0000" stroke-width="0.25" stroke-miterlimit="10" d="M-0.001,169.103l0.063-49.063l3.749,0.75
		l4.75-0.25l6,1l3,1.5l16.75,0.5l10-0.75l8.75,0.5l5.75,1.75l14.75,2l9-0.5l5.25-2.25l10-1.75l9-4.75l8.25-0.75l8.75,1.5l10.75,3.25
		l13.25,5.25l6,1.75l7-2l6.5-0.75h12.5l14.25-1.25l8.25,0.25l4.5,1l6.25-4l15.5-4l12.75,1l7.75,2.25l6.75,2h11.75l5.25,1.5l11.5,1
		l6.5-3.5l6.75-3.25l6,2l5,1.5l7.75-0.5l18.5-0.75l9.75,0.75l9,0.5h7l8-4l5-3.75l7.25-0.75l9,3.75l10.25,2l16.75,0.75l6.5-3.5l7-4.5
		l16.5,2.5l10.5,2.5l11.25,2.75l20.25,7.75l11,4.25l7.75,1.5l5.75,0.25l7.25-2c0,0,8.75-0.5,9.5-0.25s8.75,2,8.75,2l8.75,5.25
		l12,6.25l8.75,3.75l9.75,5l6.25,3l13.5-1.75h11.75l8.5,2.75l7.5,1.75l10-2c0,0,18.5-3,19.5-3.25s27-4,27-4l19-5.25l13.75-4.75
		l15.5-1.25l13.5-3l7.25-1l9.25,2.25l11.5,1l7.75-0.75l13,0.5l14.75-2h6.5l12.25,1.5l10.25,1l6.5,1.25l14,0.5l10.5-3.5l10.25-0.25
		l14.25,0.5l11.25,0.75l8,1.5l13.25,1.75l8.627,2v53.75l-8.377-0.25h-10.75l-15.75,1.75h-9.75l-8.5-1.25l-4.75-1.5l-9.75-3.5
		l-18-2.25l-29.75-0.5l-31.75-1.25l-28-1.5l-16.25-0.75l-11.25-0.25l-27.5-2.25h-17.75l-16.5,0.75l-22.5,0.25l-39,0.25l-35.5-2.5
		l-14.75-0.5l-13.75-0.25l-10.75,1l-8.75-0.25l-16.25-1.5h-10.75l-9.25,0.25l-13.5,2l-7,0.75l-0.5,1l4,2.5l1,2.75l-2.25,2.5l-5,2.25
		l-13.75,4.5h-7.5l-1.5-3l-0.75-2c0,0-5-0.5-6-0.5s-13.25,1.25-13.25,1.25l-11.75,0.25l-5.25-2.75l-0.5-2.25l2.75-2.25l0.5-3
		l-4.25-1.25l-12,1l-13.75,0.75l-3.5,3.25l-4,2l-14.25,1l-14,0.75h-7.25h-4l-0.25-2.25c0,0,2.25-2.75,3.25-3.25s3.5-3.5,3.5-3.5
		l7.5-1.5l12.25-5l7-3.5l0.5-2.5l-3.75-0.5l-8,0.25l-10.25,1.75l-13.25-1.5l-5-0.25l-7-2.25l-7-0.25l-11.75-1.75l-12.75-1.25
		l-19.25,3.75l-19.75-1.5l-17.25-0.25l-14-1l-8.5-1.75l-10.25,1.25l-4,1l-0.25,3l7,3l15.25,3.5c0,0,1.5,1.5,0,2
		s-14.75,1.75-14.75,1.75l-17.75,1.75l-8.25,0.25h-14.75l-13,0.25l-5-0.5l-4.25-2l-4.5-3.25l-7.25-0.25l-14.25,1.25l-8.75,0.5
		l-6.75-1.75l-2.25-1.25l1-3.5l7.5-5.75l15.75-6.5l5-4.25l-1.5-1l-8.75-0.75l-18,1l-19.5,1l-16.5,1.75l-2.75,2l-4.25,3.25l-5.75,2.5
		l-14.5,3l-18,0.75L-0.001,169.103z"/>
</g>
</svg>
