<?xml version="1.0" encoding="utf-8"?>
<!-- Generator: Adobe Illustrator 16.0.4, SVG Export Plug-In . SVG Version: 6.00 Build 0)  -->
<!DOCTYPE svg PUBLIC "-//W3C//DTD SVG 1.1//EN" "http://www.w3.org/Graphics/SVG/1.1/DTD/svg11.dtd">
<svg version="1.1" id="svg" xmlns="http://www.w3.org/2000/svg" xmlns:xlink="http://www.w3.org/1999/xlink" x="0px" y="0px"
	 width="933.121px" height="622.08px" viewBox="0 0 933.121 622.08" enable-background="new 0 0 933.121 622.08"
	 xml:space="preserve">
<image overflow="visible" enable-background="new    " width="3888" height="2592" id="image" xlink:href="AKJNC_20120813_205325.JPG"  transform="matrix(0.24 0 0 0.24 -9.765625e-04 0)">
</image>
<g id="terminus">
	<polyline fill="none" stroke="#FF0000" stroke-width="0.25" stroke-miterlimit="10" points="738,307.5 739.75,306.625 
		740.75,305.875 	"/>
	<polyline fill="none" stroke="#FF0000" stroke-width="0.25" stroke-miterlimit="10" points="740.998,304.228 743.875,304.25 
		745.625,304 747.375,303.625 749.123,303.228 751.685,302.665 755.06,302.353 757.998,302.103 760.498,302.04 762.75,301.875 
		765,301.625 768,300.625 769.5,300.125 774.125,299.625 776.75,299.25 783.125,299.125 788.938,298.688 793,298.625 
		795.375,298.562 796.188,298.5 797.5,298.062 798.75,298.062 799.812,297.875 801.375,297.625 	"/>
	<polyline fill="none" stroke="#FF0000" stroke-width="0.25" stroke-miterlimit="10" points="751.224,264.874 753.182,265.04 
		754.932,264.915 757.224,264.999 760.766,265.082 762.599,265.207 764.349,265.374 768.517,265.54 772.767,265.665 
		774.767,265.707 777.142,265.29 779.101,264.79 780.017,264.415 781.059,263.749 782.059,263.249 783.684,263.207 786.101,263.082 
		788.309,262.999 790.041,262.875 794,262.625 796.583,262.667 800.333,262.958 804.376,263.208 807.917,263.375 811.583,263.667 
		813.917,263.917 815.333,264.125 817.501,264.125 820.542,264 825.208,263.958 827.167,264 829.21,264.208 831.71,264.333 
		833.794,264.542 836.376,264.875 838.251,264.917 839.71,265.042 844.126,265.167 847.251,265.167 852.046,265.25 855.962,265.375 
		861.128,265.333 865.253,265.5 868.253,265.542 871.796,265.625 874.88,265.958 879.462,266.292 882.962,266.5 886.421,266.792 
		892.337,267.375 896.546,267.667 899.88,268.083 903.546,268.625 907.007,269.125 910.007,269.375 913.548,269.666 
		916.882,269.666 919.214,269.791 921.589,269.916 925.548,269.791 927.673,269.875 929.589,270.041 933.121,270.416 	"/>
	<polyline fill="none" stroke="#FF0000" stroke-width="0.25" stroke-miterlimit="10" points="725.998,322.353 726.748,321.79 
		727.31,320.915 728.06,319.728 728.498,319.04 729.123,318.415 730.185,317.665 730.935,317.29 731.623,317.04 732.498,316.978 
		733.623,317.04 734.498,316.853 735.123,316.353 735.435,315.79 735.935,314.915 736.81,314.353 737.373,313.915 	"/>
</g>
<g id="horizon">
	<path fill="none" stroke="#FF0000" stroke-width="0.25" stroke-miterlimit="10" d="M0.25,119L2,118.417l1.25,0.083l1.333,1.167
		l1.167,1.25l2.083,0.25l3.083,0.083l1.417,0.417l0.917,0.417l0.917,0.25l3.083-0.083h2.417l1.083-0.083l1.417-0.75h1.917l1.5,0.333
		l2.333,0.667l1.417,0.167l1.25-0.333L32.25,122l0.917-0.167l0.917-0.333l1.417,0.083l4.75,1.917l1.5,0.833l2.167,1.083l1.25,0.25
		H46.5l1.083-0.5l0.917-0.833l1.083-0.667H51.5l1.75,0.417l1.583,0.75l2,1.667l1.854,1.375l1.125,0.375l0.938-0.125l1.188-0.75
		L63,126.312l1-0.75l1-0.688l1.062-0.375l1.312,0.125l1.25,0.688l0.688,1.062l1.188,0.688l0.438,0.438l1.375,0.188l1.438-0.438
		l2.062-0.375l1.375-0.188L78.25,124l1.312-1.375l1.312-1l1.25-0.375l1.438-0.188l1.312,0.25l1.125,0.25l1.438,0.25l2.188-0.5
		l2.062-0.75l1.938-0.5l1.625-0.812l1-0.875l2.25-1.688l1-0.875l0.938-0.875h1l1.688,0.25l2.812,0.188h1.188l1.75,0.938l0.812,0.562
		l1,0.938l1.75,0.875l2.75,1.5l1.188,0.688l0.875,0.312l0.75-0.812l0.875-0.438l1.375-0.188l1.812-0.312l1.438,0.312l0.625,0.625
		l0.688,0.312l0.688,0.125l0.25,0.625l0.375,0.625l0.938,0.188l0.75,0.25l0.562,0.438l0.688,0.875l1.25,0.312l0.688,0.438
		l0.812,0.75l0.938,0.625l0.75,0.562l0.812,0.75l1.312,1.312l0.938,1.25l2.062,0.562l1.812,0.625l1.25,0.688l1.125,0.812l1.812-0.75
		l1.5-0.812l1.812-0.375l2.312-1.938l2.688-1.438l2-0.25l1.188,0.25l0.688-1.5l0.75-0.812l1-0.688l1.25-0.312l1.125-0.188l1.5-0.188
		l2.375,0.375l0.625-0.25l0.812-0.125l1.062,0.375l1.938,0.25l1.75,0.812l1.188,1.125l1.25,0.5l0.938,0.688l0.688,0.688l0.812,0.062
		l1.125-0.375l1.188-1.125l0.812-1.125l0.312-0.812l0.25-0.5l0.875-0.25h1.625l2.375,0.438l1.312,0.375l1-0.625l2.188-0.25
		l1.875-0.062l1.562,0.688l1.688,0.75l2.188,1.688l1.688,1.438l0.438,0.5l0.5-0.562l1.062-0.062l2.688-0.125l1.125-0.812
		l1.312-1.188l0.875-0.75l1.562-2.125l1.438-1.375l0.375-0.25l0.812-1.25l0.438-0.625l1.062-0.438l1-0.438l0.562-0.625l0.75-0.125
		l0.875,0.125l1.75-0.25l0.812-0.25l1.312-0.062l1.438-0.125l1.125-0.688l0.812-0.312l1.438-0.188l2.438,0.125l1.5,0.438h1.25h1.562
		l2.75,0.625l2.312,1.062l3.375,1.5l2.25,1.438L243.25,123l3.562-0.438l3.375-0.812l1.5-0.812l0.5-0.75l0.625-0.438H254l1.062,0.438
		l2.812,1h0.875l1.688,0.562l2.188,1.062l0.25,0.062H264l0.938,0.125l1.312,1.188l1.5,0.312l1.125-0.188l1.375-0.188l0.938-0.438
		l0.688-0.562l0.312-0.375l0.625-0.062l0.688,0.5l1.125,1l0.625,0.625l0.5,0.375l1.938-0.125l0.688-0.938l1.375-1.25l0.312-0.75
		l0.5-0.562L281.25,121l2.562-0.812l2.312-1l1.625-0.812l0.5-0.5h0.875l1.375,0.688l1.188,0.875l1.812,1.5l2.438,1.5l0.938-0.188
		h1.25l1.25,0.375l1.375,0.5l1.562-0.188l1.25-0.188l1.062-0.312l0.938-1.188l0.562-0.5l1.5-0.375l1.5,0.438l2.188-0.062H313
		l0.75-0.25l1.125-0.062l2.375,0.188l1.188,0.562l1.125,0.125l1.188-0.688l0.812-0.562l0.562-0.438h1.062l2.312,0.75l0.938,0.125
		l0.875,0.25l0.688,0.312l1.062,0.25l0.875,0.625l0.875,0.312l1.5-0.375l0.562-0.562L333.75,121l1.5-0.25H336l0.562,0.438
		l0.562,0.438l0.938,0.25l0.875,0.312l0.625,0.125l1.5-0.312l0.875,0.312l1-0.5l1.062-0.375l0.562-0.375l0.375-0.188l1.188,0.188
		l1.812,0.25l1.75,0.5l1.75,0.625l1.062,0.375l1.188-0.688l0.938-0.938l0.75-0.562l0.938-0.375l1.062-0.312l0.75-0.188l1.312-0.188
		l0.875-0.25l1.188-0.625l1.188-0.75l0.625-0.75l0.938-1.375l1.375-1.375l1.125-0.812l1-0.688l1.625-0.438l1.125-0.062l1.688,0.812
		l1.188,1.188l2.25,1.812l1.5,1.688l0.875,1.188l0.75,0.312l0.938-0.062l1-0.812l1.75-1.062l1-0.625l0.625-0.5l0.812,0.125
		l0.938,0.625l1,0.375l1.188,0.125l0.938,0.062l0.625,0.312h0.75l0.375-0.438l0.562-0.625c0,0,0.375-0.25,0.562-0.25
		s0.562,0,0.562,0l0.5,0.438l0.875,0.625l0.562,0.25h1.188l0.75-0.25l0.5-0.062l0.938,0.125l0.938,0.25l2.5-0.25l1.875,0.125
		l1.688,0.438l0.812,0.25l1.5,0.062l1.062-0.312l0.5-0.688l0.812-0.25l1-0.062h1.062l1.125-0.375l1-0.375l0.875-1l0.938-0.5
		l0.875-0.375c0,0,0.875-0.125,1.062-0.125c0.188,0,1.562,0,1.562,0l1.188-0.625l0.812-1.125l0.562-0.812l0.625-0.5
		c0,0,0.938,0.312,1.125,0.312c0.187,0,0.562,0.188,0.562,0.188h1.062l0.688-0.375l0.875,0.188l1,0.5l0.938,0.812l1.188,1.062
		l0.312,0.25l0.438-0.188H431l1.5,0.5l1.125,0.062c0,0,0.312,0.125,0.5,0.188s0.688,0.5,0.688,0.5l0.812,0.812l0.75,0.812
		l0.75,0.188l2,0.25l0.562-0.5l0.75-0.5l1-0.188h1l1.625,0.25l1.188,0.5l1.25,0.875l0.938,0.625l1.875,0.5l2.062,0.438l1,0.062h1
		l0.938-0.375l0.688-0.188l1.5,0.125l1.688,0.938l1.625,0.938l1.062,0.5l1,0.312c0,0,2.75,0.25,2.938,0.312
		c0.188,0.062,2.562,0.188,2.562,0.188l1.188,0.062l1.75,1l1.25,0.812l1.938,0.875l2.812,1.188l1.062,0.375l2.938,1.188l1.25,0.875
		l6.062,1.5l4.5,1.125l4.311,0.5l3.25,0.062l5.125-0.062l4.125-0.812l1.939-0.375l1.311-0.25l1.689,0.438l0.938,0.438l0.938,0.562
		H517l1.562-0.062l2.812-0.375l1.125-0.25l0.75-0.062h0.561l0.625-0.062l0.875,1l0.812,1.062l1.562,0.875l2.25,1.625l1.562,1.062
		l2.188,1.75l0.875,0.188l1.688,0.375l1.562,0.312l1.25,0.312l1.062,0.312l2.438,0.938l2.25,1.188l1.625,0.25l1.188,0.5l1.312,0.75
		l1.25,0.75l1.312,1.188l1.375,1.312l1.375,1l1.625,0.312l1.438,0.625l1.75,1l1.188,0.625l1.25,1l1.062,0.75l1.438,0.938l1.312,1
		l1.438,1.438l1,1.125l0.938,1.438l0.689,1.375l0.25,0.938l0.625,0.875l0.938,0.688l0.812,0.312h1.438h4.312l9.688-0.688l8.375-0.5
		l8.562-0.75L615,159.438l7.688-0.562l6.562-0.312l5.875-0.562L639,157.44l1.688-0.5l0.189-0.875l1.25-0.75l1.375-0.438l2.061-0.812
		l1.75-0.188l1.625-0.25l1.812-0.562l1.625-0.438l1.562-0.25l1.875-0.312l1.562-0.625l3.561-1.125l4.062-1l3.562-0.438l1.812-0.062
		l1.75-0.375l4.25-1.125l4.25-1l4.875-0.875l2-0.75l2.061-0.062l1.439-0.438l1.125-0.125l2-0.562l0.938-0.812l0.5-0.625l0.5-0.25
		l0.812-0.375l0.311-0.438l0.689-0.812l0.688-0.625l0.812-0.375h0.875l1.75,0.5l0.938,0.812l0.625,0.25H705h1.5l1.438-0.562
		l1.189-0.812l0.75-0.75l1.061-0.25c0,0,0.562-0.062,0.75-0.062c0.189,0,0.625,0.25,0.812,0.438s0.688,0.188,0.688,0.188h1.25
		l1.062,0.312l1.438,0.625l1.375-0.25l0.875-0.312l2-0.375l1.25-0.438l1.25-0.75l1.062-0.312l1.062-0.438l1-0.312h0.812l1,0.125
		l1.311,0.312l0.875-0.5l1.312-0.5l1.5-0.125l1.062-0.562l0.5-0.438l1.312-0.625l0.375-0.5l1.25-0.625l1.375-0.188l0.688,0.5
		l0.562,0.812l1.561,0.562l1.375,0.438l0.812,0.125h0.938l1.189-0.438l1.311-0.125h1.375l0.439,0.438c0,0,0.438,0.25,0.625,0.25
		c0.186,0,1.5,0.188,1.5,0.188l1.5,0.188l0.688,0.25l0.75-0.25h0.812l0.875,0.438l0.311,0.25l0.625,0.375l0.875,0.312l1.75,0.062
		l0.75-0.062l0.875-0.062l1.189,0.812l0.561,0.625l1.625-0.062l1.625-0.062l0.562-0.562l1.125-0.938l1.062-0.5l1.812-0.312h1.561
		l0.812-0.312l0.75-0.125l0.812,0.375l0.438,0.75l0.5,0.5l0.688-0.062c0.439-0.125,0.875,0.125,0.875,0.125l0.189,0.438l1.561-0.062
		l1.562-0.25l0.875-0.312l1.25-0.312l1.062-0.188l0.5,0.438l0.125,0.5l0.5-0.188l0.562-0.562l0.811-0.5l1.25-0.25h0.875l0.375-0.688
		h0.939l1.811,0.25l1.062,0.438l0.875-0.312l0.5-0.312l0.875-0.188l1.562-0.125l1.625-0.125l0.5-0.438l0.562-0.188l0.688,0.25
		l0.25,0.375l0.312,0.25l0.625-0.5l1-0.312h0.75l1.311,0.5l0.75,0.75l1.439,0.688l1.125,1l0.188,0.5l0.375,0.062l0.938-0.625
		l0.625-0.812l1-1.062l0.562-0.875l0.688-0.625l1-0.062l0.875,0.438l3.25,1.75l2.062,0.938l1.875,0.312l0.688,0.312l0.75,0.562
		l1.125,1l1.25,1.188l0.812,0.062l1.125-0.062l0.438,0.188l0.875,0.688l1.062,0.562l0.75,0.375l1.95-0.699l2-1l4.312-0.938
		l3.938-1.062l3.312-0.688l2.375-0.625l2-0.625l2.5-1.062l1.5-0.75l1.062-0.062l1.312,0.188l0.625,0.188l1.25,0.062l0.75,0.438
		l0.75,0.312L861,136.25h1.5l1.25,0.562l1.125,0.5l2.25-0.25l1.125-0.312l1.438-0.562l0.875-0.75h2.062l1.438,0.062l0.75,0.188
		l0.939,0.125l1.438-0.25l3.938-0.5l1.5,0.25l1.312,0.438l1.312,0.75l1,0.688l0.875,0.75l0.811,0.75l1.939,0.875L892.25,140h1.562
		l1.875,0.062l1.625-0.25l0.438-0.375l0.625-0.062l1.25,0.312l0.75,0.375l0.875,0.312l0.75-0.625l1.688-0.062l0.689,0.25
		l1.188,0.438l1-0.438l0.75-0.438h1.375l0.625,0.188l0.75-0.438h0.875l0.5,0.5l0.938,0.25l1.188,0.438l1.75,1.188l1.312,1.312
		l0.75,0.625l0.438,0.375l1.062-0.25L920,143.25l0.562-0.312l0.562-0.312h1.375l1,0.312c0,0,1.311,0.812,1.5,0.938
		c0.188,0.126,1.311,0.688,1.311,0.688l0.939,0.562l1.375,0.25h1.938l2.559,0.562"/>
</g>
<g id="moraines">
	<g id="moraine-05">
		<path fill="none" stroke="#FF0000" stroke-width="0.25" stroke-miterlimit="10" d="M678.477,202.451l0.188-0.034l5.166-0.5
			l2.416-0.334l2.5-0.416l1.918-0.5l2.25-0.167l2.166,0.167l4.416-0.5l4.668-0.417l4.832-0.417c0,0,2.142-0.247,2.168-0.25
			c1.213-0.14,2.318-0.748,3.471-1.104c2.012-0.622,4.11-0.802,6.195-0.979l4.25-0.25l8.129-0.376l4.916-0.416l3.709-0.084
			l3.332-0.125l2.793-0.041c1.712-0.168,3.379-0.085,5.103-0.253c1.144-0.111,2.379-0.081,3.566-0.081
			c3.524,0,7.116-0.267,10.599,0.034c2.05,0.177,4.099,0.354,6.146,0.531l4.562,0.187l6.938,0.25l5.312,0.313l3.875,0.25
			l3.375,0.062l7.25,0.125l5.375,0.125h9.875h5.125l2.125,0.062l7.938,0.25l6.75-0.062l4.438-0.188h3.75l8.312-0.25h6.438"/>
		<polyline fill="none" stroke="#FF0000" stroke-width="0.25" stroke-miterlimit="10" points="872.084,249.083 865.334,246.25 
			860.668,244.333 854.5,242.167 847.918,239.917 843.084,238.5 837.584,236.667 832,235.083 827.062,233.707 820.229,231.624 
			816.833,230.75 810.667,229.917 806.001,229.333 798.833,228.917 794.917,228.417 788.583,227.083 783.417,226.167 
			776.083,224.583 771.417,223.583 765.916,222.833 757.75,221.583 748.582,220.167 742.166,219 736.832,218.167 732.166,217.083 
			725.582,216.083 721.666,215 717,214.417 710.832,213.167 702.832,212.167 694.832,211.167 689.082,210.583 684.582,210 
			678.666,209.083 		"/>
	</g>
	<g id="moraine-04">
		<polyline fill="none" stroke="#FF0000" stroke-width="0.25" stroke-miterlimit="10" points="722.333,291 708.001,290.667 
			694.833,290 683.833,289.167 676.833,288.5 661.875,286.375 651.25,285.75 642.125,284.375 633.5,282.5 621.5,280.375 
			612.5,278.75 601.375,276.875 592.375,275.125 585.125,274 570.625,271.75 559.125,269.125 549,267.375 535,265 524.625,263.125 
			514.5,260.875 503.75,259 495.25,257.125 489.875,255.75 479,253.5 469.875,252 460.875,249.75 455.125,248.625 449.375,247.25 
			436.5,244.625 425.875,241.875 421.625,240.5 414.625,238.625 409.25,237.125 403.875,235.875 398,234.375 393.25,234.125 
			390.5,233.625 385.375,232.5 378.125,230.875 373.5,229.375 369.125,228.5 365.25,227.25 357.5,225 350.562,222.688 
			344.688,221.188 340.562,220.125 335.312,218.75 330.25,217.625 326.312,216.688 321.125,215.75 318.562,215.375 308.25,213.812 
			301.5,212.75 294.938,211.875 287.75,211.125 281.5,210 276.75,209.5 273.125,209 267.375,208.25 		"/>
		<polyline fill="none" stroke="#FF0000" stroke-width="0.25" stroke-miterlimit="10" points="217.562,203.812 210.625,202.5 
			202.438,200.75 197.25,199.438 191.688,198.562 186.562,197.625 182.5,197.125 178.562,196.5 173.375,195.875 168.812,195.188 
			162.875,194.375 160.562,194.125 151.938,193.25 147.312,193.125 144.812,193.125 140.688,193.125 		"/>
		<polyline fill="none" stroke="#FF0000" stroke-width="0.25" stroke-miterlimit="10" points="119.25,192.625 114.812,192.375 
			111.875,192.188 109.75,191.625 107.75,191.438 104.938,191.375 103.688,191.062 100.625,190.625 97,190 93,189.312 90.562,189 
			88.375,188.625 87,188.438 85.75,188.188 84.25,187.75 81.75,187.312 79.312,187.188 76.75,186.938 73.125,186.438 
			68.562,186.062 65.562,185.875 62.688,185.688 		"/>
		<polyline fill="none" stroke="#FF0000" stroke-width="0.25" stroke-miterlimit="10" points="52.375,185.312 45.625,185.375 
			41.438,185 37.75,184.812 33.688,184.562 28.438,183.938 22.875,183.438 17.812,183 13.125,182.875 7.562,182.312 2.812,182.062 
			0,181.75 		"/>
	</g>
</g>
<g id="gcp">
	<circle id="T20120813-01" fill="#FF0000" cx="895.501" cy="166.917" r="0.25"/>
	<circle id="T20120813-02" fill="#FF0000" cx="847.593" cy="157.875" r="0.25"/>
	<circle id="T20120813-03" fill="#FF0000" cx="454.583" cy="171.917" r="0.25"/>
	<circle id="T20120813-04" fill="#FF0000" cx="415.417" cy="157" r="0.25"/>
	<circle id="T20120813-05" fill="#FF0000" cx="347.188" cy="177.438" r="0.25"/>
	<circle id="T20120813-06" fill="#FF0000" cx="353" cy="161.375" r="0.25"/>
	<circle id="T20120813-07" fill="#FF0000" cx="287.188" cy="161.438" r="0.25"/>
	<circle id="T20120813-08" fill="#FF0000" cx="202.125" cy="153.312" r="0.25"/>
	<circle id="T20120813-09" fill="#FF0000" cx="164.667" cy="163.75" r="0.25"/>
	<circle id="T20120813-10" fill="#FF0000" cx="121.167" cy="157.5" r="0.25"/>
</g>
<g id="moraines-unused">
	<g id="moraine-02">
		<polyline fill="none" stroke="#FF0000" stroke-width="0.25" stroke-miterlimit="10" points="686,622 672.75,615.5 658.5,610.5 
			648.75,607.5 633,603.5 623.25,600 618.5,597.5 610.75,592 606,589.25 600.75,588.5 594.5,588.25 591,588.25 586.25,589 
			579.25,589.25 571,586.75 554.75,583.5 547.25,581.25 535.75,576.5 527,572.75 517.75,570 510,567.75 500.5,564.5 485.75,559.25 
			473.5,555.5 461.5,552 450.25,549.25 445.25,548 440.75,545.75 432,544.25 420.75,542.75 411.75,542.75 403.75,542.5 
			397.25,540.5 386,537 375.25,533.5 368.25,530.75 362,527.75 360.75,525.5 358.75,523.75 356.75,522 353.5,520.5 349,519.25 
			345,518.5 338.5,516.5 335.25,516.75 332.5,517.5 328.25,518 326,517.25 316.75,516.5 309,514 303.25,512 284,502 280.25,501.25 
			277,500 275.75,499.25 275.25,497.5 274.25,496.25 272.75,495.25 269.75,494.75 264.25,493.25 254.5,491.75 248.25,490.25 
			244.75,490.25 242.25,489.75 241.5,488.5 239,487 233.75,484.5 229.25,482.75 225.75,482.75 223.5,483 223.125,481.125 
			221,479.25 219.75,478.5 218.625,477.875 217.25,477.375 216.5,476.125 215,475.5 211.875,475.125 209.375,475.125 
			207.375,475.375 205.125,475.875 203.25,475.75 201.75,475.25 199.75,474.625 197.875,473.75 196.125,472.75 195.5,472.125 
			195,471.375 195,470.625 195,470 194.75,469.5 192.5,468.875 189.875,468.375 187.25,468.125 184.5,467.375 183.875,466.625 
			183.125,465.375 183.125,464.5 182.375,463.375 181.875,462 181.875,461.375 180.625,459.875 179.625,459.125 176.125,457.625 
			170.5,455.875 165.579,454.616 		"/>
	</g>
	<g id="moraine-03">
		<path fill="none" stroke="#FF0000" stroke-width="0.25" stroke-miterlimit="10" d="M39.06,385.373l-1.333-0.666l-3.167-0.334
			l-5.833-0.833l-2.5-1.167l-0.167-1.666l1.167-0.5l2.167-0.167l2.333,0.333l4.333,1.5l1.667,0.5l1.167-0.166l2-0.5l2.167-0.5
			l2,0.166l4.066,0.354c0.789,0.354,1.374,0.605,1.374,0.605l5.333,1.167h1.833l1.667,1.333L60.167,387l3,1.5l4.167,1.5l6.167,3
			l5.167,3l2.833,4l2.833,3.5l1.833,1.666l3.5,1.167l5.167,0.5l5,0.5l3.833,0.333L108,409l4.167,1.5l8.667,4l9.833,5.666l3.167,1.5
			l0.333,1.167L131.5,423.5l-3.833-0.5l-3.833-1.334l-2.667-1.333L118.5,420l-0.833,0.333L117,422v1.333l-3.333,0.333L110.5,423
			l-3.167-1.5L103,420l-3.333-1.167l-5.333-0.667l-4.5-0.5L87.5,417l-2.5,0.833l-0.333,0.833c0,0,0.833,0.666,1.5,1s3,1.334,3,1.334
			l4.667,1.333l2.5,0.667l1.5,1l0.667,2l0.333,1.333l1.333,1.333l5,2l5,2.167l2.667,1.333l1.667,1l1.5,1.334l2.5,2.166l2.393,1.707
			l0.667,1.334l-2-0.5l-3-1l-3.5-1.5l-5.667-2.334l-4.667-1.166l-4.333-0.5l-5.167-0.167H91.56l-1.333-0.667l-0.167-1.833l1.333-1.5
			l1-0.833l0.167-1l-1.167-0.5h-2.167H85.56l-6.5-0.667l-4.167-0.5l-6.333-2l-4.167-1.5l-1.667-0.5l-1-1.167l-1.167-0.666
			l-5.333-0.834l-3.167-0.833v-1.167l1.667-1.166l0.167-0.834H51.06l-3.333,0.167h-2l-4.5-0.667l-2.667-0.5"/>
	</g>
	<g id="moraine-01">
		<polyline fill="none" stroke="#FF0000" stroke-width="0.25" stroke-miterlimit="10" points="654.5,370.75 645.75,371.5 
			627.5,372.5 619.25,373.5 604.75,374.75 588.5,374.75 562.5,375 545,374.25 527.5,373 511,371 500.5,369.25 492,369 480.25,368 
			472.25,368 463.25,367.5 455,367.25 448.5,366.5 441.5,367 435.5,368 429,369.5 423.75,370.25 419,370 414.5,369.75 409.75,369 
			404.75,368.25 398.5,366.25 389.75,364.75 382.75,363.75 373.25,362.25 365,361.5 354,360.75 344.75,359.5 335.75,358.5 
			322.5,358.5 313.5,359.75 307.25,359.75 301.75,359.5 290,357.25 280.25,356 266.75,355 259.5,354.5 247.75,352.25 233.5,349 
			220.75,346.75 209.5,345 193.25,342.75 178.75,341.5 167,340 156.75,339 145.5,337 135.75,335.5 126.5,334.25 114.5,332.5 
			102.25,330.75 94.25,330.5 82,328.75 		"/>
	</g>
</g>
<g id="land">
	<path fill="none" stroke="#FF0000" stroke-width="0.25" stroke-miterlimit="10" d="M0.25,165.778L10.11,164l5.913-1.685
		l18.341-0.64l11.704-3.861l0.724-2.775l8.326-3.017l8.446-0.845l13.876-0.604l10.98-1.207l4.344-1.689l7.722-1.207l9.653,0.724
		l4.585,0.965l-7.481,5.43l-9.895,3.982l-14.6,5.792l-6.757,2.775l-0.724,2.775c0,0,2.293,3.017,2.775,3.258
		c0.482,0.241,6.636,1.207,6.636,1.207l14.721-0.603l16.772-0.965c0,0,7.601,2.413,8.084,2.654c0.483,0.241,3.982,1.69,5.068,2.293
		c1.086,0.603,8.325,1.689,8.325,1.689l10.015,0.121l8.205-1.086l7.722-0.121c0,0,6.274,0.724,6.757,0.845
		c0.483,0.121,6.757,1.448,6.757,1.448l7.963-0.844l6.637-3.741l2.534-1.689l-0.482-2.172l-3.137-2.051l-3.137-1.689l-1.569-2.534
		l2.051-1.81c0,0,5.55-0.603,6.274-0.724c0.724-0.121,18.582,1.327,18.582,1.327l9.895-0.121l12.789,0.241
		c0,0,9.411,0.241,9.773,0.362c0.362,0.121,5.31-0.121,5.31-0.121l8.084-0.121l11.583-1.086l17.858-0.241h9.291l7.481-0.724
		l8.929,0.724l2.775,0.482l-5.068,1.931l-13.514,2.292l-0.965,1.086l2.414,1.689l12.066-0.241h11.342l12.066-1.569l12.549-3.017
		l6.757,0.483l1.086,2.051l-6.516,3.861l-10.015,3.74l-6.395,1.207l-8.084,1.689l-5.55,4.464l2.655,3.258l8.326,0.604
		c0,0,10.86-1.327,11.583-1.327c0.723,0,19.306-1.207,19.306-1.207l13.032-1.086h12.79l4.947,1.448c0,0,4.947,4.103,5.309,4.223
		c0.362,0.12,3.741,2.051,3.741,2.051s6.999,0.604,7.359,0.604c0.361,0,13.515,0,13.515,0h5.671l6.154,1.207
		c0,0,4.946,1.086,5.43,1.086s4.827,0.603,4.827,0.603l6.999-0.241l5.792-0.965l7.119,1.689l9.41,0.362l7.24-1.568l1.568-2.172
		l-4.585-1.689h-12.309l-3.62-1.207l-1.567-1.931l-1.931-3.982l-0.241-1.931c0,0,1.567-1.448,2.292-1.448
		c0.724,0,11.101-1.207,11.101-1.207l11.342-1.328l19.789-0.844l14.117,0.241l7.964,1.086h8.93l13.271,1.207l14.359-0.121
		l45.128,1.931h58.159l33.544-0.241l31.613,0.844l25.942,1.569l15.203,0.965l25.098,1.448l25.942,0.362l20.995,0.844l11.826,1.81
		l6.273,1.448l3.018,2.172l7.238,1.81l23.409,0.362l19.547-1.689l10.98-0.121l8.754,0.965V142.49l-5.134-1.086l-6.396-0.965
		l-6.033-1.689l-4.224-1.207c0,0-4.464-0.121-5.067-0.121c-0.603,0-5.552-0.121-6.153-0.121c-0.603,0-10.016-0.724-10.016-0.724
		l-3.499-2.534l-3.499-1.568l-5.551-0.121l-9.412,0.603l-2.896,0.724l-5.431-0.482l-5.671-1.328l-6.878,1.81
		c0,0-6.034,2.414-6.396,2.534c-0.362,0.12-6.637,2.292-6.637,2.292l-3.379-0.242l-3.379-0.965l-10.618-5.068
		c0,0-6.273-0.965-6.998-0.965c-0.724,0-7.965,0.362-8.325,0.482c-0.361,0.12-11.824,1.931-11.824,1.931l-6.999,0.241l-8.084-0.603
		l-9.412,2.051l-7.964-1.81l-10.015-0.724l-6.396-1.207l-3.981,0.362l-6.878,1.931c0,0-3.98,0.482-5.912,0.965
		c-1.931,0.483-10.497,1.448-10.497,1.448l-5.067,0.482l-6.758-0.121l-5.31,1.448l-6.153,2.655c0,0-4.104,1.81-5.792,1.81
		c-1.688,0-10.618,2.534-10.618,2.534l-9.411,1.327l-14.359,3.258l-7.602,2.292l-6.757,1.448l-14.479,0.483l-10.979,1.568
		l-5.792-2.292l-4.706-2.655l-9.773-0.362l-9.772,1.086l-6.998,0.482l-3.982-0.603l-7.722-4.464l-5.311-1.448l-5.188-4.344
		l-5.188-1.81l-9.292-5.068c0,0-3.981-1.447-4.465-1.93c-0.482-0.483-6.273-2.414-6.273-2.414l-6.274-1.207l-13.394-0.241h-11.464
		c0,0-8.323-2.051-8.808-2.292c-0.484-0.241-10.016-3.861-10.016-3.861s-5.068-1.931-6.033-2.051s-7.722-1.931-7.722-1.931
		l-8.567-1.931l-8.688-2.413l-6.395-0.121l-7.36-3.378l-3.981-1.569l-8.326,1.448l-5.43,2.051l-3.741,1.931l-9.049,0.965
		l-6.636-0.603l-5.309-0.362l-4.585,0.483l-4.103-0.242l-3.499-1.81l-3.5-3.017l-6.395,0.724l-7.119,2.896l-4.947,4.103
		c0,0-3.378,0.965-4.344,1.086c-0.966,0.121-10.739-0.362-10.739-0.362l-6.516,0.241l-9.895-0.965l-4.947,0.121l-10.618-0.121
		l-7.119,1.569l-5.55-0.604l-3.258-1.81l-3.861-0.965l-5.068,1.689l-5.671,3.258l-6.153,0.362h-7.723l-4.103-0.724l-4.223-2.292
		c0,0-2.413-0.724-3.258-0.845c-0.845-0.121-5.913,1.448-5.913,1.448l-3.258-0.362l-4.344-1.689c0,0-4.947-0.965-5.309-1.086
		c-0.362-0.121-8.326-0.482-8.326-0.482l-3.137-0.362l-5.792,0.604l-3.982,1.086l-4.584,2.172l-4.103,3.861l-4.585,1.207
		c0,0-3.861-1.086-4.464-1.327c-0.603-0.241-5.068-0.965-5.068-0.965h-5.792l-8.447,2.292l-5.792-2.051l-5.068-0.724l-7.964,2.534
		l-4.344,1.448l-8.084,1.931l-5.792-2.534l-2.292-2.775l-5.31-1.569l-9.653-3.258l-4.706-0.362l-6.998-1.689
		c0,0-4.224-0.603-4.585-0.482c-0.361,0.121-6.516,0.603-6.516,0.603l-6.395,2.775l-11.342,3.017l-6.757,2.172h-7.722l-5.309,0.121
		l-5.913-0.603l-6.878-0.362l-10.739-1.327l-7.843-0.482l-10.98-0.604l-9.411-0.845l-5.068-1.568l-2.871-1.086L0.25,165.778z"/>
</g>
</svg>
