<?xml version="1.0" encoding="utf-8"?>
<!-- Generator: Adobe Illustrator 16.0.4, SVG Export Plug-In . SVG Version: 6.00 Build 0)  -->
<!DOCTYPE svg PUBLIC "-//W3C//DTD SVG 1.1//EN" "http://www.w3.org/Graphics/SVG/1.1/DTD/svg11.dtd">
<svg version="1.1" id="svg" xmlns="http://www.w3.org/2000/svg" xmlns:xlink="http://www.w3.org/1999/xlink" x="0px" y="0px"
	 width="929.281px" height="622.08px" viewBox="0 0 929.281 622.08" enable-background="new 0 0 929.281 622.08"
	 xml:space="preserve">
<image overflow="visible" enable-background="new    " width="3872" height="2592" id="image" xlink:href="AKST03A_20100602_224800.JPG"  transform="matrix(0.24 0 0 0.24 0 0)">
</image>
<g id="terminus">
	<polyline fill="none" stroke="#FF0000" stroke-width="0.25" stroke-miterlimit="10" points="-0.167,312 10.167,311 22.167,309.667 
		32.167,309 39,307.833 	"/>
	<polyline fill="none" stroke="#FF0000" stroke-width="0.25" stroke-miterlimit="10" points="68.667,307.167 71.167,306.833 
		72.667,305.833 76.667,305.667 81.667,305 86.833,304.667 93,303.833 101.25,303.375 113.5,302.5 122,301.625 126.892,301.292 
		150.225,299.542 161.975,298.875 176.142,298.292 188.058,297.542 195.892,296.792 203.225,296.125 207.892,295.625 	"/>
	<polyline fill="none" stroke="#FF0000" stroke-width="0.25" stroke-miterlimit="10" points="436.556,280.375 447.14,279.625 
		451.973,279.292 458.556,278.875 464.973,278.542 468.722,278.292 473.224,278.042 476.557,277.958 480.39,277.875 492.75,277.875 
		503.75,277.75 512.875,277.625 524.515,277.165 535.89,276.665 546.39,276.29 558.89,275.665 572.015,275.165 588.64,274.665 
		602.765,274.29 625.64,273.79 663.765,273.165 	"/>
</g>
<g id="horizon">
	<path fill="none" stroke="#FF0000" stroke-width="0.25" stroke-miterlimit="10" d="M-0.083,22.167l5.25,1.583L8.75,25l4.75,1.333
		l4.417,0.75l3.417,0.25h1.917l1.833,0.5h0.583h1L28.584,28l2,0.25l2,0.583l1.833,0.833l0.917,0.167h0.833L39,29.417l1.25,0.25
		l0.75,0.5l1.5-0.25l0.583-0.583l1.417-0.333l1.5,0.333h2h1.083l0.5-0.25l1.167-0.083h0.5l1,0.833h0.5l1.583-0.333l0.917-0.583h1
		l1.417-0.167l1-0.333l0.583-0.75L61,26.501l2.917-0.333l1,0.083l1.167,0.417c0,0,0.583,0.083,0.75,0.333s2,0.167,2,0.167L70,26.501
		l1.833-1.083l1.75-0.583h0.75l1.75-0.25l0.667-0.5l0.667-0.25h1.25h1.25l0.75,0.167l1.333,1l0.5,0.167l1.333,0.833l1,0.583
		l1.333,0.417l1.333,0.333l1.333,0.5l0.916,0.979l1.062,0.875l1.062,0.938l2.062,1.75l1.625,2.25l1.188,1.562l2,2.188l2.812,1.875
		l1.312,1.125l1,0.938l1.375,1l0.875,0.625l1.375,0.688l3.438,1.438l3,1.375l1.5,0.75l1.438,0.5l1.188,0.062l1.438,0.438
		l0.875,0.188l1.062,0.25l1.062,0.25c0,0,0.312,0.062,0.688,0.375s0.375,0.25,0.625,0.5s1.25,0.562,1.25,0.562l0.688,0.188
		l0.875,0.25l1.188,0.625c0,0,0.75,0.438,0.875,0.625s1.375,1.375,1.375,1.375l1,0.25l1.875,0.438c0,0,0.188,0.125,0.312,0.375
		s0.438,0.375,0.688,0.625s0.812,0.5,0.812,0.5l1.25,0.75l1.562,0.75l1,0.25c0,0,0.5,0.125,0.688,0.312s1.062,0.312,1.5,0.562
		s1.188,0.625,1.188,0.625l1.562,0.875l2.062,1.438l1.688,1.188l1.312-0.188l2.062-0.25l1.75,0.25l0.812-0.75l1.25-0.812
		l1.812-0.688l1.938-1l0.438-0.438l0.75-0.5l2.062-0.375l0.812-0.062l2.125-1.188l2.5-1.375L169,54.812l2-0.562
		c0,0,1.438-0.312,1.75-0.312s0.75-0.688,0.75-0.688l0.188-0.562c0,0,0.25-0.562,0.5-0.625s2.312-1.25,2.312-1.25l2.562-1.25
		l1.438-0.812l0.875-0.062h0.75l1.5-0.5l0.688-0.312L184.875,48l0.875,0.75l1.062,0.688l1.75,1.812l0.875,0.812l1,1.125l0.75,0.812
		l2.438,1.5l2.938,2.062l1.75,0.375l1.625-1.312l1.188-1.875l3.5-5.75l1.25-1.562l0.688-0.812l0.562-2l1.125-2.5l0.625-0.875
		l1.062-0.875l3.25-2.062l1.375-1l1-1l1.125-0.688l1.062-1.062l0.688-0.688l1.5-1.062l1.375-1.562l0.938-0.938l1.312-0.5l0.75-0.125
		c0,0,0.375,0.375,0.562,0.375s0.625,0.562,0.625,0.562l0.75,0.5L227.188,32c0,0,0.5,0.75,0.812,0.938s1.312,0.625,1.312,0.625h1.5
		l2.875,0.062l2.625,0.438l1.688,0.25h0.5l1.188-0.25L241,34.125l1.562,0.312l1.062,0.312l2.062,0.375l1.25,0.312l1.125,0.75
		l1.062,0.375l1,0.375l3.062,0.188l0.94-0.124l1.75,0.438l0.375,0.125l1.188-0.5l1.688-0.688l0.812-0.125h1.562l0.812-0.25
		l0.812-0.188l1.062-0.062l1.625-0.312l1-0.438l1.438-0.875l0.75-0.312l1.438-0.688l0.812-0.188l0.875,0.25l1.625,0.875l0.812,0.438
		l2,1.062l1,0.688h0.75c0,0,0.438-0.125,0.625-0.125s1.25,0,1.25,0L281,36.25l0.75,0.562l1.125,0.812l0.812,0.875l0.688,0.812
		l1.062,0.75c0,0,0.375,0.312,0.5,0.5s0.188,0.375,0.375,0.562s0.562,0.5,0.812,0.75S288,42.188,288,42.188s0.562-0.188,0.75-0.125
		s1.188-0.25,1.188-0.25H291c0,0,0.438-0.188,0.688-0.25s0.875-0.125,0.875-0.125s0.375,0.062,0.75,0s1.5-0.188,1.5-0.188l0.938-1
		l0.688-0.625l0.938-0.312l1.25-0.062c0,0,0.562,0.438,0.75,0.562s0.75,0.562,0.75,0.562l0.875,0.25h0.625l0.938-0.375l0.812-0.25
		h0.938c0,0,0.375,0.375,0.625,0.625s1.375,1.25,1.375,1.25l0.812,0.875c0,0,0.875,0.625,1.125,1s1.75,2.125,1.75,2.125l1.812,2.312
		l0.688,1.062l0.938,0.688l1,0.25l1.56,0.625l2,1.625l1.938,1.188l1.312,0.875c0,0,0.688,0.375,1,0.625s0.938,0.812,0.938,0.812
		l1.375,0.875l3.125,1.438l1.75,0.812l1.062,0.5l1.25,1.312l1.188,1.75l1.25,1.625l1.062,1.125L335.875,66l1.438,1.125l0.812,0.812
		l2.625,1.562l0.375,0.312l3.125,1.688l1.438,0.688l0.688,0.25l2.312,0.312l0.938,0.5l0.938,0.375l0.5,0.125l1.062,0.438l1.312,0.5
		l1.188,0.5l1.812,0.75c0,0,1.062,0.438,1.312,0.562s2.438,1.125,2.438,1.125l2.188,0.75L364,78.812l1.375,0.062l1.312,0.188h1.875
		h1.312l1.625-0.438l0.938-0.375c0,0,0.5-0.312,0.875-0.688s3.25-2.5,3.25-2.5l2.438-1.25l2.312-0.125l3.562-0.312l5.688-0.625
		l3.812-0.188L397,72.25l1.625,0.062h1.625l1.062,0.062l1.25,0.438l2.438,0.75l3.312,0.875l3.312,0.938l2.188,0.188l1.812,0.25
		c0,0,0.75,0.25,0.938,0.375c0.188,0.125,0.812,0.438,0.812,0.438l1.75,0.75l1.562,0.688l1.188,0.625l1.062,0.438L424.375,80
		l1.125,0.75l0.938,0.25l0.5,0.125l1,0.75l0.5,0.312c0,0,0.188,0.062,0.375,0c0.188-0.062,0.375-0.375,0.375-0.375l0.188-0.438
		l2-1.062l1.062-0.562l1.125-0.938l1-0.875l1-0.688l1.312-1.5l0.688-0.75l0.625-0.625c0,0,0.562-0.062,0.75,0.062
		c0.188,0.124,0.688,0.375,0.688,0.375l0.688,0.25h1.125c0,0,0.812,0.375,1.062,0.562s1.25,0.875,1.25,0.875l0.938,0.562l2,0.625
		l0.688,0.25l1.125,0.875l0.938,0.875l0.5,0.812l0.562,0.562l0.625,0.25H452l1.5-0.188l1.375,0.375l0.312,0.438l1.062,0.188
		c0,0,0.25-0.375,0.625-0.375s1.062-0.062,1.062-0.062h1.125l1.812,0.938c0,0,0.438,0.375,0.875,0.625s1.688,1.125,1.688,1.125
		L464.312,85l0.5,0.312c0,0,0.625,0.062,1.062-0.125c0.436-0.187,1.061-0.5,1.061-0.5L468,84.125l2.438-0.938l1.062-0.562
		l1.25-0.188l0.875-0.125l1.875-0.062l1.625-0.375l1-0.375l0.688-0.562l0.812-0.188L482,80l0.625-0.5l0.812-0.438l0.625-0.375
		l0.75-0.438h1.312l1.061,0.312L488.062,79h1.375l0.5-0.438l0.625-0.5l1.125-0.125L492.25,78l1.375-0.562l0.875-0.875l0.562-0.312
		l1.375-1.5l1,0.062h0.688l0.625-0.25l2.062-0.625l1.75-0.438l1.188-0.375l1.562-0.75l1.375-0.312l1.188-0.125H509l0.938,0.375
		l0.812,0.562c0,0,0.188,0.312,0.5,0.625s0.562,0.688,0.562,0.688l0.875,0.438l0.375,0.062l0.938,0.5l0.938,0.5l1,0.438l1.125,0.188
		h0.689l0.5-0.188l1.061,0.5l0.625,0.188h0.875c0,0,0.25-0.062,0.625-0.062s1-0.312,1-0.312l0.562-0.5l0.938-0.25l1.689-0.562
		L527.062,75l1.062-0.312l1.311,0.062l0.689,0.125L531.5,75.5l0.5,0.125h0.812l0.562-0.188l0.875-0.125h1l1.061,0.438l0.69,0.312
		l1.25-0.125l1.25-0.438l0.688-0.125l1-0.062h0.625l0.562-0.188l0.5-0.375l1.438-0.125l0.75-0.25l1.125-0.312l0.75-0.188l1.25,0.312
		l1.75,0.438L551,74.812l2.125,0.688l0.938,0.25l2,0.562l0.812,0.188l1.625,0.562l0.812,0.25l2.125-1.688l0.938-1.312l0.438-0.688
		c0,0,0.689-0.375,0.875-0.375c0.188,0,0.562-0.312,0.562-0.312l0.688-1.312l0.25-0.375l0.562-0.5l0.125-0.625l0.188-0.625
		l0.375-0.625l0.5-0.312l1.312-0.688l0.688-0.625l0.439-0.875l1.311-1.438l0.375-0.812L571.188,63l0.188-0.75
		c0,0,0.375-0.375,0.562-0.375c0.188,0,0.688-0.188,0.875-0.188c0.188,0,0.625-0.188,0.625-0.188l0.688-0.438
		c0,0,0.562-0.062,0.875,0c0.312,0.062-0.062-0.062,0.312,0.062c0.375,0.124,1.688,0.815,1.688,0.815l0.375-0.062l1.375,0.312
		l0.875,0.5l1.062,0.75l0.875,0.438l1.688,0.562l2.625,1.062l1.375,0.625l1.5,0.312l1.938,0.375l1.25,0.125
		c0.25,0.188,0.75,0.438,0.939,0.625c0.188,0.187,0.561,0.5,0.875,0.875c0.312,0.375,0.875,1.062,0.875,1.062l0.625,0.375h1.438
		h0.562L597.688,70l0.938,0.125h0.812h1.062c0,0,0.375,0.188,0.875,0s1.188-0.25,1.188-0.25h0.5l0.688-0.438
		c0,0,0.25-0.75,0.625-0.875s0.562-0.375,0.875-0.5S607,67.5,607,67.5l1.812-0.062l0.938-0.5l0.75-0.188
		c0,0,0.625-0.125,0.938,0.125c0.314,0.25,0.875,0.688,0.875,0.688l0.812,0.25h1.062l0.938-0.125L616.062,67
		c0,0,0.312-0.25,0.875-0.5c0.562-0.25,1.375-0.438,1.375-0.438h1.25l2.375,0.188L623,66.312l0.375-0.125l0.25-1.062l0.5-0.25
		c0,0,0.625,0.062,0.875,0.25s0.938,0.375,0.938,0.375l1.312,0.188l1.25,0.062l1.625-0.125c0,0,1.125,0.062,1.438,0.375
		c0.314,0.313,1.812,1.125,1.812,1.125l2.312,2.125l2.062,1.125l1.438,0.812L641,72.312l2,1.188l1.062,0.5l3.438,1.938L650.062,77
		l1.125,0.75l1,0.812l1.125,0.688c0,0,1.25,0.938,1.438,1.062s3.125,1.812,3.125,1.812l2.5,1.75l0.75,0.438l0.812,0.062l1.562-0.312
		h1.25l1.311,0.438l1.689,0.625c0,0,0.625,0.188,0.875,0.312s1.5,0.562,1.5,0.562l1.438,0.312h1.188l1.875,0.312l2.25-0.312
		l2.688-1.25l2.25-0.625L683.375,84l0.562-0.375L685.562,83l1.5-0.062h1.812L690.188,83l1.062-0.062l0.562-0.812l1.312-0.312
		l1.688-0.125l0.375-0.062l0.875,0.438l1.25,0.125l2.5-0.188l2.688-0.438c0,0,1.438,0,1.625,0.062s1.188,0.188,1.188,0.188
		l0.812-0.375l1.25-0.688L708,80.438l1.125,0.125l1.125,0.625l1.438,0.188l1.75,0.375l1,0.125h1.125h1.375L719.312,82l1.75-0.938
		L725,78.125l1.812-0.812h1.438l1,0.562c0,0,0.625,0.438,0.812,0.688c0.187,0.25,1.688,1.875,1.688,1.875l2,1.812l1.5,1.25
		l2.375,0.625l1,0.312l2.75-3.312l5.125-6.062l4.312-4.625l2.812-2.25l1.688-1.688l0.625-1l1.938-1.062l3-1.625l1.75-0.875
		l0.75-0.375l1.188,0.062L765.688,62l1,0.188l1.875,1.125l1.25,1.25l0.75,0.812c0,0,1.375,1.375,1.5,1.562s0.812,1.062,1.062,1.312
		s1.375,1.625,1.375,1.625l2,1.875l0.375,0.562h1.562l1.438,0.062h1.625l1.188,0.062l1.25-0.062l0.438,0.188
		c0,0,0.125,0.312,0.25,0.5s0.438,0.438,0.562,0.812c0.125,0.374,1.062,1.438,1.062,1.438l0.812,1.625l1.375,1.938l0.812,1.812
		l0.438,0.75l0.625-0.125l0.75-0.062l2.188,0.062l1.25,0.312l0.812,0.562l1.062,1.688c0,0,1.061,2.125,1.25,2.125
		c0.188,0,1,0.375,1,0.375l0.311-0.25l0.439-0.688l0.938-1l0.875-0.5l2.062-0.562l1.875-0.312l1.188-0.812
		c0,0,0.875-0.125,1.062-0.125c0.186,0,1.25-0.25,1.25-0.25l2.25-0.438h1.625l1.625,0.062h0.561l1.189-0.312l0.875-0.375l0.75-0.438
		l0.561-0.625l0.812-0.625h0.812c0,0,0.438,0.188,0.625,0.375c0.188,0.187,0.812,0.375,0.812,0.375h0.688l1.562-0.375
		c0,0,1.125-0.562,1.625-0.562s0.811-0.125,0.811-0.125l1.75,0.062l2.439,0.5l0.561,0.562l1.125,0.375c0,0,1.189-0.062,1.5,0.062
		c0.312,0.124,1.312,0.312,1.312,0.312l1.375,0.688l0.25,0.625l0.312,0.438l1.312,0.375l1,0.438l0.875,0.938
		c0,0,0.25,0.438,0.438,0.625c0.188,0.187,0.562,0.375,0.562,0.375l1.311,0.188c0,0,0.689-0.438,1.125-0.438
		c0.438,0,0.875-0.188,1.125-0.188s0.939,0.188,0.939,0.188l1.938,0.75l2.875,0.25l1.938,0.438l1.5,0.5l4.312,2.5l1.32,1.064
		l0.938,0.438l2.125-0.062l2.189,0.5c0,0,0.811,0.562,0.938,0.75c0.125,0.188,0.5,0.375,0.625,0.562s0.25,0.438,0.25,0.438h2.312
		L869.812,93c0,0,0.375,0.125,0.562,0.188c0.186,0.063,1.625,0.437,1.625,0.437l2,0.438l0.875,0.062l1.625,0.5l1.375,0.25
		l1.75-0.125l2.938-0.5h2.125l2.062,0.562l1.125,0.25h1.625L890.125,95l1.5,0.25l1.25,0.562l2.375,0.688l0.688,0.188l1.189,0.625
		l1.438,0.75l4.5,2.188l2.312,1.438c0,0,0.561,0.375,0.811,0.562s2.625,1.75,2.625,1.75l2.5,1.188l1.375,0.75l3.875,0.938
		l5.125,0.625l3.439,0.688l1.75,0.625l2.404,0.438"/>
</g>
<g id="gcp">
	<circle id="alcove" fill="#FF0000" cx="21" cy="180.625" r="0.25"/>
	<circle id="butt" fill="#FF0000" cx="198.167" cy="191.583" r="0.25"/>
	<circle id="portaledge" fill="#FF0000" cx="320.916" cy="167.001" r="0.25"/>
	<circle id="jawlip2" fill="#FF0000" cx="380.5" cy="171.938" r="0.25"/>
	<circle id="ledgedot" fill="#FF0000" cx="445.688" cy="141.25" r="0.25"/>
	<circle id="kissers" fill="#FF0000" cx="676.75" cy="173.875" r="0.25"/>
	<circle id="rustcut" fill="#FF0000" cx="807.688" cy="158.312" r="0.25"/>
	<circle id="brokens" fill="#FF0000" cx="797.562" cy="157.688" r="0.25"/>
</g>
<g id="land">
	<polygon fill="none" stroke="#FF0000" stroke-width="0.25" stroke-miterlimit="10" points="0,622.08 0,481.04 32.641,489.04 
		49.141,497.04 61.641,492.54 81.641,481.04 128.141,478.54 154.641,478.54 188.141,470.04 201.141,470.04 226.641,470.04 
		243.641,479.04 264.641,473.54 293.641,466.54 344.141,466.54 391.641,470.04 432.641,486.04 455.641,504.04 464.641,512.54 
		483.141,514.04 537.641,522.04 577.141,538.04 613.641,554.54 633.641,573.54 656.641,582.04 699.641,584.54 737.141,583.04 
		788.641,567.04 817.141,561.04 842.641,560.04 876.141,562.04 904.641,553.04 929.281,549.04 929.28,622.08 	"/>
	<polygon fill="none" stroke="#FF0000" stroke-width="0.25" stroke-miterlimit="10" points="0,230.04 81.641,221.04 179.141,213.04 
		242.141,213.04 289.141,213.04 350.641,208.04 386.141,205.54 436.556,205.54 512.141,205.54 524.141,197.54 490.641,159.54 
		514.141,156.54 550.16,153.04 616.641,141 641.141,133.04 658.141,126.54 670.641,121.54 690.141,114.54 695.641,117.04 
		679.141,131.04 651.641,144.04 627.141,157.438 622.641,166.751 627.641,181.54 634.641,199.04 642.141,201.04 683.141,201.54 
		715.141,191.833 735.141,191.833 777.141,194.54 802.141,191.833 824.141,184.54 845.641,184.54 864.141,184.54 878.641,182.54 
		896.141,178.54 916.641,177.54 929.28,178.54 929.281,100.54 917.141,96.04 904.641,92.54 889.141,89.54 873.641,87.04 
		852.641,81.04 835.641,75.54 820.641,74.54 803.141,78.54 796.641,77.54 787.641,70.54 774.641,63.04 762.141,56.54 753.641,59.04 
		743.641,66.54 737.141,72.54 730.641,73.04 718.141,76.04 684.641,78.04 663.141,78.54 650.641,68.54 629.141,61.04 615.641,62.04 
		597.641,65.54 587.141,60.54 577.141,56.54 566.641,57.54 560.641,62.54 552.641,68.04 533.141,70.04 520.141,69.54 513.641,67.54 
		501.641,69.04 486.641,73.04 468.641,75.04 451.641,74.54 439.641,70.04 432.641,72.04 423.141,74.54 402.641,68.04 385.641,68.54 
		377.141,69.04 366.141,71.54 354.641,69.04 345.141,64.04 333.141,54.54 323.641,47.54 311.641,41.04 305.141,36.04 292.141,32.04 
		270.641,28.04 249.641,29.54 232.641,27.54 223.141,24.04 214.141,28.54 204.641,36.54 199.141,43.04 194.141,46.54 188.141,43.54 
		181.141,44.04 167.641,50.04 153.141,53.54 138.641,50.04 124.141,44.54 107.641,39.54 100.641,29.54 93.641,22.54 82.141,19.54 
		64.641,19.54 51.641,21.04 31.141,22.04 8.141,18.04 0,14.04 	"/>
</g>
</svg>
