<?xml version="1.0" encoding="utf-8"?>
<!-- Generator: Adobe Illustrator 16.0.4, SVG Export Plug-In . SVG Version: 6.00 Build 0)  -->
<!DOCTYPE svg PUBLIC "-//W3C//DTD SVG 1.1//EN" "http://www.w3.org/Graphics/SVG/1.1/DTD/svg11.dtd">
<svg version="1.1" id="svg" xmlns="http://www.w3.org/2000/svg" xmlns:xlink="http://www.w3.org/1999/xlink" x="0px" y="0px"
	 width="929.28px" height="622.08px" viewBox="0 0 929.28 622.08" enable-background="new 0 0 929.28 622.08" xml:space="preserve">
<image overflow="visible" width="3872" height="2592" id="image" xlink:href="AKST03B_20100602_224800.JPG"  transform="matrix(0.24 0 0 0.24 0 0)">
</image>
<g id="terminus">
	<polyline fill="none" stroke="#FF0000" stroke-width="0.25" stroke-miterlimit="10" points="0.5,339 13,339 29.333,338.834 
		40.167,338.834 54.833,338.834 64.833,338.667 89.833,338.667 103.333,338.834 127.833,339.167 144.167,338.667 151,338.667 
		168.5,339 	"/>
	<polyline fill="none" stroke="#FF0000" stroke-width="0.25" stroke-miterlimit="10" points="242,340.667 266.333,341 
		292.833,342.167 297.167,342.167 305.5,341 	"/>
</g>
<g id="horizon">
	<path fill="none" stroke="#FF0000" stroke-width="0.25" stroke-miterlimit="10" d="M0,56.833L1.667,57.5l2.167,1l3-1l4.667-1.167
		l3.167-0.5L16.5,56l2.333,1.667l3.333,1.833l2.5,0.833l1.167,1.333l3.167,3l2.167,3.5l2.667,3.667L38,75.667l3.167,3.167L46.5,81
		l3.5,2.333l4.167,1.333L62,88.5l2.833,3l6.667,3l8,5.5l2.167,1.5l3.167,0.167L87,102l4.667-2.333l2.5-1.333L96.5,98h3.5
		l1.667-1.667l3-1.167l3.5-0.5l2.333-0.5l1-2l3.5-1.333L119,90l2.5-0.167l2,0.833l3.167,3.5L131.333,99l2.333,1.167l1.167,0.167
		l0.5,0.667l1.333,1l1.167-0.167l3.667-4.167l3.833-4.167l3.167-4.333L150.333,86l3-1.833L157,81.833l4.833-3.667l3.833-2.333
		L167.333,75l1.167,0.5l1.667,0.833L171,78l0.667,1l3.5,0.333l7.5,1.333l5.5,1.5l3.167,1.5l4.333,1L199.833,85l4.5-0.5l4.167-0.167
		l2.333-1L213,82.667l1.833,0.167L216.667,84l4.146,2.438l1.625-0.188h1L224.25,87l1.25,1.125l3.188,3.062l1.062,1.312l0.5,0.438
		l0.812-0.25l1-0.188l1.375,0.25l1.688-0.062h0.938l1.25-0.5l1.062-0.625l1-0.5h1.062h0.625l0.625,0.562
		c0,0,0.062-0.062,0.312,0.188s0.875,0.812,1.125,0.875s0.812,0.25,0.812,0.25h0.875l1.125-0.5h1.5l1.25,1.375L251.25,97
		l1.688,1.938l0.938,1.688c0,0,0.625,1.438,0.625,1.625s1.562,0.75,1.562,0.75l3.375,2.312l3.125,2.562l2.625,2.125l2.438,1.188
		l2.188,1.312l2.125,1.75l1.188,1.625l1.812,3.188l1.75,1.812l0.938,1.062h0.562l0.312,0.75l0.688,1.312l1.75,3l1.375,1.688
		l1.688,0.875l1.5,0.875l2.125-0.062l1.25-0.062l0.562,0.188c0,0,0.688-0.312,1.062-0.562s0.625-0.5,0.625-0.5s0.75-0.188,1-0.188
		s0.75,0.188,0.938,0.312s0.688,0.75,0.875,0.812s0.938,0.125,0.938,0.125l0.688,0.5l0.688,0.688l1.188,0.938l1.562,0.688
		l0.938,0.562l1.438,1.5l0.875,0.375l1.75,0.125l1.938-1.125l2.062-1.312l2.688-1.125l3.125-0.625l6.625,0.125l6,0.125h3.25
		l1.688-0.062l2.25,0.375l2,0.875l3.188,1.188l4.125,1.25l3.562,1.062l3,1l4,2.188l3.062,2.125l1.625,0.75l1.062,0.438l0.375,0.438
		l0.25,0.562h0.938l0.562-0.5l1.062-0.812l2.312-0.688l1.562-0.938l1.25-0.938l1.375-1.062l0.562-0.688l0.812-0.812l0.562-0.312
		l0.75,0.188l1.375,0.5l1.625,0.438l1.125,0.375l1.062,1.125l0.875,0.625l1.5,0.438l0.688,0.25l0.812,0.562l1.062,1l0.5,0.938
		l0.25,1.062l0.312,0.188H384l1.25,0.062l0.75,0.188c0,0,0.562,0.188,0.812,0.375s0.812,0.75,0.812,0.75s0,0,0.438-0.062
		s2.062-0.312,2.062-0.312s0.25-0.062,0.5,0.062s1.125,0.312,1.25,0.5s1.875,1.562,1.875,1.562l2.5,1.688l1.688,1.25h0.438
		l0.938-0.5l1.062-0.5l1.812-0.875l1.25-0.438l1.5-0.188l0.438-0.312l0.625-0.5h0.812l1.625-0.125l1.5,0.312l0.938,0.188l0.5-0.562
		l1.688-0.5l2.5-0.812l1.625-0.5l1.25-0.438l0.812-0.5c0,0,0.688-0.125,1-0.125s0.938,0.25,0.938,0.25l1.125,0.625l0.75,0.312
		c0,0,1,0.375,1.125,0.188s1.062-0.938,1.062-0.938L426,145l0.562,0.062l0.875,0.25l0.625-0.125l0.812-0.5l0.938-0.562l1-1.375
		l0.438-0.375h0.812h1.625l1.938-0.625l1.688-0.188h1.188h0.562l0.375-0.438L440,140.75h1.375l1.438-0.125l1-0.062H445l0.625,0.5
		c0,0,0.312,0.312,0.5,0.75s0.5,1.438,0.5,1.438l1.875,0.625c0,0,0.188,0.062,0.438,0.312s0.688,0.5,0.688,0.5l0.5,0.375
		l2.062,0.562l0.75-0.125h1l0.812,0.312c0,0,0.438,0.25,0.688,0.312s0.812,0.062,0.812,0.062s1.125,0.062,1.25-0.125
		s0.5-0.625,0.5-0.625l1.625-0.688l1.188-0.062h2.062l1.25,0.125l1.5,0.562l1.562,0.75c0,0,0.312,0.312,0.562,0.312
		s0.625-0.25,0.812-0.375s0.75-0.375,0.75-0.375l0.5,0.062l0.75,0.375l0.875,0.562l1.562,0.125c0,0,0.5-0.062,0.75-0.188
		s0.688-0.25,0.688-0.25l1.25,0.062l0.75,0.188l1-0.562l0.438-0.062l1.438-0.188l0.812-0.062l0.688-0.25l0.438-0.25
		c0,0,0.625,0.125,0.812,0.25s0.375,0.062,0.625,0.25s1.188,0.5,1.188,0.5s0.812,0.188,1.25,0.438s1,0.562,1.25,0.688
		s1.5,0.5,1.5,0.5l2.062,0.875l2.25,0.688l0.875,0.125c0,0,0.312,0.062,0.75,0s1-0.438,1-0.438h1.312l0.312-0.75l0.25-1.188
		l0.312-0.5c0,0,0.062-0.438,0.375-0.375s0.938-0.25,0.938-0.25l0.312-0.25l0.5-0.625l0.5-0.562l0.25-0.375l0.688-0.625l0.312-1
		c0,0-0.125-0.5,0.125-0.562s0.75-0.438,0.75-0.438l1-0.312l0.938-0.562l0.688-0.75l1.25-1.5c0,0,0.5-0.562,0.562-0.812
		s0.25-1.25,0.25-1.25l0.25-0.688l1.625-0.312l0.625,0.312l0.812-0.188l0.375-0.188l1.062,0.188l1,0.625l0.938,0.062
		c0,0,0.438-0.062,0.938,0.438s0.875,1,0.875,1l1,0.812l0.875,0.438c0,0,1.562,0.625,1.75,0.75s3.75,2,3.75,2h0.812h0.812
		c0,0,0.562,0.125,0.75,0.312s1.125,0.5,1.125,0.5c0.625,0.375,1,0.438,1,0.438s0.688,0.75,0.875,0.812s1.25,0.875,1.25,0.875
		l0.875,0.625l1.812,0.625L532.75,146l1.25,0.125l2.375,0.375l0.688-0.438l0.5-0.75l1.375-1.062l1.125-0.188l1.562-0.312
		l1.875,0.125l3.125,0.625l1.188,0.312l1.75-0.188l1.438-0.75l1-0.5l0.875-0.125l1.375,0.312l1.062,0.75l0.938,0.125
		c0,0,0.562-0.125,0.75-0.312s0.375-0.688,0.375-0.688l0.312-0.25h0.812l0.812,0.5l0.562,0.438l1.375,0.062l1.938,0.25l0.938,0.125
		l1.125,0.375l1.625,1.562l1.375,1.625l1.562,1.062l3.25,1.875l0.938,0.75l1.5,1l1,0.688l2.812,2.062l2.375,1.312l1.312,0.312
		l0.438,0.625l0.562,0.812l0.562,0.688c0,0,1.25,0.812,1.688,1.062s1.938,0.938,1.938,0.938l1.688,1.375l1.25,1l0.938,1.125
		l0.875,0.312l1.188-0.188c0,0,1.125-0.062,1.375-0.062s1.125,0.062,1.125,0.062l1.5,0.5l1.688,1l1.875,1l2.312,0.375l1.5,0.25
		h1.188l1.5-0.625c0,0,0.188-0.312,0.375-0.25s1.562-0.188,1.562-0.188l1.5-0.438l1.062-0.375l1.375-0.375h0.438l1.125-0.062
		l0.5-0.375l1.5-0.188l2.25,0.125c0,0,0.938,0.375,1.188,0.375s1.375-0.562,1.375-0.562l1.75-0.625h1.188l0.438,0.125l0.688,0.562
		c0,0,0.5,0,0.875,0.062s4.25,0.062,4.25,0.062l1.75,0.125l0.875,0.25l1.062-0.188l0.688-0.188l0.938-0.438l0.938-0.25
		c0,0,0.875-0.125,1.125,0s1.75,0.5,1.75,0.5l2.125,0.688l2.562,0.688l1.938,0.188l1.562,0.188l1.5-0.188l1.812-1.5l1.688-1.062
		l1.875-0.75l0.812-0.312h1.188c0,0,0.875,0.5,1.062,0.688s0.812,0.688,0.812,0.688s0.688,0.5,0.812,0.75s0.75,0.812,0.938,1.062
		s0.812,0.812,0.938,1s0.812,0.875,0.812,0.875l1.625,1.625l1.438,0.688l0.938,0.875l0.625,0.562l0.875-0.75l1.062-1.375
		l2.188-2.312l1.312-0.938l3-3.75l2-2.062l2.938-2.938l1.875-0.75l1.75-1.125l0.312-0.438l1-1l1.188-0.875l2.688-1.375l2-0.75
		l1.188-0.75c0,0,0.188-0.375,0.75-0.312s1.312,0.25,1.312,0.25l1.438,0.75l1.312,1c0,0,1.062,1.125,1.25,1.25s1.5,1.375,1.5,1.375
		l1.438,2.062l2.062,2.375l1.5,1.5l0.688,0.688l2.125,0.625l1.375,0.375l1.312-0.125h1.438l0.562,0.125c0,0,0.375,0.438,0.5,0.688
		s1,1.625,1,1.625l1.75,3.125l0.938,1.688l0.312,0.812l0.312,0.812l0.75,0.312l1.438-0.125h1.125l1.938,0.938l0.688,0.938l1.188,2.5
		l0.562,0.75c0.375,0,0.688-1.062,0.688-1.062l0.625-0.438l1-0.375l3.125-0.312l1.25-0.312l0.375-0.188l1.25-0.188l1.312,0.438
		l1.125-0.312l0.688-0.438l0.938-0.25l1.125,0.062l1.125,0.438l1.062,0.375l1.625-0.438h1.25l0.812-0.25l0.938-0.75l0.688-0.438
		l0.688-0.062l0.938,0.25l0.312,0.188l1.062-0.25h1.875l2.438,0.062l1,0.188l1.188,0.438l0.438,0.312l0.5,0.375l1.875,0.688l1,0.375
		l1.312,0.312c0.188,0.438,0.375,0.812,0.562,0.938s0.562,0.438,0.562,0.438l1.312,0.438l0.688,0.812c0,0,0.062,0.25,0.25,0.5
		s0.438,0.438,0.625,0.5s1,0.438,1.375,0.5s1.438,0.188,1.438,0.188s1.625-0.125,2,0s0.812,0.125,1.062,0.188
		s3.625,0.688,3.625,0.688l2.625,1.062l3.625,2l1.688,1.25c0,0,1.5,1,1.688,1.062s1,0.25,1,0.25l1.938,0.25l1.375,0.438l0.812,0.375
		c0,0,0.625,0.625,1,0.938s1,0.625,1,0.625L793,188.75l2.625,0.875l3,0.938l1.688,0.688l1.5,0.062l2.562-0.125l2.312,0.312
		l3.312,0.438l1.75,0.5l2,0.25l1.438,0.438l3.875,1.625l2.5,1.375l3.188,2.188l2.75,1.562l2.062,1.375l2.688,2.125l1.438,0.688
		c0,0,1.875,0.75,2.25,0.938s2.625,0.812,2.625,0.812l2.812,0.812l3.062,0.625l1.438,0.5l1.5,0.625l1.812,0.5l2.125,1.062
		l1.812,1.25l4.5,3.062l0.812,1.125l1.188,0.562l1.375-0.062l2.75,0.438l4.562,0.688l2,0.062l2.375-0.5l1.062-0.812l1.938-1.062
		c0,0,1-0.625,1.25-0.688s1.812-1.062,1.812-1.062l2-2.125l3.312-2.75l2.688-1.75l1.375-1.625l1.062-0.938
		c0,0,0.938-1.25,1.188-1.25s0.812-0.375,1-0.312s1.25-0.25,1.25-0.25l2.438,1.25l0.875,1.062l1,0.812l3.062,1.125l5.375,2.375
		l5.188,2.25l3.438,0.75c0,0,0.625,0.375,0.875,0.562s2.188,0.25,2.188,0.25l2.75-0.375l1.312-0.188c0,0,0.875,0.188,1.062,0.25
		s0.75,0.375,0.75,0.375l1.125,0.438h1.438l2.25-0.375l1.375-0.438"/>
</g>
<g id="gcp">
	<circle id="butt" fill="#FF0000" cx="133.001" cy="234.303" r="0.25"/>
	<circle id="portaledge" fill="#FF0000" cx="257.745" cy="219.413" r="0.25"/>
	<circle id="jawlip2" fill="#FF0000" cx="316.083" cy="229.167" r="0.25"/>
	<circle id="ledgedot" fill="#FF0000" cx="383.5" cy="203.666" r="0.25"/>
	<circle id="kissers" fill="#FF0000" cx="607.188" cy="253.062" r="0.25"/>
	<circle id="brokens" fill="#FF0000" cx="724.167" cy="246.25" r="0.25"/>
	<circle id="dragonduct" fill="#FF0000" cx="896.896" cy="262.165" r="0.25"/>
</g>
</svg>
