<?xml version="1.0" encoding="utf-8"?>
<!-- Generator: Adobe Illustrator 16.0.4, SVG Export Plug-In . SVG Version: 6.00 Build 0)  -->
<!DOCTYPE svg PUBLIC "-//W3C//DTD SVG 1.1//EN" "http://www.w3.org/Graphics/SVG/1.1/DTD/svg11.dtd">
<svg version="1.1" id="svg" xmlns="http://www.w3.org/2000/svg" xmlns:xlink="http://www.w3.org/1999/xlink" x="0px" y="0px"
	 width="929.28px" height="622.08px" viewBox="0 0 929.28 622.08" enable-background="new 0 0 929.28 622.08" xml:space="preserve">
<image overflow="visible" width="3872" height="2592" id="image" xlink:href="AKST03B_20100525_224800.JPG"  transform="matrix(0.24 0 0 0.24 0 0)">
</image>
<g id="terminus">
	<path fill="none" stroke="#FF0000" stroke-width="0.25" stroke-miterlimit="10" d="M0.25,338.125h14.625L31,338.25h19.375H60.75
		L73,338h18.625l10.5,0.625l12.75,0.25l4.75,0.25c0,0,4.75,1.125,5.125,1.25s5,0.375,5,0.375l5.875,0.125l3.5-0.625H145"/>
	<polyline fill="none" stroke="#FF0000" stroke-width="0.25" stroke-miterlimit="10" points="211.625,342.625 233.875,343.25 
		270.25,343.5 284.375,343.375 297.5,343.25 303.75,343.125 	"/>
	<polyline fill="none" stroke="#FF0000" stroke-width="0.25" stroke-miterlimit="10" points="473.5,346.125 488.875,347.25 
		504.25,347.75 517.875,348.125 	"/>
</g>
<g id="horizon">
	<path fill="none" stroke="#FF0000" stroke-width="0.25" stroke-miterlimit="10" d="M0.25,56.417h0.833l1.25,0.75l1,0.75l2-0.417
		l2.583-0.833l3.833-0.583L13.5,55.5l1.583-0.25h1.167L17,56l1.333,0.917L19,57.083l0.833,0.667l0.833,0.417L22.583,59l1.75,0.583
		l1.167,0.833l1.333,1.333l0.833,0.75l0.917,1l1.75,2.667L33.5,69.75l3.083,3.75l1.167,1.083l1.5,1.25l1.833,1.917l1,0.667
		l3.667,1.75l3.667,2.333l2.667,1.167l4,1.25l2.5,1.083l1.167,0.833l0.667,0.5l2,1.25L65.25,90.5l1.5,0.917l3,1.583l3.667,2
		l2.083,1.333l2,1.167l2.167,1.583L81.5,100.5l0.75,0.75l1.75-0.583L86.25,101l1.75-0.167l2.417-0.917L92.5,99l3-1.083L98,97.5
		l1.667-0.083l1.75-1.083l1.833-1l3.833-0.833l2.5-0.583L110.25,93l0.583-0.75l2.75-1.25L115,90.333l2.917-0.5l2.167-0.5
		l1.667-0.083l0.5,0.333l2,1.667l2.667,2.917l1.917,2.083l3.083,2.5l1.917,0.833l1.292,0.417l0.688,0.5l1,0.375h0.688l1.375-0.375
		l0.625-0.625l1.188-1.062l1.375-1.5l0.75-1.562l1.75-2l1.875-1.875l0.938-1c0,0,0.75-0.875,0.938-1s0.5-0.75,0.5-0.75L150.125,86
		l0.438-1l1.375-1.188l4.812-2.625l4.375-2.625l2.062-1.438l2.312-1.375l0.75-0.75l1.125-0.25l1.188,0.062l1.125,0.875
		c0,0,0.188,0.375,0.375,0.562s0.25,0.875,0.375,1.062s0.375,0.625,0.375,0.625l1.375,0.375l2.312,0.5l2.25,0.688l0.5,0.062
		l2.688,0.562l2.75,0.438l1.812,0.25c0,0,1.5,0.312,1.688,0.438s1.688,0.438,1.688,0.438l0.75,0.25l1.812,0.625l1.125,0.812
		c0,0,0.812,0.312,1,0.438s1.188,0.438,1.188,0.438l2.875,0.062c0,0,1.312,0.188,1.5,0.188s1.625,0.688,1.625,0.688s0.75,0.062,1,0
		s1.312-0.625,1.312-0.625l1.125-0.188h1.438c0,0,1.188,0.062,1.5,0.125s1.562,0.062,1.562,0.062l1.625-0.25l1.75-0.938l1.375-0.75
		l0.688-0.562L214,81.875l1.688,0.875L217,83.625l1.375,1l1.688,0.875l1.062,0.75c0,0,1.25,0.062,1.5,0.125s0.75,0,0.75,0
		l1.062,0.25c0,0,0.688,0.562,0.812,0.75s2.562,2.125,2.562,2.125l1.438,1.438l0.062,0.312l0.375,0.562l0.625,0.25
		c0,0,0.625,0,0.875,0s0.875-0.312,0.875-0.312l1.875,0.312l1.25,0.438l2.562-0.438l1-1.188l1.812-0.25l0.5,0.062l0.625,0.375
		c0,0,0.875,0.688,1.062,0.875s1,0.312,1,0.312l1.875-0.125l1.312-0.062c0,0,0.812,0.312,1,0.438s0.75,0.688,0.75,0.688l0.938,1.125
		l0.812,1.25l1.125,1.562l1.625,2l1.312,2.125l1.625,1.312l1.25,0.75l1.75,1.5l1.875,1.5l2.188,1.438l2.562,1.875l3.062,1.938
		l2.25,1.75l1.938,2l1.562,2.5l1.688,1.812l0.812,1.5l0.5,0.25c0,0,0.125,0.125,0.312,0.188s0.562,0.688,0.562,0.688l1.25,2.312
		l1.75,2.938l1.188,0.688l1.125,0.562c0,0,0.625,0.312,0.75,0.5s0.812,0.625,0.812,0.625h1.062h1.062L289,130.25l0.812,0.25
		l0.875-1.062l0.688-0.312l0.938-0.188l1.312,0.375l0.5,0.562c0,0,0.438-0.25,0.812,0s0.375,0.25,0.375,0.25s0,0.312,0.375,0.625
		s0.875,0.562,0.875,0.562s0.625,0.438,1.062,0.75s2.062,1.25,2.062,1.25s1.375,0.875,1.562,1.062s1.062,1.062,1.062,1.062
		s0.375,0.188,0.875,0.188s2-0.312,2-0.312l2.438-1.625l2.188-1.125l2.062-0.688L314,131.75h3.25l3.312,0.188l4.938-0.125
		l1.875-0.25c0,0,2.25-0.125,2.562-0.125s2.188,0.062,2.188,0.062l3.25,1.188l3,1.188l4.5,1.438l4.25,1l1.875,0.812l1.938,0.938
		l4,2.062l3.25,1.875l1.062,0.938l0.25,0.75c0,0,0.188,0.562,0.5,0.562s0.938-0.375,0.938-0.375l0.812-0.75l1.562-0.938l2-0.375
		c0,0,0.625-0.5,1-0.562s1-0.875,1-0.875l1.188-1l1.438-1.188l0.875-1.188l0.688,0.188l0.312,0.375l1.25,0.375l1.312,0.375
		l1.125,0.375c0,0,0.562,0.188,0.875,0.5s1.188,1,1.188,1l2.062,0.75l1,0.5l0.688,0.812c0,0,0.438,0.75,0.562,1s1,1.625,1,1.625
		L384,145l1.875-0.125c0,0,0.812,0.25,1,0.375s0.438,0.375,0.438,0.375l0.562,0.312c0,0,1.062-0.062,1.312-0.062s1.25,0,1.25,0
		s0.938,0,1.312,0.312s1.688,1.5,1.688,1.5l3.188,2.438l1.188,0.688l1.5-0.312c0,0,0.688-0.312,1-0.438s2.188-1.188,2.188-1.188
		l1.875-0.562l1-0.062l0.75-0.5h0.812h2.25l2.938-0.062l2.125-0.938l2.375-0.938c0,0,1.25-0.312,1.5-0.312s1.188-0.438,1.188-0.438
		l1.438-0.188l1.188,0.188l0.625,0.375l0.5,0.312l1.438-0.062l0.625-0.438l0.438-0.375h0.938h0.938c0,0,0.688,0,0.875-0.125
		s0.438-0.5,0.625-0.625s1-0.438,1-0.438l0.562-1.125l0.75-0.688h1l1,0.5l1.875-0.625l2.25-0.125l1.75-0.125l0.688-0.812
		c0,0,0.625-0.312,0.938-0.312s2.5-0.062,2.5-0.062l2,0.5l0.688,0.75c0,0,0.625,0.875,0.75,1.062s0.625,0.812,0.625,0.812
		l0.938,0.438c0,0-0.125-0.125,0.5,0.188s1.125,0.812,1.125,0.812l0.75,0.125l1.188,0.125l0.875-0.125c0,0,0.938-0.125,1.125,0
		s1,0.562,1,0.562s1.375,0.625,1.562,0.625s0.75-0.25,1-0.438s1.062-0.75,1.062-0.75l0.438-0.125l3.188-0.312l1.875,0.188l2.25,0.75
		c0,0,0.812,0.438,1,0.5s0.625,0,0.875,0s0.875-0.312,0.875-0.312s0.688,0,1,0s1.625,0.5,1.625,0.5l0.75,0.25c0,0,0.312,0,0.625,0
		s1.5-0.062,1.5-0.062l1.188,0.25l0.812-0.5c0,0,0.562-0.312,1-0.375s1.062-0.25,1.062-0.25h1.062l1.062-0.125l0.812-0.188
		l1.438,0.312l3.375,1.375l3.812,1.625l1.875,0.625l1.312,0.375l0.625-0.188l2.125-1.75l0.688-0.75l0.75-0.562l0.688-0.438
		l0.75-0.562l0.875-1.25l0.812-1.25l1-1.125l1.562-0.625l0.375-0.75l0.625-0.812l0.562-0.312l1.062-0.625
		c0,0,0.25-1.125,0.438-1.312s0.375-1.062,0.375-1.062l1.75-0.438l1.062-0.438c0,0,0-0.312,0.25-0.312s1,0,1,0l1.562,0.562
		l0.5,0.312l1.125,0.062c0,0,0.688,0.688,0.938,0.875s0.688,0.375,0.688,0.375s0.438,0.375,0.75,0.688s-0.188,0.062,0.5,0.562
		s3.75,2.062,3.75,2.062l2.188,1.188c0,0,0.625-0.062,0.938,0s1.5,0.375,1.5,0.375l1.688,0.375l1.375,1.062l1,1.5l1.688,0.562
		l3.688,0.812l1.188-0.25l1.438-0.312l0.875-0.562l1.688-0.938l1.688-0.25l2.188,0.188l0.812,0.188l3.125,0.562l1.875-0.375
		L550.5,144l1.438-0.625l1.375-0.125l1.438,0.25l1.5,0.562l0.812-0.125l0.125-0.875l0.438-0.25h0.875c0,0,1.312,0.562,1.5,0.688
		s0.438,0.375,0.438,0.375l1.312,0.312l1.812,0.125c0,0,1.125,0.625,1.312,0.688s1.5,1.188,1.5,1.188l1.875,1.75
		c0,0,2.062,1.25,2.25,1.375s2.875,2.062,2.875,2.062l3.312,2.188l3.5,2.25c0,0,0.938,0.5,1.125,0.625s0.875,0.312,0.875,0.312
		s0.375,0.125,0.625,0.25s0.375,0.5,0.562,0.75s0.688,0.875,0.688,0.875l1.562,1.062l3.75,2.438l1.812,1.625l1.562,1l1.938-0.188
		l2.062,0.125l1.812,0.688l1.125,1.062l1.688,0.938l3.375,0.312h2.125l1.75-0.688l2.75-0.688l2.562-0.5l1.875-0.125l0.75-0.312
		c0,0,0.312-0.25,1-0.188s2.25,0.188,2.25,0.188l1.062,0.125l0.938-0.438l1.438-0.438h1.312h0.812l0.625,0.438l1.125,0.312
		l4.125-0.062l2.938-0.062l1.688,0.125l1.188-0.75l1-0.125c0,0,1.438,0.375,1.625,0.5s2.875,0.562,2.875,0.562l2.312,0.875
		c0,0,1.688,0.062,1.875,0.125s1.75,0,1.75,0l1.812-0.25l1.562-1.25L653.75,164l1.438-0.625l1.125-0.25l2.188,0.125l1.125,0.938
		l0.875,0.688c0,0,1.125,0.938,1.312,1.312s0.5,0.688,0.625,0.875s0.5,0.375,0.688,0.562s1.75,1.438,1.75,1.438
		s0.812,0.688,0.938,0.875s0.625,0.5,0.625,0.5l1.375,1.062l0.938-0.625l2-2.688l4.5-4.188l2.875-3.312l3.875-3.5l1.375-0.688
		l1-0.75l1-0.812l0.812-0.875l3.375-1.938l2.625-0.812l0.562-0.562l0.75-0.375c0,0,0.938-0.062,1.25,0.062s0.938,0.312,1.25,0.5
		s2.062,0.938,2.062,0.938l1.875,1.938l1.75,2.375l3.375,4.625l1.438,0.875l2.375,0.25l2.688,0.625l1.312-0.188l0.812,0.312
		c0,0,0.5,0.688,0.688,0.812s0.562,1.188,0.625,1.375s1.375,2.875,1.375,2.875l1.25,2c0,0,0.312,1,0.438,1.188s0.75,0.5,0.75,0.5
		s-0.688-0.375,0.938-0.062s2.625,0.562,2.625,0.562l0.938,0.562l0.938,1l0.625,1.125l0.25,0.75c0,0,0.188,0.25,0.375,0.25
		s0.5-0.312,0.688-0.375s-0.188-0.312,0.625-0.5s1.562-0.25,1.562-0.25l2.75-0.188l1.438-0.625l0.812-0.188l1.312,0.188l1.312,0.188
		l0.625-0.25l1.188-0.688l1.188,0.188l1.5,0.375l1.562,0.25l1.562-0.188l1.062-0.188c0,0,0.875-0.562,1.062-0.562
		s0.375-0.938,0.375-0.938l1.25-0.375l0.688,0.312l1.125,0.312l0.5-0.062l1.812-0.188c0,0,1.5,0.062,1.812,0.188
		s1.5,0.375,1.5,0.375h1.125c0,0,0.312,0.125,0.438,0.312s1.125,0.812,1.125,0.812l0.25,0.188l1,0.25l1.438,0.5l1.125,0.688
		l0.25,0.438l0.312,0.438l0.812,0.5l1,0.375c0,0,0.375-0.125,0.688,0.375s0.562,1.062,0.562,1.062s0.312,0.5,0.5,0.625
		s0.625,0.125,0.812,0.25s1.312,0.188,1.812,0.25s4.25,0.312,4.25,0.312l3.688,0.875l2.75,1.062l3.688,2.125l1.438,1.375l1,0.625
		l1.938,0.312h0.75c0,0,0.75,0.188,1,0.375s1.625,0.875,1.625,0.875l0.312,0.75l0.938,0.375l1.75,0.25l2.062,0.562l4.688,1.375
		l2.938,0.688l1.25-0.188l2.25,0.062l2.25,0.312l2.5,0.625l1.688,0.438l2,0.375l2.875,1l1.625,0.688l1.938,1.188l2.25,1.438
		l1.812,1.062l0.688,0.625l2.5,1.375l1.938,1.375l1.312,0.812l1.812,1.188l2.438,1l3.688,1.062l4.812,1.25l1.5,0.562l1.5,0.562
		l1.125,0.688c0,0,0.75,0.312,0.938,0.375s2.438,1,2.438,1l1.688,1.438l1.312,0.438l1.25,0.812l1.25,1l1.375,1.312
		c0,0,0.625,0.312,1.125,0.438s2.312,0.375,2.5,0.375s5.188,0.938,5.188,0.938l3.875-0.125l1.125-0.875l3.875-2.125l3.812-3l3-2.562
		l1.125-0.75l1.375-0.562l2.625-2.625l1.812-1.438l1.25-0.812l1.25-0.125l1.625,0.312c0,0,0.625,0.5,0.75,0.75
		s0.25,0.938,0.438,1.062s1.375,0.875,1.375,0.875l1.938,0.875l3.75,1.312l4,1.688l4.188,1.5l0.625,0.062l1.625,0.75L914,211.5
		l1.125,0.188l1.312,0.312l0.875,0.188h1.312l1.188-0.438l0.938-0.062l1,0.5l0.938,0.562l1.25,0.312l1.688-0.5l1.812-0.062
		l0.625-0.188L929.28,212"/>
</g>
<g id="gcp">
	<circle id="portaledge" fill="#FF0000" cx="257.75" cy="219.083" r="0.25"/>
	<circle id="butt" fill="#FF0000" cx="132.918" cy="233.833" r="0.25"/>
	<circle id="jawlip2" fill="#FF0000" cx="316.167" cy="229.083" r="0.25"/>
	<circle id="brokens" fill="#FF0000" cx="724.031" cy="246.062" r="0.25"/>
	<circle id="dragonduct" fill="#FF0000" cx="896.969" cy="262.172" r="0.25"/>
</g>
</svg>
