<?xml version="1.0" encoding="utf-8"?>
<!-- Generator: Adobe Illustrator 16.0.4, SVG Export Plug-In . SVG Version: 6.00 Build 0)  -->
<!DOCTYPE svg PUBLIC "-//W3C//DTD SVG 1.1//EN" "http://www.w3.org/Graphics/SVG/1.1/DTD/svg11.dtd">
<svg version="1.1" id="svg" xmlns="http://www.w3.org/2000/svg" xmlns:xlink="http://www.w3.org/1999/xlink" x="0px" y="0px"
	 width="816px" height="612px" viewBox="0 0 816 612" enable-background="new 0 0 816 612" xml:space="preserve">
<g id="image">
	
		<image overflow="visible" enable-background="new    " width="3264" height="2448" xlink:href="CG04_20041008_200016.JPG"  transform="matrix(0.25 0 0 0.25 0 0)">
	</image>
</g>
<g id="gcp-peaks">
	<circle id="P4930" fill="#FF0000" cx="539.2" cy="161.75" r="0.25"/>
	<circle id="P7010" fill="#FF0000" cx="703.35" cy="168.5" r="0.25"/>
</g>
<g id="gcp">
	<circle id="cairin-up" fill="#FF0000" cx="687.4" cy="498.3" r="0.25"/>
	<circle id="cairin-dwn" fill="#FF0000" cx="431.9" cy="495.7" r="0.25"/>
	<circle id="kadin-cairin" fill="#FF0000" cx="477.5" cy="188.15" r="0.25"/>
	<circle id="blotch" fill="#FF0000" cx="82.9" cy="238.75" r="0.25"/>
	<circle id="nipple" fill="#FF0000" cx="382.2" cy="212.2" r="0.25"/>
	<circle id="splitrock" fill="#FF0000" cx="450.3" cy="227" r="0.25"/>
	<circle id="cluster" fill="#FF0000" cx="454.2" cy="232.45" r="0.25"/>
</g>
<g id="coast">
	<polyline fill="none" stroke="#FF0000" stroke-width="0.25" stroke-miterlimit="10" points="16.125,289.292 17.208,289.75 
		18.333,289.958 19.625,290.167 21.208,290.375 22.542,290.5 25.542,290.625 28.292,290.667 31.125,290.708 38.667,291 
		42.5,291.125 46.833,291.292 49.25,291.208 50.625,291.333 53.125,291.708 56.541,291.75 60.083,291.792 63.541,291.917 
		65.75,292.083 68.625,292.167 73.124,292.083 76.207,292.167 78.791,292.292 81.166,292.75 84.041,293.042 87.332,293.292 	"/>
</g>
<g id="horizon">
	<path fill="none" stroke="#FF0000" stroke-width="0.25" stroke-miterlimit="10" d="M0.046,134.035l1.919,0.116l2.267-0.058
		l1.919,0.174l2.791,0.523l1.57,0.174l1.337,0.174l1.861,0.407l1.453,0.64l1.744,1.163l0.872-0.058l1.861-0.349l1.686,0.523
		l0.756,0.814l0.465,0.465l1.686-0.116l1.163-0.058l2.093,0.872l1.977,0.523l1.86,0.174l1.221,0.291l1.396,0.64l2.5,1.104
		l2.791-1.163l3.779-0.931l1.977-0.349l1.744,0.349l1.046,0.872l1.337,1.279l1.104,0.64l4.613,1.461l4.333,0.5L62,145.667l2,1
		l2.833-0.333h1.333l1.583,0.583l1.917,1.167l2,0.083H75.5l1.25,0.667l2.75,1.417l1.833,0.917l1.667,0.5l2.583,1l3,1.5l2.25-0.167
		L92,153.417l2.25-0.333l3-0.417l1.583-0.167l1.667-0.833l1.583-0.5l3.333,0.333l4.667,1.25l5.5,2.167l2.25,1.5l1.833,0.5
		l1.417,0.333l1.917-0.167l3.167-0.25l1-0.667l1.833,0.25l2,0.25l1.417-0.417l2-0.5l2.083-0.25l2.167-0.5l1.583-0.667l1.167,0.167
		l1.417-0.333l1.417-1c0,0,1.5-0.417,1.75-0.417s1.833,0.417,1.833,0.417l1.25-2l2.75-1.917l1.917-1.417l0.583-1.417l0.917-0.833
		l1.667-0.417l5.333-2.833l5.25-3.833l4.25-2.25l3.083-4.417l2.667-3.75l3.917-1.333l1.083-0.667l2-3l2.75-2.25l2.833-2.5
		l5.833-3.417l4.833-1.333l3.417-1.083l2.917-2.333l3.333-2l2.917-1.583l3.083-0.417l1.833-0.25l2.083-0.417l3.333,0.083l2.083,1
		l3-0.417l2.75,0.5l1.917,0.083l1.333-0.75l1.583,0.167l2.417,0.917l1.167,0.833l1.167-0.25l0.75-0.75l1.999-0.417l1.917-0.5
		l1.75,0.167l1.333,0.583l0.833,1.167l0.75,0.583l2.833-0.417l2.667-0.167h1.75l1.333,0.167l5.083-2.667l2.75-1.167h1.083L271,102.5
		l5.083-2l2.833-0.667l3,0.5l1.5,0.333l4.417-2.417l3.083-2l3.25-0.917l3.417-0.5h2.583l1.25,0.5l0.917,1.583l1,1.333l1.333,0.5
		l1.167,1.167l1.917,0.667l1.333,0.917l1.167,1l2.333,0.75l1.833,0.167l3.25-0.083h2.5l1.75,0.25l1.417,0.083l1.667,0.417
		l1.167,1.417l0.5,1.583l0.25,1l0.833,1.083l1.5-1.083l1.417-0.083l2.25,0.583L335,109.25l0.583,0.167L337,108.75l1.583-0.5
		l2.583-0.083l1.333,0.5l1.417,1.75l1.583,2.667l0.583,1.833l1.917,1.667l2.5,3.25l3.083,4.083h2h1.75l2.667,0.5l1.75,0.667l2,1.167
		l0.75,2l0.917,1.417l2,1.75l2.667,1.833l2.833,2.083l4.5,3.167l4.5,3.333l2.917,3.417l2.083,1.583l1.083,0.75l2,0.583l2.667,0.833
		l0.667,0.75l0.583,0.417l1.333,0.917l0.5,1.25l1.75,3.5l1.083,1.917l2.083-3.083l1-0.75l2-0.167l2.167,1.25l2.75,0.417l3.334-0.667
		l2-0.583l1.333,0.917l2.75-0.917l4.667-0.917l2.583,2.25l3.167-0.917l3.583,1.5l4.25,3.25l3.667,3l2.083,0.667l1.583-0.5
		l0.917,0.417l1.417,1.167l1.333-2.083l1.083-1.333l1.5-0.583l1.75,0.167h1l2.667-1l1.583-0.25l1.584-0.667l2,0.667l1.083,1.417
		l1.583-1l1.5-0.417l1.917,0.25l1.25,1.417l2.25,3.167l1.75,2.5l0.667,2.167l1.666-0.583l1.75-0.667l1.584-0.25l1.166-0.167
		l0.584,0.5l1.5-1.083l1-0.25l1-0.167l2-0.75l1.25-0.917l1.166,0.417h1.417l1,0.917l3.583-1.083l3.417-2l1.5,0.667l1.917-0.833
		l1.5-0.333l2.083,0.417l2.333,1.417l1.417,0.417l1.25,0.333l2,1.833l2.333-1l1.417-0.417l1.75,0.417l2.583-0.5l1.084-0.667h1.083
		l2,0.25l2.25-0.417l1.917,0.083l1.833,0.417l1.917-0.417l1.416-0.667l1.084-0.167l1.583-0.917l1.583-0.417l1.5-0.667l1.369,0.249
		l1.215,1.501l0.916,2.5l1.417,2.083l0.834,1.416l2.167,1.333l2,1.333l4.333,2.333l4.584,3.083l2.666,2.5l2,2.917l1.5,1.75
		l1.417,1.083l2.5,0.25l1.25,0.25l1.333,1.5l1.084,0.75l1.583-0.5l2.667-0.333l3.416-1l3.25-1.083l2.417-0.083l2.833-0.917l4-1
		l2.917-0.333l2.25,0.833l2.583,1.917l3.084,3.083l2.083,2.917l3.333,0.417l3.584,0.583l1.75-0.167l1.083-1.25l1.5-0.083l1.25,0.167
		l2.25-1.083h2.417l1.25-1.25l2.583-1.417l1.417-0.5l1.083,1l1.917,0.917l2.75,1.5l0.75,0.917l2.166-0.75l3.667-1.833l2.584-3.333
		l1.416-1.75l2.5-1.75l2.584-2.5l4.833-4l4.583-4.25l1.667-1.5l1.25,0.417l0.75,0.833l1.5-1.167l1.5,0.5l1.75,1.167l0.5,0.667
		l2.917,0.333l2.166,0.417l1.667,0.5l0.917-0.167l1.166,0.5l0.5,1.083l0.5,1h1.584l0.75-0.667l0.5-0.083l0.583,0.667l0.083,1.083
		l0.834,0.417l1.75,0.417l2-0.25l1.583-0.917l3.083-0.917l1.834-0.167l2.083-1.583l3.834-2.5l2.583-1.583l1.917-0.083l1.583-1.167
		l2.5-0.083l2.667,0.333l2.583,0.833l2.334,1.25l0.666,1.25l1.417,0.833l2.417,0.833h1.083l1.083,0.583l1,1l1,0.75l1.25-0.167
		l1.167-0.167l1.167,0.75l0.75,0.917l1.5,0.417L728,178l1.75-0.583l2.083,0.5l2.834,1.083l1.583,0.5l1.583-1.25l1.25-0.75h2.084h2
		l2.75,0.083l1.666-0.583l1.667-1l2.083-0.917l1.917-0.25l1.833-1.25l2.25-2.333l1.834-1.083l1.666,0.25l1.25,1.083l5.75-1.333
		l3.084-1.75l1.5-0.083l1.5,0.083l2.833-0.167l1.833-0.583l2.167-0.083l1.5,1.083l1.417,0.833l2.5-0.667H788l1.917,0.083
		l3.666-0.417l1.501,0.417l1.084,0.167l1.666-0.583l2,0.083l1.25,0.583l1.5-0.583l1,0.083h1.5l1.334,0.75l1.583-0.5l1.667-0.417
		l2.416,0.167l2.25,0.583l1.666,0.5"/>
</g>
<g id="land">
	<polygon fill="none" stroke="#FF0000" stroke-width="0.25" stroke-miterlimit="10" points="815.167,480.5 764.5,489.167 
		745.167,482.5 691.834,485.167 601.167,508.5 576.5,494.5 491.834,488.5 441.167,490.5 351.167,502.5 322.5,513.167 
		293.833,513.167 199.833,523.167 138.5,541.167 81.833,567.833 77.833,578.5 85.167,589.833 109.833,592.5 142.5,595.167 
		180.5,597.833 213.833,601.833 228.5,607.167 284.5,609.167 289.833,611.833 816.001,611.999 	"/>
	<path fill="none" stroke="#FF0000" stroke-width="0.25" stroke-miterlimit="10" d="M95.834,292.5l-95.333-4l-0.667-162
		l35.667,6.333l37.333,8.333l46.333,7.667l26.333-2.667l16-8.667l19-15.333l29-17.333l20.667-4l16,1.667h9.667l12.333-3.667
		L276.5,95.5l20.667-3.333L312.5,93.5l23.333,10.333l14,7.333l18,13.667l21,13.333c0,0,9,8,10,8s13,3.667,13,3.667l9.333,1l16,4.333
		l9.334,2l14.666-2.333l8.334,2.333l6,6.333l14-1.667l9-2.333l8.333,0.333l8.667,2.667l13-2.667l9.333-5l9,6l7.333,7.333l12,9.667
		l17.334,4.333l9-1.667l8.666,1.667l7.667,5l5,1.333l5.667-3.333l12-2.667l9.333-2.333l6-6l5.333-4.333l8.334-3.667l13.666,3.333
		l8,3l13.667-6.667l11.667-0.333l9.333,3l9.667,4l6.666,1.333h8.334l8.666-1.667l10.334-5l7.333-0.333l13.333-3.667h9.334
		l19.667,2.667h5l0.333,73.667l-83.333-4.333l-38-8l-23.667-8.333l-8.333-5l3-3.333l9-2.667l6.333-1.667l27-2.667l16.667-0.333
		l9.333-6.667l0.333-2.333c0,0-6-2.666-8-2.333s-20.333,3-20.333,3l-15.333,3.667l-14,2.667l-5.667-4.333l-1.333-4l-6.334-2.333h-17
		l-22,6l-27.333,2.667l-5.333,0.333l2.333,3l6.667,4.333l5.666,8l4,8l-0.666,4.333l-11,3.667h-17.334l-28-4.667l-12.666-0.667
		l-10.334-1v2l7,6.667l12.334,7.667l7.666,6l1.667,5.333l-0.333,4.333l-8.667,3l-22,1.667l-44,0.333l-52.667-7.667l-61.999-7.333
		l-54-5l-42-8.333l-44-5.333l-55.667-3l-32.667-3.667l-33-5l-21.333-3.333l-12-1l-5.667,1.333l5,8.667l2.667,5.667l3.333,4.667
		l8,6.667l9.667,10.333L99.5,253.5l-2,8l-14.667,2.667l-9.333,3l-1.333,3.333l8.333,6.333l10.667,4.333l4.667,6V292.5z"/>
</g>
</svg>
