<?xml version="1.0" encoding="utf-8"?>
<!-- Generator: Adobe Illustrator 16.0.4, SVG Export Plug-In . SVG Version: 6.00 Build 0)  -->
<!DOCTYPE svg PUBLIC "-//W3C//DTD SVG 1.1//EN" "http://www.w3.org/Graphics/SVG/1.1/DTD/svg11.dtd">
<svg version="1.1" id="svg" xmlns="http://www.w3.org/2000/svg" xmlns:xlink="http://www.w3.org/1999/xlink" x="0px" y="0px"
	 width="1072px" height="712px" viewBox="0 0 1072 712" enable-background="new 0 0 1072 712" xml:space="preserve">
<g id="image">
	
		<image overflow="visible" enable-background="new    " width="4288" height="2848" xlink:href="CG05_20050811_130000.JPG"  transform="matrix(0.25 0 0 0.25 0 0)">
	</image>
</g>
<g id="gcp">
	<circle id="BBCFG" fill="#FF0000" cx="382.438" cy="679.312" r="0.25"/>
	<circle id="kadin-cairin" fill="#FF0000" cx="689.812" cy="193.875" r="0.25"/>
	<circle id="blotch" fill="#FF0000" cx="35.25" cy="311.062" r="0.25"/>
	<circle id="nipple" fill="#FF0000" cx="537.875" cy="245.625" r="0.25"/>
	<circle id="splitrock" fill="#FF0000" cx="653.188" cy="259.5" r="0.25"/>
	<circle id="cluster" fill="#FF0000" cx="660.938" cy="267.375" r="0.25"/>
	<circle id="T20050811-01" fill="#FF0000" cx="63" cy="365.5" r="0.25"/>
</g>
<g id="horizon">
	<path fill="none" stroke="#FF0000" stroke-width="0.25" stroke-miterlimit="10" d="M0.167,182.703l3.396-0.533l2.663-0.2
		l1.798,0.666l2.33,1.065l1.931,0.599l2.663,0.533l1.731-0.333h1.598l2.663,0.599l3.263,1.665l4.594,2.197l1.598,0.133l1.931,0.466
		l1.864,0.999l2.33,0.333l1.931,0.932l2.796,1.465h1.731l2.397-0.333l2.53-1.132l4.461-0.999l2.663-0.599l2.131-0.466l0.932,0.333
		l1.398-0.466l1.398-1.065l1.332-0.732l2.13-0.399h3.462l1.931,0.333l4.128,1.065l5.992,0.932l4.461,1.398l3.729,1.531l1.665,0.799
		l0.999,0.799l1.998,0.666l1.931,0.999l2.796,0.532l2.13-0.865l1.665-0.466l3.396-0.666l2.064-0.999h1.731l2.53,0.333l1.931,0.533
		l2.73,0.466l2.863-1.198l2.996-1.132l2.064,0.066l1.931-0.599l2.997-0.999l2.197,0.066l1.132-0.399l0.532-0.932l1.731-1.465
		l2.13-1.132l2.53-0.133l2.264-0.066l1.332-0.067l1.199-1.598l2.929-2.463l2.064-1.865l1.531-1.198l0.732-0.999v-1.398l0.932-1.665
		l1.931-0.533l1.265-0.799l3.129-2.197l6.791-5.261l6.392-5.127l6.059-4.128l3.529-4.661l1.465-3.529l1.731-1.731l1.865-2.264
		l2.064-3.196l3.196-1.398l2.597-0.999l1.864-2.264l2.73-4.927l5.593-6.126l4.594-3.729l6.392-3.929l6.924-2.663l4.195-2.197
		l2.93-1.798l1.931-1.332l5.126-4.728l5.593-3.529l5.126-1.665l3.729-0.533l3.329-1.065l3.396-0.2l3.329,0.133l2.663,0.599
		l4.128-0.333l3.462,0.333l3.662,0.266l2.53-0.399l2.064-0.999l3.596,0.533l1.797,1.132l2.464,1.465l2.597-1.265l2.597-1.731
		l2.197-0.732h1.798l1.065,0.333l1.531-0.067l2.463,0.732l1.199,1.199l1.531,1.931l1.465-0.333l4.062-1.065l3.795-0.599l2.664,0.067
		l1.931-0.133l5.193-3.062l6.458-3.596l2.796-0.399l5.06-3.196l6.925-3.396l4.993-1.398l4.062,0.067l2.197,0.466h1.864l1.998-1.398
		l3.995-2.863l3.529-2.796l2.796-1.998l4.061-1.198l4.395-0.999l2.796-0.599l2.996,0.399l1.665,0.866l0.466,0.999l0.866,1.598
		l0.732,1.265l1.665,0.599l1.132,0.799l0.999,1.063l2.13,0.599l1.731,0.533l1.731,0.599l1.063,1.132l0.799,1.198l1.6,0.2
		l1.797,0.932l0.999,0.799l1.665,0.533l2.396-0.533l2.132-0.732l2.528-0.133l3.329,0.066l2.53,0.399l1.998,0.2l2.396,0.466
		l2.331,1.398c0,0,1.997,2.131,2.13,2.464c0.135,0.333,0.866,2.463,0.866,2.463l1.398,2.463l1.265,0.2l1.465-0.932l2.73-0.2
		l2.93,0.666l2.53,0.533l1.864-0.133l2.331-1.465l2.661-0.666l3.93-0.2l1.998-0.066l0.799,0.799l0.466,1.199l1.864,1.132l1.53,1.465
		l1.064,1.265l0.933,1.797l0.398,1.598l0.732,0.866l1.931,1.731l2.863,3.262l4.525,4.794l5.728,6.192l5.327,5.126l1.664,0.932
		l2.529,0.866l1.731,1.731l1.265,2.331l1.864,1.731l4.526,3.196l5.192,2.863l9.588,5.727l8.256,4.927l3.396,3.329l2.13,1.864
		l3.862,2.796l2.33,2.663l0.865,1.532l2.396,0.999l1.73,1.199l1.466,1.464l2.196,1.065l2.33,1.731l1.933,1.731l2.861,1.398
		l1.267,0.399l0.665,1.198l0.666,1.998l1.863,1.931l1.197,2.064l0.732,0.666l0.933,0.599l1.198,2.464l1.266,1.198l1.664,0.267
		l2.863-1.132l2.197-0.666l1.465-0.999l0.865,0.599l0.466,0.799l0.866,0.599l1.863-0.732l2.463-0.865l3.93-1.532l2.264-0.932
		l0.799-0.333l1.6,1.198l1.132,0.866l0.866,0.666l1.997-0.2l1.529-0.533l1.398-0.133l2.663,0.066l3.795,1.398l5.193,3.329
		l3.596,2.064l1.864,0.399l1.196,1.399l0.399,1.065l0.532,1.198l2.862-0.399l1.267-0.2l1.931-0.666l1.864,0.133l0.666,1.065
		l1.465,0.466l0.731-0.932l0.865-2.33l2.464-1.998l2.663-1.065l1.932-0.066l2.131-0.2l2.33-0.799l2.063-0.866l3.195-0.533h2.396
		l1.798,1.398l0.999,1.265l0.998-0.865l0.865-1.332l1.397-0.4l1.864-0.333l1.464-0.533l1.933,1.065l1.863,2.397l1.997,2.464
		l2.729,3.062l1.665,1.465l0.467,2.264l0.934,0.866l0.933-1.065l2.196-0.599l1.398-0.732l1.663-0.533l1.799-0.333l1.396,0.333
		l1.065,0.466l1.465-0.6l0.998-0.799l1.397-0.799l2.729-0.599l1.063-1.265l1.466-1.265l2.529-0.133l2.862,0.333l2.663,0.866
		l1.864-0.999l3.662-1.997l2.797-1.931l1.465-0.732h1.997l2.265-0.599l1.332-0.533l0.864-0.799l1.864-0.2l1.73,0.333l1.063,1.199
		l1.6,0.533l4.261,0.999l2.862,1.332l1.398,1.132l1.863,0.267l2.13-1.265l1.933-1.265l1.997,0.399l0.934-0.266l0.999-0.2
		l0.333,0.466l0.933,0.267l0.865-0.932l0.998-0.866l1.332-0.066l1.465-0.799l1.198-0.133l1.331,0.466l1.331-0.2l2.132-1.065
		l2.464-0.333l2.464-0.133l0.8,0.599l0.731,0.533l2.195-0.732l2.064-0.799l1.729-0.999l1.664-0.532l2.396-1.598l1.599-0.466
		l2.062-0.999l0.934-0.866l1.598-0.466l0.999,0.2l1.466,1.531l1.132,2.264l1.799,2.664l1.132,1.665l2.131,2.064l2.396,1.864
		l6.926,2.996l4.461,1.731l4.461,2.064l4.594,3.329l4.795,3.729l2.265,2.796l0.933,1.531l1.53,0.866l1.799,1.265l1.332,0.732
		l3.527,0.466l1.863,0.2l1.6,0.666l2.931,1.465l1.197,1.198l0.6,0.599l2.063,0.2l1.798-1.198l2.53-1.265l1.932-1.132l3.328-1.332
		l1.729-0.732l1.998,0.2l1.864,0.2l1.265-0.666l1.398-2.264l1.132-0.533l1.465,0.133l3.529-0.333l1.331-0.599c0,0,1.133,0,1.331,0
		c0.199,0,1.331-0.533,1.331-0.533l1.133-0.799h0.666l1.931,0.799l1.134,0.666h1.266l1.331,0.533l1.665,1.864l1.133,0.932
		l1.598,0.599l2.598,2.264l1.664,2.264l1.998,1.398l2.796,2.33l3.062,0.267l2.796,0.133l3.062-0.267l2.132-1.265l1.197-1.198
		l1.53-0.267l2.465,0.067l1.332-0.533l1.064-0.732l2.597-0.599l3.994-2.331l3.063-1.864l1.465-0.799l1.132-0.732l0.731-0.2
		l0.8,0.333l2.264,1.465l2.863,0.532l2.264,1.132l1.266,0.466l3.661-0.866l2.729-0.2l4.129-2.33l2.463-2.863l1.998-2.729
		l1.531-2.797l1.063-0.999l1.531-1.398l1.531-1.731l2.862-3.062l2.931-2.664l3.729-4.061l2.33-2.464l3.597-4.261
		c0,0,2.597-2.464,2.797-2.597c0.199-0.133,1.132-1.731,1.132-1.731l0.467-0.932l0.532-0.2l0.532,0.799l0.532,1.065l0.666,0.466
		l1.266-1.132l1.665-0.599l0.999-0.599l0.932-0.267l0.799,0.932l1.466,0.6l1.465,0.133l1,0.866l0.73,0.399"/>
	<polyline fill="none" stroke="#FF0000" stroke-width="0.25" stroke-miterlimit="10" points="968.396,175.645 970.396,175.379 
		972.193,175.379 973.392,175.778 974.723,177.376 975.455,178.441 976.787,178.841 978.451,178.641 979.45,177.775 
		980.383,177.043 981.248,177.243 981.78,178.641 982.646,180.439 984.377,181.104 986.175,181.238 988.372,180.505 
		989.438,179.507 990.503,178.841 992.767,178.175 995.097,176.977 996.828,176.444 999.092,176.444 1001.556,174.38 
		1005.018,171.583 1007.481,169.985 1009.079,167.789 1010.479,166.257 1012.675,165.524 1014.805,165.059 1016.07,164.526 
		1016.803,163.66 1017.401,162.995 1018.4,162.528 1020.797,162.595 1025.191,162.861 1030.119,163.86 1033.848,165.258 
		1036.511,167.789 1037.909,168.587 1039.374,168.587 1041.172,168.987 1041.704,169.386 1043.104,168.521 	"/>
	<polyline fill="none" stroke="#FF0000" stroke-width="0.25" stroke-miterlimit="10" points="1051.358,171.184 1053.223,171.517 
		1054.754,172.582 1055.287,173.115 1057.018,173.647 1058.883,173.714 1060.347,172.915 1061.346,172.25 1062.877,172.05 
		1063.477,172.05 1064.608,171.118 1065.54,170.718 1066.673,170.585 1068.337,170.917 1070.201,171.384 1072,171.383 	"/>
</g>
<g id="terminus-unused">
	<polyline fill="none" stroke="#FF0000" stroke-width="0.25" stroke-miterlimit="10" points="112.833,400.334 133.167,399.834 
		160.667,398.5 196.833,397 214.833,395.5 242.667,394.834 278.667,393.834 308.333,393.834 354.832,394.667 388.832,394.667 
		416.999,395.167 435.499,395.667 447.499,396.5 462.166,396.5 490.666,397.5 513.166,398.5 534.999,399.667 571.165,401.167 
		601.332,403.334 628.832,406 654.332,409.167 670.165,410.167 680.165,412 704.665,416.667 725.497,419.334 732.164,420.834 
		748.831,426.167 778.832,434.666 795.832,438.833 816.832,443.666 836.998,448.833 850.165,450.833 866.165,455.333 882.165,460.5 
		899.498,464.666 913.165,469.833 937.999,480.666 	"/>
</g>
<g id="coast">
	<polyline fill="none" stroke="#FF0000" stroke-width="0.25" stroke-miterlimit="10" points="-0.005,404.295 16.278,403.981 
		26.507,403.355 33.813,403.042 45.503,403.146 55.001,402.834 66.065,402.521 76.19,402.312 88.715,402.207 92.577,402.207 
		98.735,401.895 104.685,401.581 109.277,400.746 	"/>
</g>
<g id="land">
	<path fill="none" stroke="#FF0000" stroke-width="0.25" stroke-miterlimit="10" d="M1.167,173.167l49.333,6.667l62,3.333
		l31.333-14.667l52-44l39.333-26.667L280.5,88.5l38,0.667l34-16.667l24-1.333l34,4.667l38.667,10l32.667,22l65.333,56l22.666,11.333
		h46l82.667,2l35.333-1.333l26.667-6l22.667,10l20.666,10l29.334,6.667l30-0.667l34,1.333l32.666-19.333l32-15.333l22.667,2
		l36.667-8.667l50.667,4.667l-0.667,104.667l-108-18l-9.333-12.667l12-18l8-14l-37.334,8.667L873.167,226.5l-3.333,10l14,11.333
		l9.333,10l4,8.667l-18.667,8l-46.666,0.667l2,8l6.666,14.667l-11.333,7.333l-33.333,2l-44.667,12l-60.667,2.667l-67.333-7.333
		l-68.667-4.667l-79.333,2.667l-60.667-2l-49.333-2.667l-70.667-2.667l-78-2l-32-2h-50l-60-3.333l-20-3.333l-9.333-1.333l-6,8
		c0,0,3.333,6,5.333,7.333s14.667,20.667,14.667,20.667l12,11.333l8,16.667l-5.333,8c0,0-0.667,7.334,0.667,9.334
		s6.667,10.666,6.667,10.666l-5.333,14.667l-76.667,1.333L1.167,173.167z"/>
	<polygon fill="none" stroke="#FF0000" stroke-width="0.25" stroke-miterlimit="10" points="241.833,709.834 327.833,685.834 
		373.833,684.5 447.167,667.167 557.833,626.5 609.833,617.167 659.167,605.834 710.5,595.167 805.833,566.5 885.167,551.167 
		926.5,539.834 960.5,533.834 993.833,523.167 1020.5,514.5 1044.5,507.834 1072,499.167 1072,712 	"/>
</g>
</svg>
