<?xml version="1.0" encoding="utf-8"?>
<!-- Generator: Adobe Illustrator 16.0.4, SVG Export Plug-In . SVG Version: 6.00 Build 0)  -->
<!DOCTYPE svg PUBLIC "-//W3C//DTD SVG 1.1//EN" "http://www.w3.org/Graphics/SVG/1.1/DTD/svg11.dtd">
<svg version="1.1" id="svg" xmlns="http://www.w3.org/2000/svg" xmlns:xlink="http://www.w3.org/1999/xlink" x="0px" y="0px"
	 width="1029.12px" height="683.52px" viewBox="0 0 1029.12 683.52" enable-background="new 0 0 1029.12 683.52"
	 xml:space="preserve">
<image overflow="visible" width="4288" height="2848" id="image" xlink:href="CG05_20050827_130000.JPG"  transform="matrix(0.24 0 0 0.24 0 0)">
</image>
<g id="horizon">
	<path fill="none" stroke="#FF0000" stroke-width="0.25" stroke-miterlimit="10" d="M0,176.25h7.375L10,177.375l2.875,1l3.562,0.062
		l2.688,0.188l3.625,1.312l3.875,1.875l4.125,1.062l3.5,1.125l2.062,0.812l3.062,1.5l1,0.125l1.5,0.062L47,184.625l2.438-0.938
		L52,183.312l4.188-0.125L58,181.75l3.812-0.75c0,0,4.25,0.188,4.75,0.312s6.312,0.875,6.312,0.875l7.062,1.75l8.812,4.729l3.833,1
		l3.083-0.75l4.167-1.167l2.5-0.667h3.417l2.583,0.417l1.333,0.167l5.667-1.5l5.417-1.667l4.417-0.583l1.667-1.167L128,181.5
		l2.417-0.917h1.833l2.667,0.083l1.417-0.25l2.917-2.833l3.083-3.25l1.333-2.25l1.083-1.917c0,0,0.334-0.583,0.667-0.583
		s7.333-4.499,7.333-4.499l4.75-3.083l4.75-4.833l7-5l3.417-4.083l3.25-5.417l3.333-4.917l2.25-1.25l3.333-1.417l2.5-2.25
		l0.75-2.333l6.25-7.667l6.667-5l9.25-4.917l6.833-3.167l4.167-2.167l4.5-4.917l5.667-3.167l6-1.833l2.75-0.5l2.5-0.917l3.5-0.583
		l2.667,0.167l1.833,0.5l2.167,0.417l2.083-0.25l2.5-0.083l6.083,1l4.167-1.333L270.25,96l4.083,1.167l1.583,1.25
		c0,0,1.583-0.5,1.75-0.75s4.083-2.167,4.083-2.167h4l2.75,0.75l1.5,1.333l1.083,1.333l2.083-0.583l4.5-1.417l2.333-0.083
		l1.917,0.083l2.667-0.75l5.25-2.417l7.75-3.917l2.834-0.333l4.417-2.667L328.916,84l2.917-1.083l4-0.5h3.667l2.25,0.417
		l1.667-0.333l4-3.417l5.25-3.417l4.75-2.25L363.499,72l3.833-0.167l1.5,0.5l1.083,1.333l0.417,1.667L371.749,76l3.25,1.917
		l1.167,1.167l3.083,1.167l1.083,0.583l2.333,1.833l3.5,1.167l1.75,1l2.5-0.5l4.5-0.667l3.833,0.25l3.417,1l3.917,0.75l1.75,1.5
		l4.333,7.083l1.833-1.667l1.583-0.083l2.917,0.417l1.833,0.5l2.083,0.333l2.333-0.333l3.167-1.583l3.583-0.667l2.333,0.333
		l2.583,2.083l2.25,2.5l2.5,3.917l6.667,7.833l6.917,7.167l7.25,7.75l2.333,0.083l1.5,0.25l0.833,1.417l1,1.5l0.75,1.25l2.667,1.833
		l5.167,3.5l6.25,3.917l11.666,6.416l1.583,0.917l2.167,2l3.333,3.417l4.5,3l2.833,3.583l3,1.917l2.167,2l3.417,2.417l5.25,3.167
		l1.917,1.083l0.916,1.083l0.25,1.25l1.667,2.25l2.25,2.333l1.167,1l1.749,2.833l2-0.167l3.167-1l1.5-0.5l1.833-0.167
		c0,0,1.167,0.667,1.417,0.833s1.25,0.167,1.25,0.167l2.583-1.333l3-1.333l3.584-0.667l1.583,0.833l1.167,0.917l2,0.417
		c0,0,0.249-0.083,1.416-0.25s5.167-0.167,5.167-0.167l4.083,1.417l7.167,5.25l1.75,0.583l1.583,1.25l1.75,1.083h2.167
		c0,0,2.167-0.167,2.5-0.083s2.417,0.5,2.417,0.5l1.833,0.833l2-3.833l1-0.833l2.75-1.083l2.667,0.167l2.25-0.5
		c0,0,2-1.75,2.25-1.75s3.333-0.167,3.333-0.167l3.583-0.167c0,0,1.25-0.167,1.5,0s1.5,0.667,1.5,0.667l3.75-1.25h3.167l1.999,2.25
		l3.334,4l2.083,2.833l0.917,2l1.5,0.667l3.666-0.5l3.167-0.917l1.833-0.583l1.834-0.5l0.833,0.083l1.667-0.917l5.583-2.5
		l2.333-1.417l2.917,0.25l1.417,0.583l1.916,0.583l2.334-0.75l6-3.667l2.25-0.667h1.333l4.25-1.583h1.5c0,0,1.833,0.75,2.083,0.917
		s4.5,1.917,4.5,1.917l2.5,0.833c0,0,2.084,0.667,2.334,0.75s2.583,0.083,2.583,0.083l5.083-1.333l4.917-0.417l6.25-2l3.5-0.5
		l2.75-0.583l2.167-0.25l1.583,0.667l6.333-2.583l5.25-2.75l3.084-1l1.166,0.083c0,0,2.001,1.667,2.084,2s1,2.083,1,2.083
		l1.333,2.667l1.833,2.75l0.75,2.667l3.167,1.083l9.583,3.083l3.667,0.75l3.917,2.75l7.917,6.5l3.25,3l1.916,1.5l5.5,0.75l2,0.667
		c0,0,2.167,1,2.417,1.25s1.583,1.167,1.583,1.167l1.667,0.75c0,0,1.75-0.166,2-0.333s3.417-2.084,3.667-2.167s6.083-2.5,6.083-2.5
		l1.917,0.083c0,0,1.416,0.083,1.666,0.083s1.5-1.167,1.667-1.583s1.167-1.5,1.167-1.5l1.5-0.25l2.5,0.083l4.418-0.917l2.333-0.5
		l2.167,0.5l1.916,0.833h1.167c0,0,0.999,0.5,1.333,0.833s1.25,1.333,1.25,1.333s2.75,1.917,3,2.083s5.584,5.083,5.584,5.083
		l2.833,2l3.667,0.583h2.583l4.167-1.833l2.084-0.667c0,0,1.334-0.167,1.75-0.25s3.25-1.333,3.25-1.333l4.833-2.417l4.167-2.25
		l2.083-1.333c0,0,0.584-0.333,1.417-0.25s3.917,1.583,4.5,1.75s3.5,1.333,3.75,1.333s0.75,0.25,1.583,0.167
		s7.833-2.167,7.833-2.167l2.834-2.417l3.083-3.917l6.75-8.583l7.333-6.833l9.75-11.833l3.251-0.417l4.917,0.583l5.5,1.25
		l5.083,1.083l3.584,0.75c0,0,3.333,0.5,3.833,0.583s4.583,0.833,4.583,0.833s4.417,0.833,4.667,0.917s4.75,0.667,4.75,0.667
		l3.583-0.833l3.584-2c0,0,1.084,0.167,2.25-0.5s1.916-1.5,2.166-1.583s1.084-0.917,1.417-1s4.668-3.25,4.668-3.25l1.75-1.583
		l2-1.833c0,0,1.166-1.083,1.583-1.25s3.083-1.167,3.083-1.167l2.584-0.75c0,0,4.582,0.167,4.916,0.25s2.417,0.583,2.417,0.583
		l3,0.75l2.917,0.917c0,0,1.416,0.583,1.666,0.833s1.75,1.417,2,1.583s2.417,1,2.417,1l4.417,1.25l7,1.917l2.916,0.417
		c0,0,0.833,0.416,1.25,0.583s1.75,0.25,1.75,0.25l2.251,0.167l2.333-0.5l1.583-0.5l0.917-0.75l1.167-0.667l3-0.083l1.833,0.083
		l1.618,0.417"/>
</g>
<g id="stars">
	<circle id="Altair" fill="#FF0000" cx="438.167" cy="84.021" r="0.25"/>
	<circle id="Tarazed" fill="#FF0000" cx="478.062" cy="61.719" r="0.25"/>
</g>
</svg>
