<?xml version="1.0" encoding="utf-8"?>
<!-- Generator: Adobe Illustrator 16.0.4, SVG Export Plug-In . SVG Version: 6.00 Build 0)  -->
<!DOCTYPE svg PUBLIC "-//W3C//DTD SVG 1.1//EN" "http://www.w3.org/Graphics/SVG/1.1/DTD/svg11.dtd">
<svg version="1.1" id="svg" xmlns="http://www.w3.org/2000/svg" xmlns:xlink="http://www.w3.org/1999/xlink" x="0px" y="0px"
	 width="1029.12px" height="683.52px" viewBox="0 0 1029.12 683.52" enable-background="new 0 0 1029.12 683.52"
	 xml:space="preserve">
<image overflow="visible" width="4288" height="2848" xlink:href="CG05_20050610_150000.JPG"  transform="matrix(0.24 0 0 0.24 0 0)">
</image>
<g id="gcp">
	<circle id="blotch" fill="#FF0000" cx="30.723" cy="282.442" r="0.25"/>
	<circle id="kaidin-cairin" fill="#FF0000" cx="660.642" cy="174.471" r="0.25"/>
	<circle id="splitrock" fill="#FF0000" cx="625.501" cy="237.958" r="0.25"/>
	<circle id="cluster" fill="#FF0000" cx="632.376" cy="245.333" r="0.25"/>
	<circle id="nipple" fill="#FF0000" cx="514.333" cy="224.25" r="0.25"/>
</g>
<g id="horizon">
	<path fill="none" stroke="#FF0000" stroke-width="0.25" stroke-miterlimit="10" d="M0.084,158.5h3.25l4.167,0.833l4.917,1.167
		l4.083,0.75l2.917,1l4.167,2.167l2.917,0.75l3,1.083l4,1.583l3.333,1.5l5.583-1.917l5.417-1.167l5.417-1.417l4-1l5.25-0.083
		l7,1.667l4.75,1l3.583,1.167l4.5,2l5.917,3.167l4.833,0.167l3.083-0.583l1.167-1l1.917-1.25L101.5,170l4.583,1.083h2.583l2.333-0.5
		l2.5-1.25l2.083-0.167h3.667l3.333-0.167l2.25-1.583l0.333-1.667l2.25-1.667l2.167-0.083l1.75,0.333l4.167-2.25l4.5-3.917
		l1.917-2.083l0.333-1.75l1.833-1.5l2.5-1.083l3.25-1.917l7.5-5.333l6.167-5.083l4.917-3.583l2.667-4.417l4.333-6.917l2.583-3.083
		l2.833-0.583l3.25-1.333l1-1.667l4.583-7.25l3.917-4.083l6.5-4.417l4.5-2.917l7.167-3l5.25-2.583l3.917-3.75L227,85.001l5.833-2.5
		l5.417-1.25l5.583-1.25l3.417,0.167l3.75,0.583l3-0.083l3.25-0.25h10l2.833,0.5l3.5,0.917l2.917-1l2.833-1.333l4.25-0.5l3.833,1.25
		l2.083,2.167l1.083,1.083l6.917-2.083l7-1.75l7.667-3.5l9.499-3.833l7.167-3.75l5-1.667l5.333-0.25l5.083-0.417l2.833-2.167
		l3-2.917l4.5-2.083l6.5-1.917l4.75-0.167l2.333,0.5l1.5,1.75l0.167,1.25l1.583,1.25l5,2.917l2.75,1.333l5.167,2.583l3.5,0.583
		l3.833-0.583l4.083-0.083l2.75,0.167l2.667,0.5l2.75,0.583l1.75,0.833l1.5,2.417l2.583,4.25l1.333,2.083l3.417-1.333l2.583-0.417
		h3.5l2.917,0.667l2.25-1.167l2.667-0.417l3.667-0.417l1.5,0.75l1.833,2.083l4.333,5.417l1.25,2.167l1.25,1.167l7.083,8l6.25,6.5
		l5.583,5.333l2.833,0.917l1.833,2l1.5,1.833l2.583,2l10.167,6.583l11.833,7.167l3.417,2.25l2.5,1.917l5.75,5.417l3.417,3.25
		l2.583,2.167l6.333,4.917l7,4.333l1,2.083l1.417,2.083l0.833,1.25l1.167,1.917l1.333,1.167l1.5,1.833l1.167,1.667l3.25-0.667
		l3.667-1.083l1-0.417l1.166,0.583l0.834,0.583l4-1.667l6.5-1.833l3.583,2.583l1.833-0.417l3.334-0.917l1.416-0.167l4.75,2
		l6.584,4.5l3.666,1.833l2.75,2.083l1.334,0.75l1.916-0.833l2.25-0.25l1.667,0.833l0.667,0.833l0.75-0.167l1.166-2.167l3.75-3.083
		l4.167-0.75l1.333,0.167l1.167-0.417l1.417-1l1.416-0.583l3-0.418l2.417-0.167l1.25,0.25c0,0,0.5,0.917,0.583,1.167
		s0.833,1.25,0.833,1.25l1.25-1.083l0.584-0.5l0.75-0.833h3.083l1.417-0.417l1.25,0.667l2,2.167l1.5,2.25l1.416,1.833l1.75,2.167
		l1.417,2.083l3,0.417l2.917-1.5l3.916-0.167l2.25,0.667l1.334-1.417l1.416-0.667l1.334,0.167l1.083-1.5l1.5-0.333l1.167-0.833
		l0.416-0.917l2.584,0.083l2.916,0.833l2.75,0.083l1.834-1l2.333-1.417l2.083-1.917l2.084-0.75l2.25-0.083l1.916-0.833l2.334-1.167
		l2.833,0.25l2.333,0.917l3.25,1.583l5.334,1.917l2.333,0.417l1.833-0.917l2.417-0.5l4.167,0.25l4.75-2.25l3-0.417l2.583-0.583
		l3.333-0.333l2.5,0.083l4-0.417l4.25-1.667l2.5-1.25l1.667-0.917l2.25-1.667l2.083-0.333l1.584,1.583l1.833,3.667l3.833,4.25
		l4.5,3.25l5.917,2.5l5.333,2.083l5.084,2.833l4.916,4.083l3.167,3.75l1.083,1.75l2,1.667l3.167,1.333l2.75,0.417l3.417-0.417
		c0,0,0.582,0.333,0.666,0.583s2.084,1.667,2.084,1.667l1.666,1.583l2.25,0.167l1.917-0.833l2.833-1.167l3.918-2.583l2-0.333
		l1.834,0.167l1.333,0.667l1.333-0.5l1.25-1.833l0.584-1.167h1.416h1.75l2.5-0.583l1.667-0.583l2.667-0.25l3.666,0.5l2.167,1
		l3.5,2.75l1.833,0.667l3.417,2.917l1.667,2.25l1.75,1.167l3.666,2l4,0.25l2.25-0.667l1.834-1.25l1.333-0.833l1.667-0.417h2.75
		l6.416-2.667l2.917-1.833l5.334-2.917l5,2.5l2.5,0.833l4.5,0.417l4.75-1.75l2.334-1.167c0,0,1.5-1.583,1.75-1.917
		s5.166-7.25,5.166-7.25l7.584-7l7.5-8.167l7.25-8.167l0.916,0.25l1.084,1.25l1.083,0.25l1.833-1.667l1.75-0.333l1.252,0.917
		l3.666,0.667l4,0.667l3.75,0.417l4.25,1.083l2.334,1.333l1.083,1.25l2.667,0.333l1.5-1.25l1.083-0.25l0.583,1.5l0.417,1.583
		l1.083,0.833l4.667-0.167l1.417-1.583l4.5-1.583l2.916-1.5l1.75-0.083l2.167-1.083l2.083-2.417l5.084-4l4.5-2.75l1.75-0.167
		l3.083-2.75l1.5-0.167l2.083,0.667l3.5,0.417h3l1.834,0.833l4.083,2.25l3.083,2.667l2.334,0.417l2.167-0.667l2,0.833l1.917,1.417
		l2.333,0.667l2.5,0.583l1.917,0.25l1.833,0.833l1.75,0.417l1.75-0.25l1.417-0.75l2.666-0.833l2.667-1l3.417,0.75l2.367,0.667"/>
</g>
</svg>
