<?xml version="1.0" encoding="utf-8"?>
<!-- Generator: Adobe Illustrator 16.0.4, SVG Export Plug-In . SVG Version: 6.00 Build 0)  -->
<!DOCTYPE svg PUBLIC "-//W3C//DTD SVG 1.1//EN" "http://www.w3.org/Graphics/SVG/1.1/DTD/svg11.dtd">
<svg version="1.1" id="svg" xmlns="http://www.w3.org/2000/svg" xmlns:xlink="http://www.w3.org/1999/xlink" x="0px" y="0px"
	 width="1029.121px" height="683.52px" viewBox="0 0 1029.121 683.52" enable-background="new 0 0 1029.121 683.52"
	 xml:space="preserve">
<image overflow="visible" enable-background="new    " width="4288" height="2848" id="image" xlink:href="CG05_20050914_190000.JPG"  transform="matrix(0.24 0 0 0.24 0 0)">
</image>
<g id="gcp">
	<circle id="blotch" fill="#FF0000" cx="32.773" cy="303.973" r="0.25"/>
	<circle id="nipple" fill="#FF0000" cx="515.062" cy="240.812" r="0.25"/>
	<circle id="splitrock" fill="#FF0000" cx="625.75" cy="254" r="0.25"/>
	<circle id="cluster" fill="#FF0000" cx="633" cy="261.188" r="0.25"/>
	<circle id="kadin-cairin" fill="#FF0000" cx="662" cy="189.938" r="0.25"/>
	<circle id="BBCFG" fill="#FF0000" cx="368.958" cy="657.917" r="0.25"/>
</g>
<g id="coast">
	<polyline fill="none" stroke="#FF0000" stroke-width="0.25" stroke-miterlimit="10" points="0.084,392.917 4.167,392.667 
		9.75,392.75 16.167,392.083 20.334,392 27.25,391.75 36.5,391.417 41.417,391.333 48.584,391.333 52.584,391 56.5,390.917 
		60.25,391 67.084,390.917 72.417,390.667 77.417,390.667 81.417,390.5 84,390.583 86.417,391.083 88.5,391.167 93.25,390.667 
		97.084,390.417 101.25,389.917 102.417,389.417 	"/>
	<polyline fill="none" stroke="#FF0000" stroke-width="0.25" stroke-miterlimit="10" points="106.583,386.917 108,386 111.083,385 
		114.25,384.5 	"/>
</g>
<g id="horizon">
	<path fill="none" stroke="#FF0000" stroke-width="0.25" stroke-miterlimit="10" d="M0.055,179.607l2.334-0.32l1.739-0.275
		l1.419,0.183l2.289,1.007l1.19,0.549l1.556,0.366l2.472,0.412l2.151-0.046l1.419,0.092l1.647,0.458l2.884,1.19l1.923,0.916
		l1.785,0.778l1.327,0.366l1.465,0.366l1.19,0.229l1.51,0.687l1.739,0.778l0.916,0.091l1.145,0.138l0.87,0.549l1.602,0.732
		l1.74,0.961l1.693,0.229l1.419-0.183l2.243-0.961l1.876-0.549l2.518-0.549l2.747-0.366l2.105-0.412l1.374-0.229l1.19-0.229
		l1.053-0.458l0.916-0.595l1.374-0.961l1.602-0.183l2.06,0.138h1.969l1.694,0.137l1.282,0.503l1.647,0.549l2.197,0.229l1.922,0.32
		l3.159,0.595l2.334,0.778l3.25,1.236l1.831,0.824l0.87,0.412l0.87,0.641l0.229,0.458l1.19,0.458l1.785,0.549l2.151,0.458
		l1.557,0.229l1.236-0.091l1.19-0.687l2.197-0.458l1.831-0.183l0.87-0.458l0.778-0.412l1.099-0.32l1.602,0.137l1.694,0.046
		l1.511,0.366l1.968,0.595l1.785-0.183l1.373-0.458l1.694-0.87l1.922-0.595l0.641-0.137l1.282,0.183h0.824l1.19-0.549l1.145-0.503
		l1.236-0.458l2.289-0.091l1.282,0.045l1.648-1.739l0.87-1.099l1.419-0.778l1.877-0.366l1.968,0.092l1.922,0.183l0.641-0.641
		l1.19-1.145l1.74-1.465l1.831-1.419l1.145-1.145l1.236-1.236l0.549-0.641l0.366-0.732l0.275-0.961l0.091-0.778l0.641-0.687
		l1.099-0.595l2.06-0.732l1.739-1.556l2.151-0.961l2.151-1.327l1.511-1.831l2.792-2.243l2.701-2.38l1.831-1.099l1.648-1.19
		l0.549-0.824l1.145-0.824l1.098-0.595l1.557-0.87l1.327-1.511l1.511-1.968l1.007-1.602l0.504-0.916l0.503-1.555l0.595-1.282
		l1.373-1.282l0.87-0.641l0.595-1.282l1.19-1.785l1.007-1.099l1.007-0.824l1.419-0.458l1.236-0.503l0.961-0.412l0.961-0.366
		l0.687-0.687l1.144-1.373l1.053-2.014l0.778-0.961l2.518-3.432l0.824-0.778l1.007-0.961l0.916-1.374l1.648-1.647l2.609-2.014
		l1.968-1.282l3.205-2.425l3.662-1.648l3.799-1.877l3.021-0.916l1.557-0.916l0.687-0.641l1.053-0.732l1.419-0.32l1.145-0.229
		l1.648-1.876l1.876-1.371l1.236-1.053l0.641-1.099l0.595-0.687l1.51-1.053l1.602-0.916l1.557-0.87l2.838-1.19l2.105-0.778
		l2.197-0.183l2.06-0.046l1.236-0.778l1.556-0.549l1.602-0.366l2.747-0.137l2.105-0.091l1.19,0.229l1.19,0.687l1.053,0.458
		l1.831-0.778l1.51-0.32l1.786,0.092l1.785,0.595h2.884h2.105l1.19-0.183l1.19-0.641l2.06-0.137l2.06,0.412l2.197,1.282l1.282,1.145
		l0.87,0.137l1.786-0.824l1.785-1.465l1.373-0.503l1.511-0.687l1.19-0.32l1.19,0.412l1.831-0.229l1.099,0.275l0.916,0.503
		l1.235,0.137l0.687,0.87c0,0,0.732,0.961,0.824,1.099c0.092,0.138,0.458,0.824,0.458,0.824l1.328,0.091l1.511-0.549l1.693-0.641
		l1.511-0.412l2.289-0.366l1.877,0.229l2.151-0.137l1.419-0.504l2.518-1.144l2.014-1.328l3.524-1.785l2.792-1.373l1.374-0.091
		l3.158-1.465l4.257-2.701l3.753-2.242l1.648-0.687l2.243-0.641l1.785-0.732h1.968l2.976,0.229l1.464,0.32l1.282,0.229l0.824-0.229
		l1.602-1.236l2.06-1.511l2.06-1.007l1.648-1.602l2.379-2.104l2.701-1.19l3.296-1.099l3.067-0.549l2.655-0.595l2.06-0.229
		l2.701,0.595l1.099,0.778l0.595,0.916l0.321,0.824l0.229,0.961l0.916,0.641l1.282,0.595l0.732,0.275l0.732,1.007l0.961,0.87
		l1.693,0.687l2.289,0.504l0.961,0.595l0.961,0.503l0.503,0.824l0.595,0.595l1.099,0.275l1.098,0.366l0.824,0.687l1.19,0.503
		l0.87,0.183l1.236,0.183l1.145-0.503l2.655-0.549l1.831,0.046l1.465-0.229h1.785l1.281,0.458l1.19,0.458l1.556-0.274l0.961-0.046
		l1.236,0.412l0.503,0.32l1.007-0.137l0.642-0.046l0.595,1.007l0.273,0.641l0.412,0.32l0.688,0.366l0.777,1.693l1.19,2.334
		l0.916,1.785l0.503,0.961l0.778-0.183l1.099-0.87l1.146-0.503l2.15,0.091l1.876,0.366c0,0,0.916,0.091,1.054,0.183
		c0.137,0.092,2.06,0.412,2.06,0.412l0.961,0.366l1.832-0.87l2.426-1.099l2.609-0.549l2.472-0.183l1.419,0.091l0.732,0.275
		l1.189,1.099l0.504,0.916l1.327,1.007l1.146,1.007l0.731,1.19l0.916,0.824l0.412,1.648l0.732,1.785l1.374,0.732l1.281,1.602
		l1.373,1.328l1.603,1.693l3.433,3.614l1.876,2.289l2.747,2.655l3.662,3.753l2.197,2.105l1.556,1.419l1.693,0.045l1.282,0.549
		l0.869,0.549l0.505,1.145l0.595,0.87l0.916,0.549l0.731,1.328l0.778,1.19l3.799,2.38l5.218,3.021l3.479,2.104l2.792,1.694
		l2.655,1.647l3.204,1.694l4.166,2.38l1.831,1.282l1.511,1.373l1.647,1.648l1.464,1.373l1.786,1.419l2.746,2.288l1.282,1.648
		l0.824,1.282l0.824,0.641l1.189,0.503l1.146,0.595l0.777,0.458l0.916,0.961l0.778,0.87l2.06,0.87l1.419,0.913l1.189,0.687
		l1.053,1.282l1.1,0.824l2.242,1.19l1.008,0.504l0.596,0.274c0,0,0.32,0.733,0.365,0.961c0.047,0.228,0.32,1.144,0.32,1.144
		l0.504,0.916l0.596,0.641l0.961,1.282l1.053,1.098l0.275,0.961l0.641,0.458l0.914,0.595l0.688,1.007l0.824,1.693l0.961,0.595
		l0.688,0.137l1.373-0.183l2.244-0.687l1.463-0.274l0.732-0.549l0.688-0.641h0.504l0.594,0.595l0.596,0.732l0.732,0.32l1.373-0.595
		l0.779-0.778l2.426-0.595l1.557-0.595l1.373-0.32l0.869-0.274l1.328-0.595l0.686-0.458l0.824,0.275l0.869,0.87l1.328,1.007
		l1.281,0.275l1.738,0.183l1.055-0.32l1.189-0.87l1.646-0.183l1.557,0.458l1.602,0.732l1.375,0.458l1.646,1.099l1.832,1.19
		l1.557,0.961l1.234,0.778l1.053,0.641l0.871,0.87l0.824,0.412l1.234-0.045l0.549,0.503l0.596,0.732l0.732,0.87l0.641,0.549
		l0.688,0.412l1.236,0.045h1.602l0.916-0.366l1.646-0.504l1.191,0.275l1.234,1.053l0.275,0.595l0.41,0.412l0.732-0.412l0.229-0.595
		l0.32-1.145l0.732-1.785l1.053-1.144l1.281-0.824l1.189-0.366l1.053-0.091l1.189,0.091l1.328,0.32l1.877-0.641l1.053-0.824
		l1.236-0.732l1.281-0.183h1.326l0.824-0.504l1.512-0.274l1.418-0.091l1.281,0.503l1.373,1.327l0.551,0.504l0.869-0.092l0.777-1.053
		l0.732-0.916l0.961-0.32l0.777,0.274h0.963l0.822-0.412l0.916-0.092l1.008,0.458l0.457,0.824l1.234,1.145l1.328,0.824l0.23,0.824
		l0.641,1.282l0.961,0.87l0.777,0.687l0.504,0.549l1.008,1.098l1.465,2.243l0.273,0.824l0.504,0.641l0.273,0.366l0.871-0.275
		l0.229-0.687l0.688,0.092l0.229,0.137l0.504-0.687l0.641-0.138l1.328-0.687l0.732-0.229h0.73l0.732,0.183l1.1-1.007l0.777-0.046
		l0.916,0.183l0.318,0.778h1.328l0.643-0.732l0.457-0.687l0.73-0.458l0.732-0.045l0.871,0.045l0.502-0.549l0.551-0.641l1.693-0.458
		l0.867-0.412l0.367-0.87l0.412-0.458l1.465,0.275l1.83-0.046h0.596l0.916-0.274l0.688,0.183l0.502,0.687l1.236,0.503l1.557-0.732
		l1.328-1.007l0.824-0.229l1.646-0.916l2.15-1.328l1.328-0.916l0.641-0.458l0.916-0.046l0.914,0.183l1.787-0.091l1.006-0.687
		l1.373-0.732l0.824-0.412h1.281l1.236,0.091l0.502,0.687l1.648,0.732l1.053,0.32l1.326,0.732l0.961,0.32h0.963l1.281,0.137
		l1.418,0.503l1.328,0.916l1.008,0.732l0.549,0.412l0.961-0.229l0.643-0.595l0.775-0.091l1.055-0.641l0.596-0.641l0.641-0.503
		l0.869,0.091l0.367,0.366l1.326-0.32l0.824-0.274l0.961,0.183l0.184,0.412l1.236-0.503l1.373-0.87l1.465-0.32l0.961-0.503
		l1.053-0.275l1.328,0.092l0.32,0.32l1.234-0.183l1.648-0.824l2.746-0.549l1.557-0.045l0.824-0.138l0.777,0.458l0.32,0.687
		l1.465-0.046l1.646-0.458l1.465-0.595l1.42-0.732l0.641-0.549h0.869l1.236-1.007l0.732-0.595l1.098-0.687h0.824h0.459l0.914-0.641
		l0.732-0.687l0.732-0.412h1.785l0.365-0.275l0.412-0.274l0.824,0.412l0.961,2.152l1.83,2.701l1.557,2.06l1.281,0.778
		c0,0,0.092,0.641,0.23,0.87c0.137,0.229,0.365,1.327,0.365,1.327l0.596,1.19l0.137,0.687l0.779,0.412l1.465,0.183l1.326,0.824
		l1.145,0.32l1.42,0.229l1.145,0.778l1.465,0.824l1.465,0.046l1.74,0.732l0.869,0.366h2.381l0.732,1.007c0,0,0.73,0.366,0.914,0.32
		s1.281-0.091,1.281-0.091l0.367,0.778l0.549,0.641l0.688,0.502l2.471,1.648l2.609,2.105l1.969,1.739l1.236,1.968l1.145,1.236
		l1.1,1.053l0.914,0.549l0.688,0.687l1.51,0.366l2.289,0.458l2.197,0.046l1.465-0.046l0.961,0.32l1.189,0.961l1.236,1.145
		l1.053,0.824l0.412,0.641l1.326,0.458l1.055-0.229l0.596-0.503l1.189-0.274l1.465-0.549l0.73-0.458l0.459-0.229l0.502,0.137
		l1.328-1.007l1.328-0.87l0.961-0.183l0.643-0.595l0.775-0.412L793.96,204l1.281,0.183l1.877,0.321l1.234-0.366l0.643-0.641
		l0.594-0.961l0.367-0.915l0.824-0.229l1.189-0.137h2.928l1.557-0.504l1.74-0.366h1.465l0.549-1.053h1.189l1.646,0.366l0.643,0.732
		l0.869,0.366l1.326-0.046l0.779,0.046l1.189,0.87l1.145,1.374l0.641,0.824l1.146,0.183l1.691,1.19l1.693,1.557l1.1,1.465
		l1.328,1.327l1.326,0.778l1.146,1.236l1.188,0.64l1.693,0.412l1.055-0.045l1.785,0.183l1.143-0.138l1.1-0.274h1.328l1.1-0.275
		l0.869-1.19l0.732-0.549l1.691-0.503h1.559l1.098,0.046l1.557-0.549l0.23-0.321l0.824-0.366l1.877-0.274l1.602-0.595l1.281-0.916
		l1.74-1.282l1.738-1.053l1.463-0.961l1.42-0.732l0.777-0.412l0.779-0.046l0.73,0.503l0.23,0.504l1.053,0.412l1.83,0.732
		l1.373,0.412l1.557,0.503l1.008,0.732l0.596,0.503"/>
	<polyline fill="none" stroke="#FF0000" stroke-width="0.25" stroke-miterlimit="10" points="875.433,205.239 877.63,203.774 
		879.599,202.539 882.392,199.655 883.81,197.687 884.771,195.672 885.687,194.345 886.787,193.612 887.335,192.789 
		887.748,191.919 889.212,191.049 889.99,190.225 890.63,188.989 891.179,188.165 892.919,186.929 894.978,184.824 897.177,182.398 
		899.191,180.201 900.244,179.285 901.525,177.866 902.669,176.813 903.31,175.76 903.767,175.028 905.324,173.702 906.376,172.329 
		907.613,171.001 908.3,170.085 908.802,170.131 909.214,170.772 910.177,171.55 911.503,171.596 912.191,170.955 913.06,170.452 
		914.205,169.765 915.257,170.177 915.669,170.772 916.355,171.138 917.5,171.138 918.371,171.275 919.285,171.871 920.292,172.557 
		923.587,172.283 927.021,172.466 928.623,172.786 930.271,173.198 931.964,173.244 933.794,174.297 934.115,175.029 
		934.666,175.624 935.763,176.265 937.32,176.082 938.464,175.579 939.333,174.892 939.974,174.708 940.982,174.892 
		941.166,175.853 941.302,176.631 941.806,177.364 942.447,178.142 943.453,178.233 945.285,178.508 946.566,178.508 
		947.894,177.913 948.535,177.455 950.226,176.357 951.416,175.67 954.072,174.664 955.261,174.251 956.863,174.16 958.144,173.839 
		959.748,172.787 961.853,170.772 965.285,167.935 968.261,165.143 970.642,163.175 972.38,162.9 973.572,162.671 974.578,161.801 
		975.402,160.932 976.5,160.611 977.828,160.703 980.3,160.932 984.283,161.252 986.205,161.069 988.722,161.847 992.156,164.09 
		993.894,166.379 994.353,166.791 995.955,166.562 996.871,166.516 998.197,166.928 999.662,166.379 1000.578,166.928 
		1002.042,167.981 1003.369,168.439 1004.332,169.171 1006.619,169.812 1007.671,169.4 1008.724,169.217 1010.556,170.132 
		1011.06,170.819 1011.974,171.14 1013.21,171.46 1014.447,171.46 1015.224,171.185 1016.46,170.59 1018.109,170.453 
		1019.437,169.995 1021.404,168.759 1022.181,168.484 1024.47,168.988 1026.255,169.446 1027.859,169.766 1029.048,170.086 	"/>
</g>
<g id="land">
	<path fill="none" stroke="#FF0000" stroke-width="0.25" stroke-miterlimit="10" d="M68.832,385.709l-68.748,1.208V164.743
		l25.795,8.725h36.913l28.859,2.014l25.503,2.685l26.175-17.555l32.215-30.096l20.134-22.147c0,0,28.188-10.738,30.202-11.409
		s34.899-4.698,34.899-4.698l43.624-3.355l23.49-13.424l29.53-6.71l38.255,3.355l32.215,9.396l21.477,14.765l20.134,21.477
		l40.269,30.873l21.476,11.975l16.779,6.817l27.517,2.685l33.557-4.698l24.149,10.738h23.502l24.161-3.355l32.215-4.698
		l14.765-3.355l14.094,4.027l15.437,14.155l15.437,6.763h18.792l16.107-3.468l14.765,3.468l13.423,3.914l18.121-6.711l21.366-3.966
		l14.875-22.314l20.135-5.935l20.805,0.671h18.121l10.738-6.041l16.778-1.342l20.135,4.698l21.477,7.948l10.624,3.461l-0.072,94.631
		l-68.27-12.081l-34.229-9.396v-9.382l7.383-9.41l2.014-5.644l-5.369-11.134l-20.135,3.583l-75.839,14.537v4.698l2.685,11.409
		l4.698,12.752l-2.014,8.054l-6.04,6.04h-18.121l-24.832,0.671l-8.054,1.342l-2.014,3.355l10.739,10.067l-2.014,9.396l-22.147,8.725
		l-20.806,5.369l-40.269,2.685l-59.731,0.671l-45.638-4.698l-31.544-2.014l-61.073-3.355l-96.645,0.671l-86.577-3.355
		l-102.014-1.342l-69.127-2.013l-60.402-6.041l-38.926-4.698H33.023l-3.788,4.027l3.788,10.738l7.622,11.292l16.779,18.238
		l16.107,19.299l-2.685,5.533l-12.752,4.698l1.342,7.383l6.711,8.054L68.832,385.709z"/>
</g>
</svg>
