<?xml version="1.0" encoding="utf-8"?>
<!-- Generator: Adobe Illustrator 16.0.4, SVG Export Plug-In . SVG Version: 6.00 Build 0)  -->
<!DOCTYPE svg PUBLIC "-//W3C//DTD SVG 1.1//EN" "http://www.w3.org/Graphics/SVG/1.1/DTD/svg11.dtd">
<svg version="1.1" id="svg" xmlns="http://www.w3.org/2000/svg" xmlns:xlink="http://www.w3.org/1999/xlink" x="0px" y="0px"
	 width="1029.121px" height="683.52px" viewBox="0 0 1029.121 683.52" enable-background="new 0 0 1029.121 683.52"
	 xml:space="preserve">
<image overflow="visible" enable-background="new    " width="4288" height="2848" xlink:href="CG05_20050623_200000.JPG"  transform="matrix(0.24 0 0 0.24 0 0)">
</image>
<g id="gcp">
	<circle id="blotch" fill="#FF0000" cx="27.12" cy="294.742" r="0.25"/>
	<circle id="kadin-cairin" fill="#FF0000" cx="658.359" cy="181.954" r="0.25"/>
	<circle id="splitrock" fill="#FF0000" cx="623.246" cy="245.65" r="0.25"/>
	<circle id="cluster" fill="#FF0000" cx="630.462" cy="253.105" r="0.25"/>
	<circle id="nipple" fill="#FF0000" cx="512" cy="232.25" r="0.25"/>
</g>
<g id="horizon">
	<path fill="none" stroke="#FF0000" stroke-width="0.25" stroke-miterlimit="10" d="M0,169.75l3.833,1.667l3.5,0.333l2.75,0.167
		L13.75,173l5.75,2.667l4.167,1.167l4.167,1.417l5.083,2.25L34,180.833l2.833-1.583l6.5-1.5l7.667-2l3-0.583l3.583-0.083l5,0.667
		l4.667,0.917l3.5,0.833l2.5,0.667l2.333,0.917l4.833,2.167l5.917,1.667l2.5-0.25L90.417,182l1.917-0.25h1.083l1.25-0.667
		l1.417-0.333L99,180.917l3.083,0.583l2.416,0.333l2.5-0.917l1.917-0.75l2.167-0.5l2.917,0.25l2.583-1.083h1.75l2-0.167l1.5-2.75
		l1.667-1.083l4.083-0.25l2.083-0.25l1.583-1.833l4.333-2.833l2.5-2.917l0.75-2.417l1-1.083l2.75-0.917l1.583-1.75l3.167-1.167
		l3.333-3.25l6.25-4.917l1.75-0.667l0.917-1.667L161.25,148l2.583-1.5l1.333-1.917l2.917-4.166l1.583-3.083l1.833-1.167l2.333-4.333
		l1.917-1.333l4.917-1.25l2.917-5.667l7.083-8.417l8.5-5.833l7.75-3.667l5.583-2.75l6.5-4.499l5.917-4.417l7.333-2.667l10.667-1.667
		l4.333,0.5h2.833l2.75-0.25l4.25,0.167l4,0.083l2.083-0.333l3.333,0.25l2.167,1.25l1.167-0.167l4.583-0.833l2.083-1l3.5-0.333
		l3.917,1.083l1.917,1.5l0.917,1.083l6.25-1.25l6-1.667l8.167-2.417l5.333-3.833l5.667-1.75l8-4.25l6.417-1.333l2.667-0.5h2.583
		l4-1.167l3.75-2.583L347.666,70l2.167-1.667l6.417-1.583l4.5-1.083l3.667,0.417l1.833,2.167l0.833,1.75l1.333,1.167l3,2
		l2.667,0.583l3.667,1.75l4.583,2.667l3.75-0.25l5.75-0.917l3.667,0.5l4,0.917l2.833,1.333l2.5,3.167l1.75,3.417l1.167,2.083
		l3.25-1.5l3.167-0.25l3.333,0.417l2.833-0.167l3.333-1.5l2.917-0.75l2.25,0.417l1.917,1.417l3.167,3.25l2.667,3.083l0.667,2.167
		l1.75,1.167l2.833,3.75l5.417,5.667l4.083,4.167l4.25,4.25l2.5,1.833l2.5,1.25l2.083,1.167c0,0,1.334,1.583,1.417,1.833
		s1.5,1.667,1.5,1.667l5.333,4.083l6.167,3.75l4.75,2.75l6.5,3.833l5,3.417l4.083,4.5l2.75,1.667l2.25,1.917l1.666,2.166l4.833,3.25
		l4.417,3.5l4.083,2.667l2.168,1.25l1.082,0.583l0.418,1.417l1.75,2.917l3.332,3.75"/>
	<path fill="none" stroke="#FF0000" stroke-width="0.25" stroke-miterlimit="10" d="M596.998,174.085l5.584-1.833l3-0.75l1.082,0.25
		c0,0,0.668,1,0.918,1.25s0.582,1.167,0.582,1.167l0.918-0.583l1.082-1.417l1.5-0.083l1.75-0.167l1.168-0.5l1.416,0.917l2.834,3.167
		l3.582,4.167l1.668,1.667l1.666,2.333l4.75-2l2.75-0.667l2.416,0.333l1.084,0.917l2.084-1.75l1.25-0.083l1.25-1l1.666-0.333
		l0.916-0.583l0.75-1.167l2.168-0.583l2.832,0.167l2.25,1.25l1.834-0.667l2.166-1.167l4.834-3.667l2.166-0.25l1.668-0.083
		l1.582-0.917l1.5-0.667h2l2.834,0.75l3.25,1.083l2.5,0.75l2.25,1l1.166,0.667l1.834,0.333l2.916-0.75l1.418-0.5
		c0,0,2.332-0.417,2.582-0.333s4.5-0.583,4.5-0.583l2.334-1.25l2.916-0.417l4.168-1l3-0.25l1.416,0.083l2.25,0.5l4-1.5l4.666-2.333
		l2.75-1.917l2.25-1h1.75l1,0.917l1.918,4l2.916,3.917l2.166,1.417l4.668,2.583l2.916,1.667l5.5,2.167l5.25,2.417l4.584,3.166
		l4.25,3.833l1.75,2.583l1.166,1.333l2.418,2.167l2.75,1.167l2.5-0.5l1.916-0.333l1.666,0.333l1.168,1.333l2.5,1.417
		c0,0,1.5,0.417,1.75,0.5s2.416-0.333,2.416-0.333l3.916-2.417l2.668-1.083l1.916-0.5h2.25l2.084-0.417l1.666-1.917l0.584-0.75
		h3.582l2.168-1.25l2.166-0.667l1.834-0.25l2.666,1l2.084,0.75l1.332,0.083l1.334,0.917c0,0,1.5,1.083,1.584,1.333
		c0.082,0.25,2.332,1.583,2.332,1.583l3.834,3.667l3.334,3.333l2.332,1.333h2.5l5.334-0.667l2.168-1.5l1-0.917l2.666,0.083
		l1.666,0.417l3.5-2.25c0,0,3.668-1.75,3.918-1.833s3.166-2.083,3.166-2.083l2.666-1.667l1.418-0.167l2.332,1.417l3.75,1.417
		l2.668,1.25l8.666-2.917l2.75-1.5l4.916-8.25l7.584-7.583l4.334-4.25l10.584-11.75l2.75,1.5l3.584-2.167l5,2.417l3.25-0.083
		l4.25,0.667l4.75,1.167l1.582,0.833l1.5,1.583l2.084,0.333l1.75-1.25l1.75-0.083l0.166,0.917l1.584,2.083l1.416,0.417l4.75-0.833
		l2.584-1.833l4.666-1.417l3.084-0.833l6.584-5.25l5.666-4.667l2.584-0.333L974,152.92l2-1l2,0.667l3.418,0.25l4.5,0.5l3.25,1.25
		l3.832,2.75l1.834,1.667l2.916,0.583l1.002-1l1.334,0.167l1.582,1.333l1.668,0.583l2.166,0.083l3.5,0.583l1.416,1.167l1.668,0.833
		l1.916,0.25l1.25-1l1.416-0.5h1.334l1.334-1l2.082-0.5l3.084,0.75l4.619,0.667"/>
</g>
</svg>
