<?xml version="1.0" encoding="utf-8"?>
<!-- Generator: Adobe Illustrator 16.0.4, SVG Export Plug-In . SVG Version: 6.00 Build 0)  -->
<!DOCTYPE svg PUBLIC "-//W3C//DTD SVG 1.1//EN" "http://www.w3.org/Graphics/SVG/1.1/DTD/svg11.dtd">
<svg version="1.1" id="svg" xmlns="http://www.w3.org/2000/svg" xmlns:xlink="http://www.w3.org/1999/xlink" x="0px" y="0px"
	 width="1029.12px" height="683.52px" viewBox="0 0 1029.12 683.52" enable-background="new 0 0 1029.12 683.52"
	 xml:space="preserve">
<image overflow="visible" width="4288" height="2848" id="image" xlink:href="CG05_20050811_190000.JPG"  transform="matrix(0.24 0 0 0.24 0 0)">
</image>
<image overflow="visible" width="4288" height="2848" id="image-contrast" xlink:href="CG05_20050811_190000-b.JPG"  transform="matrix(0.24 0 0 0.24 0 0)">
</image>
<g id="terminus">
	<polyline fill="none" stroke="#FF0000" stroke-width="0.25" stroke-miterlimit="10" points="119.334,385.167 140.001,383.5 
		168.167,382.333 185.001,381.667 203.334,380.667 213.167,380.333 222.001,380.5 231.167,380.167 242.501,379.667 258.334,379.833 
		268.167,379.667 285.501,379.333 294.834,379.667 308,379.333 319.834,379 341.167,377.667 357.5,378.667 374.667,379.5 
		397.5,380.167 419.667,381 433.833,381 476.833,382.666 489.5,383.333 505.167,384.166 518.667,384.5 530.5,384.333 542.167,386 
		553,386.166 565.167,386.666 577,387.833 591.5,389.166 604.666,390.666 610,391.666 615.833,392.166 621.833,392.166 
		629.666,392.666 640.166,393.166 651.5,394 660.166,394.5 668.833,395.833 678.166,397.333 682.166,399.5 689.333,401.166 
		695.999,401.833 700.999,402.833 705.999,404.833 714.166,407.833 719.499,409.833 724.666,411.333 728.166,411.5 734.333,412 
		741.333,413.833 746.166,415.666 751,418.166 760.333,419.833 768,420.333 778.167,421.166 784.833,421.5 791.333,422.5 
		802.667,424.5 812,427.166 819.667,429.333 828.833,432.333 832.833,434 836.5,435.166 843.167,436.166 849.333,437.166 854.5,438 
		861.667,439.666 869.833,441.5 876,441.833 882.5,442 888.5,443.166 	"/>
</g>
<g id="horizon">
	<path fill="none" stroke="#FF0000" stroke-width="0.25" stroke-miterlimit="10" d="M0.167,176.151l3.261-0.511l2.557-0.191
		l1.726,0.639l2.238,1.021l1.854,0.574l2.557,0.511l1.662-0.319h1.534l2.557,0.574l3.132,1.596l4.412,2.106l1.534,0.128l1.854,0.445
		l1.79,0.958l2.237,0.319l1.854,0.894l2.685,1.404h1.662l2.301-0.318l2.43-1.086l4.283-0.957l2.557-0.575l2.045-0.447l0.895,0.319
		l1.343-0.447l1.342-1.021l1.278-0.702l2.046-0.383h3.324l1.854,0.319l3.964,1.02l5.753,0.893l4.283,1.341l3.58,1.468l1.598,0.766
		l0.959,0.767l1.917,0.637l1.854,0.959l2.685,0.509l2.045-0.829l1.598-0.447l3.26-0.637l1.982-0.959h1.662l2.429,0.32l1.854,0.51
		l2.621,0.447l2.749-1.149l2.877-1.085l1.981,0.063l1.854-0.575l2.877-0.957l2.109,0.063l1.087-0.383l0.511-0.894l1.663-1.404
		l2.045-1.084l2.43-0.128l2.173-0.063l1.278-0.064l1.151-1.532l2.812-2.361l1.982-1.788l1.47-1.148l0.703-0.958v-1.341l0.895-1.596
		l1.854-0.51l1.215-0.766l3.004-2.106l6.521-5.043l6.137-4.915l5.817-3.958l3.388-4.467l1.407-3.383l1.662-1.659l1.791-2.17
		l1.981-3.064l3.068-1.34l2.493-0.958l1.79-2.17l2.621-4.723l5.37-5.873l4.411-3.575l6.137-3.766l6.648-2.553l4.028-2.106
		l2.813-1.723l1.854-1.276l4.922-4.532l5.37-3.383l4.922-1.596l3.58-0.511l3.196-1.021l3.261-0.191l3.196,0.127l2.557,0.574
		l3.964-0.319l3.324,0.319l3.516,0.255l2.429-0.383l1.981-0.958l3.452,0.511l1.726,1.085l2.366,1.404l2.493-1.213l2.493-1.659
		l2.109-0.702h1.726l1.023,0.319l1.47-0.064l2.365,0.702l1.151,1.149l1.47,1.851l1.407-0.319l3.899-1.021l3.644-0.574l2.558,0.064
		l1.854-0.128l4.986-2.936l6.201-3.447l2.685-0.383l4.858-3.063l6.648-3.255l4.794-1.341l3.9,0.064l2.109,0.446h1.79l1.918-1.34
		l3.835-2.745l3.389-2.681l2.685-1.915l3.898-1.149l4.22-0.958l2.685-0.574l2.876,0.383l1.598,0.83l0.448,0.958l0.831,1.532
		l0.703,1.213l1.598,0.574l1.087,0.766l0.959,1.021l2.045,0.575l1.662,0.51l1.662,0.575l1.023,1.085l0.767,1.148l1.534,0.191
		l1.726,0.894l0.959,0.766l1.598,0.51l2.301-0.51l2.046-0.702l2.429-0.127l3.196,0.063l2.429,0.383l1.917,0.191l2.302,0.447
		l2.238,1.34c0,0,1.917,2.043,2.045,2.362c0.128,0.318,0.832,2.361,0.832,2.361l1.342,2.361l1.214,0.191l1.407-0.894l2.621-0.191
		l2.813,0.639l2.429,0.511l1.79-0.128l2.238-1.404l2.557-0.639l3.771-0.191l1.918-0.063l0.767,0.766l0.448,1.149l1.79,1.085
		l1.47,1.404l1.023,1.213l0.895,1.723l0.384,1.532l0.703,0.83l1.854,1.66l2.749,3.127l4.347,4.596l5.498,5.936l5.114,4.915
		l1.598,0.894l2.429,0.83l1.662,1.659l1.215,2.234l1.79,1.66l4.347,3.064l4.986,2.744l9.206,5.49l7.927,4.723l3.26,3.191
		l2.045,1.787l3.708,2.68l2.237,2.554l0.832,1.468l2.301,0.957l1.661,1.15l1.407,1.404l2.109,1.021l2.237,1.66l1.854,1.66
		l2.749,1.34l1.215,0.383l0.638,1.149l0.64,1.916l1.791,1.85l1.149,1.979l0.703,0.639l0.897,0.575l1.148,2.361l1.215,1.15
		l1.599,0.254l2.748-1.085l2.11-0.638l1.406-0.958l0.831,0.574l0.448,0.766l0.83,0.575l1.791-0.702l2.365-0.83l3.771-1.468
		l2.174-0.894l0.768-0.319l1.533,1.15l1.088,0.829l0.83,0.639l1.92-0.192l1.47-0.51l1.342-0.127l2.557,0.064l3.644,1.34l4.986,3.19
		l3.452,1.979l1.791,0.383l1.149,1.342l0.385,1.02l0.51,1.15l2.749-0.384l1.215-0.191l1.854-0.639l1.79,0.127l0.639,1.022
		l1.406,0.445l0.704-0.893l0.831-2.234l2.364-1.915l2.558-1.021l1.854-0.063l2.046-0.192l2.237-0.766l1.982-0.83l3.068-0.51h2.301
		l1.727,1.34l0.959,1.212l0.957-0.83l0.834-1.277l1.342-0.383l1.789-0.319l1.406-0.51l1.854,1.021l1.789,2.297l1.919,2.362
		l2.619,2.936l1.601,1.404l0.448,2.17l0.894,0.83l0.896-1.022l2.109-0.574l1.342-0.702l1.599-0.51l1.727-0.32l1.344,0.32
		l1.021,0.446l1.407-0.575l0.958-0.766l1.343-0.766l2.621-0.574l1.022-1.213l1.406-1.213l2.431-0.127l2.749,0.319l2.557,0.83
		l1.791-0.958l3.515-1.914l2.687-1.852l1.406-0.702h1.916l2.174-0.575l1.279-0.51l0.83-0.766l1.791-0.191l1.662,0.319l1.021,1.149
		l1.536,0.511l4.09,0.957l2.749,1.277l1.343,1.085l1.791,0.256l2.044-1.213l1.854-1.212l1.918,0.383l0.896-0.254l0.959-0.192
		l0.319,0.446l0.895,0.255l0.832-0.894l0.959-0.83l1.278-0.064l1.406-0.766l1.15-0.127l1.278,0.445l1.279-0.191l2.046-1.021
		l2.364-0.319l2.365-0.127l0.769,0.575l0.704,0.51l2.107-0.702l1.981-0.766l1.664-0.958l1.597-0.51l2.302-1.532l1.534-0.447
		l1.982-0.958l0.894-0.83l1.534-0.446l0.96,0.192l1.407,1.468l1.085,2.17l1.728,2.553l1.086,1.596l2.046,1.978l2.301,1.788
		l6.65,2.872l4.282,1.659l4.283,1.979l4.411,3.191l4.604,3.575l2.173,2.681l0.896,1.468l1.47,0.83l1.725,1.213l1.279,0.702
		l3.388,0.445l1.79,0.192l1.536,0.639l2.812,1.404l1.149,1.148l0.576,0.575l1.981,0.191l1.726-1.148l2.431-1.212l1.853-1.086
		l3.197-1.276l1.661-0.702l1.919,0.192l1.789,0.191l1.215-0.638l1.343-2.17l1.086-0.511l1.406,0.128l3.389-0.319l1.279-0.575
		c0,0,1.087,0,1.279,0c0.19,0,1.276-0.51,1.276-0.51l1.087-0.766h0.64l1.853,0.766l1.088,0.639h1.216l1.278,0.51l1.599,1.788
		l1.088,0.893l1.533,0.575l2.492,2.17l1.598,2.17l1.919,1.341l2.685,2.233l2.941,0.255l2.685,0.128l2.94-0.255l2.046-1.213
		l1.149-1.147l1.47-0.257l2.367,0.065l1.278-0.51l1.023-0.702l2.493-0.575l3.835-2.234l2.94-1.788l1.406-0.766l1.088-0.702
		l0.703-0.191l0.768,0.319l2.174,1.404l2.748,0.511l2.174,1.085l1.214,0.446l3.516-0.829l2.622-0.191l3.964-2.233l2.365-2.745
		l1.918-2.617l1.47-2.681l1.022-0.957l1.47-1.34l1.471-1.659l2.749-2.936l2.813-2.554l3.579-3.893l2.237-2.363l3.453-4.084
		c0,0,2.492-2.362,2.685-2.489c0.191-0.127,1.086-1.659,1.086-1.659l0.448-0.894l0.512-0.192l0.512,0.766l0.511,1.022l0.64,0.446
		l1.215-1.084l1.598-0.575l0.96-0.575l0.895-0.254l0.768,0.893l1.406,0.575l1.406,0.127l0.958,0.83l0.703,0.384"/>
	<polyline fill="none" stroke="#FF0000" stroke-width="0.25" stroke-miterlimit="10" points="929.798,169.385 931.716,169.13 
		933.443,169.13 934.592,169.513 935.871,171.045 936.575,172.066 937.854,172.449 939.451,172.257 940.409,171.428 
		941.306,170.726 942.137,170.917 942.646,172.257 943.479,173.981 945.141,174.619 946.865,174.747 948.976,174.045 
		949.999,173.087 951.021,172.449 953.194,171.812 955.432,170.662 957.096,170.151 959.269,170.151 961.634,168.173 
		964.958,165.493 967.323,163.96 968.857,161.854 970.2,160.386 972.31,159.684 974.355,159.237 975.57,158.726 976.274,157.896 
		976.848,157.258 977.808,156.812 980.109,156.876 984.328,157.131 989.059,158.087 992.639,159.428 995.195,161.854 
		996.537,162.62 997.943,162.62 999.671,163.002 1000.182,163.386 1001.523,162.557 	"/>
	<polyline fill="none" stroke="#FF0000" stroke-width="0.25" stroke-miterlimit="10" points="1009.451,165.108 1011.242,165.429 
		1012.712,166.449 1013.224,166.96 1014.886,167.471 1016.677,167.535 1018.081,166.769 1019.041,166.131 1020.511,165.939 
		1021.087,165.939 1022.173,165.045 1023.067,164.662 1024.155,164.535 1025.752,164.854 1027.543,165.301 1029.271,165.3 	"/>
</g>
</svg>
