<?xml version="1.0" encoding="utf-8"?>
<!-- Generator: Adobe Illustrator 16.0.4, SVG Export Plug-In . SVG Version: 6.00 Build 0)  -->
<!DOCTYPE svg PUBLIC "-//W3C//DTD SVG 1.1//EN" "http://www.w3.org/Graphics/SVG/1.1/DTD/svg11.dtd">
<svg version="1.1" id="svg" xmlns="http://www.w3.org/2000/svg" xmlns:xlink="http://www.w3.org/1999/xlink" x="0px" y="0px"
	 width="636px" height="424px" viewBox="0 0 636 424" enable-background="new 0 0 636 424" xml:space="preserve">
<g id="image">
	
		<image overflow="visible" enable-background="new    " width="2544" height="1696" xlink:href="CG06_20060712_195953.JPG"  transform="matrix(0.25 0 0 0.25 0 0)">
	</image>
</g>
<g id="gcp">
	<circle id="BBCFG" fill="#FF0000" cx="144" cy="404.188" r="0.25"/>
	<circle id="kadin-cairin" fill="#FF0000" cx="307.375" cy="163.812" r="0.25"/>
	<circle id="nipple" fill="#FF0000" cx="234.625" cy="187" r="0.25"/>
	<circle id="splitrock" fill="#FF0000" cx="289.688" cy="194.812" r="0.25"/>
	<circle id="cluster" fill="#FF0000" cx="293" cy="198.25" r="0.25"/>
	<circle id="T20060712-01" fill="#FF0000" cx="154.125" cy="212.625" r="0.25"/>
	<circle id="T20060712-02" fill="#FF0000" cx="160.188" cy="137.562" r="0.25"/>
	<circle id="T20060712-03" fill="#FF0000" cx="154" cy="111.5" r="0.25"/>
	<circle id="T20060712-04" fill="#FF0000" cx="42.688" cy="169.062" r="0.25"/>
</g>
<g id="terminus">
	<polyline fill="none" stroke="#FF0000" stroke-width="0.25" stroke-miterlimit="10" points="31.375,254.938 35.438,254.688 
		41.375,254.375 46.875,253.938 51.375,253.75 58.375,253.312 64.5,253.125 72.938,252.875 78.25,252.562 82.875,252.312 
		84.812,252.188 	"/>
	<polyline fill="none" stroke="#FF0000" stroke-width="0.25" stroke-miterlimit="10" points="103.625,251.062 108.75,250.75 
		112.438,250.562 114.188,250.5 117.25,250 120.062,249.938 124.312,249.875 	"/>
	<polyline fill="none" stroke="#FF0000" stroke-width="0.25" stroke-miterlimit="10" points="124.25,251.125 127.125,251.312 
		130.688,251.375 134.875,251.562 138.875,251.438 145.312,251.438 149.188,251.5 155.062,251.375 159.812,251.5 164.812,251.688 
		169.375,251.625 174.375,251.875 181.688,252.062 190.312,252.062 193.5,252.125 197.25,252.312 200.875,252.375 207.375,252.562 
		212.312,252.688 217.188,252.75 221.688,253 	"/>
	<polyline fill="none" stroke="#FF0000" stroke-width="0.25" stroke-miterlimit="10" points="236.375,253.625 243,253.938 
		250.562,254.375 256.688,254.438 263.5,254.438 267.688,254.812 272.625,255.25 276.375,255.562 279.938,256.062 284.938,256.562 
		291.625,257.125 295.938,257.625 301.25,258.188 304.625,258.812 307.312,259.188 309.688,259.5 313.562,259.875 319.938,260.562 
		324.812,261.062 330.875,261.938 335.875,262.562 339.875,262.938 344,263.25 347.938,263.5 349.938,263.625 351.25,264.062 
		352.438,265 354.75,265.625 357.75,266.062 359.938,266.75 361.875,267.062 363.688,267.812 365.188,268.375 367,269.062 
		369.5,269.875 372.438,270.562 374.312,270.75 375.5,270.938 376.5,271.062 376.938,271.125 	"/>
	<polyline fill="none" stroke="#FF0000" stroke-width="0.25" stroke-miterlimit="10" points="376.875,272.562 378.75,273.062 
		380.562,273.562 381.812,274.062 382.562,274.375 383.312,274.438 384.375,275 386.562,275.875 389.25,277.125 390.812,278.062 
		393.625,279.188 396.125,280.375 398.375,281.188 401.25,282.125 403.125,283.125 403.812,283.625 404.562,284.062 
		405.938,284.562 407.625,285.5 409.375,286.5 410.375,286.812 411.5,287.75 412.312,288.812 413.188,289.625 415.25,290.312 
		416.625,291.062 417.562,291.438 418,292.312 419,293 419.312,293.688 420.25,295.125 420.812,295.812 422.25,296.75 423.5,297.25 
		424.062,297.938 425.125,298.75 426.438,299.312 427.812,299.812 429.062,300.188 430.5,300.812 431.438,301.375 433,301.938 
		435.5,302.25 436.312,302.688 437.375,303.125 437.938,304.188 	"/>
</g>
<g id="horizon">
	<path fill="none" stroke="#FF0000" stroke-width="0.25" stroke-miterlimit="10" d="M0.081,152.36l1.879,0.164l2.166,0.49
		l2.778,0.572l2.86,0.94l1.92,0.98l1.879,0.817l1.103,0.613l1.144,0.082l1.512-0.123l1.757-0.45l1.144-0.327l1.43-0.123l2.002,0.204
		l1.961,0.245l1.675-0.327l0.98-0.327l1.308-0.368l1.471-0.205l1.226-0.327l1.634-0.123l0.98-0.817l0.694-0.491l0.899-0.327h1.879
		l0.817-0.041l0.531-0.327l1.144-0.817l1.348-0.899l0.858-0.858l0.694-0.776l0.286-0.531l0.204-0.776l0.817-0.572l1.839-0.858
		l2.9-1.756l2.656-2.084l3.677-2.655l2.779-1.837l0.899-1.634l0.531-1.43l0.776-0.572l0.653-0.327l0.858-1.389l0.735-1.062
		l1.021-0.49l1.471-0.327l0.572-0.368l0.653-0.613l1.553-2.492l2.37-2.247l1.92-1.675l2.819-1.798l2.941-1.348l2.411-0.98
		l2.819-1.062l2.125-1.43l1.838-1.634l2.083-1.348l2.737-1.021l2.411-0.49l1.471-0.327l1.307-0.164h1.308l1.389,0.041l1.389,0.449
		h1.062l0.817-0.164l1.226,0.082l1.144,0.286l0.939,0.123h1.308l0.939-0.45l0.98-0.164l1.021,0.123l0.817,0.45l1.062,0.858
		l1.021,0.041l0.776-0.368l0.98-0.735l1.308-0.491l1.634,0.082l0.981,0.205l1.103,0.817l0.735,0.654l0.817,0.449l1.43-0.368
		l1.226-0.408l1.021-0.205h1.307h1.307l1.675-0.49l2.329-1.185l2.002-1.021l1.062-0.245l1.593-0.776l3.269-1.675l2.165-0.817
		l1.594-0.409l1.266,0.163l1.226,0.123l1.185,0.123l0.653-0.123l0.981-0.572l2.001-1.43l2.002-1.062l1.675-0.817l2.042-0.572
		l1.838-0.368l1.226-0.041h1.021l0.817,0.327l0.49,0.531l0.123,0.531l0.245,0.613l0.735,0.49l1.43,0.858l1.675,0.898l1.389,0.695
		l1.879,1.185l0.899,0.572l1.062-0.041l1.308-0.327l1.593-0.164h1.266l1.471,0.164l2.614,0.694l1.348,1.593l0.654,1.308l0.49,1.185
		l0.49,0.613l0.858-0.164l0.98-0.368l1.308,0.041l1.226,0.245l0.98,0.123l1.389,0.041l1.021-0.45l0.981-0.327l1.552-0.082
		l1.267,0.123l0.531,0.613l1.308,1.511l0.98,1.021l0.49,0.858l0.204,0.654l0.327,0.449l1.185,1.348l1.593,1.798l2.166,2.41
		l2.124,2.125l1.879,2.002l1.103,0.939l1.185,0.205l0.531,0.327l0.613,0.899l0.776,1.103l0.654,0.898l1.552,1.062l2.778,1.593
		l2.002,1.267l2.369,1.348l1.757,1.062l1.879,1.185l1.103,0.858l1.634,1.756l1.103,0.776l1.185,0.939l1.185,1.471l1.062,1.062
		l0.735,0.204l0.49,0.327l0.45,0.776l0.572,0.531l0.939,0.654l1.389,0.98l1.267,0.654l0.776,0.449l0.49,0.572l0.49,0.858
		l0.327,0.817l1.103,1.634l0.858,0.858l0.654,0.776l0.818,0.695l0.695-0.082l0.899-0.409l1.021-0.245l0.695-0.286h0.653l0.531,0.245
		l0.409,0.205l0.858-0.082l0.613-0.368l1.389-0.408l1.144-0.409l0.94-0.449h0.531l0.45,0.408l0.327,0.409l0.286,0.286l1.103,0.082
		l1.062-0.204l1.103-0.245l1.43,0.327l1.185,0.49l1.553,1.185l1.226,0.817l0.939,0.735l0.776,0.286l0.409,0.286l0.245,0.49
		l0.327,0.695l1.226,0.245l1.226-0.164l0.572-0.123l0.327-0.041l0.613,0.082l0.613,0.082l0.817-0.164l0.531-0.572l0.694-0.899
		l1.021-0.531l0.776-0.163h0.98h0.735l0.572-0.245l0.817-0.368l0.49-0.164l0.776,0.041l0.654-0.327l1.226-0.123l0.98,0.286
		l0.572,0.572l0.531,0.245l0.735-0.49l0.858-0.286l1.185-0.327l0.939,0.368l0.94,1.103l1.226,1.512l1.144,1.389l0.613,0.817
		l0.776,0.817l0.572,0.123l0.939-0.572l0.531-0.408l0.654-0.245l0.817-0.164h0.695c0,0,0.368,0.246,0.49,0.286
		s0.572-0.082,0.572-0.082l0.572-0.408l0.654-0.164l0.613-0.041l0.409-0.449l0.531-0.368l0.694-0.123l0.368-0.449l0.286-0.327
		l1.226,0.123l0.817,0.082l1.021,0.368l0.694,0.041l0.123-0.163l1.226-0.572l1.267-0.735l0.898-0.694l0.531-0.245l0.899-0.123
		l0.98-0.041l1.021-0.449l0.736-0.245l1.185,0.082l1.144,0.694l1.266,0.327l0.776,0.163l1.185,0.613l0.612,0.327l1.267,0.164h0.735
		l0.735-0.245l0.858-0.123l1.226-0.082l1.267-0.245l1.021-0.49l1.88-0.449l2.328-0.531l1.553,0.041l1.144,0.163l1.267-0.041
		l1.308-0.654l1.43-0.735l1.308-0.613l0.898-0.49l0.654-0.123h0.49l0.49,0.123l0.449,0.776l0.98,1.43l1.267,1.797l0.939,0.981
		l1.838,1.021l1.226,0.695l1.432,0.449l2.573,1.144l2.492,1.675l2.451,1.92l1.226,1.267l0.939,1.307l0.409,0.49l1.021,0.531
		l1.226,0.49l1.062,0.123l1.021-0.082l0.858,0.245l0.939,0.858l0.857,0.858l1.021,0.041l0.899-0.286l0.735-0.45l0.898-0.408
		l0.653-0.531l1.145-0.654l0.98-0.041l0.98,0.163l0.857-0.163l0.49-0.409l0.654-0.776l1.348-0.327l1.961-0.531l1.308-0.041
		l1.675,0.286l1.349,0.572l1.798,1.675l1.43,0.613l0.939,1.185l1.349,1.267l1.144,0.735l0.939,0.245l1.634,0.123l1.104-0.204
		l0.939-0.735l1.267-0.409h1.103l1.308-0.327l1.553-0.695l1.267-0.694l1.144-0.735l1.144-0.654l0.654-0.408l0.612,0.041l0.695,0.409
		l1.144,0.613l0.817,0.449l1.185,0.409l1.593-0.041l1.062-0.245l0.776-0.368l1.471-1.021l1.185-1.185l1.104-1.634l2.204-2.859
		l2.655-2.37l3.187-3.391l1.553-1.552l0.939-1.144l0.613-0.613l0.449,0.041l0.368,0.327l0.408,0.082l0.776-0.449l0.653-0.204h0.899
		l0.98,0.327l0.653,0.368l0.735,0.368l1.634,0.123l2.288,0.041l1.185,0.327l0.613,0.409l0.735,0.735l0.49,0.163
		c0,0,0.531,0.082,0.694,0.082s0.613-0.327,0.613-0.327h0.612l0.531,0.245l0.245,0.776c0,0,0.244,0.408,0.367,0.49
		s1.757,0.164,1.757,0.164l1.186-0.286l0.898-0.653l1.021-0.695l1.307-0.164l1.553-0.286l1.062-1.226l1.471-0.858l1.226-1.185
		l1.551-1.307l1.062-0.205l0.531-0.449l0.571-0.572l0.49-0.245c0,0,0.816-0.041,0.98-0.041s1.431,0.245,1.431,0.245l0.898,0.123
		l1.348,0.041l1.553,0.613l1.104,0.817l1.43,0.94l1.062,0.613l0.735,0.082l0.735-0.041l0.98,0.327l0.571,0.613l0.327,0.327
		l1.512,0.041h0.857l0.695,0.613l0.612,0.327l1.102,0.164l1.021-0.205l0.735-0.327l0.653-0.49l0.49-0.164l0.899-0.041l1.021,0.245
		l0.694,0.041c0,0,0.654,0.082,0.776,0.123s0.652,0.123,0.775,0.164s0.94,0,0.94,0l1.634-0.204l1.349-0.327l0.612-0.245l0.653-0.449
		l1.186-0.49l0.776-0.041l0.898-0.163l0.531-0.327l0.653-0.408l0.408-0.368l1.021-0.409l1.593-0.409l0.858-0.694l0.817-0.695
		l0.775-0.776l0.409-0.695l0.49-0.449l0.653,0.164l0.817,0.327l0.776,0.327l0.735,0.286l1.716-0.613l2.451-0.817l0.817-0.735
		l0.653-0.368l1.348-0.327l1.512-0.164l0.735-0.327l0.776-0.368l0.817-0.164l0.817,0.164l1.266,0.327l0.979,0.531l0.368,0.204
		l0.939-0.735l0.735-0.613l1.308-0.245l1.021,0.041l1.103,0.123l1.471-0.123l0.939-0.286l1.267-0.163l0.858-0.041h1.307l1.839-0.204
		h1.185l1.062-0.45l0.817-0.041l0.49,0.408l0.775,0.082l0.531-0.327l0.613-0.368l0.939-0.041l1.92,0.041l1.103,0.082l1.308,0.653
		l0.612,0.899l1.145,0.286l1.103,0.082l1.798-0.082l1.553-0.082l0.735-0.041l1.103-0.654l0.776-0.858l2.125-1.593l2.042-1.798
		l1.308-1.307l0.613-0.776l0.408-0.204l1.062,0.245l1.267,1.021l1.756,2.329l0.94,1.021l0.571,0.327l1.104,0.123l0.735-0.041
		l0.776-0.368l0.938-0.122l0.98-0.735l0.735-0.817l0.653-0.327l1.349-0.041l1.553-0.163l0.816-0.041l0.735-0.123l0.776-0.286
		l1.145,0.041l1.062,0.327l0.449,0.409l0.49,0.327l1.145,0.327l1.512,0.327l1.307,0.368l1.757,0.327h0.776l0.98-0.204l1.961-1.307
		l2.941-2.043l1.635-1.144l0.98-1.062l0.735-0.654l1.267-0.123l0.612-0.082l0.368-0.613l0.653-0.082l2.247,0.163l1.349,0.368
		l1.389,0.205l0.694,0.449l0.735,0.654l1.145,0.286l1.103,0.082l1.185,0.204l0.368-0.041l1.062-0.49l1.308-0.613l1.021-0.041h1.226
		c0,0,0.246,0,0.368,0.082s0.449,0.368,0.449,0.368l1.308,0.204h1.185l0.367,0.123l0.246,0.327l2.165,0.163l3.84,0.041l3.555,0.164
		l2.614-0.205l2.41-0.653l2.574-0.572l3.963-0.694l2.859-0.327"/>
</g>
</svg>
