<?xml version="1.0" encoding="utf-8"?>
<!-- Generator: Adobe Illustrator 16.0.4, SVG Export Plug-In . SVG Version: 6.00 Build 0)  -->
<!DOCTYPE svg PUBLIC "-//W3C//DTD SVG 1.1//EN" "http://www.w3.org/Graphics/SVG/1.1/DTD/svg11.dtd">
<svg version="1.1" id="svg" xmlns="http://www.w3.org/2000/svg" xmlns:xlink="http://www.w3.org/1999/xlink" x="0px" y="0px"
	 width="610.56px" height="407.04px" viewBox="0 0 610.56 407.04" enable-background="new 0 0 610.56 407.04" xml:space="preserve">
<image overflow="visible" width="2544" height="1696" id="image" xlink:href="CG06_20060913_215944.JPG"  transform="matrix(0.24 0 0 0.24 0 0)">
</image>
<g id="horizon">
	<path fill="none" stroke="#FF0000" stroke-width="0.25" stroke-miterlimit="10" d="M0,144.083l1.5,0.75l2.083,0.25l3.75,1
		l2.583,1.5l2.5,1.083H14l1.5-0.5l1.5-0.5h1.083l0.5-0.417c0,0,0.833,0,1.083,0.083s1.75,0.417,1.75,0.417l1.083,0.167l1.25-0.083
		l0.667-0.5l0.833-0.25l2-0.25l0.75-0.167l1.167-0.417l1-0.167l0.667-0.167l1-0.833l1.25-0.583l1.333-0.167h1.75l2.25-1.75
		l2.333-1.75v-1.5l1.917-0.833L46,136.917l4.083-3.5l3.083-2.167l1.667-1.083l0.75-1.833l1.083-2.167l2.083-2.083l0.75-0.667
		L61.667,123l0.667-0.333l1.25-2.167l3.667-4.083L70.667,114l3.167-1.583l3-1.417l2.333-0.667l2.334-1.75l1.083-1.5l2.25-1l2.75-1
		l1.5-0.333l2-0.25l2-0.167l2.25,0.083l2.167,0.083h2h2.75l2.083,0.5l1.083,0.25c0,0,0.917,0.25,1.167,0.417
		s1.083,0.333,1.083,0.333l1.917-1.25l1.75-0.5c0,0,0.917-0.083,1.167,0s1.75,0.583,1.75,0.583l0.75,0.667l0.583,0.5l4-0.333h1.5
		l6.667-3.083l1.5-0.25c0,0,1-0.75,1.25-0.75s2.5-1.25,2.5-1.25l2.083-1l0.833-0.25L138.501,99l1.333,0.083l2.5-1.083l1.583-1
		l0.917-0.833c0,0,0.917-0.5,1.25-0.583s3-0.917,3-0.917l2.417-0.583l1.583,0.167l1.083,0.333l0.417,0.667l0.583,0.833l1.583,0.833
		l3.667,2.333l2.25,1.333l2.333-0.083l2.5-0.167c0,0,1.333,0.25,1.583,0.333s1.333,0.25,1.333,0.25l1.333,0.167l1.083,1l1,1.75
		l0.75,0.917l2.667-0.167l2.167,0.75l1.583-0.5l2.25-0.667h1.083l0.75,0.083l1,0.667l2.333,2.333l1.917,2.833l2.667,3.083
		l3.417,3.333l2.25,2.083l1.583,0.75l1,0.5l0.833,0.75l0.583,1.833l2.083,1.167l5.333,3.417l4.833,2.75l1.917,1.583l1.083,1.333
		l1.583,0.833l1.083,1.667l0.583,0.75l1.5,0.417c0,0,1.417,0.833,1.667,1.167s3.167,2.417,3.167,2.417l1.25,1.167l0.667,1.333
		l0.833,1.333l1.583,1.5l0.917,0.75l1.667-0.333l1.083-0.5l1.167-0.417l0.5,0.5l0.417,0.25l1.583-0.667l2-0.417l0.667-0.167
		l0.5-0.083c0,0,0.333-0.167,0.667,0s0.833,0.5,0.833,0.5l0.417,0.167c0,0,1,0,1.333,0.083s0.917,0,0.917,0l1.167-0.167l2.417,0.917
		l1.75,1.25l2.5,1.417l1.083,1l1.25,0.25l1.333-0.25h0.75l0.583,0.583l0.833-0.25l0.5-1.167l0.917-0.833l1-0.333h1l0.833-0.333
		l1.417-0.5l1-0.333h1.833l0.75-0.083l1,0.667c0,0,0.25,0.417,0.5,0.25s0.25-0.167,0.25-0.167l0.917-0.5l1.667-0.083l0.75,0.333
		l1.333,1.583l2.75,3.333l0.25,0.833L280,151.5l2-0.917l1.333-0.083l0.417,0.333l1.167-0.833l1-0.417l0.5-0.25l0.583-0.417
		l1.75-0.25h1.583l0.417,0.167h0.75l1.25-0.5L294.5,147l0.833-0.583h1l0.667,0.167l0.667-0.5l0.667-0.25l1.167-0.083l2.5,0.833
		l2.75,1.25l1.5,0.417l1.416-0.417l0.584-0.5l1.166-0.083c0,0,0.751,0,1.084,0s1.25-0.75,1.25-0.75l1.5-0.167L316,146h1.75H319
		l3.166-1.75l1.667-0.75l0.917-0.417L325.5,143c0,0,0.166,0.083,0.416,0.333s1,1.5,1,1.5l1.667,2.167l0.5,0.833L330,148.5l4.25,2
		l2.5,0.917l2.916,2l2.167,1.833l1.5,1.833l0.833,0.833l1.417,0.333l1.083,0.167l1.084,0.167l1,0.333l0.75,0.667l0.583,0.667
		c0,0,0.833,0.334,1.083,0.167s2-1.333,2-1.333l1.5-0.833l0.917-0.333h1h1.5c0,0,0.583-0.167,0.75-0.417s0.5-0.75,0.5-0.75
		l2.75-0.667l1.75-0.25h1.5l0.75,0.5l1.25,0.833l1.25,0.917L370.75,160l1.25,1.25l0.667,0.5l2,0.25l2-0.5l1.25-0.5l2.333-0.333
		l2.917-1.333l3.166-2.083c0,0,0.584,0.167,0.917,0.417s2.583,1.167,2.583,1.167s1.167-0.083,1.417,0s1.667-0.167,1.667-0.167
		l1.916-0.5l1.084-1l3.916-5.417l3.917-4l4.5-4.75l1.25-0.167l1.833,0.167c0,0-0.25-0.167,0.75,0.083s2.667,0.833,2.667,0.833
		l1,0.083l2.167,0.083c0,0,1.666,0.667,1.916,0.75s1,0.583,1,0.583l0.5,0.083l0.417-0.167c0,0,0.5-0.167,0.75,0.083
		s0.501,0.583,0.667,0.833s0.833,0.583,0.833,0.583l2.417-0.833l2.5-1.083l1.25-0.333l1.25-0.25l0.833-1l0.667-0.583l2.166-2
		l0.834-0.667l1.083-0.167l1.667-0.75L439.75,139l1.667,0.083l2.083,0.333l1.25,0.5l1.417,1.5l2.416,0.333l2.25,0.5l0.917,0.5
		l2,0.667l1.917,0.5l0.75-0.083l1.333-0.75l1.917-0.333l1.416,0.167l0.584,0.333l1.25,0.167l0.666-0.583h1.167l0.833-0.083
		c0,0,0.5-0.083,0.75,0s1.167-0.417,1.167-0.417l0.917-0.583l0.835-0.25l0.584,0.167l1.083-0.417l0.917-0.583l1.083-0.417
		c0,0,0.749,0.167,1.083-0.083s0.834-0.667,0.834-0.667l0.666-1.083l1.834-1.75l0.333-0.25h0.917l0.916,0.75l1.084-0.167l2.5-1.083
		l1.666-0.583l2.5-0.917h1.25c0,0,0.75-0.083,0.917-0.333s0.584-0.667,0.917-0.75s1-0.083,1.333,0s1.167,0.5,1.417,0.583
		s0.666,0.5,0.666,0.5l1.75-0.583l0.75-0.75h0.5h0.834l1.75,0.167l1.333-0.167l1-0.5l0.5-0.083l1.333,0.083l1.584-0.167l1.083-0.167
		h3.167h1.25l1.583-0.25l1-0.25h1.333h0.834c0,0,1,0.5,1.333,0.583s1.583,0.75,1.583,0.75l1.25,0.083h3l1.167-0.083l2.917-2.583
		l1.833-1.583l1.75-1.417l0.75-0.75c0,0,0.417-0.333,0.75-0.333s1,0.333,1,0.333s0.583,0.417,1,0.833s1.333,1.25,1.333,1.25l0.75,1
		l0.584,0.917c0,0,0.167,0.083,0.75,0.083s1.166,0,1.166,0l1.167-0.167l1.833-1.25l0.834-0.417h2.083l1.917-0.5l0.916-0.333
		l1.667-0.333l0.667,0.333l0.916,0.75l2.584,0.667l3.25,0.333h1.333l1-0.417c0,0,1.166-1,1.583-1.083s2.334-1.583,2.334-1.583
		l2.166-1.583l0.834-0.917l0.666-0.667l0.584-0.417l1.416-0.5l2.584,0.333l4.417,1.5l1.5,0.333l1.417-0.167l1.5-0.25l2.5-0.5
		l1,0.167l2.083,0.5h2c0,0,0.667,0,0.917,0.083s1.75,0,1.75,0s1.334,0.167,1.917,0.25s4.833,0.333,4.833,0.333l2.917-0.5
		l4.583-1.333l3.833-0.417l2.75-0.667"/>
</g>
<g id="moon">
	<circle fill="#FF0000" cx="439.216" cy="16.919" r="0.25"/>
</g>
</svg>
