<?xml version="1.0" encoding="utf-8"?>
<!-- Generator: Adobe Illustrator 16.0.4, SVG Export Plug-In . SVG Version: 6.00 Build 0)  -->
<!DOCTYPE svg PUBLIC "-//W3C//DTD SVG 1.1//EN" "http://www.w3.org/Graphics/SVG/1.1/DTD/svg11.dtd">
<svg version="1.1" id="svg" xmlns="http://www.w3.org/2000/svg" xmlns:xlink="http://www.w3.org/1999/xlink" x="0px" y="0px"
	 width="636px" height="424px" viewBox="0 0 636 424" enable-background="new 0 0 636 424" xml:space="preserve">
<g id="image">
	
		<image overflow="visible" enable-background="new    " width="2544" height="1696" xlink:href="CG06_20060727_195951.JPG"  transform="matrix(0.25 0 0 0.25 0 0)">
	</image>
</g>
<g id="gcp-peaks">
	<circle id="P4930" fill="#FF0000" cx="339.418" cy="150.375" r="0.25"/>
	<circle id="P7010" fill="#FF0000" cx="457.418" cy="146" r="0.25"/>
	<circle id="TOOTH" fill="#FF0000" cx="553.418" cy="133.375" r="0.25"/>
	<circle id="P7930" fill="#FF0000" cx="591.875" cy="129.75" r="0.25"/>
</g>
<g id="gcp">
	<circle id="BBCFG" fill="#FF0000" cx="146.062" cy="400.625" r="0.25"/>
	<circle id="kadin-cairin" fill="#FF0000" cx="305.75" cy="159" r="0.25"/>
	<circle id="nipple" fill="#FF0000" cx="233.792" cy="182.708" r="0.25"/>
	<circle id="splitrock" fill="#FF0000" cx="288.708" cy="189.625" r="0.25"/>
	<circle id="cluster" fill="#FF0000" cx="292.292" cy="193.417" r="0.25"/>
	<circle id="T20060727-02" fill="#FF0000" cx="150.25" cy="196.25" r="0.25"/>
	<circle id="T20060727-03" fill="#FF0000" cx="41.125" cy="168.125" r="0.25"/>
	<circle id="T20060727-04" fill="#FF0000" cx="138.688" cy="157.188" r="0.25"/>
	<circle id="T20060727-05" fill="#FF0000" cx="138.312" cy="123.625" r="0.25"/>
	<circle id="T20060727-06" fill="#FF0000" cx="177.688" cy="117.875" r="0.25"/>
	<circle id="T20060727-07" fill="#FF0000" cx="188.625" cy="154.75" r="0.25"/>
</g>
<g id="terminus">
	<polyline fill="none" stroke="#FF0000" stroke-width="0.25" stroke-miterlimit="10" points="97.312,248.438 100.938,248.062 
		105.438,247.812 110,247.375 113.5,247.312 117,247.25 120.875,247.125 123.062,247.125 125,247.062 	"/>
	<polyline fill="none" stroke="#FF0000" stroke-width="0.25" stroke-miterlimit="10" points="125.812,248.188 129,248.188 
		136.562,248.312 139.938,248.25 142,248.125 145.312,248 149.625,247.75 152.375,247.688 156.188,247.562 160.5,247.5 
		167.938,247.688 173,247.875 177.25,248.334 180.5,248.334 185.25,248.5 188,248.417 	"/>
	<polyline fill="none" stroke="#FF0000" stroke-width="0.25" stroke-miterlimit="10" points="205.562,249.375 209.062,249.562 
		212.75,249.562 213.583,249.25 215.333,248.667 217.75,248.667 219.917,248.667 	"/>
	<polyline fill="none" stroke="#FF0000" stroke-width="0.25" stroke-miterlimit="10" points="229.562,249.125 234.75,249.438 
		240.688,249.562 246.188,249.812 251.812,250.25 255.5,250.375 259.438,250.312 264.688,250.562 269.188,250.5 274,250.562 
		278.812,251 283.812,251.188 290.125,251.562 293.75,251.625 296.688,251.938 299.75,252.188 303.562,252.125 306.75,252.188 
		309.438,252.188 313.125,252.375 316.375,252.375 319.312,252.5 323.438,252.562 327.188,252.625 329,252.75 331.75,253.125 
		334.625,253.375 336.688,253.5 337.938,253.5 339.188,253.812 343.125,254.188 345.875,254.438 349.688,254.688 352.375,254.812 
		354.375,255.062 356.312,255.312 358.562,255.562 360.875,255.875 364.188,256.5 365.812,257 367.312,257.125 369.188,257.188 
		372.5,257.5 376.375,257.562 380.125,257.875 384.062,257.938 386.688,257.938 387.5,258.125 388.875,258.5 390.875,258.812 
		393.562,259 395.312,259.188 397.812,259.625 400.562,260 402.375,260.125 404.375,260.625 408.25,261.375 410.875,261.812 
		412.875,262.312 415.125,263.125 416.438,263.75 416.938,264.688 418.75,265.625 421.25,266.625 424,267.188 426.562,267.688 
		428.938,268.375 431.188,269.625 433.812,270.875 436.688,272.188 437.875,272.875 	"/>
	<polyline fill="none" stroke="#FF0000" stroke-width="0.25" stroke-miterlimit="10" points="437.5,277.75 438.5,278.688 
		439.875,279.438 440.812,280.438 441.25,281.188 441.875,282 442.875,282.562 444.25,282.938 445.875,283.438 447.812,284.438 
		449.25,285.438 450.688,286.375 451.438,287.188 452.438,287.688 453.75,288.188 455.375,288.75 	"/>
</g>
<g id="horizon">
	<path fill="none" stroke="#FF0000" stroke-width="0.25" stroke-miterlimit="10" d="M0.039,150.986l1.923,0.481l2.61,0.412
		l1.992,0.48l1.854,0.687l2.198,0.893l2.129,1.167l0.824,0.137l1.442,0.069l1.236-0.137l2.404-0.824l1.236-0.344l1.168,0.069
		l1.58,0.412l1.236,0.137l1.786-0.343l1.854-0.549l2.061-0.412l0.961-0.344h1.236l0.893-0.343l0.824-0.824l1.167-0.755l1.03-0.069
		h1.442h1.236l1.03-1.305l1.717-0.961l1.236-1.236l0.206-1.305l0.961-0.756l1.786-0.687l2.061-1.442l3.778-2.679l2.61-2.198
		l2.267-1.099l1.717-2.198l0.549-1.511l0.618-1.03L60,131.892l0.893-0.961l0.412-0.893l0.55-0.412l1.992-0.893l1.511-0.962
		l0.755-1.099l1.923-2.815l2.198-2.129l2.267-1.442l4.19-2.404l3.022-0.961l3.159-1.374l3.366-2.885l3.64-1.854l3.229-0.824
		l2.129-0.481l2.061-0.343l1.442,0.068l1.099,0.55l1.03,0.137l1.58-0.275l1.305,0.138l1.58,0.137l2.198-0.206l1.442-0.206
		l1.099,0.481l1.236,0.755l0.893,0.206l1.03-0.481l1.305-0.618l1.923-0.618l1.442,0.275l0.961,0.206l1.236,1.374h1.58l1.717-0.274
		l1.442-0.069l1.648,0.069l1.854-0.618l2.541-1.374l2.335-1.167l2.129-0.48l2.404-1.511l2.678-1.167l2.404-0.756l2.198-0.206
		l1.167,0.275l0.756,0.343l1.03-0.755l1.992-1.511l1.786-1.442l1.786-0.755l2.335-0.481l2.129-0.549l1.511,0.206l0.893,0.275
		l0.687,0.755l0.412,0.961l1.236,0.687l1.236,1.03l1.854,0.549l1.305,0.824l0.687,0.756l1.648,0.618l1.168,0.137l1.03-0.206
		l1.786-0.069l1.58,0.069l2.473,0.481l1.374,0.068l0.48,0.344l1.305,1.374l0.824,1.717l0.274,0.893l1.854-0.412l1.786,0.138
		l1.717,0.48l1.374-0.274l1.58-0.618l1.511-0.138h1.03h0.755l0.824,0.55l1.442,1.648l1.03,2.129l1.099,1.167l1.717,1.854
		l1.786,2.061l2.679,2.542l2.198,2.61l1.03,0.961l1.58,0.206l0.893,0.756l1.167,1.786l0.893,0.755l1.854,1.374l3.777,2.404
		l3.709,1.786l2.885,1.648l1.786,1.717l1.305,1.442l1.58,0.893l1.442,1.717l0.893,1.167l0.961,0.412l0.824,0.618l0.55,0.756
		l1.236,0.343l0.961,0.961l1.099,0.893l1.168,0.618l0.618,0.343l0.824,1.58l0.893,1.442l1.236,1.511l0.893,1.168l2.06-0.412
		l1.854-0.55l0.481-0.48l0.687,0.687l0.618,0.069l1.511-0.618l2.061-0.48l1.03-0.55l0.756,0.138l0.618,0.755l0.412,0.274
		l1.167-0.206l1.03-0.412l1.511,0.137l1.648,0.755l2.061,1.167l1.992,1.099l1.099,0.618l0.55,0.549l0.48,0.962l1.786,0.068
		l1.03-0.068l0.687,0.068l0.824,0.275l0.481,0.481l0.824-0.824l0.206-0.756l1.167-1.236l1.442-0.48h1.374l1.168-0.344l1.236-0.48
		h1.167l1.236-0.344l0.755,0.275l0.687,0.618l1.03-0.275l1.648-0.549l1.167,0.206l0.824,1.03l1.511,1.58l1.305,1.305l0.961,1.58
		l0.206,0.618l1.236-0.687l1.305-0.687l1.374-0.343l1.099,0.343l0.687-0.481l1.03-0.48l1.167-0.275l0.962-0.412l0.755-0.618h1.511
		l1.58,0.275l0.893,0.137l1.786-1.167l1.854-1.305l1.717-0.137l1.03-0.55l0.962-0.343l1.511,0.343l0.893,0.618l1.58,0.481
		l1.099,0.137l0.961,0.481l1.236,0.481l1.58-0.412l1.854-0.412l1.923-0.344l1.442-0.687l2.335-0.412l1.923-0.275l1.442,0.069
		l1.442,0.206l2.198-1.03l2.129-1.167l1.718-0.687l0.88,0.35l1.043,1.162l0.824,1.442c0,0,0.481,1.03,0.55,1.236
		s0.686,0.962,0.961,1.099s3.641,1.992,3.641,1.992l3.503,1.305l2.679,1.305l2.061,1.58l1.648,1.786l1.511,1.854l1.786,0.687
		l1.785,0.137h0.756l1.442,0.687l0.55,0.687l0.961,0.618l1.374-0.206l1.854-0.961l1.58-1.03l1.373-0.274l1.442,0.068l0.962-1.03
		l0.893-0.48l1.718-0.412l1.167-0.138l1.786-0.068l1.648,0.48l1.511,0.55l1.854,1.648l1.306,1.442l2.129,1.717l1.923,0.618
		l1.512-0.137l1.236-0.343l1.03-0.412l1.167-0.138l1.648-0.343l1.648-0.961l1.786-0.756l1.579-1.099l0.894-0.481h0.618l0.824,0.343
		l1.373,0.412l1.1,0.412l0.893,0.275h1.305l1.718-0.412l1.717-0.824l2.335-3.434l2.473-2.542l2.267-2.679l2.885-2.885l1.854-2.129
		l0.962-1.305l0.893-0.481l0.756,0.481l1.03-0.343l1.03-0.344l1.854,0.618l1.579,0.481l2.13,0.275l1.854,0.412l1.717,0.48
		l0.618,0.756l1.442-0.206l0.687-0.206l0.55,1.236l1.236,0.343l1.236,0.137l0.618-0.206l0.824-0.687l0.824-0.481l1.305-0.343
		l1.648-0.618l1.305-0.55l0.618-0.48l0.756-0.138l0.961-1.305l0.481-0.687l0.893-0.824l0.962-0.618l1.236-0.206l0.687-0.755
		l0.975-0.429l1.91,0.223l2.335,0.275l1.648,0.618l1.168,1.03l1.442,0.893l1.442,0.206l1.305,0.206l0.412,0.549l0.962,0.412h1.236
		l0.893,0.206l0.756,0.412l1.03,0.412h1.442l1.854-0.618l1.099-0.343l1.648,0.137l1.786,0.412l2.061-0.137l1.511-0.549l1.717-0.55
		l0.824-0.48l0.618-0.275l1.511-0.275l1.442-0.48l0.55-0.55l1.442-0.206l1.168-0.549l1.373-1.717l1.03-1.374l0.618-0.343l0.55,0.069
		l0.756,0.412l1.167,0.343l0.894,0.137l1.648-0.618l1.167-0.48l1.442-0.618l0.55-0.412l0.274-0.412l1.236-0.138l1.442-0.206
		l1.374-0.549l0.756-0.343l1.442-0.069l1.648,0.481l0.618,0.48l0.755-0.618l0.894-0.48l1.579-0.206l1.442,0.068l1.854-0.206
		l1.168-0.412h1.511l1.442-0.068h2.061l2.061-0.275l0.412-0.275h0.756l0.618,0.275l0.412,0.343l1.099-0.687l1.786-0.412h1.442
		l1.236,0.137l0.893,0.549l0.756,0.824l1.579,0.138l1.992,0.206l2.747,0.137l0.894-0.137l1.167-1.442l1.512-1.442l1.648-1.648
		l1.442-1.236l0.893-0.687l0.274-1.03l0.962-0.069l0.48,0.206l1.58,1.236l1.512,1.786l1.579,1.58l0.824,0.343l1.236,0.206
		l0.618-0.343l1.236-0.824l1.1-0.824l0.893-0.618l1.717-0.137l2.061-0.069l1.374-0.275l1.236-0.206l1.168,0.275l0.824,0.549
		l0.893,0.412h0.756l1.373,0.206l1.717,0.275l1.58,0.275h1.168l2.335-1.442l2.541-1.786l1.58-1.03l1.511-1.167l0.756-0.961
		l0.893-0.275l0.894-0.687l0.961,0.068l1.442,0.138l1.786,0.137l1.442,0.343l0.893,0.687l1.03,0.618l1.58,0.137l0.961,0.275
		l1.168,0.206l0.893-0.755l0.962-0.412l1.442-0.138l1.305-0.206l0.481,0.412l0.824,0.412l1.579-0.137l0.481,0.137l0.343,0.412
		l2.198,0.069l9.547-0.069l4.259-1.03l4.327-0.893l4.755-0.618"/>
</g>
</svg>
