<?xml version="1.0" encoding="utf-8"?>
<!-- Generator: Adobe Illustrator 16.0.4, SVG Export Plug-In . SVG Version: 6.00 Build 0)  -->
<!DOCTYPE svg PUBLIC "-//W3C//DTD SVG 1.1//EN" "http://www.w3.org/Graphics/SVG/1.1/DTD/svg11.dtd">
<svg version="1.1" id="svg" xmlns="http://www.w3.org/2000/svg" xmlns:xlink="http://www.w3.org/1999/xlink" x="0px" y="0px"
	 width="610.559px" height="407.04px" viewBox="0 0 610.559 407.04" enable-background="new 0 0 610.559 407.04"
	 xml:space="preserve">
<image overflow="visible" enable-background="new    " width="2544" height="1696" id="image" xlink:href="CG06_20060913_215944.JPG"  transform="matrix(0.24 0 0 0.24 0 4.882812e-04)">
</image>
<g id="horizon">
	<path fill="none" stroke="#FF0000" stroke-width="0.25" stroke-miterlimit="10" d="M0,144.083l1.5,0.75l2.083,0.25l3.75,1
		l2.583,1.5l2.5,1.083H14l1.5-0.5l1.5-0.5h1.083l0.5-0.417c0,0,0.833,0,1.083,0.083s1.75,0.417,1.75,0.417l1.083,0.167l1.25-0.083
		l0.667-0.5l0.833-0.25l2-0.25l0.75-0.167l1.167-0.417l1-0.167l0.667-0.167l1-0.833l1.25-0.583l1.333-0.167h1.75l2.25-1.75
		l2.333-1.75v-1.5l1.917-0.833L46,136.917l4.083-3.5l3.083-2.167l1.667-1.083l0.75-1.833l1.083-2.167l2.083-2.083l0.75-0.667
		L61.667,123l0.667-0.333l1.25-2.167l3.667-4.083L70.667,114l3.167-1.583l3-1.417l2.333-0.667l2.334-1.75l1.083-1.5l2.25-1l2.75-1
		l1.5-0.333l2-0.25l2-0.167l2.25,0.083l2.167,0.083h2h2.75l2.083,0.5l1.083,0.25c0,0,0.917,0.25,1.167,0.417
		s1.083,0.333,1.083,0.333l1.917-1.25l1.75-0.5c0,0,0.917-0.083,1.167,0s1.75,0.583,1.75,0.583l0.75,0.667l0.583,0.5l4-0.333h1.5
		l6.667-3.083l1.5-0.25c0,0,1-0.75,1.25-0.75s2.5-1.25,2.5-1.25l2.083-1l0.833-0.25L138.501,99l1.333,0.083l2.5-1.083l1.583-1
		l0.917-0.833c0,0,0.917-0.5,1.25-0.583s3-0.917,3-0.917l2.417-0.583l1.583,0.167l1.083,0.333l0.417,0.667l0.583,0.833l1.583,0.833
		l3.667,2.333l2.25,1.333L165,100.5l2.5-0.167c0,0,1.333,0.25,1.583,0.333s1.333,0.25,1.333,0.25l1.333,0.167l1.083,1l1,1.75
		l0.75,0.917l2.667-0.167l2.167,0.75l1.583-0.5l2.25-0.667h1.083l0.75,0.083l1,0.667l2.333,2.333l1.917,2.833l2.667,3.083
		l3.417,3.333l2.25,2.083l1.583,0.75l1,0.5l0.833,0.75l0.583,1.833l2.083,1.167l5.333,3.417l4.833,2.75l1.917,1.583l1.083,1.333
		l1.583,0.833l1.083,1.667l0.583,0.75l1.5,0.417c0,0,1.417,0.833,1.667,1.167s3.167,2.417,3.167,2.417l1.25,1.167l0.667,1.333
		l0.833,1.333l1.583,1.5l0.917,0.75l1.667-0.333l1.083-0.5l1.167-0.417l0.5,0.5l0.417,0.25l1.583-0.667l2-0.417l0.667-0.167
		l0.5-0.083c0,0,0.333-0.167,0.667,0s0.833,0.5,0.833,0.5l0.417,0.167c0,0,1,0,1.333,0.083s0.917,0,0.917,0l1.167-0.167l2.417,0.917
		l1.75,1.25l2.5,1.417l1.083,1l1.25,0.25l1.333-0.25h0.75l0.583,0.583l0.833-0.25l0.5-1.167l0.917-0.833l1-0.333h1l0.833-0.333
		l1.417-0.5l1-0.333h1.833l0.75-0.083l1,0.667c0,0,0.25,0.417,0.5,0.25s0.25-0.167,0.25-0.167l0.917-0.5l1.667-0.083l0.75,0.333
		l1.333,1.583l2.75,3.333l0.25,0.833L280,151.5l2-0.917l1.333-0.083l0.417,0.333l1.167-0.833l1-0.417l0.5-0.25l0.583-0.417
		l1.75-0.25h1.583l0.417,0.167h0.75l1.25-0.5L294.5,147l0.833-0.583h1l0.667,0.167l0.667-0.5l0.667-0.25l1.167-0.083l2.5,0.833
		l2.75,1.25l1.5,0.417l1.416-0.417l0.584-0.5l1.166-0.083c0,0,0.752,0,1.084,0c0.334,0,1.25-0.75,1.25-0.75l1.5-0.167L316,146h1.75
		H319l3.166-1.75l1.666-0.75l0.918-0.417L325.5,143c0,0,0.166,0.083,0.416,0.333s1,1.5,1,1.5l1.666,2.167l0.5,0.833L330,148.5
		l4.25,2l2.5,0.917l2.916,2l2.166,1.833l1.5,1.833l0.834,0.833l1.416,0.333l1.084,0.167l1.084,0.167l1,0.333l0.75,0.667l0.582,0.667
		c0,0,0.834,0.334,1.084,0.167s2-1.333,2-1.333l1.5-0.833l0.916-0.333h1h1.5c0,0,0.584-0.167,0.75-0.417
		c0.168-0.25,0.5-0.75,0.5-0.75l2.75-0.667l1.75-0.25h1.5l0.75,0.5l1.25,0.833l1.25,0.917L370.75,160l1.25,1.25l0.666,0.5l2,0.25
		l2-0.5l1.25-0.5l2.334-0.333l2.916-1.333l3.166-2.083c0,0,0.584,0.167,0.918,0.417c0.332,0.25,2.582,1.167,2.582,1.167
		s1.168-0.083,1.418,0s1.666-0.167,1.666-0.167l1.916-0.5l1.084-1l3.916-5.417l3.918-4l4.5-4.75l1.25-0.167l1.832,0.167
		c0,0-0.25-0.167,0.75,0.083s2.668,0.833,2.668,0.833l1,0.083l2.166,0.083c0,0,1.666,0.667,1.916,0.75s1,0.583,1,0.583l0.5,0.083
		l0.418-0.167c0,0,0.5-0.167,0.75,0.083s0.5,0.583,0.666,0.833s0.834,0.583,0.834,0.583l2.416-0.833l2.5-1.083l1.25-0.333l1.25-0.25
		l0.834-1l0.666-0.583l2.166-2l0.834-0.667l1.084-0.167l1.666-0.75L439.75,139l1.666,0.083l2.084,0.333l1.25,0.5l1.416,1.5
		l2.416,0.333l2.25,0.5l0.918,0.5l2,0.667l1.916,0.5l0.75-0.083l1.334-0.75l1.916-0.333l1.416,0.167l0.584,0.333l1.25,0.167
		l0.666-0.583h1.168l0.832-0.083c0,0,0.5-0.083,0.75,0s1.168-0.417,1.168-0.417l0.916-0.583l0.836-0.25l0.584,0.167l1.082-0.417
		l0.918-0.583l1.082-0.417c0,0,0.75,0.167,1.084-0.083s0.834-0.667,0.834-0.667l0.666-1.083l1.834-1.75l0.332-0.25h0.918l0.916,0.75
		l1.084-0.167l2.5-1.083l1.666-0.583l2.5-0.917h1.25c0,0,0.75-0.083,0.916-0.333c0.168-0.25,0.584-0.667,0.918-0.75
		c0.332-0.083,1-0.083,1.332,0c0.334,0.083,1.168,0.5,1.418,0.583s0.666,0.5,0.666,0.5l1.75-0.583l0.75-0.75h0.5h0.834l1.75,0.167
		l1.332-0.167l1-0.5l0.5-0.083l1.334,0.083l1.584-0.167l1.082-0.167h3.168h1.25l1.582-0.25l1-0.25h1.334h0.834
		c0,0,1,0.5,1.332,0.583c0.334,0.083,1.584,0.75,1.584,0.75l1.25,0.083h3l1.166-0.083l2.918-2.583l1.832-1.583l1.75-1.417l0.75-0.75
		c0,0,0.418-0.333,0.75-0.333c0.334,0,1,0.333,1,0.333s0.584,0.417,1,0.833c0.418,0.416,1.334,1.25,1.334,1.25l0.75,1l0.584,0.917
		c0,0,0.166,0.083,0.75,0.083c0.582,0,1.166,0,1.166,0l1.166-0.167l1.834-1.25l0.834-0.417h2.082l1.918-0.5l0.916-0.333l1.666-0.333
		l0.668,0.333l0.916,0.75l2.584,0.667l3.25,0.333h1.332l1-0.417c0,0,1.166-1,1.584-1.083c0.416-0.083,2.334-1.583,2.334-1.583
		l2.166-1.583l0.834-0.917l0.666-0.667l0.584-0.417l1.416-0.5l2.584,0.333l4.416,1.5l1.5,0.333l1.418-0.167l1.5-0.25l2.5-0.5
		l1,0.167l2.082,0.5h2c0,0,0.668,0,0.918,0.083s1.75,0,1.75,0s1.334,0.167,1.916,0.25c0.584,0.083,4.834,0.333,4.834,0.333
		l2.916-0.5l4.584-1.333l3.832-0.417l2.75-0.667"/>
</g>
<g id="moon">
	<circle fill="#FF0000" cx="439.215" cy="16.919" r="0.25"/>
</g>
<g id="land">
	<polygon fill="none" stroke="#FF0000" stroke-width="0.25" stroke-miterlimit="10" points="59.663,406.069 76.933,390.004 
		105.848,383.579 124.322,381.571 136.37,381.571 151.229,384.784 152.435,392.012 152.033,396.833 140.386,405.667 
		132.756,407.274 	"/>
	<polygon fill="none" stroke="#FF0000" stroke-width="0.25" stroke-miterlimit="10" points="444.804,406.069 486.169,363.499 
		543.599,331.772 574.924,323.336 609.462,322.131 610.56,407.042 	"/>
	<polygon fill="none" stroke="#FF0000" stroke-width="0.25" stroke-miterlimit="10" points="0.227,247.434 25.929,243.82 
		-0.175,215.708 	"/>
	<path fill="none" stroke="#FF0000" stroke-width="0.25" stroke-miterlimit="10" d="M0.227,196.43l-0.401-56.626l20.08,3.213
		l25.301-14.458l14.056-10.843l16.064-12.45l22.088-7.229l21.687-0.803l12.852-4.417l10.843-1.606h14.859l32.128,10.442
		l14.859,12.851l28.113,20.884l12.048,4.417l20.482,2.812l28.514,0.401l16.868-1.205l11.646-1.606l12.449,0.401l14.457,5.221
		l14.859,2.409h14.057l10.041-2.008l30.924-8.434l40.964-5.623l52.209-5.623l36.947-6.024l29.72-4.819l30.521-0.803l0.804,73.092
		l-42.169-4.417l-5.221-3.615l-4.819-1.606l-6.826-0.401h-36.547l-44.177,4.819l-17.671-1.205l-21.285-3.213l-12.048-3.213
		l-3.615-2.008l0.805-3.213l2.008-3.213l3.213-6.426l-1.606-3.213c0,0-5.221-0.803-6.426-0.401
		c-1.205,0.402-26.104,6.426-26.104,6.426l-12.449,4.819l-0.805,2.812l2.41,4.819l2.008,5.623l2.009,2.41
		c0,0-1.606,2.811-3.214,3.614c-1.606,0.803-18.071,0.803-18.071,0.803l-9.237,1.205l13.655,7.631v4.016l-8.435,2.41l-9.236,2.008
		l-53.012,4.819l-48.996-4.017l-32.932,0.401l-75.502-5.623l-42.57-3.213l-40.964,3.213l-41.365-4.016L0.227,196.43z"/>
</g>
</svg>
