<?xml version="1.0" encoding="utf-8"?>
<!-- Generator: Adobe Illustrator 16.0.4, SVG Export Plug-In . SVG Version: 6.00 Build 0)  -->
<!DOCTYPE svg PUBLIC "-//W3C//DTD SVG 1.1//EN" "http://www.w3.org/Graphics/SVG/1.1/DTD/svg11.dtd">
<svg version="1.1" id="svg" xmlns="http://www.w3.org/2000/svg" xmlns:xlink="http://www.w3.org/1999/xlink" x="0px" y="0px"
	 width="610.559px" height="407.04px" viewBox="0 0 610.559 407.04" enable-background="new 0 0 610.559 407.04"
	 xml:space="preserve">
<image overflow="visible" enable-background="new    " width="2544" height="1696" id="image" xlink:href="CG06_20060627_195956.JPG"  transform="matrix(0.24 0 0 0.24 0 4.882812e-04)">
</image>
<g id="gcp">
	<circle id="BBCFG" fill="#FF0000" cx="138.572" cy="387.704" r="0.25"/>
	<circle id="nipple" fill="#FF0000" cx="225.209" cy="179.375" r="0.25"/>
	<circle id="splitrock" fill="#FF0000" cx="277.781" cy="186.594" r="0.25"/>
	<circle id="cluster" fill="#FF0000" cx="281.125" cy="190.188" r="0.25"/>
	<circle id="kadin-cairin" fill="#FF0000" cx="295.078" cy="157.312" r="0.25"/>
</g>
<g id="horizon">
	<path fill="none" stroke="#FF0000" stroke-width="0.25" stroke-miterlimit="10" d="M0.033,146.235l1.448,0.047l1.121,0.514
		l1.354,0.093l1.121,0.047l2.195,0.607l2.802,1.167l1.962,0.981l1.167,0.42l1.775,0.561l2.288-0.374l1.354-0.14l0.934-0.42
		l0.887-0.188l2.382,0.374l1.774,0.233l1.028-0.467l1.868-0.374l1.868-0.234l1.074-0.327l1.682-0.047l0.7-0.28l0.607-0.607
		l0.607-0.514l0.888-0.28l1.541-0.093l1.027,0.046l0.981-0.467l0.841-0.841l1.401-0.841l0.794-0.7l0.514-0.654l0.28-0.467
		l0.374-0.981l1.074-0.7l1.588-0.841l2.383-0.98l2.055-1.541l1.448-1.448l2.568-1.728l2.102-1.401l1.261-1.261l1.027-2.195
		l1.074-1.261l0.981-1.167l0.514-0.654l0.981-0.467l1.167-0.42l1.261-0.514l0.514-0.747l0.607-1.074l1.775-2.335l1.308-1.214
		l1.821-1.494l2.382-1.495l2.008-1.121l2.522-0.934l1.635-0.374l1.308-0.887l1.588-1.027l1.588-1.027l1.167-0.607l1.308-1.074
		l1.495-0.841l2.569-0.98l2.382-0.327l1.728-0.233l1.961-0.187l3.409,0.42l2.242,0.187l1.961,0.187l1.261-0.047l0.981-0.374
		l1.588,0.233l1.588,0.934l0.654,0.327l1.448-0.374l1.121-0.794l1.121-0.327l1.588,0.046l1.588,0.841l1.074,0.841l0.981-0.046
		l1.634-0.42l1.961-0.28h1.635l2.102-0.7l3.223-1.682l1.401-0.514l1.541-0.28l0.981-0.467l2.568-1.308l2.055-0.747l1.635-0.374
		l1.915-0.14l1.775-0.047l1.121-0.14l0.934-0.607l2.195-1.775l1.354-0.654l1.915-0.607l1.821-0.327l2.148-0.28l1.261,0.187
		l0.841,0.374l0.187,0.607l0.28,0.888l0.42,0.327l0.701,0.28l0.934,0.607l0.28,0.327l0.561,0.327l1.401,0.42l1.261,0.7l1.774,1.214
		l1.261-0.093l1.961-0.093l1.308-0.094l1.635,0.14l0.934,0.047l1.495,0.093l0.794,0.42l0.607,0.607l1.074,1.448l0.7,1.634
		l0.374,0.701l0.654,0.093l1.121-0.56l1.542-0.188l1.401,0.28l1.121,0.374l0.747,0.047l0.747-0.467l0.794-0.374l0.887-0.187
		l1.961,0.234l0.748,0.7l2.102,2.662l1.401,2.148l3.55,3.923l1.774,2.102l2.709,2.709l1.354,0.887l0.888,0.14l0.56,0.654
		l1.028,0.981l0.514,0.607l0.14,0.654l1.261,0.888l1.401,0.887l2.148,1.308l3.222,1.915l2.802,1.915l2.335,1.495l1.728,1.775
		l0.934,0.934l1.495,1.121l1.261,1.588l1.681,0.981l1.868,1.588l1.822,1.308l1.027,0.748l0.747,0.187l0.374,0.514
		c0,0,0.187,0.607,0.233,0.84c0.046,0.233,0.607,1.121,0.607,1.121l1.074,1.167l0.841,1.261l0.374,0.607l0.841,0.14l1.121-0.14
		l0.607-0.14l0.84-0.28l0.934-0.233l0.467,0.047l0.374,0.28l1.448-0.188l1.775-0.794l1.495-0.28l0.747-0.047l0.561,0.327
		l0.561,0.374l0.42,0.28l0.934-0.187l1.074-0.093l0.841-0.047l1.261,0.327l1.634,0.701l2.242,1.494l1.588,0.888l0.607,0.42
		l0.467,0.607l0.42,0.561l1.822,0.046l1.214-0.14h0.514l0.467,0.654l0.561,0.093l0.374-0.841l0.654-1.074l0.934-0.747l0.888-0.093
		l1.214-0.047h0.747l1.167-0.42l0.981-0.327l1.214-0.327l0.654-0.187h1.027l0.607,0.654l0.56,0.047l0.654-0.467l1.028-0.047
		l1.448,0.093l0.747,0.701l1.915,2.289l1.167,1.261l0.794,1.121h1.027l1.121-0.561l1.167-0.233l1.027,0.093l0.888-0.093l0.887-0.467
		l1.074-0.42l1.495-0.981l1.635-0.374l1.401,0.42l1.261,0.28l0.84-0.28l1.167-0.701l0.748-0.887l0.887-0.514l1.588-0.374
		l0.935-0.093l0.794-0.561l0.888,0.093l0.794,0.42l1.401,0.748l1.775,0.607l0.794,0.233l0.515,0.467l1.399,0.28l1.026-0.42
		l0.422-0.28l0.699-0.187l0.654,0.094l1.354-0.42l1.54-0.467l1.262-0.327l2.382-0.374l1.074-0.094l1.401,0.28h0.934l1.588-0.701
		l1.926-0.988l1.666-0.708l0.5-0.375h0.875l0.543,0.292l0.625,0.875l0.832,1.292l0.625,1.167l0.793,1l0.875,0.708l0.791,0.333
		l0.666,0.292l0.543,0.458l1.166,0.625l2.166,0.958l2.167,0.958l1.958,1.208l1.75,1.583l1.292,1.5l0.667,0.958l0.583,0.625
		l0.958,0.792l1.375,0.083l1.125-0.125l0.834,0.042l0.459,0.292l0.457,0.458l0.584,0.625l0.916,0.708l0.5,0.042l0.584-0.583
		l1.166-0.417l0.75-0.333l0.5-0.417l1.043-0.125l0.457-0.5l0.375-0.333h0.918l0.75,0.167l0.625-0.208l0.375-0.458l0.375-0.417
		l1-0.125l1.416-0.292l0.791-0.375l1-0.167l1.125,0.042l1.209,0.5l1.834,0.667l0.5,0.833l0.291,0.458c0,0,0.75,0.084,0.875,0.167
		s0.668,0.583,0.668,0.583l1.707,1.792l1.293,1.167l1.165,0.333l1.167,0.125l1.375-0.042l0.75-0.333l0.667-0.708l0.375-0.25
		l1.208-0.083l1.5-0.083l1.542-0.75l1.25-0.792l1.125-0.792l1.291-0.583l0.542-0.167l0.792,0.042l1.041,0.708l0.71,0.375l1.25,0.458
		l0.459,0.125l0.916-0.083l0.959-0.25l1.291-0.167l1.043-0.667l0.791-0.583l1.334-2.083l1.457-2.042l2.043-2.125l1.332-1.083
		l2.084-2.125l2-1.875l2.166-2.833l0.543-0.125l0.541,0.25l1.041-0.208l0.75-0.333l0.625,0.042l1.209,0.708l1.5,0.625h1.293
		l1.332,0.042l1.043,0.292l1.25,0.333l1.125,0.542l0.75,0.792l0.791-0.333l0.459-0.167l0.75,0.208l0.291,0.833l0.416,0.417h1.334
		l1.125-0.208l0.834-0.667l2.082-0.792l1.459-0.167l0.834-0.25l1.041-1l1.209-1.417l1.291-0.958l1.293-0.917l1.541-0.25l0.668-0.25
		l0.207-0.5l0.25-0.333l0.668-0.083l0.75,0.333h0.957l1.375,0.083l1.834,0.458l1.209,1l1.082,1.125l1.084,0.292h1.166l0.959,0.125
		l0.709,0.625l1.041,0.417l1.043,0.292l0.834,0.208l0.584,0.375l0.791,0.208l1.25-0.167l0.916-0.375l1.168-0.458h0.832l1.25,0.083
		l1.375,0.375l1.418,0.208l1.041-0.333l0.875-0.292l0.834-0.167h0.75l0.916-0.458l0.834-0.375l1.291-0.292l0.959-0.208l0.707-0.583
		l1.5-0.542l1.043-0.083l1.207-0.833l0.793-0.958l1-0.625l0.416-1.25l0.541-0.25l0.418,0.292l1.375,0.625l1.082,0.208l1.043-0.458
		l1.957-0.583l1.459-0.583l0.375-0.583l0.375-0.375l1.209-0.208l1.375-0.167c0,0,0.791-0.208,1-0.333
		c0.207-0.125,0.75-0.25,0.75-0.25l1.291,0.083l0.75,0.208l1.041,0.583l0.584,0.042l0.625-0.333l1.084-0.708l1.041-0.167h0.959
		l1.166,0.125l1.334-0.583l1.25-0.125h1.332l0.875,0.042l0.918-0.125l1.957-0.083l1.002,0.125l0.875-0.292l0.625-0.208l0.75,0.458
		l0.75,0.083l1.043-0.583l1.125-0.125l1.957,0.083l1.168,0.292l0.75,0.375l0.875,0.5l0.707,0.25l1.5,0.25l1.668,0.042l1.75,0.042
		l0.791-0.083l0.459-0.75l0.916-0.75l2.041-1.708l1.293-1.125l0.916-0.958l0.416-0.542l1.084-0.958l0.666-0.042l0.918,0.417l1,0.375
		l1,0.958l0.625,1.042l0.957,1.333l0.5,0.417l1.5,0.333l1-0.375l1.25-0.875l0.959-0.708l1.209-0.583l1.416,0.042l1.834-0.208
		l1.041-0.292l0.791-0.083l1.209,0.167l0.875,0.375l0.5,0.542l1.125,0.25l1.584,0.208l0.875,0.125l1.582,0.333l0.918,0.167
		l0.457,0.125l0.959-0.208l1.541-0.958l3.043-2.208l1.5-1.042l0.875-0.583l0.75-0.625l0.75-0.375l1.541-0.5l0.418-0.583l0.916-0.125
		l1.541,0.375l1.584,0.458l0.875,0.208l1.209,0.458l0.75,0.458l0.5,0.292l1.25,0.083l1.625,0.083l1-0.458l0.625-0.583h1.332
		l1.584,0.083l0.834,0.208l0.791,0.208h1.209l0.916,0.292l0.666,0.333l2.334,0.292l3.584-0.125l3.625-0.083l2.082-0.167l2.084-0.542
		l4.375-0.875l2.584-0.417l1.26-0.166"/>
</g>
<g id="land">
	<polygon fill="none" stroke="#FF0000" stroke-width="0.25" stroke-miterlimit="10" points="464.483,406.069 498.62,367.113 
		529.141,348.237 550.829,340.205 587.375,334.984 608.66,334.984 610.667,335.385 610.56,407.041 	"/>
	<polygon fill="none" stroke="#FF0000" stroke-width="0.25" stroke-miterlimit="10" points="56.853,406.872 76.933,393.217 
		105.045,387.997 127.937,387.997 149.222,388.398 160.467,392.012 148.82,402.052 133.158,406.47 	"/>
	<polygon fill="none" stroke="#FF0000" stroke-width="0.25" stroke-miterlimit="10" points="-0.578,250.647 23.519,245.828 
		-0.176,217.715 	"/>
	<path fill="none" stroke="#FF0000" stroke-width="0.25" stroke-miterlimit="10" d="M-0.176,200.044L0,139l12.274,6.024l22.49-4.016
		l13.654-11.245l14.056-10.442l16.868-12.048l19.277-5.221l17.269-0.401l14.458-0.402l20.482-8.032l9.237,2.41l16.064,5.221
		l16.466,7.229l16.064,12.45l28.112,25.301l20.482,2.811l17.671-0.803l14.859,1.205l24.899-1.606l23.694,1.606l13.254,4.819
		l28.915,5.623l14.057-0.803l8.835-7.229l6.024-6.024l16.064-0.401l27.711-4.016l8.835,3.213l30.121-7.229l24.498-4.016
		l14.056-4.016l56.627-2.41l22.49,1.205l0.401,69.076l-44.177-4.418l-2.41-6.425l-91.968,3.212l-22.088-0.803l-32.53-6.024
		l3.213-8.835l1.205-3.614l-5.623-1.606l-11.244,1.205l-22.49,3.615l-4.418,1.606c0,0-0.4,4.819,0.804,5.221
		s3.614,6.426,3.614,6.426v4.417l-5.623,3.615H361.27l-4.418,0.401l0.804,5.221l-1.205,6.024l-15.662,6.425l-31.325,3.615
		l-48.997-4.017l-62.25-2.008l-67.871-2.41l-70.281-4.016l-40.964-3.614H-0.176z"/>
</g>
</svg>
