<?xml version="1.0" encoding="utf-8"?>
<!-- Generator: Adobe Illustrator 16.0.4, SVG Export Plug-In . SVG Version: 6.00 Build 0)  -->
<!DOCTYPE svg PUBLIC "-//W3C//DTD SVG 1.1//EN" "http://www.w3.org/Graphics/SVG/1.1/DTD/svg11.dtd">
<svg version="1.1" id="svg" xmlns="http://www.w3.org/2000/svg" xmlns:xlink="http://www.w3.org/1999/xlink" x="0px" y="0px"
	 width="929.281px" height="622.08px" viewBox="0 0 929.281 622.08" enable-background="new 0 0 929.281 622.08"
	 xml:space="preserve">
<g id="image">
	
		<image overflow="visible" enable-background="new    " width="3872" height="2592" xlink:href="AK01b_20090502_193824.JPG"  transform="matrix(0.24 0 0 0.24 0 0)">
	</image>
</g>
<g id="gcp-peaks">
	<circle id="P5330" fill="#FF0000" cx="221.875" cy="90.083" r="0.25"/>
	<circle id="P7910" fill="#FF0000" cx="292.417" cy="94.875" r="0.25"/>
	<circle id="P8249" fill="#FF0000" cx="329.666" cy="91.083" r="0.25"/>
	<circle id="P8510" fill="#FF0000" cx="362.708" cy="81.708" r="0.25"/>
	<circle id="P6940" fill="#FF0000" cx="409.54" cy="87.166" r="0.25"/>
	<circle id="P6330" fill="#FF0000" cx="530.75" cy="71.625" r="0.25"/>
	<circle id="P5360" fill="#FF0000" cx="605.126" cy="62.749" r="0.25"/>
	<circle id="P5090" fill="#FF0000" cx="699.919" cy="46.666" r="0.25"/>
	<circle id="P5170" fill="#FF0000" cx="747.919" cy="40.165" r="0.25"/>
</g>
<g id="gcp">
	<circle id="topshelf" fill="#FF0000" cx="18.562" cy="178.625" r="0.25"/>
	<circle id="nostril" fill="#FF0000" cx="107.833" cy="177.208" r="0.25"/>
</g>
<g id="horizon">
	<path fill="none" stroke="#FF0000" stroke-width="0.25" stroke-miterlimit="10" d="M0.062,90.125l1.688,1l1.188,1.062l0.875,1.375
		l1.75,1.125l1.25,0.562l0.875-0.125l0.938-0.438l1.312-0.562L11.688,94l2.438,0.5l1.625-0.062l0.875-0.5L18.312,94l1.938,1.062
		L21,96.375l2,2.25l1.062,1.812l1.125,1.125l1.25,1.062l0.875,0.812l0.562,0.062l0.625-0.938l0.438-1.062l0.562-0.188h1.562
		l1.312,0.375l2.125,1l0.625,0.625l0.312,0.562l1,0.562L37.5,105l2.75,1.438l1.562,0.875l1.562,0.188L44,106.625l0.688-0.438
		l1.312,0.25l0.812,0.438l1.25,0.25l0.75-0.688l1.125-1.062l1.5-1.938l1.438-1.062l1.375-0.75l1.625-0.125l1.312,0.438l0.688,0.688
		l1.375,0.25c0,0,1.188-0.438,1.375-0.438s0.438-0.625,0.438-0.625l0.5-2l1-0.812h1.375l1.188,0.375l0.875,0.5l0.812,0.438
		l1.688,0.812l1.562,0.688c0,0,0.875,0.562,1.062,0.688s2.188,0.812,2.188,0.812l2.438-0.062l3.312,0.312l1-0.312l1.875-0.125
		L85,103.312l1.5,0.438l2.125,0.938l1.75,1.375l2.688,0.688L96,107.062l1.375,0.688l1.5,1l2.375,0.75l2.312-0.125l3.25-0.062
		l2.625-0.062l1.312-0.312l2.438-0.812l1.562-1l1-1.062l1.188-0.438h1.812l1.625,0.375l1.75,0.812l1,0.438l1-0.188l0.812-0.625
		l1-0.25h1.812l0.312,0.5"/>
	<path fill="none" stroke="#FF0000" stroke-width="0.25" stroke-miterlimit="10" d="M132.562,104.25l0.812-0.562l1.188-0.25
		l1.312,0.625l1.5,1.188l2,1.75l2.25,2l1.5,0.625l0.438,0.312l0.812,0.375L145.25,110l0.75-0.812l0.625-0.5
		c0,0,0.438-0.438,0.625-0.375s1.062,0.625,1.062,0.625l0.188,0.312l1.125-0.875l0.688-0.938l0.375-1.125l0.062-1l1-1.062
		l2.312-0.688l1.188,0.375l2.062,1.75l1.5,0.875l2.5,1.312l1.188-0.188l0.938-0.625l1.125-0.5l1.062-0.562l1-0.188l1.188,0.188
		l1.625,0.375l1.312,0.375l1.25,0.562l0.562,0.938l0.875,0.75l1.5,0.5l3.188,0.812l2.125-0.188l1.188-0.812l0.875-1.125l0.688-0.625
		l1.688-0.812l1.375-0.562l2.062-0.812l1.125-0.438l0.375-0.438l0.625-1.312l0.5-0.438l1.25-0.625l1.5,0.375l2,0.062l1.188-0.062
		l1.125-0.312l0.812-1.25l0.438-0.812l0.812-0.312h1.562l1.375-0.312l2-0.75l1.25,0.062l0.5-0.375l0.312-1.125l0.312-0.688h1
		l1.062,0.25l0.812,0.562l2.562,0.25l2.062-0.812L217,96l1.688-1.125l1-1.812l1.125-1.75l0.375-0.938l0.688-0.292l1.312-0.208
		l0.875,0.5l1,1.312l1.312,1.25l1,1l1.875,0.438l1.438,0.188l2.062,0.75l1.188,0.188l3.125,1.438L239,97.062l1-0.5l1.5-0.188
		l1.625,0.062l1-0.625l1.188-0.5c0,0,0.75-0.125,0.812,0.062s0.438,0.438,0.438,0.438l1.5-0.375l0.312-1.062l1-0.5h1.25l1.875-0.188
		l0.812-1L254,91.75l1.562-0.062c0,0,1.188,0.875,1.438,0.938s1.25,0.75,1.25,0.75l2.312,1.375l2.25,1.375l1.062,1
		c0,0,0.562,0.688,0.688,0.938s1.125,1.125,1.125,1.125s0.625,0.688,0.875,0.938s0.75,0.625,0.75,0.625l2.312,0.188l0.812-0.5
		l0.564-0.19h1.688l1.312,0.625l2.188,0.625l0.812,0.75l1.688,0.25l1.188-1.312l1.75-2.25l0.938-1l1.25-0.938l2.062-0.562
		l1.875-0.375l1.312-0.625l2.25-0.562l1.5-0.25l1.125,0.438L296,96.25l1.562,0.812l2.25,0.312l3.375,1.188l1.75,0.625l3,0.438
		l2.562-1l0.938-1l1.5-1l1.688-0.75l1-0.312l1.188-1.125h1.625l1.625-0.75l1.625-0.25l3-0.062l1.375-0.125l1.312-0.125l0.812-0.625
		l0.5-0.562l0.75-0.562l0.479-0.292l0.334,0.167l1,0.688l0.938,0.375l1.375,0.125l1.75-0.375l1.188-0.125l1.312,0.25l1,0.312
		l2.125-0.25l2.688-0.562l1.562-0.5l1.312-0.69l1.062-1.375l1.75-1.875l1.812-0.75l2.375-0.25l1.938-0.375l2.125-0.375L359,84.812
		l1.125-0.625l0.5-0.812l0.75-1.25l1.062-0.75l1.625,0.375l4.25,1.625l3.375,1.25l2.688,0.312l2.062-0.062l1.438-0.438l1.75,0.438
		L381.25,86l1.375,0.75l1.625,1l1.688,0.25l1.5,0.438l2.125,0.812l4.312,0.438l0.812-0.312c0,0,0.812,0.188,1.062,0.312
		s1.5,0.625,1.5,0.625l2.25,0.5h1.688l2.312-1l1.375-0.75l1.438-0.875l1.125-0.75l1-0.625l1.188-0.188L412.25,88l1.375,0.562
		l1.75,0.5L417,88.688l1.688-0.875l1.375-0.688l1.938-0.5l2.188,0.188l3.125,0.438l3.312-0.125l2.25-0.812l1.625-0.938l2.312-1.562
		l2.875-2.125l2.375-1l2.688-0.75l1.875-0.312l2.812,0.312l2.188,0.875L454,82c0,0,1.438,0.312,1.625,0.375s1.688,0.062,1.688,0.062
		l2.5-0.75h1.25L464,81.625l2.437-0.25l2.375,0.062l3.812,0.375"/>
	<path fill="none" stroke="#FF0000" stroke-width="0.25" stroke-miterlimit="10" d="M481.062,80.75h1.062
		c0,0,0.561,0.438,0.75,0.562c0.188,0.124,0.75,0.625,0.75,0.625l2.438,0.312l1.438-0.125"/>
	<path fill="none" stroke="#FF0000" stroke-width="0.25" stroke-miterlimit="10" d="M498.812,81.188l2-0.25l1.562-0.312l2.125-0.375
		h2.188l2.688,0.188c0,0,1.562,0.75,1.812,0.812s1.875,1,1.875,1"/>
	<path fill="none" stroke="#FF0000" stroke-width="0.25" stroke-miterlimit="10" d="M516.062,79.875L518,78.312l1.5-0.5h2.312
		l2.062-0.438l1.5-0.312l2.061-2.375l1.875-1.938l1.188-1.125l1.688-0.375l3.312-0.125h1.375l1.312,0.375l2,1.125l1.938,1.188
		l1-0.375l1.312-0.312l1.75,0.062l3.688,1l1.312,0.875l1.5,0.562l1.25,0.062l1.062-0.25c0,0,2.188,0.312,2.25,0.5
		c0.061,0.188,2.311,1,2.311,1l1.189,0.938l1.561,1.625l2.312,0.875l2.438,0.562l3.062-0.312l2.5-1.062l4.625-1.625l3.75-1.812
		l6-2.375l2.938-1.188L592,70.188l3-3.062L596.25,66l0.938-0.5l1.5-0.188L600.062,65l1.312-0.062l1.25-1l1.875-0.25L607.062,63
		h1.562h1.811l2.062,0.25l2.312,0.438l2.438,0.938l2.188,0.25h1.062l2.688-0.125H625l2-0.062l2.562,0.812l1.5,0.438l1.75,0.438
		l1.375-0.5l4.438-4.938l0.938-0.875l0.625-0.625l0.939,0.188l1.561,1.312c0,0,1,0.688,1.189,0.875
		c0.188,0.187,1.75,0.938,1.75,0.938l0.75-0.188c0,0,1.061-1,1.25-1.062c0.188-0.062,1.625-0.562,1.625-0.562l2.123,0.06l2.25-0.188
		l1.875-0.688L657.25,60h0.938h2.062l1.688-1.188l1.439-0.562l1.125,0.5l2.311,0.125l1.875,0.5l0.939,0.125l0.75-0.125l1.25-0.938
		l1.438-0.25l1.438,0.125l1.438,0.562L677,58.812L678.875,59l2.562-1.875l1.188,0.188l3.188,0.375l2.125,0.062l0.75-0.688
		l0.625-0.938l0.75-0.125L691,55.5l0.438-0.688l0.5,0.25l1.312-0.188l2.125-3.125l2.562-3.438l1.125-1.25l0.605-0.396l1.207-0.041
		l1.188,1.062l1.875,1.25l1.75,1.375c0,0,0.938,0.812,0.938,1S707.187,52,707.187,52l1.25-0.125l0.562-0.25L710.25,51l0.75-1.438
		l0.812-0.25c0,0,1.188,0.125,1.375,0.188s1.312,0.062,1.312,0.062l1.25,0.062l1.5,0.062l0.625-0.562L719,48.812l1.125,0.125
		l1.125,0.625l1.25-0.312l0.938-0.438l0.939-0.062l0.875,0.312l1.375-0.25l1.25-0.312h2.561l1.689,0.062l2.125-0.938l1.561-0.438
		l1.5-0.375l1.939-1l1.061-1.312l0.625-0.438l1.562-0.438h1.812l2-2.375l0.438-0.75l1.42-0.335l1.58,0.085l1.188,0.062
		c0,0,1.375,0.875,1.689,1c0.312,0.125,1.5,0.688,1.5,0.688l1.561,0.312l1.5,0.125l0.5,0.25L759,43.75l0.812,0.25l1.25-0.188
		l1.438-0.562l1.875-0.812l1.188-0.062l2.25,0.562l2.125,0.625L773,43.938l3-0.062l1.562-0.75l1.625,0.5l0.5,0.438h1.688
		l0.562,0.375l1.375,1.062l0.75,0.375h1.562l1.75-0.062c0,0,1.5,0,1.688-0.125s0.875-0.125,1.062-0.125c0.186,0,1.875,0,1.875,0
		l3.938,1.312l2.438,1.688L801,50.5l1.375,0.875l5.062-0.812l3.125-0.75l2.125-0.625l1-0.375c0,0,0.75-0.188,1-0.188
		s0.438,0.188,1,0.562s1.688,0.5,1.688,0.5s2.812,0,3.062-0.062s2.25-1,2.25-1l1.438-0.688l1.812-0.188l1.375,0.625l3.062,1.375
		l2.811,1.5l3.562,1.688l1.875,1.25l3.25,0.688L843.687,55l2.439-0.25l2.061-0.75l0.75,0.188c0,0,1.5,0.812,1.689,0.938
		c0.188,0.126,2,0.5,2,0.5l2.25,0.5l1.5-0.125l1.188-0.625c0,0,1.25,0.062,1.5,0.25s1.188,0.688,1.188,0.688l0.938,0.25l2.75-0.875
		l1.75-1l0.812-0.75l1.062-0.438l1.812,0.188l1.188,0.062l3,0.312l1.812,0.188l2-0.75l1-0.438l1.875,0.062L883,53.5l1.812,0.5
		l4.75,0.875l2,0.188h2.5l4.688-1l2.375-0.562l4.75-1.375l4.25-0.625l3.125,0.25l3.125,1.25l3.125,1.438l1.035,0.094"/>
</g>
</svg>
