<?xml version="1.0" encoding="utf-8"?>
<!-- Generator: Adobe Illustrator 16.0.4, SVG Export Plug-In . SVG Version: 6.00 Build 0)  -->
<!DOCTYPE svg PUBLIC "-//W3C//DTD SVG 1.1//EN" "http://www.w3.org/Graphics/SVG/1.1/DTD/svg11.dtd">
<svg version="1.1" id="svg" xmlns="http://www.w3.org/2000/svg" xmlns:xlink="http://www.w3.org/1999/xlink" x="0px" y="0px"
	 width="929.28px" height="622.08px" viewBox="0 0 929.28 622.08" enable-background="new 0 0 929.28 622.08" xml:space="preserve">
<g id="image">
	
		<image overflow="visible" width="3872" height="2592" xlink:href="AK01b_20100509_200138.JPG"  transform="matrix(0.24 0 0 0.24 0 0)">
	</image>
</g>
<g id="gcp-peaks">
	<circle id="P5330" fill="#FF0000" cx="226.917" cy="90.833" r="0.25"/>
	<circle id="P7910" fill="#FF0000" cx="298.124" cy="95.375" r="0.25"/>
	<circle id="P8249" fill="#FF0000" cx="334.665" cy="92" r="0.25"/>
	<circle id="P6940" fill="#FF0000" cx="414.583" cy="88.167" r="0.25"/>
	<circle id="P6330" fill="#FF0000" cx="535.791" cy="73.583" r="0.25"/>
	<circle id="P5360" fill="#FF0000" cx="609.96" cy="64.875" r="0.25"/>
	<circle id="P5090" fill="#FF0000" cx="705.21" cy="49.042" r="0.25"/>
	<circle id="P5170" fill="#FF0000" cx="752.502" cy="43.043" r="0.25"/>
</g>
<g id="gcp">
	<circle id="nostril" fill="#FF0000" cx="112.173" cy="176.716" r="0.25"/>
</g>
<g id="horizon">
	<path fill="none" stroke="#FF0000" stroke-width="0.25" stroke-miterlimit="10" d="M26.759,96.102l1.876,3.202l1.987,1.987
		l1.546,1.436l0.875,0.44l0.583-0.417l0.458-0.75l0.292-0.625l0.167-0.25l0.667-0.208h1.167l1.667,0.458l1.25,0.75l0.667,0.708
		l0.458,0.625l0.625,0.625l1.208,0.417l0.917,0.333l1,0.625l1.125,0.458l1.875,0.792l1.042,0.333l0.625-0.167l0.375-0.583
		l0.458-0.458l1.5,0.083l0.458,0.333l0.458,0.333l1.208-0.292l1.917-1.667l1.542-1.542l0.375-0.708l0.792-0.417L58.501,102
		l0.792-0.125l0.292-0.042l0.333-0.375l0.667-0.167l1.125,0.583l0.458,0.458l0.875,0.292l0.75,0.042h1.167l0.958-0.208l0.458-1
		l0.417-1.25l0.542-1.125l0.625-0.208l1.083-0.125l1,0.542l1.042,0.833l1.125,0.333l0.458,0.125l0.917,0.583l0.375,0.167
		l1.167,0.542l1.292,0.583l0.792,0.5c0,0,0.208,0.292,0.333,0.375s1.042,0.167,1.042,0.167l1-0.833l0.792-0.083l1.833,0.625
		l1.25,0.125"/>
	<polyline fill="none" stroke="#FF0000" stroke-width="0.25" stroke-miterlimit="10" points="90.75,103.458 92.167,103.833 
		94.417,105.167 96.5,105.958 98.25,106.25 99.959,106.625 100.834,106.708 102.084,107.208 103.167,107.917 104.75,108.958 
		105.833,109.333 107.25,109.292 108.875,108.917 110.083,108.708 111.583,108.667 113.25,108.792 114.333,108.833 115.5,108.625 
		116.5,108.375 117.833,108.292 	"/>
	<path fill="none" stroke="#FF0000" stroke-width="0.25" stroke-miterlimit="10" d="M138.624,103.458l0.75-0.042l1.167,0.458
		l1.875,1.125l1.333,1.375l1.125,0.958l1.625,1.583l0.75,0.5l1.25,0.5h1.083l1.167-0.917l0.708-0.5c0,0,0.375-0.125,0.5-0.042
		s0.333,0.208,0.458,0.333s0.875,0.417,0.875,0.417l0.5,0.042l0.958-0.708l1.208-1.458l0.583-1.333l0.833-0.958l0.5-0.458
		l0.667-0.375l0.667-0.042l1.292,0.5l1.208,1l2.417,1.5l1.125,0.875l0.917,0.542l0.667-0.125l0.917-0.542l0.917-0.375l0.708-0.167
		l0.958-0.5l0.417-0.375l0.5-0.25h1.25l1.792,0.625l0.917,0.25l0.75,0.208l0.792,0.292l0.708,0.583c0,0,0.417,0.458,0.542,0.583
		s0.708,0.542,0.708,0.542l0.542,0.25l1.375,0.458l1.875,0.417"/>
	<polyline fill="none" stroke="#FF0000" stroke-width="0.25" stroke-miterlimit="10" points="194.915,103.917 195.665,103.083 
		196.665,102.625 197.582,102.625 199.207,103 199.832,103 202.04,102.625 203.124,102.084 203.749,101.375 204.124,100.834 
		204.415,100.417 205.249,100.084 205.624,100.125 206.54,100.417 207.374,100.459 207.957,100.167 208.499,99.709 208.874,99.584 
		209.374,99.584 210.249,99.542 210.915,99.125 211.624,98.5 211.832,97.584 212.124,97.209 213.165,97.167 214.624,97.584 
		216.04,97.792 217.04,97.709 218.665,97.209 222.249,96.125 223.124,95.583 224.54,94.083 225.54,93 	"/>
	<path fill="none" stroke="#FF0000" stroke-width="0.25" stroke-miterlimit="10" d="M229.04,91.5l1.583,1.375l1.167,0.917
		l1.208,0.542l1-0.042l0.875,0.083l1.125,0.5l1.25,0.375l0.5,0.167l1.25,0.375l1.167,0.542c0,0,0.667,0.25,0.833,0.5
		s0.667,0.417,0.667,0.417l1,0.25l1.375-0.542l1.375-0.208h1.583h0.833l0.833-0.375l0.708-0.25l0.75,0.042l1.208-0.042l0.375-0.208
		l1.125-1l0.625-0.458"/>
	<polyline fill="none" stroke="#FF0000" stroke-width="0.25" stroke-miterlimit="10" points="260.165,92.042 261.582,93.375 
		263.415,94.458 265.373,95.208 266.957,96.083 268.04,97.125 268.79,98.083 269.373,98.833 269.957,99.375 271.707,100.833 
		272.207,101.167 273.207,101.75 273.498,101.75 274.207,101.542 275.29,100.75 275.748,100.667 277.082,100.792 278.457,101.208 
		279.29,101.458 280.248,101.875 280.915,102.125 281.748,102.375 	"/>
	<path fill="none" stroke="#FF0000" stroke-width="0.25" stroke-miterlimit="10" d="M286.04,100.667l0.708-1.333l0.75-0.833
		l0.333-0.792c0,0,0.292-0.208,0.417-0.208s0.417-0.042,0.417-0.042"/>
	<polyline fill="none" stroke="#FF0000" stroke-width="0.25" stroke-miterlimit="10" points="292.998,96.667 293.498,96 
		294.081,95.667 295.706,95.583 296.915,95.583 	"/>
	<polyline fill="none" stroke="#FF0000" stroke-width="0.25" stroke-miterlimit="10" points="321.165,95.292 323.248,95.125 
		323.831,94.917 325.456,94.292 326.581,93.917 328.206,93.917 329.29,94.042 	"/>
	<path fill="none" stroke="#FF0000" stroke-width="0.25" stroke-miterlimit="10" d="M335.539,92.375l0.5,0.458l0.5,0.458
		c0,0,0.792,0.292,0.917,0.375s0.875,0.25,0.875,0.25l0.833-0.792l0.5-0.458l0.792-0.167l1.042,0.125l0.75,0.208l0.333,0.292
		l0.875,0.292l2.208,0.042"/>
	<polyline fill="none" stroke="#FF0000" stroke-width="0.25" stroke-miterlimit="10" points="351.914,91.333 352.831,89.375 
		353.789,88.542 354.789,87.792 356.664,87.667 358.872,87.167 	"/>
	<polyline fill="none" stroke="#FF0000" stroke-width="0.25" stroke-miterlimit="10" points="400.038,90.792 401.121,91.333 
		402.705,91.917 404.455,92 405.788,91.833 406.33,91.583 	"/>
	<polyline fill="none" stroke="#FF0000" stroke-width="0.25" stroke-miterlimit="10" points="412.788,89.083 413.579,88.208 
		414.454,87.833 415.121,88.042 416.371,89 417.454,89.458 418.704,89.875 420.121,90.167 421.329,89.958 422.788,89.375 
		424.746,88.292 426.746,87.458 427.954,87.417 430.038,87.708 431.704,87.875 434.371,87.875 437.204,87.833 	"/>
	<polyline fill="none" stroke="#FF0000" stroke-width="0.25" stroke-miterlimit="10" points="452.662,80.958 454.496,81.542 
		456.537,82.208 457.871,82.875 459.204,83.375 460.496,83.542 462.621,83.208 465.162,82.667 466.371,82.542 	"/>
	<polyline fill="none" stroke="#FF0000" stroke-width="0.25" stroke-miterlimit="10" points="530.205,78.625 532.622,75.959 
		534.913,73.834 536.288,73 537.497,72.834 539.247,72.959 540.497,72.834 541.163,72.75 542.455,73.167 543.872,74.042 
		545.872,75.042 547.08,75.417 547.539,76.042 547.997,76.25 549.122,75.792 549.789,75.334 551.414,74.959 552.622,74.959 
		554.205,75.667 555.58,76.5 	"/>
	<path fill="none" stroke="#FF0000" stroke-width="0.25" stroke-miterlimit="10" d="M569.455,81.875l1.25,0.917l1.292,0.375h1.416
		l1.125-0.542l0.959-0.292l1.25-0.167l1.041-0.5c0,0,1.25-1.042,1.375-1.042s0.917-0.5,0.917-0.5l3.583-1.333l3.125-1.667
		l4.834-1.333l1.916-0.667l1.084-0.625l2.041-2.375l1.417-1.667l2.292-2.292l1.083-0.708l1.417-0.417l0.791,0.083l1.167-0.542
		l0.625-0.292h1.167l0.875-0.583l0.708-0.458l0.75-0.083l1.542-0.042h1.208l0.542,0.083h4.375l1.458,0.25l1.583,0.542l1.25,0.667
		l0.75,0.333l0.959,0.542"/>
	<path fill="none" stroke="#FF0000" stroke-width="0.25" stroke-miterlimit="10" d="M628.664,66.959l1.5-0.208l0.5-0.208l1.25,0.417
		l1.125,0.833l0.458,0.25h1.084l1.291,0.125l0.917,0.333l0.75,0.292l1.083-0.292l2.209-2.417l2.333-2.917l1.083-0.792l1-0.792
		l0.792,0.375l1.458,1.042l1.334,0.875l1.25,1.042l0.541,0.083l1.459-0.75l1-0.417l0.875-0.875l1.125-0.083l1.291,0.167l1.209-0.375
		c0,0,1.291-0.458,1.416-0.458s1.584-0.125,1.584-0.125l2.541,0.333l1.75-0.167l1.292-0.458l0.625-0.625l0.375-0.208h0.458
		l1.084,0.458l0.625-0.167h1.208l1.542,0.417l1.75,0.333l1.083,0.042c0,0,0.792-0.333,0.917-0.417s0.916-0.625,1.041-0.667
		s1.21-0.375,1.21-0.375l1.416,0.167l0.667,0.375l1.208,0.25l1.375,0.042l0.709-0.167l1.083-0.833l0.833-0.542l1.584-0.25
		l2.041,0.042l1.375,0.292l2.167,0.625l1.083-0.792l1.209-1.292l1.125-0.542l1-0.292l0.958-0.333l1.626-1.792l2.292-3.208
		l1.542-1.958l1.166-1.167l0.669-0.418l0.581,0.043l1.542,1.375l1.417,1.083l1.625,1.333l1,1l0.708,0.875h1.583l1.5-1.333
		l0.875-0.875l0.625-0.375l1.459-0.167l1.583,0.292l2.458,0.083l0.709-0.458l1.708-0.458l0.792,0.042L726,51.96h1.291L728,51.543
		l0.708-0.333l0.417,0.125l0.5,0.583l0.541,0.208l1.167-0.292l2.542-0.417l1.875-0.167h0.458L737,51.293l1.25-0.25l1-0.625
		l1.25-0.542l1.666-0.542l1.417-0.375l1.501-1.292L746,46.959l1.25-0.458l1.75-0.125l1.042-0.417l1.042-1.625l0.458-0.875l0.5-0.458
		l0.792-0.208l0.875,0.333l1.25-0.417l0.625,0.208l0.75,0.708l1.375,0.583l1.25,0.583l1,0.208h0.666c0,0,0.625,0.125,0.792,0.167
		s0.792,0,0.792,0s0.75,0.167,0.875,0.25s0.875,0.417,0.875,0.417l0.833,0.625l0.667,0.083l0.916-0.083l1.334-0.417l1.041-0.25
		l1.542-0.5l1.458-0.125l1.125,0.208c0,0,1.126,0.375,1.209,0.5s1.291,0.458,1.291,0.458l3.001,0.333l1.25,0.042l1.625-0.208
		l0.958-0.375l0.875-0.25c0,0,0.958,0,1.083,0.083s0.834,0.292,1.042,0.417s1.208,0.542,1.208,0.542l2.084,0.667l1.458,0.333
		l2.458,0.333c0,0,0.709-0.042,0.834-0.083s0.583-0.167,0.583-0.167l0.833,0.167c0,0,0.542,0.167,0.667,0.292
		s0.833,0.084,1.125,0.167s1.25,0.375,1.25,0.375l1.542,0.458l2.208,0.875l1.958,1.208l2,1.333l1.167,0.667l0.625,0.417l1.5,0.042
		l2.292-0.125l3.126-0.875l1.333-0.583l2.292-0.5l2.125-0.042l1.208,0.542l1.333,0.5l3.334-0.458l2.458-1.333l1.833-0.458
		l1.917,0.208l1.875,0.958l3.917,2l3.625,2.042l1.792,1.083l1.333,0.5c0,0,1.042-0.042,1.292,0s1.417,0,1.417,0h1.041
		c0,0,0.626,0.125,0.959,0.25s0.791,0.083,0.791,0.083s1.166-0.167,1.375-0.208s1.625-0.042,1.625-0.042l1.625,0.208
		c0,0,1.208,0.25,1.375,0.375s0.959,0.333,1.167,0.417s1.542,0.5,1.542,0.5h1.208l1.333-0.292l1.584-0.25l1.166,0.292
		c0,0,1.043,0.5,1.209,0.583s0.791,0.333,0.791,0.333l1.334,0.167l1.458-0.542l1.5-1.583l1.25-0.792l1.334-0.083
		c0,0,2.333,0.25,2.458,0.333s2.708,0.333,2.708,0.333l2.334-0.208l1.583-0.667l1.292-0.542l2.25-0.25l1.792,0.375l3.166,0.833
		l1.959,0.458l1.5,0.25l2.083,0.25l1.625,0.167h1.625l2.625-0.542l4.208-0.958"/>
</g>
</svg>
