<?xml version="1.0" encoding="utf-8"?>
<!-- Generator: Adobe Illustrator 16.0.4, SVG Export Plug-In . SVG Version: 6.00 Build 0)  -->
<!DOCTYPE svg PUBLIC "-//W3C//DTD SVG 1.1//EN" "http://www.w3.org/Graphics/SVG/1.1/DTD/svg11.dtd">
<svg version="1.1" id="svg" xmlns="http://www.w3.org/2000/svg" xmlns:xlink="http://www.w3.org/1999/xlink" x="0px" y="0px"
	 width="695.04px" height="466.559px" viewBox="0 0 695.04 466.559" enable-background="new 0 0 695.04 466.559"
	 xml:space="preserve">
<image overflow="visible" enable-background="new    " width="2896" height="1944" id="image" xlink:href="AK01b_20130623_010325.JPG"  transform="matrix(0.24 0 0 0.24 0 4.882812e-04)">
</image>
<g id="coast">
	<polyline fill="none" stroke="#FF0000" stroke-width="0.25" stroke-miterlimit="10" points="408.657,210.312 410.313,210.344 
		411.875,210.031 413.063,209.844 413.969,209.719 415.625,209.594 417.188,209.594 418.844,209.562 420.375,209.438 
		422.219,209.125 423.688,208.969 425.063,208.75 426.813,208.688 428.563,208.625 430.032,208.562 431.625,208.5 433.813,208.375 
		435.657,208.125 437.344,208.062 439,207.906 440.625,207.906 441.563,207.875 442.313,207.688 443.469,207.406 445.657,207.406 
		447.313,207 448.5,206.906 449.657,206.875 451.282,206.531 453.094,206.188 455.125,206.031 457.375,205.625 	"/>
</g>
<g id="horizon">
	<path fill="none" stroke="#FF0000" stroke-width="0.25" stroke-miterlimit="10" d="M0.125,114.375l1.25,0.5l1.188-0.375
		l1.125-0.375l1.625,0.312l1.125,0.375l2.125,0.062h1.125l0.875,0.188l0.688,1.062l1.562,2.25l1.5,2.125l2.062,1.812l0.562-0.562
		l0.25-0.938l1.188-0.125l1.062,0.188l0.938,0.5l0.75,0.875l0.812,0.938l2.688,1.688L26.688,126l1.375,0.062l0.875-0.375
		l0.688-0.188l1.125,0.25h0.438l1.125-0.688l2.438-1.75l1.625-0.812h1.438l0.688,0.625l0.5,0.625l0.875,0.188l0.875-0.062
		l0.938-0.812l0.25-0.75l0.875-0.688l0.562-0.062l1.25,0.375l2.062,1.312l1.625,0.812c0,0,1,0.438,1.188,0.562
		s1.125,0.438,1.125,0.438h1.062l0.875,0.188l1.188,0.188l2.562,0.188l1.438,0.188l2.062,0.625l2.062,1l0.812,0.688l1.812,0.688
		l1.312,0.312l1.375,0.312l1.875,1.188l0.562,0.625L72,131.375l3.312-0.125l3.625,0.062l1.75-0.375l1.375-1.062l1.375-0.125l1,0.125
		l2.062,0.688l1.438,0.188h0.75l1.25,0.188l1.188-0.688l2-0.625l1.125-0.375h1.5l1.812,0.875l2,2.188l1.938,1.812
		c0,0,1.188,0.062,1.375,0.125s1.25-0.25,1.25-0.25l1-0.188l0.5,0.188l0.438,0.125l1.438-1.438l1.312-1.562l1.312-0.5l0.562,0.125
		l1.125,1.125l2.5,2l1.625,0.5l1.25-0.062l0.688-0.438l1.188-0.625l1.5,0.188l0.75,0.438l1.25,0.375l0.75,0.5l1.062,1l1.875,0.75
		l1.75,0.375l1.375-0.188l1.812-1.125l1.625-0.875l1.75-0.5l2.188-1.312l1.438-0.375h1.312l2.562-0.062l1.75-0.375l0.562-0.875
		l0.875-0.5l1.438,0.125l1.438-0.188l0.938-0.438l0.688-0.312l0.833-0.708l0.708-0.167l0.75,0.208l0.792,0.417l0.833,0.375h1.5
		l1.667-0.875l1.208-0.583l1.583-1l1.333-0.958l0.542-0.875l0.667-0.292l0.583,0.375l2,1.833l1.167,0.958l0.667-0.042l1.625,0.458
		l0.917,0.583l1.208,0.458l1.042,0.25l0.917,0.667l0.917,0.042l1.458,0.042l2,0.125l1.083,0.125l0.625-0.417h0.875l1-0.292l0.75-0.5
		l1.958-0.25l1.042-1.042l1-0.458l1,0.208l1.708,0.917l2.458,1.708l1.208,0.875l1,1.292l0.833,1l1.375,1.458l0.917,0.292
		l0.917-0.167l0.625-0.542c0,0,0.333-0.125,0.458-0.125s0.958,0.458,0.958,0.458l1.167,0.542l1.667,0.625l0.875,0.25l0.583-0.333
		l2.042-1.417l1.75-1.083l2.333-0.583l2.875-0.583l1.542-0.167l1,0.25l1.667,1.083l1.25,0.833l3.041,1.167l2.542,0.833l2.375,0.375
		l1.208-0.333l2.167-1.125L231.25,135l2.625-0.708l3.292,0.042l1-0.25l1.667-0.917l0.958-0.417h0.667l0.417,0.667l0.583,0.417
		l1.292,0.417l1.333-0.5l0.542-0.292c0,0,0.792,0.125,0.917,0.167s0.75,0.292,0.75,0.292l0.667,0.292l2.042,0.208l1.75-0.25
		l1.583-0.667l1.667-1.125l1.292-1.292l1-0.167L259,131l0.917-0.458c0,0,1.042-0.167,1.208-0.125s1.708,0.167,1.708,0.167
		L263.75,130l1.042-0.875l0.667-0.875l1.25-0.042l1.458,0.208l1.458,0.625l1.292,0.75l1.5,0.833l1.458,0.417l0.917,0.208
		l1.458-0.083h1.667l1.208,0.667l1.333,1.042l1.417,0.708l0.833,0.083l1.125,0.5l1.417,0.75l1.5,0.458l1.916,0.292l1.542,0.417
		l1.833,0.625l0.917,0.083h1.458l1.375-0.833l1.083-0.542l1.833-0.208l1.875-0.167l0.792,0.167l1.333,0.792l0.792,0.375l0.875,0.167
		h0.833L306.79,136l1.708-0.5l1.333-0.25l1.333-0.083l1.5,0.208l1.875,0.5l1.75,0.208l1.708-0.625l2.167-1.125l2.792-1.292
		l1.458-0.833l2.542-0.375h1.625l1.333,0.25l2.083,1.125c0,0,1.083,0.5,1.208,0.625s1.833,0.417,1.833,0.417l2.083-0.292
		l1.542-0.042l1.208,0.375l1.333,0.333l1.292-0.083l2.333,0.25l2.333,0.75l1.5,0.375l1.791-0.167l1.666-0.5l1.418-0.375l0.75,0.042
		l0.541,0.5l1,0.458l1.666,0.417l2,0.042h1.543l2-0.208l2.332-0.208l3.375,0.208h1.375h1.168l1.875,0.125l1.541,0.417l1.75,0.542
		l1.084,0.792l0.625,0.208l0.625-0.667l0.541-1.042l1.166-1l1.084-0.292l1.375,0.083l1.791-0.167l1.75-0.708l1.334-1.25l1.459-1.542
		l0.916-0.875l0.584,0.292l1.291,0.125l2.125,0.125l0.291-0.042l1.418,0.375l1,0.583l1,0.75l0.666,0.5l0.75,0.042l1.666-0.042
		l1.375,0.25l1.125,0.5l1.209,0.542l1.5,0.542l1.791,0.208l1.25,0.167l1.459,0.75l1.666,1.125l1.584,1.25l1.209,1.25l0.666,0.667
		l1-0.125l1-0.542l2.541-0.917l5.084-1.542l3.916-1.083l2.875-0.625l1.334-0.458l0.541-0.542l2.584-2.542l1.334-0.958l1.457-0.417
		l2.168-0.625l1.791-0.167l0.625-0.625l1.166-0.167h1.168l1.291,0.25l1.709,0.083l1.25,0.5l1.207,0.375l1.543,0.542l1.291,0.542
		l0.666,0.208l1-0.583l2,0.125l1.168,0.292l1.375,0.458l2,0.5l0.875,0.125l1,0.625l0.541,0.375l0.916-0.625l1.795-1.25l1.625-1.75
		l1-0.792c0,0,0.5-0.167,0.625-0.125s1.041,0.708,1.041,0.708l1.375,0.875l1.209,0.625l1.082,0.042l0.793-0.542l0.666-0.417
		l1.334,0.042l1.166,0.125l1.834-0.167l1.75-0.167l1.541,0.042l0.916,0.042l1.293-0.542h1.416l1.5,0.167l1.834,0.417l1.125,0.042
		l0.957-0.208l1.125-0.083l1,0.167l1.584,0.458h1.625l1.209-0.458l0.625-0.583l1.916,0.25l2.375,0.417c0,0,0.416-0.125,0.625-0.167
		s1.584-1.042,1.584-1.042l1.916-0.708l1.459-0.708l1.291-1.5l1.834-2.125l0.875-0.167l1.5,0.417l1.291,0.875l1.25,1.292l1.041,1
		l2.209-0.833l1.166-0.25h1.709l1.457,0.125h1.125l0.75-0.458l1.043-0.208l2,0.625l0.916-0.333c0,0,0.584-0.042,0.709,0.042
		s0.209,0.083,0.416,0.125c0.209,0.042,1.959-0.167,1.959-0.167h1.625l0.582,0.083l0.625,0.167l2.584-1l1.416-0.375l1.209-0.333
		l1.166-0.583l0.584-0.292h0.625l0.709-0.333l1.375-0.875l1.207-0.958l0.793-0.042l1.332,0.042h0.959l0.793,0.708l1.125,0.708
		l0.457,0.292l0.834-0.208l1,0.208c0,0,0.334,0.292,0.459,0.375s0.791,0.542,0.791,0.542s1,0.416,1.125,0.458
		s1.209-0.208,1.209-0.208l0.875-0.5l1.5,0.083l2.125,0.708l0.707,0.375l2,0.583l2.043-0.042c0,0,1.25-0.291,1.375-0.333
		s1.332-0.167,1.332-0.167l1.543,0.333l1.457,1.167l1.209,0.375l1.541,0.292l2.125,0.25l2.084,0.75l2.25,1.042l1.334,0.833
		l1.416,0.792l1.75,1.458l1.084,0.333l2.625-0.458l3.207-0.625l2.043,0.083l1.332,0.375l1.043,0.25h1.625l1.875-0.583l1.625-0.417
		l1.25,0.5l1.457,0.458l0.584,0.125l0.834,0.75l0.707,0.542l1.334,0.583l1.166,0.667l1.418,1.25l1.291,0.625l1.291-0.125l1,0.5
		l1.168,0.208l0.832,0.083l1.793-0.208l1.041,0.042l1.668,0.625l2.211,0.707l1.5-0.042l1.209,0.208c0,0,0.709,0.542,0.834,0.625
		s0.875,0.625,0.875,0.625l1.332,0.167l1.5-1.083l1.293-1.083l1.375-0.375l1.666,0.417l1.709,0.417h1.416l1.5-0.417l1.209-0.083
		l2.041,0.417c0,0,2.459,0.75,2.584,0.792s2.207,0.5,2.207,0.5l2.043,0.542l1.332,0.125l3.043-0.125l2.875-0.75l3.082-0.333
		l2.168-0.333h3l1.875,0.792l1.457,0.958l1.5,0.583l1.209,0.292l0.793,0.125l1.541-1.625l1.625-1.083l1.168-0.292"/>
</g>
</svg>
