<?xml version="1.0" encoding="utf-8"?>
<!-- Generator: Adobe Illustrator 16.0.4, SVG Export Plug-In . SVG Version: 6.00 Build 0)  -->
<!DOCTYPE svg PUBLIC "-//W3C//DTD SVG 1.1//EN" "http://www.w3.org/Graphics/SVG/1.1/DTD/svg11.dtd">
<svg version="1.1" id="svg" xmlns="http://www.w3.org/2000/svg" xmlns:xlink="http://www.w3.org/1999/xlink" x="0px" y="0px"
	 width="695.04px" height="466.56px" viewBox="0 0 695.04 466.56" enable-background="new 0 0 695.04 466.56" xml:space="preserve">
<image overflow="visible" width="2896" height="1944" id="image" xlink:href="AK01b_20130612_162325.JPG"  transform="matrix(0.24 0 0 0.24 0 0)">
</image>
<g id="gcp">
	<circle id="dragonduct" fill="#FF0000" cx="140.438" cy="169.125" r="0.25"/>
</g>
<g id="coast">
	<polyline fill="none" stroke="#FF0000" stroke-width="0.25" stroke-miterlimit="10" points="402.495,211.641 404.107,211.641 
		405.29,211.533 406.365,211.264 406.903,211.157 408.516,211.049 410.344,210.727 412.225,210.512 414.859,210.297 
		417.063,210.135 418.945,209.974 422.386,209.759 424.751,209.49 427.762,209.437 430.127,209.383 431.686,209.329 
		432.653,209.222 433.029,209.114 434.589,208.738 436.471,208.576 438.675,208.2 440.717,208.254 442.223,208.254 443.298,208.2 
		443.889,208.039 445.771,207.985 447.438,207.609 449.265,207.34 451.522,207.018 453.619,206.856 454.641,206.534 456.684,206.48 
			"/>
</g>
<g id="horizon">
	<path fill="none" stroke="#FF0000" stroke-width="0.25" stroke-miterlimit="10" d="M0.062,115.438l1.875-0.25h1.688l2.312,0.188
		l0.688,0.125l1.562,0.125l0.938,0.438L10,116.938L10.625,118l1,1.562l1.5,1.625l1,0.938l0.312,0.5L15,122.688l0.312-0.188
		l0.562-1.25l1.062-0.125l1.188,0.375L19,122.062l0.625,0.562l0.125,0.562l1.75,1.188l1.438,0.688l0.938,0.562l1.25,0.938l0.75,0.25
		h0.562l0.812-0.688h0.875l0.562,0.188l0.812,0.125l0.562-0.188l1-0.688l1.75-1.688l1.5-0.562l0.875-0.062l1,0.125l0.375,0.438
		l0.5,0.438l1.125,0.062l1.312-0.25l0.812-0.875l0.5-0.812l0.688-0.312l1.375,0.438l0.875,0.562l1.562,1.188l1.375,0.562
		l1.062,0.375l1.5,0.5l1.062-0.125l1.188,0.312l1.812,0.375l1.188-0.125l2.188,0.25l1.75,0.562l2.125,1.438l1.938,0.938l1.125,0.25
		h1l1.25,0.312l0.75,0.688l1.125,0.75l1,0.312h0.75l1.625,0.062L73,132l1.625,0.312l2.188-0.25l1.875-0.5L80,131l0.688-0.938
		l0.188-0.375l1.062,0.875l0.312,0.25l0.562-0.438h0.562l1.188,0.438l0.625,0.562l0.438,0.438l0.938-0.562H87.5l1.25,0.125
		l1.125-0.562l1-0.25l1.75-0.5l0.938-0.188l0.875-0.125l1.312,0.625l1.188,1.125l2,2.375l1.125,0.688l0.75,0.125h0.625l0.812-0.062
		l0.438-0.312h1.375l0.438,0.312l1.062-0.688l1-1.375l1.5-1.062l0.5-0.312h0.875l1.188,0.938l0.75,0.875l1.562,1.125l0.5,0.375
		l1.438,0.125l0.75-0.312l1.188-0.25l0.688-0.188l1.188-0.125l1.438,0.438l1.562,0.625c0,0,0.812,0.375,0.812,0.562s0.688,1,0.688,1
		l0.625,0.438c0,0,0.688,0.062,0.875,0.188s1.25,0.25,1.25,0.25l1.438,0.312l1.5-0.562l1.5-1.062l1.875-0.625l1.5-0.562l2.438-1.5
		l1.25-0.375l0.75-0.125l2.188,0.5l0.938-0.438l0.688-0.438l0.625-0.438l0.562-0.688l1.625-0.125h1.562l1.5,0.062l0.625-1.062
		l0.562-0.625l1.188,0.188l1.5,0.625h1.75l2.812-0.875l1.312-0.375L158.5,128l0.562-1l1-0.625l0.688-0.25L162,126.5l1,1.062
		l1.188,1.188l1.562,0.938l2,0.375l2.125,0.812l1.188,0.625l0.562,0.312l1.438-0.062l1.062-0.062h0.75h1.25l0.75-0.312l1.25-0.062
		l1,0.062l1-0.75l1.125-0.188l1.375-0.562l0.625-0.375l1.125-0.625l0.875,0.625l1.125,0.812l1.312,0.688l1.625,0.75l0.812,0.75
		l1.125,1.125l1.312,1.75l0.938,0.875l1.375,0.75l0.562-0.688h0.75l0.688,0.312l0.75,0.312l0.625-0.188l1.25,0.438l1.125,0.688
		l0.938-0.25l0.562-0.438l0.875-0.25l1.312-0.938l0.75-0.812l0.875-0.312l0.625-0.125h1.188l1.438-0.562l1.875-0.188l0.938-0.125
		l0.938,0.062l1.25,0.812l1.688,0.75l1.875,0.625l2.25,1.312l1,0.125l1.75,0.188l1.375,0.375l1,0.25l0.688-0.812l1.062-0.625
		l1.812-0.938l3.062-0.75l2.25-0.438l1.688-0.125l1.938-0.125l1.5-1.188l1.062-0.25l0.5,0.438l0.875,0.938l1,0.375l1-0.312
		l1.312-0.188l0.75,0.438l0.5,0.25H248l2.125-0.062l1.5-0.562l1.188-0.688l1.375-0.875l1.062-0.812l0.812-0.438l1.062-0.062h0.938
		l1.75-0.375l1.438-0.062l1.25-0.188l1.125-1.062l0.938-0.688l0.812-0.125l1.562,0.125l2.375,1.125l1,0.562l1.188,0.188l1.188,0.188
		l0.562,0.5l1.438,0.312l0.875-0.25h0.5l1.125,0.312l1.938,1.188L280,134.25l1.5,0.375l1.312,0.062l2.562,1.062l1.562,0.375
		l1.875,0.625l1.25,0.625L292,137.75l1.375-0.375l2.062-1.188l1.562-0.5l1.375-0.188h1.375c0,0,1.062,0.375,1.25,0.5
		s1.375,1.188,1.625,1.312s0.75,0.5,0.75,0.5l1.125-0.562l1.625-0.75l1.562-0.438h3.438l3.5,0.688h0.625l1.312-0.438l2.812-1.75
		l2.562-1.25l2.312-0.562l2.188-0.188l1.75,0.188l2.062,0.625l1.75,1.062l1.688,0.688l1.562-0.625l1.375,0.25l1.688,0.25h2
		l1.812,0.062l2.625,0.75l1.375,0.438l2.938-0.125l2.938-0.312l1-0.312l0.75,0.125l0.875,0.75l2.562,0.125h1.312l1.312,0.312
		l1.625,0.125l1.812-0.25h1.25l1.312-0.188l1.875,0.062l0.75,0.188l3-0.312l1.5,0.312l1.188,0.375l1.438,1.125l0.5,0.25l1.062,0.062
		l1.562-2.062l1.375-0.688l2,0.125l2.125-0.438l1.75-1.5l2.688-1.688l0.875-0.562c0,0,0.312-0.062,0.562,0s1.625,0.062,1.625,0.062
		l2.062,0.125l1.125,0.188l0.938,0.75l0.812,0.625l0.5,0.375l0.875,0.562l1.438-0.25l0.75-0.125l2.062,0.188l1.375,0.875
		l0.562,0.562l1.062,0.625l1.438-0.25l1.875,0.5l2.812,1.5l1.688,1.625l1.688,1.375l1.5-0.062l4.25-1.438l6.188-2.062l5.688-1.375
		l2.188-2.312l3.25-2.562l0.562,0.062l0.625,0.25l0.438-0.25l0.5-0.438l0.688-0.062h0.75l0.75-0.125l1.188-0.688l2.062-0.125
		l0.562,0.188l1.562,0.312l1.5,0.125l1,0.25l2.188,0.625l1.25,0.812l0.625,0.438l1.062-0.562l0.938-0.062l1.25,0.062l1.438,0.438
		l1.688,0.5l1.5,0.5l1.25,0.188l0.5,0.375l1,0.062l0.688-0.438l1.312-1.25l1.25-1.125l1.062-1.188l0.812-0.438l0.688,0.188
		l0.875,0.812l1.375,0.875l1.375,0.875l1.062-0.375l0.562-0.562l1.312-0.312l1.688,0.062l2.5-0.062l2.25-0.375l1.625,0.438
		l0.875-1.125h0.812l0.688,0.438l1.812,0.312l1.375,0.125l1,0.438l0.875-0.125l1.188-0.562l0.562,0.125l1.125,0.312l1,0.25h1.312
		l0.938-0.438l1.375-0.625l1.312,0.062l2.125,0.688l1.25,0.312l1.312-1.125l1.062-0.438l0.875-0.312l0.875-0.5l3.812-4.125
		l0.625-0.312l0.875-0.25l1.125,0.438l1.125,0.688l1.25,1.188l0.75,1.062l0.5,0.625l1-0.375l1.438-1.062l1.312-0.562l1.5,0.25
		l1.312,0.25l1.625,0.25l0.688-0.25l0.812-0.062L530,127.25l1.25-0.25h0.812l1.375,0.25l1.438-0.188l1.25-0.125l1.188,0.375
		l1.625-0.75l2.688-0.562l1.438-0.812l0.875-0.688l1.125-0.062l1.25-0.125l1-1.562l1-0.5c0,0,1.062-0.125,1.25-0.062s1,0,1,0
		l1.062,0.5l1.125,0.75l1.062,0.312l1.75,0.5l1.375,0.875l1.562,0.25l1.375-0.438l1.75-0.062l1.562,0.25l1.312,0.625l2.062,0.625
		l2.562-0.125l0.5-0.125l1.375-0.062l1.562,0.562l1.062,0.812l1,0.5l1.75,0.312h1.375l1.188,0.062l2.75,1.188l3.75,1.688
		l1.375,0.938l0.938,1.125l3.188,0.125l3.438-0.688l1.438-0.062h1.125l0.812,0.25l0.312,0.188l3.75-0.25L605,132.75l1.688,0.312
		l2.062,0.812l3.125,2.562l1.875,1l1.562,0.438l2.25,0.438l2.062,0.125l1.438-0.375l2.812,1.188l1.562,0.312h0.812l1.625,0.438
		l1,0.062l0.75,0.438l0.688,0.25l1.125-0.125l1.188-0.812l0.938-0.562l0.812-0.438h1.875l2.562,0.875l1.812,0.062l1.312-0.375
		l1.312-0.188l0.688-0.062l1.438,0.375l2.5,0.938l1,0.312l2.375,0.562l2.25,0.25l2.75-0.562l2.875-0.438l4.188-0.438l2-0.188l2,0.25
		l1.625,0.625l1.125,1.125l0.875,0.062l0.625,0.375l0.875,0.5l0.75,0.125l1.438-1.188l1.625-1.375l0.562-0.5l0.688-0.25l0.938,0.125
		l1.625,1.062l3.438,1.25l1.188,0.375l1.062-0.188h0.812l1.688-0.188l0.75-0.062l1.062-0.125l0.75-0.812l0.625-0.25l1.125,0.062
		l0.75,0.25"/>
</g>
</svg>
