<?xml version="1.0" encoding="utf-8"?>
<!-- Generator: Adobe Illustrator 16.0.4, SVG Export Plug-In . SVG Version: 6.00 Build 0)  -->
<!DOCTYPE svg PUBLIC "-//W3C//DTD SVG 1.1//EN" "http://www.w3.org/Graphics/SVG/1.1/DTD/svg11.dtd">
<svg version="1.1" id="svg" xmlns="http://www.w3.org/2000/svg" xmlns:xlink="http://www.w3.org/1999/xlink" x="0px" y="0px"
	 width="929.28px" height="622.08px" viewBox="0 0 929.28 622.08" enable-background="new 0 0 929.28 622.08" xml:space="preserve">
<g id="image">
	
		<image overflow="visible" width="3872" height="2592" xlink:href="AK01b_20100403_200128.JPG"  transform="matrix(0.24 0 0 0.24 0 0)">
	</image>
</g>
<g id="gcp-peaks">
	<circle id="P5330" fill="#FF0000" cx="219.938" cy="91.312" r="0.25"/>
	<circle id="P7910" fill="#FF0000" cx="290.75" cy="96.375" r="0.25"/>
	<circle id="P8249" fill="#FF0000" cx="327.438" cy="92.531" r="0.25"/>
	<circle id="P8510" fill="#FF0000" cx="360.812" cy="83.875" r="0.25"/>
	<circle id="P6940" fill="#FF0000" cx="407.656" cy="89.156" r="0.25"/>
	<circle id="P6330" fill="#FF0000" cx="528.594" cy="73.531" r="0.25"/>
	<circle id="P5360" fill="#FF0000" cx="602.719" cy="65.375" r="0.25"/>
	<circle id="P5090" fill="#FF0000" cx="697.781" cy="49.531" r="0.25"/>
	<circle id="P5170" fill="#FF0000" cx="745.312" cy="43.312" r="0.25"/>
</g>
<g id="gcp">
	<circle id="nostril" fill="#FF0000" cx="104.969" cy="177.688" r="0.25"/>
</g>
<g id="horizon">
	<polyline fill="none" stroke="#FF0000" stroke-width="0.25" stroke-miterlimit="10" points="28.5,101.584 30.167,102.25 
		32.417,104.084 35.333,105.75 37.583,107 39.833,107.75 41.333,108 41.833,107.584 42.667,106.917 43.833,106.834 45.333,107.25 
		46.917,106.25 48.75,104.584 50.167,103.417 50.917,102.5 52,101.917 52.833,101.834 54,102.167 54.583,103.084 55.583,103.75 
		57.5,102.834 58.583,102.084 59.667,101 59.917,99.75 60.667,99.25 62.167,99.834 63.667,100.667 66.167,101.834 67.417,102.5 
		68.75,102.75 69.833,103.667 70.667,103.834 72.333,103.584 73.417,103.5 75.25,104 76.083,104.25 79.417,103.834 83.417,104.334 
		86.833,105.834 90,107.334 92.667,107.834 94.417,108.167 96.25,109.334 98.833,110.417 100.833,110.167 104.75,109.834 
		107.083,110.084 108.917,109.5 110.917,108.834 112.5,107.834 113.75,106.75 114.417,106.084 115.333,106.084 117.583,106.834 
		119.417,107.334 120.417,107.917 121.583,107.667 123,106.917 124.083,106.834 124.75,107.125 	"/>
	<path fill="none" stroke="#FF0000" stroke-width="0.25" stroke-miterlimit="10" d="M130.375,105.042l0.833-0.583l1.167-0.042
		l1.042,0.708l0.708,0.5l0.458,0.042l0.5,0.375c0,0,0.667,0.667,0.792,0.75s1,1.25,1,1.25l0.958,1.125l1.625,0.875l1.042,0.417
		c0,0,0.625,0.25,0.708,0.375s1.5,0.125,1.5,0.125l0.75-0.542l0.333-0.708l0.375-0.292l0.917,0.083l1,0.417l0.458,0.333l0.875-0.208
		l0.833-1.333l0.833-0.958l0.417-1.167l0.333-0.708l0.667-0.5l0.667-0.333l0.958-0.125l1.333,0.625l1.583,0.917l1.333,0.792
		l1.125,1.042l0.792,0.625l0.708,0.125l1.333-0.292l0.958-0.583l1.208-0.542l0.958-0.75l1.208-0.083l2.708,0.292l1.375,0.417
		c0,0,1.042,0.75,1.083,0.875s0.917,1.083,0.917,1.083l1.208,0.667l2.75,0.833l2.375,0.333l2.458-0.875l1.042-1.667l2.417-1.083
		l1.542-0.333l1.375-0.583l0.958-0.792l0.958-0.792l0.375-0.625l0.542-0.542l1.208-0.333l0.583,0.042l1.542,0.167l1.458-0.292
		l1.292-0.458l1.125-0.333l0.75-0.583l0.958-1.167l0.458-0.167h1.458c0,0,0.75,0,0.917,0s1.083-0.708,1.083-0.708h0.625l0.958,0.292
		l0.875-0.667l0.792-1.25l0.917-0.292l0.708,0.083l1.125,0.208l1.917,0.625h1.458l1.208-0.917l1.25-0.542l1.417-0.167l1.917-1.542
		l1.417-1.417l0.458-0.917l0.417-0.958l0.625-0.625l0.458-0.417l1.25,0.292c0,0,0.875,0.458,1,0.667s0.833,1.042,0.833,1.042
		l1.125,0.917l1.042,0.75l0.792,0.167l2.25,0.542l2.333,0.583l1.375,0.333l2.083,1l1.667,0.333l2.541-0.375l1.958-0.292l0.958-0.125
		l0.833-0.417c0,0,0.458-0.125,0.625,0s0.958,0.292,0.958,0.292l0.833,0.083l0.875-0.5l0.625-0.75l0.792-0.75l1.292-0.167h1.542
		l0.708-0.5l0.5-0.375l0.542-0.5l0.25-0.542l0.625-0.292l0.833,0.042l0.958,0.833l3.042,1.75l1.75,0.833l1.583,0.833l0.958,0.875
		l1.083,1.083l1,1.292l1.792,1.375l1.208,0.333l1.333-0.333l1-0.417l1.458,0.083l1.833,0.333l1,0.542l0.417,0.708l0.833,0.375
		l0.833-0.125l1.333-0.667l2.208-1.375l0.625-1.125l0.875-1.083l1.25-0.75l2.083-0.542l1.667-0.708l2.458-0.542l1.333-0.375
		l1.668,0.041l1.957,0.75l1.333,0.792l2.292,0.792l1.75,0.292l1.708,0.667l2.25,1.042c0,0,1,0.25,1.167,0.292s1.375,0,1.375,0
		l2.875-0.208l1.583-1.25l1.917-1.208l1.875-0.625l1.833-1.042l1.75-0.458l1.5-0.583l1.542-0.458l1.333-0.208l1.333,0.083
		l1.125,0.042l1.125-0.292l1.083-0.875l1.083-0.667l0.75-0.583l0.999-0.042l0.708,0.583l0.958,0.667l0.708,0.333l1.083,0.125
		l1-0.583l0.958-0.333l0.75-0.042l1.042,0.25l1.083,0.458l1.333,0.042l3.417-0.375l2.458-0.792l1.292-0.5l0.583-0.792l0.917-2.167
		l0.792-0.583l1.375-0.417l1.833-0.083l1.25-0.208l1.25-0.5l0.792-0.583l1.542-0.167l0.958-0.042l1.292-0.333l0.708-0.542
		l0.458-0.792l1.042-1.333l0.458-0.458c0,0,0.75-0.041,0.958,0.042s1.25,0.292,1.25,0.292l2.458,0.667L366.372,85l1.333,0.625
		l1.375,0.542l1.333,0.375l1.333,0.292l1.708,0.125l1.083-0.167l1.208-0.25h1.167l1.25,0.542l3.125,1.708l1.208,0.5l1.917,0.542
		l1.75,0.542l1.667,0.708l1.542,0.5h1.125c0,0,0.625,0,0.75,0.042s1.292,0,1.292,0l0.833,0.083c0,0,0.667,0.458,0.792,0.5
		s1.792,0.375,1.792,0.375l2.167,0.333l2-0.25l1.125-1.167l2.25-1.208l1.625-0.458l0.708-0.292l0.708-0.417l0.625-0.25l1.083,0.083
		l1.333,0.792l1.417,0.833"/>
	<path fill="none" stroke="#FF0000" stroke-width="0.25" stroke-miterlimit="10" d="M419.788,88.375l2.292,0.042l2.083,0.042
		l1.708,0.25l2.083,0.083l1.292-0.333l1.875-0.667l1.542-1.333L434.622,85l1.583-0.75l1.833-0.833l1.792-0.708l2.375-0.917
		l1.708-0.25l2,0.208l1.542,0.375l1.417,0.5l1.542,0.417l1.208,0.708l0.875,0.5l1.042,0.292h1.542l1.583-0.875l0.792-0.25
		c0,0,0.875-0.167,1-0.042s1.167,0.375,1.167,0.375l1.167-0.208l3.042-0.292l2.917,0.417l3.166,0.792l1.584,0.167"/>
	<polyline fill="none" stroke="#FF0000" stroke-width="0.25" stroke-miterlimit="10" points="481.162,83.042 482.621,83.917 
		484.537,84.208 486.454,84.167 	"/>
	<path fill="none" stroke="#FF0000" stroke-width="0.25" stroke-miterlimit="10" d="M495.913,83.542l1.791-0.5h1.542h0.833
		l1.459-0.333l0.875-0.167l1.625-0.125h1.708l1.667,0.125L508.579,83c0,0,1.125,0.292,1.292,0.417s1.291,0.584,1.458,0.667
		s1.042,0.333,1.042,0.333l0.333-0.208l0.834-0.708l0.416-0.792l0.834-1.083l0.5-0.75l0.666-0.333l1.792-0.167l2.75,0.042
		l2.042-0.917l1.083-1.25l2.167-1.625l1.375-1.25l1.001-1l0.43-0.593l0.611-0.449l1.25-0.125l1.167,0.042l1.375,0.125l1.042-0.083
		l1.041-0.083l1,0.5l1.5,0.833l1.5,0.917l0.875,0.333l1.25,0.042l2.042-0.667l1.458-0.125l1.167,0.25l1.292,0.583l1.458,1
		l0.958,0.625l0.875,0.417l1.209,0.125l0.958-0.375l0.75-0.292l1.625,0.208c0,0,1.667,0.625,1.792,0.75s1.874,1,1.916,1.125
		s2.083,1.375,2.083,1.375l1.75,1.375l1.209,0.875l0.75,0.417h1.25h0.458c0,0,1.375-0.583,1.5-0.625s1.917-0.792,1.917-0.792
		l3.291-1.25l3.042-1.417l6.75-2.542l2.542-0.667l1.667-0.542l1.166-0.583l2.125-2.833l2.125-2.709l1.75-0.875l1.792-1l1.083-0.208
		l1.542-0.458l0.541,0.25l1-0.208l1.167-1.042l0.75-0.5l1.333-0.208l1.334-0.042h1.625l1.708,0.083l3.083,0.792l2.084,0.667
		l1.541,0.542l1.5,0.458l1.459-0.125c0,0,0.791-0.75,0.833-0.875s0.458-0.5,0.458-0.5h1l1.167,0.417l1.125,0.542l1.167-0.125
		l0.666-0.042l1.25,0.167l0.667,0.542l0.375,0.5c0,0,0.583,0.417,0.75,0.417s1.417,0,1.417,0l1.75,0.167h1.375l1.166-0.625
		l2.042-2.708l2.333-2.625l1.084-0.875l0.541-0.25l1.459,0.958c0,0,1.083,0.709,1.208,0.792s1.375,1.208,1.375,1.208l0.708,0.375
		l0.875-0.167c0,0,0.667-0.583,0.792-0.667s0.75-0.792,0.75-0.792l0.958-0.25l2.084,0.042l1.334,0.083l1.25-0.208h1.125l0.916-0.5
		l1.167-0.125l2.083,0.25l0.417,0.083l1.042-0.375l0.583-0.375l1-0.75l1.292-0.167l0.708,0.417l1.458-0.042h0.959l1.25,0.417
		l0.833,0.208l0.917,0.042c0,0,0.459-0.042,0.625-0.042s1.208-0.458,1.208-0.458l0.542-0.417l1.125-0.333l0.833,0.083l1,0.625
		l0.875,0.042l1.625-0.083h1.083l0.834-0.167c0,0,0.332-0.333,0.541-0.542s1.125-1.167,1.125-1.167l0.875,0.042l1.167,0.333
		l1.917,0.375l2,0.208l1.25-0.25l0.833-0.667l0.667-0.958l0.541,0.083l0.96-0.876l0.5-0.208l0.416,0.167l0.709-0.458l1.166-1.25
		l1-0.875l3.042-4.208l1.25-1.292l0.491-0.425l0.801-0.117l0.958,0.5l1.125,1.125l1.958,1.292l1.292,1.333
		c0,0,0.917,0.833,1.042,0.958s0.5,0.417,0.5,0.417l1.5-0.375l1.291-1.042l1.292-1.333l0.625-0.208l2.5,0.25l0.917,0.417
		l1.083-0.625l0.708-0.208l0.875,0.167l0.709-0.375l0.583-0.042l0.875,0.5l0.417,0.417h0.75l0.458-0.167l0.958-0.375l0.917-0.083
		l0.417,0.208c0,0,0.541,0.5,0.708,0.5s0.583-0.167,0.583-0.167l1.5-0.542l1.5-0.417l1.75,0.083l1.625,0.208l0.959-0.375l3-1.208
		l1.917-0.625l1.708-1.208l1.5-1.333l1.333-0.458h1.042l0.833-0.25l1.459-1.333l0.791-0.958l0.772-0.769l1.02-0.439l1.375-0.083
		l1.75,0.625l2.333,1l1.375,0.583l1.334,0.25l1.333,0.333l0.625,0.458l1,0.542l1.417,0.292l2.291-0.792l1.292-0.458l1.542-0.167
		l1.791,0.5l1.75,0.667l1.542,0.333l2.167,0.208h1.5l1.875-0.208l1.083-0.75l0.625-0.417l0.458,0.167c0,0,1.125,0.542,1.25,0.625
		s1.625,0.542,1.625,0.542s1.166,0.333,1.375,0.417s3.084,0.625,3.084,0.625l2.833,0.375l4.958,0.708l2.917,1.375l2.167,1.333
		l2.291,1.708l1.209,0.708"/>
	<polyline fill="none" stroke="#FF0000" stroke-width="0.25" stroke-miterlimit="10" points="808.291,52.79 810.249,52.415 
		812.499,52.373 813.874,52.832 814.874,53.123 	"/>
	<path fill="none" stroke="#FF0000" stroke-width="0.25" stroke-miterlimit="10" d="M820.999,51.915l1.042-0.792l0.875-0.083
		l1.625,0.292l1.416,0.5l2.209,0.708l2.75,1.708l2.626,1.542l2.083,1.125l1.542,0.5l1.291-0.042c0,0,0.75,0,0.875,0
		s1.584,0.083,1.584,0.083L842,57.832l0.792,0.167l1.583-0.25"/>
	<polyline fill="none" stroke="#FF0000" stroke-width="0.25" stroke-miterlimit="10" points="853.584,59.207 855.001,58.998 
		856.418,58.998 857.501,59.582 858.293,60.123 859.168,60.248 859.834,59.998 861.501,59.29 862.834,57.915 863.959,57.29 
		865.418,57.04 867.543,57.165 869.751,57.457 871.793,57.623 873.293,57.457 874.501,56.998 876.168,56.54 877.626,56.54 
		879.376,56.748 882.209,57.29 883.543,57.79 885.793,58.04 886.876,58.04 887.918,58.373 889.168,58.707 891.126,58.707 
		893.21,58.248 895.626,57.248 898.71,56.832 901.918,56.207 905.126,55.332 907.877,55.29 910.252,55.498 911.044,55.748 
		912.252,56.373 913.127,56.873 914.21,56.873 915.002,57.165 915.835,57.748 916.585,58.457 918.085,58.415 918.794,57.832 
		920.71,55.54 922.71,53.832 924.044,53.248 924.835,53.248 	"/>
</g>
</svg>
