<?xml version="1.0" encoding="utf-8"?>
<!-- Generator: Adobe Illustrator 16.0.4, SVG Export Plug-In . SVG Version: 6.00 Build 0)  -->
<!DOCTYPE svg PUBLIC "-//W3C//DTD SVG 1.1//EN" "http://www.w3.org/Graphics/SVG/1.1/DTD/svg11.dtd">
<svg version="1.1" id="svg" xmlns="http://www.w3.org/2000/svg" xmlns:xlink="http://www.w3.org/1999/xlink" x="0px" y="0px"
	 width="695.04px" height="466.56px" viewBox="0 0 695.04 466.56" enable-background="new 0 0 695.04 466.56" xml:space="preserve">
<image overflow="visible" width="2896" height="1944" id="image" xlink:href="AK01b_20130620_204325.JPG"  transform="matrix(0.24 0 0 0.24 0 0)">
</image>
<g id="gcp">
	<circle id="topshelf" fill="#FF0000" cx="2.417" cy="176.917" r="0.25"/>
	<circle id="nostril" fill="#FF0000" cx="69.333" cy="181.625" r="0.25"/>
	<circle id="brokens" fill="#FF0000" cx="97.812" cy="168.625" r="0.25"/>
</g>
<g id="coast">
	<polyline fill="none" stroke="#FF0000" stroke-width="0.25" stroke-miterlimit="10" points="406.708,210.417 408.333,210.375 
		409.792,210.333 411.542,210.125 413.167,209.792 414.542,209.5 416,209.458 418.167,209.458 419.833,209.292 421.583,209.208 
		422.875,209.083 424.792,208.875 427.833,208.792 429.5,208.542 430.75,208.25 433,208.25 435.375,208.125 438.208,207.75 
		439.875,207.667 441.708,207.542 443.833,207.292 444.667,207.208 445.75,207.208 447.833,207.083 448.833,206.792 
		449.792,206.667 451.458,206.208 452.667,206.083 454.25,205.958 455.833,205.792 457.583,205.708 	"/>
</g>
<g id="horizon">
	<path fill="none" stroke="#FF0000" stroke-width="0.25" stroke-miterlimit="10" d="M0.083,114.458l1.042,0.5l0.917-0.292
		l0.833-0.167h0.958l1.333,0.208l1.25,0.208l1.042,0.167h1.125h0.542h0.333l1.083,0.458l1.083,1.042l0.583,1.208l0.5,1.167
		l0.542,0.917l0.833,0.542l0.833,0.958l0.708,0.875l0.292,0.458l0.458-0.208l0.375-0.75l0.375-0.667l0.375-0.5l1.125,0.167L19.5,121
		l0.708,0.5l0.417,0.917l0.708,0.625l0.792,0.417L22.833,124l1.333,0.875l1.708,0.917l1.292,0.25l0.5,0.167l0.125-0.167l0.125-0.167
		l0.625-0.125h0.917l0.792,0.167L31.042,126l0.542-0.333l1.583-1.167l1.042-1l0.875-0.5l0.375-0.167h1.167H37l0.5,0.083l0.458,0.667
		l0.792,0.625h0.458l0.75-0.208l0.542-0.375l0.458-0.083l0.375-0.958l0.875-1l1.125-0.125l0.625,0.375l1.082,0.75l1.75,1l0.75,0.375
		l0.708,0.25c0,0,0.417,0.417,0.542,0.5s0.542,0.417,0.542,0.417l0.625,0.125l0.667-0.083l0.375-0.125l0.833,0.125l0.5,0.167
		l1,0.125h1.167h1.917l0.958,0.25l2.083,0.667l1,0.708l1.125,0.5l1.75,0.792l1.625,0.542l1.208,0.292l1.042,0.417l0.833,0.542
		c0,0,0.375,0.167,0.583,0.417s0.875,0.542,0.875,0.542l0.75,0.25l1.417,0.042l2.333-0.208l1.875,0.125l2.083-0.042l1.833-0.125
		l1.125-0.542l0.667-0.667l0.5-0.333h0.958L84.374,130l1.292,0.292l0.667,0.417l1.083,0.125l0.917-0.375l1.375,0.125l0.916-0.167
		l0.708-0.25l0.458-0.5l0.75-0.208l1.083,0.167l0.542-0.083l0.625-0.125c0,0,0.458-0.083,0.625,0s0.625,0.25,0.625,0.25l1.125,0.5
		l0.958,1.042l1.167,1.458l2.083,1.625l1.042,0.208l0.75-0.375l0.458-0.25l1.083-0.125l0.667,0.417l0.375,0.167l0.875-0.792
		l1.125-1.417l0.917-0.917l0.542-0.375h1l1.667,1l1.625,1.208l0.875,0.792l0.583,0.417l0.917-0.167l0.792-0.25l1.083-0.083
		l1.167-0.292l0.666-0.083l1.458,0.333l1.083,0.25l1.083,0.667l0.667,0.708l0.792,0.417l1.25,0.583l1.5,0.5l0.875,0.083l0.917-0.417
		l1.458-0.792l0.792-0.375l1.167-0.5l2.333-0.833l1.083-0.833l1.083-0.417l1.125-0.333h2.667l1.667-0.375l0.958-0.458l0.417-0.417
		L144.79,131l1-0.208l1.25,0.083l1.25-0.333l0.708-0.333l0.75-0.625l0.292-0.333l0.833-0.125l0.833,0.417l1.208,0.292h1.875
		l1.917-0.792l2.125-1.042l1.292-1.125l0.458-0.542l0.708-0.667l0.583-0.083l0.875,0.25l0.542,0.583l1.417,1.417l1.125,0.792
		l1.292,0.333l1.625,0.792l1-0.167l0.708,0.375l1.083,0.583l0.958,0.458l1.042-0.042l1.333-0.042c0,0,0.917,0.042,1.042,0.125
		s1.125,0.292,1.125,0.292l1.25-0.292h0.708l1.542-0.75l0.708-0.667l0.667-0.125l0.792,0.125l1.5,0.333l1.083-1.375
		c0,0,0.167-0.083,0.458-0.083s1.042,0.25,1.042,0.25l1.5,1.333l0.792,0.458l1.375,1.042l0.792,0.833c0,0,1.083,1.208,1.125,1.333
		s1.458,1.625,1.458,1.625L194.79,136l0.833,0.25c0,0,0.208,0.083,0.417-0.042s0.958-0.458,0.958-0.458l0.75,0.083l1.125,0.417
		l1.25,0.208l0.75,0.458l1.5,0.625l0.833-0.708l0.875-0.958l1.75-1.083l1.625-0.708c0,0,1.583-0.583,1.75-0.583
		s1.708-0.125,1.708-0.125l2.125-0.167l0.625,0.125L214.79,134l1.542,0.833l1.792,0.708l2.083,0.583l1.667,0.833l1.375,0.375h0.708
		l1.125,0.167l0.833,0.25l1.375-0.875l2.583-1.333l2.167-0.875l2.583-0.458h2.625"/>
	<path fill="none" stroke="#FF0000" stroke-width="0.25" stroke-miterlimit="10" d="M249.29,134.292l1.875-0.083l1.167-0.25
		l1.208-0.542l1.042-0.542l0.792-0.75l0.583-0.375l0.958-0.458l2.417-0.375l1.917-0.25l1.625-0.292l1.208-0.333l1.292-1.333
		l0.917-0.292h0.958l1.333,0.375l1.167,0.708l1.292,0.917l1.583,0.542l1.125,0.25l1.292,0.208l1.042-0.042l1.25-0.083l1,0.042
		l1.083,0.667l1,0.75c0,0,0.5,0.375,0.583,0.5s0.708,0.417,0.708,0.417l1,0.208l0.625,0.25l1.875,0.625l1.583,0.542l0.958,0.417
		l1.625-0.042l1.5,0.583l2.042,0.792l1.458-0.208l1-0.75l1-0.458l1.208-0.292l1.625-0.125l0.875-0.167l0.875-0.125l0.458,0.375
		l0.542,0.542l0.792,0.542l1.042,0.292l0.833-0.083l1.625-0.375l1.167-0.458c0,0,0.5-0.375,0.792-0.417s1.958-0.083,1.958-0.083
		l2.5,0.208l1.167,0.5l1.292,0.083l1.458-0.208l1.208-0.375l1.583-0.75l1.792-1.042l2.5-1.125l2.458-0.833l1.667-0.042l1.042,0.042
		l2,0.708l1.417,0.75l1.125,0.542l1.167,0.25l1.625,0.042l2.042,0.042l2.291,0.25l1.5-0.208c0,0,0.583-0.125,0.625,0
		s1.417,0.458,1.583,0.583s1.542,0.5,1.542,0.5l1.792,0.208l1.667,0.042l2.125-0.042l1.667-0.417l0.75-0.333h0.416
		c0,0,0.667,0.417,0.792,0.542s1.208,0.5,1.208,0.5l2.167,0.542l2.25,0.042h2.833h0.834c0,0,1.5-0.208,1.625-0.167
		s1.208-0.083,1.208-0.083l1.708,0.208l1.5-0.083l0.958-0.042l1.458-0.042c0,0,0.917,0.167,1.042,0.167s1.625,0.5,1.625,0.5l2.042,1
		l0.416,0.208l0.667-0.292l0.458-0.708l1.25-1.333l1.292-0.25l0.667-0.042l2.083-0.292l1.208-0.417l1.5-0.625l1.334-0.708
		l0.916-1.083l0.792-0.75l1.083-0.208l0.917-0.042l0.792-0.167l1.5-0.042c0,0,0.583,0.208,0.708,0.292s1.208,0.833,1.208,0.833
		l1.709,1.042l0.583,0.375l0.958-0.083l0.542-0.292l0.958-0.042l0.917,0.125l1.958,0.917l1.542,1.042l0.583,0.333l0.792,0.042
		l1.125-0.167l1.792,0.375l1.625,0.958l2,1.667l1.958,1.5l0.583,0.583h1.167l3.875-1.417l4.458-1.417l4.084-1.083l2.583-0.583
		l1.333-0.292l2.792-3.083l0.958-0.75l1.125-0.458l0.542-0.375l0.708-0.208l1.209-0.042l2.375-0.292l0.625-0.5l0.541-0.333
		l1.542-0.208c0,0,1.042,0.125,1.167,0.208s0.541,0.125,0.833,0.167s1.958,0.167,1.958,0.167l1.417,0.458l1,0.417l1,0.292
		l1.167,0.667l0.833,0.25l0.708-0.417l1.125-0.5l2.125,0.458l0.917,0.208l0.667,0.208l0.708,0.625l1.167,0.208h0.5l1,0.208l1,0.375
		l0.708-0.042l0.876-0.125l1.292-1.5l1.291-1.083l0.625-0.583l0.709-0.583l0.666-0.125l0.792,0.417l0.958,0.792
		c0,0,0.667,0.667,0.792,0.708s0.917,0.375,0.917,0.375l1.666-0.417l0.709-0.708l1.041-0.167l1.084,0.042l1.541,0.125l1.084-0.125
		l1.083-0.167l0.875,0.042l1.333,0.292l1.042-0.042l0.583-0.333l0.917-0.417h1.542L490.04,130l1.625,0.5l0.916,0.375h0.667
		l0.583-0.458l0.792-0.292h0.875l1.5,0.417l1.292,0.333h0.75l0.583-0.125l1.042-0.667l0.583-0.25l1.375,0.125l1.042,0.208l1.125,0.5
		l1,0.292l0.583-0.792l1-0.417l0.458-0.125c0,0,0.584,0.041,0.834-0.167s0.75-0.583,0.75-0.583l1.083-0.625l0.958-1l0.625-0.917
		l0.75-0.792l1.25-1.292l0.75-0.25l0.959,0.042l1.541,0.75l1.625,1.292l0.542,0.75l0.542,0.667l0.5,0.25l0.958-0.542l1.75-0.708
		l1.125-0.292l1.291,0.042l0.667,0.208l1.292,0.083l0.666-0.125l0.584-0.417l0.666,0.167l0.625,0.417l1.5,0.292l0.334-0.458
		l0.375-0.042l0.291,0.167l0.792,0.25l1.958-0.167l1.834-0.167l0.708,0.208l0.542,0.375l0.958,0.042l0.458-0.5l0.584-0.708
		l0.958-0.25l1.208-0.292l1.959-0.75l0.833-0.375l0.542-0.208l0.583-0.25l1.042-0.583l1.084-0.875l0.458-0.5
		c0,0,1-0.208,1.167-0.167s0.958,0.042,0.958,0.042l0.875,0.417l1.5,0.833l1.125,0.458l1,0.083l1.125,0.208l0.542,0.333l0.375,0.417
		c0,0,0.25,0.167,0.375,0.167s1,0.208,1,0.208l0.917-0.042l1.416-0.625h0.417l1.875,0.25l1.083,0.5l0.417,0.25l1.458,0.5l1.75,0.167
		l1.209-0.167l1.541-0.167l1.084-0.042l0.708,0.375l1.708,0.958l0.875,0.583l1.75,0.292l1.459,0.083l1.666,0.417l1.792,0.625
		l1.542,0.542l2.083,1.208l1.958,1.25l0.667,0.958l0.667,0.292l1.333,0.125l1.917-0.375l2.25-0.542l1.625-0.333l1.292,0.125
		l0.833,0.458l0.959,0.25l1.416-0.167l1.667-0.333l1.208-0.333l1.292-0.333l0.958,0.125l1.334,0.75l1.75,0.542
		c0,0,0.709,0.417,0.875,0.542s0.708,0.542,0.708,0.542l1.208,1.083l1.667,0.833l0.75,0.625l0.583,0.417l1.042,0.167l0.958,0.208
		l1.043,0.042c0,0,0.875,0.292,1,0.375s1.042,0.125,1.042,0.125l1.708-0.417l0.958,0.083l1.042,0.583l1.5,0.708l1.458,0.292
		l0.667-0.167l1-0.167l0.75,0.458l0.667,0.25c0,0,0.791,0.292,0.916,0.417s0.709,0.333,0.834,0.375s1.25,0.042,1.25,0.042
		l1.291-0.458l0.792-0.208"/>
	<polyline fill="none" stroke="#FF0000" stroke-width="0.25" stroke-miterlimit="10" points="637.042,138.5 638.875,138.833 
		640.084,138.958 641.042,138.875 641.959,138.792 643.875,138.5 644.709,138.5 645.709,138.75 646.709,139.375 647.459,139.375 
		648.251,139.375 649.001,139.833 649.667,139.833 650.042,140.083 650.792,140.333 651.667,140.375 652.917,140.875 
		654.334,140.542 655.709,140.667 656.834,140.667 658.251,140.542 659.292,140.333 660.042,140 661.084,140 662.584,140.042 
		663.751,139.708 665.001,139.375 667.084,139.333 668.167,139.5 669.542,140 670.751,140.542 672.917,141.583 673.834,142.208 
		675.126,141.333 676.709,140.333 678.126,139.292 678.792,139.167 679.626,139.25 680.667,139.792 682.252,140.667 
		684.085,141.208 685.96,141.458 687.835,141.542 689.002,141.375 690.293,141.125 691.418,140.667 692.96,140.375 	"/>
</g>
</svg>
