<?xml version="1.0" encoding="utf-8"?>
<!-- Generator: Adobe Illustrator 16.0.4, SVG Export Plug-In . SVG Version: 6.00 Build 0)  -->
<!DOCTYPE svg PUBLIC "-//W3C//DTD SVG 1.1//EN" "http://www.w3.org/Graphics/SVG/1.1/DTD/svg11.dtd">
<svg version="1.1" id="svg" xmlns="http://www.w3.org/2000/svg" xmlns:xlink="http://www.w3.org/1999/xlink" x="0px" y="0px"
	 width="724px" height="486px" viewBox="0 0 724 486" enable-background="new 0 0 724 486" xml:space="preserve">
<g id="image">
	
		<image overflow="visible" enable-background="new    " width="2896" height="1944" xlink:href="AK01b_20110711_195216.JPG"  transform="matrix(0.25 0 0 0.25 0 0)">
	</image>
</g>
<g id="gcp-peaks">
	<circle id="P5330" fill="#FF0000" cx="178.25" cy="146" r="0.25"/>
	<circle id="P7910" fill="#FF0000" cx="231.5" cy="154" r="0.25"/>
	<circle id="P8249" fill="#FF0000" cx="260.25" cy="153.25" r="0.25"/>
	<circle id="P8510" fill="#FF0000" cx="286.25" cy="148.25" r="0.25"/>
	<circle id="P6940" fill="#FF0000" cx="322" cy="155.75" r="0.25"/>
	<circle id="P6330" fill="#FF0000" cx="415.5" cy="151" r="0.25"/>
	<circle id="P5360" fill="#FF0000" cx="472.5" cy="149" r="0.25"/>
	<circle id="P5090" fill="#FF0000" cx="545.25" cy="143" r="0.25"/>
	<circle id="P5170" fill="#FF0000" cx="581.75" cy="140.5" r="0.25"/>
</g>
<g id="gcp">
	<circle id="topshelf" fill="#FF0000" cx="13.5" cy="199.75" r="0.25"/>
	<circle id="nostril" fill="#FF0000" cx="82.25" cy="204.25" r="0.25"/>
</g>
<g id="horizon">
	<path fill="none" stroke="#FF0000" stroke-width="0.25" stroke-miterlimit="10" d="M0.167,128.083L2,128.417l1.583,0.5L6.5,130.5
		l2,1.583l1.417,1.417l0.667,1.083l1,1l0.75,0.083l2.167-0.333l1.75,0.417l1.417,0.083h0.917l2.333,0.083L22,136.083L22.417,137
		l1.333,1.75l1.083,2l2.667,2.583l0.667-0.583l0.333-0.833l1-0.417l1.083,0.167L32,142.333l0.5,1l0.833,0.833l1.75,1.167l1.583,1
		l1.5,0.75l0.833,0.25l0.667-0.667c0,0,0.083-0.333,0.333-0.25s0.667,0.167,0.917,0.333s0.917,0.333,0.917,0.333h1l1.333-0.583
		l2.25-2.25l1.833-0.5l1.083-0.167l0.75,0.583L51.167,145l0.917-0.167l1.25-0.75l0.333-0.5l0.5-1.167l1.167-0.167l0.75,0.333
		L58,143.917l2.125,1l1.125,0.5l0.25,0.375l0.375,0.125l0.708-0.083l0.917-0.167l0.917,0.167l0.958,0.542l1.375,0.333l0.833,0.083
		h1.25l1.208,0.167l1.5,0.375l1.167,0.208l0.583,0.208l1,0.75l0.917,0.875l1.583,0.583h1.167l0.917-0.042l0.917,0.458l0.708,0.542
		l1,0.708l0.917,0.5l1.167,0.458l1.083,0.125c0,0,1.458-0.042,1.625,0.042s2.208,0.125,2.208,0.125l2.333-0.083l1.417-0.208l1-0.5
		l0.75-0.542l0.917-0.708l0.375-0.417l0.375-0.167l0.833,0.5l0.458,0.25l0.583-0.375l0.375,0.042l1.542,0.667l0.792,0.75
		l0.792-0.333l0.625-0.458l1.542,0.125l1.25,0.208"/>
	<path fill="none" stroke="#FF0000" stroke-width="0.25" stroke-miterlimit="10" d="M108.874,150.083l0.458-0.042l0.708,0.25
		l1.708,1.292l1.083,1.167l1,1.333l1.125,1l0.75,0.333l0.75,0.167l0.708-0.208l0.75-0.167l0.375-0.542c0,0,0.292-0.084,0.417-0.042
		s0.833,0.5,0.833,0.5l0.292,0.208l0.625-0.208l0.792-0.958l1.125-1.167l0.75-0.792l0.667-0.5c0,0,0.458,0,0.583,0
		s0.958,0.5,1.083,0.542s1.083,0.875,1.083,0.875l1.167,0.833l0.958,0.75l0.667,0.625l0.583-0.125l0.917-0.167l0.958-0.125
		l0.542-0.208l1.292-0.583l0.625-0.042l1.333,0.25l0.708,0.375l0.625,0.125l0.833,0.792c0,0,0.416,0.542,0.583,0.667
		s0.792,0.625,0.792,0.625s1,0.458,1.125,0.5s0.958,0.292,1.167,0.375s1.583,0.5,1.583,0.5l1-0.333l1.417-0.958l1.167-0.75
		l1.042-0.208l1.042-0.417l1.042-0.375l1.458-0.375l0.75-0.542l0.5-0.333l1.292-0.5l1.667-0.125l1.917-0.042l0.416-0.125l1-0.375
		l0.417-0.708l0.375-0.375l0.833-0.208l1.5,0.083l1.042-0.25l0.542-0.042l0.5,0.083l0.5-0.167l0.75-0.667l0.417-0.667l0.958-0.333
		l0.875,0.417l1.292,0.542l2.208-0.292l2.208-0.375l1.042-0.333l0.625-0.75l1.25-1.417l1.208-1.083l0.625-0.167l1,0.125l0.792,0.917
		l1.625,1.875l1.208,0.625l1.917,0.542h0.75l1.083,0.208l1,0.25c0,0,0.667,0.5,0.833,0.583s0.833,0.667,0.833,0.667l0.375,0.417
		l0.5-0.5l0.583-0.25l0.833,0.042l1.917,0.625l0.958-0.417l0.5-0.25l0.583-0.083l1.25-0.208l0.875-0.542l1.125-0.208l0.833-0.042
		h1.333l0.458-0.25l1-0.917l0.542-0.292l0.75,0.042l0.5,0.375l0.833,0.917l0.875,0.625l1.167,0.625l0.75,0.375l0.583,0.708
		l1.25,1.25l1.167,1.458l1.833,1.5l0.75,0.292l1.292-0.708l0.875-0.083l0.833,0.25l1.333,0.583l1.333,0.625l0.5,0.208l0.833,0.25
		l0.542-0.25l1.25-1.083l2-1.375l1.417-0.792l1.625-0.458l1.792-0.333l1.25-0.083h1.042l1.5,0.292l1.333,0.708L235.58,156
		l1.708,0.542l1.75,0.542l1.583,0.667l1.083,0.167l1.417,0.292l1.167,0.375l1.375-1.042l1.708-0.792l1.25-0.625l1.917-0.708
		l2.542-0.667l1.5-0.083h1.458l0.958-0.083l0.958-0.125l0.792-0.25l0.542-0.417l0.417-0.292l0.5-0.167c0,0,0,0.25,0.167,0.333
		s0.833,0.583,0.833,0.583l2,0.542l0.875-0.333l0.5-0.333h0.917l0.792,0.333l0.625,0.375l1.25,0.125l2.375-0.292l1.667-0.25
		l1.292-0.583l0.917-0.958l0.625-0.833l0.875-0.708l0.875-0.083l1.292-0.042l1.25,0.042l1.75-0.292l1.458-0.333l1.167-0.208
		l0.917-0.667l0.25-0.417l0.708-0.708"/>
	<path fill="none" stroke="#FF0000" stroke-width="0.25" stroke-miterlimit="10" d="M293.913,150.792l1.458,0.792l0.583,0.25
		l1.208-0.208h1.125l0.917,0.375l0.875,0.583l0.625,0.5l0.958,0.625c0,0,0.708,0.333,0.833,0.375s0.583,0,0.583,0l0.583,0.375
		l2.167,0.667l1.667,0.75l1.5,0.208l1.125,0.125l0.792,0.375l1.375,0.583l1,0.333l1.625-0.167l1-0.292l1.208-0.333l1.333-0.458
		l0.958-0.292l0.875-0.375l1.458-0.042c0,0,1.125,0.042,1.25,0.125s1.167,0.75,1.167,0.75l0.708,0.625h1.417l0.792-0.083
		l0.917-0.375l1.333-0.5l1.167-0.458l1.667-0.083l2.583,0.292l0.958,0.417l1.458,0.417l1.25-0.125l1.708-0.958l1.375-0.75
		l1.833-0.917l1.75-0.792l1.375-0.458"/>
	<path fill="none" stroke="#FF0000" stroke-width="0.25" stroke-miterlimit="10" d="M352.162,152.333l2.25,0.833l1.417,0.917
		l1.125,0.458l1.542-0.167l1.667-0.208h1.417l1.958,0.167h2.125l1.666,0.5l1.709,0.667l0.833,0.083l3.125,0.125l2.042-0.458
		l1.291-0.125l0.834-0.208h0.958l0.75,0.667l0.583,0.375l1.084,0.375l2.125,0.292h3.833l1.333-0.208l1.375-0.208l1.834-0.167
		l1.125,0.125l0.75,0.25l0.791-0.125h1.459l1.208-0.208h1l1.708,0.417l1.125,0.708l0.834,0.583l0.833,0.25l0.792,0.167l0.416-0.833
		l0.75-1.125l1.459-0.708l1.416-0.292h1.125l1.5-0.167l2.209-0.75l1.166-1.083l1.709-1.5l0.666-0.5l0.672-0.25l0.953-0.208
		l1.084,0.125l0.708,0.333l1.708-0.083l0.875,0.333l0.667,0.417l0.5,0.75l0.917,0.333l0.791,0.5l0.292,0.125l1.167-0.208l1.041-0.25
		h0.75l1.584,0.542l0.958,0.625l1.208,0.875l0.917,0.458l1.792,0.083l2.083,0.458l1.333,0.542l1.875,1.625l1.834,1.25l0.833,1
		l0.375,0.375l0.833-0.125l1.042-0.292h0.75l1.333-0.958l2.834-0.667l3.583-1.167l3.167-1l2.875-0.583l1.75-0.583l1.875-2.083
		l1.875-1.667l1.042-0.75l0.833-0.542l0.875-0.042l0.75-0.042l0.709-0.333l0.875-0.167h0.5l1-0.292l0.833-0.208l0.625-0.375
		L472.75,149l1.579,0.042l1.208,0.042l2.584,0.875l1.583,0.542l1.667,0.667l1.25,0.667l0.833-0.583l0.75-0.333h0.875l1.125,0.375
		l0.542,0.125l0.833,0.042l0.708,0.083l0.625,0.25l0.709,0.542l0.958,0.25l1.083,0.208l1.125,0.292l0.459,0.25l0.875-0.042
		l1.625-1.5l2.041-1.833l0.917-0.708l0.792-0.458l0.876,0.042l0.5,0.792l0.833,1l1.084,0.542l0.875,0.25l0.541-0.167l0.917-0.708
		l0.875-0.375l1.375,0.125l1.417-0.083l2.083-0.208l0.917-0.042l1.708,0.167l0.792,0.083l0.708-0.25l0.75-0.542l0.542-0.417
		l1.875,0.375l1.291,0.25l1.459,0.375l0.875,0.292l1.208-0.042l1.084-0.542l0.5-0.208l0.709,0.333l0.875,0.375l1.375,0.167
		l0.791-0.083l0.917-0.208l0.542-0.417l0.666-0.417l0.959-0.042l1.666,0.25l1.584,0.583l0.75,0.208l1-0.333l0.708-0.75l0.667-0.5
		l1.083-0.375l1.583-0.292l1.417-2.333l1.458-1.708l0.625-0.542l0.875-0.333h1.334l2,1l0.875,1.125l1.208,1.208l0.875,0.708
		l0.917-0.333l0.875-0.792l0.666-0.583l1.542-0.083h0.708l1.042,0.458l1,0.375l1-0.042l0.583-0.625l0.584-0.375
		c0,0,0.666,0.167,0.791,0.25s0.625,0.417,0.625,0.417l1.292,0.083l0.208-0.458l0.709-0.042l0.291,0.25l0.334,0.417h0.458
		l1.167-0.125l1.041-0.333l0.918-0.042l1.042,0.042l0.417,0.417l0.666,0.208l0.625-0.375l0.459-0.417l0.791-0.333l0.959-0.333
		l1.583-0.292l0.708-0.458l1.542-0.708l0.625-0.417l0.583,0.083l0.334,0.125l0.916-0.75l1.334-1.042l0.625-0.5l0.666-0.333h1h1.125
		l0.792,0.458l0.667,0.542l0.917,0.583H587l0.458,0.042l0.709,0.417l0.458,0.042h0.333l0.875,0.333l0.5,0.625l0.542,0.458
		l0.625,0.292l0.792,0.083l0.625-0.542l0.625-0.625l1.166-0.333h0.875l0.959,0.25l0.708,0.5l0.875,0.708l0.833,0.333l0.459,0.25
		l2,0.167l1.041-0.125l1.625-0.458h0.75l1.584,0.375l1.708,1.083l1.583,0.625l1.875,0.292l1.584,0.083l1.5,0.417l0.917,0.375
		l1.875,0.583l1.5,0.792l1.792,0.958l1.125,1.042l0.75,1l1.875,0.125l3.666-0.667l2.084-0.458l1.291-0.167l1.125,0.417l0.25,0.333
		l0.501,0.208l3.5-0.333l2.208-0.583l1.292-0.25l0.958,0.25l0.75,0.5l1.708,0.583l1.334,0.958l1,0.958l1.458,0.75l1.125,0.833
		l1,0.667l1.833,0.208l2.084,0.458l2.166,0.042l1.042-0.292h0.833l0.834,0.458l1.583,0.625l1.958,0.792l1.167,0.083l1.167-0.042
		l0.75-0.083l0.916,0.083l0.584,0.625l0.875,0.5l1.791-0.833l1.125-0.625l1-0.542l1.167-0.042l1.208,0.083l1.167,0.208l1.459,0.292
		l2-0.083l0.542-0.583l0.541-0.083l0.375,0.208l0.625,0.042l0.542-0.292l0.5-0.042l0.75,0.125l0.625,0.833l0.542,0.25l0.791-0.125
		l0.709-0.083l0.833,0.458l1.125,0.333l0.583,0.042h1.25l0.709,0.417l1.291,0.667l0.792-0.25h0.958l1.209-0.042l1.333-0.542
		l1.958-0.083l1-0.25l1.792,0.042l1.75-0.042l1.75-0.292l2.208-0.167h1.875l0.5,0.542l0.5,0.417l0.5,0.333
		c0,0,0.959,0.208,1.084,0.25s0.833,0.375,0.833,0.375l1,0.125l0.875,0.042l0.708-0.25l1.626-1.292l1.333-1.167l0.375-0.25h0.75
		l1.458,0.5c0,0,0.792,0.666,0.917,0.708s0.917,0.542,0.917,0.542l1.666,0.958l1.54,0.542"/>
</g>
</svg>
