<?xml version="1.0" encoding="utf-8"?>
<!-- Generator: Adobe Illustrator 16.0.4, SVG Export Plug-In . SVG Version: 6.00 Build 0)  -->
<!DOCTYPE svg PUBLIC "-//W3C//DTD SVG 1.1//EN" "http://www.w3.org/Graphics/SVG/1.1/DTD/svg11.dtd">
<svg version="1.1" id="svg" xmlns="http://www.w3.org/2000/svg" xmlns:xlink="http://www.w3.org/1999/xlink" x="0px" y="0px"
	 width="929.28px" height="622.08px" viewBox="0 0 929.28 622.08" enable-background="new 0 0 929.28 622.08" xml:space="preserve">
<g id="image">
	
		<image overflow="visible" width="3872" height="2592" xlink:href="AK01b_20100202_220056.JPG"  transform="matrix(0.24 0 0 0.24 0 0)">
	</image>
</g>
<g id="gcp-peaks">
	<circle id="P5330" fill="#FF0000" cx="225.708" cy="92.25" r="0.25"/>
	<circle id="P7910" fill="#FF0000" cx="295.999" cy="97.041" r="0.25"/>
	<circle id="P8249" fill="#FF0000" cx="332.998" cy="93.208" r="0.25"/>
	<circle id="P8510" fill="#FF0000" cx="366.581" cy="84.291" r="0.25"/>
	<circle id="P6940" fill="#FF0000" cx="413.122" cy="89.624" r="0.25"/>
	<circle id="P6330" fill="#FF0000" cx="533.834" cy="74.25" r="0.25"/>
	<circle id="P5360" fill="#FF0000" cx="608.501" cy="65.625" r="0.25"/>
	<circle id="P5090" fill="#FF0000" cx="703.544" cy="49.998" r="0.25"/>
	<circle id="P5170" fill="#FF0000" cx="751.295" cy="43.498" r="0.25"/>
</g>
<g id="horizon">
	<path fill="none" stroke="#FF0000" stroke-width="0.25" stroke-miterlimit="10" d="M0.062,89.25l1.312,0.5l1.312,0.688l1.062,1
		L5,92.188l0.562,0.5l0.688,0.375c0,0,0.5,0.562,0.688,0.688s0.75,1.062,0.75,1.062l0.688,0.875l1.75,1.188l0.812,0.438l1.438-0.812
		l1.125-0.688l1.25-0.312l1.812,0.438h0.25l1.562-0.062l2.062-0.125H22c0,0,0.875,0.438,1.062,0.625s1.25,1.125,1.25,1.125l2.125,2
		l0.625,1.188l0.562,1.125l1.125,0.875l0.875,0.75l1.062,1l0.875,0.938l0.688,0.188l0.188-1.25l0.188-1.375l0.812-0.312l1.5,0.125
		l1.5,0.25l0.812,0.625l0.375,0.688l0.625,0.562l2.062,1l2.375,1.25l2.375,1.188l1,0.375l0.875-0.188l1.5-0.688l0.375-0.25
		l0.875,0.125l0.75,0.562l0.625,0.312l0.875-0.125l1.188-0.312l1.188-1.438l1-1.25l0.25-0.875l0.688-0.938l1.375-0.312l1.438-0.125
		l0.688-0.062l0.625,0.625l0.438,0.562l0.25,0.25l0.812,0.125l1.5-0.375l0.812-1.188l1.062-0.5l0.375-0.562L66,101.438l0.5-0.562
		l0.25-0.312l1.062,0.062l1.562,1l0.938,0.5L71,102.25l1.312,0.812l0.812,0.562l0.688,0.062h0.5l0.812,0.5l0.438,0.375h1.5
		l1.062-0.375L80,104.562l1.125,0.562l1.938,0.25l1.625-0.438l0.938-0.375l1.625,0.312l1.125,0.438l0.938-0.062l1.312,0.25
		c0,0,0.938,0.562,1.125,0.688s1,0.75,1,0.75l1.625,0.812l1.688,0.5l1.5,0.188h0.875l1.625,0.188l0.938,0.688l1.062,0.812
		l1.188,0.625l1.625,0.375l1.375,0.25l1.938-0.5h1.25l1.188-0.188l1.562,0.188h1.25l0.812-0.5l1-0.25l1.25-0.188l1.625-1.312l1-1
		l0.438-0.688h0.938l1.25,0.75l0.938-0.25h1.062l1.062,0.438l0.938,0.562l1.062,0.312l0.938-0.25l0.5-0.375l0.938-0.312l1.438-0.062
		l1.312,0.062l1.812-0.938l1.5-0.438l0.812-0.812l0.875-0.375l0.875,0.25l2.062,0.938l1.375,0.75l0.625,1.25l0.75,0.5l1.562,1.062
		l1.125,1.062l0.812,0.188l0.812,0.375l0.625-0.25c0,0,0.188-0.062,0.375-0.062s0.562,0.188,0.562,0.188l0.562-0.25l0.438-0.312
		l0.375-0.688c0,0,0.375-0.188,0.562-0.125s1,0.25,1,0.25l0.625,0.375h0.875l1.25-1.562l0.438-1.438l0.375-1l1.062-0.688
		l1.125-0.375l1.375,0.312l1.812,1.125l2.25,1.562l1.562,1.125l0.875-0.188l1.875-0.312l1.062-0.625l0.625-0.625l0.25-0.438
		l1.25-0.188c0,0,1.25,0.188,1.438,0.25s1.75,0.5,1.75,0.5l1.5,0.5l1,0.562l1.312,1.062l1.062,0.812l1.938,0.5l2.062,0.562
		l1.625-0.5l3.188-2l3.625-1.812l2.375-1.312l0.75-1.125l0.562-0.812l1.875-0.188l1.625,0.25h1.875l1.562-1.062l1.312-1.188
		l0.625-0.688l2.938-0.438l2.25,0.062l1-0.562l0.438-0.75l0.562-0.875l1.5-0.062l1.312,0.188l1.75,0.562l2.812-0.375l2.375-1.125
		l2.562-1.875l0.5-1.438l0.5-1.188l0.812-0.688l0.375-0.812l0.833-0.125l1.229,0.063l0.75,0.875l2.375,2l1.375,0.938l0.875,0.062
		l1.312,0.125l1.25,0.625l1.438,0.438l1.125,0.188l1.062,0.375l0.938,0.375l1.75,0.75l1.438-0.5l1.562-0.188h1.25l0.812,0.062
		l1.188-0.312l0.375-0.25h1.375h1.062l0.875-0.688l0.562-1.062l1.188-0.188h1.25l1.688-0.438l0.875-1.125l0.5-0.375l1.25-0.125
		c0,0,0.875,0.562,1.062,0.688s2.188,1.25,2.188,1.25l2.625,1.312l2.188,1.312l1.125,1.312l1.375,1.625c0,0,1.188,0.688,1.312,0.875
		s1.438,0.562,1.438,0.562l1.5,0.125l1.125-0.375l0.75-0.312l1-0.062l1.25,0.438l1.312,0.5l1.562,0.625l1.188,0.438l2.688-1.875
		l1.25-1.5l0.562-0.812l1.25-0.812l2.5-0.875l3.812-0.875l2.062-0.625l1.625,0.312l2.125,1.438l2.5,0.875l2,0.375l2.25,0.75
		l2.5,0.25l2.375,0.5l1.062,0.125l1.375-0.312l1.625-0.938l2.688-1.812l2-1l1-0.375l1.75-0.5l1.938-0.5l2.375-0.125l2.062-0.125
		l1-0.25l1.375-1.188l0.688-0.812l0.875-0.5l0.75,0.25l1.312,1.25l0.625,0.562l1,0.375l1.062-0.688l0.875-0.5l1.062-0.188h1.375
		l0.938,0.438l2.625,0.438l1.875-0.5l2-0.625l1.438-0.438l1.688-2.188l1.25-1.5l1.312-0.75l2.125-0.125l1.312-0.438L359,87.938
		l3.438-0.375L364,86.125l0.75-1.25l1.125-0.625h1.562l1.625,0.625l1.5,0.438l1.75,0.75l1.25,0.5l1.062,0.125h0.938l0.812,0.188
		l1.312,0.5l1.875,0.125l1.688-0.125l1-0.125c0,0,1.062,0.375,1.25,0.438s1.25,0.75,1.25,0.75l1.188,0.75l1.125,0.625l1.438,0.5
		h1.062L392.125,91L394,91.5l2.5,0.688l1.562,0.188l0.75-0.062l1.438,0.375l1.438,0.5l1.438,0.312l1.688-0.5l1.125-0.562
		l1.375-0.812l1.5-0.812l1.75-0.562l1.562-0.375l1.247-0.251l1.378,0.688l1.625,1.062l1,0.688l1.5,0.25L420.5,91.5l1.562-1.062
		L423.5,89.5l1.375-0.625h3.688l3.375,0.25l1.938,0.125l2.25-0.812l2.5-1.625L441,85.375l1.875-1.062l2.188-0.938l3.062-0.812
		l2.562-0.062l2.25,0.25l3.125,0.938l1.75,0.812l1.312,0.625l1.625-0.25l1-0.438l2.875,0.125l2.188-0.312l3.75,0.375l3.25,0.062
		L476.688,85l2.75-0.25l2.188-0.875l2.312-0.438"/>
	<path fill="none" stroke="#FF0000" stroke-width="0.25" stroke-miterlimit="10" d="M485.938,83.438l1.062,0.75l1.375,0.438
		l1.5-0.062l1.562-0.125l1.75,0.125l1.25,0.375h2.25h2.25l1.625-0.5L501.188,84l1.312-0.25l2.562-0.25l3.062-0.5l1.812-0.25
		l1.438-0.062L513.312,83l1.188,0.5c0,0,0.688,0.5,0.875,0.625s1.75,0.875,1.75,0.875l0.5,0.062l0.688-0.5L520,81.938l1.188-0.812
		l1.25-0.5h1.625h1l1.938-0.25l1.25-0.625l2.688-2.562L533.312,75l1.312-0.875L536.688,74l1.75-0.062l1.562-0.25l1.625,0.75
		L543,75.5l1.812,0.75l1.875,0.625l2-0.875l1.438,0.125l2.562,0.562l1.938,0.875l0.625,0.688l1.188,0.125l1.938-0.25l2.688,0.438
		l2.625,1.312L566,81.812l1.875,1.312l1.938,1.188l2.125-0.5l2.25-0.812l6.75-2.562l4.938-1.688l4.562-1.688l2.062-1.188
		l0.875-0.688l2.562-2.875l1.625-2l1.312-1.062l1.938-0.75l1.125-0.125l2.312-0.875l1.438-0.5L607,66.375h1.562l1.312,0.125
		l1.625-0.375L611.875,66h2l1.25-0.5c0,0,0.938-0.188,1.25,0.125s1.062,0.812,1.062,0.812l1.688,1.062l2.312,0.5l1.375,0.188
		l0.938-0.938l2.125-0.062l1.375,0.438l1.125-0.375l1.062,0.25l1.688,1.062l0.5,0.438l1,0.062l0.5-0.438l0.562-0.062l1.062,0.562
		l0.562,0.312h1.5l2.438-2.812l3.375-3.188l0.875-0.5h1l1.625,1l0.812,0.938l1.625,0.812l1.562,0.062l0.875-1.5l1.688-0.625
		l2.375,0.188l2.812-0.25l1.875-0.625h1.5l1,0.062l1.812,0.125l0.688-0.938l1-0.812l1.25,0.25l1.062,0.312l1.125-0.312l1.375,0.312
		l1,0.625l1.188,0.125l2-0.312l1-0.938l0.875-0.5l0.875,0.5l0.938,0.438c0,0,1.125,0,1.312,0.062S681.5,62,681.5,62l0.812-0.188
		l1.312-0.875l0.688-0.312l0.812-0.125l1.438,0.125l1.688,0.25L689.812,61l1.75,0.25L692,59.812l0.875-0.375l1.438-0.688
		l1.062-0.375l0.875-0.625l1.75-1.625l1.875-2.562l2.25-2.812L703,49.812l1.125-0.25l1.312,1.062l1.625,1.625L709,54l1.938,1.188
		c0,0,0.75,0,1-0.062s1.688-1.562,1.688-1.562l1.25-0.938l1.062-0.25h1.312l2.812,1.062l2.25-1.125l0.938-0.25l0.5,0.312l1.75,0.188
		l1.688-0.625l1.062,0.312c0,0,0.562,0.438,0.875,0.25s2.688-0.812,2.688-0.812h1.5l2.125-0.062c0,0,1.562,0,1.812-0.188
		s1.562-0.812,1.562-0.812l1.75-0.688l2.562-1.25l0.812-1.062l0.75-0.312l1.5-0.25l1.25-0.438l1.5-1.5l0.375-0.75l1.562-0.562
		l1.625-0.438l1-0.188l1.562,0.875l1.562,0.812L758.438,45l1.688,0.5l0.812,0.438c0,0,0.875,0.938,1.062,0.938
		s1.562,0.375,1.562,0.375h1.625l1.812-1.5l2.062-0.25l1.625,0.188l2.062,0.688l1,0.562l2.75,0.562l2.562-0.062L780.375,47
		l0.688-0.438l1.562-0.062c0,0,1.688,0.812,1.875,0.875s1.875,0.562,1.875,0.562l1.938,0.625l1.562,0.125l2-0.125h1.625
		c0,0,2.125,0.562,2.312,0.688s3.562,1.562,3.562,1.562l4.375,2.062l1.875,1.688c0,0,2.188,0.375,2.375,0.375s3.75-1.062,3.75-1.062
		l2.375-0.812l2.562-0.75l1.25-0.125l2.562,0.75l1.312,0.562L823,53.438l1.938-0.938l1.25-0.188l2.25-0.625L831,52.125l2.375,0.375
		l1.688,1.062l2.5,1.625l2.312,1.375l2.25,1.062l1.625,0.125l1.938,0.062l2.5,0.188l1-0.25l1.625-0.438l1.312-0.25l1.25,0.375
		L856,58.125l1.5,0.938l0.938,0.438l1.5-0.188L861.5,59c0,0,1.5,0.625,1.688,0.688s0.938,0.438,0.938,0.438l1,0.25l2.25-1.625
		l1.562-1.125l1.562-0.5l2.188,0.125l1.562,0.375h0.812l2.812,0.188l1.062-0.25l2.312-0.438l1.188-0.438H884l3,0.625l2.25,0.75
		l2.125,0.25l1.688,0.25l1,0.375l2.375-0.062l2.125-0.125l3.125-1.25l3.438-1.188l3.438-0.5l2.875-0.5l2.188,0.062l2.188,0.188
		l1.062-0.062l1.375,0.75l1.375,0.75l1.125,0.438l1.625,0.875l1.375,0.188l1.375-1.062l1.062-1.375l0.75-0.938l1.094-0.938
		l1.249-0.406"/>
</g>
</svg>
