<?xml version="1.0" encoding="utf-8"?>
<!-- Generator: Adobe Illustrator 16.0.4, SVG Export Plug-In . SVG Version: 6.00 Build 0)  -->
<!DOCTYPE svg PUBLIC "-//W3C//DTD SVG 1.1//EN" "http://www.w3.org/Graphics/SVG/1.1/DTD/svg11.dtd">
<svg version="1.1" id="svg" xmlns="http://www.w3.org/2000/svg" xmlns:xlink="http://www.w3.org/1999/xlink" x="0px" y="0px"
	 width="695.04px" height="466.559px" viewBox="0 0 695.04 466.559" enable-background="new 0 0 695.04 466.559"
	 xml:space="preserve">
<image overflow="visible" enable-background="new    " width="2896" height="1944" id="image" xlink:href="AK01b_20130625_012325.JPG"  transform="matrix(0.24 0 0 0.24 0 4.882812e-04)">
</image>
<g id="coast">
	<polyline fill="none" stroke="#FF0000" stroke-width="0.25" stroke-miterlimit="10" points="407.459,210.625 410.125,210.292 
		411.959,210.042 413.084,209.833 414.417,209.75 415.834,209.708 418.209,209.5 419.625,209.5 420.959,209.333 422.334,209.125 
		424.125,208.917 424.75,208.875 426.334,208.833 428.167,208.583 429.334,208.417 431.417,208.333 432.917,208.25 434.542,208.208 
		437.042,208.042 439.167,207.958 441.375,207.958 443.584,207.417 445.792,207.208 448.667,206.875 451.084,206.417 
		453.459,206.125 455.459,206.042 457.502,205.792 	"/>
</g>
<g id="horizon">
	<path fill="none" stroke="#FF0000" stroke-width="0.25" stroke-miterlimit="10" d="M0.125,114.583l0.917,0.375l1.042-0.042
		l0.542-0.208l0.75-0.083l1.375,0.083l1.792,0.25h0.625l2,0.25l0.583,0.083c0,0,0.5,0.167,0.625,0.25s0.917,0.792,0.917,0.792
		l0.917,1.458l1.625,2.083l1.125,1.375l0.958,0.958l0.458,0.042l0.292-0.583l0.708-0.833l0.667-0.042l1.208,0.167l1,0.5l0.458,0.75
		l1.042,0.875l1.458,0.833l0.833,0.75l1.042,0.667l1.417,0.792h1.375l0.292-0.25l0.917-0.083h0.625l0.917,0.292l0.667,0.042
		l0.792-0.417l1.75-1.792l1.208-0.875l1.042-0.25l1.208-0.042l0.375,0.292l0.583,0.917l0.667,0.292h0.875l1.25-0.375l0.542-0.75
		L42,122.042l0.75-0.458l0.375-0.042l1,0.292l0.5,0.542l1.667,1L47.167,124l0.875,0.167l0.458,0.25l0.958,0.833l0.958-0.167
		l1.333,0.042l0.875,0.333l1.75,0.042l2.25,0.042l1.333,0.292l2.292,0.917l1.5,1.125l1.458,0.708l2.083,0.333
		c0,0,1,0.166,1.125,0.208s0.833,0.375,0.833,0.375l1.042,0.917l1.417,0.833L71,131.5l0.875-0.125l1-0.125l1.75,0.333l1.25,0.333
		h0.875l0.75-0.458l1.167-0.167h1.25l1-0.625l0.708-0.5l0.542-0.5c0,0,0.583-0.083,0.708,0s0.292,0.417,0.417,0.5
		s0.833-0.208,0.833-0.208l0.667-0.042c0,0,0.708,0.333,0.875,0.375s0.625,0.333,0.625,0.333l1.417,0.208l1.458-0.25l0.625,0.083
		l0.708,0.208l0.625-0.792l2.417-0.583l1.375-0.375l1.292,0.333l1.208,1.167l1.292,1.25l2,2.25l1.167,0.25l1.125-0.083l0.75-0.292
		l0.375-0.417c0,0,0.5,0.208,0.625,0.208s0.625,0.583,0.625,0.583l0.542-0.042l0.875-0.833l0.708-0.792l1.5-1.583l1.333-0.208
		l1.042,0.75l1.667,1.083l1.542,1.125l0.583,0.417h0.875l0.792-0.25l1-0.125l0.708-0.292l0.667-0.292l0.75,0.042l1.625,0.458
		l1.375,0.625l0.875,1.125c0,0,0.625,0.375,0.75,0.417s0.833,0.333,0.833,0.333l1.5,0.417l0.833,0.5l0.917-0.167l1.542-0.792
		l1.417-1.125l1.792-0.417l1.625-0.792l1.958-1l1.375-0.5l1.375,0.042l1.875-0.125l1.25-0.125l0.958-0.875l0.667-0.458l1.167-0.208
		l1.708-0.042l1.167-0.25l1.042-0.708l0.333-0.417l1-0.083l0.792,0.292l1.333,0.458l1,0.208l2.292-0.708l2-0.75l1.125-1.042
		l1.083-0.917l0.542-0.458l0.5-0.792l0.417-0.042l1.708,1.208l1.708,1.667l1.208,0.583l1.25,0.167l1.125,0.708l1.167,0.333
		l0.917,0.208l0.667,0.542l1.292,0.333l2.667-0.083h1.625l2.292-0.458l0.917-0.25l0.625-0.458l0.958-0.042l1-0.083l1.083-0.958
		l1.042-0.417l1.25,0.25l1.125,0.917l1.292,0.917l1.625,0.958l0.999,0.75l1.125,1.542l1.917,1.917l1.042,0.708l0.792-0.167
		l0.458-0.542l0.75-0.208l1.208,0.417l2.25,0.917l1,0.417l0.833-0.5l0.875-0.417l1.792-1.333l2.333-0.958l2.708-0.667l1.583-0.333
		l1.042,0.167l1.458,0.583l2.25,1.208l1.583,0.667l2.25,0.708l2.125,0.833l2.083,0.25l1.292-0.125l2.458-1.25l3.833-1.625
		l3.208-0.208l1.583,0.042l0.75-0.25l1.208-0.75l1.083-0.5h0.958l0.667,0.625l1.75,0.792l1.042-0.25l0.875-0.333l1.417,0.208
		l0.375,0.375l1.25,0.042l1.875,0.125l1.5-0.125l0.375-0.417l2.083-1l0.833-0.792l0.583-0.458l0.583-0.458h1.792l1.708-0.292
		l2.333-0.292c0,0,0.542-0.083,0.667-0.125s0.75-0.542,0.75-0.542l0.75-0.75l0.708-0.708l0.875-0.083h1l1.583,0.75l2.375,1.167
		l1.5,0.625l1.25,0.208l0.958,0.167l1.208,0.083l1.333-0.042l0.958,0.167l1.375,0.875l2.292,1.292l1.417,0.458l1.458,0.583
		l2.042,0.667l3.042,0.833l1.542,0.667l2.333,0.208l1.708-0.958l1.083-0.875l1.417-0.167h1.875l1.833,0.042l0.875,0.708l0.917,0.667
		l1.042,0.25l1.5-0.25l1.708-0.792l1.667-0.417l2.333,0.125l2,0.625l2.458,0.375l1.292-0.5l3.083-1.792l3.333-1.708l2.208-0.625
		l2.125-0.042l2.292,0.708l1.708,0.833l2.042,1.042l1.5-0.167l1.333-0.167l1.708,0.208c0,0,1.083,0.291,1.208,0.333
		s1.5-0.083,1.5-0.083l2.167,0.292l2.167,0.583l1.833,0.583l1.625,0.042l1.125-0.375l0.834-0.083l0.791-0.167l1.125-0.292
		l0.75-0.292l1,0.625l1,0.75c0,0,0.959,0.042,1.125,0.042c0.168,0,1.418,0,1.418,0h1.25l0.707,0.25h1.209l1.416-0.042l2.584-0.083
		l1.334-0.125h1.207l1.084,0.042l1.625,0.042l1.041-0.125l1.375-0.042l1,0.333l1.793,0.75l1.207,0.75l0.75,0.167l0.875-0.833
		l0.709-1.042l0.709-0.875l0.957-0.125l1.375,0.25l1.543-0.292l1.332-0.5l1.459-1.25l1.709-1.083l0.666-0.833l0.543-0.417
		l0.457-0.083l1,0.25h1.5l1.209-0.167l0.709,0.083c0,0,0.916,0.375,1.041,0.458s1.166,1.083,1.166,1.083l1.334,0.792l0.709,0.458
		l1.5-0.583l1.082,0.042l1.125,0.458l1.625,0.958l1.084,0.458l1.125,0.208l1.25-0.25l2.084,0.833l1.582,0.917l0.834,0.625
		l1.666,1.458l1.125,1.417l0.793,0.208l1.166-0.292l2.291-0.875l5.334-1.583l5.168-1.5l2.666-0.583l1.084-0.25l3-3.208l2.125-1.292
		c0,0,1.5-0.333,1.625-0.292c0.125,0.041,2.707-0.625,2.707-0.625l1.5-0.625l1.5-0.083l1.793-0.167l1.875,0.417l1,0.625l1.334,0.333
		l1.541,0.708l0.584,0.292l0.666,0.375l1.043-0.75l0.707-0.125l1.334,0.375l2.084,0.375l1.125,0.125c0,0,0.457,0.167,0.666,0.292
		s0.834,0.292,0.834,0.292l1.332,0.333l0.668,0.667l1-0.458l2.582-1.875l1.834-1.542l0.625-0.5l0.416-0.083l0.418,0.292l0.957,0.667
		l2.418,1.292l0.916-0.25l1-0.333l0.709-0.292l0.916-0.042l1,0.292l1.625-0.375l1.459-0.042l1.5,0.125l1.416,0.083l0.625-0.25
		l1-0.583l0.959,0.125l1.375,0.208l1.5,0.417l2,0.542l1.625-0.917l0.875-0.042l0.875,0.125l1,0.375l1.75,0.167l0.959-0.542
		l0.916-0.375c0,0,0.459-0.042,0.584,0.042s1.625,0.542,1.625,0.542l1.291,0.333h1.375l1.25-0.833l1.625-0.875l1.334-0.583
		l1.875-2.083l1.582-1.667l0.543-0.75l0.916-0.042c0,0,0.668,0.166,0.875,0.333c0.209,0.167,1.584,0.833,1.584,0.833l1.75,1.542
		l0.666,0.875l0.209,0.333l2.707-1.333l1.418-0.25l1.125,0.167l1.207,0.375l1.375-0.25l0.668-0.542l0.791,0.042l0.709,0.458
		l0.875,0.083l0.916-0.375h1.291l0.793,0.125l1.916,0.042l1.209,0.083l1.166,0.208h0.625l2.291-1.25l1.125-0.167l1.125-0.25
		l1.375-0.792l0.625-0.25l0.584,0.042l0.75-0.167l2.334-2.208l1.082-0.167h0.75L552,121.66l1.291,0.542l1.043,0.792l0.416,0.208
		l1.291,0.292l1,0.167l0.668,0.625l0.5,0.375c0,0,0.875,0.291,1,0.333s0.666-0.167,0.666-0.167l1.084-0.458l1.291-0.375l1.916,0.458
		l0.793,0.375l0.916,0.542l1.791,0.5h2.084l1.291-0.333l0.625-0.167l0.918,0.333l1.166,0.667l1.291,0.833l1.293,0.292l1.875,0.208
		l1.707,0.333l2.209,0.625l2.334,0.958l1.75,1.167l1.041,0.708l1.416,1.333l1.125,0.208l3.375-0.458l2.168-0.458l0.791-0.167
		l1.709-0.042c0,0,0.541,0.125,0.666,0.25s0.916,0.375,0.916,0.375l2.125,0.042l1.875-0.25l1.043-0.458l0.791-0.167
		c0,0,0.291-0.083,0.791,0.125c0.5,0.208,1.834,0.75,1.834,0.75l1.541,0.583c0,0,0.709,0.583,0.834,0.625
		c0.125,0.042,2.166,1.25,2.166,1.25l1.125,0.917l1.084,0.667l0.709,0.417l1.332,0.292l1.793,0.167c0,0,0.916,0.042,1.041,0.083
		s1.416,0.125,1.416,0.125l1.043-0.375l1.041,0.292l1.125,0.792l1.584,0.542l1.166-0.125l1.293-0.125l1.291,0.333l0.959,0.833
		l0.707,0.542l0.918,0.167l1.5-1.208l1.582-1.208l1.668,0.042l0.957,0.125l1.25,0.375l1.875,0.333l1.084-0.375l1.125-0.167
		l2.625,0.083l4,1.042l1.584,0.458l2.082,0.667l1.209,0.083l1.25-0.042l2.166-0.542l1.834-0.375l2.375-0.333l2.416-0.042
		l1.709-0.167l1.209-0.125l1.082,0.208l0.834,0.5l1.5,0.917l1.541,0.792l1.668,0.542l0.584-0.083l1.875-1.792l1.25-1.208l0.875-0.25
		l0.959,0.208l1.666,1.375l2,1l3.709,0.417l2.332-0.083l1.543-0.5l0.75-0.708l1.75-0.333"/>
</g>
</svg>
