<?xml version="1.0" encoding="utf-8"?>
<!-- Generator: Adobe Illustrator 16.0.4, SVG Export Plug-In . SVG Version: 6.00 Build 0)  -->
<!DOCTYPE svg PUBLIC "-//W3C//DTD SVG 1.1//EN" "http://www.w3.org/Graphics/SVG/1.1/DTD/svg11.dtd">
<svg version="1.1" id="svg" xmlns="http://www.w3.org/2000/svg" xmlns:xlink="http://www.w3.org/1999/xlink" x="0px" y="0px"
	 width="968px" height="648px" viewBox="0 0 968 648" enable-background="new 0 0 968 648" xml:space="preserve">
<g id="image">
	
		<image overflow="visible" enable-background="new    " width="3872" height="2592" xlink:href="AK01b_20080922_193508.JPG"  transform="matrix(0.25 0 0 0.25 0 0)">
	</image>
</g>
<g id="gcp-peaks">
	<circle id="P5330" fill="#FF0000" cx="233.938" cy="97.5" r="0.25"/>
	<circle id="P7910" fill="#FF0000" cx="306.438" cy="102.438" r="0.25"/>
	<circle id="P8510" fill="#FF0000" cx="381.812" cy="88.875" r="0.25"/>
	<circle id="P6940" fill="#FF0000" cx="428.875" cy="94.875" r="0.25"/>
	<circle id="P6330" fill="#FF0000" cx="554.938" cy="79.188" r="0.25"/>
	<circle id="P5360" fill="#FF0000" cx="632.562" cy="70.688" r="0.25"/>
	<circle id="P5090" fill="#FF0000" cx="731.25" cy="54.438" r="0.25"/>
	<circle id="P5170" fill="#FF0000" cx="780.875" cy="47.562" r="0.25"/>
</g>
<g id="gcp">
	<circle id="topshelf" fill="#FF0000" cx="21.375" cy="187.938" r="0.25"/>
	<circle id="nostril" fill="#FF0000" cx="113.75" cy="186.438" r="0.25"/>
</g>
<g id="horizon">
	<path fill="none" stroke="#FF0000" stroke-width="0.25" stroke-miterlimit="10" d="M0.062,93.875L3,96.062l1.312,0.688L5.5,97.438
		l0.562,1.375L7,100.062l1.375,1l1.062,0.438l1.125-0.312l0.812-0.625l0.625-0.25c0,0,0.688,0,0.875,0.125s1.812,0.188,1.812,0.188
		h1.75l2.125-0.062c0,0,1.25-0.188,1.438-0.188s0.812-0.125,1-0.062s1.438,0.375,1.438,0.375l0.75,0.938l1.062,0.938l1,0.625
		l0.75,0.938l0.5,1.375l0.625,0.875l1.312,1l1.5,0.938c0,0,0.625,0.5,0.812,0.625s1.125-0.062,1.125-0.062l0.438-1.188l1.312-0.188
		l1.438-0.062H36l2.125,1.938l1.938,1.25l2.125,1.25l1.75,1.188l2.125,0.812l1.25-0.062l0.75-0.562l0.625-0.375l1.125,0.188
		l0.562,0.375h0.938l1.438-0.375l1.438-1.188l1.625-2L57,108.75l1.062-0.75l1.562-0.062l1.75,0.688l0.562,0.75l0.812,0.125
		l0.875-0.375l1.188-0.438l0.938-0.625L66.062,107l0.25-0.938l0.5-0.625l1.062-0.312l1,0.25l1.062,0.375l1.312,1.062l1.375,1.062
		l2.625,0.312l0.875,0.312l1.625,0.5l2.25,0.5l1.75,0.5l1.75,0.438l1.625,0.312l0.75-0.25l2.312-0.625l1.25,0.125l2.062,0.312
		l2.688,1.188l1.438,0.938l1.188,0.5l1,0.438l1.125,0.062l1.125,0.062l2.5,0.5l1.875,0.5l1.625,1.188l1.5,0.562
		c0,0,1.062,0,1.312,0.062s1.438-0.25,1.438-0.25l2.312-0.312l1.375,0.062l2.688,0.438h1.5l1.938-1.25l1.438-1.125l0.938-1.188
		l1.812-0.688h2.062l1.438,0.312l1.438,0.312l0.375,0.625l0.625,0.062l0.688-0.312l1.625-0.188h0.938l1.25,0.125l0.938-0.438
		l2.625-1.312l2-0.625l1.5-0.312l1.188,0.188l1.375,0.875l2,1.5l1.812,2.25l1.688,1.125l2.062,0.438l1.062-0.312l1.312-0.688
		l0.562-0.188l1.312,0.375h1.125l0.875-1.125l0.812-1.312l1-1.5l1.312-0.5l0.875-0.188l1.812,0.25l2.562,1.5l1.75,1l1.062,1
		l1.125,0.188l1.375-0.75l1.438-0.875l1.375-0.5l1.062-0.188l1.5,0.125l1.562,0.438l1.125,0.062L180.75,114l0.562,0.688l0.875,0.812
		l0.938,0.75l2.562,0.562l1.688,0.25l1.25,0.312l1.5-0.125l0.25-0.812l0.75-0.562l0.875-0.688l0.375-0.312l1.062-0.188l1,0.125
		l0.688,0.062l1.188-1.312l0.812-0.688l1.25-0.938l1.75-1.375l1.375-1.312l0.938-0.125c0,0,1.25,0.25,1.438,0.312
		s1.875,0.5,1.875,0.5h0.875l1.062-0.688l0.875-0.75l1-1.188l0.875-0.688l1.812-0.25l2.25-0.312l1.875-0.312l0.562-0.5l0.375-1.312
		l0.438-0.375l1.875,0.188l1.5,0.562h1.062l2.375-0.188l3.5-1.75l1-0.625l0.75-0.875l1.688-2.125l0.75-0.75l0.438-0.562l0.812-0.25
		l1.125,0.25L236,98.5"/>
	<path fill="none" stroke="#FF0000" stroke-width="0.25" stroke-miterlimit="10" d="M268,99l1.562,1.188l1.812,0.812l1.562,0.625
		l0.875,0.25l0.938,0.75l1.375,1.312l1.188,1.062c0,0,0.688,1,0.875,1.125s1.062,0.938,1.062,0.938l1.438,1"/>
	<path fill="none" stroke="#FF0000" stroke-width="0.25" stroke-miterlimit="10" d="M407.438,96.312l2,0.562l1.438,0.25l1.188-0.062
		l0.688-0.125c0,0,1,0.5,1.188,0.625C414.128,97.687,415,98,415,98l1.688,0.25l1.25-0.125l1.75-0.125l1.5-0.5l1.188-0.875
		l1.062-0.812l1.25-0.438L426.312,95l1.062-0.438l1.25-0.188l1.125,0.438l1.5,1.125l1.5,1l1.625,1.188l1.562,0.5"/>
	<path fill="none" stroke="#FF0000" stroke-width="0.25" stroke-miterlimit="10" d="M536.168,91.687l1.127-0.322l0.522-0.724
		l0.644-1.288l0.645-1.488l1.006-0.764l1.207-0.764l1.246-0.765l1.247,0.121l1.528,0.201l1.609-0.402l1.487-1.046l2.294-2.132
		l2.293-2.051l1.006-0.845l1.166-0.402l2.454-0.242l1.447-0.241h1.086l1.167,0.282l1.047,0.724l1.245,0.684l0.726,0.322l1.166,0.563
		l0.926,0.402l1.488,0.281c0,0,1.047-0.281,1.167-0.362c0.12-0.081,0.562-0.402,0.562-0.402l2.092-0.282l1.488,0.402l1.207,0.644
		c0,0,0.562,0.482,0.684,0.523c0.122,0.041,1.007,0.765,1.007,0.765l0.604,0.362l0.482,0.201l1.087,0.04l1.447-0.322l1.287-0.04
		l1.247,0.362l1.892,0.805l3.219,2.253l2.373,1.528l1.086,0.845l1.127,0.684l1.166-0.161l3.379-1.448l2.695-1.167l2.774-0.684
		l4.667-2.012l3.701-1.327l1.971-0.644l2.655-1.247l1.408-1.247l4.062-4.707l1.006-0.805l2.694-1.488l3.379-0.965l2.574-1.086
		l3.54-0.684l3.018,0.04l3.018,1.006l3.138,0.965l1.932,0.684l1.408,0.322l0.684-0.604l1.408-0.644l1.448,0.121l1.487,0.563
		l0.925,0.041l0.362-0.362l0.805-0.201l0.966,0.402c0,0,0.521,0.604,0.644,0.684s0.645,0.322,0.645,0.322l2.533,0.161h0.523
		l0.845,0.322l1.287,0.483l0.885-0.241l2.938-2.977l1.971-2.374l1.448-1.328l0.725-0.281l0.604,0.241c0,0,1.005,0.684,1.126,0.764
		s2.052,1.408,2.052,1.408l0.845,0.563l0.686,0.644l0.966-0.402l1.81-1.287l0.483-0.684l0.724-0.322l1.207,0.081l1.689,0.402
		l0.765-0.322l0.604-0.322l1.207,0.282l0.725-0.443l1.287-0.281l1.126,0.04l1.086,0.322l0.886,0.081c0,0,0.604-0.201,0.845-0.322
		c0.241-0.121,0.886-0.604,0.886-0.604l0.481-0.604l0.685-0.442l1.407-0.04l0.563,0.281l0.925,0.121h0.885l1.167,0.201l0.685,0.201
		l0.845,0.201l1.006,0.362h0.523l1.126-0.885l1.447-0.523l0.966-0.08l1.087,0.201l0.925,0.242l2.574,0.402l1.087-0.242l0.804-0.603
		l1.328-0.926l0.644-0.362c0,0,0.645-0.081,0.806,0c0.16,0.081,1.207,0.322,1.207,0.322l1.326,0.402c0,0,0.807,0.282,0.927,0.282
		s0.886,0.241,1.006,0.281s0.925,0.041,0.925,0.041l1.046-0.805l0.604-0.804l1.006-0.523l0.724-0.322l0.563-0.925l1.447-0.322
		l0.806-0.201l0.644-0.644l0.925-1.247l1.408-1.931l1.528-2.092l0.885-1.086l0.645-0.563l0.604-0.281l0.744,0.034l0.704,0.248
		l1.448,1.207l1.447,1.287l0.885,0.845l1.287,1.046l1.047,1.086l0.361,0.121l1.932-1.126l1.367-1.086l1.327-0.925l1.046-0.201
		l1.327,0.201l1.288,0.482l1.046,0.161l0.886-0.081l0.927-0.563l1.567-0.805l0.523,0.081c0,0,0.401,0.362,0.482,0.483
		c0.08,0.121,0.441,0.482,0.441,0.482l0.686-0.04L754,56.728l0.604-0.402l0.522-0.08l0.604,0.161l1.006,0.562l0.361,0.08
		l0.645-0.121l1.247-0.442l2.253-0.282l1.607-0.161h0.726l0.604,0.121c0,0,0.562-0.201,0.725-0.201c0.161,0,1.648-0.684,1.648-0.684
		l1.327-0.402l2.856-1.086l1.851-1.327l0.805-0.925l0.926-0.201L775,51.298l1.167-0.322l1.368-0.885l0.361-0.523l1.247-1.448
		l0.562-0.362c0,0,0.967-0.121,1.127-0.121s1.005,0,1.005,0l0.604-0.241c0,0,0.2-0.12,0.401-0.04s2.092,0.804,2.092,0.804
		l1.528,0.885l0.725,0.241h1.287l1.207,0.081l0.845,0.282l0.685,0.482l1.167,0.885l0.724,0.603l1.327-0.362l0.646-0.282l0.965-0.764
		l1.368-0.322l1.005-0.161l1.167-0.08l1.368,0.644l0.925,0.764l0.322,0.322l0.965,0.201c0,0,0.885,0.121,1.086,0.201
		c0.201,0.08,1.729,0.282,1.729,0.282l2.534,0.161l1.811-0.724l0.926-0.965l0.684-0.241l0.885,0.442l0.967,1.488h1.367l2.053-0.04
		l2.653,0.121l2.374,0.282l3.62,0.965l2.172,0.604l2.775,0.965l2.414,1.287l1.568,1.328l1.006,1.207l0.604,0.765l3.62-0.121
		l3.302-0.684l0.967-0.322l1.126-0.362l1.568-0.482l0.604-0.121c0,0,0.521-0.403,0.684-0.443s0.885-0.322,0.885-0.322l2.013,0.724
		l0.845,0.402c0,0,0.966,0.161,1.086,0.201c0.12,0.04,1.408-0.241,1.408-0.241l2.252-0.041l1.127-0.402l1.166-0.724l1.167-0.684
		c0,0,1.045-0.08,1.166-0.04s2.052,0.764,2.052,0.764l1.488,0.604L867,58.095l2.655,1.649l1.729,0.965c0,0,1.811,0.845,1.932,0.925
		c0.121,0.08,1.488,0.764,1.488,0.764l1.933,0.282l1.447,0.402l1.649,0.081h1.367l1.328-0.121l1.407-0.442l0.966-0.604
		c0,0,0.886-0.04,1.006,0.081s0.844,0.563,0.965,0.684c0.121,0.121,0.646,0.362,0.765,0.442c0.12,0.08,1.086,0.362,1.287,0.483
		s1.247,0.442,1.247,0.442l0.645,0.201l0.845-0.041l0.281-0.322c0,0,0.765,0.08,0.926,0.121s1.891,0.161,1.891,0.161l1.327-0.081
		l0.726,0.161c0,0,0.643,0.563,0.764,0.644c0.121,0.081,0.401,0.362,0.401,0.362s0.562,0.041,0.685,0.081s1.087-0.081,1.087-0.081
		l1.247-0.965l1.528-1.368l1.046-0.684l1.046-0.281l2.655,0.161l2.734,0.362l2.132-0.081l2.133-0.764l1.167-0.282l2.213,0.121
		l1.206-0.121l0.966,0.322l2.132,0.201l1.126,0.081l0.645,0.402l0.765,0.362l1.568,0.402l1.932,0.161l1.608,0.282l0.926,0.201
		l1.366-0.322l1.328-0.04l2.173-0.443l1.568-0.764l3.5-0.684l3.741-0.644l2.977-0.563l2.815-0.241l1.972,0.201l1.448,0.402
		l1.607,0.684l1.168,0.644l1.247,0.322l0.847,0.362l0.684,0.845l0.211,0.115l2.543,0.515l2.845,0.491l2.256,0.392"/>
</g>
</svg>
