<?xml version="1.0" encoding="utf-8"?>
<!-- Generator: Adobe Illustrator 16.0.4, SVG Export Plug-In . SVG Version: 6.00 Build 0)  -->
<!DOCTYPE svg PUBLIC "-//W3C//DTD SVG 1.1//EN" "http://www.w3.org/Graphics/SVG/1.1/DTD/svg11.dtd">
<svg version="1.1" id="svg" xmlns="http://www.w3.org/2000/svg" xmlns:xlink="http://www.w3.org/1999/xlink" x="0px" y="0px"
	 width="724px" height="486px" viewBox="0 0 724 486" enable-background="new 0 0 724 486" xml:space="preserve">
<g id="image">
	
		<image overflow="visible" enable-background="new    " width="2896" height="1944" xlink:href="AK01b_20130615_220325.JPG"  transform="matrix(0.25 0 0 0.25 0 0)">
	</image>
</g>
<g id="gcp-doug">
	<circle id="doug-02" fill="#FF0000" cx="43.75" cy="126" r="0.25"/>
	<circle id="doug-03" fill="#FF0000" cx="168" cy="130.25" r="0.25"/>
	<circle id="doug-04" fill="#FF0000" cx="549.75" cy="130.5" r="0.25"/>
	<circle id="doug-05" fill="#FF0000" cx="535.25" cy="128.25" r="0.25"/>
	<circle id="doug-01" fill="#FF0000" cx="9.25" cy="119.25" r="0.25"/>
</g>
<g id="gcp">
	<circle id="nostril" fill="#FF0000" cx="71.333" cy="189.688" r="0.25"/>
	<circle id="topshelf" fill="#FF0000" cx="1.583" cy="184.667" r="0.25"/>
	<circle id="brokens" fill="#FF0000" cx="100.258" cy="175.828" r="0.25"/>
</g>
<g id="coast">
	<polyline fill="none" stroke="#FF0000" stroke-width="0.25" stroke-miterlimit="10" points="416.417,220.583 419.042,220.625 
		421.25,220.5 422.875,220.333 425.833,220 429.417,219.5 432.083,219.375 435.042,219.125 438.375,218.833 440.625,218.75 
		443.625,218.5 445.667,218.25 448.375,218 450.25,217.75 452.958,217.417 454.667,217.333 457.917,217.167 459.958,216.875 
		462.667,216.625 465.334,216.333 467.668,216.083 469.668,215.792 471.084,215.667 472.459,215.458 474.126,215.083 
		475.459,214.958 477.001,214.917 	"/>
</g>
<g id="horizon">
	<path fill="none" stroke="#FF0000" stroke-width="0.25" stroke-miterlimit="10" d="M0.083,120l1.667-0.333h1.167l1.667-0.083
		L6.333,120l1.75,0.25H8.75l1,0.417l0.833,1.083l0.625,0.791l1.375,2.208l1.083,1.417l0.708,0.708l0.542,0.5l0.375,0.417
		l0.375-0.083L16.208,127l0.917-0.708l1.958,0.167l1.083,0.75l0.583,0.75l0.583,0.875l1.333,0.792l2.458,1.542l1.083,0.458
		l1.208,0.125l0.542-0.125l0.75-0.25l1.125,0.208l1.625-0.125l1.375-0.792l1.75-1.708l0.833-0.625l1.333-0.125h0.833l0.958,0.625
		l0.875,0.708l1-0.125l1.125-0.667l0.5-0.792l0.542-0.583l0.625-0.292l1.5,0.25l0.708,0.625l0.75,0.375l0.75,0.375l1.292,0.958
		l1.125,0.208l0.542,0.375l1.042,0.375l0.708-0.208l1.125,0.167l0.625,0.208l1.458,0.417h2.792l1.167,0.25l2.167,0.917l2.292,1.083
		l1.75,0.917L66.167,135l1.167,0.292h0.792l0.958,0.375c0,0,0.417,0.334,0.583,0.542s0.75,0.625,0.75,0.625l0.792,0.292l1.625,0.208
		l0.917-0.125l1.542-0.042l1.917,0.167l1.667,0.083l2.417-0.25l1.292-0.25l0.792-0.5l0.458-0.542l1.042-0.583l0.875,0.25L87,135.75
		l0.75,0.208l0.875,0.5l0.75,0.292l0.708-0.208l0.625-0.25l1.208,0.208l0.542,0.083l0.958-0.417l1-0.417l1.167-0.042l1.167-0.208
		l0.875-0.5l0.792,0.167L99,135.583l1.542,0.875l1.083,1.375l2.167,2.167l1.5,0.792l1.041-0.25l1.042-0.417
		c0,0-0.042-0.208,0.25-0.208s0.917,0.25,0.917,0.25l0.542,0.208l0.417-0.458l0.833-0.792l0.708-1.125l1.5-0.958l0.583-0.292
		l0.792,0.125l1.25,0.958l1.792,1.542l1.708,1.125l1.417-0.125l0.625-0.375l0.625-0.208l0.833-0.333l0.583-0.167l1.667,0.167
		l0.833,0.417l2.083,1l1.917,1.458l1.792,0.625l0.875,0.292l1.583-0.292l1.708-1.333l1.458-0.708l1.875-0.583l1.833-0.833
		l1.208-0.958l1.083-0.208l3.042,0.083l1.875-0.208l0.792-0.458l0.792-0.708l0.542-0.375l1.208-0.167l0.958,0.083h1.292l1-0.5
		l1-0.875c0,0,0.125-0.208,0.333-0.208s0.625,0.042,0.75,0.042s1.083,0.292,1.25,0.292s1.333,0.375,1.333,0.375h0.667l1.417-0.5
		l2.208-0.833l1.833-1.125l1.125-0.833c0,0,0.5-0.458,0.625-0.5s0.5-0.458,0.5-0.458l0.375-0.125l0.708,0.125l1.167,0.833
		l1.833,1.75l0.375,0.417l0.583,0.083l1.208,0.458l0.75,0.375l1.5,0.542l2,0.458l0.917,0.458l1.708,0.333l2.042-0.125l2-0.208
		l0.917-0.042l1.125-0.625l0.625-0.333l1.667-0.167h1.333l1-1.25l0.875-0.292l0.833,0.167l0.917,0.792l1.667,1.125l2,1.25
		l1.208,1.083l1,1.458l0.875,0.958l1.583,1.167l0.875,0.042l0.417-0.417l0.792-0.125l0.958,0.083l1.417,0.583l1.667,0.75l0.667,0.5
		l0.667-0.125l1-0.75l1.792-1.125l0.792-0.708l0.958-0.542l1.167-0.25h1.375l0.958-0.333l0.708-0.167l1.583-0.292l0.5-0.125
		l1.25,0.042l1.542,0.917l1.542,1.042l1.875,0.625l1.458,0.625l1.958,0.833l2.375,0.625l2.292-0.125l1.125-0.875l1.333-0.708
		l2.208-0.875l1.375-0.458l1.917-0.417l2.083-0.25l2.042-0.083l1.833-0.75l1-0.333l0.417-0.167l0.792,0.25l0.542,0.667l0.958,0.458
		l0.583,0.125l0.75-0.167l0.875-0.375h0.583l1.208,0.375l0.833,0.167l2.167,0.042l2.833-0.208l1.042-0.667l1.042-0.667l0.417-0.667
		l0.708-0.542l0.75-0.542l2.125-0.333l1.917-0.333l2.5-0.25l1.25-0.208l0.583-0.5l0.583-0.625l0.708-0.5l0.792-0.292h0.667
		l1.583,0.458l1.292,0.792l1.458,0.708l1.292,0.625l1.125,0.292l2.042,0.25l1.417,0.042l1.208,0.083l0.875,0.417l0.958,0.875
		l1.417,0.917l0.792,0.458l0.5-0.042l0.708,0.083l1.042,0.375l1.417,0.708l1.417,0.583l1.667,0.125c0,0,0.459-0.042,0.667,0
		s1.208,0.375,1.208,0.375l1.333,0.667l1.333,0.25l1.125,0.042l1.333-0.542l1.875-0.875l0.625-0.167l1.208-0.083l1.042-0.125
		l0.958-0.333l0.917,0.042l1.042,0.708l0.5,0.375c0,0,0.625,0.25,0.75,0.292s1.292,0.292,1.292,0.292l1.375-0.125l1.417-0.667
		l1-0.375l1.833-0.208l1.625,0.375l2.208,0.583l2.167,0.167l2.042-0.833l2.083-1.167l2.417-1.333l2.458-0.792l1.542-0.417
		l1.75-0.083l1.958,0.125l1.917,0.875l1.833,1.208l1.333,0.333l1.292-0.042l1.292-0.125l1.958,0.083l1.375,0.333l2.667-0.083
		l1.542,0.375l1.375,0.292l1.708,0.417l1.875,0.167l2.125-0.333l1.5-0.458l0.916-0.042l0.917,0.167l0.5,0.375l0.958,0.458
		l0.917,0.167l1.125,0.167l1.417,0.167l0.666,0.125l1.459,0.292l2.666-0.042l2.334-0.375l1.041-0.292h1.209l1.583,0.333l0.708,0.083
		l1.5-0.333l0.708-0.042l1.917,0.25l1.708,0.583l1.042,0.5l0.791,0.458l0.625,0.167l0.375-0.542l0.417-0.75l0.875-0.583l0.792-0.5
		l1.041-0.25l1.75-0.042l1.25-0.292l1.625-0.583l1.834-1.375l1.291-1.042l0.834-0.958l0.958-0.083l1.375-0.042l1.583,0.125
		l1.042-0.125h0.542c0,0,0.875,0.583,1,0.625s0.666,0.458,0.791,0.542s1.042,0.75,1.042,0.75l0.458,0.333l1,0.5l0.875-0.333
		l0.875-0.208c0,0,0.959-0.042,1.209,0.083s1.5,0.625,1.5,0.625l1.25,0.667l1.125,1.125l1.041-0.375h1.625l1.25,0.542l1.459,0.75
		l1.791,1.208l1.459,1.208l1.5,1.375l0.875,0.625l0.666-0.125l1.209-0.458l2.791-1.042L440,144.67l6.167-1.75l3.291-0.917
		l1.084-0.208l0.833-0.708l1.375-1.667l1.25-1.042l1-0.875l0.792-0.333l1.416-0.167l0.875-0.417l0.542-0.083l1.625-0.125
		l0.917-0.417l0.541-0.583l1.167-0.042l1.708,0.125l1.626,0.208l1.5,0.292l1.25,0.375l1.375,0.417l2,1.25l1-0.042l0.958-0.667
		l0.542-0.083l1.291,0.333L477.79,138l1.375,0.25l1.333,0.292l0.459,0.333l0.875,0.042c0,0,0.584,0.167,0.75,0.25
		s0.916,0.25,0.916,0.25l1.084,0.083l1-0.667l2-1.917l1.416-1.208l0.542-0.375l0.333-0.167l0.542,0.042l0.792,0.792l1.666,1.25
		l1.042,0.667c0,0,0.666,0.209,0.833,0.042s1.084-1.083,1.084-1.083l1.041-0.583l1.625,0.042l1.71,0.25l1.25-0.167
		c0,0,1.125,0,1.25,0s1.208,0.125,1.208,0.125s0.209,0.167,0.542,0.25s1-0.042,1-0.042l0.708-0.708l1.125-0.125h1.209l1.416,0.292
		l1.542,0.5l0.75,0.292l1,0.042l1.125-0.833l0.667-0.167l1.166,0.25l2,0.583l1.292,0.042l0.792-0.375l0.416-0.375l1-0.25
		l1.167,0.083l1.583,0.375l0.667,0.208l0.917-0.208l0.958-0.375l2.083-0.958l1.292-0.583l1.167-0.958l0.625-0.833l0.833-0.625
		l1.167-1.417l0.375-0.792l0.583-0.333l1.625,0.167l1.458,1.333l1.917,1.5l0.792,1.083l0.625-0.083l1.292-0.667l0.875-0.708
		l0.791-0.083l2.792,0.333l1.625,0.042l0.75-0.292l0.5-0.208c0,0,0.583,0,0.708,0.125s1.084,0.542,1.084,0.542l0.958-0.208
		l0.542-0.458l1.041,0.292l0.959,0.208l2.375-0.125l1-0.042l1.375,0.167l0.833-0.25l1.542-0.667l1.166-0.375l1.792-0.708
		l1.417-0.917l0.708-0.458h0.833l1.209-0.5l0.791-0.833l1.125-0.708l1.375,0.25l0.834,0.042l1.041,0.667L577,129l1.042,0.292
		l1.083,0.167l0.958,0.542l0.542,0.583l0.75,0.292l1.167-0.125l0.625-0.375l1.083-0.333c0,0,1.333-0.083,1.458,0
		s1.5,0.583,1.5,0.583l1.125,0.458l1.5,0.458l1.75,0.292l1.542-0.375l1.292-0.167c0,0,0.792,0.083,1,0.125s1.25,0.542,1.375,0.583
		s1.625,0.75,1.625,0.75l1.708,0.375l2.25,0.417l1.458,0.458l3.084,0.958l2.001,0.958l1.375,1.083l1.583,1.083l0.542,0.625
		l0.833,0.208l1.542-0.042l1.958-0.167l1.959-0.625l1.833-0.042l1.458,0.167l0.875,0.417l0.917,0.167l2.917-0.042l1.375-0.583
		l1.125-0.5l1.583,0.125l1.792,0.875l2.541,1.583l2.292,1.542l1.667,1.167l1.417,0.542l1.666,0.292h0.667l1.083,0.25l0.709,0.125
		l2-0.208l1.25-0.042c0,0,0.625,0.459,0.75,0.542s1,0.417,1,0.417l1.916,0.5h0.25h0.75c0,0,1.083,0.083,1.25,0.208
		s1.875,0.875,1.875,0.875l2.042,0.667l1.125-1.083l1.458-0.708l1.209-0.333l1.291-0.167l1.625,0.167l1.334,0.083l1.875-0.042
		l0.875-0.125l0.958-0.083l0.917,0.167l0.333-0.208c0,0,0.625-0.083,0.75-0.042s0.958,0.542,0.958,0.542l1.542,0.875l1.5,0.167
		l1.75,0.333l2.125,0.5l2.583,0.25l1.25-0.25l1.459-0.583l1.916-0.333l2.584-0.083l2.833-0.417l2.083-0.042l1.542,0.25l0.958,0.5
		l1.334,1.125l1.916,0.667l1.625,0.458l0.959-0.375l1.125-0.833l1.625-1.25l0.708-0.542l0.958-0.083c0,0,0.625,0.5,0.875,0.583
		s2.375,1.042,2.375,1.042l2.334,0.625l0.916,0.083h1.834h1.25l2.291-0.25l1.334-0.75"/>
</g>
</svg>
