<?xml version="1.0" encoding="utf-8"?>
<!-- Generator: Adobe Illustrator 16.0.4, SVG Export Plug-In . SVG Version: 6.00 Build 0)  -->
<!DOCTYPE svg PUBLIC "-//W3C//DTD SVG 1.1//EN" "http://www.w3.org/Graphics/SVG/1.1/DTD/svg11.dtd">
<svg version="1.1" id="svg" xmlns="http://www.w3.org/2000/svg" xmlns:xlink="http://www.w3.org/1999/xlink" x="0px" y="0px"
	 width="968px" height="648px" viewBox="0 0 968 648" enable-background="new 0 0 968 648" xml:space="preserve">
<g id="image">
	
		<image overflow="visible" enable-background="new    " width="3872" height="2592" xlink:href="AK01b_20090827_202939.JPG"  transform="matrix(0.25 0 0 0.25 0 9.765625e-04)">
	</image>
</g>
<g id="gcp-peaks">
	<circle id="P6940" fill="#FF0000" cx="430.062" cy="94.312" r="0.25"/>
	<circle id="P6330" fill="#FF0000" cx="556.125" cy="79" r="0.25"/>
	<circle id="P5360" fill="#FF0000" cx="633.812" cy="70.562" r="0.25"/>
	<circle id="P5090" fill="#FF0000" cx="732.5" cy="54.562" r="0.25"/>
	<circle id="P5170" fill="#FF0000" cx="782.188" cy="47.688" r="0.25"/>
	<circle id="P5330" fill="#FF0000" cx="235.125" cy="96.562" r="0.25"/>
	<circle id="P8249" fill="#FF0000" cx="346.625" cy="97.938" r="0.25"/>
	<circle id="P8510" fill="#FF0000" cx="380.688" cy="88.75" r="0.25"/>
</g>
<g id="gcp">
	<circle id="T20090827-01" fill="#FF0000" cx="458.938" cy="188.875" r="0.25"/>
	<circle id="T20090827-02" fill="#FF0000" cx="212.75" cy="331" r="0.25"/>
	<circle id="T20090827-03" fill="#FF0000" cx="719.25" cy="212.938" r="0.25"/>
	<circle id="T20090827-04" fill="#FF0000" cx="22.688" cy="134.688" r="0.25"/>
	<circle id="topshelf" fill="#FF0000" cx="22.312" cy="186.812" r="0.25"/>
	<circle id="nostril" fill="#FF0000" cx="114.875" cy="185.75" r="0.25"/>
</g>
<g id="terminus">
	<polyline fill="none" stroke="#FF0000" stroke-width="0.25" stroke-miterlimit="10" points="43.75,463.5 45.75,459.25 48.5,455.75 
		54.25,452.25 58.25,450.25 58.5,446.5 	"/>
	<polyline fill="none" stroke="#FF0000" stroke-width="0.25" stroke-miterlimit="10" points="52.5,396 62,392.25 70.25,388.25 
		79.5,384.625 90.125,381.625 99.625,379.125 112.375,374.625 126.25,370.125 141.5,364.375 155,359.5 163.125,356 174,349.75 
		178.25,347 185.625,343.375 192.75,340.625 200.75,337 205.5,333.875 210.75,331.5 216.75,329.25 221.875,326.25 	"/>
	<polyline fill="none" stroke="#FF0000" stroke-width="0.25" stroke-miterlimit="10" points="221.625,324.625 226.5,322.375 
		231.375,320.75 238.5,318.75 245.25,317.25 251.625,315.375 256.375,314.25 259.75,313.5 262.5,314 266.125,314.5 269.875,314 
		278.625,312.125 282.5,310.875 291.75,308.5 296.625,307.375 302.5,306.125 308.5,304.25 312.75,303 316.75,301 	"/>
	<polyline fill="none" stroke="#FF0000" stroke-width="0.25" stroke-miterlimit="10" points="325.375,295.875 328.625,294.875 
		332,293.75 335.875,293.375 341.25,292.75 	"/>
	<polyline fill="none" stroke="#FF0000" stroke-width="0.25" stroke-miterlimit="10" points="518.5,240.75 524.5,238.875 
		526.875,238.75 530.5,238.125 534,237.125 539,236 545.5,235.25 554,234.375 563.875,233 572,232.125 579.375,230.125 
		587.625,228.625 595,226.625 605.25,224.75 613.25,223.5 623.625,221.75 633,220.875 643,219.75 657.25,218.5 666.125,217.875 
		672.5,217.125 697.125,215 712.5,213.25 724.625,212.125 736.375,210.75 747.625,209.625 766,207.625 773.625,206.875 	"/>
	<polyline fill="none" stroke="#FF0000" stroke-width="0.25" stroke-miterlimit="10" points="843.75,197.625 854.125,197 
		864.875,196.75 880.375,195.875 891.875,195 906.75,194.5 919.75,194.125 936.125,194.25 950.625,193.875 961.5,193.5 968,193.375 
			"/>
</g>
<g id="horizon">
	<polyline fill="none" stroke="#FF0000" stroke-width="0.25" stroke-miterlimit="10" points="-0.018,92.888 2.69,94.017 
		5.851,96.387 7.656,98.305 9.462,99.998 10.139,100.562 11.832,100.111 13.637,99.434 16.12,99.547 19.28,99.998 22.891,99.547 
		24.81,100.675 26.954,103.835 29.775,106.882 32.484,109.252 33.951,106.656 36.208,106.656 38.014,107.446 39.707,109.365 
		43.205,111.284 46.704,112.863 49.299,112.638 50.879,112.073 53.023,112.412 55.167,111.058 56.635,109.252 58.328,107.221 
		60.584,106.656 61.939,107.333 63.632,108.914 66.453,108.236 67.469,106.092 68.372,104.625 69.613,104.512 71.87,105.528 
		74.691,107.108 77.174,107.785 79.093,109.026 80.673,108.349 83.268,109.026 85.413,109.591 87.105,109.365 88.572,108.801 
		90.491,109.026 92.974,109.704 95.344,110.832 98.278,112.187 100.196,112.525 102.792,112.638 104.71,113.428 106.403,114.895 
		108.999,115.911 111.482,115.572 114.078,115.121 117.125,115.572 119.381,115.008 122.09,113.428 124.009,111.96 125.024,111.17 
		126.153,111.848 127.168,111.396 128.749,111.735 131.005,113.089 132.021,113.879 133.037,112.525 134.843,112.412 
		135.858,112.299 137.438,111.17 140.711,109.591 142.291,108.688 144.548,109.365 147.595,112.187 150.642,115.459 
		152.222,116.587 153.238,116.475 153.915,115.798 154.931,115.798 155.833,114.443 158.316,115.798 161.363,111.96 
		162.492,110.606 163.62,109.929 165.539,110.945 170.843,114.782 173.1,113.766 174.341,113.089 175.244,111.848 176.598,111.735 
		178.517,112.638 180.548,113.766 181.338,113.541 	"/>
	<polyline fill="none" stroke="#FF0000" stroke-width="0.25" stroke-miterlimit="10" points="218.58,103.045 219.483,102.481 
		220.837,103.158 222.869,103.948 225.013,103.722 228.511,102.481 230.881,101.014 232.574,98.305 233.928,96.725 234.831,95.936 
		236.411,97.177 239.909,99.998 	"/>
	<polyline fill="none" stroke="#FF0000" stroke-width="0.25" stroke-miterlimit="10" points="267.107,98.08 268.01,97.402 
		268.913,97.628 271.396,99.434 274.668,101.353 277.151,103.271 	"/>
	<polyline fill="none" stroke="#FF0000" stroke-width="0.25" stroke-miterlimit="10" points="327.822,104.174 330.192,103.158 
		332.111,102.368 333.465,101.353 336.061,100.562 338.318,99.998 340.462,99.885 342.606,99.66 344.525,98.305 345.992,97.29 
		347.459,97.854 348.813,98.644 	"/>
	<polyline fill="none" stroke="#FF0000" stroke-width="0.25" stroke-miterlimit="10" points="366.87,93.565 368.562,93.114 
		371.158,93.227 374.657,92.211 376.688,92.211 378.607,90.744 380.074,89.277 380.864,88.148 382.444,88.487 384.927,89.39 
		388.425,90.97 391.247,91.195 393.729,91.534 396.325,91.421 398.13,91.421 400.5,92.888 402.983,94.468 405.353,94.355 
		407.271,94.807 410.432,95.936 412.688,96.5 414.043,96.5 415.849,97.064 418.219,97.741 420.363,97.628 422.281,96.725 
		424.087,95.709 427.021,94.581 429.391,94.355 432.1,95.146 435.146,96.612 438.081,95.709 440.451,94.13 443.61,93.678 
		447.222,93.791 450.495,94.13 453.542,93.904 456.363,91.873 459.297,89.616 463.473,87.471 467.31,86.794 471.485,87.246 
		476.225,89.164 478.031,89.729 480.965,89.39 482.771,88.713 484.012,89.051 485.592,89.164 488.301,88.826 492.251,89.502 
		495.749,89.616 499.474,89.502 502.182,88.826 504.101,88.036 506.583,88.374 507.938,89.164 511.549,89.164 514.37,89.616 
		517.756,89.39 520.689,88.713 523.624,88.374 527.574,88.6 	"/>
	<polyline fill="none" stroke="#FF0000" stroke-width="0.25" stroke-miterlimit="10" points="539.649,89.841 540.101,88.036 
		542.02,86.23 544.389,85.44 546.533,85.666 549.129,84.763 551.386,82.506 553.53,80.587 555.11,78.782 557.818,77.992 
		562.671,78.331 565.38,80.362 567.299,81.377 568.878,81.49 570.684,81.039 572.264,80.362 574.859,81.152 577.229,82.393 
		578.584,83.86 580.841,83.183 583.662,83.86 586.597,85.102 589.756,87.472 592.126,89.277 594.384,89.277 597.317,88.148 
		601.719,86.23 607.926,83.973 612.214,82.055 615.148,80.813 617.744,80.136 619.324,77.991 621.13,75.622 623.161,73.59 
		624.402,72.8 626.659,72.913 627.449,72.123 629.594,72.236 631.513,70.881 634.446,69.979 638.509,70.317 642.233,71.22 
		646.521,72.913 648.215,73.477 649.005,72.461 649.343,71.897 651.938,71.784 653.181,72.349 654.76,72.123 656.114,73.026 
		657.469,73.477 659.274,73.477 660.516,73.59 661.193,74.38 662.547,74.38 665.594,71.671 668.867,67.834 670.334,67.27 
		672.14,68.286 673.945,69.64 675.525,70.656 676.654,70.881 677.782,69.64 678.572,68.85 680.717,68.399 682.521,68.399 
		684.667,68.286 686.246,67.383 688.052,67.27 690.31,67.27 691.663,67.27 692.566,66.367 693.921,65.916 695.727,66.367 
		699.789,67.27 702.046,66.932 703.852,65.803 705.432,65.803 707.125,66.593 709.269,66.706 711.074,66.029 712.315,64.9 
		714.46,64.788 716.491,65.126 718.41,65.464 720.216,65.126 722.36,63.207 724.279,62.304 726.536,60.611 728.906,57 
		731.051,54.292 732.856,54.065 734.662,55.194 736.806,56.548 739.176,58.58 740.417,59.934 743.013,58.128 744.367,57.113 
		746.85,56.774 749.445,57 751.251,56.548 752.944,56.097 754.186,56.887 755.766,57 756.442,56.21 757.571,56.548 758.926,57.226 
		760.618,56.661 762.424,56.097 765.358,55.984 766.825,55.984 769.421,54.517 770.775,54.517 772.807,53.614 774.725,51.47 
		776.079,51.131 777.885,51.131 780.029,48.423 781.609,47.294 783.641,47.294 785.107,47.633 787.252,49.213 789.058,49.326 
		790.412,49.551 791.992,49.777 793.91,51.47 795.718,51.244 797.297,50.454 799.104,49.89 802.263,50.116 804.52,51.244 
		806.213,51.583 809.711,51.357 811.291,50.906 812.646,50.567 813.548,50.341 814.677,51.019 817.724,52.486 819.98,52.937 
		821.674,53.276 823.366,53.276 824.721,53.276 826.301,53.501 829.009,54.179 832.395,55.307 836.231,57.338 837.925,59.482 
		842.213,59.37 845.938,58.016 847.855,57.338 850.226,57.113 851.919,57.564 853.271,58.241 856.771,58.016 859.479,56.887 
		862.075,56.21 864.671,56.774 869.072,58.58 873.361,61.062 876.859,62.868 879.004,63.094 883.743,63.32 886.678,62.304 
		889.273,63.207 891.982,64.335 893.788,64.223 896.722,64.11 898.415,64.448 900.221,65.238 903.38,63.658 905.299,62.643 
		909.023,62.078 911.506,62.53 913.988,62.53 916.02,61.853 918.052,61.74 920.309,61.401 922.114,61.965 924.484,62.191 
		927.08,62.981 930.465,63.658 933.738,63.658 936.896,63.207 940.058,62.078 944.685,61.175 950.44,61.288 952.923,60.385 
		953.938,60.16 955.293,60.837 956.986,62.304 958.565,62.304 959.92,63.32 962.177,64.11 	"/>
</g>
<g id="moraines">
	<g id="moraine-01">
		<polyline fill="none" stroke="#FF0000" stroke-width="0.25" stroke-miterlimit="10" points="716,209.833 707.666,208.667 
			700,207.167 688,204.5 670,203 640.5,203.167 628.5,203.833 611.833,203 600.5,203 586.166,203.667 569.832,204.667 
			550.165,204.5 533.665,204.5 516.332,202.833 501.998,199.833 489.165,196.833 474.832,192.833 457.498,188.667 449.832,187.667 
			441.498,186 432.665,184.333 428.165,182.5 425.832,180.333 425.665,178.167 427.498,176 430.832,173.833 434.832,172.333 
			443.165,168.5 445.834,167.669 448.001,166.252 451.251,165.419 453.667,164.502 456.417,163.669 458.167,163.252 
			461.417,162.169 464.167,160.586 467.084,158.669 468.667,157.336 469.751,156.169 470.084,155.252 469.334,154.419 
			467.917,153.669 465.834,153.336 463.834,152.919 461.834,152.169 460.251,151.336 457.917,149.752 456.084,148.919 
			454.417,148.169 450.167,148.002 445.251,147.752 441.667,147.752 		"/>
		<polyline fill="none" stroke="#FF0000" stroke-width="0.25" stroke-miterlimit="10" points="428.751,148.836 424.501,148.836 
			421.062,148.625 417,148.125 413.125,147.625 409.812,147.312 403.938,147.312 399.5,147.5 394.875,147.812 390.625,148.25 
			386.5,148.438 381.438,148.5 377.75,148.375 373.688,148.438 367.688,148.375 363.562,148.188 359.625,147.812 355.312,147.438 
			350.812,147.25 346.938,147.188 343,147.438 336.625,147.75 		"/>
	</g>
	<g id="moraine-02">
		<polyline fill="none" stroke="#FF0000" stroke-width="0.25" stroke-miterlimit="10" points="195.705,334.113 167.388,332.826 
			132.634,334.113 101.099,337.761 70.421,341.837 41.889,347.414 11.855,355.566 -0.159,360.715 		"/>
	</g>
	<g id="moraine-03">
		<polyline fill="none" stroke="#FF0000" stroke-width="0.25" stroke-miterlimit="10" points="496.624,219.991 476.793,217.302 
			455.113,214.782 		"/>
		<polyline fill="none" stroke="#FF0000" stroke-width="0.25" stroke-miterlimit="10" points="286.214,208.396 277.139,206.715 
			272.434,204.698 270.081,201.337 270.081,198.312 273.274,194.783 277.307,192.094 285.374,189.405 293.104,186.043 
			303.692,181.17 314.28,177.473 322.851,173.103 332.431,168.901 340.329,166.381 345.371,164.196 		"/>
	</g>
	<g id="moraine-04">
		<polyline fill="none" stroke="#FF0000" stroke-width="0.25" stroke-miterlimit="10" points="501.834,176.968 493.263,175.96 
			484.356,174.784 478.978,174.447 476.793,173.103 476.793,171.59 479.146,169.406 484.333,166.334 489,163.918 496.75,160.918 
			502,159.168 506.417,157.668 511.334,155.751 513.5,154.084 514.084,152.334 513.584,150.168 512.25,148.918 507.667,147.834 
			502.084,146.168 500.584,145.251 498.584,144.334 494.334,143.418 490.417,142.918 485.75,142.918 481.25,142.834 		"/>
		<polyline fill="none" stroke="#FF0000" stroke-width="0.25" stroke-miterlimit="10" points="467.667,144.251 462.917,144.251 
			457.833,144.001 454.583,143.834 452.583,143.584 449.917,143.084 447,142.834 442.667,142.501 437.75,142.251 433.583,142.084 		
			"/>
		<polyline fill="none" stroke="#FF0000" stroke-width="0.25" stroke-miterlimit="10" points="423.167,142.751 417.084,143.168 
			410.917,143.668 404.084,143.918 397.084,144.084 392.084,143.751 387.084,143.501 384.25,143.251 382.5,142.834 380.667,142.084 
			380.084,140.751 381.084,139.418 383,138.668 384.417,137.834 		"/>
	</g>
	<g id="moraine-05">
		<polyline fill="none" stroke="#FF0000" stroke-width="0.25" stroke-miterlimit="10" points="947.667,189.333 931.501,187 
			913.667,185.5 901.501,184 892.834,182.667 884.334,180.5 874.001,178.833 863.167,177.5 850.167,175.333 835.834,173.833 
			824.667,172.333 811.334,171.333 803.001,170.667 797.667,169.5 794.001,167.5 792.167,163.333 791.334,157.667 790.501,150.167 
			789.501,144.667 787.834,140.667 784.834,139.333 781.167,138.833 778.001,137.5 774.834,136.833 772.334,135.333 
			771.167,133.833 769.167,132.333 765.501,132.167 762.167,132.167 757.667,131.667 752.667,131 750.167,130.167 749.501,129.167 
			751.001,128 756.167,126.833 764.667,125.167 773.834,123.5 784.667,121.667 796.001,119.833 807.001,118.333 814.667,117.333 
			821.834,115.833 839.001,112.833 846.501,111.833 855.667,110.167 862.667,109 869.001,108.5 883.167,107.833 897.834,106.833 
			915.834,105.333 930.167,103.833 941.334,103.167 955.167,101.833 964.001,100.333 968.001,100 		"/>
	</g>
	<g id="moraine-06">
		<polygon fill="none" stroke="#FF0000" stroke-width="0.25" stroke-miterlimit="10" points="952.167,177.667 944.167,176.167 
			934.667,172.667 929.334,171.167 926.334,169.333 923.501,167.333 917.167,166.833 910.167,165.667 903.667,163.833 
			898.167,162.5 889.501,159.833 887.167,157 887.167,154.5 889.501,152.167 893.167,150 898.834,147.333 902.834,145.833 
			905.001,143.5 907.667,140.5 912.334,137.333 918.501,134.667 923.667,133.5 927.834,132.5 932.501,131.5 934.667,131.167 
			937.001,131.167 938.334,131.833 939.001,133.167 937.001,134.667 932.834,136.667 928.334,139 922.001,142.5 915.334,145.833 
			910.167,149 906.167,152 904.501,154.667 904.334,157.333 905.501,159.667 908.167,160.5 910.834,160.5 913.334,162 
			917.001,163.667 921.667,164.5 928.167,164.833 934.167,166.5 940.334,169.667 946.501,174 949.834,175.5 		"/>
	</g>
</g>
</svg>
