<?xml version="1.0" encoding="utf-8"?>
<!-- Generator: Adobe Illustrator 16.0.4, SVG Export Plug-In . SVG Version: 6.00 Build 0)  -->
<!DOCTYPE svg PUBLIC "-//W3C//DTD SVG 1.1//EN" "http://www.w3.org/Graphics/SVG/1.1/DTD/svg11.dtd">
<svg version="1.1" id="svg" xmlns="http://www.w3.org/2000/svg" xmlns:xlink="http://www.w3.org/1999/xlink" x="0px" y="0px"
	 width="695.04px" height="466.56px" viewBox="0 0 695.04 466.56" enable-background="new 0 0 695.04 466.56" xml:space="preserve">
<image overflow="visible" width="2896" height="1944" id="image" xlink:href="AK01b_20130609_184325.JPG"  transform="matrix(0.24 0 0 0.24 0 0)">
</image>
<g id="gcp">
	<circle id="nostril" fill="#FF0000" cx="68.219" cy="182.094" r="0.25"/>
	<circle id="brokens" fill="#FF0000" cx="96.472" cy="168.719" r="0.25"/>
	<circle id="dragonduct" fill="#FF0000" cx="140.381" cy="169.135" r="0.25"/>
</g>
<g id="coast">
	<polyline fill="none" stroke="#FF0000" stroke-width="0.25" stroke-miterlimit="10" points="408.876,210.875 410.584,210.792 
		412.876,210.583 414.626,210.5 416.959,210.333 419.042,210.167 419.959,209.917 421.709,209.708 422.667,209.583 424.667,209.5 
		426.167,209.417 427.584,209.333 428.667,209.167 431.209,209.125 432.709,209.083 434.709,208.958 436.709,208.417 
		438.626,208.417 440.417,208.375 441.459,208.292 443.292,208.292 445.334,207.958 446.876,207.583 447.917,207.333 
		449.584,207.167 452.126,206.708 453.417,206.583 454.501,206.417 455.584,206.292 	"/>
</g>
<g id="horizon">
	<path fill="none" stroke="#FF0000" stroke-width="0.25" stroke-miterlimit="10" d="M0.167,115.25l2.167-0.583l1.833,0.417
		l2.583,0.25l1.417,0.167l0.667,0.167l1.667,1.417l2.667,3.75l1.583,2l1.083-1.5c0,0,0.083-0.333,0.333-0.333s1.167,0,1.167,0
		l0.833,0.25L19,121.833l0.917,0.917l1.25,0.917l2.75,1.833l2.167,0.75l1.333-0.417l1.333,0.333L30.583,126l1.083-1l1.167-1.5
		l1-0.333L35.25,123h1.083l0.417,1.167l1.833,0.083l0.833-0.333l0.667-0.833l1.083-1.25l0.75-0.083L43,122l1.333,0.917l1,0.667
		l2.25,0.833l0.5,0.25l2.583,0.583l0.417,0.083l2.167,0.333h1.417l0.917,0.167l1.667,0.5l0.75,0.25l3.75,1.75l2.5,1l1.333,0.167
		c0,0,1.583,0.75,1.667,1s1.083,1.167,1.083,1.167l2.25,0.25l2.75-0.083l3.167-0.167l2.333-0.5l1.083-0.667l1.333-0.75h1.583
		l1.75,0.667l1.167,0.333l0.917,0.333l1.083-0.25l4-0.917l1.667-0.583L95,129.417l1.917,1.833l1.021,1.5l1.875,1.938l0.812,0.188
		l1.312-0.125l0.562-0.5c0,0,0-0.25,0.25-0.188s0.812,0.125,0.812,0.125l0.625,0.438l0.5-0.25l1.938-1.875l0.938-1.25l0.938-0.375
		l0.562,0.188l1.438,1.125l2.188,1.938l2.438,0.125l1.25-0.625l1.25-0.25h0.688l1.125,0.562l0.625,0.25L121,134.25l0.375,0.125
		l0.688,0.5l1.312,1.125l1.5,0.875l1.188,0.312l2.25-0.25l1.812-1.062l2.75-0.875l2.062-0.938l0.938-0.875l1-0.312l2.25-0.25h1.5
		l2.062-0.562l0.438-0.75l1.375-0.188l1.25,0.438l0.5-0.438h0.812l0.5-0.062l0.625-0.688l1-1.188l0.562,0.125l1.125,0.375
		l1.062,0.25l2.375,0.062l1.375-0.438l1.25-0.438l1.5-1.125l1.062-1.375l0.562-0.625l0.562-0.062l0.875,0.25l1.375,1l1.75,1.375
		l1.375,0.5l1.375,0.5l0.938,0.938l1.062,0.188l1.5,0.5l1.562,0.125l2.125,0.125l1.25,0.125L177,131.5l1.188-0.188l0.688-0.375
		l0.562-0.438l1-0.188h1.875l0.875-0.438l0.312-0.5l1-0.375l0.812,0.125l1.625,1l1.688,0.875l1.812,1.438l0.75,1.438l1.75,1.875
		l1.5,0.5l1-0.25l1.188,0.062l1.188,0.375l2.75,1.062l0.812,0.188l1.375-0.5l1.5-1.812l1.312-1l1.125-0.375l2.438-0.188l2.188-0.188
		l1.375-0.062l1.812,0.938l1.562,1l3.438,1.188l2.625,0.812l1.125,0.438l1.062,0.125l0.938-0.5l1.312-0.875l1.625-0.812l1.875-0.5
		l0.625-0.25l1.375-0.5l2.125-0.25H235l0.938,0.125l1.062,0.625l1.25-0.438l0.812-0.875l1-0.688l0.5,0.25l0.938,0.688l0.812,0.5
		l0.5,0.062l0.688-0.312l0.938-0.312h0.812l0.938,0.5h1.25h1.625l2.562,0.188l1.125-1l1.625-1.25l1.062-0.938
		c0,0,0.812-0.312,1-0.25s1.5,0,1.5,0l3.375-0.312h1.75l0.812-1.375l0.625-0.875l1-0.062l1.938,0.5l1.5,0.812l1.5,0.875l0.75,0.312
		l1.875,0.25l0.938,0.188l1.5,0.062l1.312,0.062l1.875,0.562l1.438,1.062l3.312,1.5l2.125,0.875l1.438,0.438h1.188l1.312,0.375
		l1.5,0.375l1.438,0.25l1.438,0.062l1.312-0.812l1.438-0.438l2.375-0.125l1.375,0.062l1.312,0.75l1,0.312l1.188-0.25l2.062-0.75
		l2.688-0.312l1.688,0.062l2.375,0.375l1.625,0.188l1.812,0.188l2.375-1.375l3-1.375l1.562-0.75l1.875-0.75l2.25-0.125l2.062,0.562
		l2.188,0.938l1.312,0.812l1.688,0.062l1.375-0.125l0.938-0.062l1.5,0.438l1.438-0.312l2.125,0.25l1.938,0.562l1.562,0.375
		l2.25,0.312h2.188l1.812-0.375l1.188-0.188h0.562c0,0,0.75,0.625,0.938,0.75s1.812,0.562,1.812,0.562l1.375,0.375l1.438,0.125
		h1.562L362.5,137l1.5-0.25l1.312-0.188l1.438-0.062h1.062h1.812l2.875,0.188l2.562,0.812l0.875,1.062l0.438,0.312l0.438-0.25
		l0.688-1l1.188-1.188l1.188-0.75l1.25,0.062l1.375,0.062l1.875-0.25l0.938-0.625l1.188-0.812l1.188-1.125l1.312-1.125l1-0.5
		l1.562,0.062l1.062,0.312l1.938,0.188l0.875,0.75l0.875,0.625l0.938,0.312l0.875,0.188l1.5,0.188c0,0,0.625,0,0.812,0
		s2,0.688,2,0.688l2,0.938l1.312,0.438l1.188-0.125l1.5,0.375l1.5,0.625l1.312,0.875l0.875,1.062l0.562,0.562l0.688,0.25l0.5,0.812
		l0.5,0.562l1,0.062l1.062-0.562c0,0,0.688-0.188,1-0.188s3.562-1.188,3.562-1.188l4.062-1.312l5.375-1.375L432,136l0.875-0.188
		l2.438-2.5l1.188-1.188l0.938-0.375l0.625-0.25h0.688l0.938-0.5l0.688-0.125l1.625,0.25l0.688-0.688l1.312-0.312l1.5-0.188
		l1.812,0.25l1.25,0.25l1.5,0.438l2,0.812l1.75,0.812l0.688,0.188l0.875-0.438l0.75-0.188h1.062l1.062,0.5l1.375,0.25l1.062,0.25
		l1,0.125l1.25,0.25l0.438,0.375l0.5,0.375h0.688l1.062-0.812l2.875-2.5l0.938-1l0.562-0.25l0.625,0.25l1.312,0.938l0.75,0.812
		L473.5,132l1.188,0.312l0.938-0.562l0.75-0.625l0.688-0.062h1.312l1.188-0.125h1.375l2.25,0.062h1.438l1.188-0.562l0.562-0.25
		l1.438,0.375l0.875,0.125l0.875,0.125l0.812,0.375l0.75,0.062l0.438,0.25l0.875-0.062l0.625-0.438l0.438-0.125l1.375-0.125
		l0.375,0.312l0.312,0.125l0.938,0.188l1.75-0.062l1.188-0.5l0.5-0.375l1.188,0.062l1.312,0.375l1.25,0.312l0.875,0.125l1.25-0.812
		l0.375-0.562l0.562-0.188h1.438l2.688-2.812l1.938-2l0.625-0.75l0.562-0.125l1.125,0.312l1.562,1.562l1.75,1.688l0.938,0.5
		L520.25,128l1.25-0.75l1-0.562l1-0.125h0.5l0.75,0.25l1.625,0.312l1.25-0.812l1.438,0.312l0.375,0.375l1.125-0.062l0.938-0.125
		l0.812,0.438h2.75l1.562-0.125c0,0,0.625,0.25,1,0.25s1.438-0.688,1.438-0.688l1.438-0.625l1.375-0.188l1.75-1.062l1.188-0.5h1
		l1.312-0.938l1-1l1.25-0.25l1.125,0.312l1.312,0.562l0.875,0.562l2.375,0.625l1.25,0.5l0.625,0.625l1,0.188l1.5-0.375l1.312-0.25
		h1.312l0.938,0.312l1.562,0.438l1.75,0.562l1.5,0.25l1.75-0.188l1.375-0.125l1.375,0.312l1.438,0.875l1.438,0.5l1.312,0.125
		l2.062,0.188l2.625,0.875l4.188,2l1.875,1.562L588,133.5l5.125-0.688l3.75-0.188l1.875,0.312l0.812,0.125h1.562l1.75-0.312
		l1.188-0.188h1.062l2.375,0.875l1.625,0.75l4.188,2.875l1.75,0.688l1.875,0.375l0.875,0.188h2.125l1.25-0.375l1.188,0.562
		l0.938,0.625l1.438,0.312l2,0.25l2.062,0.062c0,0,0.312,0.188,0.5,0.438s0.812,0.438,0.812,0.438h1.125l0.875-0.688l1.25-0.562
		l0.75-0.562l1.5-0.062l2.312,0.438l1.125,0.312l1.562-0.062l1.062-0.562h1.125l0.875,0.25l2.188,0.125l0.938,0.5
		c0,0,1.562,0.438,1.875,0.562s2.812,0.938,2.812,0.938l1.25,0.312h1.375l3.75-0.875l2.375-0.312L663,140l2.375-0.312l1.25,0.438
		l0.875,0.25l1.5,0.5l1.375,0.75l0.625,0.688l1.25,0.562l0.812,0.125l1.188-1.062l2-1.75l1.438-0.875l1.188,0.125l0.75,0.75
		l1.188,0.938l2.375,0.875l2.188,0.312l2.188-0.125l2.312-0.062l1-0.812l0.5-0.438l1.125-0.062l1.312,0.25"/>
</g>
</svg>
