<?xml version="1.0" encoding="utf-8"?>
<!-- Generator: Adobe Illustrator 16.0.4, SVG Export Plug-In . SVG Version: 6.00 Build 0)  -->
<!DOCTYPE svg PUBLIC "-//W3C//DTD SVG 1.1//EN" "http://www.w3.org/Graphics/SVG/1.1/DTD/svg11.dtd">
<svg version="1.1" id="svg" xmlns="http://www.w3.org/2000/svg" xmlns:xlink="http://www.w3.org/1999/xlink" x="0px" y="0px"
	 width="968px" height="648px" viewBox="0 0 968 648" enable-background="new 0 0 968 648" xml:space="preserve">
<g id="image">
	
		<image overflow="visible" enable-background="new    " width="3872" height="2592" xlink:href="AK04_20070610_180021.JPG"  transform="matrix(0.25 0 0 0.25 0 0)">
	</image>
</g>
<g id="gcp">
	<circle id="clubarm" fill="#FF0000" cx="411.25" cy="171.875" r="0.25"/>
	<circle id="bullseye" fill="#FF0000" cx="432" cy="172.625" r="0.25"/>
	<circle id="xcrack" fill="#FF0000" cx="581" cy="185.75" r="0.25"/>
</g>
<g id="gcp-unused">
	<circle id="TOOTH" fill="#FF0000" cx="94" cy="106.062" r="0.25"/>
	<circle id="P7930" fill="#FF0000" cx="181.188" cy="102.25" r="0.25"/>
	<circle id="TRIANGLEPK" fill="#FF0000" cx="348.5" cy="80.5" r="0.25"/>
	<circle id="JNCSLDR" fill="#FF0000" cx="734" cy="219.75" r="0.25"/>
	<circle id="wfalls" fill="#FF0000" cx="658.125" cy="202.625" r="0.25"/>
</g>
<g id="horizon">
	<path fill="none" stroke="#FF0000" stroke-width="0.25" stroke-miterlimit="10" d="M0.333,122.833l1.167-0.5l5-3.833
		c0,0,2.5-0.667,3-0.667s3.167-0.167,3.167-0.167L15,117.833l2.667-0.5l4-0.667h2.5h3.5h3.667H35.5l2.667-0.167l2.333-0.667
		l1.667,0.333l4.5,1.167l1.5-1.667L52,115l4,0.5l2.667,0.5L61,117.5l2.167,1.5l1,0.833l3.333,0.5l3.667,0.333L77,120.5l2.167-0.667
		l1.5-1.833l3.833-3.5l5.333-4.667L91.5,108l1.333-1.833l2.167-0.5l2.833,1l1.5,1.667l2.167,2.333c0,0,1.667,1.833,2,2.5
		s2.167,3.167,2.167,3.167l2.167,1.667l2.167,0.667c0,0,1,0,1.5,0.167s1.333-1.167,1.333-1.167l1.167-0.333l2.667-2L118.5,114
		l2.167-0.333l7.667-0.333l3.167-1.5h1.833l3.5,0.667l2,1.667l1,1.167c0,0,1.333,0.667,2.167,0.667s3,0.5,3.667,0.5s5,1.167,5,1.167
		l1.667,0.167L157,118l6.333-4.167l6.667-5l3-2.167l3.333-2.333l2-1l2.604-1.083l3.062,0.417l3,0.333l3.833,0.833l4.5,2.333l3.333,1
		l2.333,0.5l2.833,1l3.5-2.167l1.667-1l2.167-0.833h4.333h2.833l2.833,0.833l2.5,0.333l1.333,1l1.667,0.833l18.667,1.5h3.167
		l3.833-0.5l7.833-1.167l8.833-1.667l6.167-0.833l4-1.5L286,97.667l5-2.333l2.833-2l3-1.667l2.833-0.167l2,0.5L305,93l2.833,0.833
		L310,95.167l1.5,1.167h3.167l3-1.667l3.667-3l4-6.333L328,81l2.667-1.333l3.667-0.333l1.833,0.833l1.667,1.333l2.5,1.667l1.5,0.167
		l1.833,0.333l3.5-3.667l1.667-0.333c0,0,1,0.333,1.5,1s1.5,1.167,1.833,1.667s6.167,6.333,6.167,6.333l7.167,5L370.667,96
		l4.667,1.333l2.833,0.167l4.5-4L385,93l3-0.667l4,1l5.833,1l3.5,0.833L404,95.833l2.667-2.667l2-0.667l4.833,0.333l5,1.333
		L429.667,96L433,96.5l5.666-4.167l6.667-3.667l6.667-2.5l5.5-1.333l4.667-0.5L466.5,84.5l6.833,1l6.833,1.167l2.167,0.667
		l7.167-4.167l3.5-1.833l4.667-4.833l3-3.667L502.333,71l1.333-2.167l2-2.333l3.5-2l3.333-2.333l2.834-3l1.833-1.5l6.167-3.833
		l2.666-0.167l3.334-0.333l4-2.167l2.833-1.833l2-1.5l4.333-1.667l4-2.667l3.334-1.167l3.333-0.5l7-1.833l6.5-3.167l7-1l3.833,0.5
		l4.667,1l4.667,1.333L591.166,40l3.833,1.833L598.333,43l3.666,1.667l3.667,1l3,0.667l2.5-0.5l5.5-1.5l1.333-0.5h5.167l1.5,0.333
		l2.833,0.5L630.166,42l3.333-1.5l3.5-3l2.834-1l3.5-1.5l2.833-2.333l2-1l4.167-1.167l3.833-1.667l1.333-1.167l0.834-0.333
		l1.666,0.5c0,0,1.334,0.833,2.667,0s5.333-3.667,5.333-3.667L670.833,22l3.5-2l3.833-1.5l7.667-1.167l3.666-0.167l2.834,0.167
		l2-2.333l3.666-0.667l5.167-0.833l5-0.333l4.5,0.5l3.167,0.833l4.666,2.333l2,1.5l1.667,1l1.167,1l1.333-0.833l1.333-0.667h1.667
		l2.167,0.333l2.5-0.167l1.5,1.333L737.666,22l3.167,1.333l1.333-0.167l2.167-1L746.166,21h3.167l4.5-0.167l3.833,0.667l1.167,0.333
		l2.666,0.333l6.5,0.833l6.167,0.5l5,1.333l2.167,0.333l3,1.5L786.499,29l3.167,0.333l1.5-2.333l4.167-6.167l3.166-4.167L802.5,11
		l6.5-4.5l3.166-2l3-2.667l2-1.667"/>
	<polyline fill="none" stroke="#FF0000" stroke-width="0.25" stroke-miterlimit="10" points="894.333,-0.166 903,1.667 908.5,2.5 
		913.833,3.334 918.5,3.834 927.5,4 932.833,4.167 938,4.667 943.166,5 948.833,5.334 951.5,5.167 954.666,4.334 958.666,4.834 
		961.166,5.167 962.5,6.167 966,6.834 968,6.334 	"/>
</g>
</svg>
