<?xml version="1.0" encoding="utf-8"?>
<!-- Generator: Adobe Illustrator 16.0.4, SVG Export Plug-In . SVG Version: 6.00 Build 0)  -->
<!DOCTYPE svg PUBLIC "-//W3C//DTD SVG 1.1//EN" "http://www.w3.org/Graphics/SVG/1.1/DTD/svg11.dtd">
<svg version="1.1" id="svg" xmlns="http://www.w3.org/2000/svg" xmlns:xlink="http://www.w3.org/1999/xlink" x="0px" y="0px"
	 width="968px" height="648px" viewBox="0 0 968 648" enable-background="new 0 0 968 648" xml:space="preserve">
<g id="image">
	
		<image overflow="visible" enable-background="new    " width="3872" height="2592" xlink:href="AK04_20070619_180030.JPG"  transform="matrix(0.25 0 0 0.25 0 0)">
	</image>
</g>
<g id="gcp">
	<circle id="clubarm" fill="#FF0000" cx="410.75" cy="173" r="0.25"/>
	<circle id="bullseye" fill="#FF0000" cx="432.25" cy="174.25" r="0.25"/>
	<circle id="xcrack" fill="#FF0000" cx="581.25" cy="187.25" r="0.25"/>
</g>
<g id="gcp-unused">
	<circle id="TOOTH" fill="#FF0000" cx="94" cy="107.25" r="0.25"/>
	<circle id="P7930" fill="#FF0000" cx="181.5" cy="103.25" r="0.25"/>
	<circle id="TRIANGLEPK" fill="#FF0000" cx="348.75" cy="81.5" r="0.25"/>
	<circle id="JNCSLDR" fill="#FF0000" cx="734.25" cy="221.25" r="0.25"/>
	<circle id="wfalls" fill="#FF0000" cx="657.75" cy="206" r="0.25"/>
</g>
<g id="horizon">
	<path fill="none" stroke="#FF0000" stroke-width="0.25" stroke-miterlimit="10" d="M0,124.333h1.667l1.667-1.833l3.333-2.167
		l2.5-0.833l6.167-0.167l3.333-0.667l4.167-0.333l3.833,0.167l6.167-0.167h1.833L37.833,118L41,117.833h0.833H45l1.667-0.167
		l2.333-1L52.667,117l2-0.167L60,117.667l0.833,0.833l2.333,1.667l2.333,1l2,0.333l4.333,0.333L78,122.5l3.167-3.667L84.333,117
		L87,114.667l1.667-2.333l1.5-1.667c0,0,1-1.667,1.5-1.667s2.083-1.75,2.083-1.75l1.417-0.583c0,0,1.167,0.5,1.667,0.667
		s1.667,1.5,2.167,1.833s2.167,1.667,2.167,1.667l2,3.5l1.333,2.167l3,2.167l2,0.333l2.833,0.167l2.333-0.5c0,0,1.5-1.166,2-1.333
		s2.167-2,2.167-2l1.667-0.5l3.833,0.167l3.5,0.167L131,114l1.5-0.5l4.167,0.5l1.5,1l1.833,1.333l3.667,1.333l6.333,1.167
		l4.667,0.833l2-0.833l3.833-2.5l8.167-4.833l4.5-3.667l2.167-2l3-1.333l3.167-1.5h2.333l3,0.833l4,1.167c0,0,1.333,0.5,1.833,0.667
		s2.5,1.334,3,1.667S199,108.5,199,108.5l2.833,0.333l2.167,0.5c0,0,2.333-0.167,2.833-0.333s3.333-2.833,3.333-2.833l2.5-0.5h2.833
		l2.667,0.5l1.5,1.333h2.833h0.833l1.167,0.667l0.833,0.833l3.667,0.667L239,110l7.667,0.333l4.333-0.167l3.667-0.667l4.167-0.833
		l14-1.833L276,106.5l2.667-0.833l2.167-2l5-4.333l3.333-1.667l2.667-1.5l2.5-1.333l2-1.167L298,92.833c0,0,0.667,0.167,1.167,0.5
		s2.333,1,2.333,1l3.667,0.333l2.333,0.5l0.667,0.5c0,0,0.5,0.5,0.833,1s1,0.833,1,0.833l2.833,0.167h3.667l4.5-4.333l2-1.833
		l1-3.167L324.667,86c0,0,1.667-2.5,2.167-2.5s2-1.333,2-1.333l1.333-0.667l2.167-0.167l2.333,0.333l2,0.833l3,1.5l2.667,1.167
		l1.167,0.667l2.167-2.667L347,82l1.75-0.75L350,81l1.167,1.333l3.333,3l3.167,3.833l3.333,2.5c0,0,1.667,1.167,2.333,1.667
		s2.5,1.5,2.5,1.5l3.5,1.833l3.333,1.167l4.5,1.167l2-0.5c0,0,1.333-1.333,2-1.833s2.5-1.833,2.5-1.833l3-0.333l3.833-0.333
		l2.667,0.5l3.5,0.667L401.5,97l2.333,0.333l3.5-2.667c0,0,0.666-0.166,1.333-0.333S410.166,94,411,94s3.167,0.167,3.167,0.167
		l4.667,1.167l7.333,1.5L430.333,97h2L434,97.167l5.667-4.667l6.5-3l4.333-1.667l8-2.167l5.167-0.167h2l5.833,0.667l5,1l5.667,1.667
		l4.666-2.667l5.5-2.5L496.666,79l4.166-4.833l2.5-1.333L504.666,70l1-1.833c0,0,1-1.666,1.833-1.833s3-1.667,3-1.667l2-1.5l2-1.5
		l1.5-1.667l1.5-1.333l2.833-1.833l1.334-1L524.832,55l4.5-1.167l2.667-0.5l2.5-0.5L536.332,51l2.834-1.667l5-2.5l3.333-2
		l3.167-1.333l4.833-0.667l5.667-2L565.332,39l2.834-1l2.166-0.167l6.5-0.167l8,1.5l9.667,3.667l11.167,4l5,1.167l3-0.5l2.666-1.833
		L618.999,45h3l2.333,0.667l2.334,0.5c0,0,3-0.833,3.5-1.333S631.999,43,631.999,43l1-0.333c0,0,1.833-2.666,2.333-2.833
		s1.834-1.5,2.667-1.667s5-1.167,5-1.167l3-2.5l1.667-1l5.166-0.833c0,0,2.834-1.5,3.334-1.667s0.833-1.833,0.833-1.833
		s0.833-0.5,1.333-0.5s2.5,0.333,3,0.5S666.665,27,666.665,27l3-2.833L671.831,23l3.5-2l4.334-1.667l5.333-0.833l3.5-0.167
		l3.5-0.167l2-0.333l2-1.5l6-1l8-0.333l4.167,0.167l4,1.667l2.666,1.833l3,2.5l2.667,0.333l1-1.167c0,0,1-0.5,2-0.167s2,0.5,2,0.5
		L732.831,21l3.167,0.167l2,2.167l0.667,0.833l1.5,0.667l2.166-0.333l3.5-2l3.5-0.667l4,0.5l3.834,0.833l1.666,0.5
		c0,0,1.334-0.833,2.334-0.333s3-0.167,3-0.167l3.5,0.667l2.333,0.667l2.667,0.167l6,1l5.5,2.833l4,3l3.166-3.667L797.998,19
		l6.667-7.833l6.833-5.333L816.331,2l3.5-2"/>
	<path fill="none" stroke="#FF0000" stroke-width="0.25" stroke-miterlimit="10" d="M891.165,0.333l9,2.333l6.5,0.833
		c0,0,2.667,0.167,3.167,0.5s3.166,0.666,3.666,0.833s3.667,0,3.667,0l1.5,0.5c0,0,0.834,0.167,1.667,0.5S923.998,6,923.998,6
		s1.833-0.334,3.5-0.167s5.334-0.333,5.334-0.333s1,0.167,1.5,0.5s1.833,0.333,1.833,0.333l1.5-0.333c0,0,0.333-0.667,0.833-0.5
		s1.166-0.333,2,0.167s2.667,0,3.167,0.333s2.5,0.167,2.5,0.167L947.832,6h2.833l1.833-0.333L954.665,5c0,0,1.666,0,2.333,0.167
		s1.167,0.5,1.667,0.667s2.167,0.833,2.167,0.833L962.498,7l2.5,0.5h2.667h0.833"/>
</g>
</svg>
