<?xml version="1.0" encoding="utf-8"?>
<!-- Generator: Adobe Illustrator 16.0.4, SVG Export Plug-In . SVG Version: 6.00 Build 0)  -->
<!DOCTYPE svg PUBLIC "-//W3C//DTD SVG 1.1//EN" "http://www.w3.org/Graphics/SVG/1.1/DTD/svg11.dtd">
<svg version="1.1" id="svg" xmlns="http://www.w3.org/2000/svg" xmlns:xlink="http://www.w3.org/1999/xlink" x="0px" y="0px"
	 width="968px" height="648px" viewBox="0 0 968 648" enable-background="new 0 0 968 648" xml:space="preserve">
<g id="image">
	
		<image overflow="visible" enable-background="new    " width="3872" height="2592" xlink:href="AK09_20090803_200320.JPG"  transform="matrix(0.25 0 0 0.25 0 0)">
	</image>
</g>
<g id="image-contrast">
	
		<image overflow="visible" width="3872" height="2592" xlink:href="AK09_20090803_200320-b.JPG"  transform="matrix(0.25 0 0 0.25 0 0)">
	</image>
</g>
<g id="gcp-unused">
	<circle id="P5830" fill="#FF0000" cx="819.5" cy="24" r="0.25"/>
	<circle id="T20090803-01" fill="#FF0000" cx="745.188" cy="244.281" r="0.25"/>
	<circle id="T20090803-02" fill="#FF0000" cx="837.938" cy="260.781" r="0.25"/>
	<circle id="T20090803-03" fill="#FF0000" cx="925.938" cy="159.281" r="0.25"/>
	<circle id="T20090803-04" fill="#FF0000" cx="611.438" cy="208.031" r="0.25"/>
	<circle id="nostril" fill="#FF0000" cx="881.062" cy="123.875" r="0.25"/>
</g>
<g id="gcp">
	<circle id="JUNCTURE-old" fill="#FF0000" cx="323.7" cy="22.528" r="0.25"/>
	<circle id="pinch" fill="#FF0000" cx="196.312" cy="73.469" r="0.25"/>
	<circle id="jawlip" fill="#FF0000" cx="324.312" cy="93.531" r="0.25"/>
	<circle id="alcove" fill="#FF0000" cx="392.438" cy="91.719" r="0.25"/>
	<circle id="butt" fill="#FF0000" cx="518.75" cy="108.031" r="0.25"/>
	<circle id="portaledge" fill="#FF0000" cx="611.609" cy="95.265" r="0.25"/>
	<circle id="kissers" fill="#FF0000" cx="899.5" cy="120.531" r="0.25"/>
	<circle id="screepit" fill="#FF0000" cx="634.312" cy="53.906" r="0.25"/>
	<circle id="T20090803-15" fill="#FF0000" cx="38.125" cy="89.208" r="0.25"/>
	<circle id="T20090803-16" fill="#FF0000" cx="586.833" cy="68.583" r="0.25"/>
	<circle id="T20090803-17" fill="#FF0000" cx="579.594" cy="57" r="0.25"/>
	<circle id="T20090803-18" fill="#FF0000" cx="531.453" cy="30.156" r="0.25"/>
	<circle id="T20090803-19" fill="#FF0000" cx="622.188" cy="44.656" r="0.25"/>
</g>
<g id="terminus">
	<polyline fill="none" stroke="#FF0000" stroke-width="0.25" stroke-miterlimit="10" points="134.33,195.239 144.534,194.607 
		155.685,194.502 	"/>
	<polyline fill="none" stroke="#FF0000" stroke-width="0.25" stroke-miterlimit="10" points="196.921,195.133 207.44,194.607 
		217.329,195.028 227.743,195.133 236.684,195.554 245.941,195.449 254.883,195.028 261.194,194.397 267.296,193.661 
		273.292,193.766 281.497,193.976 289.387,193.871 296.435,193.766 304.43,193.135 	"/>
	<path fill="none" stroke="#FF0000" stroke-width="0.25" stroke-miterlimit="10" d="M549.742,213.963l4.208,1.367l8.205,2.525
		l7.363,2.735l7.469,2.314l4.103,1.262l2.945,1.473l2.209,0.631l4.733,1.368h2.314l1.999-0.631l1.473-0.105l1.473,0.315l1.683,0.421
		l2.841,0.105l4.207-0.526h3.366l4.839,0.631l1.368,0.841l1.367,0.315l3.261,0.316l2.104,0.315l2.63,0.736l7.363,2.314l5.26,1.367
		l8.52,2.105l7.995,2.104l10.625,2.945l17.883,4.523l8.731,2.735l9.362,2.525l4.943,0.947l3.577,1.157l3.051,0.841l6.101,2.314
		l5.892,2.104l5.891,1.367l7.153,1.683l5.049,1.578l5.26,1.368l2.63,1.473l2.314,0.42l2.84,0.526l3.262,0.631l3.05,1.368
		l3.262,1.788l3.051,1.263l6.312,1.367l3.892,0.947l2.841,0.736l3.997,0.842c0,0,2.841,0.421,3.156,0.526s3.155,0.315,3.155,0.315
		l5.471,0.736l6.101,0.631l4.103,0.736l4.523,1.052l2.63,0.947c0,0,3.051,0.841,3.472,1.157s4.418,1.578,4.418,1.578l4.523,0.736
		l8.941,2.84l5.47,1.473l6.838,2.419l10.099,2.945l8.626,2.735l10.625,2.419l10.099,3.261l28.402,8.311l17.777,5.575l16.516,5.26
		L968,327.891"/>
</g>
<g id="horizon">
	<polyline fill="none" stroke="#FF0000" stroke-width="0.25" stroke-miterlimit="10" points="467.094,0.016 469,1.141 
		470.922,2.875 471.328,3.594 471.781,3.953 472.484,4.016 473.344,4.188 474.125,4.422 475.156,4.844 475.844,5.188 476.438,5.453 
		477.109,5.875 477.469,6.281 477.542,6.875 477.958,7.417 478.708,8.083 480.333,8.875 481.75,9.458 482.542,9.875 483.083,10.458 
		483.458,10.833 484,10.417 484.791,10.167 485.791,10.167 486.958,9.958 488.125,9.542 489.875,8.792 491.458,8.208 492.125,7.708 
		492.791,7.292 493.708,7.292 494.833,7.25 495.875,6.708 496.833,6.125 498.166,5.333 499.5,4.625 500.791,4.25 501.875,4.083 
		502.875,4.042 503.833,3.208 504.416,2.708 505.291,2.333 506.125,1.958 506.833,1.625 507.688,1.062 508.172,0 	"/>
	<path fill="none" stroke="#FF0000" stroke-width="0.25" stroke-miterlimit="10" d="M513,0.016c0,0,0.844,1.062,0.906,1.078
		s0.844,1.25,0.844,1.25l0.844,1.5L516,4.859l0.891,0.875l0.922,0.5l0.688,0.406L519.016,7l0.453,0.219L520,7.375l0.562,0.141
		l0.641,0.281l0.672,0.406l0.484,0.328l1.344-1.766l1.5-1.734l1.469-2.078l1.406-1.812l0.703-1.094"/>
	<path fill="none" stroke="#FF0000" stroke-width="0.25" stroke-miterlimit="10" d="M608.542,0.042l1.416,1.208l0.584,1.208
		l0.333,0.708l0.375,0.708l1.167,0.458L613.625,5l0.875,0.75l1.042,0.792l0.791,0.917l2,1.25L620.042,10l1.625,0.833l1.5,1.042
		l1.458,0.958l0.625,0.875l1.375,2.417l0.917,1.083l1.25,0.917l0.375,0.375c0,0,0.374,0.584,0.541,0.792s1.042,2,1.042,2
		l0.542,1.125l0.916,1.417L633.833,25l0.709,0.624l0.791-0.125l0.542-0.292l0.375-0.125l0.917,0.083l0.375,0.375l0.333,0.292
		l0.875-0.667l0.542-0.375l0.5-0.125h1.083l0.375,0.125l0.958,0.458l0.709,0.458l0.458,0.5l1.25,0.833l1.458,0.75l0.5,0.25l1.292,1
		l0.75,0.833l0.583,0.792l0.25,0.583l0.917-0.083l1.292-0.958l1.291-0.875l1.542-0.792l1.417-0.625l2.416-0.542l2-0.125l2.417,0.042
		l1.917-0.042l3.041-0.042l2-0.292L672,26.833l1.833,0.125l1.584,0.667l3,0.875l1.291,0.708l1.5,0.375l1.75,0.333l2,0.5l1.459,0.333
		l1.791,0.917l1.542,1.333l0.708,0.917l0.459,0.5l0.458,0.333L692,34.916l1-0.417l0.417-0.125l0.333,0.333l0.417,0.667l0.458,0.417
		l0.542,0.083l0.583-0.333l0.458-0.833l1.125-0.375l0.959-0.167l0.625-0.083l0.916-0.833l1.334-0.833l0.916-0.75l0.542-0.708
		l0.458-0.583l1.042-0.375l0.583-0.042l1,0.292l0.75,0.375c0,0,0.291,0.333,0.375,0.458s0.291,0.708,0.375,0.833
		s0.334,0.583,0.417,0.708s0.667,0.708,0.667,0.708l0.543-0.334l1.291,0.125l1.292,0.708l0.792,0.708l0.333,0.833l0.208,0.708
		l0.459,0.333l0.791-0.458l0.875-0.042l1.25,0.042l0.959,0.25l1.375,0.458l0.75,0.167l1.333,0.583l1.125,0.958l1.417,0.667
		l0.583,0.583l0.75,0.458l0.667,0.125l1-0.292l1.416-0.667l1.334-0.667l2.543-0.708l1.542-0.333l1.833-0.125h1.125l0.958-0.208
		l1.334-0.75l0.666-0.458l1.375-0.542l1.125-0.292l0.917-0.417l0.875-0.125l1.5,0.125l0.75,0.292l1.458,0.042l0.25-0.417l0.875-0.5
		l0.75-0.375h0.667h0.5l0.625-0.292l0.958-0.417l1.125-0.375l0.834-0.333l0.625-0.292l2.833-0.75l1.083-0.292l1-0.25l0.709-0.25
		l0.625-0.458l1.333-0.042l1.375,0.125l0.834,0.417l0.583,0.458l0.417,0.708l0.625,0.5l1.042,0.542l0.458,0.417l1.042,0.542h0.875
		l0.916,0.167l0.709,0.125l0.666,0.167l1.459,0.333l0.958-0.208l0.667-0.333l0.541-0.375c0,0,1.167-0.167,1.417-0.167
		s2.833-0.125,2.833-0.125l1.667,0.042l0.792,0.542l0.5,0.375h0.708l0.708-0.292l0.75-0.292h0.542l0.667,0.542l1.541,0.375
		l0.834-0.167l0.708-0.042l1.625,0.125l0.542-0.792l1.208-0.292l0.835,0.167h0.458l0.542-0.125l1.083,0.042l1.917,0.458l0.833,0.333
		l0.75,0.125l0.584,0.083l1.125,1l0.875,0.792l1.333,0.417l0.875,0.083l1.333-0.333l1.875-0.917l1.209-1.625l0.083-0.375l0.833-0.25
		l0.625-0.292l0.709-0.708l0.708-1.083l0.708-1.083l0.209-0.5l0.5-0.375l1.291-0.583l1.25-1.125c0,0,0.834-1.5,0.959-1.542
		s0.583-1,0.583-1l0.667-0.75l0.666-0.458h1.042l0.542-0.042l1.75,0.125l1.875,0.5l1,0.417l0.708,0.417l0.292,0.5l1.375,0.25
		l1.041,0.333l1.709,0.708l1.083,0.583l0.75,0.458l0.333,0.333h0.792l1.041,0.167l0.542,0.333l1,0.917l0.625,0.708l0.583,1.167
		l0.792,0.333l0.917-0.083c0,0,0.375-0.042,0.458,0.083s0.376,0.25,0.542,0.333s1.25,0.125,1.25,0.125l2.166-0.25l1.375-0.375
		l0.667-0.333l0.5-0.417l0.5-0.5l0.917-0.333l1.625-0.375l0.958-0.042l2.083-0.042l0.625,0.292l0.709,0.417l1,0.167l1.625-0.292
		l0.875-0.75l0.916-0.333c0,0,0.5,0,0.625,0.042s1,0.375,1,0.375l0.875,0.167l1.042,0.042l0.583-0.375l0.542-0.542l0.875-0.5
		l0.667,0.042l0.333,0.25l0.375,0.542l0.625,0.167c0,0,1.166-0.167,1.333-0.208s1.375-0.125,1.375-0.125l1.084,0.208l1.417,2.041
		l0.791,1.167l2.917,1.708l1.833,1l1.292,0.875l1.625,1c0,0,1.625,1.083,1.75,1.167s2.458,1.333,2.458,1.333l1.25,0.792l1.584,1.083
		l1,0.917l0.833,0.75c0,0,1.125,0.792,1.25,0.917s0.75,0.625,1.125,0.833s2.375,1.458,2.375,1.458s1.333,0.5,1.583,0.542
		s1.5,0.25,1.5,0.25l1.167,0.375l2.375,0.667l1.5,0.333l2,0.458l1.875,0.125c0,0,1.083-0.125,1.333-0.25s2.709-1.125,2.709-1.125
		l2.125-0.667l0.958-0.208l2.167-0.5l1.25,0.042l2.667,0.292l1.583-0.417l1.375-0.417l1.125-0.25l1.542,0.125
		c0,0,0.625,0.208,0.875,0.25s1.291,0.125,1.541,0.167s2.167,0,2.167,0h2.083h0.709l2.083-0.25l0.917-0.208h0.875h2.291h1.292
		l1.875,0.458c0,0,1.541,0.25,1.708,0.25s1.584,0.167,1.584,0.167l1.792,0.125l0.875-0.5l1.041-0.875l1.084-0.75l1.208-0.417
		l1.167-0.583h1.041h1.375l1.209,0.333l1.041,0.75c0,0,0.876,0.542,0.959,0.667s1.625,1.75,1.625,1.75l0.458,0.625l1.042,0.625
		l0.75,0.417l1.291,0.708l0.834,0.5l1.583-1.667l1.917-1.875l1.958-1.708L968,42.997"/>
</g>
<g id="moraines">
	<g id="moraine-01">
		<polyline fill="none" stroke="#FF0000" stroke-width="0.25" stroke-miterlimit="10" points="728.167,242 748.333,235 763,229.5 
			775,226.333 785.667,224.667 815.333,221.333 841.167,217.833 861.834,213.334 878.834,208.501 889.667,204.501 897.167,201.167 
			902.667,196.001 906.167,190.501 908.667,183.834 909.667,176.834 913.167,170.167 918.667,163.501 923.834,160.001 
			929.834,157.334 941.167,155.167 952.334,154.834 958.834,154.667 		"/>
	</g>
	<g id="moraine-02">
		<polyline fill="none" stroke="#FF0000" stroke-width="0.25" stroke-miterlimit="10" points="830.334,263.834 847.334,259.834 
			863.334,257.667 876.168,256.167 887.001,253.334 895.168,250.167 906.668,242.167 918.001,237.501 929.501,234.001 
			942.501,230.334 957.668,228.001 		"/>
	</g>
	<g id="moraine-03">
		<polyline fill="none" stroke="#FF0000" stroke-width="0.25" stroke-miterlimit="10" points="839.812,125.448 837.942,124.046 
			836.152,123.307 834.479,122.645 831.48,121.789 829.612,120.971 827.705,120.192 825.058,119.141 822.488,117.935 
			820.27,116.845 817.272,115.755 815.17,114.743 		"/>
		<polyline fill="none" stroke="#FF0000" stroke-width="0.25" stroke-miterlimit="10" points="811.044,112.718 808.786,111.706 
			807.034,110.655 806.022,110.305 805.127,110.266 804.192,110.227 803.181,109.876 801.935,109.487 800.845,108.631 
			799.949,108.047 798.977,107.229 798.393,106.529 798.354,106.023 798.704,105.595 		"/>
	</g>
	<g id="moraine-04">
		<polyline fill="none" stroke="#FF0000" stroke-width="0.25" stroke-miterlimit="10" points="90.858,151.96 93.354,147.917 
			96.192,143.702 99.29,140.088 103.075,137.335 107.635,134.582 111.162,133.206 114.861,132.087 		"/>
	</g>
	<g id="moraine-05">
		<polyline fill="none" stroke="#FF0000" stroke-width="0.25" stroke-miterlimit="10" points="-0.037,100.18 5.095,99.337 
			12.054,98.282 18.028,97.298 24.565,96.385 30.47,95.752 36.304,95.049 41.224,94.487 46.215,93.924 51.557,93.573 56.478,93.222 
			60.976,92.87 64.842,92.308 67.654,91.886 72.012,91.394 76.088,91.042 79.462,90.761 82.134,90.48 84.102,90.41 		"/>
	</g>
</g>
</svg>
