<?xml version="1.0" encoding="utf-8"?>
<!-- Generator: Adobe Illustrator 16.0.4, SVG Export Plug-In . SVG Version: 6.00 Build 0)  -->
<!DOCTYPE svg PUBLIC "-//W3C//DTD SVG 1.1//EN" "http://www.w3.org/Graphics/SVG/1.1/DTD/svg11.dtd">
<svg version="1.1" id="svg" xmlns="http://www.w3.org/2000/svg" xmlns:xlink="http://www.w3.org/1999/xlink" x="0px" y="0px"
	 width="968px" height="648px" viewBox="0 0 968 648" enable-background="new 0 0 968 648" xml:space="preserve">
<g id="image">
	
		<image overflow="visible" enable-background="new    " width="3872" height="2592" xlink:href="AK09_20090516_200409.JPG"  transform="matrix(0.25 0 0 0.25 0 0)">
	</image>
</g>
<g id="gcp-peaks">
	<circle id="P5830" fill="#FF0000" cx="820.25" cy="23.25" r="0.25"/>
</g>
<g id="gcp">
	<circle id="JNCSLDR" fill="#FF0000" cx="54.047" cy="104.234" r="0.25"/>
	<circle id="JUNCTURE-old" fill="#FF0000" cx="324.257" cy="22.373" r="0.25"/>
	<circle id="pinch" fill="#FF0000" cx="198.047" cy="73.234" r="0.25"/>
	<circle id="jawlip" fill="#FF0000" cx="325.297" cy="93.484" r="0.25"/>
	<circle id="alcove" fill="#FF0000" cx="393.297" cy="91.734" r="0.25"/>
	<circle id="butt" fill="#FF0000" cx="519.797" cy="108.234" r="0.25"/>
	<circle id="portaledge" fill="#FF0000" cx="612.484" cy="95.344" r="0.25"/>
	<circle id="kissers" fill="#FF0000" cx="900.047" cy="120.734" r="0.25"/>
</g>
<g id="horizon">
	<polyline fill="none" stroke="#FF0000" stroke-width="0.25" stroke-miterlimit="10" points="468.094,0.047 472.172,2.641 
		475.031,4.172 477.469,5.531 479.25,6.719 481.281,7.75 482.031,8.156 482.906,8.812 483.75,9.75 483.938,10.219 485.656,9.906 
		486.812,9.844 488.375,9.312 490.938,8.344 492.406,7.25 493.375,6.75 494.656,6.406 496.844,5.75 498.719,4.688 500.969,3.906 
		502.406,3.781 503.5,3.594 504.156,2.344 505.312,1.531 506.125,1.156 508.344,0.016 	"/>
	<polyline fill="none" stroke="#FF0000" stroke-width="0.25" stroke-miterlimit="10" points="514,0 515.641,1.781 516.641,3.109 
		518.281,4.828 519.703,5.844 521.219,6.906 523.125,8.484 523.891,7.031 525.281,5.344 526.594,3.703 527.75,2.016 529.234,0.016 	
		"/>
	<path fill="none" stroke="#FF0000" stroke-width="0.25" stroke-miterlimit="10" d="M609.875,0l0.141,1.047l0.844,0.797L611.812,3
		l1.297,1.141l1.938,1.344l2.484,1.734l2.234,1.562l1.328,0.812l1.438,0.812l1.625,0.969l0.938,0.688l0.531,0.531
		c0,0,0.219,0.625,0.25,0.781s0.375,0.844,0.375,0.844L627.562,16l1.406,1.719l0.562,0.625l0.344,0.062l0.312,0.531l0.594,0.906
		l0.719,1.75l1.062,1.656l0.531,0.188l0.656,0.188l0.375,0.281c0,0,0.312,0.062,0.375,0.156s0.469,0.344,0.469,0.344l0.531,0.25
		l2.219-0.406l1.969-0.312l0.969-0.156l1.469-0.125l0.5,0.188l0.625,0.438l1,0.906l0.688,0.531L646,26.25l0.75,0.375l0.406,0.469
		l0.938,1.062l0.312,0.562l0.562,0.625l0.344,0.688l0.5,0.562l0.312,0.562"/>
	<path fill="none" stroke="#FF0000" stroke-width="0.25" stroke-miterlimit="10" d="M658,26.969l2.062-0.125l1.656-0.062
		l1.688,0.062l1,0.406l1.875-0.188L667.812,27l1.844-0.188l2.812-0.312l1.938,0.188l1.344,0.406l1.188,0.562l0.875,0.469l1.5,0.312
		h0.875l1.188,0.188c0,0,0.688,0.344,0.781,0.406s0.969,0.469,0.969,0.469l0.781,0.438l0.781,0.125l1.688,0.188l0.938,0.562
		l1.469,0.812c0,0,0.75,0.594,0.844,0.688s2.188,1.125,2.188,1.125L693,34.062l0.594,0.531l0.906,0.219l0.5,0.406l0.406,0.5
		l0.406,0.156l1.219-1.188l0.812-0.469l0.531-0.312l1.312-0.25l0.75-0.406l1-1.125l0.781-0.5l0.5-0.531l0.344-0.438l0.344-0.5
		l0.531-0.281l0.906-0.031L706,30.125l1.438,0.625l1.062,0.781L709.656,32l1.25,0.75l1.281,0.406l0.375,0.594l0.312,0.531
		l0.625,1.094l1.031,0.562h1.062h0.969c0,0,0.344-0.031,0.5,0.125s0.562,0.719,0.562,0.719l1.25-0.156l0.75-0.156l0.656,0.031
		l0.781,0.625l0.844,0.844l0.625,0.594l0.531,0.5c0,0,0.781,0.625,0.875,0.656s0.656,0.406,0.656,0.406l0.719,0.406l1.469-1.406
		l0.812-0.406l0.875-0.469l0.594-0.344l0.344-0.156l0.719-0.281l0.938-0.094l0.625-0.438l0.75-0.156l1.531-0.312l1.156,0.031h0.938
		l0.406-0.031l1.594-0.438l1.469-0.469l0.969-0.188l1.438-0.625l0.875-0.406l0.781-0.25h1.219l1.375,0.344l0.594,0.062l0.875-0.219
		l0.531-0.438l0.5-0.219l0.719-0.062l0.969-0.062h0.719l0.469-0.188l0.5-0.781l0.406-0.406l0.688-0.469l1.375-0.156l2.156-0.5
		l1.875-0.312l0.594-0.219l1.25-0.344l0.781-0.281l1.375-0.438l1.594,0.031l0.688,0.125L766,30.406c0,0,0.344,0.719,0.438,0.781
		s0.5,0.688,0.5,0.688s0.781,0.562,0.875,0.625s0.75,0.5,0.75,0.5l1.281,0.375l2.5,0.188h1.25l1.062-0.219l0.75-0.219L776,32.781
		l1.375-0.156l1.469,0.094l1.188,0.031l1,0.031l0.688,0.156l0.969,0.438l0.906,0.344c0,0,0.906,0.094,1,0.094
		s2.312,0.062,2.312,0.062l1.969-0.062l1.031,0.031l1.344-0.531l1.312-0.688l1.062-0.25l1.438,0.219c0,0,1,0.125,1.094,0.156
		s1.031,0.469,1.031,0.469l1.625,0.312l2.031,0.625l1.062,0.531l1.812,0.5l1.125,0.344l0.688,0.125l0.656,0.062l1-1.156l1.031-0.656
		L809,32.875l0.781-0.75l0.469-0.656l0.656-0.812l0.344-0.438l0.656-0.75l1.219-0.906l1-0.875l0.906-0.562l0.656-0.562l0.406-0.438
		L816.531,25l0.281-0.688c0,0,0.562-0.531,0.656-0.562s0.844-0.375,0.844-0.375l1.219-0.281l1.438-0.188l1.562,0.469l0.688,0.312
		c0,0,0.594,0.281,0.688,0.312s0.375,0.219,0.5,0.312s0.781,0.781,0.781,0.781l0.719,0.75L827,26.438l1.344,0.625l1.25,0.5
		l1.125,0.406l1,0.219l1.156,0.062l1.156,0.156l0.344,0.188c0,0,0.312,0.719,0.344,0.812s0.312,0.656,0.438,0.844
		s0.781,0.688,0.781,0.688l0.75,0.312l1.469,0.312l2.344,0.125l1.562-0.125l1.312-0.406l0.844-0.656l0.938-0.531l1.5-0.406h1.719
		l2.094,0.25l1.75,0.281l1,0.125l0.844-0.094l1.469-0.781l0.844-0.5l0.781-0.188l0.875-0.031l1.656,0.219l0.938,0.25l0.5-0.25
		l1.094-0.594l1.344,0.25l0.656,0.469l1.156,0.188l1.531-0.125l1,0.156l1.188,0.875c0,0,0.594,0.438,0.719,0.5
		s1.531,1.344,1.531,1.344l1.156,1.219l0.562,0.344l1.469,1.062l2.625,1.719l1.875,1.219l2.594,1.688l1.562,0.75L884,40.25
		l1.188,1.062l1.25,1.062l1.031,0.844l1.031,0.75l0.812,0.625l1.281,0.531l0.969,0.938c0,0,0.406,0.219,0.625,0.25
		s1.406-0.188,1.406-0.188l1.625-0.031l1.188,0.031l1.344,0.75l1.094,0.781l1.438,0.406l1.562,0.344c0,0,1.281,0.094,1.375,0.094
		s1.281-0.031,1.281-0.031l1.219-0.406l1.375-0.344L908,47.406l1.094-0.469l1.188-0.062l0.969-0.625l1.375-0.312l1.281-0.156
		l0.906-0.094l1.156,0.062l0.938,0.25H918l0.906-0.469l0.969-0.188l0.844-0.125l1.125-0.188l1.062-0.125
		c0,0,0.344,0.125,0.406,0.219s0.219,0.438,0.219,0.438s0.625,0.125,0.75,0.156s1.375,0,1.375,0l0.969-0.094l1.125-0.062h0.844
		l1.594,0.312l1-0.312l0.594-0.156l0.594-0.438l1.062-0.281l1.312,0.062l0.969,0.188l1.219,0.25l1.844,0.375l2.438,0.594l1.75,0.312
		l1.219-0.156l0.844-0.5l0.844-0.375l1.781-1.094l1.688-0.75L950.219,43l0.719-0.312l1.094-0.156l1.156,0.438l1.312,0.625
		l0.562,0.969l0.25,0.531l0.656,1.125l0.625,0.75l0.844,0.938l0.5,0.312l0.781,0.094c0,0,0.625,0.312,0.719,0.406
		s0.406,0.719,0.406,0.719l0.375,0.438l0.5,0.031l0.906-0.781l1.125-1.5l2.062-1.656l1.406-1.438L968,43.812"/>
</g>
</svg>
