<?xml version="1.0" encoding="utf-8"?>
<!-- Generator: Adobe Illustrator 16.0.4, SVG Export Plug-In . SVG Version: 6.00 Build 0)  -->
<!DOCTYPE svg PUBLIC "-//W3C//DTD SVG 1.1//EN" "http://www.w3.org/Graphics/SVG/1.1/DTD/svg11.dtd">
<svg version="1.1" id="svg" xmlns="http://www.w3.org/2000/svg" xmlns:xlink="http://www.w3.org/1999/xlink" x="0px" y="0px"
	 width="929.279px" height="622.08px" viewBox="0 0 929.279 622.08" enable-background="new 0 0 929.279 622.08"
	 xml:space="preserve">
<g id="image">
	
		<image overflow="visible" enable-background="new    " width="3872" height="2592" xlink:href="AK10b_20121012_160709.JPG"  transform="matrix(0.24 0 0 0.24 0 9.765625e-04)">
	</image>
</g>
<g id="coast" display="none">
	<polyline display="inline" fill="none" stroke="#FF0000" stroke-width="0.25" stroke-miterlimit="10" points="0,225.25 
		10.5,225.25 18.583,225.25 28,225 39.417,224.5 48.083,224.25 58.333,224.083 64.5,223.75 68.75,223.417 72.167,222.5 74,222.25 
		77.583,221.833 82.333,221.917 87.833,221.667 93,221.583 100,221.333 108.833,221 114.083,220.917 121.333,221.083 130.833,221 
		141.166,220.75 148.166,220.833 159.416,220.75 168.75,220.667 178.999,220.667 185.915,220.833 193.915,220.75 200.915,221 
		207.582,221.417 215.582,221.167 223.665,221.083 232.542,220.5 238.333,220.75 244.375,220.958 249.875,220.917 	"/>
	<polyline display="inline" fill="none" stroke="#FF0000" stroke-width="0.25" stroke-miterlimit="10" points="270.688,195.25 
		273.5,195.5 275.438,196.188 279.688,196.562 282.812,196.688 285.75,197.25 288.312,197.5 290.875,197.688 292.875,197.5 
		295.062,197.688 297.875,198.25 300.875,198.312 303.75,198.125 306.125,198.375 309.75,198.812 311.875,198.875 315,199 
		316.938,199.125 321.25,199.438 323.562,199.5 327.625,199.75 331.812,200.062 336.188,200.625 338.625,201 340.188,201.75 
		342.562,202.125 347.25,202.438 351.375,202.562 355.125,202.625 	"/>
	<polyline display="inline" fill="none" stroke="#FF0000" stroke-width="0.25" stroke-miterlimit="10" points="399,213.75 
		401.25,214.062 403.188,214.25 404,214.438 404.938,214.938 407.625,215.375 411.625,215.938 416.938,216.625 421.625,217.438 
		427.5,217.625 433.312,217.75 441.188,218.25 446.562,218.5 451.188,218.938 459.438,219.25 466.25,219.688 479.062,220.188 
		486.688,220.625 492.5,221.188 504.375,222 516.062,223.062 528.375,224.375 539.875,225.812 550.5,227 561.375,228.812 
		568.188,229.812 575,230.562 581.188,230.812 592,231.5 603.438,232.062 612.5,232.562 622.625,233.25 641.25,234.312 657,234.938 
		671.75,235.75 682.75,236 694.438,236.188 706.5,236.812 	"/>
</g>
<g id="horizon">
	<polyline fill="none" stroke="#FF0000" stroke-width="0.25" stroke-miterlimit="10" points="0.083,96.417 2.583,93.75 3.833,92.75 
		5.333,92.833 6.417,92.833 7.667,91.917 9.417,90.917 10.917,91.083 12.667,92.25 15.667,93.917 17.583,95.917 18.833,98.167 
		21,101.667 22.833,104.333 24.083,105.917 25.583,106.5 27,106.75 27.833,107.833 28.667,109.75 30.583,110.917 33.333,113.583 
		35,116.583 36.167,118.417 38.083,119.583 40.333,122.25 42.583,124.667 44.583,126.833 46.083,128.167 47.167,128.917 
		47.417,130.25 49.917,132.167 55.5,135.833 57.75,136.167 59.5,136.333 61.833,137.333 65.417,138.5 68.333,139.083 
		70.167,140.083 71.333,141.25 75.583,143.333 77.083,144 80,143.583 81.167,142.75 82.167,142.25 84.5,142.417 86.833,142.833 
		90.5,143.833 93,145 95.583,145.417 97.75,145.917 101.167,147.167 104.833,148.167 107.583,149.917 109.333,152.167 
		111.5,155.415 113.5,157.582 116,159.415 118.167,160.832 119.75,161.748 120.833,163.165 123.25,162.582 124.917,161.998 
		126.417,162.082 129.917,160.915 131.5,160.498 133.167,161.748 136.083,162.748 138.417,162.332 140.417,162.248 141.917,163.332 
		143.25,163.998 144.917,163.998 146.083,164.082 148,164.582 149.917,165.165 151.167,164.915 152.167,165.332 154.083,165.665 
		155.75,165.998 158.333,167.082 160.667,167.998 162.083,168.248 163.333,167.748 164.917,167.248 167.25,167.582 168.917,168.665 
		171,169.082 171.452,169.478 171.765,170.415 173.702,171.165 176.89,171.915 180.202,172.665 182.452,173.103 183.702,173.978 
		184.827,174.603 187.015,174.853 188.952,174.665 191.077,174.665 192.827,174.665 194.077,174.853 194.702,175.478 
		196.14,176.665 198.015,177.665 201.077,178.915 203.89,180.103 206.577,181.603 	"/>
	<polyline fill="none" stroke="#FF0000" stroke-width="0.25" stroke-miterlimit="10" points="216.39,180.79 217.89,179.603 
		220.265,177.853 222.515,176.478 225.077,174.728 227.083,173.917 232.167,172.167 236.417,170.833 240.75,169.5 243.25,168.667 
		245.417,168 246.25,167.333 247.75,167.5 250.25,168.667 252.417,169.417 253.25,169.417 254.417,168.917 256.917,168.917 
		258.75,170.333 259.5,171.25 261.25,171.25 266,170.667 268.583,170.083 269.833,169.333 271.75,169.167 274.583,169 
		276.917,168.333 278.667,168 281.417,168.667 283.333,168.917 285,168.583 286.583,168.167 288,168.167 290.583,168.583 
		292.833,168.083 295,166.75 297.583,166.167 299.917,166.083 301.917,166.583 303.333,166.917 304.333,166.583 307.333,167.25 
		311.25,168.667 312.833,169.333 314.833,169.25 317,168.583 318.417,168 321.083,168.833 324.5,170.25 328.083,170.667 333.5,171 
		336.417,169.833 338.5,168.833 340.333,169.833 341.75,170.75 349.25,170.917 352.5,171.417 354.833,171.833 359.333,170.833 
		364.333,169.917 366.083,169.5 367.25,169.083 369.333,169.333 371.5,170.5 373.417,170.833 375.417,169.833 377.917,168.75 
		379.333,167.5 380.583,166.75 382.5,166.75 384.917,166.5 387.5,165.667 391.083,164.667 393.5,164.167 394.667,163.417 
		396.667,163 399.5,163.083 401.5,162.25 403.667,161.75 405.333,161.75 407.083,161.917 409.833,160.333 412.25,159.083 
		414.083,158.167 416.167,158.417 417.333,158.833 419.417,157.75 421.25,156.833 423.25,156.25 425.667,156.333 428.5,157.917 
		430.917,160 434.916,162.75 440.083,164.667 443.416,165.5 446.416,166.417 448.999,167 451.083,166.583 453.499,167.333 
		455.999,168.083 459.916,169.417 462.833,170.75 466.249,171.083 470.582,170.833 473.749,170.083 475.582,169.917 476.916,169.25 
		478.249,168.167 480.582,167.917 482.166,168.083 484.499,168.833 485.582,168.333 485.916,167.167 487.249,167.083 
		488.916,167.417 490.832,168.583 492.499,169.25 495.582,168.667 499.916,167.25 505.582,165.417 513.832,163.417 519.999,162.833 
		527.666,162.083 536.832,162.75 542.166,163.917 547.998,165.083 552.665,166.167 553.915,166.583 557.248,163.833 
		559.582,160.667 560.915,158.75 562.082,157.667 563.832,157.167 566.748,157.167 569.248,157.25 571.665,157.417 572.665,158.167 
		574.832,156.75 577.415,156.75 578.832,157.417 580.498,157.333 582.498,156.833 586.332,155.5 588.832,154.417 591.082,152.833 
		592.248,152.5 594.248,152.583 595.415,151.833 596.915,150.25 598.582,149.417 600.665,149.417 602.082,149.917 603.998,150.917 
		606.998,151.417 609.248,151.667 611.415,151.583 613.248,151.583 616.415,151.417 618.832,151.167 621.748,151 624.665,151 
		626.165,151.667 628.082,152.75 629.998,152.667 631.665,152.667 633.332,153.417 634.165,152.833 635.249,152.5 635.999,151.833 
		637.665,151.75 640.499,152.25 641.415,152.5 642.082,153.667 642.582,155 643.249,156.667 644.249,158.917 646.499,161.5 
		647.665,162.833 648.415,163.083 649.832,162.917 653.915,162.833 658.915,161.333 662.165,160.167 666.332,160 668.332,159.833 
		670.832,158.417 672.749,157.333 675.165,156.917 677.082,156.583 678.499,156.5 679.832,157.083 681.082,157.333 682.665,157.333 
		683.832,157.75 685.499,158 686.915,157.583 688.915,157.167 690.749,157.583 692.582,158.083 693.832,158.417 694.999,157.083 
		697.165,156.417 698.832,156.417 699.915,155.75 701.415,154.917 704.249,154.833 707.249,154.5 710.749,154.083 712.415,154.083 
		713.915,154.417 715.832,154.917 716.749,156 717.999,158 720.082,161.083 721.165,161.75 721.999,161.833 722.665,163.167 
		724.082,164.75 724.999,164.667 726.082,164 729.499,163.167 731.832,161 732.999,161.083 734.082,161 735.833,161.083 
		737.5,161.167 739.25,161.833 740.583,162.75 741.5,162.833 742.5,162.5 744.083,163.083 745.583,163.417 746.75,163.083 
		747.75,163.583 748.666,164.833 751.083,165.333 754.583,164.667 	"/>
	<polyline fill="none" stroke="#FF0000" stroke-width="0.25" stroke-miterlimit="10" points="786.811,179.014 788.833,179.333 
		791.833,179.333 794.166,179 796.25,178.833 798.916,178.833 800.5,179.333 802.417,180.5 804.583,181.083 807.167,181.083 
		810.25,180.667 813.917,179.083 817.667,177.167 819.75,176.167 821.417,176.333 823.417,177.75 825,178.417 826.417,178.583 
		828,180.5 829.25,181.583 831.667,179.25 833.583,178.083 835.75,177.667 838.583,177.667 840.667,177.167 842.083,176.5 
		844.417,176.417 846.583,177.583 848.917,179.25 849.667,180 851.751,177.583 854.335,176.167 857.585,174.417 860.168,172.833 
		862.335,171.417 863.751,171.333 865.751,172.333 868.501,173.667 869.668,174.083 870.668,174.583 872.918,173 874.751,172.167 
		877.001,172.083 878.585,171.333 879.751,170.667 881.251,170.583 882.585,171.5 884.668,172.25 886.418,172.75 888.001,173.417 
		890.585,174.583 892.751,175 894.168,173.833 895.418,173.25 896.335,174.417 897.751,174.833 899.418,174.917 901.085,174.417 
		901.668,173.667 903.335,173.667 905.585,174.167 907.085,175.167 908.002,176.417 909.002,177.833 909.669,179 910.919,178 
		912.085,177.5 914.085,177.583 914.919,178.083 915.169,178.75 917.252,178.667 918.252,178.917 918.669,180.583 919.585,181.583 
		920.419,181.917 920.835,183.417 921.585,184.417 921.919,185.167 924.835,184.333 926.835,182.917 929.279,181.5 	"/>
	<polyline fill="none" stroke="#FF0000" stroke-width="0.25" stroke-miterlimit="10" points="763.833,166.083 764.916,166 
		766.25,166.167 767.75,167.083 768.5,167.167 769.583,168.167 770.333,169.083 771.833,169.333 773.833,169.25 775,169.417 
		777.25,172.167 777.945,173.825 	"/>
</g>
<g id="terminus">
	<polyline fill="none" stroke="#FF0000" stroke-width="0.25" stroke-miterlimit="10" points="707.167,236.835 713.667,237.335 
		720.834,237.835 729.584,238.585 735.084,239.335 742.167,240.335 747.001,241.001 749.584,241.085 752.584,241.335 
		759.917,242.335 766.917,243.501 774.834,244.835 779.251,245.501 	"/>
</g>
<g id="moraines">
	<g id="moraine-01">
		<polyline fill="none" stroke="#FF0000" stroke-width="0.25" stroke-miterlimit="10" points="247.129,250.333 234.655,252.554 
			222.011,254.263 209.708,256.143 193.988,256.826 169.553,258.876 144.776,259.56 124.784,260.756 103.083,261.611 
			73.864,262.636 55.239,264.003 		"/>
	</g>
	<g id="moraine-02">
		<polyline fill="none" stroke="#FF0000" stroke-width="0.25" stroke-miterlimit="10" points="729.602,261.89 735.249,262.147 
			737.986,261.89 740.298,262.318 742.78,263.259 745.434,263.858 747.4,263.688 749.198,264.286 750.823,264.8 752.878,265.57 
			754.932,265.998 757.755,266.597 760.15,267.453 762.034,268.907 764.516,269.763 768.5,271.125 771.625,273 775.125,274.875 		
			"/>
	</g>
	<g id="moraine-03">
		<polyline fill="none" stroke="#FF0000" stroke-width="0.25" stroke-miterlimit="10" points="615.334,401 600,407.666 
			590.334,411.333 581.334,415.666 578.667,419.333 580.334,424 578.334,426 		"/>
		<polyline fill="none" stroke="#FF0000" stroke-width="0.25" stroke-miterlimit="10" points="565,428.333 561.334,431 561,433.666 
			562.667,442.333 570,456 587.334,467.333 612,476 646,481 688,479.333 744,479.666 781.334,479 826.334,479 861.667,479 		"/>
	</g>
	<g id="moraine-04">
		<polyline fill="none" stroke="#FF0000" stroke-width="0.25" stroke-miterlimit="10" points="593.027,271.657 600.479,274.535 
			611.061,277.752 619.271,280.546 627.484,282.832 635.441,285.372 644.246,287.403 655.76,291.636 665.157,294.345 
			675.739,298.494 680.059,301.71 682.768,304.081 684.629,307.044 686.236,310.346 688.607,311.954 694.703,313.985 
			700.884,318.644 703.254,320.759 705.286,323.808 705.796,324.907 712.738,326.093 720.357,327.955 727.215,329.396 
			733.902,329.987 738.625,329.875 741.875,331 		"/>
	</g>
</g>
<g id="gcp">
	<circle id="slant" fill="#FF0000" cx="556" cy="202.333" r="0.25"/>
	<circle id="beetle" fill="#FF0000" cx="567" cy="221.916" r="0.25"/>
</g>
</svg>
