<?xml version="1.0" encoding="utf-8"?>
<!-- Generator: Adobe Illustrator 16.0.4, SVG Export Plug-In . SVG Version: 6.00 Build 0)  -->
<!DOCTYPE svg PUBLIC "-//W3C//DTD SVG 1.1//EN" "http://www.w3.org/Graphics/SVG/1.1/DTD/svg11.dtd">
<svg version="1.1" id="svg" xmlns="http://www.w3.org/2000/svg" xmlns:xlink="http://www.w3.org/1999/xlink" x="0px" y="0px"
	 width="968px" height="648px" viewBox="0 0 968 648" enable-background="new 0 0 968 648" xml:space="preserve">
<g id="image">
	
		<image overflow="visible" enable-background="new    " width="3872" height="2592" xlink:href="AK10b_20130615_013704.JPG"  transform="matrix(0.25 0 0 0.25 0 9.765625e-04)">
	</image>
</g>
<g id="gcp">
	<circle id="doug-12" fill="#FF0000" cx="307.5" cy="233" r="0.25"/>
	<circle id="doug-13" fill="#FF0000" cx="10.75" cy="101.5" r="0.25"/>
	<circle id="doug-14" fill="#FF0000" cx="624.5" cy="159.5" r="0.25"/>
	<circle id="doug-15" fill="#FF0000" cx="667.25" cy="162.5" r="0.25"/>
	<circle id="doug-16" fill="#FF0000" cx="745.5" cy="164.25" r="0.25"/>
	<circle id="doug-17" fill="#FF0000" cx="441.75" cy="167.25" r="0.25"/>
	<circle id="doug-18" fill="#FF0000" cx="804.75" cy="265.5" r="0.25"/>
</g>
<g id="coast">
	<polyline fill="none" stroke="#FF0000" stroke-width="0.25" stroke-miterlimit="10" points="0,241 23.5,241 41.167,240.333 
		61.167,239.667 71.5,238.833 79.834,237.5 87.667,237.333 99.334,237.167 110.834,236.5 128.167,236 146.5,235.667 157.5,235.333 
		168.167,235.333 179,235.667 188.667,235.833 197.167,236.083 208.667,236.333 213.917,236.583 222.751,236.417 231.584,236.167 
		236.751,236.417 240.917,235.75 246.251,236 252.751,236.167 257.667,236.333 261.417,236.25 265.167,236.083 268.501,235.833 
		271.688,235.625 273.438,234.438 276.312,234.125 279.312,234.062 284.438,234.25 288.812,234.062 293,234.25 296.938,234.312 
		301.812,234.25 303.75,233.812 304.875,233.812 307.312,233.562 	"/>
	<polyline fill="none" stroke="#FF0000" stroke-width="0.25" stroke-miterlimit="10" points="251.333,207 258.75,207.25 266,207.75 
		271.375,207.875 277.542,208.083 279.249,208.292 281.666,208.834 	"/>
	<polyline fill="none" stroke="#FF0000" stroke-width="0.25" stroke-miterlimit="10" points="342.623,215.5 346.498,215.667 
		350.582,215.958 355.123,216.208 360.749,216.417 366.041,216.417 370.541,216.708 375.374,216.958 380.707,217.125 
		386.499,217.542 391.457,217.625 396.457,218 400.624,218.292 407.624,218.459 411.332,218.792 414.665,218.792 418.665,219.125 
		423.624,219.292 430.415,219.751 433.999,220.084 436.498,220.501 	"/>
	<polyline fill="none" stroke="#FF0000" stroke-width="0.25" stroke-miterlimit="10" points="416.54,227.96 417.248,228.335 
		418.957,228.543 421.957,228.96 425.54,229.751 429.29,230.543 434.082,231.126 438.707,231.751 444.457,232.085 449.623,232.21 
		457.79,232.502 464.248,232.793 470.915,233.168 475.04,233.46 479.081,233.668 484.623,233.918 491.039,234.211 495.248,234.419 
		499.667,234.667 505.167,235 510.834,235.375 515.75,235.75 523.75,236.042 528.458,236.417 533.833,236.583 539.75,237.042 
		544.583,237.583 551.792,238.334 556.625,238.875 562.625,239.5 567.959,240.5 572.709,241.417 577.709,242.333 584.125,243.083 
		590.459,243.875 596.5,244.458 602.127,245.042 606.752,245.209 611.96,245.5 616.002,245.667 620.669,245.875 628.168,246.168 
		632.501,246.376 638.126,246.793 642.959,247.085 648.001,247.376 652.792,247.46 658.876,247.876 668.169,248.334 
		674.335,248.668 679.46,249.001 685.96,249.293 691.251,249.751 693.543,249.835 696.543,249.918 700.959,249.96 704.044,250.126 
		708.794,250.335 713.919,250.376 720.5,250.438 723.666,250.167 727.583,250.833 733.166,250.917 738.583,251.25 747.25,251.25 
		754.25,251.75 760.001,252.25 768.917,252.833 776.667,253.25 	"/>
</g>
<g id="horizon">
	<polyline fill="none" stroke="#FF0000" stroke-width="0.25" stroke-miterlimit="10" points="0,108.323 1.975,106.561 
		2.856,105.724 4.75,103.742 5.896,103.037 6.601,103.037 7.614,103.345 8.143,103.037 9.685,101.979 10.566,101.187 
		11.806,101.104 13.843,102.442 16.87,104.479 19.664,106.4 20.886,108.729 22.109,111.581 23.564,113.909 25.368,115.539 
		28.337,117.401 30.607,119.089 31.829,120.894 32.178,121.825 34.099,123.28 36.311,125.434 37.941,128.286 38.814,129.916 
		41.2,131.895 42.772,133.699 44.402,135.562 46.613,137.599 48.709,140.043 49.989,140.8 50.455,141.615 51.153,142.488 
		54.354,144.699 57.439,146.736 61.688,148.541 68.964,150.287 73.271,151.8 76.007,153.546 80.43,155.816 82.059,156.224 
		84.329,155.642 85.842,154.652 87.705,154.652 90.848,155.06 96.261,156.224 100.801,157.795 104.759,158.959 107.96,160.007 
		110.871,161.055 112.617,162.103 114.48,164.023 116.226,166.759 117.332,168.04 118.613,169.844 120.534,171.124 123.328,173.161 
		125.598,174.675 127.053,175.955 129.789,175.431 131.709,174.849 133.979,174.617 135.667,173.976 136.832,173.743 
		137.821,173.743 139.509,174.093 141.313,174.849 143.467,175.488 145.329,175.488 147.367,175.372 148.065,175.663 
		148.705,176.303 150.684,176.594 153.944,177.118 155.981,177.642 158.426,177.991 159.764,178.399 160.987,178.399 
		162.384,178.632 163.373,179.039 164.945,179.854 165.76,180.32 167.506,180.727 169.31,180.902 170.533,180.902 172.221,180.611 
		173.618,180.552 174.723,180.611 175.888,181.309 177.875,181.875 179.625,182.375 	"/>
	<polyline fill="none" stroke="#FF0000" stroke-width="0.25" stroke-miterlimit="10" points="227.833,193.542 229.5,192.25 
		231.375,190.667 234.25,188.958 235.833,187.833 237.417,187 241.667,185.583 245.5,184.167 249.583,182.833 252.667,182.083 
		255,181.5 256.75,180.667 258.833,180.583 260.25,181.083 262.667,182.333 263.667,182.583 266,181.667 268.25,181.833 
		270.333,183.083 271.5,184.333 274.583,184.25 277.917,183.333 280.25,182.917 282.5,182.25 285.25,181.583 288.333,181.333 
		290.75,181.333 294.333,180.917 296.583,181.083 298.75,180.917 301.583,181.333 302.625,181.625 	"/>
	<polyline fill="none" stroke="#FF0000" stroke-width="0.25" stroke-miterlimit="10" points="305.188,181.125 306.938,179.438 
		308.312,178.875 310.25,178.812 311.312,178.688 312.875,178.688 314.188,178.875 	"/>
	<polyline fill="none" stroke="#FF0000" stroke-width="0.25" stroke-miterlimit="10" points="317,179.25 319.188,179.438 
		321.812,180.312 324,180.812 325.5,181.875 327.438,182.438 	"/>
	<polyline fill="none" stroke="#FF0000" stroke-width="0.25" stroke-miterlimit="10" points="348.292,183.417 350.542,182.958 
		351.417,182.167 352.458,181.75 354.208,181.75 355.333,182.458 356.458,182.875 358.25,183.083 360.042,183.583 361.833,183.75 
		364,184.167 366.5,184.125 369.417,184.042 372.083,184 375.208,183.584 377.667,183.292 	"/>
	<polyline fill="none" stroke="#FF0000" stroke-width="0.25" stroke-miterlimit="10" points="383.5,181.917 385.375,181.917 
		387.042,182.334 389,183.125 389.875,183.292 391.375,182.667 391.625,182.084 392.708,181.75 393.667,181.584 395.042,180.584 
		396.458,179.792 397.5,179.209 398.458,179.167 399.375,179.209 400.875,179.084 401.958,178.667 402.875,178.25 403.75,178.25 
		404.708,178.084 405.667,177.542 407.292,177.375 408.25,177.292 410,177.001 410.584,176.292 411.209,175.709 412.334,175.626 
		413.5,175.501 414.209,174.959 415.084,174.959 416.125,175.126 417,175.167 417.792,174.834 419.417,174.251 420.417,173.959 
		421.959,173.751 423.75,173.501 425.459,173.084 427.334,172.084 428.5,171.667 429.459,171.626 430.792,170.626 431.959,170.292 	
		"/>
	<polyline fill="none" stroke="#FF0000" stroke-width="0.25" stroke-miterlimit="10" points="435.625,170.626 437.625,168.96 
		439.875,168.086 442.292,167.877 444.292,167.919 446,168.627 447.125,169.502 449.292,171.294 450.25,172.419 451.833,173.211 
		453.583,174.294 455.792,175.711 457.208,176.503 459.375,177.086 	"/>
	<polyline fill="none" stroke="#FF0000" stroke-width="0.25" stroke-miterlimit="10" points="468.333,179.169 469.75,178.586 
		471.292,178.669 473,179.086 	"/>
	<polyline fill="none" stroke="#FF0000" stroke-width="0.25" stroke-miterlimit="10" points="491.916,183.586 492.957,182.545 
		495.457,181.878 496.707,181.586 497.999,180.586 500.166,179.92 502.249,180.003 503.957,180.295 505.207,180.628 
		506.124,180.628 506.832,179.67 507.957,179.17 	"/>
	<polyline fill="none" stroke="#FF0000" stroke-width="0.25" stroke-miterlimit="10" points="518.373,180.295 521.998,179.086 
		525.331,178.045 529.623,176.795 532.54,175.753 534.498,175.336 537.248,174.919 539.915,174.878 542.04,174.878 544.291,174.583 
			"/>
	<polyline fill="none" stroke="#FF0000" stroke-width="0.25" stroke-miterlimit="10" points="577.833,178.875 579.375,177 
		580.541,175.792 582.208,173.625 583.708,172.375 584.458,171.833 585.583,170.125 586.583,169.167 587.583,168.667 
		588.788,168.667 591.08,169.125 591.788,169.583 592.83,169.417 593.788,168.833 594.788,168.5 595.455,168.667 596.497,169.083 
		597.663,169.083 598.663,168.375 599.455,168 601.122,168 602.163,168.167 602.622,168.625 603.955,168.667 605.33,168.375 
		606.955,168.125 608.872,167.458 611.372,166.667 613.622,165.75 615.038,164.75 616.288,163.833 617.413,163.417 618.58,163.292 	
		"/>
	<polyline fill="none" stroke="#FF0000" stroke-width="0.25" stroke-miterlimit="10" points="620.913,163.042 621.997,161.5 
		623.247,160.583 624.83,160.208 626.33,160.125 627.705,160.292 628.455,160.958 629.33,161.667 630.955,162.042 632.83,162.292 
		636.579,162.542 640.329,162.458 644.538,162.042 647.704,161.792 649.829,161.583 651.704,161.667 653.204,162.375 
		654.871,163.125 655.621,163.458 656.829,163.458 657.996,163.542 659.079,163.917 660.621,163.792 661.788,163.5 662.871,162.958 
		663.996,162.625 665.329,162.625 666.704,162.958 668.163,163.083 669.121,163.458 669.788,164.708 670.037,165.583 
		671.037,167.542 671.621,168.958 672.537,170.708 673.329,171.917 	"/>
	<polyline fill="none" stroke="#FF0000" stroke-width="0.25" stroke-miterlimit="10" points="697.08,170.708 698.872,169.875 
		699.664,169.708 701.039,168.625 702.955,168.292 704.83,168.167 705.664,167.792 706.539,167.458 708.039,167.5 709.205,168.167 
		710.372,168.208 711.83,168.25 712.955,168.583 714.497,168.667 716.747,168.792 717.83,168.583 718.539,168.333 719.622,168.583 
		720.58,168.625 721.373,169 722.373,169.25 723.664,169.083 724.706,167.875 725.664,167.5 727.289,167.458 728.914,167.25 
		730.456,166.333 731.539,165.792 732.789,165.583 734.581,165.5 736.914,165.458 738.914,165.292 741.123,165 743.373,164.958 
		744.998,164.958 745.998,165.167 746.998,165.875 747.416,166.667 748.166,168.042 750.125,170.958 751.416,172.583 
		752.625,173.042 753.458,174.167 754.833,175.625 755.541,176.208 758.083,175.167 761.166,173.75 763.041,172.417 764.5,171.958 
		766.666,172.25 768.208,172.208 769.208,172.125 770,172.125 770.625,172.625 771.041,173 771.958,173.25 772.708,173.583 
		773.208,173.833 774.416,173.833 775.416,174 776.25,174.167 777.125,174.833 777.625,174.833 778.208,174.542 779.125,174.375 
		779.833,174.542 780.208,175.417 780.416,175.917 781.5,175.958 782.083,176.458 782.791,176.958 784.333,176.917 786.666,176.042 
		789.166,174.958 791.083,174.541 792.708,174.541 794.625,174.958 796.291,175.708 797.25,176.583 798.041,177.75 798.958,177.958 
		800.125,177.666 800.75,177.666 801.416,177.916 802.125,178.916 802.666,179.791 804.208,180.625 805.333,180.625 
		807.041,180.416 808.166,180.583 809.375,182.041 810.5,183.625 811.25,184.875 811.998,186.041 812.54,186.791 	"/>
	<polyline fill="none" stroke="#FF0000" stroke-width="0.25" stroke-miterlimit="10" points="844.998,192.582 847.248,191.999 
		849.665,190.416 852.04,188.957 853.915,187.957 855.248,187.332 856.29,187.582 858.166,189.124 859.291,189.749 860.541,189.749 
		861.791,190.207 863.041,191.207 864.499,192.374 865.416,193.082 867.124,191.165 868.791,189.999 870.083,189.124 
		871.666,189.124 873.791,189.249 875.833,188.832 877.249,188.207 879.541,187.665 881.041,187.79 882.166,187.999 
		883.541,188.915 884.999,190.124 886.083,190.915 886.917,190.29 888.792,188.665 891.334,187.165 893.459,186.165 
		896.376,184.998 899.042,183.207 901.251,182.707 902.501,182.915 903.501,183.79 904.084,184.582 904.751,184.957 
		905.501,184.707 906.376,185.248 906.751,185.707 908.334,185.373 909.501,184.998 910.667,184.123 911.834,183.29 912.876,183.29 
		914.667,182.998 916.167,182.207 917.417,181.332 918.334,181.373 919.543,181.915 920.584,182.415 921.793,183.457 
		923.084,183.957 924.084,183.957 925.084,184.415 926.418,185.082 928.543,185.665 930.584,185.957 931.793,185.582 
		932.334,184.915 933.126,184.457 933.793,184.665 934.876,185.374 935.709,185.832 937.168,185.832 938.626,185.749 
		939.709,185.29 940.751,184.457 942.334,184.457 943.834,185.04 945.043,185.749 946.418,186.707 947.668,187.665 948.251,188.707 
		948.751,189.665 949.251,189.79 950.251,189.29 950.834,188.749 951.793,188.624 953.043,188.79 953.959,189.082 954.251,189.415 
		955.001,189.707 956.459,189.707 957.293,190.04 958.043,190.957 958.418,191.874 958.959,192.582 959.793,193.082 
		960.084,193.832 960.168,194.499 960.585,195.082 961.002,195.54 961.418,196.207 964.085,195.624 966.127,194.582 
		967.918,192.707 	"/>
	<polyline fill="none" stroke="#FF0000" stroke-width="0.25" stroke-miterlimit="10" points="187.792,185.75 189.25,186 
		190.958,186.708 192.917,187.792 194.917,188.333 196.583,188.125 198.375,187.958 199.792,188.083 200.792,187.875 
		201.75,187.792 203.167,188.208 204.875,189.5 206.542,190.875 208.292,191.292 210.083,192 211.333,192.417 212.417,192.542 
		213.125,193.208 214.708,194.417 216.125,195.5 	"/>
</g>
</svg>
