<?xml version="1.0" encoding="utf-8"?>
<!-- Generator: Adobe Illustrator 16.0.4, SVG Export Plug-In . SVG Version: 6.00 Build 0)  -->
<!DOCTYPE svg PUBLIC "-//W3C//DTD SVG 1.1//EN" "http://www.w3.org/Graphics/SVG/1.1/DTD/svg11.dtd">
<svg version="1.1" id="svg" xmlns="http://www.w3.org/2000/svg" xmlns:xlink="http://www.w3.org/1999/xlink" x="0px" y="0px"
	 width="3888px" height="2592px" viewBox="0 0 3888 2592" enable-background="new 0 0 3888 2592" xml:space="preserve">
<image overflow="visible" width="3888" height="2592" id="image" xlink:href="AKJNC_20120605_223513.JPG" >
</image>
<g id="terminus">
	<polyline fill="none" stroke="#FF0000" stroke-width="0.25" stroke-miterlimit="10" points="3181,1274.5 3193.5,1272.5 
		3209.334,1270 3231.334,1265 3258,1260.667 3274.667,1258 3284.667,1256.667 3291.334,1254.333 3297.667,1252.667 
		3303.667,1252.667 3311.667,1253 3318.667,1252.667 3330,1252 3346.667,1248.667 	"/>
	<polyline fill="none" stroke="#FF0000" stroke-width="0.25" stroke-miterlimit="10" points="3122,1107.75 3143.25,1108 
		3166.75,1108.5 3188,1109 3198,1109 3206,1108 	"/>
	<polyline fill="none" stroke="#FF0000" stroke-width="0.25" stroke-miterlimit="10" points="3220,1100.25 3238.75,1100.25 
		3260,1100.25 3284.5,1100.25 3295.75,1098.25 3308.25,1098 3318.75,1098 3337.75,1098.75 3362.25,1099.75 3377.75,1100.5 
		3396.75,1100.5 3416,1100.5 3426.5,1100.25 3435.5,1100.25 3451.5,1101.5 3470.5,1103.75 3489.25,1105 3507.25,1106.25 
		3523.75,1106.5 3537.25,1106.5 3555,1108 3571.5,1109 3589.75,1109.75 3614.25,1111 3631.5,1111.75 3646.5,1111.75 3665.5,1113.5 
		3691.5,1114.75 3708.5,1115.5 3722.25,1117 3746.75,1120.25 3776.25,1121.75 3795.25,1123 3818,1125.5 3828.5,1125 3841,1125 
		3862.75,1125.75 3880.5,1126.75 3888,1126.75 	"/>
</g>
<g id="horizon">
	<polyline fill="none" stroke="#FF0000" stroke-width="0.25" stroke-miterlimit="10" points="-0.25,503.25 6,509 14.5,511.75 
		20.75,511.5 25.5,511.75 30,511.75 33,512.25 35.75,514.75 38.5,516.25 43.25,516.25 50.5,515.75 57,515.75 60.25,516.25 
		65.5,515.5 71.75,515.25 74.5,514.25 80.5,512.25 84.5,512.25 91.75,513.5 99,515.75 105.75,515.5 111.5,513.75 115,514.25 
		118.75,513.75 121.25,512.25 125.25,512.25 131,513.75 133.25,514.5 141,516.5 147.5,519.75 148.75,520.25 155.75,523.5 
		159.75,526.75 162.75,529.5 165.25,531.75 169.5,532.25 174.75,531.25 179.5,529.75 180,525.25 186,521.75 192.25,520.25 
		201.25,520.5 205.5,522.5 210.75,525.5 216,530.75 219.5,534.5 225.5,539.75 228,541.75 231,541.5 233.75,539 238.5,536.25 
		242,533.75 243.5,530.75 247.25,528.25 252,525.25 256,524.75 259.75,525.25 264.75,528 268.25,531.25 273.5,535 275,537 
		277.75,538.5 	"/>
	<path fill="none" stroke="#FF0000" stroke-width="0.25" stroke-miterlimit="10" d="M298.75,537l5.5-7.75l3.75-7l2.5-4.25l4.75-3.25
		l5-3.25l4-1.5l5.5-0.75c0,0,4.25,1.5,5,2s3,2.25,3,2.25l3.75,1.5l9-2.75l10-2.25l7.5-6.25l11-6.75l8.5-6.25l4.75-3.75l2.5-2
		l4.75-0.25l2.5,1l4.75-0.25l3.5-0.5h2l5.75,2.75l3.5,0.5L425,486l3.75,0.25l5.25,3l9.25,6.25l12,6.75l6.25,3.75l3.25,3l4.5,3.25
		l3-3l3-2.75l4-2l4.5-1.75l8.75-0.25l7,3.5l6.25,4.25l14,10L530.5,526l4,4l3.5,4l4.25,3.25c0,0,3.5,3,4.25,3.75s2.75,3,2.75,3
		l4.75,2.5l8.75,2.5l6,1.75l4.25,2.5l4.5,2l4.5,1.25l2.25-1L586,552l2.25-1.25h4.25l6.5-0.25c0,0,1.75-2.25,2.5-2.25
		s2.75-3.75,2.75-3.75l3.25-2.5l2.5-1.25l3.25-0.75l2.5-3l6-2l5-0.75h3.5l3-2.25l5-1.5l3.25-3l2-3.25l3-4.5l5-1h6.5l6.5,1.75
		l5.75,1.75l5-0.25l5.75-1.25h4.5l6.5,2l8.5,5.75l8.25,6.5l6.25,3.5l1.75,1.25l3.75-2l1-2.5l3.75-4.25l2.5-2.5l1.25-3.75l1.25-2.25
		l4.25-1.75l6,0.25l8.25,2l6.75,1h3.5l1.5-2.5l3.25-2l5.25-0.75l7.25-0.25l7,3l10,6l5.75,5.25l8.75,8l6.5-1.75l10.5-1l5.5-1l4-3
		l5-4.5l4.25-7.5l1.75-4l3.25-2.75l5-1l2.75-3.25l1.5-6l4.5-3.5l4.5-0.75L872,498l3-1.5l4,0.25l3,1l4.25-1.75l2-1.25h7.5l6,0.5
		l3.75-2.75l4-2.75l3.75-1.25H919l5.75,0.75l3.75,1.5l3.25-1l4.25-1l4.5,0.75l6.25,3l6.5,2l3.5,2.25l6.5,2.25l6.75,2.25l2.5,0.75
		l4.75,2.5l3,1.75l4.75,3.5l5.25,4l9.25,2.75l6.75-0.25l11.75-2.75l7.5-1.75l4-2.25l1.75-1.75l2.5-3l5.5-0.75l6.25,0.75l4.25,2.25
		l2.5,2.5h3.5l3-1l6.5,1.25l2.25,1.75l4.75,4.5l5,1.75h4.25h3.25l4,1.5l2.5,1.75l4.5,1.25l3.5,0.5L1103,522l4.5,0.25l2.5,1l1.75-1
		l2.25-1.5l2.25-2l2.5-0.5h3.25l4.25,3l2.25,2l3.5,2.25l5.75,2.5l3.25-2l2.75-3.5l4.75-7l0.75-2.75l2.25-2.25l7.5-1l6-3.5l8-6.5
		l4.5-4.25l4.75-1.5L1189,494l4,3.5l7.5,6.75l13,10l2.75,0.75l3-1.75h4.75l5.5,1.75l7.75,2.5l4.75-1.5l6.75-1.5l6.5-3.75l2.5-4.75
		l5-1l6.25,0.5l7,2h3.75l2-1.25h4.25l2.25-0.25l7.75-1.5l3.25,0.5l5,0.5l5,1l5,1.25l4.5-0.5l3-4l1-1.75l4-0.25l4,1.5l1.75,2
		c0,0,4.25,1.75,5,2s6-0.25,6-0.25l7,2l7.75,3.5l1.75,0.5l5.5-1l4-2.75l3-2.25c0,0,4.75-0.5,5.5,0s7.5,2.25,7.5,2.25
		s6,1.75,6.75,2.25s5.75,2.25,5.75,2.25l4.75,0.75h3.25l4.25-0.75l2.75-2.75l4.25-3l5-0.75l5.75,2l8.5,2.25l7.25,2.5l4.75,1.25
		l4.75,0.5l7.75-2.75l4.5-4.25l5.25-3l3.25-2l4.75-0.75h3.75l5-3.5l6-4.75l3.25-3.75l2.75-3.25l5-3.75l5.75-3.5l4.75-3l2.25-2.5
		l3-3.25l2.75-0.75l3.75,0.75l5.25,5.5l9.25,7l7.25,5l3.5,3.25l3.25,4.25l3,2.25l3,2l3.5,0.75l5.75-2.75l5.75-3.5l3.5-3l4.5-1.5
		l3.75-1.25c0,0,2.75,1.5,4,1.75s5.5,1.5,5.5,1.5l5.5,2l3.75,0.75l4.5-1.75l2.75-2l4.5-0.25l2.25,1.5l1.75,2.25l4.5,1.75l5-0.5
		l2-1.5l2-0.5l5.25,1.5l4.25,2.75l3.25-0.75l2.25-2.25l6-0.5l8.75,0.25l3.25,0.5l5,1.25l3.5,0.25l6-2.75l3.75-1l9-0.25l5.75-3.75
		l6.5-2.75l3-2.25l3-3.5l5.5-1l5.5,1l1.75,0.75l3-0.5l5-7.75l3.5-3.75l4.5-1.5l6.25,0.5l2.25,1.25c0,0,3.25-1,4-1s6.25-0.5,6.25-0.5
		l3.25,2.5l3.25,2.75l7.25,6.5l7.5,3l3.25,1.25l5,0.25l4,1.75l2.25,4l2,2.75l10,2.25l6.75-2l2.5-3.75l5.25-2l6.75,1l7,1.75
		c0,0,2.5,0,3.25,1s4.25,4,4.25,4l3.25,3l6.25,2.5l6.25,1.75l3.25,0.5l7,0.25l5.5-1.5l4-2.25l5.5,0.25l5.5,3l4.25,4l6,3l6.5,2
		l7,1.25H1927l7.75,0.75l4.25,1.5l9,5.75l9.5,5.5l7.75,2.5l6.75,1.25l5.5,2.25l4,3.75l7,3.25l16,3.25l6.75,3.5l20.5,4.5l10.5,0.5
		l15.5,1.75l10.25,1h14.5L2095,553l7.75-2l4-2.25l7-0.25h7.5l2.5,0.5l5.25,3l3.5,2l9,0.75l8.5-1l5.75-2.5L2160,550l4-0.25l3.5,2.25
		l5,3.25l4.75,3.25l6.5,4.5l11.5,8.5l11,8.25l3.25,2.5l6.75,2.5l8.75,0.75l8.5,2l11.5,3.75l5.25,3l5.25,3l5,0.5l10.25,4.5l6,3.75
		l6.75,5.5l3.25,3l8.75,5.25l8.5,4.25l8,3l10.75,6.75l7,5.5l3.75,3.75l2.75,4c0,0,2,1.75,3,2.5s7.25,4.25,7.25,4.25l3,2.5l3,0.25
		l0.855,5.491l1.561,6.556l5.932,7.805l5.932,3.746l13.425-0.624l19.98-0.937l31.22-2.498l32.469-2.498l18.107-1.561l17.483-0.937
		l9.99-0.624h5.932l4.984-0.742l2.88-0.928l25.5-2.5l27-2.25l21.5,0.25l26.25-2.5l17.25-2.25l5.75-2l7.25-4.5l4.25-3.5l6-2
		l13.25-4.25l15.5-2.25l17.5-4.5l26.5-7.5l21.75-4.5l15.75-1L2790,620l20.5-5.5l22.75-4.5l23.5-4.5l16-4.25l10.25-6.5l3.75-3.75
		l3-4.5l4-4l3.5-0.25l11,2.75l5.5,4.75l5.25,1l6.25-1.25l5.25-2l4.25-3.5l3.5-3.75l4.5-0.75h5.5l6.5,2l4.75,0.5l5.5,0.25l2,1.5
		l6.75,0.75l12.5-3.5l8.25-4l6.75-2.75l7.5-2L3011,572l7,0.5l1,0.5l2.5,1l5.75-0.75l7.25-3l10.75-5.75l9-4l5-2.25L3062,557
		c0,0,3.5,0.5,4.25,0.75s3.5,2.5,3.5,2.5l5.5,4.25l5.25,2h6l3.5-1.5l7.25-1l2,0.5l4.5,2l2.25,1.25l3-1.25l4.75-0.75l2.5,0.25
		l2.75,1.75l2.75,2l3.5,0.25l4-0.25l3.25,1.5c0,0,1.75,2,2.5,2.5s4.75,2.25,4.75,2.25l7.25-1.5l4.5-1.75l7.5,1.25
		c0,0,1.25,2.25,1.5,3s1.25,3.25,1.25,3.25l2,1.75l4.75-2l8-0.5l5-2.5l4.5-4l4-1.5l7-1.5l5.5-0.5l2.5-2.25h4l2,1.5l1,3.5l2.5,2
		l3.75,0.75l3.75,1.75l3.25,0.75l4.5-0.5l4.25-0.5l4-0.25l5-2.75l6-1.5h4h5.25l2.25-0.75l3.5-1l1.75-1.25l5.25-2.5l6.25-0.75
		l4.75,0.75l4,2l4.75,0.5l8.5-1.75l9-0.25l4.5-2h3.75l3.75,1.75l2.5-0.25l2.75-2l4-2.25h3l3,1.75v3.75l1,3.5l2.5,2.75l3.25-1h3
		c0,0,2,1.25,2.75,1.5s3.5,0.75,3.5,0.75l4.25-1.75l5.5-4.5l1.75-3.5l2-2.75l2-1l5.5,1.5l6.75,4.5l9.5,4.5l6.5,2h4.75l5.75,3.25
		l3,2.75l6.5,3.5l3.75,4l3.75,2.75l2.5-1.25h3.25c0,0,1.25,1.5,2,2s3.75,3.25,3.75,3.25l1.75,1.5l5.25-0.75L3461,587l20.5-5.25
		l18.75-4.5l10.5-1.75l8.75-2.5l4.5-1.75l4.75-0.75l7-4l3.75-1.75l5-0.25l3.75,2l5.25,2.5l13,2l9.5,0.75l7.75,0.5L3591,572l9-4.25
		l7-2.25h10.25l7.25,2.25l4.25,0.25h6.5l8.75-2l4-2l6-0.75l3.75,0.5l4.75,2.75l6,5l10,7.75l5,2.75l13,2.5l19.25,1.5l5.25-2
		l5.75-0.25l4.25,2l5.25,1h5.5l8.75-1.25l3.5-1.75l3.75-2l10.5-0.75h6.25l5,1.75l9.75,4l3.75,3.5l6.25,5.25l2.75,4.25l2.5,1.25
		l3.75,1l6.75-3.25l4-2.75l5.5,1l6.75,2.25L3836,601l6.25,1.25c0,0,3.75,2.5,4.5,3s6.5,1.75,7.5,2.25s19.75,4.75,19.75,4.75
		l8.5,2.25l5,1.75"/>
</g>
<g id="gcp">
	<circle id="T20120605-01" fill="#FF0000" cx="1770" cy="763.333" r="0.25"/>
	<circle id="T20120605-02" fill="#FF0000" cx="1415.667" cy="759" r="0.25"/>
	<circle id="T20120605-03" fill="#FF0000" cx="1449.125" cy="672.844" r="0.25"/>
	<circle id="T20120605-04" fill="#FF0000" cx="1209" cy="627" r="0.25"/>
	<circle id="T20120605-05" fill="#FF0000" cx="1404.25" cy="566.75" r="0.25"/>
	<circle id="T20120605-06" fill="#FF0000" cx="871.917" cy="662.833" r="0.25"/>
	<circle id="T20120605-07" fill="#FF0000" cx="729" cy="721.25" r="0.25"/>
	<circle id="T20120605-08" fill="#FF0000" cx="424.75" cy="692.5" r="0.25"/>
	<circle id="T20120605-09" fill="#FF0000" cx="9.062" cy="671.688" r="0.25"/>
	<circle id="T20120605-10" fill="#FF0000" cx="3247" cy="716.333" r="0.25"/>
</g>
<g id="moraines">
	<g id="moraine-01">
		<polyline fill="none" stroke="#FF0000" stroke-width="0.25" stroke-miterlimit="10" points="2583.559,1533.578 2405.068,1539.578 
			2306.073,1539.578 2207.078,1536.578 2054.086,1532.078 1910.093,1523.079 1713.603,1506.58 1566.61,1491.581 1457.115,1493.081 
			1310.123,1490.081 1095.633,1464.582 971.139,1445.083 843.646,1425.584 702.652,1407.585 542.161,1388.086 347.17,1371.587 
			164.18,1353.588 		"/>
	</g>
</g>
</svg>
