<?xml version="1.0" encoding="utf-8"?>
<!-- Generator: Adobe Illustrator 16.0.4, SVG Export Plug-In . SVG Version: 6.00 Build 0)  -->
<!DOCTYPE svg PUBLIC "-//W3C//DTD SVG 1.1//EN" "http://www.w3.org/Graphics/SVG/1.1/DTD/svg11.dtd">
<svg version="1.1" id="svg" xmlns="http://www.w3.org/2000/svg" xmlns:xlink="http://www.w3.org/1999/xlink" x="0px" y="0px"
	 width="929.281px" height="622.08px" viewBox="0 0 929.281 622.08" enable-background="new 0 0 929.281 622.08"
	 xml:space="preserve">
<image overflow="visible" enable-background="new    " width="3872" height="2592" id="image" xlink:href="AKST03A_20100807_184800.JPG"  transform="matrix(0.24 0 0 0.24 4.882812e-04 0)">
</image>
<g id="terminus">
	<polyline fill="none" stroke="#FF0000" stroke-width="0.25" stroke-miterlimit="10" points="0.25,311.25 14.25,309.75 23.75,309.5 
		30.25,309.25 43.5,307.833 51.834,307 59.667,305.333 71.5,303.5 78.667,302.167 81.834,301.833 87.834,301.333 96.834,300.333 
		103,299.167 111.5,298.167 117.5,296.5 120.667,295.5 129,294.333 135.167,293 143.667,292.333 149.333,291.833 156.167,291.167 
		171,290 180.833,289.333 186.833,288.667 193,288.333 197.167,288.333 202.333,287.667 208.667,287 214.333,286.167 
		221.667,285.333 227.167,284.5 232.167,284.167 238.5,283.5 245,282.5 250.5,281.333 256.833,280.5 262.667,279.833 
		271.333,279.333 279.333,278.833 289.667,278 295.667,277.667 302.333,276.667 313.333,276.167 320.833,276.167 329.75,275.75 
		346.625,275.25 366.875,274.75 391.5,274.125 402.5,274 415.625,273.875 425.625,273.625 441.25,273.25 453.375,272.875 
		465.625,272.875 478.25,272.375 490,272 504.5,271.625 527,271.5 539.5,271.375 554.375,271 568.25,270.5 587.375,269.875 
		612.5,269.625 623.75,269.375 639,269.75 653.5,270.125 659,270.25 669.875,270.5 676.25,270.5 689.25,270.75 708.25,270.625 
		724.5,270.5 746.125,270.625 755.125,270.75 764.75,270.875 776,271.125 790.625,271.5 805,271.5 	"/>
</g>
<g id="horizon">
	<polyline fill="none" stroke="#FF0000" stroke-width="0.25" stroke-miterlimit="10" points="189.108,52.71 191.144,54.866 
		192.461,56.183 193.778,56.063 194.855,56.901 196.771,57.859 198.208,58.099 199.646,57.141 201.681,54.387 204.555,50.195 
		206.112,47.801 206.667,47.167 207.334,45.5 	"/>
	<polyline fill="none" stroke="#FF0000" stroke-width="0.25" stroke-miterlimit="10" points="244,35.5 244.75,36.167 
		245.584,35.667 246.25,35.584 247.084,35.917 247.917,36.917 249.167,37.584 250,38 251.834,38.334 254.417,38.417 255.834,38.417 
		257.084,38.75 258.084,38.75 260.834,37.75 262.75,37.334 264.25,37.167 266.834,36.417 268.75,35.5 270,35 270.667,34.667 
		271,34.25 272,34.25 272.75,34.584 273.917,35.5 274.5,35.917 275.75,36.334 277,36.75 277.75,37.417 278.5,37.917 279.584,37.667 
		280.584,37.417 281.667,37.5 282.5,38.084 283.167,39 283.25,39.5 284.834,40 285.833,40.834 286.833,41.75 287.167,43.084 
		287.5,43.667 288.333,43 288.917,42.5 289.417,42.334 290.5,42.25 291.583,42.5 292.5,42.667 294.25,42.334 	"/>
	<polyline fill="none" stroke="#FF0000" stroke-width="0.25" stroke-miterlimit="10" points="302.125,41.812 303.562,41.312 
		304.625,41.188 305.25,41.562 305.938,42.125 308,44.25 	"/>
	<polyline fill="none" stroke="#FF0000" stroke-width="0.25" stroke-miterlimit="10" points="312.688,50.062 314.875,51 
		316.562,51.938 317.812,53.125 318.875,53.688 320.312,54.5 321.125,55.188 321.938,55.812 323.062,56.5 323.812,57.125 
		324,57.625 325.312,57.688 326.188,57.938 326.812,58.5 327.25,58.75 328.25,59.125 328.812,59.562 329.438,59.875 330.062,60.125 
		330.75,60.5 331.812,61.438 332.188,62.312 332.938,63.5 334.312,65.188 335.125,65.812 336.562,67.25 337,67.688 337.75,67.938 
		338.375,68.875 338.812,69.688 338.938,70.312 	"/>
	<polyline fill="none" stroke="#FF0000" stroke-width="0.25" stroke-miterlimit="10" points="465.613,86.616 467.908,85.469 
		471.347,84.114 473.433,83.384 475.31,83.175 476.457,83.175 478.125,82.446 480.001,81.716 481.253,80.882 484.068,80.464 
		486.361,80.464 488.238,80.36 489.49,79.943 490.324,79.318 491.367,79.005 493.138,78.796 494.181,78.275 495.224,77.128 
		495.642,76.502 496.892,76.19 498.56,75.877 500.228,75.877 502.73,75.043 503.669,74.417 504.921,73.896 507.423,73.688 
		509.404,73.375 511.281,74.104 512.324,75.043 513.158,75.877 513.783,75.981 515.035,76.815 517.849,76.711 518.996,76.815 
		520.351,76.919 521.394,76.919 523.166,76.815 524.626,76.294 525.982,76.19 528.275,76.19 529.943,76.085 531.507,76.085 
		532.341,76.398 533.488,76.398 534.634,75.877 535.261,75.877 536.511,76.294 538.076,76.607 539.431,76.607 540.578,76.502 
		541.933,75.981 542.56,75.668 	"/>
	<path fill="none" stroke="#FF0000" stroke-width="0.25" stroke-miterlimit="10" d="M648.057,77.499l0.542,0.375l0.958,0.333
		l1.5,0.625l1.042,0.5l0.625,0.208l0.625,0.625l0.625,0.667l0.625,0.375l0.989,0.429l0.093,0.076l2.814,1.668l2.396,1.564
		l2.502,0.73h1.668h1.148l0.834,0.521l3.648,1.042l1.98,0.208l2.502,0.625l1.668-0.521l2.086-1.146l3.921-1.237h1.124l2.072-1.043
		l3.012,0.085l1.374,0.208l3.083-1.292l0.833-0.167l0.875,0.667l7.37-0.349l1.13,0.224l3.25-0.417l1.334-0.542l1.708,0.083
		l1.375,0.958l0.917,0.25l1.5-0.75l3.958,0.167l2.458-0.042l1.521-1.641l1.359-1.023l1.572-0.928l1.635-0.125l1.292,0.134
		l1.275,0.049l1.151,0.262l1.594,0.971l1.376,1.268l1.895,1.607l1.918,1.083l0.874,0.456l0.794,0.722l1.472-2.357l2.152-2.393
		l4.275-5.109l4.689-5.109l2.295-1.981l2.502-2.188l5.151-2.698l1.875-1.042h0.917l1.232,0.298l1.771,0.313l0.996,0.348l0.917,0.542
		l3.25,3.25l4,4.292l1.993,1.579L780.07,74h1.043l0.834-0.104l1.355-0.104l1.25,0.104l1.355,1.042l1.043,1.772l1.252,2.085
		l0.938,2.294l0.417,1.66h0.458l1.667-0.542l1.333,0.083l1.542,0.583l1.125,0.5l0.879,1.342l0.371,1.075l0.375,0.875l1.25,0.75
		l0.833-0.958l0.583-0.917l2-0.542l3-1.083"/>
	<polyline fill="none" stroke="#FF0000" stroke-width="0.25" stroke-miterlimit="10" points="847.945,87.346 850.968,87.346 
		854.097,88.18 855.765,89.223 856.599,89.535 858.371,90.787 858.892,91.308 860.978,91.621 863.271,92.142 864.835,92.142 
		865.566,92.872 866.816,93.706 868.171,93.706 869.318,93.81 870.57,94.123 872.238,94.853 873.593,95.062 875.158,95.479 
		875.888,95.687 877.451,96 880.996,95.479 885.478,95.479 887.564,95.896 889.962,96 891.005,96 893.82,96.938 897.992,98.502 
		904.976,102.36 910.501,105.383 916.863,107.781 919.679,107.886 921.763,107.99 923.64,108.615 926.039,109.241 929.281,110.909 	
		"/>
	<polyline fill="none" stroke="#FF0000" stroke-width="0.25" stroke-miterlimit="10" points="625.203,65.384 626.265,66.134 
		626.921,66.634 627.515,66.946 628.265,67.071 628.921,67.134 629.796,67.103 630.796,67.165 631.796,67.446 632.609,67.821 	"/>
</g>
<g id="gcp">
	<circle id="alcove" fill="#FF0000" cx="21.333" cy="181.333" r="0.25"/>
	<circle id="butt" fill="#FF0000" cx="199" cy="192.083" r="0.25"/>
	<circle id="portaledge" fill="#FF0000" cx="321.333" cy="167.417" r="0.25"/>
	<circle id="jawlip2" fill="#FF0000" cx="380.458" cy="172.583" r="0.25"/>
	<circle id="ledgedot" fill="#FF0000" cx="445.833" cy="141.75" r="0.25"/>
	<circle id="kissers" fill="#FF0000" cx="676.75" cy="174.5" r="0.25"/>
	<circle id="brokens" fill="#FF0000" cx="797.937" cy="158.312" r="0.25"/>
	<circle id="rustcut" fill="#FF0000" cx="808.562" cy="159.812" r="0.25"/>
</g>
</svg>
