<?xml version="1.0" encoding="utf-8"?>
<!-- Generator: Adobe Illustrator 16.0.4, SVG Export Plug-In . SVG Version: 6.00 Build 0)  -->
<!DOCTYPE svg PUBLIC "-//W3C//DTD SVG 1.1//EN" "http://www.w3.org/Graphics/SVG/1.1/DTD/svg11.dtd">
<svg version="1.1" id="svg" xmlns="http://www.w3.org/2000/svg" xmlns:xlink="http://www.w3.org/1999/xlink" x="0px" y="0px"
	 width="929.28px" height="622.08px" viewBox="0 0 929.28 622.08" enable-background="new 0 0 929.28 622.08" xml:space="preserve">
<image overflow="visible" width="3872" height="2592" id="image" xlink:href="AKST03A_20100525_224800.JPG"  transform="matrix(0.24 0 0 0.24 0 0)">
</image>
<g id="terminus">
	<polyline fill="none" stroke="#FF0000" stroke-width="0.25" stroke-miterlimit="10" points="0.167,311.5 12,310.5 23.125,309.125
		30.75,308.25 	"/>
	<polyline fill="none" stroke="#FF0000" stroke-width="0.25" stroke-miterlimit="10" points="34.5,308.875 41,308.25 49.5,307.625
		57.875,306.75 69,305.5 74.625,304.625 80.25,304 	"/>

		<line fill="none" stroke="#FF0000" stroke-width="0.25" stroke-miterlimit="10" x1="318.25" y1="291.084" x2="324.5" y2="290.751"/>

		<line fill="none" stroke="#FF0000" stroke-width="0.25" stroke-miterlimit="10" x1="351.083" y1="289.584" x2="358.25" y2="288.667"/>

		<line fill="none" stroke="#FF0000" stroke-width="0.25" stroke-miterlimit="10" x1="368.583" y1="287.084" x2="371.917" y2="286.667"/>
</g>
<g id="horizon">
	<path fill="none" stroke="#FF0000" stroke-width="0.25" stroke-miterlimit="10" d="M0.051,22.014l2.089,0.917l2.497,0.713
		l1.375,0.153l1.478,0.713l1.478,0.561l1.325,0.204l0.561,0.153l1.172,0.356l0.917,0.153l0.866,0.255l0.459,0.102l0.764,0.102
		l1.223,0.255l1.987,0.254l3.465,0.204l1.478,0.051l1.325,0.357l1.172,0.102l1.427,0.102l1.834,0.153l2.293,0.51l0.866,0.102
		l2.242,0.764l0.714,0.408l1.783-0.051l1.325-0.102l0.663-0.051l1.172,0.254l0.255,0.102l0.968,0.102l0.815-0.255l1.783-0.306
		l1.07-0.255h0.968l1.07,0.051h0.561l1.325,0.102l0.713-0.458l0.815-0.255l0.611,0.102l0.713,0.509l1.07,0.357l0.458,0.102h0.561
		l1.07-0.713l1.937-0.306l0.917-0.051l0.917-0.306l1.325-0.968l0.662-0.713l0.968-0.357l1.223-0.153h1.172l0.917-0.306l1.07,0.153
		l0.356,0.408l0.306,0.408c0,0,0.765,0.306,0.917,0.306s0.663,0,0.663,0l2.599-1.07l1.172-0.611l1.937-0.815l1.529-0.356
		l0.764-0.204l0.866-0.306h1.172l0.815,0.051l1.427,0.357l0.255,0.204l0.968,0.408l1.121,0.561l0.917,0.51L85,26.294l1.02,0.357
		l2.548,0.764l0.866,0.815l1.682,1.631l0.866,0.662l0.867,0.612l0.611,0.764l0.764,0.917l1.529,2.191l1.682,2.191l2.243,1.784
		l1.375,1.07l0.968,0.356l0.663,0.713l0.866,1.223l1.325,1.223l1.885,0.866l1.682,0.561l3.007,1.172l1.937,0.917l2.65,1.07
		l1.427,0.306l1.732,0.408l2.089,0.663l1.325,0.356l1.223,0.917l2.14,0.866l1.019,0.255l0.917,0.408l1.427,1.07l0.713,0.612
		l0.968,0.356l2.905,1.325l2.497,1.274l1.274,0.51l1.478,0.815l2.599,1.58l0.968,0.611l1.58,0.867l1.325,0.815
		c0,0,0.713,0.357,0.866,0.459s0.968,0.561,0.968,0.561h2.242l1.172-0.357l3.007-1.325l1.937-0.612l1.172-0.611l0.968-0.815
		l1.427-0.611l1.631-0.561l1.427-0.051c0,0,1.07-0.408,1.223-0.458s1.631-1.07,1.631-1.07l1.682-1.172l3.159-1.325l1.682-0.458
		l0.815-0.204l1.07-0.153l-0.255-0.815l0.408-0.561l0.611-0.51l1.834-0.713l1.937-0.968l1.274-0.611l1.07-0.459l1.121-0.204
		l1.376-0.255l0.866-0.408h0.917l0.408,0.458l1.121,0.968l1.732,1.274l0.917,1.274l1.121,1.325l1.784,1.172l1.376,1.07l2.548,1.58
		l0.917,0.357l1.325,0.357l0.968-0.408l0.765-0.765l0.458-1.325l0.458-0.51l1.121-1.631l0.917-1.63l1.682-2.854l0.561-0.764
		l1.019-0.765l0.867-1.478c0,0,0.306-1.529,0.458-1.733s0.408-1.019,0.408-1.019l1.274-1.682l0.917-1.07l1.682-1.427l4.332-3.108
		l2.803-2.141l1.478-1.07l1.529-1.427l1.427-0.815l0.714-0.204l0.611,0.102l0.866,0.356l1.172,1.172l0.407,0.764l0.561,0.408
		l0.764,0.306c0,0,0.509,0.204,0.713,0.255s0.968-0.051,1.121,0s1.274-0.051,1.427-0.051s2.955,0.204,2.955,0.204l1.733,0.357
		l1.784,0.458l0.662-0.204l0.561-0.204c0,0,0.509-0.051,0.968,0s1.733,0.204,1.733,0.204l1.63,0.458l1.274,0.458l1.529,0.459
		l0.611,0.356l1.376,0.51l1.172,0.408l1.631,0.255l0.866-0.051l1.274-0.102l1.427,0.051l0.917,0.255l0.611,0.153l1.121-0.102
		l1.172-0.764l1.223-0.408h0.662h1.07l1.58-0.051h1.172c0,0,0.866-0.255,1.121-0.561s2.496-1.172,2.496-1.172l1.02-0.612
		l1.019-0.713l0.968-0.102c0,0,0.663,0.255,0.866,0.458s1.019,0.713,1.019,0.713l1.274,0.561l1.07,0.306l1.07,0.408l0.713,0.408
		l0.408,0.408l1.223,0.408c0,0,0.663,0,0.866,0s0.356,0,0.509-0.051s0.867-0.051,0.867-0.051l0.815,0.306l0.867,0.561l0.662,0.612
		l1.732,1.732l0.408,0.561l0.765,0.765l0.408,0.509l0.713,0.663l0.866-0.102l0.561-0.356l1.172-0.153h1.529h1.478l0.764-0.255
		c0,0,0.357-0.255,0.51-0.357s1.987-1.223,1.987-1.223l0.713-0.204l0.612-0.255l0.713,0.204l0.561,0.458l0.866,0.408l0.713,0.357
		l1.121,0.356l0.459-0.153l0.713-0.561l0.866-0.408l0.764,0.102l0.561,0.356l0.663,0.612l0.713,0.764l1.121,1.682l1.529,1.376
		l1.172,1.478l1.172,1.427l0.815,0.764l0.51,0.765l1.427,0.764l2.038,0.968l0.917,0.765l0.917,0.663l1.121,0.866l1.936,1.223
		l1.223,0.714l1.478,1.121l1.07,0.458l0.917,0.153l0.663,0.357c0,0,0.612,0.408,0.815,0.561s0.662,0.458,0.815,0.509
		s1.784,1.121,1.784,1.121l1.274,0.765l0.51,0.866l0.917,1.019l2.038,2.446l1.631,1.529l1.274,1.223c0,0,1.121,0.815,1.274,1.019
		s1.325,0.713,1.325,0.713l2.089,1.376l0.662,0.561c0,0,1.223,0.714,1.478,0.815s1.325,0.458,1.325,0.458l1.274,0.611l1.019,0.255
		l1.732,0.458l2.293,0.357l1.529,0.408l0.713,0.255l0.611,0.561l0.612,0.612l0.509,0.306l1.07,0.713l2.089,0.764
		c0,0,1.223,0.713,1.376,0.815s1.58,0.458,1.834,0.561s2.293,0.204,2.293,0.204l1.937,0.255l3.465,0.153l1.834-0.612
		c0,0,0.612-0.407,0.815-0.509s0.866-0.867,0.866-0.867l1.834-1.019l1.784-1.478l1.223-0.714l1.682-0.561l5.86-0.611l4.332-0.102
		l2.599-0.102l1.478-0.255l1.274-0.153l1.478-0.204l2.751,0.051l2.039,0.407l4.841,1.223l3.261,0.713l2.854,0.815l3.006,0.815
		l3.567,1.274l2.446,1.07l1.682,0.764l1.223,0.765l2.039,0.611l0.611,0.102l1.019,0.255h0.612l0.917-0.255l0.663-0.357l1.834-0.866
		l2.905-2.293l1.376-1.07l0.561-1.172l0.611-0.663l0.51-0.153c0,0,0.356,0.153,0.561,0.306s1.121,0.458,1.121,0.458l1.172,0.357
		l1.885,0.561l1.223,0.663l1.427,0.815l1.07,0.714l1.834,0.662l0.713,0.459l0.458,0.662l0.51,0.663l0.458,0.357l0.968,0.306
		l1.376,0.153l1.019,0.102l0.765,0.306l0.663,0.204c0,0,0.611,0.102,0.866,0s1.885-0.306,1.885-0.306h0.612l0.815,0.458l1.631,0.917
		l3.16,1.834l0.917,0.458l2.6-1.529l2.548-1.07l2.089-0.408l1.987-0.204l1.58,0.051h0.407l1.682-0.866l2.242-1.223l1.274-0.612
		l1.987-0.458l1.376-0.408h2.242l0.815,0.204l1.427,0.408l0.458-0.714l1.121-0.662l1.02,0.102l0.765,0.102l1.019-1.07l1.02-0.561
		l0.459-0.764l0.764-0.764l0.51-0.204h1.121h0.663l2.038-0.663l1.682-0.509l1.528-0.561l0.51-0.255l0.561-0.357l1.479-0.204
		l1.63-0.204l0.459-0.153l1.121,0.153l0.969,0.612c0,0,0.509,0.662,0.713,0.917s0.662,0.867,0.662,0.867l1.122,0.509l0.713,0.153
		l1.478,0.713l0.918,0.153l1.069-0.051l1.376,0.153l0.918,0.255l1.682,0.357h0.561l0.866-0.306l2.141-1.172l2.803-0.51h1.783
		l1.58,0.459l0.815,0.254l1.427,0.561l1.478-0.561l0.663-0.204l1.273,0.306l1.173,0.204h0.866h1.273l0.969-0.102l1.223,0.153
		l0.407-0.306l0.51-0.663l0.918-0.255l0.764-0.356l0.918-0.153l0.764-0.102l1.376,0.102l3.517,0.968l2.599,0.968l2.905,0.765
		l2.089,0.458l1.121-0.255l2.497-2.599l0.561-0.765c0,0,1.071-0.561,1.274-0.713s0.203-1.019,0.203-1.019l0.918-1.07l0.662-0.764
		l0.306-0.968l0.51-0.458l0.815-0.357l1.07-0.917l0.713-1.375l0.306-0.255l0.612-0.357l0.356-0.713l0.102-1.325l0.765-0.867
		l0.765-0.509l0.866-0.255l1.631-0.51l1.019-0.051l0.866,0.458l0.969,0.153l0.459-0.102l0.814,0.51l1.58,0.765
		c0,0,0.204,0.255,0.51,0.408s0.714,0.51,1.07,0.713s1.631,0.968,1.631,0.968l4.076,1.682l2.191-0.051l1.07,0.102l1.427,0.611
		l0.815,0.815l1.069,0.765l0.612,0.764l0.458,0.357l0.306-0.102h1.479l0.458,0.255l1.172,0.153h0.714l0.917-0.153l1.173-0.051
		l0.917-0.306c0,0,0.203-0.255,0.458-0.408s1.274-0.713,1.274-0.713l2.141-0.866l1.07-0.306h1.375l1.529-0.153l1.07,0.204
		l1.273,0.204l1.325,0.102l1.07-0.102l1.223-0.408l1.121-0.968l0.866-0.458l1.529-0.102l1.732,0.051l1.376,0.408l0.51-0.764
		l0.255-0.459l1.579-0.204l1.479,0.663l0.917,0.408l0.765,0.051l1.325-0.153l2.293,0.458l1.579,1.427l0.815,0.663l1.121,0.917
		l1.733,1.223l4.025,1.988l3.618,2.344l4.434,2.141l1.528,0.663l1.07,0.917l1.833,1.478l3.67,1.885l2.497,1.784l0.611,0.561
		l1.07,0.408l1.223-0.255l0.561-0.255l2.242,0.102l1.172,0.356l0.969,0.357l1.987,1.121l1.987,0.357l1.376,0.204l1.223,0.051
		l1.07-0.102l1.682-0.357l1.274-0.764l1.732-0.714l1.019-0.458l1.479-0.306l1.478-0.051l0.611-0.204l0.765-0.255l0.714-0.561h1.783
		l2.141,0.051l1.121-0.102l0.713-0.663l1.274-0.713l1.834-0.051l0.918,0.204l0.764,0.663l2.752-0.306l1.427-0.102l1.427-0.306
		l1.631,0.204l0.714,0.204l1.07-0.051l1.07-0.917l0.764-0.458h1.121l1.172,0.204l0.969,0.204h0.561l2.497,0.408l0.917,0.204h0.714
		l3.618,0.509l1.223-0.662l0.713-0.408l1.274-0.968l0.408-0.408l1.478-1.121l2.242-1.07l1.019-0.153l1.122,0.306l1.579,1.172
		l0.714,0.713l0.917,0.815l0.356,0.764l0.204,0.357l0.917,0.509l1.479,1.02l0.561,0.306l1.019,0.764l1.07,0.713l0.866-0.611
		l1.784-1.834l2.548-3.108l3.058-3.517l2.445-3.006l0.408-0.561l0.611-0.765l1.376-1.427l1.682-1.07l2.445-1.733l0.612-0.866
		l0.968-0.815l1.376-0.663l1.886-1.121l1.376-0.713l0.561-0.408l0.815-0.408l0.764-0.356h1.376c0,0,1.427,0.509,1.58,0.611
		s1.121,0.612,1.121,0.612s0.816,0.663,1.02,0.866s1.019,0.968,1.223,1.172s0.815,0.663,0.815,0.663l1.02,1.121l0.968,1.121
		l0.662,0.968l1.58,1.427l0.714,0.663c0,0,0.255,0.357,0.356,0.51s0.306,0.458,0.306,0.458l1.58,0.509l2.803,0.306h1.427
		l1.528-0.408l0.51-0.051l0.663,0.204c0,0,0.561,0.561,0.611,0.713s0.661,1.07,0.764,1.325s1.121,2.396,1.121,2.396l1.733,2.701
		l0.662,1.019l0.815,0.765l2.649-0.051h0.561c0,0,1.071,0.306,1.224,0.459s1.07,0.866,1.07,0.866l1.172,1.274l0.204,0.968
		l0.407,0.917l0.866,0.917l0.561-0.51l0.51-1.172l0.51-0.663l1.172-0.408l1.479-0.356l1.834-0.255l1.427-0.815l2.09-0.561h0.458
		l0.815-0.458l1.173-0.102l1.885,0.561l1.682-0.306l1.529-0.153l1.579-0.561l1.02-0.917l0.408-0.509l0.561-0.204h0.968l0.51,0.357
		l1.02,0.458l1.019-0.458l1.732-0.612l1.02-0.306l2.446-0.051l1.121,0.356l1.376,0.255l0.968,0.611l0.357,0.306l1.528,0.153
		l1.478,0.204l0.866,0.153l1.224,0.968l0.152,0.561l0.408,0.459l0.917,0.204l0.611,0.153c0,0,0.814,0.561,0.866,0.713
		s0.408,0.663,0.408,0.663l0.204,0.561l0.203,0.357l2.446,0.051l1.987-0.102l1.427,0.051l1.529,0.254l1.987,0.408l1.987,0.561
		l2.293,0.765l1.121,0.458l2.854,2.344l1.479,0.561c0,0,0.356,0.102,0.662,0.102s1.274,0,1.274,0l1.172,0.254l0.968,0.408
		l1.732,1.02L866.461,93l1.937,0.254l1.121,0.153l4.638,0.968l3.465,0.561l1.783,0.102l1.733-0.408l1.732-0.051l1.528,0.255
		l0.714,0.153l2.242,0.255h1.07h1.07h1.223l0.765,0.204l1.732,0.663h1.02c0,0-0.052,0,0.407,0.255s1.886,0.611,1.886,0.611
		l1.273,0.815l1.172,0.917l1.631,0.509l0.663,0.306l1.324,0.663l1.63,1.325l1.121,0.713l1.631,0.51l0.968,0.866l1.427,0.611
		l0.815,0.917l1.02,0.204l1.07,0.611l1.579,0.356c0,0,0.969,0.255,1.224,0.306s4.841,0.764,4.841,0.764l3.517,0.815l1.732,0.357
		l1.274,0.458l0.866,0.509l1.975,0.306"/>
</g>
<g id="gcp">
	<circle id="alcove" fill="#FF0000" cx="21" cy="180.625" r="0.25"/>
	<circle id="butt" fill="#FF0000" cx="198.167" cy="191.584" r="0.25"/>
	<circle id="portaledge" fill="#FF0000" cx="320.916" cy="167.001" r="0.25"/>
	<circle id="jawlip2" fill="#FF0000" cx="380.5" cy="171.938" r="0.25"/>
	<circle id="ledgedot" fill="#FF0000" cx="445.688" cy="141.25" r="0.25"/>
	<circle id="kissers" fill="#FF0000" cx="676.75" cy="173.875" r="0.25"/>
	<circle id="rustcut" fill="#FF0000" cx="807.688" cy="158.312" r="0.25"/>
	<circle id="brokens" fill="#FF0000" cx="797.562" cy="157.688" r="0.25"/>
</g>
</svg>
