<?xml version="1.0" encoding="utf-8"?>
<!-- Generator: Adobe Illustrator 16.0.4, SVG Export Plug-In . SVG Version: 6.00 Build 0)  -->
<!DOCTYPE svg PUBLIC "-//W3C//DTD SVG 1.1//EN" "http://www.w3.org/Graphics/SVG/1.1/DTD/svg11.dtd">
<svg version="1.1" id="svg" xmlns="http://www.w3.org/2000/svg" xmlns:xlink="http://www.w3.org/1999/xlink" x="0px" y="0px"
	 width="816px" height="612px" viewBox="0 0 816 612" enable-background="new 0 0 816 612" xml:space="preserve">
<g id="image">
	
		<image overflow="visible" enable-background="new    " width="3264" height="2448" xlink:href="CG04_20040707_200052.JPG"  transform="matrix(0.25 0 0 0.25 0 0)">
	</image>
	
		<image display="none" overflow="visible" enable-background="new    " width="3264" height="2448" xlink:href="CG04_20040707_200052-b.JPG"  transform="matrix(0.25 0 0 0.25 0 9.765625e-04)">
	</image>
</g>
<g id="gcp">
	<circle id="cairin-up" fill="#FF0000" cx="708.8" cy="517.411" r="0.25"/>
	<circle id="cairin-dwn" fill="#FF0000" cx="450.875" cy="516.5" r="0.25"/>
	<circle id="blotch" fill="#FF0000" cx="100.25" cy="264.05" r="0.25"/>
	<circle id="nipple" fill="#FF0000" cx="397.25" cy="234.5" r="0.25"/>
	<circle id="splitrock" fill="#FF0000" cx="465.375" cy="248.25" r="0.25"/>
	<circle id="cluster" fill="#FF0000" cx="469.3" cy="253.55" r="0.25"/>
	<circle id="T20040707-01" fill="#FF0000" cx="63.232" cy="198.982" r="0.25"/>
	<circle id="T20040707-02" fill="#FF0000" cx="241.875" cy="242" r="0.25"/>
	<circle id="T20040707-03" fill="#FF0000" cx="211.125" cy="213.625" r="0.25"/>
	<circle id="T20040707-04" fill="#FF0000" cx="197.625" cy="198.875" r="0.25"/>
	<circle id="T20040707-05" fill="#FF0000" cx="292.375" cy="228.062" r="0.25"/>
	<circle id="T20040707-06" fill="#FF0000" cx="418.375" cy="263.875" r="0.25"/>
	<circle id="T20040707-07" fill="#FF0000" cx="401.375" cy="238.625" r="0.25"/>
	<circle id="T20040707-08" fill="#FF0000" cx="402.375" cy="242.125" r="0.25"/>
	<circle id="T20040707-09" fill="#FF0000" cx="309.333" cy="167.292" r="0.25"/>
	<circle id="T20040707-10" fill="#FF0000" cx="302.125" cy="184.875" r="0.25"/>
	<circle id="T20040707-11" fill="#FF0000" cx="284.875" cy="147.359" r="0.25"/>
	<circle id="T20040707-12" fill="#FF0000" cx="123.631" cy="205.158" r="0.25"/>
</g>
<g id="horizon">
	<path fill="none" stroke="#FF0000" stroke-width="0.25" stroke-miterlimit="10" d="M0.125,168.708l0.917,0.042l0.625,0.458
		l0.542,0.542l0.458-0.375l0.75-0.792l1.083-0.958l1.083-0.583l1.583-0.625l0.75,0.167l0.542,0.083l1.458-0.833l1.708-0.875
		L13.917,164l1.708-0.792l0.875-0.667l0.75-0.292l1.542,0.042l0.917,0.667l1.5,0.083l2.083,0.083l1.5,0.042h1.083H27l1.25,0.042
		l1.542,0.5l1.917,0.833l1.833,0.875l1.333,0.375h1.542l1.167-0.083l1.875,0.5l1,0.542l1.375-0.083l0.958-0.042L44.458,167
		l1.583,0.542l1.625,0.333l1.542,0.042l1.458,0.667l2,0.875l0.875,0.583l0.708,0.125l1.083-0.583l1.208-0.5l1.083-0.375l1.208-0.208
		l0.75-0.5l1.667-0.375l1.208-0.042l1,0.208l1.667,0.75l0.833,1.042l1.542,0.75l1.5,0.5l1.25,0.375l1.417,0.167l1.417,0.333
		l1.375,0.125l1.792,0.208l1.25,0.167l1.375,0.292l1,0.375l1.292,0.875l1.375-0.167h1.875l2,0.542l1.083,0.5l1.75,0.625l1.666,0.208
		l1.125-0.042l1.042,0.5l1.5,0.583l0.875,0.583l0.917,0.417l1.667,0.708l0.917,0.167l2.125,0.833l1.958,0.917l1.083,0.167
		l1.667-0.333l1.792-0.5l0.875-0.042h2.375L113,179.25l1.5-0.333l0.875-0.458l0.875-0.542l1.125-0.208l2.333,0.125l2.125,0.5
		l3.875,0.875l4.375,1.542l2.75,1.167l1.667,0.583l2.792,0.5l2.083-0.125l1.792-0.125h0.792l0.667-0.167l0.917,0.042l1.542,0.333
		l2-0.208l1.75-0.708l2.208-0.708h1.999l1.375-0.583l1.833-0.208l1.125-0.083l1.333-0.917l1.042-0.5l0.875-0.25h1.333h1.208
		l0.542-1.167l1.417-0.958l1.916-1.124l1.167-1.167l0.833-0.833l0.458-0.917l1.125-0.833l2.042-1l3.458-1.958l4-2.958l3.458-2.208
		l3.333-1.958l1.333-1.667l1.042-2.375l1.625-1.542l1.25-1.75l1.417-0.833l2-0.75l1.25-0.375l1.458-1.708l2.125-3.125l2.25-2.042
		l3.375-2.292l3.708-2l3.75-1.375l2.625-1.125l2.875-1.083l2.958-2.333l3.833-2.333l3.417-1.167l3.042-0.5l2.833-0.458h1.833
		l3.167,0.542l4.75,0.25l3.292,0.167l1.5-0.583l1.5,0.125l1.625,0.958l0.958,0.833l1.167-0.042l1.292-1.167l1.5-0.583l1.417-0.333
		l1.583,0.125l1.542,0.5l1.375,0.875l0.333,0.5l0.333,0.292l1.458,0.125l1.333-0.458l1.5-0.542l1-0.042l0.958,0.25l1.5,0.167
		l1.375-0.542l5-2.417l4.499-1.5l4.417-2.292l3.375-1.333l2.333-0.167l1.417-0.083l1.667,0.583l0.917,0.125l1.083-0.583l2.125-1.583
		l3.083-1.958l2.917-1.125l2.667-0.583l2.958-0.458l1.792-0.042l1.292,0.583l0.417,0.792l0.375,0.833l0.667,1l1.75,0.917
		l2.458,1.375l3.083,1.625l2.042,0.792l2.792-0.042l2.208-0.042h2.083l1.667-0.042l2.375,0.292l1.792,0.708l0.625,0.75l0.667,1.542
		l0.458,1.042l0.25,0.917l0.542,0.375l0.625,0.083l0.75-0.625l0.75-0.417h1.417l1.375,0.458l1.208,0.583l0.917,0.542l0.833-0.042
		l0.875-0.375l1-0.5l1.25-0.5l1.75-0.083l1.083,0.125l0.833,0.5l1.708,1.667l2.083,2.458l0.333,0.958l0.208,0.792l0.5,0.5
		l0.75,0.958l2.458,3.042l2.458,3.042l0.792,1.167l1.125,0.5l0.833-0.042l1.417-0.167l0.875-0.042l1.083,0.375l1.042,0.542
		l1.375,0.167l1,0.042l1.125,0.75l0.792,1.5l0.792,1.292l0.25,0.667l0.75,0.792l1.333,1.167l2.042,1.167l4.583,3.166l5.083,3.333
		l3.708,2.917l1.875,2.167l2.667,2.583l1.042,1.208l1.042-0.333l1.25-0.083l1.167,0.667l2.333,1.5l1.5,1.375l1,2.167l0.791,1.958
		l0.917,1.792l0.625,0.5l0.542-0.208l1.041-1.292l1.417-1.792l0.792-0.708l0.791-0.25l0.625,0.125l0.667,0.458l1.833,0.875
		l3.209,0.167l2.583-0.375l0.958-0.125l0.75-0.375l0.5-0.417l0.459,0.417l0.375,0.458l0.458,0.208l0.792-0.083l0.75-0.542
		l1.375-0.333l1.916-0.375l1.042-0.208l0.542-0.292l0.291-0.167l0.917,0.25l0.333,0.542l0.709,0.625l1,0.333l0.833,0.083
		l1.791-0.417l1.125-0.042l1.709,0.583l2,0.917l2,1.542l1.583,1.375l0.958,0.625l0.834,0.417l0.625,0.042l0.416,0.542l0.292,0.5
		l0.792,0.792c0,0,0.584,0.208,0.875,0.292s1.208,0.125,1.208,0.125l0.917-0.083l0.416-0.333c0,0,0.208-0.042,0.375,0
		s0.5,0.042,0.5,0.042s0.668,0.292,0.834,0.417s0.791,0.792,0.791,0.792h0.667l0.333-0.875l0.625-1.417l0.667-0.792l1.5-0.5
		l2.417-0.167l0.958,0.083h1.25l0.542-0.625l0.666-0.417l0.792-0.042l0.583,0.042l0.417-0.125l0.75-0.333l1.375,0.042l0.875,0.125
		l0.708,0.625l0.459,0.833l0.291,0.5l0.584-0.208l0.333-0.792l0.583-0.375l0.917-0.5l1.542,0.208l0.833,0.083l0.708,0.792
		l1.375,1.583c0,0,0.543,0.958,0.584,1.083s0.708,0.792,0.708,0.792l0.958,1.167l0.459,0.708l0.458,1l0.333,1.042l0.667,0.417
		l0.333-0.458h0.875l0.334,0.292l0.5-0.5l0.75-0.583l0.875-0.167l0.708-0.042l0.667-0.042l1.084-0.083l0.375,0.542l0.25,0.25
		l1.084-0.833l0.583-0.375l1-0.125l0.583,0.167l0.417-0.542l0.917-0.458l0.916-0.167l0.084-0.833l1.25,0.125l1.166,0.292h0.5
		l0.542-0.25l0.667,0.292l0.333,0.458l0.875,0.125l0.792-0.583l1.458-0.542l2.083-1.042l1.75-0.875h1.167l0.417,0.167l1.166-0.125
		l1-0.542l0.5-0.375l1.292-0.25l0.833,0.458l1.834,1.5l2.125,0.625l1.125,0.25l1.291,0.75l0.625,0.583l2.625-0.292l0.834-0.583
		l0.875-0.042l1.125,0.167l2.085-0.417l2.083-0.417l1.417-0.167l1.083-0.375l1.292-0.208l2.041-0.167l1.625-0.042l1.042,0.458
		l1.708-0.167l2.085-0.708l2.208-0.875l1.792-0.708l1.083-0.583l0.792-0.542l1-0.167l0.792,0.708l0.958,1.708l1.292,2.458
		l0.791,1.458l2.793,2.417l3.792,2.375l3.25,1.75l2.666,1.833l3.667,3.083l1.875,2.125l1.876,2.417l1,1.333l1.667,0.458l1.5,0.375
		l0.708,0.167l1.125-0.208l1,0.458l0.792,0.917l0.666,0.958l0.417,0.25l0.917-0.625l1.541-0.292l1.125-0.25l1.834-0.417l1.166-0.708
		l2.21-0.875l1.208-0.458l1.292-0.042l0.792,0.417l1.083-0.042l1.333-1.042l0.709-1c0,0,0.999-0.125,1.291-0.083
		s1.875-0.333,1.875-0.333l1.334-0.083l1.166-0.042l0.917,0.375l1.083,0.083l1.125,0.5l1.25,0.458l0.834,0.125
		c0,0,0.374,0.583,0.541,0.708s0.666,0.542,0.75,0.667s1.75,1.417,1.75,1.417l2,2.292l1.418,1.458l0.875,0.833l1.208,0.042
		l1.25,0.125l1.5,0.167h1.459l1.708-0.042l1.25-0.583l0.625-0.417l0.5-0.417l1.083-0.042l1.25,0.208l0.917-0.125l0.5-0.333l0.5-0.25
		l1.5-0.125l1.5-0.5l1.792-1.167l2.083-1l1.292-0.5l0.541,0.042l1.25,0.667c0,0,1,0.708,1.125,0.75s0.875,0.542,0.875,0.542
		l1.25,0.792l0.834,0.542h2.208l1.458-0.375l3.334-2.208l2.167-2.417l0.833-1.375l1.5-1.292l2.709-2.792l3.208-2.625l3.5-3.083
		l3.125-3.042l2.125-1.708l0.375-0.292l0.625,0.208l0.5,0.583l0.792,0.167l0.583-0.667l1.083-0.333l0.625,0.125"/>
	<path fill="none" stroke="#FF0000" stroke-width="0.25" stroke-miterlimit="10" d="M682.588,189.542l1.917,0.333l1.666,0.375
		l1.292,0.542l0.917,0.458l0.833,0.917l0.5,0.667l0.375,0.458l1.417-0.042l1-0.5l0.458-0.333l0.75,0.625l0.208,1.208
		c0,0,0.292,0.375,0.417,0.542s0.917,0.75,0.917,0.75l1.791,0.042l1.25-0.458l1.125-0.833l2.042-0.833l1.583-0.333l1.125-0.417
		l1.667-0.042l0.917-1l1.125-0.792l0.916-0.25l0.5-0.25l1-1.042l0.209-0.333l0.791-0.542l0.834-0.458l0.416-0.542l0.459-0.333
		l1.166-0.333l1.293-0.333l0.583-0.5l0.709-0.542l1.041-0.375l2.25,0.125l2.875,0.375l2.75,0.75l3.709,3.375l1.25,0.792l1.167,0.375
		l0.792-0.125l0.75,0.167c0,0,0.541,0.5,0.666,0.667s0.834,0.625,0.834,0.625l0.958,0.333l1.5,0.083h0.833l0.667,0.333
		c0,0,0.584,0.458,0.667,0.583s0.458,0.5,0.458,0.5l1.333,0.417l0.542,0.208l1.125,0.167l1.417-0.25l0.791-0.25l1.459-0.042
		l2.791,0.958l1.375,0.25l1.417-0.167l0.917-0.542l2.416-0.375l1.625-0.208l1.042-0.417l0.625-0.25l1.75-0.25l1.5-0.167l1-0.292
		l0.833-0.542l0.667-0.333l1.417-0.167l2.583-0.583l0.584-0.167l1.583-1.5l2.125-1.875l1.042-0.958l0.708-1l1.292-0.042l1.625,0.875
		l0.416,0.625l1.125,0.375l1.25-0.208l1.167-0.458l1-0.417l1.25-0.25l1.75-0.583l1.042-0.708l0.458-0.667l0.625-0.542l0.708,0.042
		l1.292,0.5h1.292l1.041-0.542l1-0.375l1-0.625l1.959,0.083l1.875,0.917l0.834,0.458l1.125,0.375l1.166-0.292l1.75-0.042
		l1.792,0.375c0,0,0.75,0.167,0.875,0.167s1.5-0.417,1.5-0.417l1.708-0.167l3.084-0.042h1.875l1.5,0.042l1.034,0.375"/>
</g>
<g id="terminus">
	<polyline fill="none" stroke="#FF0000" stroke-width="0.25" stroke-miterlimit="10" points="173.125,334.5 168.75,333.875 
		162.25,333 157.125,332.5 146.5,329.125 141.75,327.375 137.5,326.375 132.25,325.5 124,324 116,322.625 109.25,321.375 
		103,320.75 95.75,319.999 77.5,318.249 70.916,318.083 	"/>
	<polyline fill="none" stroke="#FF0000" stroke-width="0.25" stroke-miterlimit="10" points="188.375,343.375 199.375,344.125 
		212.5,344.75 219.125,345 225,344.5 234.125,345 244.625,345.75 259.625,346.75 273,348.25 288.125,349.875 296.125,350.875 
		304.125,351.75 310.021,352.458 315.239,353.576 322.134,354.975 	"/>
	<polyline fill="none" stroke="#FF0000" stroke-width="0.25" stroke-miterlimit="10" points="347.76,361.686 363.229,364.479 
		378.698,368.486 391.185,372.4 402.367,376.594 410.381,383.023 415.413,389.081 419.047,393.927 421.656,399.891 423.893,405.574 
		425.57,409.115 429.111,411.911 432.652,412.19 437.404,413.682 441.971,417.223 	"/>
</g>
<g id="moraines">
	<g id="moraine-01">
		<polyline fill="none" stroke="#FF0000" stroke-width="0.25" stroke-miterlimit="10" points="266.167,317.5 299.5,315.5 
			339.5,314.166 372.833,314.833 419.5,316.166 471.833,316.5 525.5,318.166 577.5,319.166 617.5,320.5 674.167,324.5 
			731.833,328.5 775.833,332.5 814.5,335.5 		"/>
	</g>
	<g id="moraine-02">
		<polyline fill="none" stroke="#FF0000" stroke-width="0.25" stroke-miterlimit="10" points="177.699,288.553 193.261,290.109 
			214.875,291.32 226.979,292.357 247.728,291.32 254.99,289.591 258.275,287.516 260.869,283.02 259.486,280.945 256.201,278.179 
			247.728,276.104 237.526,272.818 229.399,269.706 220.062,267.804 206.402,263.481 200.696,261.233 193.434,260.369 
			184.097,258.985 		"/>
	</g>
	<g id="moraine-03">
		<polyline fill="none" stroke="#FF0000" stroke-width="0.25" stroke-miterlimit="10" points="465.078,352.059 524.188,353.061 
			573.277,355.264 617.358,356.064 666.85,359.471 740.184,364.279 771.04,366.484 814.721,369.689 		"/>
	</g>
</g>
</svg>
