<?xml version="1.0" encoding="utf-8"?>
<!-- Generator: Adobe Illustrator 16.0.4, SVG Export Plug-In . SVG Version: 6.00 Build 0)  -->
<!DOCTYPE svg PUBLIC "-//W3C//DTD SVG 1.1//EN" "http://www.w3.org/Graphics/SVG/1.1/DTD/svg11.dtd">
<svg version="1.1" id="svg" xmlns="http://www.w3.org/2000/svg" xmlns:xlink="http://www.w3.org/1999/xlink" x="0px" y="0px"
	 width="816px" height="612px" viewBox="0 0 816 612" enable-background="new 0 0 816 612" xml:space="preserve">
<g id="image">
	
		<image overflow="visible" enable-background="new    " width="3264" height="2448" xlink:href="CG04_20040624_200016.JPG"  transform="matrix(0.25 0 0 0.25 0 -9.765625e-04)">
	</image>
</g>
<g id="gcp">
	<circle id="cairin-up" fill="#FF0000" cx="709.654" cy="517.104" r="0.25"/>
	<circle id="cairin-dwn" fill="#FF0000" cx="451.562" cy="515.531" r="0.25"/>
	<circle id="kadin-cairin" fill="#FF0000" cx="492.312" cy="207.281" r="0.25"/>
	<circle id="P4930" fill="#FF0000" cx="553.562" cy="180.281" r="0.25"/>
	<circle id="P7010" fill="#FF0000" cx="719.312" cy="183.781" r="0.25"/>
	<circle id="blotch" fill="#FF0000" cx="100.831" cy="264.212" r="0.25"/>
	<circle id="nipple" fill="#FF0000" cx="397.976" cy="233.598" r="0.25"/>
	<circle id="splitrock" fill="#FF0000" cx="466.083" cy="247.458" r="0.25"/>
	<circle id="cluster" fill="#FF0000" cx="469.958" cy="252.75" r="0.25"/>
</g>
<g id="horizon">
	<path fill="none" stroke="#FF0000" stroke-width="0.25" stroke-miterlimit="10" d="M0.125,168.5l3.25,0.75l3.125-2.625l1.375-0.375
		l1.25,0.5l0.938-0.812l1.562-1.062l1.812-0.375l1.188-0.688l1.062-1L16.5,162.5h1.188l1.812-0.062l2.625,0.188l1.688-0.062h1.75
		h1.625l1.938,0.188l1.375,0.312l1.5,0.875l1.062,0.312l0.812,0.188l1.062,0.688l0.75,0.25l1.25-0.188l1.375-0.25l1.125,0.438
		L41.562,166l1.562,0.062l1.312,0.312l1.938,0.75l2.125,0.25l1.438,0.125L51.5,168l1.25,0.562l1.625,0.875l0.688,0.188l1.188-0.5
		l1.562-0.875l1.312-0.312l1.375-0.188l0.938-0.562l1.438-0.125l1.188,0.125l1.375,0.625l0.75,1l0.875,0.625l1.094,0.5l1.219,0.312
		l0.844,0.469l0.562,0.125l0.812,0.094l1.062-0.094L73,171.156l0.531,0.469l1.25,0.062h1.5l1.656,0.094l1.188,0.156l1.625,0.844
		l0.812,0.594l0.875,0.125l1.5-0.156H85.5l1.031,0.188l1.312,0.781l0.875,0.312l1.344,0.219l1.25,0.281l1.5-0.031l1.094,0.469
		l1.469,0.719l2,1.062l1.688,0.625l2.438,0.844l1.969,0.719l1.062-0.031l2.094-0.188l3.656-0.781l4-0.438l3.812-0.625l2.844-0.031
		l1.656,0.312l1.156,0.312l1.469,0.281l1.594,0.5l2.312,0.594l3.688,1.688l1.562,0.875l1.375,0.062l2.438,0.25l1.625,0.094
		l1.344,0.031l1.219-0.125l0.906-0.344l0.812-0.188l1.312,0.312l1.438,0.25l1.094-0.188l2.188-0.75l2.5-0.656l2.438-0.375
		l1.688-0.125l1.125-0.344l1.219-0.5l0.906-0.594l0.906-0.469l1-0.062l1.062-0.031l0.781-0.125l1.031-0.938l2.031-1.656l1.938-1.562
		l1-1l0.719-1.156l0.719-0.562l1.562-0.75l3.031-1.625l2.812-1.844l1.844-1.344l3.156-2.094l3.594-2.25l0.906-0.719l1.344-2.094
		l1.281-1.719l1.469-1.531l1.25-1.375l1.031-1.031l0.938-0.281l1.656-0.438l0.719-0.5l1.094-1.281l1.812-2.219l2.125-2.375
		l1.688-1.531l1.562-1.031l2.219-1.375l4.594-2.219l2.219-0.812l1.188-0.312l1.438-0.625l1.375-0.812l3.312-2.062l2.844-1.625
		l2.5-1.469l1.938-0.781l1.656-0.281l1.344,0.031l1.438-0.375l1.062-0.344l1.062-0.062l1.531,0.406l2.781,0.375l2.25-0.094
		l1.5,0.094l1.375,0.375l1.562,0.188l1.25,0.094l0.75-0.625l0.812-0.406l0.969-0.125l0.969,0.438l1.438,0.844l0.5,0.531l0.688,0.406
		l1-0.031l1-0.844l1.375-1.031l1.062-0.25l1.312-0.219l1.281,0.125l0.875,0.281l1.156,0.969l1.156,1.281l2.25-0.281l1.719-0.406
		l1.281-0.25l1.5-0.25h1.875h0.781l0.875-0.156l2.094-1.281l2.781-1.344l2.219-0.906l2.219-0.875l3.531-1.656l3.156-1.156
		l1.906-0.469h1.094l1.438,0.094l1.094,0.219l0.812,0.281l0.844,0.062l1.875-1.469l2.344-1.375l2.344-1.531l1.719-0.625l2.375-0.5
		l1.625-0.344l2.156-0.406l1.844,0.125l0.812,0.219l0.719,0.781l0.406,1l0.156,0.625l1.03,0.75l1.406,1.031l1.062,0.406l1.188,0.375
		l1.062,0.5l0.719,0.438l1.562,0.812l0.875,0.688l0.562,0.25l0.812,0.062l1.281-0.094l1.156-0.094l1.531-0.375l0.969-0.031
		l1.281,0.125l0.938,0.125l1.594,0.219l0.595,0.062l1.094,0.125l1.5,0.438l1.156,1.281l0.75,1.219l0.219,1l0.625,1.156l0.344,0.469
		l1.312-0.656l1-0.5l1.03-0.156l1.156,0.281l2.562,0.75l0.969,0.188l0.906-0.281l0.875-0.25l1.28-0.094h1.595h1.405l0.5,0.094
		l0.781,0.781l1.094,1.344l0.812,1.062l0.688,0.938l0.25,0.688l0.438,0.75l0.438,0.688l0.781,0.844l1.219,1.438l1.531,1.781
		l1.625,2.031l0.812,1.469l0.875,0.844l1.155,0.094l1.845-0.062l1.438,0.031l1.438,0.156l1.344,0.812l0.844,0.281l0.594,0.188
		l0.75,0.531l0.656,0.719l0.938,1.469l1.25,1.875l0.812,1l1.469,0.781l2.062,1.25l2.406,1.656l2.28,1.625l3.031,1.969l2.281,1.531
		l1.75,1.281l1.812,2l0.845,0.812l0.905,0.969l0.906,0.875l1.188,1.188l0.719,0.625l0.5,0.188l1.062-0.188l0.72,0.25l0.5,0.375
		l0.938,0.156l1.062,0.344l0.875,0.719l0.53,0.688l0.5,0.469l0.72,0.25l0.719,1.469l0.844,1.812l0.594,1.156l0.375,0.875l0.406,0.75
		l0.875-0.031l0.656-0.5l1.312-2.062l1.438-1.062l1.188-0.062l0.781,0.469l0.969,0.312l1.438,0.719l2.312,0.156l1.72-0.531
		l1.562-0.469l1.125-0.094l0.906,0.125l0.719,0.5l0.875-0.125l1.562-0.469l3.562-0.938l1-0.188l0.656-0.156l0.75,0.438l0.719,0.688
		l0.438,0.469l0.625,0.094l1.155,0.062l0.5-0.156l1.312-0.281H444l0.688,0.375l1.125,0.312l1.875,1.031l0.688,0.688l1.188,0.844
		l1.28,0.781l1.406,0.906l0.625,0.344l0.531,0.344c0,0,0.469,0.5,0.5,0.625c0.03,0.125,0.438,0.781,0.438,0.781
		s0.406,0.312,0.5,0.344c0.095,0.032,1.375,0.438,1.375,0.438h0.625l1.062-0.25l0.562-0.312l0.719,0.062l0.438,0.312l0.656,0.406
		l0.405,0.562l0.438,0.219l0.438-1.094l0.655-1.344l1-0.875l0.845-0.594l1.405-0.094l0.97-0.031l0.469,0.156l1.188-0.094
		l1.156-0.219l0.594-0.406l0.594-0.25l0.938-0.031l1-0.031l0.75-0.375l1.062-0.156l0.812,0.094l0.656,0.531
		c0,0,0.25,0.5,0.281,0.594c0.03,0.094,0.405,0.438,0.405,0.438l0.595,0.25l0.5-0.375l0.594-0.625l0.875-0.312l1.094-0.125
		l1.156,0.156l0.719,0.562l1.562,2.094l1.688,2.156l0.875,0.875l0.562,1.062l0.405,0.938l0.47,0.5l0.438,0.219l0.719-0.438
		l1.062-0.219l0.875-0.438l1-0.094l1.125-0.031l0.781-0.125l0.625,0.5l0.594,0.062l0.938-0.562l0.719-0.656l0.595,0.094h0.75
		l0.625-0.562l0.688-0.438l0.875-0.219l0.25-0.438l1.125-0.219l1.688,0.156l1.094,0.219l0.625,0.656l0.938-0.031l2-0.812l3-1.75
		l0.845-0.375l0.938-0.062l0.406,0.156l0.438,0.188l1.219-0.5l0.719-0.531l0.906-0.281l0.781-0.062l1,0.281l0.875,0.625l0.405,0.406
		l0.688,0.281l0.625,0.188l0.844,0.219l1.188,0.406l0.625,0.469l0.906,0.656l0.844,0.344l2.47-0.031l1.155-0.469l0.595-0.156
		l0.719,0.062c0,0,1-0.031,1.156,0c0.155,0.031,1.53-0.219,1.53-0.219l1.406-0.281l1.438-0.312l1-0.25l1.75-0.312l1.625-0.062h0.78
		l1.781,0.375l1.125,0.062l1.094,0.062l1.845-0.562l1.969-0.938l1.75-0.812l1.031-0.906l0.905-0.406l0.75-0.094l0.562,0.062
		l1.125,0.375l0.594,0.844l0.375,0.688l0.219,0.688l0.688,1.219l0.219,1.125l1.062,1.094l0.875,1.031l2.75,1.906l2.719,1.719
		l2.562,1.188l1.25,0.781l1.345,1l1.405,0.844l2.438,2.344l1.469,1.406l1.031,1.219l0.812,1.094l0.688,1.375l0.906,0.656l1.78,1.031
		l1.125,0.531l1.531,0.094l1-0.25l0.781,0.188l0.469,0.562l0.312,0.656l0.781,0.469l0.969,0.281l1.594-0.406l1.781-0.312
		l1.156-0.188l1.375-0.312l0.75-0.375l0.469-0.344l1.062-0.656l1.406-0.406l1.031-0.031l1.312,0.219l1.094-0.125l0.688-0.5
		l0.906-1.344l0.844-0.125h1.188l1.405-0.188l1.345-0.312l1.125-0.062l1.312,0.219l1.125,0.375l1.094,0.406l1,0.188l0.656,0.219
		l0.719,0.562l1.062,1.188l1,0.906l0.812,0.594l1.375,1.594l0.719,1.062l0.75,0.688l1.125,0.656l1.125,0.188l0.97,0.062h0.938
		l1.281,0.125l1.156,0.125l1.28-0.156h1.031l0.688-0.688l0.905-0.438l0.688-0.188l0.844,0.25l1.125,0.031l1.438-0.469l1.531-0.594
		l2.375-1.031l1.53-0.875l1.125-0.656l0.938-0.531l0.75-0.281l0.531,0.125l1,0.875l1.405,0.875l0.625,0.469l0.812,0.625l0.938,0.688
		l1.595,0.094l1.438-0.156l1.688-0.531l1.25-1.031l1.125-0.469l2.688-3.25l2.156-2.375l4.562-3.562l4.344-4.062l3.031-2.781
		l2.062-2.094l0.812-0.781l0.375-0.156l0.375,0.344l0.562,0.625l0.625-0.094l0.625-0.406l1.188-0.5l0.47-0.125l0.594,0.219
		l1.188,0.719l0.531,0.25l1.188,0.344l1.125,0.156l1.812,0.125l1.062,0.25l1.312,0.438l1.312,0.594l0.562,0.156l0.656,0.188
		l0.688,0.688l0.562,0.906l0.25,0.406l0.656,0.156h0.812l1-0.5l0.469-0.25l0.75,0.406l0.5,1l0.345,0.719l0.03,0.531l0.625,0.188
		l1.156,0.094l1.406-0.219l1.905-0.75l1.531-0.906l1.312-0.344l0.875-0.312l1.219-0.25l0.938-0.562l2.25-1.469l1.97-0.75l0.594-1
		l0.531-0.656l0.812-0.344l0.781-0.75l0.5-0.188l0.344,0.188l0.625-0.031l0.406-0.438l0.562-0.156l1.062,0.125l0.281-0.906
		l0.594-0.469l0.688-0.25l0.344-0.25l0.438-0.125l0.875,0.312l1.062,0.344l1.188,0.125l1.844-0.125l1.062,0.25l1.062,0.469
		l1.405,1.062l1.156,0.969l1.281,1.125l0.938,1.031l0.406,0.406l0.719,0.188h0.531l0.625-0.156l0.781,0.062l0.688,0.531l0.656,0.188
		l0.406,0.344l0.375,0.281l1.125,0.281l0.719,0.094l0.812,0.125l0.688,0.406l0.875,0.75l0.406,0.375l0.938,0.281l0.938,0.344
		l0.656,0.25l1.25-0.062l0.75-0.312l0.594-0.5l0.906-0.125l0.844,0.375l0.812,0.281l1.438,0.469l0.719,0.281l0.781,0.219h0.812
		l1.781-0.969l1.094-0.375l1.812-0.125l1.625-0.188l1.03-0.281l1.22-0.344l2.53-0.25l1.095-0.906l1.405-0.406l2.656-0.25
		l1.281-0.406l0.969-1l1.844-1.594l1.75-1.656l1.25-1.125l0.656-0.469l0.75,0.344l1,0.625l0.469,0.438l0.406,0.406l0.938,0.156
		l1.78-0.188l2.188-0.844l1.5-0.25l1.938-1.188l0.719-0.812l0.312-0.438l0.875-0.031l1.062,0.219l1.188,0.188l1.031-0.344
		l1.312-0.031l0.531-0.656l0.562-0.375l1.188,0.031l0.656,0.219l1.469,0.531l1,0.719l1.125,0.344l1.25-0.281l0.875-0.156
		l0.625,0.125l1.188,0.25l1.5,0.125l2.53-0.438l1.562-0.062l1.312-0.094l0.78-0.062l1.656-0.031l1.562,0.156H816"/>
</g>
</svg>
