<?xml version="1.0" encoding="utf-8"?>
<!-- Generator: Adobe Illustrator 16.0.4, SVG Export Plug-In . SVG Version: 6.00 Build 0)  -->
<!DOCTYPE svg PUBLIC "-//W3C//DTD SVG 1.1//EN" "http://www.w3.org/Graphics/SVG/1.1/DTD/svg11.dtd">
<svg version="1.1" id="svg" xmlns="http://www.w3.org/2000/svg" xmlns:xlink="http://www.w3.org/1999/xlink" x="0px" y="0px"
	 width="1029.12px" height="683.52px" viewBox="0 0 1029.12 683.52" enable-background="new 0 0 1029.12 683.52"
	 xml:space="preserve">
<image overflow="visible" width="4288" height="2848" id="image" xlink:href="CG05_20050822_130000.JPG"  transform="matrix(0.24 0 0 0.24 0 0)">
</image>
<g id="horizon">
	<path fill="none" stroke="#FF0000" stroke-width="0.25" stroke-miterlimit="10" d="M0,175.375l1.5,0.312l1.312-0.25l1-0.375h1.062
		l1.312,0.25l1.125,0.625l1.312,0.438l1.875,0.812l0.812,0.062l1.625,0.188c0,0,0.562,0.188,0.75,0.25s1.5-0.25,1.5-0.25
		l2.562,0.375l3.062,0.875l1.688,0.938L25,181l2.062,0.562h0.375l2.625,0.75l3.562,1.375l3.062,0.938l2.25,1.125l0.812,0.188
		l1.125-0.25l1.312-0.375l2.062-0.688l2.562-0.5l3-0.5l1.438-0.25l1.812-0.438l0.688-0.188h1.812l1.562-0.5l1-0.75l1.062-0.75
		l1.875-0.125l3.75-0.25l1.875,0.25c0,0,0.812,0.188,1.062,0.312s1.188,0.438,1.188,0.438l1.812,0.375l3.312,0.688l3.938,0.75
		l2.438,0.938l1.938,0.688l1.812,1L86.062,187l0.75,0.375l2.562,0.75l2.125,0.5l2.062-0.062L95.688,188l1.562-0.375l2.312-0.438
		l0.75-0.625l1-0.312h1.438l1.875,0.062l3.062,0.562l1,0.312l1.125,0.125l0.812-0.438l3-1.062l1.688-0.625l2.188-0.062l1.062,0.062
		l1.125-0.562l1.75-0.688l0.562-0.25l1.625-0.062h1.062l1.375-0.625l0.812-1.25l1.75-1.312l1-0.5l1.188-0.125h2.438l1.938,0.062
		l2.5-2.062l1.875-1.688l1.562-1.312l0.5-0.938l1.375-1.188l0.875-0.562l0.188-1.25L144.25,170l1.188-0.812l0.812-0.625l0.938-0.625
		l1.125-1.25l1.812-0.938l1.5-0.75l1.312-0.688l1.125-0.75l1-1.125l1.438-1l2-1.562l2.812-2.312l3.875-3.438l2.812-1.562
		l1.062-0.875l0.75-0.812l1.188-1.562l1.375-1.5l1.125-2.25L174,144l1.25-1.438l0.438-0.5l1.062-1.312l1.5-2.188l1-1.312
		l1.188-0.812l1.375-0.438l2.125-0.75l1.312-0.812l0.688-1.125l1.938-3l1.562-2.188l1.125-1.562l1.125-1.188l1-0.938l1.75-2.25
		l1.375-0.938l2.25-1.562l2.062-1.375l2.125-1.75l1.188-1l3.312-1.875l2.375-1.125l2.5-0.812l2.062-0.812l1.375-0.688l0.438-0.5
		l1.438-0.562l1.625-0.5l0.75-0.188l1.062-1.5l1.688-1.312l1.75-0.75l1.875-2.625l2.5-1.25l1.625-1.312l1.562-0.688l1.312-0.688
		l1.75-0.812l1.438-0.438l1.438-0.188h2.062l2.062-1.125L243,95.375l2.625-0.125c0,0,0.562,0,1.062,0s2,0.188,2,0.188l1.125,0.25
		l1.625,0.562l0.812,0.062l2.25-0.438l1.062-0.062l1.688,0.062l0.562,0.312l1.562,0.312l1.438-0.062l1.438,0.188l1.875-0.062
		l1.5-0.312l1.438-0.875l3-0.062l1.625,1.25l1.75,1.5l0.938,0.375l1.25-0.312l0.688-0.812l1.188-0.938l2.312-0.938l1.625-0.562
		L283,94.812l1.625-0.062h1.688l1.625,0.625c0,0,1.312,0.875,1.5,1.062s1.125,1.688,1.125,1.688l0.312,0.25l2.438-0.688l3.562-0.438
		l2.188-0.25h2.25h1.938l1.875-0.875l4.062-2.312l4-1.938l2.562-1.438l1.875-0.562l1.25-0.75l4.875-2.562l2.688-1.312l1.188-0.875
		l2.312-1.25l2.625-1.062l2.5-0.25l3.312,0.062l2.438,0.812l0.938-0.188l1.062-0.938l3.562-2.062l2.25-1.375
		c0,0,1.062-1.125,1.312-1.188s1.062-1,1.062-1s2-1.438,2.312-1.562S356,73.5,356,73.5l2.375-0.562l3.062-0.875l3-0.25l1.75-0.188
		l1,0.25l0.938,0.438L368.938,73l0.75,1.25l0.688,1.062l1.188,0.75l2.562,1.375l0.562,1l0.938,0.5c0,0,1.312,0.688,1.562,0.75
		s1.5,0.562,1.5,0.562l2.125,1l1.75,1.625l1.25,0.5l1.312,0.562l1.438,0.625l1.062,0.188l1.125-0.062l1.188-0.125l2.312-1.062
		l2.688-0.188l2.125,0.125l1.25,0.562l1.188,0.5l1.75,0.062l1.312-0.25c0,0,0.25,0.062,0.625,0.188s1.5,0.562,1.5,0.562l0.812,0.5
		l1,0.625l1.188,1.312l0.812,1.75l1.688,3.125l0.688,0.812L412,93.312l1.062-0.188l1.25-0.375l1.562-0.438c0,0,1.75,0,2.125,0.125
		s1.688,0.25,2.188,0.5S422,93.5,422,93.5s1.188,0.125,1.438,0s2.5-1.438,2.5-1.438l1.75-0.562l1.938-0.062
		c0,0,1.125-0.25,1.562-0.188s1.875,0.125,1.875,0.125l1.812,0.938l1.688,2.125L438.75,97l1.438,2.375l1.188,1.688l4.25,4.375
		l3.75,4.5l3.375,3.25l4.062,4.312l2.312,2.5l2.125,1.562l1.375,0.562l1.812,0.312L465,123l0.562,0.625l1,1.375l0.875,1l1.25,1.375
		l1.375,1.312l2.625,1.688l4.562,2.812l3.938,2.562l4.562,2.688l3.375,1.938l3.188,1.625l3,1.562l1.75,1.438l1.125,1.25l3.188,2.875
		L503.5,151c0,0,1.188,1.188,1.438,1.438s2.25,2.25,2.25,2.25L509,156.5l1.583,0.667l1.583,1.25c0,0,1.083,1.083,1.167,1.333
		s1.833,1.417,1.833,1.417l1.417,0.833l2,1.417l2.75,2l2.25,0.5l0.75,2.25l1.583,1.917l1.167,1.333l1.25,1.083l1,1.167
		c0,0,0.75,1.25,1,1.583s1.083,1.5,1.083,1.5l1.584,0.583l3.166-0.583l2.25-1.083l1.25-0.667c0,0,0.084-0.25,0.417,0
		s0.583,0.417,0.75,0.75s0.5,0.75,0.5,0.75s0.501,0,0.917-0.167s1.666-1.083,1.666-1.083s1.667-0.667,1.917-0.667
		s3.583-0.917,3.583-0.917s0.416-0.25,0.75-0.417s2.25-0.5,2.25-0.5s0.25,0.083,0.5,0.25s0.916,0.834,1.25,1.167
		s0.917,0.583,0.917,0.583l1.833,0.167h2c0,0,0.168-0.917,1.584-0.833s2.25,0.333,2.25,0.333l1.5,0.5l2.25,0.583l3,1.75l2,1.5
		l1.5,0.917l2.083,1.417l0.667,0.25l1.166,0.333l0.667,0.75l1.667,1.667l2.166,0.5l1.75-0.083l1.5-0.333l0.834-0.25l1,0.25
		l0.75,0.583l0.75,0.667h0.666l1.25-1.5l1.75-2.667l0.834-0.583c0,0,0.666-0.75,1.083-0.833s2.75-0.5,2.75-0.5l2.5-0.083
		l2.334-0.583l2.333-0.75l1.917-0.583l1.5-0.25c0,0,0.75-0.083,1.083,0s1.917,0.083,1.917,0.083h1.916h2.25l2-0.083l1.25-0.083
		l1.167-0.25c0,0,1.25,0.833,1.75,1.333s1.917,1.75,2.25,2.083s0.999,1.25,1.333,1.583s1.75,2.25,2,2.5s1.417,2.833,1.417,2.833
		l1.417,1.417c0,0,0.666,0.167,0.916,0.167s1.417-0.333,1.667-0.5s2.083-1.25,2.083-1.25s1.334-0.667,1.584-0.75
		S637,185.75,637,185.75l2.25,0.25l1.5-0.583l2.75-0.833l2-1.333l1.833-1.083l1.334-0.917c0,0,1.25-0.166,1.75-0.083
		s3.083,0.083,3.083,0.083l1.167,0.833l2.25-0.5l2-0.833l1.416-0.917l2-0.917l1.334-0.917l1.166-0.417l1.667-0.083l0.917-0.167
		l2.916-1.25l1.167-0.583l1.917-0.083l1.416,0.417l3.25,1.417l1.75,0.5c0,0,1.417,1,1.667,1s2.25,1.25,2.5,1.333
		s1.667,0.417,1.667,0.417l1.583-0.25l3-1.417l2.833-0.083l3-0.333c0,0,2.084-0.333,2.584-0.583s2.583-1.167,2.583-1.167l2.167-0.25
		c0,0,1.499-0.5,1.916-0.667s1.167-0.417,1.167-0.417l2.167-0.25h2.416c0,0,0.416,0.333,0.75,0.417s2.167,0.083,2.167,0.083
		l3.75-1.417l2.583-1.583l2.917-1.167l2.167-1.25l2.25-1.083l1.666,0.25L730,170.5l1.333,1.667l3.334,5.333l2.166,2.917l0.667,0.667
		l4.583,1.833l4.667,2l3.5,1l2.333,0.75l1.584,1.167l4.25,3l4.333,3.583l1.833,2l1.917,2l2.333,1.75l1.667,0.5l2.25,0.083h1.75
		l3.417,0.917l1.083,1.167l1.333,1.417l1.417,0.833l1.583,0.083l2.75-0.833l2.917-1.167l2.5-2.083l1.75-0.833l3.083-0.167h2.334
		l1.25-1.167l0.833-1l0.75-0.667l2-0.167l1.917-0.25l2.083-0.583l1.583-0.667l2.167-0.333l1.667,0.083l2.083,0.833l3.417,1.667l3,2
		l2,1.333c0,0,2.499,2.583,2.666,2.833s1.584,1.333,1.584,1.333s0.749,0.5,1.416,1.083s2.5,1.833,2.5,1.833l3.167,0.417l2.167-0.167
		l2.083-0.333l1.333-1.333l1.584-1.167l1.583-0.083l2.5,0.25l4.918-2l5.917-3.417l1.75-1.083l1.333-1l0.917-0.083
		c0,0,0.751,0,0.917,0.25s1.583,0.917,1.583,0.917l2.167,0.5l2.333,1.333l1.917,0.5l2,0.25l3.416-0.417l1.417-1l1.333-1l2.834-1.583
		l2.333-2.833l2.667-4.25l2.25-2.833l4.416-4.75l5.167-5.417l4.25-4l5.5-6.083l1.5-1.5l0.667-0.25l0.666,0.75l0.584,0.583
		l1.75-0.417l0.916-0.917l1.5-0.417l1.584,0.167l0.75,0.583l1.333,0.167l0.917,0.083l2.667,0.5l4.333,0.833l2.5,0.5l1.5,0.333
		l1.417,0.167c0,0,1.083,0.167,1.333,0.417s0.501,0.583,0.584,0.917s0.583,1.083,0.583,1.083s0.417,0.167,0.75,0.25
		s1.583,0.083,1.583,0.083l2.334-0.75l0.666-0.5l0.834,0.25c0,0,0.334,0.167,0.5,0.75s1.166,2.083,1.166,2.083l2.5,0.75h1.417
		l0.75-0.333l1.083-0.5l1.25-1.083l1.25-0.583l2-0.333l3-1.333l1.584-0.75c0,0,0.916-0.5,1.333-0.583s1.25-0.583,1.25-0.583
		s0.834-0.333,1.167-0.75s1-0.75,1-0.75l1-0.583l3.833-3.167c0,0,0.666-1,1.083-1.583s1.084-1.083,1.084-1.083l1.75-1.167l1-0.25
		l2.083-0.083l1.083-1.333l0.667-0.833l0.833-0.167l2.5,0.083l2.417,0.083c0,0,1.917,0,2.667,0s3.416,0.333,3.416,0.333l2.334,0.667
		l2.333,2c0,0,1.001,1.25,1.167,1.583s1.416,1.167,1.416,1.167l2.333,0.25l2.667,0.167l1.25,0.417l2.583,0.833l1.333,0.833
		c0,0,0.5-0.167,0.75-0.25s2.167-0.083,2.167-0.083l1.75,0.75l1.417,0.917l2.083,0.833l2.417,0.083c0,0,0.5-0.167,0.833-0.25
		s0.833-0.417,1.083-0.417s1.5-0.417,1.5-0.417l0.75-0.25l1.584-1c0,0,0.249-0.25,0.666-0.333s1.084-0.167,1.084-0.167
		s1.582,0.083,2.166,0.333s1,0.25,1,0.25l1.75,0.333l1.334,0.917"/>
</g>
<g id="stars">
	<circle id="Altair" fill="#FF0000" cx="341.875" cy="30.672" r="0.25"/>
	<circle id="Tarazed" fill="#FF0000" cx="382.562" cy="8.578" r="0.25"/>
</g>
</svg>
