<?xml version="1.0" encoding="utf-8"?>
<!-- Generator: Adobe Illustrator 16.0.4, SVG Export Plug-In . SVG Version: 6.00 Build 0)  -->
<!DOCTYPE svg PUBLIC "-//W3C//DTD SVG 1.1//EN" "http://www.w3.org/Graphics/SVG/1.1/DTD/svg11.dtd">
<svg version="1.1" id="svg" xmlns="http://www.w3.org/2000/svg" xmlns:xlink="http://www.w3.org/1999/xlink" x="0px" y="0px"
	 width="1029.12px" height="683.52px" viewBox="0 0 1029.12 683.52" enable-background="new 0 0 1029.12 683.52"
	 xml:space="preserve">
<image overflow="visible" width="4288" height="2848" id="image" xlink:href="CG05_20050827_190000.JPG"  transform="matrix(0.24 0 0 0.24 0 0)">
</image>
<image overflow="visible" width="4288" height="2848" id="image-contrast" xlink:href="CG05_20050827_190000-b.JPG"  transform="matrix(0.24 0 0 0.24 0 0)">
</image>
<g id="terminus">
	<polyline fill="none" stroke="#FF0000" stroke-width="0.25" stroke-miterlimit="10" points="162.667,378.667 175.333,378 
		192.5,377.667 212.833,377 227.833,376.667 242.833,377.167 263.5,377.667 278.833,377.5 295.833,377.667 310,377.667 
		325.167,377.333 346.5,376.833 362,377.167 381.833,377.667 398.833,377.667 428.667,379.167 442.333,379.833 458.5,380.167 
		490.333,380.833 504.333,380.833 516.333,381.5 529.333,382.167 540.166,382.167 553.166,382.167 568,382.5 575.166,383.5 
		584.666,384.167 589.5,384.333 596.666,385.5 613.5,386.833 629.666,388.167 638,389 649.666,390.167 666,392 681.833,393 692,394 
		706,395.333 716.333,396.833 727.333,399.5 736.667,402.5 744.333,404.166 755.5,407 767,409.333 777.833,411.833 790.5,415.333 
		805.5,419.166 818.167,422.333 830.167,425 845,428.833 855.333,432.333 861.5,436.666 866.167,440.166 869.667,442.666 	"/>
	<polyline fill="none" stroke="#FF0000" stroke-width="0.25" stroke-miterlimit="10" points="872.167,452.499 877.833,454.333 
		880.667,455.333 884.333,459.166 889.167,463.333 893,465.666 899.167,470.666 905.167,475.666 	"/>
</g>
<g id="horizon">
	<polyline fill="none" stroke="#FF0000" stroke-width="0.25" stroke-miterlimit="10" points="0.099,175.9 4.336,175.627 
		7.89,176.31 10.145,177.335 13.425,178.087 15.68,178.292 18.277,177.95 20.464,178.565 22.377,179.932 26.956,181.709 
		30.51,182.734 34.337,184.306 39.531,186.493 43.152,186.288 46.228,184.853 48.688,183.827 52.378,183.417 55.863,183.212 
		58.871,181.914 60.852,180.82 65.5,181.5 72.5,182.833 82,185.167 88.667,188.667 92.833,189.333 98,188.167 102.167,187 
		105.667,187 109.667,187.667 114.5,187.167 118.667,185.667 125.833,184.333 127.167,182.833 130,180.833 134.5,180.333 
		137.333,179.167 141.333,175.667 144.167,173.333 144.333,170.833 146,169.167 149.167,167.667 155,164 160.667,158.333 
		167.333,153.833 171.333,150.333 172.833,147.833 174.667,143.833 177.5,140.333 179.167,138.167 181.333,136.667 184.667,135.333 
		187.167,132.833 191.167,126.834 196.834,121.167 204.834,115.5 210.5,112.834 215.334,111.5 219.167,109.5 223.834,105.667 
		228.667,101 234.667,98.667 240.5,96.667 246.667,95.667 252.167,96.667 257.667,96.5 261.834,96.834 264.167,97 267,96.334 
		269.5,96.334 272.167,97 276.5,97.834 280.334,95.667 284.667,95.334 289.334,96.334 291.5,98.167 295,98.334 303.334,97 
		311.334,93.834 319.5,90.334 325.5,85.834 329.333,84.334 335.333,82.5 338.833,82.667 342.833,82.667 346.167,81.5 
		348.667,78.667 352,76.167 355,74 359.167,72.5 362.5,72.167 364.833,71.667 367.667,71.667 369.5,73.334 371.167,75.334 
		373.667,77.667 379,80.667 383.5,83 386.833,84.834 390.833,84.5 397.333,83.334 401.5,84 406,85.334 408.833,88 410.333,90.167 
		411.167,91.834 412.5,92.5 415.5,92.5 420.167,93.834 423.167,94 425.667,92.5 429.5,92 431.5,91.834 433,91.167 435.667,92.834 
		438.833,95.834 440.333,99.167 445.5,105.167 452.667,113 458.833,119.834 464,122.667 467,124.5 469,126.834 471.5,130.334 
		475.5,132.167 479.667,134.334 486.667,138.667 492.667,142.5 497.667,145.583 500.583,148.333 504.75,151.333 507.667,154.499 
		508.75,155.499 511.333,157.166 513.667,158.999 516,161.083 520.917,164.416 523.417,165.499 525,167.416 527.084,170.749 
		531.084,175.583 532.25,176.916 534.5,177.749 536.834,177.083 539.5,175.583 541.667,175.583 543.25,175.999 546,174.916 
		548.75,174.249 550.584,173.499 553.5,173.166 555.834,174.416 558.584,175.083 560.917,174.166 563.834,174.333 567.667,176.249 
		571.334,178.666 575.75,181.249 577.5,181.832 578.75,182.666 580,184.166 582,184.999 584.334,183.749 585.75,183.749 
		588,184.332 589.834,185.082 591,183.082 593.334,180.832 594.75,180.082 596.25,179.916 598.834,180.416 600.667,178.999 
		602.667,177.749 606.084,176.916 609.25,176.832 611,177.582 612.417,177.999 614.75,177.332 616.917,176.916 619.417,177.416 
		621.584,179.082 624,181.999 626.5,184.749 628.75,187.416 629.25,188.666 632,187.582 635.584,187.166 637.25,186.249 
		639.167,186.666 641.167,185.832 644,184.249 647.167,181.999 650.667,181.249 653.667,181.666 654.75,182.416 656.334,182.499 
		660.5,180.082 665.25,177.582 670.418,176.166 672.168,175.082 674.918,175.832 677.085,177.499 679.835,178.666 681.168,178.749 
		683.752,179.416 686.835,180.999 688.918,179.666 693.002,178.499 696.252,178.499 698.252,177.499 700.752,176.582 
		702.918,176.416 704.752,176.416 709.502,175.249 711.418,175.249 713.252,176.166 717.918,174.416 723.668,171.249 
		727.085,169.916 729.252,169.332 730.252,169.832 731.503,172.249 732.837,174.499 734.67,176.082 736.337,177.999 
		736.837,179.332 738.17,180.416 742.587,182.416 746.837,184.082 749.42,185.082 751.837,185.916 757.92,189.582 761.67,192.998 
		763.336,195.081 766.17,197.915 768.003,199.581 771.086,200.915 774.503,201.081 777.42,201.665 780.42,203.665 781.836,205.081 
		785.503,204.415 789.67,202.581 796.753,200.581 803.003,197.748 808.253,196.415 812.836,195.415 817.086,196.665 
		820.586,198.831 824.503,202.165 828.92,206.331 831.086,207.665 834.42,208.498 838.42,207.665 843.337,206.581 847.42,205.581 
		851.087,204.665 853.67,202.998 857.003,200.331 859.087,198.498 861.17,198.248 864.92,199.498 867.503,200.915 870.17,201.998 
		873.087,201.415 876.253,200.581 878.837,199.498 882.003,196.831 884.753,192.915 887.337,188.998 890.003,186.165 
		896.671,179.748 901.588,174.081 906.754,168.748 909.088,167.081 910.504,165.831 912.254,165.248 914.254,165.415 
		917.671,166.331 919.004,167.415 922.754,168.331 926.671,168.415 930.754,168.831 933.421,169.165 936.838,170.081 
		940.004,170.415 941.588,171.165 942.754,172.915 944.754,173.998 949.421,173.581 951.588,171.748 954.254,171.165 
		957.171,170.331 958.921,169.665 961.588,167.498 965.671,164.415 967.671,162.498 971.088,160.165 973.254,158.998 
		977.172,156.831 980.755,156.581 984.505,156.581 989.588,157.081 991.505,158.331 995.005,160.748 997.672,162.415 
		1002.005,163.498 1004.172,164.415 1006.672,165.081 1009.838,165.248 1012.755,165.998 1014.505,166.831 1016.755,166.998 
		1020.005,165.581 1022.338,164.748 1026.422,164.748 1029.119,165.081 	"/>
</g>
</svg>
