<?xml version="1.0" encoding="utf-8"?>
<!-- Generator: Adobe Illustrator 16.0.4, SVG Export Plug-In . SVG Version: 6.00 Build 0)  -->
<!DOCTYPE svg PUBLIC "-//W3C//DTD SVG 1.1//EN" "http://www.w3.org/Graphics/SVG/1.1/DTD/svg11.dtd">
<svg version="1.1" id="svg" xmlns="http://www.w3.org/2000/svg" xmlns:xlink="http://www.w3.org/1999/xlink" x="0px" y="0px"
	 width="1029.12px" height="683.52px" viewBox="0 0 1029.12 683.52" enable-background="new 0 0 1029.12 683.52"
	 xml:space="preserve">
<image overflow="visible" width="4288" height="2848" id="image" xlink:href="CG05_20050914_190000.JPG"  transform="matrix(0.24 0 0 0.24 0 0)">
</image>
<g id="gcp">
	<circle id="blotch" fill="#FF0000" cx="32.773" cy="303.973" r="0.25"/>
	<circle id="nipple" fill="#FF0000" cx="515.062" cy="240.812" r="0.25"/>
	<circle id="splitrock" fill="#FF0000" cx="625.75" cy="254" r="0.25"/>
	<circle id="cluster" fill="#FF0000" cx="633" cy="261.188" r="0.25"/>
	<circle id="kadin-cairin" fill="#FF0000" cx="662" cy="189.938" r="0.25"/>
	<circle id="BBCFG" fill="#FF0000" cx="368.958" cy="657.917" r="0.25"/>
</g>
<g id="coast">
	<polyline fill="none" stroke="#FF0000" stroke-width="0.25" stroke-miterlimit="10" points="0.084,392.917 4.167,392.667 
		9.75,392.75 16.167,392.083 20.334,392 27.25,391.75 36.5,391.417 41.417,391.333 48.584,391.333 52.584,391 56.5,390.917 
		60.25,391 67.084,390.917 72.417,390.667 77.417,390.667 81.417,390.5 84,390.583 86.417,391.083 88.5,391.167 93.25,390.667 
		97.084,390.417 101.25,389.917 102.417,389.417 	"/>
	<polyline fill="none" stroke="#FF0000" stroke-width="0.25" stroke-miterlimit="10" points="106.583,386.917 108,386 111.083,385 
		114.25,384.5 	"/>
</g>
<g id="horizon">
	<path fill="none" stroke="#FF0000" stroke-width="0.25" stroke-miterlimit="10" d="M0.055,179.607l2.334-0.32l1.739-0.275
		l1.419,0.183l2.289,1.007l1.19,0.549l1.556,0.366l2.472,0.412l2.151-0.046l1.419,0.092l1.647,0.458l2.884,1.19l1.923,0.916
		l1.785,0.778l1.327,0.366l1.465,0.366l1.19,0.229l1.51,0.687l1.739,0.778l0.916,0.091l1.145,0.138l0.87,0.549l1.602,0.732
		l1.74,0.961l1.693,0.229l1.419-0.183l2.243-0.961l1.876-0.549l2.518-0.549l2.747-0.366l2.105-0.412l1.374-0.229l1.19-0.229
		l1.053-0.458l0.916-0.595l1.374-0.961l1.602-0.183l2.06,0.138h1.969l1.694,0.137l1.282,0.503l1.647,0.549l2.197,0.229l1.922,0.32
		l3.159,0.595l2.334,0.778l3.25,1.236l1.831,0.824l0.87,0.412l0.87,0.641l0.229,0.458l1.19,0.458l1.785,0.549l2.151,0.458
		l1.557,0.229l1.236-0.091l1.19-0.687l2.197-0.458l1.831-0.183l0.87-0.458l0.778-0.412l1.099-0.32l1.602,0.137l1.694,0.046
		l1.511,0.366l1.968,0.595l1.785-0.183l1.373-0.458l1.694-0.87l1.922-0.595l0.641-0.137l1.282,0.183h0.824l1.19-0.549l1.145-0.503
		l1.236-0.458l2.289-0.091l1.282,0.045l1.648-1.739l0.87-1.099l1.419-0.778l1.877-0.366l1.968,0.092l1.922,0.183l0.641-0.641
		l1.19-1.145l1.74-1.465l1.831-1.419l1.145-1.145l1.236-1.236l0.549-0.641l0.366-0.732l0.275-0.961l0.091-0.778l0.641-0.687
		l1.099-0.595l2.06-0.732l1.739-1.556l2.151-0.961l2.151-1.327l1.511-1.831l2.792-2.243l2.701-2.38l1.831-1.099l1.648-1.19
		l0.549-0.824l1.145-0.824l1.098-0.595l1.557-0.87l1.327-1.511l1.511-1.968l1.007-1.602l0.504-0.916l0.503-1.555l0.595-1.282
		l1.373-1.282l0.87-0.641l0.595-1.282l1.19-1.785l1.007-1.099l1.007-0.824l1.419-0.458l1.236-0.503l0.961-0.412l0.961-0.366
		l0.687-0.687l1.144-1.373l1.053-2.014l0.778-0.961l2.518-3.432l0.824-0.778l1.007-0.961l0.916-1.374l1.648-1.647l2.609-2.014
		l1.968-1.282l3.205-2.425l3.662-1.648l3.799-1.877l3.021-0.916l1.557-0.916l0.687-0.641l1.053-0.732l1.419-0.32l1.145-0.229
		l1.648-1.876l1.876-1.371l1.236-1.053l0.641-1.099l0.595-0.687l1.51-1.053l1.602-0.916l1.557-0.87l2.838-1.19l2.105-0.778
		l2.197-0.183l2.06-0.046l1.236-0.778l1.556-0.549l1.602-0.366l2.747-0.137l2.105-0.091l1.19,0.229l1.19,0.687l1.053,0.458
		l1.831-0.778l1.51-0.32l1.786,0.092l1.785,0.595h2.884h2.105l1.19-0.183l1.19-0.641l2.06-0.137l2.06,0.412l2.197,1.282l1.282,1.145
		l0.87,0.137l1.786-0.824l1.785-1.465l1.373-0.503l1.511-0.687l1.19-0.32l1.19,0.412l1.831-0.229l1.099,0.275l0.916,0.503
		l1.235,0.137l0.687,0.87c0,0,0.732,0.961,0.824,1.099s0.458,0.824,0.458,0.824l1.328,0.091l1.511-0.549l1.693-0.641l1.511-0.412
		l2.289-0.366l1.877,0.229l2.151-0.137l1.419-0.504l2.518-1.144l2.014-1.328l3.524-1.785l2.792-1.373l1.374-0.091l3.158-1.465
		l4.257-2.701l3.753-2.242l1.648-0.687l2.243-0.641l1.785-0.732h1.968l2.976,0.229l1.464,0.32l1.282,0.229l0.824-0.229l1.602-1.236
		l2.06-1.511l2.06-1.007l1.648-1.602l2.379-2.104l2.701-1.19l3.296-1.099l3.067-0.549l2.655-0.595l2.06-0.229l2.701,0.595
		l1.099,0.778l0.595,0.916l0.321,0.824l0.229,0.961l0.916,0.641l1.282,0.595l0.732,0.275l0.732,1.007l0.961,0.87l1.693,0.687
		l2.289,0.504l0.961,0.595l0.961,0.503l0.503,0.824l0.595,0.595l1.099,0.275l1.098,0.366l0.824,0.687l1.19,0.503l0.87,0.183
		l1.236,0.183l1.145-0.503l2.655-0.549l1.831,0.046l1.465-0.229h1.785l1.282,0.458l1.19,0.458l1.556-0.274l0.961-0.046l1.236,0.412
		l0.503,0.32l1.007-0.137l0.641-0.046l0.595,1.007l0.274,0.641l0.412,0.32l0.687,0.366l0.778,1.693l1.19,2.334l0.916,1.785
		l0.503,0.961l0.778-0.183l1.099-0.87l1.145-0.503l2.151,0.091l1.876,0.366c0,0,0.916,0.091,1.053,0.183s2.06,0.412,2.06,0.412
		l0.961,0.366l1.832-0.87l2.426-1.099l2.609-0.549l2.472-0.183l1.419,0.091l0.732,0.275l1.19,1.099l0.504,0.916l1.327,1.007
		l1.145,1.007l0.732,1.19l0.916,0.824l0.412,1.648l0.732,1.785l1.374,0.732l1.282,1.602l1.373,1.328l1.602,1.693l3.433,3.614
		l1.876,2.289l2.747,2.655l3.662,3.753l2.197,2.105l1.556,1.419l1.693,0.045l1.282,0.549l0.87,0.549l0.504,1.145l0.595,0.87
		l0.916,0.549l0.732,1.328l0.778,1.19l3.799,2.38l5.218,3.021l3.479,2.104l2.792,1.694l2.655,1.647l3.204,1.694l4.166,2.38
		l1.831,1.282l1.511,1.373l1.648,1.648l1.464,1.373l1.786,1.419l2.746,2.288l1.282,1.648l0.824,1.282l0.824,0.641l1.19,0.503
		l1.145,0.595l0.778,0.458l0.916,0.961l0.778,0.87l2.06,0.87l1.419,0.913l1.19,0.687l1.053,1.282l1.099,0.824l2.242,1.19
		l1.008,0.504l0.595,0.274c0,0,0.32,0.733,0.366,0.961s0.32,1.144,0.32,1.144l0.504,0.916l0.595,0.641l0.961,1.282l1.053,1.098
		l0.275,0.961l0.641,0.458l0.915,0.595l0.687,1.007l0.824,1.693l0.962,0.595l0.687,0.137l1.373-0.183l2.243-0.687l1.464-0.274
		l0.732-0.549l0.688-0.641h0.503l0.595,0.595l0.596,0.732l0.732,0.32l1.373-0.595l0.778-0.778l2.426-0.595l1.557-0.595l1.373-0.32
		l0.869-0.274l1.328-0.595l0.687-0.458l0.824,0.275l0.869,0.87l1.327,1.007l1.282,0.275l1.739,0.183l1.053-0.32l1.19-0.87
		l1.647-0.183l1.557,0.458l1.602,0.732l1.374,0.458l1.647,1.099l1.831,1.19l1.557,0.961l1.235,0.778l1.053,0.641l0.87,0.87
		l0.824,0.412l1.235-0.045l0.549,0.503l0.596,0.732l0.732,0.87l0.641,0.549l0.687,0.412l1.236,0.045h1.602l0.916-0.366l1.647-0.504
		l1.19,0.275l1.235,1.053l0.275,0.595l0.411,0.412l0.732-0.412l0.229-0.595l0.32-1.145l0.732-1.785l1.053-1.144l1.281-0.824
		l1.19-0.366l1.053-0.091l1.19,0.091l1.327,0.32l1.877-0.641l1.053-0.824l1.236-0.732l1.281-0.183h1.327l0.824-0.504l1.511-0.274
		l1.419-0.091l1.281,0.503l1.373,1.327l0.55,0.504l0.869-0.092l0.778-1.053l0.732-0.916l0.962-0.32l0.777,0.274h0.962l0.823-0.412
		l0.916-0.092l1.007,0.458l0.458,0.824l1.235,1.145l1.328,0.824l0.229,0.824l0.641,1.282l0.962,0.87l0.777,0.687l0.504,0.549
		l1.007,1.098l1.465,2.243l0.274,0.824l0.504,0.641l0.274,0.366l0.87-0.275l0.229-0.687l0.687,0.092l0.229,0.137l0.503-0.687
		l0.641-0.138l1.328-0.687l0.732-0.229h0.732l0.732,0.183l1.099-1.007l0.777-0.046l0.916,0.183l0.32,0.778h1.327l0.642-0.732
		l0.457-0.687l0.732-0.458l0.732-0.045l0.87,0.045l0.503-0.549l0.55-0.641l1.693-0.458l0.869-0.412l0.366-0.87l0.412-0.458
		l1.465,0.275l1.831-0.046h0.595l0.916-0.274l0.687,0.183l0.503,0.687l1.236,0.503l1.557-0.732l1.327-1.007l0.824-0.229l1.647-0.916
		l2.151-1.328l1.327-0.916l0.642-0.458l0.915-0.046l0.915,0.183l1.786-0.091l1.007-0.687l1.373-0.732l0.824-0.412h1.281l1.236,0.091
		l0.503,0.687l1.647,0.732l1.053,0.32l1.327,0.732l0.961,0.32h0.962l1.281,0.137l1.419,0.503l1.327,0.916l1.008,0.732l0.549,0.412
		l0.961-0.229l0.642-0.595l0.777-0.091l1.054-0.641l0.595-0.641l0.641-0.503l0.87,0.091l0.366,0.366l1.327-0.32l0.824-0.274
		l0.961,0.183l0.184,0.412l1.235-0.503l1.373-0.87l1.465-0.32l0.962-0.503l1.053-0.275l1.327,0.092l0.32,0.32l1.236-0.183
		l1.647-0.824l2.746-0.549l1.557-0.045l0.824-0.138l0.778,0.458l0.32,0.687l1.465-0.046l1.647-0.458l1.465-0.595l1.419-0.732
		l0.641-0.549h0.87l1.235-1.007l0.732-0.595l1.099-0.687h0.824h0.458l0.915-0.641l0.732-0.687l0.732-0.412h1.785l0.366-0.275
		l0.412-0.274l0.824,0.412l0.961,2.152l1.831,2.701l1.557,2.06l1.281,0.778c0,0,0.091,0.641,0.229,0.87s0.366,1.327,0.366,1.327
		l0.596,1.19l0.137,0.687l0.778,0.412l1.465,0.183l1.327,0.824l1.145,0.32l1.419,0.229l1.145,0.778l1.465,0.824l1.465,0.046
		l1.739,0.732l0.87,0.366h2.38l0.732,1.007c0,0,0.731,0.366,0.915,0.32s1.282-0.091,1.282-0.091l0.366,0.778l0.549,0.641
		l0.687,0.502l2.472,1.648l2.609,2.105l1.968,1.739l1.236,1.968l1.145,1.236l1.099,1.053l0.915,0.549l0.687,0.687l1.511,0.366
		l2.288,0.458l2.197,0.046l1.465-0.046l0.962,0.32l1.189,0.961l1.236,1.145l1.053,0.824l0.412,0.641l1.327,0.458l1.053-0.229
		l0.596-0.503l1.189-0.274l1.465-0.549l0.732-0.458l0.458-0.229l0.503,0.137l1.328-1.007l1.327-0.87l0.961-0.183l0.642-0.595
		l0.777-0.412l1.282-0.275l1.281,0.183l1.877,0.321l1.236-0.366l0.641-0.641l0.595-0.961l0.366-0.915l0.824-0.229l1.19-0.137h2.928
		l1.557-0.504l1.739-0.366h1.465l0.549-1.053h1.19l1.647,0.366l0.642,0.732l0.869,0.366l1.327-0.046l0.778,0.046l1.19,0.87
		l1.145,1.374l0.641,0.824l1.145,0.183l1.693,1.19l1.693,1.557l1.099,1.465l1.328,1.327l1.327,0.778l1.145,1.236l1.189,0.64
		l1.693,0.412l1.054-0.045l1.785,0.183l1.144-0.138l1.099-0.274h1.328l1.099-0.275l0.869-1.19l0.732-0.549l1.693-0.503h1.557
		l1.099,0.046l1.557-0.549l0.229-0.321l0.824-0.366l1.877-0.274l1.602-0.595l1.282-0.916l1.739-1.282l1.739-1.053l1.464-0.961
		l1.42-0.732l0.777-0.412l0.778-0.046l0.732,0.503l0.229,0.504l1.053,0.412l1.831,0.732l1.373,0.412l1.556,0.503l1.008,0.732
		l0.595,0.503"/>
	<polyline fill="none" stroke="#FF0000" stroke-width="0.25" stroke-miterlimit="10" points="875.434,205.239 877.631,203.774 
		879.6,202.539 882.392,199.655 883.811,197.687 884.771,195.672 885.688,194.345 886.786,193.612 887.335,192.789 887.747,191.919 
		889.212,191.049 889.99,190.225 890.631,188.989 891.18,188.165 892.92,186.929 894.979,184.824 897.177,182.398 899.19,180.201 
		900.243,179.285 901.525,177.866 902.669,176.813 903.311,175.76 903.768,175.028 905.324,173.702 906.377,172.329 
		907.613,171.001 908.3,170.085 908.803,170.131 909.215,170.772 910.177,171.55 911.504,171.596 912.19,170.955 913.061,170.452 
		914.204,169.765 915.257,170.177 915.669,170.772 916.355,171.138 917.5,171.138 918.37,171.275 919.285,171.871 920.292,172.557 
		923.587,172.283 927.021,172.466 928.622,172.786 930.271,173.198 931.964,173.244 933.795,174.297 934.115,175.029 
		934.665,175.624 935.764,176.265 937.319,176.082 938.464,175.579 939.334,174.892 939.975,174.708 940.981,174.892 
		941.165,175.853 941.302,176.631 941.806,177.364 942.446,178.142 943.453,178.233 945.284,178.508 946.566,178.508 
		947.894,177.913 948.534,177.455 950.226,176.357 951.416,175.67 954.071,174.664 955.261,174.251 956.863,174.16 958.145,173.839 
		959.747,172.787 961.853,170.772 965.285,167.935 968.261,165.143 970.642,163.175 972.381,162.9 973.571,162.671 974.578,161.801 
		975.401,160.932 976.5,160.611 977.828,160.703 980.3,160.932 984.282,161.252 986.204,161.069 988.722,161.847 992.155,164.09 
		993.895,166.379 994.353,166.791 995.954,166.562 996.87,166.516 998.197,166.928 999.662,166.379 1000.577,166.928 
		1002.042,167.981 1003.369,168.439 1004.331,169.171 1006.619,169.812 1007.672,169.4 1008.725,169.217 1010.556,170.132 
		1011.06,170.819 1011.975,171.14 1013.211,171.46 1014.447,171.46 1015.225,171.185 1016.461,170.59 1018.108,170.453 
		1019.437,169.995 1021.404,168.759 1022.182,168.484 1024.471,168.988 1026.256,169.446 1027.858,169.766 1029.048,170.086 	"/>
</g>
</svg>
