<?xml version="1.0" encoding="utf-8"?>
<!-- Generator: Adobe Illustrator 16.0.4, SVG Export Plug-In . SVG Version: 6.00 Build 0)  -->
<!DOCTYPE svg PUBLIC "-//W3C//DTD SVG 1.1//EN" "http://www.w3.org/Graphics/SVG/1.1/DTD/svg11.dtd">
<svg version="1.1" id="svg" xmlns="http://www.w3.org/2000/svg" xmlns:xlink="http://www.w3.org/1999/xlink" x="0px" y="0px"
	 width="968px" height="648px" viewBox="0 0 968 648" enable-background="new 0 0 968 648" xml:space="preserve">
<image overflow="visible" enable-background="new    " width="3872" height="2592" xlink:href="AK01_20070922_230210.JPG"  transform="matrix(0.25 0 0 0.25 0 0)">
</image>
<image overflow="visible" enable-background="new    " width="3872" height="2592" xlink:href="AK01_20070922_230210-synth.JPG"  transform="matrix(0.25 0 0 0.25 0 0)">
</image>
<g id="points">
	
		<line fill="none" stroke="#ED1F24" stroke-width="0.25" stroke-miterlimit="10" x1="279.246" y1="167.632" x2="286.3" y2="166.42"/>
	
		<line fill="none" stroke="#ED1F24" stroke-width="0.25" stroke-miterlimit="10" x1="239.979" y1="178.749" x2="247.391" y2="177.323"/>
	
		<line fill="none" stroke="#ED1F24" stroke-width="0.25" stroke-miterlimit="10" x1="462.208" y1="184.917" x2="466.167" y2="184.125"/>
	
		<line fill="none" stroke="#ED1F24" stroke-width="0.25" stroke-miterlimit="10" x1="443.875" y1="185.208" x2="448.083" y2="184.333"/>
	
		<line fill="none" stroke="#ED1F24" stroke-width="0.25" stroke-miterlimit="10" x1="420.042" y1="182.167" x2="424.75" y2="181.375"/>
	
		<line fill="none" stroke="#ED1F24" stroke-width="0.25" stroke-miterlimit="10" x1="392.817" y1="187.154" x2="398.136" y2="186.199"/>
	
		<line fill="none" stroke="#ED1F24" stroke-width="0.25" stroke-miterlimit="10" x1="388.625" y1="181.625" x2="393.875" y2="180.625"/>
	
		<line fill="none" stroke="#ED1F24" stroke-width="0.25" stroke-miterlimit="10" x1="442.062" y1="178.812" x2="446.375" y2="177.938"/>
	
		<line fill="none" stroke="#ED1F24" stroke-width="0.25" stroke-miterlimit="10" x1="453.984" y1="176.797" x2="457.938" y2="176.141"/>
	
		<line fill="none" stroke="#ED1F24" stroke-width="0.25" stroke-miterlimit="10" x1="453.922" y1="175.875" x2="458.016" y2="175.281"/>
	
		<line fill="none" stroke="#ED1F24" stroke-width="0.25" stroke-miterlimit="10" x1="714.458" y1="201.768" x2="713.706" y2="200.18"/>
	
		<line fill="none" stroke="#ED1F24" stroke-width="0.25" stroke-miterlimit="10" x1="772.193" y1="192.411" x2="771.107" y2="190.99"/>
	
		<line fill="none" stroke="#ED1F24" stroke-width="0.25" stroke-miterlimit="10" x1="769.434" y1="228.507" x2="768.097" y2="226.083"/>
	
		<line fill="none" stroke="#ED1F24" stroke-width="0.25" stroke-miterlimit="10" x1="905.628" y1="178.04" x2="905.461" y2="175.868"/>
	
		<line fill="none" stroke="#ED1F24" stroke-width="0.25" stroke-miterlimit="10" x1="845.466" y1="192.328" x2="844.129" y2="190.406"/>
	
		<line fill="none" stroke="#ED1F24" stroke-width="0.25" stroke-miterlimit="10" x1="956.762" y1="324.344" x2="956.127" y2="320.51"/>
	
		<line fill="none" stroke="#ED1F24" stroke-width="0.25" stroke-miterlimit="10" x1="888.326" y1="231.182" x2="886.572" y2="228.676"/>
	
		<line fill="none" stroke="#ED1F24" stroke-width="0.25" stroke-miterlimit="10" x1="933.029" y1="204.864" x2="932.277" y2="201.855"/>
	
		<line fill="none" stroke="#ED1F24" stroke-width="0.25" stroke-miterlimit="10" x1="928.684" y1="206.368" x2="927.849" y2="203.443"/>
	
		<line fill="none" stroke="#ED1F24" stroke-width="0.25" stroke-miterlimit="10" x1="565.875" y1="281.875" x2="567.125" y2="279.375"/>
	<line fill="none" stroke="#ED1F24" stroke-width="0.25" stroke-miterlimit="10" x1="378.25" y1="236" x2="384" y2="234.125"/>
	
		<line fill="none" stroke="#ED1F24" stroke-width="0.25" stroke-miterlimit="10" x1="152.125" y1="251.25" x2="159.875" y2="248.5"/>
	<line fill="none" stroke="#ED1F24" stroke-width="0.25" stroke-miterlimit="10" x1="224.375" y1="238" x2="230.625" y2="236.875"/>
	
		<line fill="none" stroke="#ED1F24" stroke-width="0.25" stroke-miterlimit="10" x1="245.5" y1="219.375" x2="253.875" y2="217.625"/>
	
		<line fill="none" stroke="#ED1F24" stroke-width="0.25" stroke-miterlimit="10" x1="232.886" y1="180.995" x2="240.481" y2="179.486"/>
	
		<line fill="none" stroke="#ED1F24" stroke-width="0.25" stroke-miterlimit="10" x1="308.961" y1="171.293" x2="315.735" y2="170.459"/>
	
		<line fill="none" stroke="#ED1F24" stroke-width="0.25" stroke-miterlimit="10" x1="370.853" y1="206.043" x2="376.792" y2="204.963"/>
	
		<line fill="none" stroke="#ED1F24" stroke-width="0.25" stroke-miterlimit="10" x1="386.166" y1="176.938" x2="391.417" y2="176.153"/>
	
		<line fill="none" stroke="#ED1F24" stroke-width="0.25" stroke-miterlimit="10" x1="401.43" y1="173.159" x2="406.731" y2="172.423"/>
	
		<line fill="none" stroke="#ED1F24" stroke-width="0.25" stroke-miterlimit="10" x1="412.228" y1="178.264" x2="416.939" y2="177.38"/>
	
		<line fill="none" stroke="#ED1F24" stroke-width="0.25" stroke-miterlimit="10" x1="455.125" y1="184.89" x2="458.953" y2="184.104"/>
	
		<line fill="none" stroke="#ED1F24" stroke-width="0.25" stroke-miterlimit="10" x1="827.321" y1="198.265" x2="826.242" y2="196.108"/>
	
		<line fill="none" stroke="#ED1F24" stroke-width="0.25" stroke-miterlimit="10" x1="732.812" y1="207.377" x2="731.949" y2="206.029"/>
	
		<line fill="none" stroke="#ED1F24" stroke-width="0.25" stroke-miterlimit="10" x1="648.481" y1="228.44" x2="648.481" y2="226.877"/>
	
		<line fill="none" stroke="#ED1F24" stroke-width="0.25" stroke-miterlimit="10" x1="520.876" y1="220.042" x2="523.251" y2="218.75"/>
	
		<line fill="none" stroke="#ED1F24" stroke-width="0.25" stroke-miterlimit="10" x1="516.001" y1="219.833" x2="518.792" y2="218.5"/>
	
		<line fill="none" stroke="#ED1F24" stroke-width="0.25" stroke-miterlimit="10" x1="469.933" y1="194.738" x2="473.568" y2="193.961"/>
	
		<line fill="none" stroke="#ED1F24" stroke-width="0.25" stroke-miterlimit="10" x1="329.651" y1="180.739" x2="336.048" y2="179.646"/>
	
		<line fill="none" stroke="#ED1F24" stroke-width="0.25" stroke-miterlimit="10" x1="347.27" y1="191.934" x2="353.4" y2="190.868"/>
	
		<line fill="none" stroke="#ED1F24" stroke-width="0.25" stroke-miterlimit="10" x1="295.162" y1="179.731" x2="302.047" y2="178.463"/>
	
		<line fill="none" stroke="#ED1F24" stroke-width="0.25" stroke-miterlimit="10" x1="263.269" y1="175.38" x2="270.702" y2="174.084"/>
	
		<line fill="none" stroke="#ED1F24" stroke-width="0.25" stroke-miterlimit="10" x1="338.766" y1="249.47" x2="344.952" y2="246.711"/>
	
		<line fill="none" stroke="#ED1F24" stroke-width="0.25" stroke-miterlimit="10" x1="761.917" y1="201.083" x2="760.833" y2="199.333"/>
	
		<line fill="none" stroke="#ED1F24" stroke-width="0.25" stroke-miterlimit="10" x1="901.816" y1="281.368" x2="900.769" y2="278.53"/>
	
		<line fill="none" stroke="#ED1F24" stroke-width="0.25" stroke-miterlimit="10" x1="948.532" y1="161.107" x2="948.651" y2="158.831"/>
	
		<line fill="none" stroke="#ED1F24" stroke-width="0.25" stroke-miterlimit="10" x1="943.501" y1="201.953" x2="943.021" y2="199.318"/>
	
		<line fill="none" stroke="#ED1F24" stroke-width="0.25" stroke-miterlimit="10" x1="949.49" y1="214.171" x2="949.011" y2="211.296"/>
	
		<line fill="none" stroke="#ED1F24" stroke-width="0.25" stroke-miterlimit="10" x1="966.619" y1="214.531" x2="966.38" y2="211.296"/>
	
		<line fill="none" stroke="#ED1F24" stroke-width="0.25" stroke-miterlimit="10" x1="896.426" y1="154.04" x2="895.947" y2="152.603"/>
	
		<line fill="none" stroke="#ED1F24" stroke-width="0.25" stroke-miterlimit="10" x1="878.817" y1="171.049" x2="878.219" y2="168.893"/>
	
		<line fill="none" stroke="#ED1F24" stroke-width="0.25" stroke-miterlimit="10" x1="917.269" y1="167.935" x2="917.028" y2="166.138"/>
	<line fill="none" stroke="#ED1F24" stroke-width="0.25" stroke-miterlimit="10" x1="958.234" y1="155.717" x2="958.5" y2="153.5"/>
	
		<line fill="none" stroke="#ED1F24" stroke-width="0.25" stroke-miterlimit="10" x1="908.812" y1="144.312" x2="908.375" y2="142.062"/>
	<line fill="none" stroke="#ED1F24" stroke-width="0.25" x1="412.127" y1="418.91" x2="417.055" y2="411.93"/>
	
		<line fill="none" stroke="#ED1F24" stroke-width="0.25" stroke-miterlimit="10" x1="482.932" y1="305.922" x2="485.807" y2="302.928"/>
	
		<line fill="none" stroke="#ED1F24" stroke-width="0.25" stroke-miterlimit="10" x1="363.148" y1="286.278" x2="369.018" y2="283.523"/>
	<line fill="none" stroke="#ED1F24" stroke-width="0.25" x1="481.509" y1="307.174" x2="484.575" y2="303.621"/>
	<line fill="none" stroke="#ED1F24" stroke-width="0.25" x1="423.691" y1="291.242" x2="428.565" y2="287.775"/>
	<line fill="none" stroke="#ED1F24" stroke-width="0.25" x1="423.691" y1="291.242" x2="428.565" y2="287.775"/>
	<line fill="none" stroke="#ED1F24" stroke-width="0.25" x1="451.793" y1="301.069" x2="455.774" y2="297.835"/>
	<line fill="none" stroke="#ED1F24" stroke-width="0.25" x1="526.091" y1="312.919" x2="528.877" y2="309.438"/>
</g>
<g id="points-auto">
	<line fill="none" stroke="#ED1F24" stroke-width="0.25" x1="278.873" y1="168.369" x2="285.843" y2="167.365"/>
	<line fill="none" stroke="#ED1F24" stroke-width="0.25" x1="311" y1="170.731" x2="317.792" y2="169.91"/>
	<line fill="none" stroke="#ED1F24" stroke-width="0.25" x1="310.036" y1="172.517" x2="316.748" y2="171.501"/>
	<line fill="none" stroke="#ED1F24" stroke-width="0.25" x1="86.261" y1="204.693" x2="93.303" y2="202.046"/>
	<line fill="none" stroke="#ED1F24" stroke-width="0.25" x1="566.477" y1="282.757" x2="568.419" y2="280.06"/>
	<line fill="none" stroke="#ED1F24" stroke-width="0.25" x1="926.577" y1="302.947" x2="925.746" y2="299.823"/>
	<line fill="none" stroke="#ED1F24" stroke-width="0.25" x1="310.265" y1="171.496" x2="316.933" y2="170.561"/>
	<line fill="none" stroke="#ED1F24" stroke-width="0.25" x1="653.082" y1="216.915" x2="653.254" y2="215.178"/>
	<line fill="none" stroke="#ED1F24" stroke-width="0.25" x1="140.911" y1="237.207" x2="148.94" y2="234.255"/>
	<line fill="none" stroke="#ED1F24" stroke-width="0.25" x1="339.772" y1="244.062" x2="346.275" y2="241.499"/>
	<line fill="none" stroke="#ED1F24" stroke-width="0.25" x1="655.963" y1="284.682" x2="655.704" y2="281.801"/>
	<line fill="none" stroke="#ED1F24" stroke-width="0.25" x1="933.67" y1="307.768" x2="932.833" y2="304.171"/>
	<line fill="none" stroke="#ED1F24" stroke-width="0.25" x1="282.42" y1="164.836" x2="289.428" y2="163.976"/>
	<line fill="none" stroke="#ED1F24" stroke-width="0.25" x1="311.796" y1="172.063" x2="318.135" y2="171.036"/>
	<line fill="none" stroke="#ED1F24" stroke-width="0.25" x1="311.796" y1="172.063" x2="318.135" y2="171.036"/>
	<line fill="none" stroke="#ED1F24" stroke-width="0.25" x1="938.961" y1="208.342" x2="938.906" y2="205.44"/>
	<line fill="none" stroke="#ED1F24" stroke-width="0.25" x1="477.696" y1="218.771" x2="481.53" y2="217.24"/>
	<line fill="none" stroke="#ED1F24" stroke-width="0.25" x1="352.505" y1="232.358" x2="358.474" y2="230.101"/>
	<line fill="none" stroke="#ED1F24" stroke-width="0.25" x1="666.747" y1="243.865" x2="666.536" y2="241.911"/>
	<line fill="none" stroke="#ED1F24" stroke-width="0.25" x1="621.699" y1="246.184" x2="622.729" y2="244.023"/>
	<line fill="none" stroke="#ED1F24" stroke-width="0.25" x1="632.551" y1="281.049" x2="632.804" y2="277.896"/>
	<line fill="none" stroke="#ED1F24" stroke-width="0.25" x1="892.225" y1="209.612" x2="891.22" y2="206.434"/>
	<line fill="none" stroke="#ED1F24" stroke-width="0.25" x1="164.473" y1="216.067" x2="172.827" y2="213.995"/>
	<line fill="none" stroke="#ED1F24" stroke-width="0.25" x1="522.212" y1="222.403" x2="524.578" y2="220.944"/>
	<line fill="none" stroke="#ED1F24" stroke-width="0.25" x1="942.791" y1="222.759" x2="942.379" y2="220.257"/>
	<line fill="none" stroke="#ED1F24" stroke-width="0.25" x1="650.839" y1="223.297" x2="651.172" y2="221.389"/>
	<line fill="none" stroke="#ED1F24" stroke-width="0.25" x1="653.12" y1="223.463" x2="653.307" y2="221.777"/>
	<line fill="none" stroke="#ED1F24" stroke-width="0.25" x1="139.483" y1="245.107" x2="147.389" y2="242.038"/>
	<line fill="none" stroke="#ED1F24" stroke-width="0.25" x1="829.594" y1="255.098" x2="827.992" y2="252.665"/>
	<line fill="none" stroke="#ED1F24" stroke-width="0.25" x1="818.836" y1="287.467" x2="816.584" y2="285.658"/>
	<line fill="none" stroke="#ED1F24" stroke-width="0.25" x1="829.99" y1="183.087" x2="828.979" y2="181.109"/>
	<line fill="none" stroke="#ED1F24" stroke-width="0.25" x1="784.268" y1="186.458" x2="783.51" y2="184.677"/>
	<line fill="none" stroke="#ED1F24" stroke-width="0.25" x1="705.842" y1="206.676" x2="705.337" y2="205.754"/>
	<line fill="none" stroke="#ED1F24" stroke-width="0.25" x1="688.592" y1="211.025" x2="688.193" y2="209.677"/>
	<line fill="none" stroke="#ED1F24" stroke-width="0.25" x1="608.78" y1="220.497" x2="609.571" y2="218.416"/>
	<line fill="none" stroke="#ED1F24" stroke-width="0.25" x1="219.338" y1="226.15" x2="226.928" y2="224.018"/>
	<line fill="none" stroke="#ED1F24" stroke-width="0.25" x1="141.67" y1="239.974" x2="150.171" y2="236.647"/>
	<line fill="none" stroke="#ED1F24" stroke-width="0.25" x1="324.293" y1="241.872" x2="331.329" y2="239.031"/>
	<line fill="none" stroke="#ED1F24" stroke-width="0.25" x1="456.433" y1="241.929" x2="460.4" y2="239.885"/>
	<line fill="none" stroke="#ED1F24" stroke-width="0.25" x1="139.376" y1="247.396" x2="147.811" y2="244.707"/>
	<line fill="none" stroke="#ED1F24" stroke-width="0.25" x1="701.877" y1="251.301" x2="701.404" y2="248.697"/>
	<line fill="none" stroke="#ED1F24" stroke-width="0.25" x1="874.346" y1="260.54" x2="873.139" y2="257.59"/>
	<line fill="none" stroke="#ED1F24" stroke-width="0.25" x1="931.361" y1="319.951" x2="930.793" y2="315.626"/>
	<line fill="none" stroke="#ED1F24" stroke-width="0.25" x1="938.135" y1="320.122" x2="937.682" y2="315.729"/>
	<line fill="none" stroke="#ED1F24" stroke-width="0.25" x1="770.908" y1="186.373" x2="769.828" y2="184.531"/>
	<line fill="none" stroke="#ED1F24" stroke-width="0.25" x1="939.65" y1="205.005" x2="939.388" y2="202.163"/>
	<line fill="none" stroke="#ED1F24" stroke-width="0.25" x1="884.605" y1="211.25" x2="884.004" y2="208.436"/>
	<line fill="none" stroke="#ED1F24" stroke-width="0.25" x1="755.396" y1="213.979" x2="754.645" y2="211.785"/>
	<line fill="none" stroke="#ED1F24" stroke-width="0.25" x1="955.387" y1="229.924" x2="955.488" y2="226.571"/>
	<line fill="none" stroke="#ED1F24" stroke-width="0.25" x1="571.525" y1="230.443" x2="572.495" y2="228.875"/>
	<line fill="none" stroke="#ED1F24" stroke-width="0.25" x1="569.148" y1="233.157" x2="570.027" y2="231.031"/>
	<line fill="none" stroke="#ED1F24" stroke-width="0.25" x1="134.554" y1="240.606" x2="142.628" y2="237.815"/>
	<line fill="none" stroke="#ED1F24" stroke-width="0.25" x1="512.888" y1="240.27" x2="515.378" y2="237.942"/>
	<line fill="none" stroke="#ED1F24" stroke-width="0.25" x1="169.201" y1="221.726" x2="177.809" y2="219.132"/>
	<line fill="none" stroke="#ED1F24" stroke-width="0.25" x1="932.205" y1="224.69" x2="931.911" y2="221.664"/>
	<line fill="none" stroke="#ED1F24" stroke-width="0.25" x1="867.63" y1="251.108" x2="866.032" y2="247.974"/>
	<line fill="none" stroke="#ED1F24" stroke-width="0.25" x1="879.721" y1="267.361" x2="878.184" y2="265.166"/>
	<line fill="none" stroke="#ED1F24" stroke-width="0.25" x1="945.749" y1="294.146" x2="945.335" y2="290.06"/>
	<line fill="none" stroke="#ED1F24" stroke-width="0.25" x1="939.577" y1="306.327" x2="939.102" y2="302.959"/>
	<line fill="none" stroke="#ED1F24" stroke-width="0.25" x1="888.551" y1="193.54" x2="888.464" y2="191.058"/>
	<line fill="none" stroke="#ED1F24" stroke-width="0.25" x1="888.551" y1="193.54" x2="888.464" y2="191.058"/>
	<line fill="none" stroke="#ED1F24" stroke-width="0.25" x1="939.394" y1="213.016" x2="939.051" y2="210.406"/>
	<line fill="none" stroke="#ED1F24" stroke-width="0.25" x1="939.394" y1="213.016" x2="939.051" y2="210.406"/>
	<line fill="none" stroke="#ED1F24" stroke-width="0.25" x1="194.504" y1="229.161" x2="202.847" y2="226.011"/>
	<line fill="none" stroke="#ED1F24" stroke-width="0.25" x1="827.99" y1="280.736" x2="825.735" y2="278.971"/>
	<line fill="none" stroke="#ED1F24" stroke-width="0.25" x1="854.086" y1="265.479" x2="851.838" y2="263.105"/>
	<line fill="none" stroke="#ED1F24" stroke-width="0.25" x1="824.2" y1="272.314" x2="821.632" y2="270.566"/>
	<line fill="none" stroke="#ED1F24" stroke-width="0.25" x1="322.628" y1="191.179" x2="329.988" y2="189.235"/>
	<line fill="none" stroke="#ED1F24" stroke-width="0.25" x1="900.432" y1="204.947" x2="898.691" y2="202.407"/>
	<line fill="none" stroke="#ED1F24" stroke-width="0.25" x1="950.403" y1="288.238" x2="950.264" y2="285.34"/>
	<line fill="none" stroke="#ED1F24" stroke-width="0.25" x1="925.868" y1="214.917" x2="925.894" y2="212.226"/>
</g>
</svg>
