<svg xmlns:xlink="http://www.w3.org/1999/xlink" xmlns="http://www.w3.org/2000/svg" x="0px" y="0px" width="968.0px" height="648.0px" viewBox="0 0 968.0 648.0" id="svg">
  <image width="3872.0" height="2592.0" transform="matrix(0.25 0 0 0.25 0 0)" xlink:href="AK01b_20090827_202939.JPG"/>
  <image width="3872" height="2592" transform="matrix(0.25 0 0 0.25 0 0)" xlink:href="AK01b_20090827_202939-synth.JPG"/>
  <g id="points-auto">
    <line x1="714.1104736328125" y1="74.71868896484375" x2="707.4047241210938" y2="73.77246856689453" fill="none" stroke="#ED1F24" stroke-width="0.25"/>
    <line x1="619.9210205078125" y1="91.2524642944336" x2="614.27978515625" y2="91.87724304199219" fill="none" stroke="#ED1F24" stroke-width="0.25"/>
    <line x1="619.5738525390625" y1="102.89938354492188" x2="614.001220703125" y2="103.34996795654297" fill="none" stroke="#ED1F24" stroke-width="0.25"/>
    <line x1="213.4616241455078" y1="120.1471176147461" x2="214.252685546875" y2="123.50833129882812" fill="none" stroke="#ED1F24" stroke-width="0.25"/>
    <line x1="213.4616241455078" y1="120.1471176147461" x2="214.252685546875" y2="123.50833129882812" fill="none" stroke="#ED1F24" stroke-width="0.25"/>
    <line x1="219.0103759765625" y1="122.54009246826172" x2="219.7949676513672" y2="125.82954406738281" fill="none" stroke="#ED1F24" stroke-width="0.25"/>
    <line x1="123.04305267333984" y1="145.0670928955078" x2="123.94873809814453" y2="148.1549530029297" fill="none" stroke="#ED1F24" stroke-width="0.25"/>
    <line x1="123.04305267333984" y1="145.0670928955078" x2="123.94873809814453" y2="148.1549530029297" fill="none" stroke="#ED1F24" stroke-width="0.25"/>
    <line x1="700.1300048828125" y1="81.39894104003906" x2="693.5045166015625" y2="80.73738098144531" fill="none" stroke="#ED1F24" stroke-width="0.25"/>
    <line x1="701.4666748046875" y1="82.52769470214844" x2="694.8912963867188" y2="81.77349853515625" fill="none" stroke="#ED1F24" stroke-width="0.25"/>
    <line x1="645.7493896484375" y1="88.49978637695312" x2="639.7350463867188" y2="88.64690399169922" fill="none" stroke="#ED1F24" stroke-width="0.25"/>
    <line x1="664.9996337890625" y1="91.90967559814453" x2="658.66455078125" y2="91.65282440185547" fill="none" stroke="#ED1F24" stroke-width="0.25"/>
    <line x1="664.9996337890625" y1="91.90967559814453" x2="658.66455078125" y2="91.65282440185547" fill="none" stroke="#ED1F24" stroke-width="0.25"/>
    <line x1="590.9210205078125" y1="93.630126953125" x2="585.73486328125" y2="94.65531921386719" fill="none" stroke="#ED1F24" stroke-width="0.25"/>
    <line x1="540.068115234375" y1="97.39920043945312" x2="535.8134155273438" y2="98.8359603881836" fill="none" stroke="#ED1F24" stroke-width="0.25"/>
    <line x1="573.9478759765625" y1="97.97267150878906" x2="569.1603393554688" y2="99.068603515625" fill="none" stroke="#ED1F24" stroke-width="0.25"/>
    <line x1="556.9696044921875" y1="98.35167694091797" x2="552.465576171875" y2="99.54731750488281" fill="none" stroke="#ED1F24" stroke-width="0.25"/>
    <line x1="619.62060546875" y1="99.03309631347656" x2="614.0697021484375" y2="99.59312438964844" fill="none" stroke="#ED1F24" stroke-width="0.25"/>
    <line x1="574.6327514648438" y1="99.8169937133789" x2="569.8313598632812" y2="100.84601593017578" fill="none" stroke="#ED1F24" stroke-width="0.25"/>
    <line x1="574.6327514648438" y1="99.8169937133789" x2="569.8313598632812" y2="100.84601593017578" fill="none" stroke="#ED1F24" stroke-width="0.25"/>
    <line x1="622.27197265625" y1="101.3277359008789" x2="616.7885131835938" y2="101.72844696044922" fill="none" stroke="#ED1F24" stroke-width="0.25"/>
    <line x1="25.741369247436523" y1="116.6985855102539" x2="25.342374801635742" y2="120.05907440185547" fill="none" stroke="#ED1F24" stroke-width="0.25"/>
    <line x1="213.59347534179688" y1="118.78372955322266" x2="214.28338623046875" y2="122.2095718383789" fill="none" stroke="#ED1F24" stroke-width="0.25"/>
    <line x1="214.54945373535156" y1="121.87525177001953" x2="215.34085083007812" y2="125.13758087158203" fill="none" stroke="#ED1F24" stroke-width="0.25"/>
    <line x1="214.54945373535156" y1="121.87525177001953" x2="215.34085083007812" y2="125.13758087158203" fill="none" stroke="#ED1F24" stroke-width="0.25"/>
    <line x1="190.2434844970703" y1="123.695556640625" x2="191.07716369628906" y2="126.97138977050781" fill="none" stroke="#ED1F24" stroke-width="0.25"/>
    <line x1="222.39393615722656" y1="131.375732421875" x2="223.21485900878906" y2="134.64295959472656" fill="none" stroke="#ED1F24" stroke-width="0.25"/>
    <line x1="205.21218872070312" y1="133.7220001220703" x2="206.2622833251953" y2="136.91664123535156" fill="none" stroke="#ED1F24" stroke-width="0.25"/>
    <line x1="205.21218872070312" y1="133.7220001220703" x2="206.2622833251953" y2="136.91664123535156" fill="none" stroke="#ED1F24" stroke-width="0.25"/>
    <line x1="636.3032836914062" y1="169.49581909179688" x2="630.9497680664062" y2="168.9242706298828" fill="none" stroke="#ED1F24" stroke-width="0.25"/>
    <line x1="609.982421875" y1="170.74874877929688" x2="605.02099609375" y2="170.76771545410156" fill="none" stroke="#ED1F24" stroke-width="0.25"/>
    <line x1="609.982421875" y1="170.74874877929688" x2="605.02099609375" y2="170.76771545410156" fill="none" stroke="#ED1F24" stroke-width="0.25"/>
    <line x1="642.1884155273438" y1="174.81326293945312" x2="636.8041381835938" y2="173.98028564453125" fill="none" stroke="#ED1F24" stroke-width="0.25"/>
    <line x1="605.0638427734375" y1="181.27198791503906" x2="600.1973266601562" y2="180.87347412109375" fill="none" stroke="#ED1F24" stroke-width="0.25"/>
    <line x1="734.3961791992188" y1="84.37026977539062" x2="727.5845336914062" y2="83.09095001220703" fill="none" stroke="#ED1F24" stroke-width="0.25"/>
    <line x1="686.5446166992188" y1="89.99198913574219" x2="680.00341796875" y2="89.47286224365234" fill="none" stroke="#ED1F24" stroke-width="0.25"/>
    <line x1="640.6952514648438" y1="91.6529769897461" x2="634.7274169921875" y2="92.03715515136719" fill="none" stroke="#ED1F24" stroke-width="0.25"/>
    <line x1="656.4006958007812" y1="92.97673797607422" x2="650.25439453125" y2="93.02421569824219" fill="none" stroke="#ED1F24" stroke-width="0.25"/>
    <line x1="632.9061889648438" y1="95.72219848632812" x2="627.3082275390625" y2="96.05120849609375" fill="none" stroke="#ED1F24" stroke-width="0.25"/>
    <line x1="616.8919067382812" y1="98.70012664794922" x2="611.3736572265625" y2="99.29337310791016" fill="none" stroke="#ED1F24" stroke-width="0.25"/>
    <line x1="551.5717163085938" y1="100.89840698242188" x2="547.0870971679688" y2="102.23506164550781" fill="none" stroke="#ED1F24" stroke-width="0.25"/>
    <line x1="626.3178100585938" y1="101.2918701171875" x2="620.742919921875" y2="101.7483901977539" fill="none" stroke="#ED1F24" stroke-width="0.25"/>
    <line x1="618.0162353515625" y1="101.55464172363281" x2="612.6424560546875" y2="102.11851501464844" fill="none" stroke="#ED1F24" stroke-width="0.25"/>
    <line x1="542.7982177734375" y1="109.63238525390625" x2="538.6423950195312" y2="111.01866149902344" fill="none" stroke="#ED1F24" stroke-width="0.25"/>
    <line x1="637.1271362304688" y1="109.7035903930664" x2="631.2642822265625" y2="110.03241729736328" fill="none" stroke="#ED1F24" stroke-width="0.25"/>
    <line x1="950.7721557617188" y1="114.95638275146484" x2="944.9755249023438" y2="109.33295440673828" fill="none" stroke="#ED1F24" stroke-width="0.25"/>
    <line x1="213.17689514160156" y1="115.26725006103516" x2="214.10887145996094" y2="118.8147964477539" fill="none" stroke="#ED1F24" stroke-width="0.25"/>
    <line x1="212.68634033203125" y1="118.41284942626953" x2="213.42376708984375" y2="121.67761993408203" fill="none" stroke="#ED1F24" stroke-width="0.25"/>
    <line x1="201.21400451660156" y1="118.95973205566406" x2="201.9696044921875" y2="122.37535858154297" fill="none" stroke="#ED1F24" stroke-width="0.25"/>
    <line x1="44.725013732910156" y1="118.98441314697266" x2="44.4190559387207" y2="122.2921142578125" fill="none" stroke="#ED1F24" stroke-width="0.25"/>
    <line x1="190.267578125" y1="120.5525131225586" x2="191.1092987060547" y2="123.90467834472656" fill="none" stroke="#ED1F24" stroke-width="0.25"/>
    <line x1="17.683927536010742" y1="120.7527847290039" x2="17.463876724243164" y2="124.21156311035156" fill="none" stroke="#ED1F24" stroke-width="0.25"/>
    <line x1="219.85137939453125" y1="123.1817398071289" x2="220.5269775390625" y2="126.50208282470703" fill="none" stroke="#ED1F24" stroke-width="0.25"/>
    <line x1="193.21900939941406" y1="126.21562194824219" x2="194.1409149169922" y2="129.58558654785156" fill="none" stroke="#ED1F24" stroke-width="0.25"/>
    <line x1="254.95460510253906" y1="134.4106903076172" x2="255.5609130859375" y2="137.48052978515625" fill="none" stroke="#ED1F24" stroke-width="0.25"/>
    <line x1="153.02825927734375" y1="149.59423828125" x2="154.23834228515625" y2="152.7196807861328" fill="none" stroke="#ED1F24" stroke-width="0.25"/>
    <line x1="116.6014175415039" y1="151.73556518554688" x2="117.8246078491211" y2="154.84930419921875" fill="none" stroke="#ED1F24" stroke-width="0.25"/>
    <line x1="116.6014175415039" y1="151.73556518554688" x2="117.8246078491211" y2="154.84930419921875" fill="none" stroke="#ED1F24" stroke-width="0.25"/>
    <line x1="136.3733367919922" y1="155.74452209472656" x2="137.49525451660156" y2="158.77438354492188" fill="none" stroke="#ED1F24" stroke-width="0.25"/>
    <line x1="189.00411987304688" y1="166.87477111816406" x2="190.6864013671875" y2="169.87109375" fill="none" stroke="#ED1F24" stroke-width="0.25"/>
    <line x1="713.530517578125" y1="79.39793395996094" x2="707.1889038085938" y2="78.32315826416016" fill="none" stroke="#ED1F24" stroke-width="0.25"/>
    <line x1="709.1240844726562" y1="83.75350189208984" x2="701.8594360351562" y2="82.74553680419922" fill="none" stroke="#ED1F24" stroke-width="0.25"/>
    <line x1="735.8775024414062" y1="83.84138488769531" x2="728.6687622070312" y2="81.95405578613281" fill="none" stroke="#ED1F24" stroke-width="0.25"/>
    <line x1="661.85498046875" y1="91.47853088378906" x2="655.6098022460938" y2="91.26692199707031" fill="none" stroke="#ED1F24" stroke-width="0.25"/>
    <line x1="685.9588623046875" y1="91.51085662841797" x2="679.3236694335938" y2="91.20392608642578" fill="none" stroke="#ED1F24" stroke-width="0.25"/>
    <line x1="638.2549438476562" y1="92.4969253540039" x2="632.6127319335938" y2="92.71783447265625" fill="none" stroke="#ED1F24" stroke-width="0.25"/>
    <line x1="600.640380859375" y1="92.74537658691406" x2="595.1896362304688" y2="93.52478790283203" fill="none" stroke="#ED1F24" stroke-width="0.25"/>
    <line x1="661.9141235351562" y1="93.04633331298828" x2="655.7454833984375" y2="92.75101470947266" fill="none" stroke="#ED1F24" stroke-width="0.25"/>
    <line x1="657.6082763671875" y1="93.14741516113281" x2="651.4122924804688" y2="93.15751647949219" fill="none" stroke="#ED1F24" stroke-width="0.25"/>
    <line x1="632.01171875" y1="94.87564086914062" x2="626.2412109375" y2="95.24806213378906" fill="none" stroke="#ED1F24" stroke-width="0.25"/>
    <line x1="630.4248657226562" y1="95.916748046875" x2="624.712890625" y2="96.2943344116211" fill="none" stroke="#ED1F24" stroke-width="0.25"/>
    <line x1="647.9063110351562" y1="99.83076477050781" x2="641.9465942382812" y2="99.8833999633789" fill="none" stroke="#ED1F24" stroke-width="0.25"/>
    <line x1="552.64892578125" y1="99.91255950927734" x2="548.39794921875" y2="101.27133178710938" fill="none" stroke="#ED1F24" stroke-width="0.25"/>
    <line x1="645.7293701171875" y1="100.82225036621094" x2="639.7767333984375" y2="100.84984588623047" fill="none" stroke="#ED1F24" stroke-width="0.25"/>
    <line x1="645.7293701171875" y1="100.82225036621094" x2="639.7767333984375" y2="100.84984588623047" fill="none" stroke="#ED1F24" stroke-width="0.25"/>
    <line x1="629.5874633789062" y1="100.93924713134766" x2="624.0169067382812" y2="101.31353759765625" fill="none" stroke="#ED1F24" stroke-width="0.25"/>
    <line x1="223.0511932373047" y1="116.51448822021484" x2="223.7447509765625" y2="119.89761352539062" fill="none" stroke="#ED1F24" stroke-width="0.25"/>
    <line x1="18.701557159423828" y1="119.8946762084961" x2="18.125457763671875" y2="123.17658233642578" fill="none" stroke="#ED1F24" stroke-width="0.25"/>
    <line x1="215.77569580078125" y1="121.91194152832031" x2="216.5758056640625" y2="125.3162841796875" fill="none" stroke="#ED1F24" stroke-width="0.25"/>
    <line x1="210.36839294433594" y1="124.66605377197266" x2="211.25364685058594" y2="128.01414489746094" fill="none" stroke="#ED1F24" stroke-width="0.25"/>
    <line x1="179.94058227539062" y1="130.66404724121094" x2="180.9163818359375" y2="133.93409729003906" fill="none" stroke="#ED1F24" stroke-width="0.25"/>
    <line x1="21.063968658447266" y1="135.72006225585938" x2="20.722333908081055" y2="139.05844116210938" fill="none" stroke="#ED1F24" stroke-width="0.25"/>
    <line x1="339.58453369140625" y1="147.1724090576172" x2="339.6957092285156" y2="149.8720703125" fill="none" stroke="#ED1F24" stroke-width="0.25"/>
    <line x1="339.58453369140625" y1="147.1724090576172" x2="339.6957092285156" y2="149.8720703125" fill="none" stroke="#ED1F24" stroke-width="0.25"/>
    <line x1="469.25439453125" y1="155.00296020507812" x2="465.74139404296875" y2="156.9322509765625" fill="none" stroke="#ED1F24" stroke-width="0.25"/>
    <line x1="515.0423583984375" y1="161.93759155273438" x2="512.1207885742188" y2="163.13609313964844" fill="none" stroke="#ED1F24" stroke-width="0.25"/>
    <line x1="860.672607421875" y1="170.2947540283203" x2="854.1602783203125" y2="166.2823944091797" fill="none" stroke="#ED1F24" stroke-width="0.25"/>
    <line x1="631.403076171875" y1="171.8151092529297" x2="626.0010375976562" y2="171.16603088378906" fill="none" stroke="#ED1F24" stroke-width="0.25"/>
    <line x1="862.6100463867188" y1="173.66835021972656" x2="856.2633666992188" y2="169.78514099121094" fill="none" stroke="#ED1F24" stroke-width="0.25"/>
    <line x1="607.4567260742188" y1="181.4500732421875" x2="602.8287353515625" y2="180.90130615234375" fill="none" stroke="#ED1F24" stroke-width="0.25"/>
    <line x1="40.376197814941406" y1="262.003662109375" x2="42.04270935058594" y2="264.7970886230469" fill="none" stroke="#ED1F24" stroke-width="0.25"/>
    <line x1="40.376197814941406" y1="262.003662109375" x2="42.04270935058594" y2="264.7970886230469" fill="none" stroke="#ED1F24" stroke-width="0.25"/>
    <line x1="196.43946838378906" y1="351.18194580078125" x2="200.04469299316406" y2="351.39190673828125" fill="none" stroke="#ED1F24" stroke-width="0.25"/>
    <line x1="198.62315368652344" y1="354.74005126953125" x2="201.99032592773438" y2="355.0984191894531" fill="none" stroke="#ED1F24" stroke-width="0.25"/>
    <line x1="356.4704895019531" y1="361.2511291503906" x2="357.8663024902344" y2="359.5320129394531" fill="none" stroke="#ED1F24" stroke-width="0.25"/>
    <line x1="553.5364379882812" y1="375.029052734375" x2="550.108154296875" y2="371.4156188964844" fill="none" stroke="#ED1F24" stroke-width="0.25"/>
    <line x1="559.5549926757812" y1="381.11181640625" x2="555.9447021484375" y2="377.8310852050781" fill="none" stroke="#ED1F24" stroke-width="0.25"/>
    <line x1="612.7481689453125" y1="390.17840576171875" x2="608.4442138671875" y2="386.0091552734375" fill="none" stroke="#ED1F24" stroke-width="0.25"/>
    <line x1="161.1846466064453" y1="397.18084716796875" x2="164.8258819580078" y2="397.0511474609375" fill="none" stroke="#ED1F24" stroke-width="0.25"/>
    <line x1="441.1755065917969" y1="402.5747375488281" x2="441.22369384765625" y2="399.34710693359375" fill="none" stroke="#ED1F24" stroke-width="0.25"/>
    <line x1="626.434326171875" y1="409.1330871582031" x2="623.0809936523438" y2="404.0405578613281" fill="none" stroke="#ED1F24" stroke-width="0.25"/>
    <line x1="121.32814025878906" y1="434.3257751464844" x2="124.42803955078125" y2="434.7989807128906" fill="none" stroke="#ED1F24" stroke-width="0.25"/>
    <line x1="211.19664001464844" y1="453.69122314453125" x2="215.03021240234375" y2="452.3097839355469" fill="none" stroke="#ED1F24" stroke-width="0.25"/>
    <line x1="152.1326141357422" y1="483.2377014160156" x2="156.80621337890625" y2="482.38116455078125" fill="none" stroke="#ED1F24" stroke-width="0.25"/>
    <line x1="712.1347045898438" y1="77.52837371826172" x2="705.4683227539062" y2="76.72217559814453" fill="none" stroke="#ED1F24" stroke-width="0.25"/>
    <line x1="709.38134765625" y1="82.09849548339844" x2="702.6567993164062" y2="81.1837387084961" fill="none" stroke="#ED1F24" stroke-width="0.25"/>
    <line x1="733.9819946289062" y1="86.20723724365234" x2="726.8862915039062" y2="84.75968170166016" fill="none" stroke="#ED1F24" stroke-width="0.25"/>
    <line x1="687.9600830078125" y1="91.20947265625" x2="681.764404296875" y2="90.37820434570312" fill="none" stroke="#ED1F24" stroke-width="0.25"/>
    <line x1="567.8153076171875" y1="92.83560943603516" x2="562.98828125" y2="94.03143310546875" fill="none" stroke="#ED1F24" stroke-width="0.25"/>
    <line x1="596.591796875" y1="93.16706085205078" x2="591.384765625" y2="94.16133880615234" fill="none" stroke="#ED1F24" stroke-width="0.25"/>
    <line x1="663.7778930664062" y1="93.26145935058594" x2="657.5877075195312" y2="92.7921371459961" fill="none" stroke="#ED1F24" stroke-width="0.25"/>
    <line x1="596.5592651367188" y1="94.81991577148438" x2="591.4943237304688" y2="95.68446350097656" fill="none" stroke="#ED1F24" stroke-width="0.25"/>
    <line x1="557.7137451171875" y1="98.23825073242188" x2="553.0075073242188" y2="99.48198699951172" fill="none" stroke="#ED1F24" stroke-width="0.25"/>
    <line x1="557.7137451171875" y1="98.23825073242188" x2="553.0075073242188" y2="99.48198699951172" fill="none" stroke="#ED1F24" stroke-width="0.25"/>
    <line x1="642.4848022460938" y1="98.52312469482422" x2="636.4820556640625" y2="98.78572082519531" fill="none" stroke="#ED1F24" stroke-width="0.25"/>
    <line x1="629.2734375" y1="99.21913146972656" x2="623.5662841796875" y2="99.83058166503906" fill="none" stroke="#ED1F24" stroke-width="0.25"/>
    <line x1="574.5608520507812" y1="101.33389282226562" x2="569.6655883789062" y2="102.53575897216797" fill="none" stroke="#ED1F24" stroke-width="0.25"/>
    <line x1="606.35693359375" y1="106.2847671508789" x2="601.2088012695312" y2="106.7749252319336" fill="none" stroke="#ED1F24" stroke-width="0.25"/>
    <line x1="204.6016387939453" y1="112.09575653076172" x2="204.96380615234375" y2="116.26568603515625" fill="none" stroke="#ED1F24" stroke-width="0.25"/>
    <line x1="242.91653442382812" y1="115.10310363769531" x2="243.2686309814453" y2="118.51223754882812" fill="none" stroke="#ED1F24" stroke-width="0.25"/>
    <line x1="24.066055297851562" y1="116.31289672851562" x2="23.51138687133789" y2="119.67727661132812" fill="none" stroke="#ED1F24" stroke-width="0.25"/>
    <line x1="194.0178985595703" y1="123.04717254638672" x2="194.83929443359375" y2="126.51840209960938" fill="none" stroke="#ED1F24" stroke-width="0.25"/>
    <line x1="194.0178985595703" y1="123.04717254638672" x2="194.83929443359375" y2="126.51840209960938" fill="none" stroke="#ED1F24" stroke-width="0.25"/>
    <line x1="209.14910888671875" y1="126.3637924194336" x2="210.10617065429688" y2="129.74436950683594" fill="none" stroke="#ED1F24" stroke-width="0.25"/>
    <line x1="177.681884765625" y1="143.063720703125" x2="178.8163604736328" y2="146.0181121826172" fill="none" stroke="#ED1F24" stroke-width="0.25"/>
    <line x1="724.1986083984375" y1="144.28187561035156" x2="717.4658203125" y2="143.26678466796875" fill="none" stroke="#ED1F24" stroke-width="0.25"/>
    <line x1="741.5064697265625" y1="155.75827026367188" x2="734.5527954101562" y2="153.65980529785156" fill="none" stroke="#ED1F24" stroke-width="0.25"/>
    <line x1="664.6551513671875" y1="158.4978790283203" x2="658.9721069335938" y2="157.73216247558594" fill="none" stroke="#ED1F24" stroke-width="0.25"/>
    <line x1="631.246826171875" y1="159.06173706054688" x2="625.8939819335938" y2="158.63327026367188" fill="none" stroke="#ED1F24" stroke-width="0.25"/>
    <line x1="601.2178955078125" y1="173.05130004882812" x2="596.7894897460938" y2="173.0322723388672" fill="none" stroke="#ED1F24" stroke-width="0.25"/>
    <line x1="637.8554077148438" y1="173.04161071777344" x2="632.5066528320312" y2="172.54994201660156" fill="none" stroke="#ED1F24" stroke-width="0.25"/>
    <line x1="633.1007690429688" y1="177.8007354736328" x2="627.6483764648438" y2="177.02175903320312" fill="none" stroke="#ED1F24" stroke-width="0.25"/>
    <line x1="618.3048095703125" y1="179.6365203857422" x2="612.8893432617188" y2="179.0958251953125" fill="none" stroke="#ED1F24" stroke-width="0.25"/>
    <line x1="352.3124694824219" y1="361.6835632324219" x2="354.4527282714844" y2="359.9020690917969" fill="none" stroke="#ED1F24" stroke-width="0.25"/>
    <line x1="255.06686401367188" y1="371.34796142578125" x2="258.7562561035156" y2="370.4530334472656" fill="none" stroke="#ED1F24" stroke-width="0.25"/>
    <line x1="346.0602111816406" y1="392.3034362792969" x2="348.8085632324219" y2="390.2104797363281" fill="none" stroke="#ED1F24" stroke-width="0.25"/>
    <line x1="384.9985656738281" y1="395.3212890625" x2="386.57586669921875" y2="392.6257629394531" fill="none" stroke="#ED1F24" stroke-width="0.25"/>
    <line x1="346.7691345214844" y1="396.0046081542969" x2="349.3761291503906" y2="393.5281982421875" fill="none" stroke="#ED1F24" stroke-width="0.25"/>
    <line x1="379.1927185058594" y1="423.2452392578125" x2="380.97491455078125" y2="420.0165100097656" fill="none" stroke="#ED1F24" stroke-width="0.25"/>
    <line x1="201.36221313476562" y1="452.930419921875" x2="205.31105041503906" y2="452.00433349609375" fill="none" stroke="#ED1F24" stroke-width="0.25"/>
    <line x1="339.5531921386719" y1="454.4442443847656" x2="341.84698486328125" y2="451.36346435546875" fill="none" stroke="#ED1F24" stroke-width="0.25"/>
    <line x1="709.6041870117188" y1="77.14656829833984" x2="702.6614990234375" y2="76.4850845336914" fill="none" stroke="#ED1F24" stroke-width="0.25"/>
    <line x1="738.6506958007812" y1="83.64753723144531" x2="731.7909545898438" y2="82.26805114746094" fill="none" stroke="#ED1F24" stroke-width="0.25"/>
    <line x1="564.9157104492188" y1="95.6185302734375" x2="560.1487426757812" y2="96.84334564208984" fill="none" stroke="#ED1F24" stroke-width="0.25"/>
    <line x1="564.9157104492188" y1="95.6185302734375" x2="560.1487426757812" y2="96.84334564208984" fill="none" stroke="#ED1F24" stroke-width="0.25"/>
    <line x1="928.9679565429688" y1="103.04522705078125" x2="923.005126953125" y2="97.92256164550781" fill="none" stroke="#ED1F24" stroke-width="0.25"/>
    <line x1="224.59625244140625" y1="114.40270233154297" x2="224.8951873779297" y2="118.2123794555664" fill="none" stroke="#ED1F24" stroke-width="0.25"/>
    <line x1="23.181241989135742" y1="118.49054718017578" x2="22.88069725036621" y2="121.85259246826172" fill="none" stroke="#ED1F24" stroke-width="0.25"/>
    <line x1="218.3354034423828" y1="119.91127014160156" x2="219.0743408203125" y2="123.28872680664062" fill="none" stroke="#ED1F24" stroke-width="0.25"/>
    <line x1="138.92051696777344" y1="128.56597900390625" x2="139.5128173828125" y2="131.79421997070312" fill="none" stroke="#ED1F24" stroke-width="0.25"/>
    <line x1="409.35858154296875" y1="144.76858520507812" x2="408.8636169433594" y2="147.1312713623047" fill="none" stroke="#ED1F24" stroke-width="0.25"/>
    <line x1="670.9552612304688" y1="151.55355834960938" x2="664.7835693359375" y2="150.58677673339844" fill="none" stroke="#ED1F24" stroke-width="0.25"/>
    <line x1="462.09063720703125" y1="151.73049926757812" x2="460.0659484863281" y2="153.7782745361328" fill="none" stroke="#ED1F24" stroke-width="0.25"/>
    <line x1="628.9879150390625" y1="152.33612060546875" x2="624.01708984375" y2="152.05148315429688" fill="none" stroke="#ED1F24" stroke-width="0.25"/>
    <line x1="662.467529296875" y1="152.89291381835938" x2="656.7357177734375" y2="152.09701538085938" fill="none" stroke="#ED1F24" stroke-width="0.25"/>
    <line x1="662.467529296875" y1="152.89291381835938" x2="656.7357177734375" y2="152.09701538085938" fill="none" stroke="#ED1F24" stroke-width="0.25"/>
    <line x1="512.44384765625" y1="156.0059051513672" x2="508.97369384765625" y2="157.52752685546875" fill="none" stroke="#ED1F24" stroke-width="0.25"/>
    <line x1="648.1139526367188" y1="156.81112670898438" x2="642.9007568359375" y2="156.77764892578125" fill="none" stroke="#ED1F24" stroke-width="0.25"/>
    <line x1="134.46994018554688" y1="162.92686462402344" x2="135.59274291992188" y2="165.8582305908203" fill="none" stroke="#ED1F24" stroke-width="0.25"/>
    <line x1="134.46994018554688" y1="162.92686462402344" x2="135.59274291992188" y2="165.8582305908203" fill="none" stroke="#ED1F24" stroke-width="0.25"/>
    <line x1="874.8031616210938" y1="171.48065185546875" x2="868.4312744140625" y2="167.1532745361328" fill="none" stroke="#ED1F24" stroke-width="0.25"/>
    <line x1="946.7767944335938" y1="173.04806518554688" x2="941.0980224609375" y2="167.5005645751953" fill="none" stroke="#ED1F24" stroke-width="0.25"/>
    <line x1="440.47454833984375" y1="181.00271606445312" x2="439.255126953125" y2="182.8828887939453" fill="none" stroke="#ED1F24" stroke-width="0.25"/>
    <line x1="43.679473876953125" y1="189.95040893554688" x2="44.83151626586914" y2="193.2613983154297" fill="none" stroke="#ED1F24" stroke-width="0.25"/>
    <line x1="47.75717544555664" y1="194.193603515625" x2="48.918785095214844" y2="197.54518127441406" fill="none" stroke="#ED1F24" stroke-width="0.25"/>
    <line x1="52.92133331298828" y1="225.7928009033203" x2="55.05385208129883" y2="228.76268005371094" fill="none" stroke="#ED1F24" stroke-width="0.25"/>
    <line x1="502.4466247558594" y1="323.555908203125" x2="501.3423767089844" y2="320.97003173828125" fill="none" stroke="#ED1F24" stroke-width="0.25"/>
    <line x1="519.9932250976562" y1="358.38616943359375" x2="517.3038940429688" y2="354.7835693359375" fill="none" stroke="#ED1F24" stroke-width="0.25"/>
    <line x1="519.9932250976562" y1="358.38616943359375" x2="517.3038940429688" y2="354.7835693359375" fill="none" stroke="#ED1F24" stroke-width="0.25"/>
    <line x1="286.6097412109375" y1="372.9737243652344" x2="289.149658203125" y2="371.9169921875" fill="none" stroke="#ED1F24" stroke-width="0.25"/>
    <line x1="540.548095703125" y1="375.96710205078125" x2="537.7416381835938" y2="372.5517578125" fill="none" stroke="#ED1F24" stroke-width="0.25"/>
    <line x1="393.074951171875" y1="378.29852294921875" x2="394.9911804199219" y2="375.9743957519531" fill="none" stroke="#ED1F24" stroke-width="0.25"/>
    <line x1="393.074951171875" y1="378.29852294921875" x2="394.9911804199219" y2="375.9743957519531" fill="none" stroke="#ED1F24" stroke-width="0.25"/>
    <line x1="567.4442138671875" y1="387.6863098144531" x2="563.9515380859375" y2="383.8034973144531" fill="none" stroke="#ED1F24" stroke-width="0.25"/>
    <line x1="562.6968994140625" y1="389.2797546386719" x2="559.4413452148438" y2="385.4435119628906" fill="none" stroke="#ED1F24" stroke-width="0.25"/>
    <line x1="328.728271484375" y1="390.43572998046875" x2="330.875732421875" y2="388.56256103515625" fill="none" stroke="#ED1F24" stroke-width="0.25"/>
    <line x1="627.6856079101562" y1="407.8670349121094" x2="623.773193359375" y2="402.3832092285156" fill="none" stroke="#ED1F24" stroke-width="0.25"/>
    <line x1="164.23593139648438" y1="425.8946838378906" x2="168.03392028808594" y2="425.4686279296875" fill="none" stroke="#ED1F24" stroke-width="0.25"/>
    <line x1="423.857421875" y1="430.79412841796875" x2="424.48193359375" y2="426.97174072265625" fill="none" stroke="#ED1F24" stroke-width="0.25"/>
    <line x1="397.12091064453125" y1="430.9771423339844" x2="398.3485107421875" y2="427.51934814453125" fill="none" stroke="#ED1F24" stroke-width="0.25"/>
    <line x1="444.17193603515625" y1="443.4292907714844" x2="444.59765625" y2="439.1603088378906" fill="none" stroke="#ED1F24" stroke-width="0.25"/>
    <line x1="433.82989501953125" y1="455.1845397949219" x2="434.52142333984375" y2="450.9117126464844" fill="none" stroke="#ED1F24" stroke-width="0.25"/>
    <line x1="167.6636505126953" y1="472.26934814453125" x2="172.08538818359375" y2="471.4837341308594" fill="none" stroke="#ED1F24" stroke-width="0.25"/>
    <line x1="373.31695556640625" y1="485.857177734375" x2="376.2049255371094" y2="481.3970947265625" fill="none" stroke="#ED1F24" stroke-width="0.25"/>
    <line x1="629.4033203125" y1="97.99219512939453" x2="623.5777587890625" y2="98.33047485351562" fill="none" stroke="#ED1F24" stroke-width="0.25"/>
    <line x1="48.479522705078125" y1="119.1061782836914" x2="48.876399993896484" y2="122.02938842773438" fill="none" stroke="#ED1F24" stroke-width="0.25"/>
    <line x1="924.6865844726562" y1="120.82009887695312" x2="918.2838134765625" y2="115.77803039550781" fill="none" stroke="#ED1F24" stroke-width="0.25"/>
    <line x1="205.4728546142578" y1="130.67990112304688" x2="206.34632873535156" y2="133.78628540039062" fill="none" stroke="#ED1F24" stroke-width="0.25"/>
    <line x1="32.67426681518555" y1="140.42684936523438" x2="32.19235610961914" y2="144.2095184326172" fill="none" stroke="#ED1F24" stroke-width="0.25"/>
    <line x1="118.80985260009766" y1="142.7605438232422" x2="119.7003402709961" y2="145.8096160888672" fill="none" stroke="#ED1F24" stroke-width="0.25"/>
    <line x1="388.4808349609375" y1="145.04803466796875" x2="388.08831787109375" y2="147.76657104492188" fill="none" stroke="#ED1F24" stroke-width="0.25"/>
    <line x1="388.4808349609375" y1="145.04803466796875" x2="388.08831787109375" y2="147.76657104492188" fill="none" stroke="#ED1F24" stroke-width="0.25"/>
    <line x1="913.5612182617188" y1="163.23153686523438" x2="907.4765625" y2="158.47613525390625" fill="none" stroke="#ED1F24" stroke-width="0.25"/>
    <line x1="919.4952392578125" y1="165.65277099609375" x2="913.5054321289062" y2="160.49058532714844" fill="none" stroke="#ED1F24" stroke-width="0.25"/>
    <line x1="436.5575866699219" y1="179.61419677734375" x2="434.6313171386719" y2="181.06558227539062" fill="none" stroke="#ED1F24" stroke-width="0.25"/>
    <line x1="100.79058074951172" y1="203.33685302734375" x2="103.60357666015625" y2="206.67457580566406" fill="none" stroke="#ED1F24" stroke-width="0.25"/>
    <line x1="214.3867950439453" y1="324.6639709472656" x2="217.40365600585938" y2="325.1753845214844" fill="none" stroke="#ED1F24" stroke-width="0.25"/>
    <line x1="202.5964813232422" y1="373.18145751953125" x2="207.07318115234375" y2="373.14581298828125" fill="none" stroke="#ED1F24" stroke-width="0.25"/>
    <line x1="388.3155822753906" y1="378.4150085449219" x2="390.0292053222656" y2="375.7844543457031" fill="none" stroke="#ED1F24" stroke-width="0.25"/>
    <line x1="365.6052551269531" y1="383.03302001953125" x2="368.3053283691406" y2="380.6730041503906" fill="none" stroke="#ED1F24" stroke-width="0.25"/>
    <line x1="610.8624267578125" y1="383.84381103515625" x2="606.4132690429688" y2="379.5838623046875" fill="none" stroke="#ED1F24" stroke-width="0.25"/>
    <line x1="626.9287719726562" y1="389.8319091796875" x2="622.29345703125" y2="385.0494384765625" fill="none" stroke="#ED1F24" stroke-width="0.25"/>
    <line x1="187.71282958984375" y1="414.628662109375" x2="191.72894287109375" y2="413.8777160644531" fill="none" stroke="#ED1F24" stroke-width="0.25"/>
    <line x1="192.34613037109375" y1="416.5614929199219" x2="196.48793029785156" y2="416.1130676269531" fill="none" stroke="#ED1F24" stroke-width="0.25"/>
    <line x1="588.583251953125" y1="418.9571838378906" x2="586.9854736328125" y2="414.0691833496094" fill="none" stroke="#ED1F24" stroke-width="0.25"/>
    <line x1="206.06515502929688" y1="453.00482177734375" x2="209.5059814453125" y2="452.1532287597656" fill="none" stroke="#ED1F24" stroke-width="0.25"/>
    <line x1="482.2230224609375" y1="460.0939025878906" x2="482.18365478515625" y2="455.26995849609375" fill="none" stroke="#ED1F24" stroke-width="0.25"/>
    <line x1="364.7825622558594" y1="462.4317321777344" x2="366.90875244140625" y2="458.959716796875" fill="none" stroke="#ED1F24" stroke-width="0.25"/>
    <line x1="342.77984619140625" y1="464.78692626953125" x2="345.5927429199219" y2="461.3856201171875" fill="none" stroke="#ED1F24" stroke-width="0.25"/>
    <line x1="276.41107177734375" y1="471.1070556640625" x2="280.1199035644531" y2="468.16925048828125" fill="none" stroke="#ED1F24" stroke-width="0.25"/>
    <line x1="404.29168701171875" y1="486.4476013183594" x2="406.8147888183594" y2="481.6537170410156" fill="none" stroke="#ED1F24" stroke-width="0.25"/>
    <line x1="195.1854248046875" y1="120.09661865234375" x2="196.05343627929688" y2="123.5877685546875" fill="none" stroke="#ED1F24" stroke-width="0.25"/>
    <line x1="213.86282348632812" y1="124.47577667236328" x2="214.68319702148438" y2="127.8322982788086" fill="none" stroke="#ED1F24" stroke-width="0.25"/>
    <line x1="213.86282348632812" y1="124.47577667236328" x2="214.68319702148438" y2="127.8322982788086" fill="none" stroke="#ED1F24" stroke-width="0.25"/>
    <line x1="216.73004150390625" y1="132.61680603027344" x2="217.68853759765625" y2="135.91627502441406" fill="none" stroke="#ED1F24" stroke-width="0.25"/>
    <line x1="117.07460021972656" y1="149.1558837890625" x2="117.71643829345703" y2="151.64840698242188" fill="none" stroke="#ED1F24" stroke-width="0.25"/>
    <line x1="457.0556335449219" y1="152.0574493408203" x2="454.9424743652344" y2="153.34817504882812" fill="none" stroke="#ED1F24" stroke-width="0.25"/>
    <line x1="465.9679260253906" y1="155.8178253173828" x2="463.42901611328125" y2="157.71913146972656" fill="none" stroke="#ED1F24" stroke-width="0.25"/>
    <line x1="623.8599243164062" y1="161.07745361328125" x2="617.9467163085938" y2="160.65574645996094" fill="none" stroke="#ED1F24" stroke-width="0.25"/>
    <line x1="877.9769287109375" y1="168.16702270507812" x2="871.8910522460938" y2="164.19284057617188" fill="none" stroke="#ED1F24" stroke-width="0.25"/>
    <line x1="431.4431457519531" y1="179.2046661376953" x2="431.267333984375" y2="181.42799377441406" fill="none" stroke="#ED1F24" stroke-width="0.25"/>
    <line x1="149.19174194335938" y1="189.4417724609375" x2="151.518310546875" y2="192.9720001220703" fill="none" stroke="#ED1F24" stroke-width="0.25"/>
    <line x1="28.216197967529297" y1="194.1903839111328" x2="28.915468215942383" y2="196.9061737060547" fill="none" stroke="#ED1F24" stroke-width="0.25"/>
    <line x1="68.1030502319336" y1="307.14996337890625" x2="70.56230926513672" y2="309.0951232910156" fill="none" stroke="#ED1F24" stroke-width="0.25"/>
    <line x1="181.88595581054688" y1="376.6858825683594" x2="186.0323486328125" y2="376.8841857910156" fill="none" stroke="#ED1F24" stroke-width="0.25"/>
    <line x1="546.6085205078125" y1="376.8813781738281" x2="543.68359375" y2="373.34637451171875" fill="none" stroke="#ED1F24" stroke-width="0.25"/>
    <line x1="598.2711791992188" y1="386.75787353515625" x2="594.6685791015625" y2="382.90728759765625" fill="none" stroke="#ED1F24" stroke-width="0.25"/>
    <line x1="612.4091186523438" y1="387.1133117675781" x2="608.3768920898438" y2="382.93109130859375" fill="none" stroke="#ED1F24" stroke-width="0.25"/>
    <line x1="679.309814453125" y1="394.017822265625" x2="672.984130859375" y2="388.52984619140625" fill="none" stroke="#ED1F24" stroke-width="0.25"/>
    <line x1="295.8253173828125" y1="406.6607971191406" x2="299.8397216796875" y2="404.66949462890625" fill="none" stroke="#ED1F24" stroke-width="0.25"/>
    <line x1="614.9087524414062" y1="407.9844665527344" x2="612.0983276367188" y2="403.09246826171875" fill="none" stroke="#ED1F24" stroke-width="0.25"/>
    <line x1="504.6447448730469" y1="433.5113525390625" x2="503.75823974609375" y2="428.6541442871094" fill="none" stroke="#ED1F24" stroke-width="0.25"/>
    <line x1="226.0557098388672" y1="445.2882995605469" x2="229.82745361328125" y2="443.94207763671875" fill="none" stroke="#ED1F24" stroke-width="0.25"/>
    <line x1="360.0404052734375" y1="463.7667236328125" x2="361.9678649902344" y2="460.0411682128906" fill="none" stroke="#ED1F24" stroke-width="0.25"/>
    <line x1="380.1683044433594" y1="464.6128845214844" x2="382.2196044921875" y2="461.4473571777344" fill="none" stroke="#ED1F24" stroke-width="0.25"/>
    <line x1="440.0606384277344" y1="465.40423583984375" x2="441.8629455566406" y2="461.01165771484375" fill="none" stroke="#ED1F24" stroke-width="0.25"/>
    <line x1="396.9040832519531" y1="469.3900146484375" x2="398.48486328125" y2="465.13665771484375" fill="none" stroke="#ED1F24" stroke-width="0.25"/>
    <line x1="369.6640930175781" y1="477.3291015625" x2="373.1039733886719" y2="473.44061279296875" fill="none" stroke="#ED1F24" stroke-width="0.25"/>
    <line x1="225.46170043945312" y1="495.5274963378906" x2="229.45545959472656" y2="493.528076171875" fill="none" stroke="#ED1F24" stroke-width="0.25"/>
    <line x1="618.404052734375" y1="96.2559585571289" x2="613.0602416992188" y2="96.62434387207031" fill="none" stroke="#ED1F24" stroke-width="0.25"/>
    <line x1="228.27073669433594" y1="116.47938537597656" x2="228.97698974609375" y2="119.9637680053711" fill="none" stroke="#ED1F24" stroke-width="0.25"/>
    <line x1="55.55027770996094" y1="126.62211608886719" x2="55.54813003540039" y2="129.93740844726562" fill="none" stroke="#ED1F24" stroke-width="0.25"/>
    <line x1="791.5408935546875" y1="146.32762145996094" x2="784.94287109375" y2="144.37445068359375" fill="none" stroke="#ED1F24" stroke-width="0.25"/>
    <line x1="791.5408935546875" y1="146.32762145996094" x2="784.94287109375" y2="144.37445068359375" fill="none" stroke="#ED1F24" stroke-width="0.25"/>
    <line x1="908.7144165039062" y1="162.3626708984375" x2="902.7382202148438" y2="157.7952423095703" fill="none" stroke="#ED1F24" stroke-width="0.25"/>
    <line x1="490.01580810546875" y1="169.8621826171875" x2="487.33172607421875" y2="171.05789184570312" fill="none" stroke="#ED1F24" stroke-width="0.25"/>
    <line x1="817.224365234375" y1="169.96771240234375" x2="811.24560546875" y2="166.45887756347656" fill="none" stroke="#ED1F24" stroke-width="0.25"/>
    <line x1="939.0648193359375" y1="171.8032989501953" x2="933.0458984375" y2="166.02059936523438" fill="none" stroke="#ED1F24" stroke-width="0.25"/>
    <line x1="859.6161499023438" y1="175.17225646972656" x2="853.5791625976562" y2="170.9911346435547" fill="none" stroke="#ED1F24" stroke-width="0.25"/>
    <line x1="514.3743896484375" y1="180.39320373535156" x2="511.2006530761719" y2="181.36090087890625" fill="none" stroke="#ED1F24" stroke-width="0.25"/>
    <line x1="489.2617492675781" y1="200.3092803955078" x2="487.6438293457031" y2="201.1514129638672" fill="none" stroke="#ED1F24" stroke-width="0.25"/>
    <line x1="114.3113021850586" y1="205.05784606933594" x2="115.98430633544922" y2="208.6898193359375" fill="none" stroke="#ED1F24" stroke-width="0.25"/>
    <line x1="556.9940185546875" y1="235.73532104492188" x2="554.2158813476562" y2="234.95681762695312" fill="none" stroke="#ED1F24" stroke-width="0.25"/>
    <line x1="64.97026062011719" y1="298.8797607421875" x2="68.88743591308594" y2="301.10113525390625" fill="none" stroke="#ED1F24" stroke-width="0.25"/>
    <line x1="243.56004333496094" y1="364.41961669921875" x2="247.49049377441406" y2="364.0648498535156" fill="none" stroke="#ED1F24" stroke-width="0.25"/>
    <line x1="597.9522705078125" y1="382.44219970703125" x2="593.385986328125" y2="378.4156494140625" fill="none" stroke="#ED1F24" stroke-width="0.25"/>
    <line x1="656.490234375" y1="389.6257019042969" x2="648.77392578125" y2="383.8725280761719" fill="none" stroke="#ED1F24" stroke-width="0.25"/>
    <line x1="638.3919677734375" y1="394.0835876464844" x2="632.6215209960938" y2="389.67059326171875" fill="none" stroke="#ED1F24" stroke-width="0.25"/>
    <line x1="296.18756103515625" y1="396.5967102050781" x2="299.3434753417969" y2="395.2691345214844" fill="none" stroke="#ED1F24" stroke-width="0.25"/>
    <line x1="652.623046875" y1="398.86175537109375" x2="646.324462890625" y2="394.0749816894531" fill="none" stroke="#ED1F24" stroke-width="0.25"/>
    <line x1="634.4498901367188" y1="408.4129638671875" x2="630.8251953125" y2="403.4289855957031" fill="none" stroke="#ED1F24" stroke-width="0.25"/>
    <line x1="634.4498901367188" y1="408.4129638671875" x2="630.8251953125" y2="403.4289855957031" fill="none" stroke="#ED1F24" stroke-width="0.25"/>
    <line x1="431.5079345703125" y1="466.4090881347656" x2="432.3016052246094" y2="462.0047912597656" fill="none" stroke="#ED1F24" stroke-width="0.25"/>
    <line x1="368.4283447265625" y1="467.0401916503906" x2="370.48773193359375" y2="463.1164855957031" fill="none" stroke="#ED1F24" stroke-width="0.25"/>
    <line x1="172.67718505859375" y1="469.2703857421875" x2="178.07533264160156" y2="467.8311462402344" fill="none" stroke="#ED1F24" stroke-width="0.25"/>
    <line x1="55.129451751708984" y1="126.99811553955078" x2="55.54813003540039" y2="129.93740844726562" fill="none" stroke="#ED1F24" stroke-width="0.25"/>
    <line x1="614.3792724609375" y1="159.4509735107422" x2="608.93359375" y2="159.67239379882812" fill="none" stroke="#ED1F24" stroke-width="0.25"/>
    <line x1="933.8411865234375" y1="174.53839111328125" x2="927.6994018554688" y2="169.08053588867188" fill="none" stroke="#ED1F24" stroke-width="0.25"/>
    <line x1="9.170741081237793" y1="285.9755554199219" x2="11.039104461669922" y2="288.89990234375" fill="none" stroke="#ED1F24" stroke-width="0.25"/>
    <line x1="64.31622314453125" y1="293.7546691894531" x2="66.36713409423828" y2="295.9928894042969" fill="none" stroke="#ED1F24" stroke-width="0.25"/>
    <line x1="359.04962158203125" y1="391.7518310546875" x2="360.6215515136719" y2="389.5711669921875" fill="none" stroke="#ED1F24" stroke-width="0.25"/>
    <line x1="602.6895141601562" y1="412.1935729980469" x2="599.8532104492188" y2="407.1627197265625" fill="none" stroke="#ED1F24" stroke-width="0.25"/>
    <line x1="602.6895141601562" y1="412.1935729980469" x2="599.8532104492188" y2="407.1627197265625" fill="none" stroke="#ED1F24" stroke-width="0.25"/>
    <line x1="392.9765930175781" y1="462.48321533203125" x2="394.6479187011719" y2="458.7396545410156" fill="none" stroke="#ED1F24" stroke-width="0.25"/>
    <line x1="370.5638427734375" y1="471.4404296875" x2="373.346923828125" y2="467.63275146484375" fill="none" stroke="#ED1F24" stroke-width="0.25"/>
    <line x1="216.79135131835938" y1="117.63584899902344" x2="217.22393798828125" y2="121.87605285644531" fill="none" stroke="#ED1F24" stroke-width="0.25"/>
    <line x1="209.63925170898438" y1="119.96812438964844" x2="210.24832153320312" y2="123.680419921875" fill="none" stroke="#ED1F24" stroke-width="0.25"/>
    <line x1="220.01332092285156" y1="127.26273345947266" x2="220.26547241210938" y2="131.31004333496094" fill="none" stroke="#ED1F24" stroke-width="0.25"/>
    <line x1="202.80874633789062" y1="132.91046142578125" x2="203.89158630371094" y2="135.63739013671875" fill="none" stroke="#ED1F24" stroke-width="0.25"/>
    <line x1="931.1603393554688" y1="141.0178680419922" x2="923.5729370117188" y2="136.2674102783203" fill="none" stroke="#ED1F24" stroke-width="0.25"/>
    <line x1="787.3009033203125" y1="154.6849822998047" x2="781.4867553710938" y2="151.82476806640625" fill="none" stroke="#ED1F24" stroke-width="0.25"/>
    <line x1="908.0874633789062" y1="155.80543518066406" x2="901.3838500976562" y2="151.70907592773438" fill="none" stroke="#ED1F24" stroke-width="0.25"/>
    <line x1="449.5935363769531" y1="185.68524169921875" x2="448.03216552734375" y2="186.71621704101562" fill="none" stroke="#ED1F24" stroke-width="0.25"/>
    <line x1="17.005292892456055" y1="232.68556213378906" x2="18.214025497436523" y2="236.8867645263672" fill="none" stroke="#ED1F24" stroke-width="0.25"/>
    <line x1="53.57035446166992" y1="289.4530334472656" x2="56.2664909362793" y2="292.1889953613281" fill="none" stroke="#ED1F24" stroke-width="0.25"/>
    <line x1="557.6317138671875" y1="350.6387023925781" x2="551.0540161132812" y2="348.5566101074219" fill="none" stroke="#ED1F24" stroke-width="0.25"/>
    <line x1="617.7420654296875" y1="388.7774963378906" x2="614.0868530273438" y2="384.14520263671875" fill="none" stroke="#ED1F24" stroke-width="0.25"/>
    <line x1="320.1853942871094" y1="393.9292907714844" x2="323.3946838378906" y2="392.2668151855469" fill="none" stroke="#ED1F24" stroke-width="0.25"/>
    <line x1="643.5724487304688" y1="398.4224548339844" x2="638.7269287109375" y2="393.54217529296875" fill="none" stroke="#ED1F24" stroke-width="0.25"/>
    <line x1="675.6273803710938" y1="398.3264465332031" x2="669.865966796875" y2="393.1319885253906" fill="none" stroke="#ED1F24" stroke-width="0.25"/>
    <line x1="584.3773803710938" y1="421.51507568359375" x2="582.341552734375" y2="416.2178649902344" fill="none" stroke="#ED1F24" stroke-width="0.25"/>
    <line x1="917.450927734375" y1="140.03659057617188" x2="910.6461791992188" y2="135.2269287109375" fill="none" stroke="#ED1F24" stroke-width="0.25"/>
    <line x1="918.9965209960938" y1="148.7311248779297" x2="911.3895874023438" y2="144.42774963378906" fill="none" stroke="#ED1F24" stroke-width="0.25"/>
    <line x1="471.2007751464844" y1="156.46115112304688" x2="469.66912841796875" y2="157.80850219726562" fill="none" stroke="#ED1F24" stroke-width="0.25"/>
    <line x1="476.01898193359375" y1="164.331298828125" x2="475.0103454589844" y2="165.4571075439453" fill="none" stroke="#ED1F24" stroke-width="0.25"/>
    <line x1="857.817138671875" y1="165.4838409423828" x2="850.1640625" y2="161.29019165039062" fill="none" stroke="#ED1F24" stroke-width="0.25"/>
    <line x1="622.2008056640625" y1="167.22283935546875" x2="617.0348510742188" y2="166.76168823242188" fill="none" stroke="#ED1F24" stroke-width="0.25"/>
    <line x1="622.2008056640625" y1="167.22283935546875" x2="617.0348510742188" y2="166.76168823242188" fill="none" stroke="#ED1F24" stroke-width="0.25"/>
    <line x1="524.2734375" y1="362.4522399902344" x2="521.7821044921875" y2="360.06988525390625" fill="none" stroke="#ED1F24" stroke-width="0.25"/>
    <line x1="541.963134765625" y1="383.8940124511719" x2="541.5858154296875" y2="379.85870361328125" fill="none" stroke="#ED1F24" stroke-width="0.25"/>
    <line x1="605.99755859375" y1="387.1748962402344" x2="602.1497802734375" y2="383.3254089355469" fill="none" stroke="#ED1F24" stroke-width="0.25"/>
    <line x1="579.406982421875" y1="414.94720458984375" x2="577.33349609375" y2="409.9535217285156" fill="none" stroke="#ED1F24" stroke-width="0.25"/>
    <line x1="192.14364624023438" y1="329.925048828125" x2="195.8795928955078" y2="331.634033203125" fill="none" stroke="#ED1F24" stroke-width="0.25"/>
    <line x1="383.259033203125" y1="390.64215087890625" x2="384.3094482421875" y2="388.0810546875" fill="none" stroke="#ED1F24" stroke-width="0.25"/>
    <line x1="36.12931823730469" y1="150.06011962890625" x2="35.23893356323242" y2="154.19305419921875" fill="none" stroke="#ED1F24" stroke-width="0.25"/>
    <line x1="28.273344039916992" y1="361.2962341308594" x2="30.08190155029297" y2="364.3979187011719" fill="none" stroke="#ED1F24" stroke-width="0.25"/>
    <line x1="315.5772399902344" y1="386.6190490722656" x2="319.4344787597656" y2="385.985107421875" fill="none" stroke="#ED1F24" stroke-width="0.25"/>
  </g>
</svg>
