<?xml version="1.0" encoding="utf-8"?>
<!-- Generator: Adobe Illustrator 16.0.4, SVG Export Plug-In . SVG Version: 6.00 Build 0)  -->
<!DOCTYPE svg PUBLIC "-//W3C//DTD SVG 1.1//EN" "http://www.w3.org/Graphics/SVG/1.1/DTD/svg11.dtd">
<svg version="1.1" id="svg" xmlns="http://www.w3.org/2000/svg" xmlns:xlink="http://www.w3.org/1999/xlink" x="0px" y="0px"
	 width="968px" height="648px" viewBox="0 0 968 648" enable-background="new 0 0 968 648" xml:space="preserve">
<image overflow="visible" enable-background="new    " width="3872" height="2592" xlink:href="AK03b_20080811_191645.JPG"  transform="matrix(0.25 0 0 0.25 0 0)">
</image>
<image overflow="visible" enable-background="new    " width="3872" height="2592" xlink:href="AK03b_20080811_191645-synth.JPG"  transform="matrix(0.25 0 0 0.25 0 0)">
</image>
<g id="points-auto">
	<line fill="none" stroke="#ED1F24" stroke-width="0.25" x1="934.006" y1="68.68" x2="942.442" y2="58.675"/>
	<line fill="none" stroke="#ED1F24" stroke-width="0.25" x1="933.501" y1="70.106" x2="941.848" y2="60.396"/>
	<line fill="none" stroke="#ED1F24" stroke-width="0.25" x1="300.149" y1="80.892" x2="306.215" y2="78.871"/>
	<line fill="none" stroke="#ED1F24" stroke-width="0.25" x1="291.476" y1="83.85" x2="297.499" y2="81.049"/>
	<line fill="none" stroke="#ED1F24" stroke-width="0.25" x1="772.34" y1="95.69" x2="775.506" y2="89.602"/>
	<line fill="none" stroke="#ED1F24" stroke-width="0.25" x1="327.358" y1="100.02" x2="333.293" y2="98.143"/>
	<line fill="none" stroke="#ED1F24" stroke-width="0.25" x1="359.998" y1="118.208" x2="365.829" y2="116.467"/>
	<line fill="none" stroke="#ED1F24" stroke-width="0.25" x1="904.39" y1="121.201" x2="911.069" y2="112.908"/>
	<line fill="none" stroke="#ED1F24" stroke-width="0.25" x1="915.944" y1="125.219" x2="922.939" y2="116.733"/>
	<line fill="none" stroke="#ED1F24" stroke-width="0.25" x1="866.139" y1="127.17" x2="871.591" y2="119.292"/>
	<line fill="none" stroke="#ED1F24" stroke-width="0.25" x1="419.79" y1="148.111" x2="425.06" y2="145.969"/>
	<line fill="none" stroke="#ED1F24" stroke-width="0.25" x1="934.109" y1="58.006" x2="942.627" y2="47.952"/>
	<line fill="none" stroke="#ED1F24" stroke-width="0.25" x1="902.416" y1="64.857" x2="909.73" y2="55.409"/>
	<line fill="none" stroke="#ED1F24" stroke-width="0.25" x1="907.284" y1="66.426" x2="915.064" y2="57.037"/>
	<line fill="none" stroke="#ED1F24" stroke-width="0.25" x1="908.854" y1="66.758" x2="916.852" y2="57.257"/>
	<line fill="none" stroke="#ED1F24" stroke-width="0.25" x1="907.182" y1="67.293" x2="914.662" y2="57.809"/>
	<line fill="none" stroke="#ED1F24" stroke-width="0.25" x1="933.071" y1="69.318" x2="941.604" y2="59.467"/>
	<line fill="none" stroke="#ED1F24" stroke-width="0.25" x1="918.047" y1="71.591" x2="925.879" y2="61.911"/>
	<line fill="none" stroke="#ED1F24" stroke-width="0.25" x1="908.631" y1="74.463" x2="916.042" y2="65.089"/>
	<line fill="none" stroke="#ED1F24" stroke-width="0.25" x1="304.969" y1="75.458" x2="310.784" y2="73.216"/>
	<line fill="none" stroke="#ED1F24" stroke-width="0.25" x1="304.969" y1="75.458" x2="310.784" y2="73.216"/>
	<line fill="none" stroke="#ED1F24" stroke-width="0.25" x1="792.924" y1="78.424" x2="796.539" y2="71.732"/>
	<line fill="none" stroke="#ED1F24" stroke-width="0.25" x1="869.019" y1="80.449" x2="874.67" y2="72.226"/>
	<line fill="none" stroke="#ED1F24" stroke-width="0.25" x1="304.233" y1="81.017" x2="310.271" y2="79.136"/>
	<line fill="none" stroke="#ED1F24" stroke-width="0.25" x1="926.163" y1="81.469" x2="934.012" y2="71.866"/>
	<line fill="none" stroke="#ED1F24" stroke-width="0.25" x1="872.429" y1="82.623" x2="878.278" y2="74.326"/>
	<line fill="none" stroke="#ED1F24" stroke-width="0.25" x1="872.429" y1="82.623" x2="878.278" y2="74.326"/>
	<line fill="none" stroke="#ED1F24" stroke-width="0.25" x1="908.668" y1="82.554" x2="915.982" y2="73.15"/>
	<line fill="none" stroke="#ED1F24" stroke-width="0.25" x1="763.593" y1="86.941" x2="766.765" y2="80.788"/>
	<line fill="none" stroke="#ED1F24" stroke-width="0.25" x1="952.531" y1="92.696" x2="961.615" y2="82.592"/>
	<line fill="none" stroke="#ED1F24" stroke-width="0.25" x1="780.253" y1="95.214" x2="783.779" y2="88.893"/>
	<line fill="none" stroke="#ED1F24" stroke-width="0.25" x1="949.046" y1="95.391" x2="958.037" y2="85.497"/>
	<line fill="none" stroke="#ED1F24" stroke-width="0.25" x1="771.928" y1="96.489" x2="774.946" y2="90.414"/>
	<line fill="none" stroke="#ED1F24" stroke-width="0.25" x1="300.728" y1="96.87" x2="306.789" y2="94.638"/>
	<line fill="none" stroke="#ED1F24" stroke-width="0.25" x1="920.486" y1="102.815" x2="928.143" y2="93.759"/>
	<line fill="none" stroke="#ED1F24" stroke-width="0.25" x1="910.877" y1="102.865" x2="917.821" y2="93.953"/>
	<line fill="none" stroke="#ED1F24" stroke-width="0.25" x1="341.341" y1="104.386" x2="347.258" y2="102.55"/>
	<line fill="none" stroke="#ED1F24" stroke-width="0.25" x1="911.932" y1="106.043" x2="919.071" y2="97.198"/>
	<line fill="none" stroke="#ED1F24" stroke-width="0.25" x1="331.92" y1="106.365" x2="338.152" y2="104.641"/>
	<line fill="none" stroke="#ED1F24" stroke-width="0.25" x1="911.866" y1="107.297" x2="918.9" y2="98.417"/>
	<line fill="none" stroke="#ED1F24" stroke-width="0.25" x1="334.645" y1="108.261" x2="340.129" y2="106.13"/>
	<line fill="none" stroke="#ED1F24" stroke-width="0.25" x1="924.105" y1="109.112" x2="931.639" y2="100.081"/>
	<line fill="none" stroke="#ED1F24" stroke-width="0.25" x1="343.57" y1="112.462" x2="349.648" y2="110.571"/>
	<line fill="none" stroke="#ED1F24" stroke-width="0.25" x1="343.57" y1="112.462" x2="349.648" y2="110.571"/>
	<line fill="none" stroke="#ED1F24" stroke-width="0.25" x1="357.62" y1="116.472" x2="363.211" y2="114.398"/>
	<line fill="none" stroke="#ED1F24" stroke-width="0.25" x1="352.646" y1="117.234" x2="358.905" y2="115.715"/>
	<line fill="none" stroke="#ED1F24" stroke-width="0.25" x1="355.281" y1="119.174" x2="361.152" y2="117.368"/>
	<line fill="none" stroke="#ED1F24" stroke-width="0.25" x1="322.769" y1="119.282" x2="328.955" y2="117.195"/>
	<line fill="none" stroke="#ED1F24" stroke-width="0.25" x1="324.234" y1="120.217" x2="330.54" y2="118.408"/>
	<line fill="none" stroke="#ED1F24" stroke-width="0.25" x1="863.699" y1="128.38" x2="869.245" y2="121.281"/>
	<line fill="none" stroke="#ED1F24" stroke-width="0.25" x1="868.684" y1="129.771" x2="873.944" y2="122.087"/>
	<line fill="none" stroke="#ED1F24" stroke-width="0.25" x1="764.248" y1="150.863" x2="766.852" y2="145.272"/>
	<line fill="none" stroke="#ED1F24" stroke-width="0.25" x1="900.106" y1="62.975" x2="907.229" y2="53.648"/>
	<line fill="none" stroke="#ED1F24" stroke-width="0.25" x1="914.933" y1="66.253" x2="922.741" y2="56.593"/>
	<line fill="none" stroke="#ED1F24" stroke-width="0.25" x1="925.67" y1="66.421" x2="933.902" y2="56.559"/>
	<line fill="none" stroke="#ED1F24" stroke-width="0.25" x1="929.634" y1="69.142" x2="937.921" y2="59.243"/>
	<line fill="none" stroke="#ED1F24" stroke-width="0.25" x1="852.305" y1="69.946" x2="857.849" y2="61.815"/>
	<line fill="none" stroke="#ED1F24" stroke-width="0.25" x1="940.438" y1="73.391" x2="948.67" y2="63.428"/>
	<line fill="none" stroke="#ED1F24" stroke-width="0.25" x1="855.975" y1="73.705" x2="861.217" y2="65.984"/>
	<line fill="none" stroke="#ED1F24" stroke-width="0.25" x1="855.975" y1="73.705" x2="861.217" y2="65.984"/>
	<line fill="none" stroke="#ED1F24" stroke-width="0.25" x1="914.111" y1="74.85" x2="921.627" y2="65.448"/>
	<line fill="none" stroke="#ED1F24" stroke-width="0.25" x1="904.163" y1="77.651" x2="911.235" y2="68.453"/>
	<line fill="none" stroke="#ED1F24" stroke-width="0.25" x1="861.123" y1="78.921" x2="866.91" y2="70.762"/>
	<line fill="none" stroke="#ED1F24" stroke-width="0.25" x1="868.013" y1="80.187" x2="873.805" y2="71.82"/>
	<line fill="none" stroke="#ED1F24" stroke-width="0.25" x1="932.469" y1="81.475" x2="940.535" y2="71.694"/>
	<line fill="none" stroke="#ED1F24" stroke-width="0.25" x1="940.489" y1="82.067" x2="948.806" y2="72.272"/>
	<line fill="none" stroke="#ED1F24" stroke-width="0.25" x1="303.172" y1="83.103" x2="309.165" y2="80.789"/>
	<line fill="none" stroke="#ED1F24" stroke-width="0.25" x1="669.816" y1="83.74" x2="672.069" y2="79.354"/>
	<line fill="none" stroke="#ED1F24" stroke-width="0.25" x1="328.401" y1="85.793" x2="334.08" y2="83.916"/>
	<line fill="none" stroke="#ED1F24" stroke-width="0.25" x1="328.401" y1="85.793" x2="334.08" y2="83.916"/>
	<line fill="none" stroke="#ED1F24" stroke-width="0.25" x1="870.123" y1="86.086" x2="875.878" y2="77.938"/>
	<line fill="none" stroke="#ED1F24" stroke-width="0.25" x1="293.905" y1="87.057" x2="299.955" y2="84.705"/>
	<line fill="none" stroke="#ED1F24" stroke-width="0.25" x1="776.581" y1="87.002" x2="779.936" y2="80.548"/>
	<line fill="none" stroke="#ED1F24" stroke-width="0.25" x1="776.581" y1="87.002" x2="779.936" y2="80.548"/>
	<line fill="none" stroke="#ED1F24" stroke-width="0.25" x1="945.843" y1="87.722" x2="954.858" y2="77.761"/>
	<line fill="none" stroke="#ED1F24" stroke-width="0.25" x1="793.277" y1="87.909" x2="797.077" y2="81.168"/>
	<line fill="none" stroke="#ED1F24" stroke-width="0.25" x1="636.168" y1="88.877" x2="638.462" y2="85.038"/>
	<line fill="none" stroke="#ED1F24" stroke-width="0.25" x1="757.343" y1="89.246" x2="759.918" y2="83.617"/>
	<line fill="none" stroke="#ED1F24" stroke-width="0.25" x1="637.623" y1="89.559" x2="639.886" y2="85.739"/>
	<line fill="none" stroke="#ED1F24" stroke-width="0.25" x1="940.583" y1="90.475" x2="949.247" y2="80.757"/>
	<line fill="none" stroke="#ED1F24" stroke-width="0.25" x1="784.426" y1="91.742" x2="787.854" y2="85.549"/>
	<line fill="none" stroke="#ED1F24" stroke-width="0.25" x1="904.686" y1="95.176" x2="911.243" y2="86.079"/>
	<line fill="none" stroke="#ED1F24" stroke-width="0.25" x1="779.67" y1="96.595" x2="782.947" y2="90.399"/>
	<line fill="none" stroke="#ED1F24" stroke-width="0.25" x1="772.849" y1="97.061" x2="776.057" y2="90.9"/>
	<line fill="none" stroke="#ED1F24" stroke-width="0.25" x1="786.866" y1="99.005" x2="790.306" y2="92.507"/>
	<line fill="none" stroke="#ED1F24" stroke-width="0.25" x1="922.303" y1="100.181" x2="929.936" y2="91.132"/>
	<line fill="none" stroke="#ED1F24" stroke-width="0.25" x1="904.818" y1="101.603" x2="911.705" y2="92.764"/>
	<line fill="none" stroke="#ED1F24" stroke-width="0.25" x1="921.327" y1="102.18" x2="928.923" y2="93.049"/>
	<line fill="none" stroke="#ED1F24" stroke-width="0.25" x1="921.327" y1="102.18" x2="928.923" y2="93.049"/>
	<line fill="none" stroke="#ED1F24" stroke-width="0.25" x1="913.296" y1="102.225" x2="920.436" y2="93.114"/>
	<line fill="none" stroke="#ED1F24" stroke-width="0.25" x1="906.247" y1="102.84" x2="913.317" y2="94.034"/>
	<line fill="none" stroke="#ED1F24" stroke-width="0.25" x1="344.15" y1="102.958" x2="350.324" y2="100.998"/>
	<line fill="none" stroke="#ED1F24" stroke-width="0.25" x1="910.967" y1="105.701" x2="918.023" y2="96.747"/>
	<line fill="none" stroke="#ED1F24" stroke-width="0.25" x1="946.408" y1="106.915" x2="955.117" y2="97.172"/>
	<line fill="none" stroke="#ED1F24" stroke-width="0.25" x1="351.903" y1="109.121" x2="357.915" y2="107.146"/>
	<line fill="none" stroke="#ED1F24" stroke-width="0.25" x1="913.899" y1="109.105" x2="920.929" y2="100.537"/>
	<line fill="none" stroke="#ED1F24" stroke-width="0.25" x1="339.278" y1="111.331" x2="345.477" y2="109.673"/>
	<line fill="none" stroke="#ED1F24" stroke-width="0.25" x1="344.463" y1="111.892" x2="350.437" y2="109.899"/>
	<line fill="none" stroke="#ED1F24" stroke-width="0.25" x1="568.263" y1="121.904" x2="570.816" y2="118.657"/>
	<line fill="none" stroke="#ED1F24" stroke-width="0.25" x1="915.32" y1="126.855" x2="922.12" y2="118.174"/>
	<line fill="none" stroke="#ED1F24" stroke-width="0.25" x1="18.814" y1="158.86" x2="21.982" y2="155.103"/>
	<line fill="none" stroke="#ED1F24" stroke-width="0.25" x1="915.976" y1="53.978" x2="923.768" y2="44.167"/>
	<line fill="none" stroke="#ED1F24" stroke-width="0.25" x1="939.475" y1="62.378" x2="948.246" y2="52.319"/>
	<line fill="none" stroke="#ED1F24" stroke-width="0.25" x1="912.944" y1="65.703" x2="920.239" y2="56.068"/>
	<line fill="none" stroke="#ED1F24" stroke-width="0.25" x1="860.194" y1="68.292" x2="865.701" y2="60.077"/>
	<line fill="none" stroke="#ED1F24" stroke-width="0.25" x1="860.194" y1="68.292" x2="865.701" y2="60.077"/>
	<line fill="none" stroke="#ED1F24" stroke-width="0.25" x1="863.002" y1="68.847" x2="868.931" y2="60.245"/>
	<line fill="none" stroke="#ED1F24" stroke-width="0.25" x1="899.718" y1="76.693" x2="906.88" y2="67.543"/>
	<line fill="none" stroke="#ED1F24" stroke-width="0.25" x1="889.947" y1="77.799" x2="896.69" y2="69.02"/>
	<line fill="none" stroke="#ED1F24" stroke-width="0.25" x1="907.863" y1="77.974" x2="915.279" y2="68.598"/>
	<line fill="none" stroke="#ED1F24" stroke-width="0.25" x1="917.271" y1="78.717" x2="925.075" y2="69.267"/>
	<line fill="none" stroke="#ED1F24" stroke-width="0.25" x1="933.691" y1="80.618" x2="942.009" y2="70.897"/>
	<line fill="none" stroke="#ED1F24" stroke-width="0.25" x1="887.234" y1="81.543" x2="893.958" y2="72.531"/>
	<line fill="none" stroke="#ED1F24" stroke-width="0.25" x1="936.479" y1="81.577" x2="944.909" y2="71.738"/>
	<line fill="none" stroke="#ED1F24" stroke-width="0.25" x1="916.275" y1="82.078" x2="923.537" y2="72.753"/>
	<line fill="none" stroke="#ED1F24" stroke-width="0.25" x1="650.297" y1="82.889" x2="652.587" y2="78.744"/>
	<line fill="none" stroke="#ED1F24" stroke-width="0.25" x1="315.602" y1="86.166" x2="321.462" y2="84.156"/>
	<line fill="none" stroke="#ED1F24" stroke-width="0.25" x1="949.934" y1="86.521" x2="958.865" y2="76.48"/>
	<line fill="none" stroke="#ED1F24" stroke-width="0.25" x1="949.934" y1="86.521" x2="958.865" y2="76.48"/>
	<line fill="none" stroke="#ED1F24" stroke-width="0.25" x1="291.701" y1="87.019" x2="297.662" y2="84.816"/>
	<line fill="none" stroke="#ED1F24" stroke-width="0.25" x1="947.057" y1="88.05" x2="955.954" y2="77.94"/>
	<line fill="none" stroke="#ED1F24" stroke-width="0.25" x1="320.151" y1="89.973" x2="326.018" y2="88.029"/>
	<line fill="none" stroke="#ED1F24" stroke-width="0.25" x1="320.151" y1="89.973" x2="326.018" y2="88.029"/>
	<line fill="none" stroke="#ED1F24" stroke-width="0.25" x1="884.788" y1="90.854" x2="891.456" y2="82.289"/>
	<line fill="none" stroke="#ED1F24" stroke-width="0.25" x1="953.623" y1="90.884" x2="962.607" y2="80.84"/>
	<line fill="none" stroke="#ED1F24" stroke-width="0.25" x1="793.566" y1="94.488" x2="797.183" y2="87.904"/>
	<line fill="none" stroke="#ED1F24" stroke-width="0.25" x1="789.701" y1="95.975" x2="793.11" y2="89.655"/>
	<line fill="none" stroke="#ED1F24" stroke-width="0.25" x1="304.604" y1="96.487" x2="310.78" y2="94.472"/>
	<line fill="none" stroke="#ED1F24" stroke-width="0.25" x1="276.427" y1="97.939" x2="283.043" y2="95.894"/>
	<line fill="none" stroke="#ED1F24" stroke-width="0.25" x1="944.733" y1="99.375" x2="953.464" y2="89.511"/>
	<line fill="none" stroke="#ED1F24" stroke-width="0.25" x1="329.478" y1="100.396" x2="335.39" y2="98.494"/>
	<line fill="none" stroke="#ED1F24" stroke-width="0.25" x1="906.178" y1="100.835" x2="913.007" y2="91.943"/>
	<line fill="none" stroke="#ED1F24" stroke-width="0.25" x1="907.872" y1="101.244" x2="914.909" y2="92.326"/>
	<line fill="none" stroke="#ED1F24" stroke-width="0.25" x1="914.614" y1="103.709" x2="921.774" y2="94.453"/>
	<line fill="none" stroke="#ED1F24" stroke-width="0.25" x1="333.381" y1="118.966" x2="339.576" y2="117.044"/>
	<line fill="none" stroke="#ED1F24" stroke-width="0.25" x1="757.177" y1="122.769" x2="759.735" y2="117.166"/>
	<line fill="none" stroke="#ED1F24" stroke-width="0.25" x1="788.688" y1="123.09" x2="792.039" y2="116.951"/>
	<line fill="none" stroke="#ED1F24" stroke-width="0.25" x1="273.549" y1="129.78" x2="280.357" y2="127.74"/>
	<line fill="none" stroke="#ED1F24" stroke-width="0.25" x1="401.068" y1="130.699" x2="406.393" y2="128.959"/>
	<line fill="none" stroke="#ED1F24" stroke-width="0.25" x1="852.87" y1="140.264" x2="857.514" y2="133.029"/>
	<line fill="none" stroke="#ED1F24" stroke-width="0.25" x1="813.992" y1="153.996" x2="817.466" y2="147.498"/>
	<line fill="none" stroke="#ED1F24" stroke-width="0.25" x1="128.765" y1="157.616" x2="134.8" y2="154.819"/>
	<line fill="none" stroke="#ED1F24" stroke-width="0.25" x1="686.645" y1="160.246" x2="688.308" y2="155.691"/>
	<line fill="none" stroke="#ED1F24" stroke-width="0.25" x1="937.516" y1="60.785" x2="946.241" y2="50.56"/>
	<line fill="none" stroke="#ED1F24" stroke-width="0.25" x1="908.588" y1="64.251" x2="916.158" y2="54.81"/>
	<line fill="none" stroke="#ED1F24" stroke-width="0.25" x1="923.742" y1="65.045" x2="931.837" y2="55.246"/>
	<line fill="none" stroke="#ED1F24" stroke-width="0.25" x1="926.59" y1="65.544" x2="934.706" y2="55.603"/>
	<line fill="none" stroke="#ED1F24" stroke-width="0.25" x1="911.674" y1="67.062" x2="919.472" y2="57.551"/>
	<line fill="none" stroke="#ED1F24" stroke-width="0.25" x1="860.955" y1="69.902" x2="866.661" y2="61.488"/>
	<line fill="none" stroke="#ED1F24" stroke-width="0.25" x1="864.354" y1="70.442" x2="870.236" y2="61.861"/>
	<line fill="none" stroke="#ED1F24" stroke-width="0.25" x1="791.862" y1="78.695" x2="795.547" y2="72.192"/>
	<line fill="none" stroke="#ED1F24" stroke-width="0.25" x1="911.414" y1="81.493" x2="918.824" y2="72.139"/>
	<line fill="none" stroke="#ED1F24" stroke-width="0.25" x1="794.16" y1="82.512" x2="797.756" y2="75.435"/>
	<line fill="none" stroke="#ED1F24" stroke-width="0.25" x1="576.246" y1="86.147" x2="579.345" y2="82.9"/>
	<line fill="none" stroke="#ED1F24" stroke-width="0.25" x1="794.263" y1="88.655" x2="797.938" y2="82.05"/>
	<line fill="none" stroke="#ED1F24" stroke-width="0.25" x1="794.263" y1="88.655" x2="797.938" y2="82.05"/>
	<line fill="none" stroke="#ED1F24" stroke-width="0.25" x1="280.493" y1="89.438" x2="286.577" y2="86.944"/>
	<line fill="none" stroke="#ED1F24" stroke-width="0.25" x1="779.053" y1="97.923" x2="782.087" y2="91.828"/>
	<line fill="none" stroke="#ED1F24" stroke-width="0.25" x1="773.153" y1="98.681" x2="776.409" y2="92.554"/>
	<line fill="none" stroke="#ED1F24" stroke-width="0.25" x1="776.745" y1="98.821" x2="779.723" y2="92.852"/>
	<line fill="none" stroke="#ED1F24" stroke-width="0.25" x1="271.037" y1="101.792" x2="277.253" y2="99.708"/>
	<line fill="none" stroke="#ED1F24" stroke-width="0.25" x1="945.878" y1="106.118" x2="954.473" y2="96.513"/>
	<line fill="none" stroke="#ED1F24" stroke-width="0.25" x1="645.966" y1="119.752" x2="647.879" y2="115.45"/>
	<line fill="none" stroke="#ED1F24" stroke-width="0.25" x1="378.274" y1="124.224" x2="384.157" y2="122.677"/>
	<line fill="none" stroke="#ED1F24" stroke-width="0.25" x1="886.411" y1="127.124" x2="891.915" y2="119.044"/>
	<line fill="none" stroke="#ED1F24" stroke-width="0.25" x1="954.865" y1="131.308" x2="963.535" y2="121.904"/>
	<line fill="none" stroke="#ED1F24" stroke-width="0.25" x1="394.747" y1="134.184" x2="400.391" y2="132.44"/>
	<line fill="none" stroke="#ED1F24" stroke-width="0.25" x1="394.747" y1="134.184" x2="400.391" y2="132.44"/>
	<line fill="none" stroke="#ED1F24" stroke-width="0.25" x1="562.521" y1="139.24" x2="565.496" y2="136.074"/>
	<line fill="none" stroke="#ED1F24" stroke-width="0.25" x1="916.213" y1="56.358" x2="924.081" y2="46.671"/>
	<line fill="none" stroke="#ED1F24" stroke-width="0.25" x1="916.213" y1="56.358" x2="924.081" y2="46.671"/>
	<line fill="none" stroke="#ED1F24" stroke-width="0.25" x1="918.032" y1="64.193" x2="925.805" y2="54.418"/>
	<line fill="none" stroke="#ED1F24" stroke-width="0.25" x1="911.372" y1="65.328" x2="919.193" y2="55.729"/>
	<line fill="none" stroke="#ED1F24" stroke-width="0.25" x1="861.274" y1="67.61" x2="866.612" y2="59.479"/>
	<line fill="none" stroke="#ED1F24" stroke-width="0.25" x1="921.02" y1="69.998" x2="928.781" y2="60.422"/>
	<line fill="none" stroke="#ED1F24" stroke-width="0.25" x1="921.02" y1="69.998" x2="928.781" y2="60.422"/>
	<line fill="none" stroke="#ED1F24" stroke-width="0.25" x1="917.973" y1="73.521" x2="925.738" y2="63.889"/>
	<line fill="none" stroke="#ED1F24" stroke-width="0.25" x1="907.295" y1="76.248" x2="914.479" y2="66.906"/>
	<line fill="none" stroke="#ED1F24" stroke-width="0.25" x1="888.285" y1="76.824" x2="894.681" y2="68.392"/>
	<line fill="none" stroke="#ED1F24" stroke-width="0.25" x1="885.446" y1="80.293" x2="892.218" y2="71.76"/>
	<line fill="none" stroke="#ED1F24" stroke-width="0.25" x1="916.339" y1="80.396" x2="923.805" y2="70.91"/>
	<line fill="none" stroke="#ED1F24" stroke-width="0.25" x1="940.419" y1="80.354" x2="949.027" y2="70.424"/>
	<line fill="none" stroke="#ED1F24" stroke-width="0.25" x1="875.393" y1="85.555" x2="881.422" y2="77.222"/>
	<line fill="none" stroke="#ED1F24" stroke-width="0.25" x1="875.393" y1="85.555" x2="881.422" y2="77.222"/>
	<line fill="none" stroke="#ED1F24" stroke-width="0.25" x1="951.281" y1="87.743" x2="960.545" y2="77.424"/>
	<line fill="none" stroke="#ED1F24" stroke-width="0.25" x1="866.474" y1="87.906" x2="872.188" y2="79.486"/>
	<line fill="none" stroke="#ED1F24" stroke-width="0.25" x1="786.731" y1="100.098" x2="790.186" y2="93.958"/>
	<line fill="none" stroke="#ED1F24" stroke-width="0.25" x1="923.196" y1="101.608" x2="930.62" y2="92.471"/>
	<line fill="none" stroke="#ED1F24" stroke-width="0.25" x1="923.196" y1="101.608" x2="930.62" y2="92.471"/>
	<line fill="none" stroke="#ED1F24" stroke-width="0.25" x1="346.769" y1="104.89" x2="352.776" y2="103.019"/>
	<line fill="none" stroke="#ED1F24" stroke-width="0.25" x1="333.454" y1="108.806" x2="339.045" y2="106.676"/>
	<line fill="none" stroke="#ED1F24" stroke-width="0.25" x1="267.255" y1="113.988" x2="273.878" y2="111.963"/>
	<line fill="none" stroke="#ED1F24" stroke-width="0.25" x1="333.506" y1="121.582" x2="340.005" y2="119.802"/>
	<line fill="none" stroke="#ED1F24" stroke-width="0.25" x1="907.951" y1="121.899" x2="915.234" y2="113.932"/>
	<line fill="none" stroke="#ED1F24" stroke-width="0.25" x1="379.159" y1="122.479" x2="384.934" y2="120.738"/>
	<line fill="none" stroke="#ED1F24" stroke-width="0.25" x1="849.99" y1="123.995" x2="855.246" y2="116.623"/>
	<line fill="none" stroke="#ED1F24" stroke-width="0.25" x1="850.112" y1="141.534" x2="854.491" y2="133.955"/>
	<line fill="none" stroke="#ED1F24" stroke-width="0.25" x1="850.112" y1="141.534" x2="854.491" y2="133.955"/>
	<line fill="none" stroke="#ED1F24" stroke-width="0.25" x1="647.593" y1="142.971" x2="649.936" y2="138.945"/>
	<line fill="none" stroke="#ED1F24" stroke-width="0.25" x1="689.25" y1="145.624" x2="691.129" y2="141.203"/>
	<line fill="none" stroke="#ED1F24" stroke-width="0.25" x1="359.081" y1="151.249" x2="365.902" y2="149.175"/>
	<line fill="none" stroke="#ED1F24" stroke-width="0.25" x1="804.945" y1="152.401" x2="808.514" y2="146.579"/>
	<line fill="none" stroke="#ED1F24" stroke-width="0.25" x1="323.231" y1="163.864" x2="329.958" y2="162.121"/>
	<line fill="none" stroke="#ED1F24" stroke-width="0.25" x1="905.75" y1="63.835" x2="913.212" y2="54.268"/>
	<line fill="none" stroke="#ED1F24" stroke-width="0.25" x1="933.266" y1="71.805" x2="941.611" y2="61.898"/>
	<line fill="none" stroke="#ED1F24" stroke-width="0.25" x1="911.196" y1="75.39" x2="918.307" y2="65.872"/>
	<line fill="none" stroke="#ED1F24" stroke-width="0.25" x1="858.408" y1="76.983" x2="863.642" y2="68.765"/>
	<line fill="none" stroke="#ED1F24" stroke-width="0.25" x1="301.135" y1="85.369" x2="307.304" y2="83.325"/>
	<line fill="none" stroke="#ED1F24" stroke-width="0.25" x1="872.396" y1="87.473" x2="877.069" y2="79.043"/>
	<line fill="none" stroke="#ED1F24" stroke-width="0.25" x1="785.571" y1="92.765" x2="788.985" y2="86.422"/>
	<line fill="none" stroke="#ED1F24" stroke-width="0.25" x1="887.416" y1="95.807" x2="893.229" y2="87.205"/>
	<line fill="none" stroke="#ED1F24" stroke-width="0.25" x1="789.979" y1="97.987" x2="793.094" y2="91.8"/>
	<line fill="none" stroke="#ED1F24" stroke-width="0.25" x1="897.299" y1="98.958" x2="904.199" y2="90.174"/>
	<line fill="none" stroke="#ED1F24" stroke-width="0.25" x1="916.578" y1="100.28" x2="923.75" y2="91.589"/>
	<line fill="none" stroke="#ED1F24" stroke-width="0.25" x1="774.875" y1="100.443" x2="778.005" y2="94.395"/>
	<line fill="none" stroke="#ED1F24" stroke-width="0.25" x1="898.463" y1="109.937" x2="904.987" y2="101.478"/>
	<line fill="none" stroke="#ED1F24" stroke-width="0.25" x1="355.459" y1="110.795" x2="361.231" y2="109.078"/>
	<line fill="none" stroke="#ED1F24" stroke-width="0.25" x1="853.428" y1="125.17" x2="858.378" y2="117.653"/>
	<line fill="none" stroke="#ED1F24" stroke-width="0.25" x1="904.68" y1="125.815" x2="910.879" y2="117.276"/>
	<line fill="none" stroke="#ED1F24" stroke-width="0.25" x1="864.51" y1="129.874" x2="869.417" y2="122.312"/>
	<line fill="none" stroke="#ED1F24" stroke-width="0.25" x1="276.334" y1="131.081" x2="283.244" y2="128.559"/>
	<line fill="none" stroke="#ED1F24" stroke-width="0.25" x1="416.11" y1="143.892" x2="421.616" y2="142.539"/>
	<line fill="none" stroke="#ED1F24" stroke-width="0.25" x1="343.416" y1="158.691" x2="349.956" y2="156.912"/>
	<line fill="none" stroke="#ED1F24" stroke-width="0.25" x1="321.056" y1="162.437" x2="327.628" y2="160.394"/>
	<line fill="none" stroke="#ED1F24" stroke-width="0.25" x1="329.15" y1="162.425" x2="335.454" y2="160.723"/>
	<line fill="none" stroke="#ED1F24" stroke-width="0.25" x1="919.05" y1="54.313" x2="926.801" y2="44.588"/>
	<line fill="none" stroke="#ED1F24" stroke-width="0.25" x1="925.885" y1="68.181" x2="933.976" y2="58.438"/>
	<line fill="none" stroke="#ED1F24" stroke-width="0.25" x1="936.795" y1="69.931" x2="945.192" y2="60.064"/>
	<line fill="none" stroke="#ED1F24" stroke-width="0.25" x1="849.423" y1="72.65" x2="854.794" y2="64.727"/>
	<line fill="none" stroke="#ED1F24" stroke-width="0.25" x1="857.564" y1="72.452" x2="862.814" y2="64.379"/>
	<line fill="none" stroke="#ED1F24" stroke-width="0.25" x1="901.596" y1="78.475" x2="908.18" y2="69.586"/>
	<line fill="none" stroke="#ED1F24" stroke-width="0.25" x1="929.819" y1="80.306" x2="937.985" y2="70.731"/>
	<line fill="none" stroke="#ED1F24" stroke-width="0.25" x1="929.819" y1="80.306" x2="937.985" y2="70.731"/>
	<line fill="none" stroke="#ED1F24" stroke-width="0.25" x1="873.704" y1="81.787" x2="879.479" y2="73.682"/>
	<line fill="none" stroke="#ED1F24" stroke-width="0.25" x1="293.616" y1="89.734" x2="299.432" y2="87.483"/>
	<line fill="none" stroke="#ED1F24" stroke-width="0.25" x1="761.896" y1="89.319" x2="764.531" y2="83.768"/>
	<line fill="none" stroke="#ED1F24" stroke-width="0.25" x1="771.453" y1="96.341" x2="774.536" y2="90.36"/>
	<line fill="none" stroke="#ED1F24" stroke-width="0.25" x1="771.453" y1="96.341" x2="774.536" y2="90.36"/>
	<line fill="none" stroke="#ED1F24" stroke-width="0.25" x1="911.578" y1="97.252" x2="919.956" y2="89.16"/>
	<line fill="none" stroke="#ED1F24" stroke-width="0.25" x1="340.26" y1="101.344" x2="346.608" y2="99.77"/>
	<line fill="none" stroke="#ED1F24" stroke-width="0.25" x1="340.26" y1="101.344" x2="346.608" y2="99.77"/>
	<line fill="none" stroke="#ED1F24" stroke-width="0.25" x1="925.093" y1="104.12" x2="932.123" y2="95.381"/>
	<line fill="none" stroke="#ED1F24" stroke-width="0.25" x1="919.475" y1="107.335" x2="926.934" y2="98.055"/>
	<line fill="none" stroke="#ED1F24" stroke-width="0.25" x1="919.475" y1="107.335" x2="926.934" y2="98.055"/>
	<line fill="none" stroke="#ED1F24" stroke-width="0.25" x1="848.987" y1="118.24" x2="853.596" y2="110.9"/>
	<line fill="none" stroke="#ED1F24" stroke-width="0.25" x1="904.965" y1="123.141" x2="911.485" y2="114.697"/>
	<line fill="none" stroke="#ED1F24" stroke-width="0.25" x1="904.965" y1="123.141" x2="911.485" y2="114.697"/>
	<line fill="none" stroke="#ED1F24" stroke-width="0.25" x1="801.854" y1="139.678" x2="805.007" y2="133.424"/>
	<line fill="none" stroke="#ED1F24" stroke-width="0.25" x1="772.557" y1="146.634" x2="774.811" y2="140.897"/>
	<line fill="none" stroke="#ED1F24" stroke-width="0.25" x1="363.488" y1="183.521" x2="369.273" y2="181.842"/>
	<line fill="none" stroke="#ED1F24" stroke-width="0.25" x1="897.152" y1="76.068" x2="904.098" y2="67.171"/>
	<line fill="none" stroke="#ED1F24" stroke-width="0.25" x1="897.152" y1="76.068" x2="904.098" y2="67.171"/>
	<line fill="none" stroke="#ED1F24" stroke-width="0.25" x1="851.193" y1="76.541" x2="857.25" y2="68.487"/>
	<line fill="none" stroke="#ED1F24" stroke-width="0.25" x1="919.378" y1="76.507" x2="926.847" y2="66.976"/>
	<line fill="none" stroke="#ED1F24" stroke-width="0.25" x1="889.053" y1="79.317" x2="895.277" y2="70.633"/>
	<line fill="none" stroke="#ED1F24" stroke-width="0.25" x1="791.872" y1="92.027" x2="795.361" y2="85.424"/>
	<line fill="none" stroke="#ED1F24" stroke-width="0.25" x1="896.912" y1="94.962" x2="903.382" y2="86.167"/>
	<line fill="none" stroke="#ED1F24" stroke-width="0.25" x1="934.931" y1="98.143" x2="943.115" y2="88.503"/>
	<line fill="none" stroke="#ED1F24" stroke-width="0.25" x1="911.377" y1="100.905" x2="918.469" y2="92.142"/>
	<line fill="none" stroke="#ED1F24" stroke-width="0.25" x1="915.33" y1="106.532" x2="922.132" y2="97.584"/>
	<line fill="none" stroke="#ED1F24" stroke-width="0.25" x1="923.519" y1="107.861" x2="931.083" y2="98.697"/>
	<line fill="none" stroke="#ED1F24" stroke-width="0.25" x1="923.519" y1="107.861" x2="931.083" y2="98.697"/>
	<line fill="none" stroke="#ED1F24" stroke-width="0.25" x1="341.976" y1="112.325" x2="347.904" y2="110.676"/>
	<line fill="none" stroke="#ED1F24" stroke-width="0.25" x1="630.414" y1="123.25" x2="632.691" y2="119.067"/>
	<line fill="none" stroke="#ED1F24" stroke-width="0.25" x1="944.488" y1="141.834" x2="952.146" y2="132.712"/>
	<line fill="none" stroke="#ED1F24" stroke-width="0.25" x1="632.425" y1="144.909" x2="634.278" y2="141.124"/>
	<line fill="none" stroke="#ED1F24" stroke-width="0.25" x1="828.562" y1="146.151" x2="832.932" y2="139.656"/>
	<line fill="none" stroke="#ED1F24" stroke-width="0.25" x1="692.392" y1="154.163" x2="694.702" y2="149.708"/>
	<line fill="none" stroke="#ED1F24" stroke-width="0.25" x1="855.925" y1="80.358" x2="860.585" y2="73.091"/>
	<line fill="none" stroke="#ED1F24" stroke-width="0.25" x1="945.946" y1="96.904" x2="954.392" y2="87.226"/>
	<line fill="none" stroke="#ED1F24" stroke-width="0.25" x1="915.438" y1="97.998" x2="922.02" y2="89.019"/>
	<line fill="none" stroke="#ED1F24" stroke-width="0.25" x1="630.102" y1="123.311" x2="632.691" y2="119.067"/>
	<line fill="none" stroke="#ED1F24" stroke-width="0.25" x1="672.613" y1="128.028" x2="674.592" y2="123.702"/>
	<line fill="none" stroke="#ED1F24" stroke-width="0.25" x1="299.394" y1="186.1" x2="306.504" y2="184.052"/>
	<line fill="none" stroke="#ED1F24" stroke-width="0.25" x1="210.859" y1="193.759" x2="217.341" y2="190.784"/>
	<line fill="none" stroke="#ED1F24" stroke-width="0.25" x1="871.046" y1="77.652" x2="876.082" y2="68.462"/>
	<line fill="none" stroke="#ED1F24" stroke-width="0.25" x1="889.088" y1="91.315" x2="895.581" y2="82.791"/>
	<line fill="none" stroke="#ED1F24" stroke-width="0.25" x1="889.088" y1="91.315" x2="895.581" y2="82.791"/>
	<line fill="none" stroke="#ED1F24" stroke-width="0.25" x1="901.381" y1="97.412" x2="908.096" y2="88.646"/>
	<line fill="none" stroke="#ED1F24" stroke-width="0.25" x1="899.811" y1="106.69" x2="905.583" y2="97.149"/>
	<line fill="none" stroke="#ED1F24" stroke-width="0.25" x1="644.141" y1="141.632" x2="646.282" y2="137.027"/>
	<line fill="none" stroke="#ED1F24" stroke-width="0.25" x1="392.204" y1="172.259" x2="398.791" y2="170.355"/>
	<line fill="none" stroke="#ED1F24" stroke-width="0.25" x1="301.011" y1="180.146" x2="308.474" y2="177.959"/>
	<line fill="none" stroke="#ED1F24" stroke-width="0.25" x1="371.058" y1="187.292" x2="378.658" y2="184.972"/>
	<line fill="none" stroke="#ED1F24" stroke-width="0.25" x1="371.058" y1="187.292" x2="378.658" y2="184.972"/>
	<line fill="none" stroke="#ED1F24" stroke-width="0.25" x1="865.789" y1="83.324" x2="871.089" y2="75.139"/>
	<line fill="none" stroke="#ED1F24" stroke-width="0.25" x1="897.271" y1="86.917" x2="902.741" y2="78.093"/>
	<line fill="none" stroke="#ED1F24" stroke-width="0.25" x1="907.548" y1="115.901" x2="913.832" y2="106.753"/>
	<line fill="none" stroke="#ED1F24" stroke-width="0.25" x1="460.73" y1="181.308" x2="467.589" y2="178.305"/>
	<line fill="none" stroke="#ED1F24" stroke-width="0.25" x1="894.382" y1="68.625" x2="901.357" y2="59.047"/>
	<line fill="none" stroke="#ED1F24" stroke-width="0.25" x1="904.521" y1="72.562" x2="911.807" y2="62.828"/>
	<line fill="none" stroke="#ED1F24" stroke-width="0.25" x1="900.997" y1="86.75" x2="910.472" y2="77.854"/>
	<line fill="none" stroke="#ED1F24" stroke-width="0.25" x1="900.997" y1="86.75" x2="910.472" y2="77.854"/>
	<line fill="none" stroke="#ED1F24" stroke-width="0.25" x1="305.372" y1="190.597" x2="313.231" y2="188.698"/>
</g>
</svg>
