<?xml version="1.0" encoding="utf-8"?>
<!-- Generator: Adobe Illustrator 16.0.4, SVG Export Plug-In . SVG Version: 6.00 Build 0)  -->
<!DOCTYPE svg PUBLIC "-//W3C//DTD SVG 1.1//EN" "http://www.w3.org/Graphics/SVG/1.1/DTD/svg11.dtd">
<svg version="1.1" id="svg" xmlns="http://www.w3.org/2000/svg" xmlns:xlink="http://www.w3.org/1999/xlink" x="0px" y="0px"
	 width="968px" height="648px" viewBox="0 0 968 648" enable-background="new 0 0 968 648" xml:space="preserve">
<image overflow="visible" enable-background="new    " width="3872" height="2592" xlink:href="AK09_20090803_200320.JPG"  transform="matrix(0.25 0 0 0.25 0 0)">
</image>
<image overflow="visible" enable-background="new    " width="3872" height="2592" xlink:href="AK09_20090803_200320-synth.JPG"  transform="matrix(0.25 0 0 0.25 0 0)">
</image>
<g id="points-unused">
	<line fill="none" stroke="#ED1F24" stroke-width="0.25" x1="936.731" y1="343.771" x2="938.42" y2="344.522"/>
	<line fill="none" stroke="#ED1F24" stroke-width="0.25" x1="777.799" y1="327.022" x2="780.857" y2="327.14"/>
</g>
<g id="lines">
	<g id="Layer_4">
		<polyline id="synth_4_" fill="none" stroke="#ED1F24" stroke-width="0.25" stroke-miterlimit="10" points="799.5,104 
			799.656,104.562 800.375,105.281 801.375,106.156 803.031,107.219 803.781,107.594 805.094,108.031 806.062,108.25 
			807.062,108.375 807.938,108.469 809.312,109.094 810.719,109.719 812.562,110.656 814.719,111.531 818.031,113 820.656,113.938 
			820.844,114 823.062,114.969 825.75,116.094 828.625,117.344 831.969,118.688 834.75,119.562 836.031,119.906 		"/>
		<polyline id="image" fill="none" stroke="#ED1F24" stroke-width="0.25" stroke-miterlimit="10" points="798.188,106.281 
			799.094,107.25 800.344,108.312 802.062,109.562 803.156,109.969 804.875,110.25 806.062,110.375 807.062,110.719 
			809.281,111.812 811.188,112.75 		"/>
		<polyline id="image_1_" fill="none" stroke="#ED1F24" stroke-width="0.25" stroke-miterlimit="10" points="822.375,117.844 
			825.25,119.062 827.656,120.094 831.094,121.531 		"/>
	</g>
	<g id="Layer_5">
		<polyline id="synth_2_" fill="none" stroke="#ED1F24" stroke-width="0.25" stroke-miterlimit="10" points="84.083,93.208 
			80.208,93.625 76.542,93.875 70.875,94.375 66.459,94.708 63.834,95.208 61.209,95.458 56.75,95.875 50.834,96.292 47.667,96.417 
			43.542,96.792 38.71,97.25 34.043,97.75 30.668,98.083 25.96,98.417 		"/>
		<polyline id="image_2_" fill="none" stroke="#ED1F24" stroke-width="0.25" stroke-miterlimit="10" points="78.96,90.708 
			73.626,91.083 69.126,91.583 65.001,91.917 61.71,92.292 57.918,92.708 54.043,93.083 49.96,93.417 45.668,93.792 41.627,94.208 
			37.918,94.583 31.21,95.208 		"/>
	</g>
</g>
<g id="points-auto">
	<line fill="none" stroke="#FF0000" stroke-width="0.25" x1="610.476" y1="30.212" x2="610.346" y2="31.758"/>
	<line fill="none" stroke="#FF0000" stroke-width="0.25" x1="535.494" y1="32.566" x2="535.833" y2="35.136"/>
	<line fill="none" stroke="#FF0000" stroke-width="0.25" x1="579.837" y1="38.772" x2="579.804" y2="40.851"/>
	<line fill="none" stroke="#FF0000" stroke-width="0.25" x1="632.567" y1="67.165" x2="632.33" y2="68.624"/>
	<line fill="none" stroke="#FF0000" stroke-width="0.25" x1="584.469" y1="26.559" x2="584.168" y2="28.382"/>
	<line fill="none" stroke="#FF0000" stroke-width="0.25" x1="592.769" y1="34.63" x2="592.721" y2="36.347"/>
	<line fill="none" stroke="#FF0000" stroke-width="0.25" x1="581.546" y1="36.403" x2="581.516" y2="38.452"/>
	<line fill="none" stroke="#FF0000" stroke-width="0.25" x1="568.51" y1="47.469" x2="568.436" y2="49.979"/>
	<line fill="none" stroke="#FF0000" stroke-width="0.25" x1="295.026" y1="72.487" x2="297.787" y2="76.527"/>
	<line fill="none" stroke="#FF0000" stroke-width="0.25" x1="584.174" y1="78.714" x2="584.281" y2="80.858"/>
	<line fill="none" stroke="#FF0000" stroke-width="0.25" x1="549.409" y1="85.186" x2="549.763" y2="87.782"/>
	<line fill="none" stroke="#FF0000" stroke-width="0.25" x1="419.53" y1="103.613" x2="421.881" y2="107.659"/>
	<line fill="none" stroke="#FF0000" stroke-width="0.25" x1="756.86" y1="109.453" x2="757.091" y2="108.663"/>
	<line fill="none" stroke="#FF0000" stroke-width="0.25" x1="592.948" y1="26.731" x2="592.783" y2="28.211"/>
	<line fill="none" stroke="#FF0000" stroke-width="0.25" x1="585.2" y1="27.836" x2="585.17" y2="29.77"/>
	<line fill="none" stroke="#FF0000" stroke-width="0.25" x1="608.677" y1="30.674" x2="608.672" y2="32.209"/>
	<line fill="none" stroke="#FF0000" stroke-width="0.25" x1="612.287" y1="33.292" x2="612.122" y2="34.677"/>
	<line fill="none" stroke="#FF0000" stroke-width="0.25" x1="607.843" y1="33.336" x2="607.925" y2="34.742"/>
	<line fill="none" stroke="#FF0000" stroke-width="0.25" x1="621.633" y1="43.89" x2="621.439" y2="45.265"/>
	<line fill="none" stroke="#FF0000" stroke-width="0.25" x1="630.053" y1="68.452" x2="629.896" y2="69.924"/>
	<line fill="none" stroke="#FF0000" stroke-width="0.25" x1="295.878" y1="73.944" x2="298.454" y2="77.872"/>
	<line fill="none" stroke="#FF0000" stroke-width="0.25" x1="584.74" y1="86.658" x2="584.821" y2="88.958"/>
	<line fill="none" stroke="#FF0000" stroke-width="0.25" x1="76.248" y1="92.573" x2="76.3" y2="95.663"/>
	<line fill="none" stroke="#FF0000" stroke-width="0.25" x1="21.653" y1="97.027" x2="20.308" y2="99.918"/>
	<line fill="none" stroke="#FF0000" stroke-width="0.25" x1="763.299" y1="109.263" x2="763.928" y2="108.369"/>
	<line fill="none" stroke="#FF0000" stroke-width="0.25" x1="429.457" y1="110.827" x2="431.805" y2="114.654"/>
	<line fill="none" stroke="#FF0000" stroke-width="0.25" x1="765.331" y1="118.61" x2="765.416" y2="117.269"/>
	<line fill="none" stroke="#FF0000" stroke-width="0.25" x1="847.669" y1="135.151" x2="850.21" y2="132.276"/>
	<line fill="none" stroke="#FF0000" stroke-width="0.25" x1="609.583" y1="20.593" x2="609.347" y2="22.053"/>
	<line fill="none" stroke="#FF0000" stroke-width="0.25" x1="609.583" y1="20.593" x2="609.347" y2="22.053"/>
	<line fill="none" stroke="#FF0000" stroke-width="0.25" x1="597.107" y1="28.56" x2="597.068" y2="29.908"/>
	<line fill="none" stroke="#FF0000" stroke-width="0.25" x1="578.256" y1="28.939" x2="578.204" y2="31.051"/>
	<line fill="none" stroke="#FF0000" stroke-width="0.25" x1="579.506" y1="31.167" x2="579.657" y2="33.436"/>
	<line fill="none" stroke="#FF0000" stroke-width="0.25" x1="585.49" y1="33.403" x2="585.738" y2="35.092"/>
	<line fill="none" stroke="#FF0000" stroke-width="0.25" x1="461.432" y1="78.825" x2="463.131" y2="82.438"/>
	<line fill="none" stroke="#FF0000" stroke-width="0.25" x1="518.663" y1="83.457" x2="519.734" y2="86.567"/>
	<line fill="none" stroke="#FF0000" stroke-width="0.25" x1="697.073" y1="83.546" x2="696.77" y2="83.973"/>
	<line fill="none" stroke="#FF0000" stroke-width="0.25" x1="662.159" y1="83.863" x2="662.227" y2="84.407"/>
	<line fill="none" stroke="#FF0000" stroke-width="0.25" x1="280.623" y1="95.063" x2="283.985" y2="99"/>
	<line fill="none" stroke="#FF0000" stroke-width="0.25" x1="656.526" y1="97.695" x2="656.197" y2="98.919"/>
	<line fill="none" stroke="#FF0000" stroke-width="0.25" x1="525.5" y1="98.427" x2="526.328" y2="101.548"/>
	<line fill="none" stroke="#FF0000" stroke-width="0.25" x1="525.5" y1="98.427" x2="526.328" y2="101.548"/>
	<line fill="none" stroke="#FF0000" stroke-width="0.25" x1="657.276" y1="103.186" x2="656.938" y2="104.292"/>
	<line fill="none" stroke="#FF0000" stroke-width="0.25" x1="623.211" y1="103.638" x2="622.971" y2="105.26"/>
	<line fill="none" stroke="#FF0000" stroke-width="0.25" x1="769.229" y1="111.974" x2="769.654" y2="110.768"/>
	<line fill="none" stroke="#FF0000" stroke-width="0.25" x1="766.696" y1="113.946" x2="766.927" y2="112.781"/>
	<line fill="none" stroke="#FF0000" stroke-width="0.25" x1="781.29" y1="117.098" x2="781.831" y2="115.673"/>
	<line fill="none" stroke="#FF0000" stroke-width="0.25" x1="580.905" y1="23.894" x2="580.701" y2="25.835"/>
	<line fill="none" stroke="#FF0000" stroke-width="0.25" x1="581.291" y1="26.94" x2="581.087" y2="28.965"/>
	<line fill="none" stroke="#FF0000" stroke-width="0.25" x1="611" y1="31.523" x2="610.816" y2="33.039"/>
	<line fill="none" stroke="#FF0000" stroke-width="0.25" x1="590.558" y1="32.383" x2="590.399" y2="34.292"/>
	<line fill="none" stroke="#FF0000" stroke-width="0.25" x1="579.253" y1="37.219" x2="579.283" y2="39.285"/>
	<line fill="none" stroke="#FF0000" stroke-width="0.25" x1="618.534" y1="38.291" x2="618.36" y2="39.688"/>
	<line fill="none" stroke="#FF0000" stroke-width="0.25" x1="454.553" y1="56.414" x2="455.741" y2="59.935"/>
	<line fill="none" stroke="#FF0000" stroke-width="0.25" x1="383.057" y1="65.418" x2="385.453" y2="69.44"/>
	<line fill="none" stroke="#FF0000" stroke-width="0.25" x1="368.128" y1="66.941" x2="370.447" y2="70.797"/>
	<line fill="none" stroke="#FF0000" stroke-width="0.25" x1="301.35" y1="71.974" x2="304.246" y2="75.76"/>
	<line fill="none" stroke="#FF0000" stroke-width="0.25" x1="429.692" y1="88.088" x2="431.704" y2="91.893"/>
	<line fill="none" stroke="#FF0000" stroke-width="0.25" x1="521.977" y1="90.055" x2="522.798" y2="93.411"/>
	<line fill="none" stroke="#FF0000" stroke-width="0.25" x1="529.807" y1="90.251" x2="530.724" y2="93.365"/>
	<line fill="none" stroke="#FF0000" stroke-width="0.25" x1="520.043" y1="91.055" x2="521.28" y2="94.39"/>
	<line fill="none" stroke="#FF0000" stroke-width="0.25" x1="624.226" y1="104.854" x2="623.984" y2="106.268"/>
	<line fill="none" stroke="#FF0000" stroke-width="0.25" x1="798.623" y1="108.67" x2="799.865" y2="106.804"/>
	<line fill="none" stroke="#FF0000" stroke-width="0.25" x1="773.545" y1="119.272" x2="774.052" y2="118.038"/>
	<line fill="none" stroke="#FF0000" stroke-width="0.25" x1="801.058" y1="123.034" x2="801.324" y2="121.32"/>
	<line fill="none" stroke="#FF0000" stroke-width="0.25" x1="770.579" y1="127.365" x2="770.924" y2="126.315"/>
	<line fill="none" stroke="#FF0000" stroke-width="0.25" x1="594.835" y1="27.061" x2="594.74" y2="29.113"/>
	<line fill="none" stroke="#FF0000" stroke-width="0.25" x1="599.54" y1="28.065" x2="599.456" y2="30.046"/>
	<line fill="none" stroke="#FF0000" stroke-width="0.25" x1="600.58" y1="31.718" x2="600.443" y2="33.153"/>
	<line fill="none" stroke="#FF0000" stroke-width="0.25" x1="584.418" y1="38.464" x2="584.302" y2="40.533"/>
	<line fill="none" stroke="#FF0000" stroke-width="0.25" x1="565.619" y1="39.874" x2="565.797" y2="42.124"/>
	<line fill="none" stroke="#FF0000" stroke-width="0.25" x1="573.938" y1="42.196" x2="574.361" y2="45.115"/>
	<line fill="none" stroke="#FF0000" stroke-width="0.25" x1="578.181" y1="55.689" x2="578.184" y2="57.973"/>
	<line fill="none" stroke="#FF0000" stroke-width="0.25" x1="693.048" y1="59.283" x2="693.104" y2="59.33"/>
	<line fill="none" stroke="#FF0000" stroke-width="0.25" x1="687.925" y1="59.536" x2="687.906" y2="59.675"/>
	<line fill="none" stroke="#FF0000" stroke-width="0.25" x1="365.809" y1="64.198" x2="368.155" y2="68.245"/>
	<line fill="none" stroke="#FF0000" stroke-width="0.25" x1="607.004" y1="83.226" x2="607.188" y2="85.075"/>
	<line fill="none" stroke="#FF0000" stroke-width="0.25" x1="579.729" y1="83.9" x2="579.906" y2="86.338"/>
	<line fill="none" stroke="#FF0000" stroke-width="0.25" x1="376.852" y1="84.273" x2="379.475" y2="88.224"/>
	<line fill="none" stroke="#FF0000" stroke-width="0.25" x1="695.951" y1="98.208" x2="695.666" y2="98.518"/>
	<line fill="none" stroke="#FF0000" stroke-width="0.25" x1="931.727" y1="116.259" x2="937.309" y2="111.111"/>
	<line fill="none" stroke="#FF0000" stroke-width="0.25" x1="800.661" y1="117.066" x2="801.769" y2="115.263"/>
	<line fill="none" stroke="#FF0000" stroke-width="0.25" x1="454.558" y1="132.781" x2="456.134" y2="136.973"/>
	<line fill="none" stroke="#FF0000" stroke-width="0.25" x1="571.812" y1="39.413" x2="571.744" y2="41.574"/>
	<line fill="none" stroke="#FF0000" stroke-width="0.25" x1="574.076" y1="42.399" x2="574.361" y2="45.115"/>
	<line fill="none" stroke="#FF0000" stroke-width="0.25" x1="622.838" y1="43.639" x2="622.613" y2="44.963"/>
	<line fill="none" stroke="#FF0000" stroke-width="0.25" x1="262.125" y1="56.768" x2="264.176" y2="60.199"/>
	<line fill="none" stroke="#FF0000" stroke-width="0.25" x1="543.234" y1="57.803" x2="543.798" y2="60.69"/>
	<line fill="none" stroke="#FF0000" stroke-width="0.25" x1="325.724" y1="77.097" x2="328.56" y2="80.987"/>
	<line fill="none" stroke="#FF0000" stroke-width="0.25" x1="827.792" y1="109.388" x2="829.463" y2="106.619"/>
	<line fill="none" stroke="#FF0000" stroke-width="0.25" x1="772.869" y1="115.061" x2="773.431" y2="113.685"/>
	<line fill="none" stroke="#FF0000" stroke-width="0.25" x1="537.612" y1="28.021" x2="537.968" y2="30.504"/>
	<line fill="none" stroke="#FF0000" stroke-width="0.25" x1="576.173" y1="36.254" x2="576.566" y2="38.427"/>
	<line fill="none" stroke="#FF0000" stroke-width="0.25" x1="297.404" y1="76.487" x2="300.012" y2="80.327"/>
	<line fill="none" stroke="#FF0000" stroke-width="0.25" x1="673.64" y1="82.366" x2="673.316" y2="83.006"/>
	<line fill="none" stroke="#FF0000" stroke-width="0.25" x1="576.961" y1="82.988" x2="577.186" y2="85.426"/>
	<line fill="none" stroke="#FF0000" stroke-width="0.25" x1="576.961" y1="82.988" x2="577.186" y2="85.426"/>
	<line fill="none" stroke="#FF0000" stroke-width="0.25" x1="537.991" y1="85.218" x2="538.395" y2="87.922"/>
	<line fill="none" stroke="#FF0000" stroke-width="0.25" x1="537.991" y1="85.218" x2="538.395" y2="87.922"/>
	<line fill="none" stroke="#FF0000" stroke-width="0.25" x1="536.33" y1="87.894" x2="536.951" y2="91.057"/>
	<line fill="none" stroke="#FF0000" stroke-width="0.25" x1="613.284" y1="103.915" x2="613.112" y2="106"/>
	<line fill="none" stroke="#FF0000" stroke-width="0.25" x1="507.997" y1="105.422" x2="509.213" y2="108.716"/>
	<line fill="none" stroke="#FF0000" stroke-width="0.25" x1="616.723" y1="39.273" x2="616.558" y2="40.629"/>
	<line fill="none" stroke="#FF0000" stroke-width="0.25" x1="526.438" y1="79.125" x2="527.209" y2="82.106"/>
	<line fill="none" stroke="#FF0000" stroke-width="0.25" x1="365.212" y1="83.949" x2="367.347" y2="88.481"/>
	<line fill="none" stroke="#FF0000" stroke-width="0.25" x1="365.212" y1="83.949" x2="367.347" y2="88.481"/>
	<line fill="none" stroke="#FF0000" stroke-width="0.25" x1="621.566" y1="104.269" x2="621.391" y2="106.051"/>
	<line fill="none" stroke="#FF0000" stroke-width="0.25" x1="630.405" y1="103.857" x2="630.643" y2="105.18"/>
	<line fill="none" stroke="#FF0000" stroke-width="0.25" x1="651.229" y1="108.305" x2="651.048" y2="109.621"/>
	<line fill="none" stroke="#FF0000" stroke-width="0.25" x1="582.189" y1="30.333" x2="582.524" y2="32.492"/>
	<line fill="none" stroke="#FF0000" stroke-width="0.25" x1="470.799" y1="54.993" x2="472.055" y2="58.327"/>
	<line fill="none" stroke="#FF0000" stroke-width="0.25" x1="75.191" y1="86.629" x2="74.579" y2="89.976"/>
	<line fill="none" stroke="#FF0000" stroke-width="0.25" x1="536.452" y1="90.681" x2="536.908" y2="93.478"/>
	<line fill="none" stroke="#FF0000" stroke-width="0.25" x1="648.084" y1="103.018" x2="647.537" y2="104.854"/>
	<line fill="none" stroke="#FF0000" stroke-width="0.25" x1="619.012" y1="33.99" x2="618.455" y2="35.251"/>
	<line fill="none" stroke="#FF0000" stroke-width="0.25" x1="315.617" y1="96.546" x2="319.19" y2="100.299"/>
	<line fill="none" stroke="#FF0000" stroke-width="0.25" x1="777.799" y1="327.022" x2="780.857" y2="327.14"/>
</g>
<g id="points">
	
		<line fill="none" stroke="#FF0000" stroke-width="0.25" stroke-miterlimit="10" x1="586.875" y1="68.625" x2="586.875" y2="70.688"/>
	
		<line fill="none" stroke="#FF0000" stroke-width="0.25" stroke-miterlimit="10" x1="576.125" y1="54.125" x2="576.062" y2="56.312"/>
	<line fill="none" stroke="#FF0000" stroke-width="0.25" stroke-miterlimit="10" x1="567.5" y1="52.375" x2="567.75" y2="54.438"/>
	<line fill="none" stroke="#FF0000" stroke-width="0.25" stroke-miterlimit="10" x1="585.688" y1="75.312" x2="585.938" y2="77.5"/>
	<line fill="none" stroke="#FF0000" stroke-width="0.25" stroke-miterlimit="10" x1="616" y1="102.188" x2="616.062" y2="103.75"/>
	
		<line fill="none" stroke="#FF0000" stroke-width="0.25" stroke-miterlimit="10" x1="634.125" y1="120.188" x2="633.875" y2="121.562"/>
	
		<line fill="none" stroke="#FF0000" stroke-width="0.25" stroke-miterlimit="10" x1="658.25" y1="100.75" x2="658.062" y2="101.75"/>
	
		<line fill="none" stroke="#FF0000" stroke-width="0.25" stroke-miterlimit="10" x1="613.078" y1="22.766" x2="612.906" y2="24.172"/>
	
		<line fill="none" stroke="#FF0000" stroke-width="0.25" stroke-miterlimit="10" x1="622.234" y1="44.609" x2="621.969" y2="46.047"/>
	
		<line fill="none" stroke="#FF0000" stroke-width="0.25" stroke-miterlimit="10" x1="631.719" y1="66.344" x2="631.688" y2="67.75"/>
	<line fill="none" stroke="#FF0000" stroke-width="0.25" stroke-miterlimit="10" x1="763.5" y1="107.438" x2="764" y2="106.312"/>
	<line fill="none" stroke="#FF0000" stroke-width="0.25" stroke-miterlimit="10" x1="957.312" y1="67.5" x2="963.812" y2="60.812"/>
	
		<line fill="none" stroke="#FF0000" stroke-width="0.25" stroke-miterlimit="10" x1="938.438" y1="69.25" x2="944.125" y2="63.312"/>
	
		<line fill="none" stroke="#FF0000" stroke-width="0.25" stroke-miterlimit="10" x1="913.312" y1="114.75" x2="918.312" y2="109.938"/>
	
		<line fill="none" stroke="#FF0000" stroke-width="0.25" stroke-miterlimit="10" x1="913.938" y1="113.125" x2="918.812" y2="108.25"/>
	
		<line fill="none" stroke="#FF0000" stroke-width="0.25" stroke-miterlimit="10" x1="922.812" y1="128.312" x2="927.438" y2="124.188"/>
	
		<line fill="none" stroke="#FF0000" stroke-width="0.25" stroke-miterlimit="10" x1="531.317" y1="30.139" x2="531.53" y2="32.623"/>
	
		<line fill="none" stroke="#FF0000" stroke-width="0.25" stroke-miterlimit="10" x1="587.74" y1="34.466" x2="587.669" y2="36.383"/>
	
		<line fill="none" stroke="#FF0000" stroke-width="0.25" stroke-miterlimit="10" x1="578.087" y1="33.402" x2="578.087" y2="35.389"/>
	
		<line fill="none" stroke="#FF0000" stroke-width="0.25" stroke-miterlimit="10" x1="545.864" y1="27.44" x2="546.007" y2="29.853"/>
	
		<line fill="none" stroke="#FF0000" stroke-width="0.25" stroke-miterlimit="10" x1="465.804" y1="56.327" x2="466.798" y2="60.017"/>
	<line fill="none" stroke="#FF0000" stroke-width="0.25" stroke-miterlimit="10" x1="433.084" y1="78.684" x2="434.859" y2="82.8"/>
	
		<line fill="none" stroke="#FF0000" stroke-width="0.25" stroke-miterlimit="10" x1="428.755" y1="79.252" x2="430.884" y2="83.155"/>
	
		<line fill="none" stroke="#FF0000" stroke-width="0.25" stroke-miterlimit="10" x1="398.731" y1="84.148" x2="400.932" y2="88.265"/>
	
		<line fill="none" stroke="#FF0000" stroke-width="0.25" stroke-miterlimit="10" x1="400.222" y1="73.786" x2="402.352" y2="77.69"/>
	
		<line fill="none" stroke="#FF0000" stroke-width="0.25" stroke-miterlimit="10" x1="303.27" y1="114.171" x2="306.748" y2="118.004"/>
	
		<line fill="none" stroke="#FF0000" stroke-width="0.25" stroke-miterlimit="10" x1="325.485" y1="83.723" x2="328.466" y2="87.697"/>
	
		<line fill="none" stroke="#FF0000" stroke-width="0.25" stroke-miterlimit="10" x1="237.546" y1="56.255" x2="239.817" y2="59.662"/>
	
		<line fill="none" stroke="#FF0000" stroke-width="0.25" stroke-miterlimit="10" x1="202.201" y1="61.01" x2="203.549" y2="64.275"/>
	
		<line fill="none" stroke="#FF0000" stroke-width="0.25" stroke-miterlimit="10" x1="158.196" y1="63.211" x2="159.616" y2="66.192"/>
	
		<line fill="none" stroke="#FF0000" stroke-width="0.25" stroke-miterlimit="10" x1="132.432" y1="93.375" x2="133.71" y2="96.427"/>
	<line fill="none" stroke="#FF0000" stroke-width="0.25" stroke-miterlimit="10" x1="50.953" y1="83.723" x2="50.101" y2="86.277"/>
	<line fill="none" stroke="#FF0000" stroke-width="0.25" stroke-miterlimit="10" x1="68.484" y1="80.741" x2="67.916" y2="83.509"/>
	<line fill="none" stroke="#FF0000" stroke-width="0.25" stroke-miterlimit="10" x1="35.188" y1="69" x2="33.875" y2="71.312"/>
	<line fill="none" stroke="#FF0000" stroke-width="0.25" stroke-miterlimit="10" x1="10.812" y1="40.688" x2="8" y2="42.5"/>
	
		<line fill="none" stroke="#FF0000" stroke-width="0.25" stroke-miterlimit="10" x1="524.771" y1="97.261" x2="525.6" y2="100.258"/>
	
		<line fill="none" stroke="#FF0000" stroke-width="0.25" stroke-miterlimit="10" x1="544.476" y1="106.827" x2="545.049" y2="109.568"/>
	
		<line fill="none" stroke="#FF0000" stroke-width="0.25" stroke-miterlimit="10" x1="494.48" y1="91.076" x2="495.501" y2="94.137"/>
	
		<line fill="none" stroke="#FF0000" stroke-width="0.25" stroke-miterlimit="10" x1="439.384" y1="105.743" x2="441.616" y2="109.568"/>
	
		<line fill="none" stroke="#FF0000" stroke-width="0.25" stroke-miterlimit="10" x1="600.504" y1="111.158" x2="600.588" y2="113.17"/>
	
		<line fill="none" stroke="#FF0000" stroke-width="0.25" stroke-miterlimit="10" x1="603.271" y1="123.732" x2="603.438" y2="125.744"/>
	
		<line fill="none" stroke="#FF0000" stroke-width="0.25" stroke-miterlimit="10" x1="643.674" y1="126.414" x2="643.506" y2="128.007"/>
	
		<line fill="none" stroke="#FF0000" stroke-width="0.25" stroke-miterlimit="10" x1="618.959" y1="107.958" x2="618.876" y2="109.833"/>
	
		<line fill="none" stroke="#FF0000" stroke-width="0.25" stroke-miterlimit="10" x1="688.297" y1="91.123" x2="688.105" y2="91.581"/>
	
		<line fill="none" stroke="#FF0000" stroke-width="0.25" stroke-miterlimit="10" x1="684.173" y1="80.507" x2="684.02" y2="80.966"/>
	
		<line fill="none" stroke="#FF0000" stroke-width="0.25" stroke-miterlimit="10" x1="649.12" y1="97.499" x2="648.854" y2="98.568"/>
	
		<line fill="none" stroke="#FF0000" stroke-width="0.25" stroke-miterlimit="10" x1="754.126" y1="130.791" x2="754.542" y2="129.583"/>
	
		<line fill="none" stroke="#FF0000" stroke-width="0.25" stroke-miterlimit="10" x1="650.042" y1="117.541" x2="649.792" y2="118.666"/>
	<line fill="none" stroke="#FF0000" stroke-width="0.25" x1="693.048" y1="59.283" x2="693.104" y2="59.33"/>
	<line fill="none" stroke="#FF0000" stroke-width="0.25" x1="687.925" y1="59.536" x2="687.906" y2="59.675"/>
</g>
</svg>
