<?xml version="1.0" encoding="utf-8"?>
<!-- Generator: Adobe Illustrator 16.0.4, SVG Export Plug-In . SVG Version: 6.00 Build 0)  -->
<!DOCTYPE svg PUBLIC "-//W3C//DTD SVG 1.1//EN" "http://www.w3.org/Graphics/SVG/1.1/DTD/svg11.dtd">
<svg version="1.1" id="svg" xmlns="http://www.w3.org/2000/svg" xmlns:xlink="http://www.w3.org/1999/xlink" x="0px" y="0px"
	 width="968px" height="648px" viewBox="0 0 968 648" enable-background="new 0 0 968 648" xml:space="preserve">
<image overflow="visible" enable-background="new    " width="3872" height="2592" xlink:href="AK09_20090827_200153.JPG"  transform="matrix(0.25 0 0 0.25 0 0)">
</image>
<image overflow="visible" enable-background="new    " width="3872" height="2592" xlink:href="AK09_20090827_200153-synth.JPG"  transform="matrix(0.25 0 0 0.25 0 0)">
</image>
<g id="points-unused">
	<line fill="none" stroke="#ED1F24" stroke-width="0.25" stroke-miterlimit="10" x1="598.5" y1="547.832" x2="602.5" y2="556.832"/>
	
		<line fill="none" stroke="#ED1F24" stroke-width="0.25" stroke-miterlimit="10" x1="530.834" y1="476.498" x2="535.5" y2="482.498"/>
	
		<line fill="none" stroke="#ED1F24" stroke-width="0.25" stroke-miterlimit="10" x1="553.834" y1="376.165" x2="557.834" y2="380.165"/>
	
		<line fill="none" stroke="#ED1F24" stroke-width="0.25" stroke-miterlimit="10" x1="415.5" y1="524.832" x2="419.834" y2="532.499"/>
	<line fill="none" stroke="#ED1F24" stroke-width="0.25" stroke-miterlimit="10" x1="120.5" y1="279.165" x2="120.25" y2="286.25"/>
	<line fill="none" stroke="#ED1F24" stroke-width="0.25" stroke-miterlimit="10" x1="492.25" y1="374.5" x2="495.5" y2="378.75"/>
	<line fill="none" stroke="#ED1F24" stroke-width="0.25" stroke-miterlimit="10" x1="487.5" y1="268.5" x2="489.25" y2="274.25"/>
	<line fill="none" stroke="#ED1F24" stroke-width="0.25" stroke-miterlimit="10" x1="397.75" y1="281.75" x2="401.25" y2="286.75"/>
	<line fill="none" stroke="#ED1F24" stroke-width="0.25" stroke-miterlimit="10" x1="689.75" y1="484" x2="695.5" y2="490"/>
	<line fill="none" stroke="#ED1F24" stroke-width="0.25" x1="550.555" y1="373.061" x2="554.717" y2="377.569"/>
	<line fill="none" stroke="#ED1F24" stroke-width="0.25" x1="550.419" y1="383.124" x2="552.535" y2="387.386"/>
	<line fill="none" stroke="#ED1F24" stroke-width="0.25" x1="340.324" y1="422.699" x2="342.918" y2="429.342"/>
	<line fill="none" stroke="#ED1F24" stroke-width="0.25" x1="545.922" y1="372.169" x2="548.767" y2="376.215"/>
	<line fill="none" stroke="#ED1F24" stroke-width="0.25" x1="545.922" y1="372.169" x2="548.767" y2="376.215"/>
	<line fill="none" stroke="#ED1F24" stroke-width="0.25" x1="545.922" y1="372.169" x2="548.767" y2="376.215"/>
	<line fill="none" stroke="#ED1F24" stroke-width="0.25" x1="352.759" y1="372.808" x2="355.273" y2="378.891"/>
	<line fill="none" stroke="#ED1F24" stroke-width="0.25" x1="541.357" y1="357.275" x2="543.776" y2="361.098"/>
	<line fill="none" stroke="#ED1F24" stroke-width="0.25" x1="345.781" y1="327.595" x2="350.359" y2="334.006"/>
	<line fill="none" stroke="#ED1F24" stroke-width="0.25" x1="652.819" y1="390" x2="656.19" y2="394.329"/>
	<line fill="none" stroke="#ED1F24" stroke-width="0.25" x1="534.359" y1="412.613" x2="536.465" y2="417.863"/>
	<line fill="none" stroke="#ED1F24" stroke-width="0.25" x1="310.263" y1="434.636" x2="312.25" y2="440.792"/>
	<line fill="none" stroke="#ED1F24" stroke-width="0.25" x1="593.427" y1="197.297" x2="592.725" y2="204.9"/>
	<line fill="none" stroke="#ED1F24" stroke-width="0.25" x1="939.9" y1="395.824" x2="950.989" y2="397.924"/>
</g>
<g id="points">
	
		<line fill="none" stroke="#ED1F24" stroke-width="0.25" stroke-miterlimit="10" x1="585.826" y1="70.099" x2="585.33" y2="76.203"/>
	<line fill="none" stroke="#ED1F24" stroke-width="0.25" stroke-miterlimit="10" x1="33.227" y1="76.182" x2="31.072" y2="82.648"/>
	
		<line fill="none" stroke="#ED1F24" stroke-width="0.25" stroke-miterlimit="10" x1="926.519" y1="132.458" x2="931.312" y2="131.431"/>
	
		<line fill="none" stroke="#ED1F24" stroke-width="0.25" stroke-miterlimit="10" x1="914.877" y1="98.629" x2="919.26" y2="97.602"/>
	
		<line fill="none" stroke="#ED1F24" stroke-width="0.25" stroke-miterlimit="10" x1="700.189" y1="78.018" x2="699.505" y2="81.99"/>
	
		<line fill="none" stroke="#ED1F24" stroke-width="0.25" stroke-miterlimit="10" x1="649.719" y1="93.563" x2="648.966" y2="98.494"/>
	
		<line fill="none" stroke="#ED1F24" stroke-width="0.25" stroke-miterlimit="10" x1="640.68" y1="93.563" x2="639.994" y2="98.836"/>
	
		<line fill="none" stroke="#ED1F24" stroke-width="0.25" stroke-miterlimit="10" x1="619.519" y1="103.904" x2="618.971" y2="109.725"/>
	
		<line fill="none" stroke="#ED1F24" stroke-width="0.25" stroke-miterlimit="10" x1="850.521" y1="133.173" x2="852.443" y2="134.133"/>
	
		<line fill="none" stroke="#ED1F24" stroke-width="0.25" stroke-miterlimit="10" x1="888.948" y1="112.039" x2="892.502" y2="111.847"/>
	
		<line fill="none" stroke="#ED1F24" stroke-width="0.25" stroke-miterlimit="10" x1="867.334" y1="113.864" x2="869.543" y2="114.249"/>
	
		<line fill="none" stroke="#ED1F24" stroke-width="0.25" stroke-miterlimit="10" x1="295.748" y1="71.227" x2="298.068" y2="78.85"/>
	
		<line fill="none" stroke="#ED1F24" stroke-width="0.25" stroke-miterlimit="10" x1="275.309" y1="96.858" x2="277.96" y2="104.261"/>
	
		<line fill="none" stroke="#ED1F24" stroke-width="0.25" stroke-miterlimit="10" x1="248.903" y1="103.156" x2="251.555" y2="110.779"/>
	<line fill="none" stroke="#ED1F24" stroke-width="0.25" stroke-miterlimit="10" x1="326.02" y1="79.733" x2="328.12" y2="87.578"/>
	<line fill="none" stroke="#ED1F24" stroke-width="0.25" stroke-miterlimit="10" x1="384.667" y1="87" x2="386.583" y2="94.75"/>
	<line fill="none" stroke="#ED1F24" stroke-width="0.25" stroke-miterlimit="10" x1="386.667" y1="87.167" x2="388.5" y2="94.833"/>
	<line fill="none" stroke="#ED1F24" stroke-width="0.25" stroke-miterlimit="10" x1="431.833" y1="81.833" x2="433.167" y2="89.5"/>
	
		<line fill="none" stroke="#ED1F24" stroke-width="0.25" stroke-miterlimit="10" x1="470.333" y1="52.251" x2="470.333" y2="59.584"/>
	
		<line fill="none" stroke="#ED1F24" stroke-width="0.25" stroke-miterlimit="10" x1="519.333" y1="104.333" x2="519.833" y2="111.5"/>
	
		<line fill="none" stroke="#ED1F24" stroke-width="0.25" stroke-miterlimit="10" x1="484.333" y1="96.667" x2="485.333" y2="104.333"/>
	
		<line fill="none" stroke="#ED1F24" stroke-width="0.25" stroke-miterlimit="10" x1="545.582" y1="99.417" x2="545.832" y2="106.167"/>
	
		<line fill="none" stroke="#ED1F24" stroke-width="0.25" stroke-miterlimit="10" x1="335.971" y1="36.682" x2="337.718" y2="44.181"/>
	
		<line fill="none" stroke="#ED1F24" stroke-width="0.25" stroke-miterlimit="10" x1="267.662" y1="56.302" x2="269.305" y2="63.903"/>
	
		<line fill="none" stroke="#ED1F24" stroke-width="0.25" stroke-miterlimit="10" x1="318.611" y1="69.655" x2="320.872" y2="77.359"/>
</g>
<g id="points-auto">
	<line fill="none" stroke="#ED1F24" stroke-width="0.25" x1="680.461" y1="93.326" x2="679.72" y2="97.771"/>
	<line fill="none" stroke="#ED1F24" stroke-width="0.25" x1="619.797" y1="95.934" x2="619.019" y2="101.561"/>
	<line fill="none" stroke="#ED1F24" stroke-width="0.25" x1="300.279" y1="95.954" x2="303.123" y2="103.47"/>
	<line fill="none" stroke="#ED1F24" stroke-width="0.25" x1="274.583" y1="96.347" x2="277.369" y2="104.011"/>
	<line fill="none" stroke="#ED1F24" stroke-width="0.25" x1="274.583" y1="96.347" x2="277.369" y2="104.011"/>
	<line fill="none" stroke="#ED1F24" stroke-width="0.25" x1="278.891" y1="99.7" x2="281.54" y2="107.372"/>
	<line fill="none" stroke="#ED1F24" stroke-width="0.25" x1="620.774" y1="101.13" x2="620.185" y2="106.921"/>
	<line fill="none" stroke="#ED1F24" stroke-width="0.25" x1="770.112" y1="107.104" x2="770.08" y2="109.709"/>
	<line fill="none" stroke="#ED1F24" stroke-width="0.25" x1="770.112" y1="107.104" x2="770.08" y2="109.709"/>
	<line fill="none" stroke="#ED1F24" stroke-width="0.25" x1="299.401" y1="109.744" x2="302.314" y2="117.501"/>
	<line fill="none" stroke="#ED1F24" stroke-width="0.25" x1="674.557" y1="116.354" x2="673.787" y2="120.57"/>
	<line fill="none" stroke="#ED1F24" stroke-width="0.25" x1="613.199" y1="29.147" x2="612.508" y2="34.44"/>
	<line fill="none" stroke="#ED1F24" stroke-width="0.25" x1="620.21" y1="34.997" x2="619.456" y2="40.361"/>
	<line fill="none" stroke="#ED1F24" stroke-width="0.25" x1="620.056" y1="36.12" x2="619.291" y2="41.547"/>
	<line fill="none" stroke="#ED1F24" stroke-width="0.25" x1="584.219" y1="36.4" x2="583.65" y2="42.4"/>
	<line fill="none" stroke="#ED1F24" stroke-width="0.25" x1="584.783" y1="79.079" x2="584.138" y2="84.926"/>
	<line fill="none" stroke="#ED1F24" stroke-width="0.25" x1="380.7" y1="81.596" x2="382.606" y2="89.332"/>
	<line fill="none" stroke="#ED1F24" stroke-width="0.25" x1="694.743" y1="85.933" x2="693.934" y2="90.056"/>
	<line fill="none" stroke="#ED1F24" stroke-width="0.25" x1="518.777" y1="87.077" x2="519.07" y2="94.048"/>
	<line fill="none" stroke="#ED1F24" stroke-width="0.25" x1="587.166" y1="87.516" x2="586.711" y2="93.823"/>
	<line fill="none" stroke="#ED1F24" stroke-width="0.25" x1="604.593" y1="90.14" x2="604.077" y2="96.071"/>
	<line fill="none" stroke="#ED1F24" stroke-width="0.25" x1="663.533" y1="92.472" x2="662.781" y2="97.183"/>
	<line fill="none" stroke="#ED1F24" stroke-width="0.25" x1="870.228" y1="97.18" x2="872.73" y2="97.529"/>
	<line fill="none" stroke="#ED1F24" stroke-width="0.25" x1="436.526" y1="103.703" x2="438.089" y2="111.396"/>
	<line fill="none" stroke="#ED1F24" stroke-width="0.25" x1="547.723" y1="103.783" x2="547.733" y2="110.515"/>
	<line fill="none" stroke="#ED1F24" stroke-width="0.25" x1="552.067" y1="104.919" x2="552.189" y2="111.579"/>
	<line fill="none" stroke="#ED1F24" stroke-width="0.25" x1="254.579" y1="105.558" x2="257.237" y2="112.961"/>
	<line fill="none" stroke="#ED1F24" stroke-width="0.25" x1="608.115" y1="28.102" x2="607.667" y2="33.432"/>
	<line fill="none" stroke="#ED1F24" stroke-width="0.25" x1="583.577" y1="29.474" x2="582.845" y2="35.198"/>
	<line fill="none" stroke="#ED1F24" stroke-width="0.25" x1="621.407" y1="36.76" x2="620.912" y2="41.984"/>
	<line fill="none" stroke="#ED1F24" stroke-width="0.25" x1="622.558" y1="38.155" x2="621.812" y2="43.414"/>
	<line fill="none" stroke="#ED1F24" stroke-width="0.25" x1="547.2" y1="50.825" x2="546.972" y2="57.4"/>
	<line fill="none" stroke="#ED1F24" stroke-width="0.25" x1="33.146" y1="78.302" x2="31.35" y2="84.768"/>
	<line fill="none" stroke="#ED1F24" stroke-width="0.25" x1="662.945" y1="79.973" x2="662.384" y2="84.349"/>
	<line fill="none" stroke="#ED1F24" stroke-width="0.25" x1="672.982" y1="84.931" x2="672.04" y2="89.379"/>
	<line fill="none" stroke="#ED1F24" stroke-width="0.25" x1="674.858" y1="97.279" x2="674.094" y2="101.603"/>
	<line fill="none" stroke="#ED1F24" stroke-width="0.25" x1="623.879" y1="99.729" x2="623.104" y2="105.285"/>
	<line fill="none" stroke="#ED1F24" stroke-width="0.25" x1="633.741" y1="100.21" x2="632.976" y2="105.603"/>
	<line fill="none" stroke="#ED1F24" stroke-width="0.25" x1="275.401" y1="101.848" x2="278.265" y2="109.285"/>
	<line fill="none" stroke="#ED1F24" stroke-width="0.25" x1="537.611" y1="107.334" x2="537.449" y2="113.949"/>
	<line fill="none" stroke="#ED1F24" stroke-width="0.25" x1="766.271" y1="107.466" x2="766.242" y2="110.091"/>
	<line fill="none" stroke="#ED1F24" stroke-width="0.25" x1="778.85" y1="121.492" x2="778.969" y2="124.044"/>
	<line fill="none" stroke="#ED1F24" stroke-width="0.25" x1="606.17" y1="27.641" x2="605.843" y2="32.979"/>
	<line fill="none" stroke="#ED1F24" stroke-width="0.25" x1="597.59" y1="29.254" x2="597.108" y2="34.984"/>
	<line fill="none" stroke="#ED1F24" stroke-width="0.25" x1="531.758" y1="31.469" x2="531.664" y2="37.603"/>
	<line fill="none" stroke="#ED1F24" stroke-width="0.25" x1="582.744" y1="34.414" x2="582.178" y2="40.511"/>
	<line fill="none" stroke="#ED1F24" stroke-width="0.25" x1="578.34" y1="35.395" x2="577.885" y2="41.243"/>
	<line fill="none" stroke="#ED1F24" stroke-width="0.25" x1="583.781" y1="76.33" x2="583.474" y2="82.666"/>
	<line fill="none" stroke="#ED1F24" stroke-width="0.25" x1="223.422" y1="89.705" x2="225.348" y2="96.748"/>
	<line fill="none" stroke="#ED1F24" stroke-width="0.25" x1="600.691" y1="92.02" x2="599.759" y2="97.535"/>
	<line fill="none" stroke="#ED1F24" stroke-width="0.25" x1="705.197" y1="97.016" x2="704.442" y2="100.971"/>
	<line fill="none" stroke="#ED1F24" stroke-width="0.25" x1="766.449" y1="113.419" x2="766.676" y2="116.199"/>
	<line fill="none" stroke="#ED1F24" stroke-width="0.25" x1="774.259" y1="115.691" x2="774.408" y2="118.223"/>
	<line fill="none" stroke="#ED1F24" stroke-width="0.25" x1="587.713" y1="29.506" x2="587.203" y2="35.324"/>
	<line fill="none" stroke="#ED1F24" stroke-width="0.25" x1="621.033" y1="33.877" x2="620.261" y2="39.197"/>
	<line fill="none" stroke="#ED1F24" stroke-width="0.25" x1="253.389" y1="54.204" x2="254.969" y2="61.566"/>
	<line fill="none" stroke="#ED1F24" stroke-width="0.25" x1="366.322" y1="60.163" x2="368.054" y2="67.996"/>
	<line fill="none" stroke="#ED1F24" stroke-width="0.25" x1="365.38" y1="62.695" x2="367.175" y2="70.727"/>
	<line fill="none" stroke="#ED1F24" stroke-width="0.25" x1="297.438" y1="71.634" x2="299.659" y2="79.951"/>
	<line fill="none" stroke="#ED1F24" stroke-width="0.25" x1="308.268" y1="75.517" x2="310.687" y2="83.262"/>
	<line fill="none" stroke="#ED1F24" stroke-width="0.25" x1="311.523" y1="77.334" x2="313.96" y2="85.349"/>
	<line fill="none" stroke="#ED1F24" stroke-width="0.25" x1="580.515" y1="80.03" x2="579.969" y2="86.225"/>
	<line fill="none" stroke="#ED1F24" stroke-width="0.25" x1="627.709" y1="89.058" x2="626.646" y2="94.194"/>
	<line fill="none" stroke="#ED1F24" stroke-width="0.25" x1="627.709" y1="89.058" x2="626.646" y2="94.194"/>
	<line fill="none" stroke="#ED1F24" stroke-width="0.25" x1="673.964" y1="91.182" x2="673.188" y2="95.628"/>
	<line fill="none" stroke="#ED1F24" stroke-width="0.25" x1="685.863" y1="93.36" x2="685.345" y2="96.681"/>
	<line fill="none" stroke="#ED1F24" stroke-width="0.25" x1="235.69" y1="95.491" x2="238.016" y2="102.755"/>
	<line fill="none" stroke="#ED1F24" stroke-width="0.25" x1="614.659" y1="103.427" x2="613.896" y2="109.084"/>
	<line fill="none" stroke="#ED1F24" stroke-width="0.25" x1="614.659" y1="103.427" x2="613.896" y2="109.084"/>
	<line fill="none" stroke="#ED1F24" stroke-width="0.25" x1="548.265" y1="107.898" x2="548.513" y2="114.427"/>
	<line fill="none" stroke="#ED1F24" stroke-width="0.25" x1="935.246" y1="111.689" x2="940.054" y2="110.023"/>
	<line fill="none" stroke="#ED1F24" stroke-width="0.25" x1="284.001" y1="112.508" x2="286.937" y2="120.265"/>
	<line fill="none" stroke="#ED1F24" stroke-width="0.25" x1="284.001" y1="112.508" x2="286.937" y2="120.265"/>
	<line fill="none" stroke="#ED1F24" stroke-width="0.25" x1="784.945" y1="115.648" x2="785.337" y2="118.246"/>
	<line fill="none" stroke="#ED1F24" stroke-width="0.25" x1="543.956" y1="53.884" x2="543.858" y2="60.56"/>
	<line fill="none" stroke="#ED1F24" stroke-width="0.25" x1="538.198" y1="81.321" x2="537.968" y2="88.108"/>
	<line fill="none" stroke="#ED1F24" stroke-width="0.25" x1="575.714" y1="81.553" x2="575.134" y2="87.827"/>
	<line fill="none" stroke="#ED1F24" stroke-width="0.25" x1="389.947" y1="87.812" x2="391.982" y2="95.707"/>
	<line fill="none" stroke="#ED1F24" stroke-width="0.25" x1="602.804" y1="90.743" x2="602.044" y2="97.074"/>
	<line fill="none" stroke="#ED1F24" stroke-width="0.25" x1="415.468" y1="97.432" x2="417.01" y2="105.468"/>
	<line fill="none" stroke="#ED1F24" stroke-width="0.25" x1="277.308" y1="107.023" x2="280.189" y2="114.978"/>
	<line fill="none" stroke="#ED1F24" stroke-width="0.25" x1="293.61" y1="107.055" x2="296.795" y2="114.771"/>
	<line fill="none" stroke="#ED1F24" stroke-width="0.25" x1="936.372" y1="107.702" x2="941.33" y2="106.393"/>
	<line fill="none" stroke="#ED1F24" stroke-width="0.25" x1="577.577" y1="79.107" x2="577.222" y2="85.3"/>
	<line fill="none" stroke="#ED1F24" stroke-width="0.25" x1="577.577" y1="79.107" x2="577.222" y2="85.3"/>
	<line fill="none" stroke="#ED1F24" stroke-width="0.25" x1="396.474" y1="88.196" x2="398.148" y2="95.828"/>
	<line fill="none" stroke="#ED1F24" stroke-width="0.25" x1="530.356" y1="91.307" x2="530.481" y2="97.818"/>
	<line fill="none" stroke="#ED1F24" stroke-width="0.25" x1="680.223" y1="96.049" x2="679.54" y2="100.3"/>
	<line fill="none" stroke="#ED1F24" stroke-width="0.25" x1="486.457" y1="108.974" x2="487.437" y2="116.062"/>
	<line fill="none" stroke="#ED1F24" stroke-width="0.25" x1="617.049" y1="35.216" x2="616.491" y2="40.873"/>
	<line fill="none" stroke="#ED1F24" stroke-width="0.25" x1="527.039" y1="75.224" x2="527.115" y2="82.026"/>
	<line fill="none" stroke="#ED1F24" stroke-width="0.25" x1="527.039" y1="75.224" x2="527.115" y2="82.026"/>
	<line fill="none" stroke="#ED1F24" stroke-width="0.25" x1="527.039" y1="75.224" x2="527.115" y2="82.026"/>
	<line fill="none" stroke="#ED1F24" stroke-width="0.25" x1="299.065" y1="98.913" x2="301.837" y2="106.654"/>
	<line fill="none" stroke="#ED1F24" stroke-width="0.25" x1="335.679" y1="100.338" x2="338.081" y2="108.088"/>
	<line fill="none" stroke="#ED1F24" stroke-width="0.25" x1="652.803" y1="104.067" x2="651.966" y2="109.238"/>
	<line fill="none" stroke="#ED1F24" stroke-width="0.25" x1="68.115" y1="152.941" x2="66.959" y2="160.807"/>
	<line fill="none" stroke="#ED1F24" stroke-width="0.25" x1="534.064" y1="27.716" x2="533.222" y2="34.188"/>
	<line fill="none" stroke="#ED1F24" stroke-width="0.25" x1="471.268" y1="51.044" x2="471.925" y2="58.044"/>
	<line fill="none" stroke="#ED1F24" stroke-width="0.25" x1="631.865" y1="61.852" x2="630.989" y2="66.934"/>
	<line fill="none" stroke="#ED1F24" stroke-width="0.25" x1="506.475" y1="80.396" x2="507.41" y2="87.995"/>
	<line fill="none" stroke="#ED1F24" stroke-width="0.25" x1="464.506" y1="93.606" x2="464.905" y2="101.211"/>
	<line fill="none" stroke="#ED1F24" stroke-width="0.25" x1="464.506" y1="93.606" x2="464.905" y2="101.211"/>
	<line fill="none" stroke="#ED1F24" stroke-width="0.25" x1="613.43" y1="95.574" x2="612.091" y2="101.817"/>
	<line fill="none" stroke="#ED1F24" stroke-width="0.25" x1="533.87" y1="100.388" x2="535.05" y2="107.419"/>
	<line fill="none" stroke="#ED1F24" stroke-width="0.25" x1="552.113" y1="32.498" x2="551.856" y2="38.625"/>
	<line fill="none" stroke="#ED1F24" stroke-width="0.25" x1="315.479" y1="92.694" x2="318.053" y2="99.623"/>
	<line fill="none" stroke="#ED1F24" stroke-width="0.25" x1="315.479" y1="92.694" x2="318.053" y2="99.623"/>
	<line fill="none" stroke="#ED1F24" stroke-width="0.25" x1="636.975" y1="55.827" x2="636.053" y2="61.164"/>
	<line fill="none" stroke="#ED1F24" stroke-width="0.25" x1="921.893" y1="188.37" x2="926.568" y2="190.032"/>
	<line fill="none" stroke="#ED1F24" stroke-width="0.25" x1="593.407" y1="197.15" x2="592.725" y2="204.9"/>
	<line fill="none" stroke="#ED1F24" stroke-width="0.25" x1="915.705" y1="181.302" x2="920.855" y2="182.036"/>
	<line fill="none" stroke="#ED1F24" stroke-width="0.25" x1="910.985" y1="128.827" x2="912.965" y2="128.365"/>
</g>
</svg>
