<?xml version="1.0" encoding="utf-8"?>
<!-- Generator: Adobe Illustrator 16.0.4, SVG Export Plug-In . SVG Version: 6.00 Build 0)  -->
<!DOCTYPE svg PUBLIC "-//W3C//DTD SVG 1.1//EN" "http://www.w3.org/Graphics/SVG/1.1/DTD/svg11.dtd">
<svg version="1.1" id="svg" xmlns="http://www.w3.org/2000/svg" xmlns:xlink="http://www.w3.org/1999/xlink" x="0px" y="0px"
	 width="968px" height="648px" viewBox="0 0 968 648" enable-background="new 0 0 968 648" xml:space="preserve">
<image overflow="visible" enable-background="new    " width="3872" height="2592" xlink:href="AK09b_20090827_200153.JPG"  transform="matrix(0.25 0 0 0.25 0 0)">
</image>
<image overflow="visible" enable-background="new    " width="3872" height="2592" xlink:href="AK09b_20090827_200153-synth.JPG"  transform="matrix(0.25 0 0 0.25 0 0)">
</image>
<g id="points-unused">
	<line fill="none" stroke="#ED1F24" stroke-width="0.25" stroke-miterlimit="10" x1="499.5" y1="387.75" x2="502.25" y2="376.25"/>
	<line fill="none" stroke="#ED1F24" stroke-width="0.25" stroke-miterlimit="10" x1="42.25" y1="444" x2="52" y2="432.25"/>
	<line fill="none" stroke="#ED1F24" stroke-width="0.25" stroke-miterlimit="10" x1="380.75" y1="443.25" x2="389" y2="428.75"/>
	<line fill="none" stroke="#ED1F24" stroke-width="0.25" stroke-miterlimit="10" x1="416.75" y1="425.75" x2="423.25" y2="412.5"/>
	<line fill="none" stroke="#ED1F24" stroke-width="0.25" stroke-miterlimit="10" x1="417" y1="405" x2="423.25" y2="394.25"/>
	<line fill="none" stroke="#ED1F24" stroke-width="0.25" stroke-miterlimit="10" x1="278" y1="320" x2="287.5" y2="312.25"/>
	<line fill="none" stroke="#ED1F24" stroke-width="0.25" x1="435.793" y1="329.959" x2="439.487" y2="322.137"/>
	<line fill="none" stroke="#ED1F24" stroke-width="0.25" x1="446.753" y1="347.835" x2="450.81" y2="340.057"/>
	<line fill="none" stroke="#ED1F24" stroke-width="0.25" x1="361.494" y1="426.811" x2="369.958" y2="413.765"/>
	<line fill="none" stroke="#ED1F24" stroke-width="0.25" x1="43.49" y1="436.18" x2="51.546" y2="425.164"/>
	<line fill="none" stroke="#ED1F24" stroke-width="0.25" x1="410.739" y1="461.526" x2="417.592" y2="446.506"/>
	<line fill="none" stroke="#ED1F24" stroke-width="0.25" x1="440.125" y1="340.389" x2="444.144" y2="331.981"/>
	<line fill="none" stroke="#ED1F24" stroke-width="0.25" x1="392.802" y1="444.013" x2="398.862" y2="429.98"/>
	<line fill="none" stroke="#ED1F24" stroke-width="0.25" x1="35.85" y1="425.164" x2="43.948" y2="413.321"/>
	<line fill="none" stroke="#ED1F24" stroke-width="0.25" x1="413.671" y1="436.891" x2="421.438" y2="422.941"/>
	<line fill="none" stroke="#ED1F24" stroke-width="0.25" x1="360.893" y1="451.989" x2="370.792" y2="439.915"/>
	<line fill="none" stroke="#ED1F24" stroke-width="0.25" x1="27.123" y1="410.07" x2="34.629" y2="399.455"/>
	<line fill="none" stroke="#ED1F24" stroke-width="0.25" x1="434.425" y1="456.991" x2="440.35" y2="442.139"/>
	<line fill="none" stroke="#ED1F24" stroke-width="0.25" x1="47.223" y1="510.631" x2="56.608" y2="497.899"/>
	<line fill="none" stroke="#ED1F24" stroke-width="0.25" x1="409.153" y1="425.383" x2="415.171" y2="411.829"/>
	<line fill="none" stroke="#ED1F24" stroke-width="0.25" x1="374.52" y1="372.835" x2="384.211" y2="363.824"/>
	<line fill="none" stroke="#ED1F24" stroke-width="0.25" x1="397.351" y1="468.779" x2="404.641" y2="453.556"/>
</g>
<g id="points">
	<line fill="none" stroke="#ED1F24" stroke-width="0.25" stroke-miterlimit="10" x1="62" y1="56.562" x2="61.688" y2="50.625"/>
	<line fill="none" stroke="#ED1F24" stroke-width="0.25" stroke-miterlimit="10" x1="13.812" y1="44.375" x2="11.312" y2="37.062"/>
	<line fill="none" stroke="#ED1F24" stroke-width="0.25" stroke-miterlimit="10" x1="11.188" y1="43.812" x2="9" y2="36.688"/>
	<line fill="none" stroke="#ED1F24" stroke-width="0.25" stroke-miterlimit="10" x1="18.438" y1="38" x2="16.562" y2="31.062"/>
	<line fill="none" stroke="#ED1F24" stroke-width="0.25" stroke-miterlimit="10" x1="23.062" y1="75" x2="21.875" y2="69.25"/>
	<line fill="none" stroke="#ED1F24" stroke-width="0.25" stroke-miterlimit="10" x1="24.25" y1="96.25" x2="23.062" y2="90.125"/>
	<line fill="none" stroke="#ED1F24" stroke-width="0.25" stroke-miterlimit="10" x1="24.5" y1="90.812" x2="23.25" y2="84.812"/>
	
		<line fill="none" stroke="#ED1F24" stroke-width="0.25" stroke-miterlimit="10" x1="22.625" y1="105.188" x2="21.688" y2="99.375"/>
	<line fill="none" stroke="#ED1F24" stroke-width="0.25" stroke-miterlimit="10" x1="63.938" y1="101.75" x2="64.562" y2="96.25"/>
	<line fill="none" stroke="#ED1F24" stroke-width="0.25" stroke-miterlimit="10" x1="36.5" y1="125.5" x2="36.688" y2="120.312"/>
	
		<line fill="none" stroke="#ED1F24" stroke-width="0.25" stroke-miterlimit="10" x1="82.75" y1="118.812" x2="84.438" y2="114.125"/>
	
		<line fill="none" stroke="#ED1F24" stroke-width="0.25" stroke-miterlimit="10" x1="70.938" y1="122.75" x2="72.062" y2="117.812"/>
	<line fill="none" stroke="#ED1F24" stroke-width="0.25" stroke-miterlimit="10" x1="31.562" y1="137" x2="32.25" y2="131.688"/>
	
		<line fill="none" stroke="#ED1F24" stroke-width="0.25" stroke-miterlimit="10" x1="18.875" y1="148.938" x2="18.375" y2="143.562"/>
	
		<line fill="none" stroke="#ED1F24" stroke-width="0.25" stroke-miterlimit="10" x1="14.938" y1="138.938" x2="14.25" y2="133.188"/>
	
		<line fill="none" stroke="#ED1F24" stroke-width="0.25" stroke-miterlimit="10" x1="113.562" y1="131.062" x2="116.375" y2="127.562"/>
	
		<line fill="none" stroke="#ED1F24" stroke-width="0.25" stroke-miterlimit="10" x1="102.5" y1="136.375" x2="104.812" y2="132.062"/>
	<line fill="none" stroke="#ED1F24" stroke-width="0.25" stroke-miterlimit="10" x1="74.188" y1="110.5" x2="75.438" y2="105.438"/>
	
		<line fill="none" stroke="#ED1F24" stroke-width="0.25" stroke-miterlimit="10" x1="165.438" y1="93.312" x2="169.25" y2="89.875"/>
	<line fill="none" stroke="#ED1F24" stroke-width="0.25" stroke-miterlimit="10" x1="182.5" y1="93.812" x2="186.312" y2="90.375"/>
	<line fill="none" stroke="#ED1F24" stroke-width="0.25" stroke-miterlimit="10" x1="157.312" y1="96.25" x2="160.75" y2="92.688"/>
	<line fill="none" stroke="#ED1F24" stroke-width="0.25" stroke-miterlimit="10" x1="227.75" y1="120.125" x2="232" y2="117.562"/>
	
		<line fill="none" stroke="#ED1F24" stroke-width="0.25" stroke-miterlimit="10" x1="348.75" y1="123.375" x2="353.562" y2="121.938"/>
	
		<line fill="none" stroke="#ED1F24" stroke-width="0.25" stroke-miterlimit="10" x1="319.25" y1="122.312" x2="324.312" y2="120.812"/>
	
		<line fill="none" stroke="#ED1F24" stroke-width="0.25" stroke-miterlimit="10" x1="351.875" y1="103.812" x2="356.688" y2="102.438"/>
	
		<line fill="none" stroke="#ED1F24" stroke-width="0.25" stroke-miterlimit="10" x1="351.875" y1="101.188" x2="356.562" y2="99.812"/>
	<line fill="none" stroke="#ED1F24" stroke-width="0.25" stroke-miterlimit="10" x1="403.875" y1="121" x2="408" y2="120.25"/>
	<line fill="none" stroke="#ED1F24" stroke-width="0.25" stroke-miterlimit="10" x1="419.188" y1="66.062" x2="422.688" y2="65"/>
	<line fill="none" stroke="#ED1F24" stroke-width="0.25" stroke-miterlimit="10" x1="425.25" y1="76.5" x2="429.125" y2="75.625"/>
	<line fill="none" stroke="#ED1F24" stroke-width="0.25" stroke-miterlimit="10" x1="424.812" y1="98.875" x2="428.438" y2="98"/>
	
		<line fill="none" stroke="#ED1F24" stroke-width="0.25" stroke-miterlimit="10" x1="372.062" y1="74.688" x2="376.25" y2="73.312"/>
	
		<line fill="none" stroke="#ED1F24" stroke-width="0.25" stroke-miterlimit="10" x1="443.438" y1="114.375" x2="447.062" y2="113.25"/>
	
		<line fill="none" stroke="#ED1F24" stroke-width="0.25" stroke-miterlimit="10" x1="445.125" y1="138.125" x2="448.375" y2="137.812"/>
	<line fill="none" stroke="#ED1F24" stroke-width="0.25" stroke-miterlimit="10" x1="418.688" y1="136" x2="422.625" y2="135.125"/>
	
		<line fill="none" stroke="#ED1F24" stroke-width="0.25" stroke-miterlimit="10" x1="435.438" y1="113.312" x2="439.25" y2="112.5"/>
	
		<line fill="none" stroke="#ED1F24" stroke-width="0.25" stroke-miterlimit="10" x1="474.438" y1="131.438" x2="477.5" y2="130.562"/>
	
		<line fill="none" stroke="#ED1F24" stroke-width="0.25" stroke-miterlimit="10" x1="476.875" y1="77.188" x2="479.938" y2="76.438"/>
	<line fill="none" stroke="#ED1F24" stroke-width="0.25" stroke-miterlimit="10" x1="442.125" y1="78" x2="445.75" y2="77"/>
	
		<line fill="none" stroke="#ED1F24" stroke-width="0.25" stroke-miterlimit="10" x1="459.188" y1="71.062" x2="462.812" y2="70.375"/>
	
		<line fill="none" stroke="#ED1F24" stroke-width="0.25" stroke-miterlimit="10" x1="455.688" y1="81.25" x2="459.062" y2="80.125"/>
	<line fill="none" stroke="#ED1F24" stroke-width="0.25" stroke-miterlimit="10" x1="447" y1="69.812" x2="450.312" y2="68.875"/>
	
		<line fill="none" stroke="#ED1F24" stroke-width="0.25" stroke-miterlimit="10" x1="447.688" y1="66.312" x2="451.375" y2="65.312"/>
	
		<line fill="none" stroke="#ED1F24" stroke-width="0.25" stroke-miterlimit="10" x1="537.5" y1="116.188" x2="539.125" y2="114.875"/>
	
		<line fill="none" stroke="#ED1F24" stroke-width="0.25" stroke-miterlimit="10" x1="548.125" y1="104.375" x2="550.188" y2="103.188"/>
	
		<line fill="none" stroke="#ED1F24" stroke-width="0.25" stroke-miterlimit="10" x1="530.875" y1="113.938" x2="533.062" y2="112.812"/>
	
		<line fill="none" stroke="#ED1F24" stroke-width="0.25" stroke-miterlimit="10" x1="511.875" y1="107.688" x2="514.562" y2="106.688"/>
	<line fill="none" stroke="#ED1F24" stroke-width="0.25" stroke-miterlimit="10" x1="495.75" y1="78.25" x2="498.562" y2="77.062"/>
	<line fill="none" stroke="#ED1F24" stroke-width="0.25" stroke-miterlimit="10" x1="514.188" y1="85" x2="516.562" y2="83.812"/>
	<line fill="none" stroke="#ED1F24" stroke-width="0.25" stroke-miterlimit="10" x1="495" y1="87.562" x2="497.812" y2="86.562"/>
	
		<line fill="none" stroke="#ED1F24" stroke-width="0.25" stroke-miterlimit="10" x1="626.438" y1="114.562" x2="627.75" y2="113.125"/>
	<line fill="none" stroke="#ED1F24" stroke-width="0.25" stroke-miterlimit="10" x1="646.688" y1="98" x2="648" y2="96.188"/>
	
		<line fill="none" stroke="#ED1F24" stroke-width="0.25" stroke-miterlimit="10" x1="666.125" y1="96.125" x2="667.376" y2="94.417"/>
	
		<line fill="none" stroke="#ED1F24" stroke-width="0.25" stroke-miterlimit="10" x1="696.543" y1="106.875" x2="697.96" y2="104.667"/>
	
		<line fill="none" stroke="#ED1F24" stroke-width="0.25" stroke-miterlimit="10" x1="706.877" y1="92.292" x2="708.418" y2="89.875"/>
	
		<line fill="none" stroke="#ED1F24" stroke-width="0.25" stroke-miterlimit="10" x1="690.668" y1="92.417" x2="692.335" y2="89.875"/>
	
		<line fill="none" stroke="#ED1F24" stroke-width="0.25" stroke-miterlimit="10" x1="794.41" y1="124.951" x2="796.376" y2="121.601"/>
	
		<line fill="none" stroke="#ED1F24" stroke-width="0.25" stroke-miterlimit="10" x1="859.499" y1="132.733" x2="861.23" y2="128.747"/>
	
		<line fill="none" stroke="#ED1F24" stroke-width="0.25" stroke-miterlimit="10" x1="936.35" y1="155.212" x2="940.971" y2="150.199"/>
	
		<line fill="none" stroke="#ED1F24" stroke-width="0.25" stroke-miterlimit="10" x1="933.844" y1="155.212" x2="938.621" y2="150.043"/>
	
		<line fill="none" stroke="#ED1F24" stroke-width="0.25" stroke-miterlimit="10" x1="919.747" y1="136.259" x2="925.699" y2="130.933"/>
	
		<line fill="none" stroke="#ED1F24" stroke-width="0.25" stroke-miterlimit="10" x1="917.789" y1="156.152" x2="921.94" y2="151.531"/>
	
		<line fill="none" stroke="#ED1F24" stroke-width="0.25" stroke-miterlimit="10" x1="706.472" y1="83.559" x2="708.08" y2="81.119"/>
	<line fill="none" x1="686.308" y1="90.463" x2="687.788" y2="88.39"/>
	<line fill="none" x1="678.979" y1="87.946" x2="680.607" y2="85.65"/>
	<line fill="none" x1="661.21" y1="91.795" x2="662.616" y2="89.796"/>
	<line fill="none" x1="809.355" y1="124.657" x2="812.454" y2="121.301"/>
	<line fill="none" x1="861.928" y1="127.917" x2="865.833" y2="123.883"/>
	<line fill="none" x1="207.315" y1="120.98" x2="211.98" y2="117.871"/>
	<line fill="none" x1="128.987" y1="106.099" x2="131.875" y2="102.101"/>
	<line fill="none" x1="151.346" y1="112.688" x2="154.825" y2="108.912"/>
</g>
<g id="lines">
	<g id="Layer_4">
		<polyline id="image" fill="none" stroke="#ED1F24" stroke-width="0.25" stroke-miterlimit="10" points="648.5,120 655.5,120.688 
			661.688,121.312 667.625,121.875 674.062,122.125 683.562,122.438 694.562,122.875 704.938,123.812 712.688,124.375 
			723.75,125.125 734.625,125.5 747.562,125.75 758.25,125.5 761.13,125.366 		"/>
		<polyline id="synth" fill="none" stroke="#ED1F24" stroke-width="0.25" stroke-miterlimit="10" points="646.125,118.188 
			650.438,118.438 655.125,118.938 662.812,119.75 668.875,120.188 673.375,120.5 680.125,120.562 687.75,120.875 694.875,121.125 
			701.5,121.5 708.625,122.062 715.5,122.5 726.25,122.938 736.125,123.188 745.812,123.188 756.562,122.938 766.125,122.625 		"/>
	</g>
	<g id="Layer_5">
		<polyline id="synth_1_" fill="none" stroke="#ED1F24" stroke-width="0.25" stroke-miterlimit="10" points="498.083,145.417 
			525.416,144.833 545.083,144.333 566.165,143.75 579.915,143 590.998,142.417 602.915,141.667 610.094,141.125 		"/>
		<polyline id="image_1_" fill="none" stroke="#ED1F24" stroke-width="0.25" stroke-miterlimit="10" points="541.913,145.25 
			571.58,144.25 585.33,143.667 597.33,143.083 608.831,142.333 		"/>
	</g>
	<g id="Layer_6">
		<polyline id="synth_2_" fill="none" stroke="#ED1F24" stroke-width="0.25" stroke-miterlimit="10" points="762.054,123.23 
			766.482,123.311 772.644,124.237 776.751,125.284 779.368,126.17 782.106,126.572 789.274,126.814 794.229,127.015 
			799.824,127.297 801.596,127.499 803.408,127.941 805.824,128.948 807.314,129.633 		"/>
		<polyline id="image_2_" fill="none" stroke="#ED1F24" stroke-width="0.25" stroke-miterlimit="10" points="762.174,126.17 
			765.718,126.25 768.094,126.492 770.55,127.015 774.013,127.982 776.106,128.667 779.328,129.351 782.106,129.673 
			786.858,129.955 791.167,130.196 795.918,130.237 		"/>
	</g>
	<g id="Layer_7">
		<polyline id="synth_3_" fill="none" stroke="#ED1F24" stroke-width="0.25" stroke-miterlimit="10" points="243.299,114.359 
			245.092,115.077 247.244,115.758 249.181,116.476 250.078,116.834 252.158,117.803 254.238,118.986 256.928,120.17 
			260.981,121.963 265.105,123.721 268.621,124.904 		"/>
		<polyline id="image_3_" fill="none" stroke="#ED1F24" stroke-width="0.25" stroke-miterlimit="10" points="246.167,119.417 
			248.857,120.923 251.583,122.25 254.704,123.613 257.752,124.904 		"/>
	</g>
	<g id="Layer_8">
		<polyline id="synth_4_" fill="none" stroke="#ED1F24" stroke-width="0.25" stroke-miterlimit="10" points="261.411,113.355 
			262.954,114.431 264.46,115.256 265.859,115.65 267.401,115.938 268.728,116.153 269.912,116.547 271.741,117.372 273.75,118.34 
			277.874,119.955 280.636,121.138 282.716,121.784 284.51,122.501 286.733,123.434 290.141,124.796 		"/>
		<polyline id="image_5_" fill="none" stroke="#ED1F24" stroke-width="0.25" stroke-miterlimit="10" points="257.825,116.332 
			258.973,117.014 260.192,117.731 261.663,118.018 263.779,118.233 264.604,118.376 266.039,118.986 268.478,120.062 		"/>
		<polyline id="image_4_" fill="none" stroke="#ED1F24" stroke-width="0.25" stroke-miterlimit="10" points="273.535,122.071 
			277.803,123.613 281.21,124.904 284.833,126.231 		"/>
	</g>
</g>
<g id="points-auto">
	<line fill="none" stroke="#ED1F24" stroke-width="0.25" x1="34.264" y1="40.727" x2="32.7" y2="34.031"/>
	<line fill="none" stroke="#ED1F24" stroke-width="0.25" x1="844.127" y1="159.06" x2="846.193" y2="154.72"/>
	<line fill="none" stroke="#ED1F24" stroke-width="0.25" x1="11.794" y1="37.752" x2="9.366" y2="30.659"/>
	<line fill="none" stroke="#ED1F24" stroke-width="0.25" x1="18.871" y1="42.958" x2="16.488" y2="36.05"/>
	<line fill="none" stroke="#ED1F24" stroke-width="0.25" x1="514.073" y1="84.92" x2="516.61" y2="83.827"/>
	<line fill="none" stroke="#ED1F24" stroke-width="0.25" x1="139.618" y1="103.757" x2="142.735" y2="99.822"/>
	<line fill="none" stroke="#ED1F24" stroke-width="0.25" x1="139.618" y1="103.757" x2="142.735" y2="99.822"/>
	<line fill="none" stroke="#ED1F24" stroke-width="0.25" x1="643.209" y1="106.088" x2="644.552" y2="104.5"/>
	<line fill="none" stroke="#ED1F24" stroke-width="0.25" x1="410.336" y1="134.912" x2="414.527" y2="133.693"/>
	<line fill="none" stroke="#ED1F24" stroke-width="0.25" x1="842.718" y1="158.085" x2="844.567" y2="153.924"/>
	<line fill="none" stroke="#ED1F24" stroke-width="0.25" x1="665.195" y1="177.353" x2="665.389" y2="174.964"/>
	<line fill="none" stroke="#ED1F24" stroke-width="0.25" x1="48.275" y1="44.187" x2="47.369" y2="37.776"/>
	<line fill="none" stroke="#ED1F24" stroke-width="0.25" x1="677.645" y1="86.981" x2="679.239" y2="84.877"/>
	<line fill="none" stroke="#ED1F24" stroke-width="0.25" x1="672.516" y1="88.501" x2="673.928" y2="86.532"/>
	<line fill="none" stroke="#ED1F24" stroke-width="0.25" x1="683.732" y1="88.783" x2="685.219" y2="86.699"/>
	<line fill="none" stroke="#ED1F24" stroke-width="0.25" x1="648.106" y1="97.448" x2="649.457" y2="95.751"/>
	<line fill="none" stroke="#ED1F24" stroke-width="0.25" x1="392.168" y1="106.953" x2="396.451" y2="106.022"/>
	<line fill="none" stroke="#ED1F24" stroke-width="0.25" x1="56.135" y1="109.871" x2="56.734" y2="104.755"/>
	<line fill="none" stroke="#ED1F24" stroke-width="0.25" x1="633.67" y1="123.507" x2="634.843" y2="122.162"/>
	<line fill="none" stroke="#ED1F24" stroke-width="0.25" x1="225.821" y1="128.404" x2="230.098" y2="125.562"/>
	<line fill="none" stroke="#ED1F24" stroke-width="0.25" x1="474.294" y1="131.406" x2="477.412" y2="130.56"/>
	<line fill="none" stroke="#ED1F24" stroke-width="0.25" x1="770.617" y1="172.431" x2="770.954" y2="169.131"/>
	<line fill="none" stroke="#ED1F24" stroke-width="0.25" x1="38.063" y1="41.508" x2="36.491" y2="34.902"/>
	<line fill="none" stroke="#ED1F24" stroke-width="0.25" x1="44.853" y1="43.272" x2="43.78" y2="37.28"/>
	<line fill="none" stroke="#ED1F24" stroke-width="0.25" x1="59.471" y1="52.441" x2="59.224" y2="46.398"/>
	<line fill="none" stroke="#ED1F24" stroke-width="0.25" x1="457.591" y1="80.264" x2="460.799" y2="79.154"/>
	<line fill="none" stroke="#ED1F24" stroke-width="0.25" x1="467.213" y1="81.986" x2="470.344" y2="80.989"/>
	<line fill="none" stroke="#ED1F24" stroke-width="0.25" x1="518.733" y1="85.31" x2="521.535" y2="84.569"/>
	<line fill="none" stroke="#ED1F24" stroke-width="0.25" x1="672.639" y1="87.281" x2="674.321" y2="85.29"/>
	<line fill="none" stroke="#ED1F24" stroke-width="0.25" x1="664.332" y1="91.452" x2="665.74" y2="89.716"/>
	<line fill="none" stroke="#ED1F24" stroke-width="0.25" x1="686.762" y1="92.021" x2="688.327" y2="89.803"/>
	<line fill="none" stroke="#ED1F24" stroke-width="0.25" x1="680.883" y1="96.867" x2="682.271" y2="94.793"/>
	<line fill="none" stroke="#ED1F24" stroke-width="0.25" x1="672.99" y1="98.41" x2="674.346" y2="96.312"/>
	<line fill="none" stroke="#ED1F24" stroke-width="0.25" x1="43.116" y1="99.405" x2="43" y2="93.908"/>
	<line fill="none" stroke="#ED1F24" stroke-width="0.25" x1="26.919" y1="99.759" x2="26.086" y2="93.936"/>
	<line fill="none" stroke="#ED1F24" stroke-width="0.25" x1="506.027" y1="103.893" x2="508.739" y2="103.101"/>
	<line fill="none" stroke="#ED1F24" stroke-width="0.25" x1="697.215" y1="106.163" x2="698.582" y2="103.921"/>
	<line fill="none" stroke="#ED1F24" stroke-width="0.25" x1="158.808" y1="110.157" x2="162.448" y2="106.513"/>
	<line fill="none" stroke="#ED1F24" stroke-width="0.25" x1="49.197" y1="110.753" x2="49.68" y2="105.66"/>
	<line fill="none" stroke="#ED1F24" stroke-width="0.25" x1="265.049" y1="119.914" x2="269.577" y2="117.838"/>
	<line fill="none" stroke="#ED1F24" stroke-width="0.25" x1="224.449" y1="123.068" x2="228.854" y2="120.545"/>
	<line fill="none" stroke="#ED1F24" stroke-width="0.25" x1="83.412" y1="129.634" x2="85.273" y2="125.097"/>
	<line fill="none" stroke="#ED1F24" stroke-width="0.25" x1="744.636" y1="152.051" x2="745.19" y2="149.613"/>
	<line fill="none" stroke="#ED1F24" stroke-width="0.25" x1="716.669" y1="177.934" x2="716.506" y2="175.584"/>
	<line fill="none" stroke="#ED1F24" stroke-width="0.25" x1="729.189" y1="178.595" x2="729.229" y2="175.897"/>
	<line fill="none" stroke="#ED1F24" stroke-width="0.25" x1="46.243" y1="42.305" x2="45.23" y2="36.061"/>
	<line fill="none" stroke="#ED1F24" stroke-width="0.25" x1="450.529" y1="73.577" x2="453.75" y2="72.607"/>
	<line fill="none" stroke="#ED1F24" stroke-width="0.25" x1="456.012" y1="83.522" x2="459.278" y2="82.465"/>
	<line fill="none" stroke="#ED1F24" stroke-width="0.25" x1="21.956" y1="96.556" x2="21.027" y2="90.695"/>
	<line fill="none" stroke="#ED1F24" stroke-width="0.25" x1="673.963" y1="96.951" x2="675.172" y2="95.109"/>
	<line fill="none" stroke="#ED1F24" stroke-width="0.25" x1="148.79" y1="102.109" x2="152.245" y2="97.867"/>
	<line fill="none" stroke="#ED1F24" stroke-width="0.25" x1="83.442" y1="102.591" x2="84.996" y2="97.516"/>
	<line fill="none" stroke="#ED1F24" stroke-width="0.25" x1="28.077" y1="108.825" x2="27.456" y2="103.168"/>
	<line fill="none" stroke="#ED1F24" stroke-width="0.25" x1="129.065" y1="110.323" x2="132.031" y2="106.175"/>
	<line fill="none" stroke="#ED1F24" stroke-width="0.25" x1="111.938" y1="110.631" x2="114.36" y2="106.354"/>
	<line fill="none" stroke="#ED1F24" stroke-width="0.25" x1="349.308" y1="117.172" x2="354.219" y2="115.893"/>
	<line fill="none" stroke="#ED1F24" stroke-width="0.25" x1="376.962" y1="117.266" x2="381.284" y2="115.953"/>
	<line fill="none" stroke="#ED1F24" stroke-width="0.25" x1="375.083" y1="118.103" x2="379.542" y2="116.861"/>
	<line fill="none" stroke="#ED1F24" stroke-width="0.25" x1="73.19" y1="120.225" x2="74.568" y2="115.505"/>
	<line fill="none" stroke="#ED1F24" stroke-width="0.25" x1="230.894" y1="126.432" x2="235.657" y2="124.184"/>
	<line fill="none" stroke="#ED1F24" stroke-width="0.25" x1="233.723" y1="128.553" x2="238.751" y2="126.23"/>
	<line fill="none" stroke="#ED1F24" stroke-width="0.25" x1="105.235" y1="133.943" x2="107.802" y2="129.654"/>
	<line fill="none" stroke="#ED1F24" stroke-width="0.25" x1="104.175" y1="135.533" x2="106.728" y2="131.28"/>
	<line fill="none" stroke="#ED1F24" stroke-width="0.25" x1="104.175" y1="135.533" x2="106.728" y2="131.28"/>
	<line fill="none" stroke="#ED1F24" stroke-width="0.25" x1="734.194" y1="168.933" x2="734.315" y2="166.231"/>
	<line fill="none" stroke="#ED1F24" stroke-width="0.25" x1="9.316" y1="48.537" x2="6.622" y2="41.711"/>
	<line fill="none" stroke="#ED1F24" stroke-width="0.25" x1="58.39" y1="49.319" x2="57.891" y2="43.446"/>
	<line fill="none" stroke="#ED1F24" stroke-width="0.25" x1="142.918" y1="71.237" x2="145.448" y2="66.834"/>
	<line fill="none" stroke="#ED1F24" stroke-width="0.25" x1="137.322" y1="71.562" x2="140.018" y2="67.202"/>
	<line fill="none" stroke="#ED1F24" stroke-width="0.25" x1="450.491" y1="71.802" x2="454.003" y2="70.789"/>
	<line fill="none" stroke="#ED1F24" stroke-width="0.25" x1="452.781" y1="71.759" x2="456.273" y2="70.699"/>
	<line fill="none" stroke="#ED1F24" stroke-width="0.25" x1="452.781" y1="71.759" x2="456.273" y2="70.699"/>
	<line fill="none" stroke="#ED1F24" stroke-width="0.25" x1="433.549" y1="75.247" x2="437.209" y2="74.25"/>
	<line fill="none" stroke="#ED1F24" stroke-width="0.25" x1="62.538" y1="83.233" x2="62.425" y2="77.529"/>
	<line fill="none" stroke="#ED1F24" stroke-width="0.25" x1="419.032" y1="88.86" x2="422.714" y2="87.767"/>
	<line fill="none" stroke="#ED1F24" stroke-width="0.25" x1="419.032" y1="88.86" x2="422.714" y2="87.767"/>
	<line fill="none" stroke="#ED1F24" stroke-width="0.25" x1="684.665" y1="90.245" x2="686.107" y2="88.218"/>
	<line fill="none" stroke="#ED1F24" stroke-width="0.25" x1="455.941" y1="90.615" x2="458.956" y2="89.589"/>
	<line fill="none" stroke="#ED1F24" stroke-width="0.25" x1="18.244" y1="100.566" x2="17.349" y2="94.695"/>
	<line fill="none" stroke="#ED1F24" stroke-width="0.25" x1="127.321" y1="108.841" x2="130.324" y2="104.776"/>
	<line fill="none" stroke="#ED1F24" stroke-width="0.25" x1="457.486" y1="115.733" x2="461.075" y2="114.971"/>
	<line fill="none" stroke="#ED1F24" stroke-width="0.25" x1="70.348" y1="123.737" x2="71.856" y2="119.041"/>
	<line fill="none" stroke="#ED1F24" stroke-width="0.25" x1="216.5" y1="133.634" x2="221.354" y2="130.675"/>
	<line fill="none" stroke="#ED1F24" stroke-width="0.25" x1="187.927" y1="135.183" x2="192.301" y2="132.132"/>
	<line fill="none" stroke="#ED1F24" stroke-width="0.25" x1="808.994" y1="156.968" x2="810.112" y2="153.264"/>
	<line fill="none" stroke="#ED1F24" stroke-width="0.25" x1="784.202" y1="177.194" x2="784.945" y2="174.029"/>
	<line fill="none" stroke="#ED1F24" stroke-width="0.25" x1="732.975" y1="178.185" x2="733.138" y2="175.262"/>
	<line fill="none" stroke="#ED1F24" stroke-width="0.25" x1="450.274" y1="85.568" x2="453.571" y2="84.583"/>
	<line fill="none" stroke="#ED1F24" stroke-width="0.25" x1="419.027" y1="88.895" x2="422.714" y2="87.767"/>
	<line fill="none" stroke="#ED1F24" stroke-width="0.25" x1="419.027" y1="88.895" x2="422.714" y2="87.767"/>
	<line fill="none" stroke="#ED1F24" stroke-width="0.25" x1="418.297" y1="98.394" x2="422.012" y2="97.321"/>
	<line fill="none" stroke="#ED1F24" stroke-width="0.25" x1="50.858" y1="98.975" x2="51.11" y2="93.449"/>
	<line fill="none" stroke="#ED1F24" stroke-width="0.25" x1="12.829" y1="102.4" x2="11.573" y2="96.502"/>
	<line fill="none" stroke="#ED1F24" stroke-width="0.25" x1="63.326" y1="124.62" x2="64.241" y2="119.742"/>
	<line fill="none" stroke="#ED1F24" stroke-width="0.25" x1="245.325" y1="126.038" x2="250.375" y2="123.887"/>
	<line fill="none" stroke="#ED1F24" stroke-width="0.25" x1="114.301" y1="151.33" x2="117.218" y2="147.926"/>
	<line fill="none" stroke="#ED1F24" stroke-width="0.25" x1="165.489" y1="154.346" x2="170.11" y2="151.654"/>
	<line fill="none" stroke="#ED1F24" stroke-width="0.25" x1="723.692" y1="172.335" x2="723.275" y2="169.693"/>
	<line fill="none" stroke="#ED1F24" stroke-width="0.25" x1="457.584" y1="82.773" x2="460.749" y2="81.755"/>
	<line fill="none" stroke="#ED1F24" stroke-width="0.25" x1="697.36" y1="88.386" x2="698.891" y2="86.135"/>
	<line fill="none" stroke="#ED1F24" stroke-width="0.25" x1="682.039" y1="94.558" x2="683.362" y2="92.58"/>
	<line fill="none" stroke="#ED1F24" stroke-width="0.25" x1="405.848" y1="96.062" x2="409.809" y2="94.821"/>
	<line fill="none" stroke="#ED1F24" stroke-width="0.25" x1="405.848" y1="96.062" x2="409.809" y2="94.821"/>
	<line fill="none" stroke="#ED1F24" stroke-width="0.25" x1="14.745" y1="99.662" x2="13.717" y2="93.718"/>
	<line fill="none" stroke="#ED1F24" stroke-width="0.25" x1="14.745" y1="99.662" x2="13.717" y2="93.718"/>
	<line fill="none" stroke="#ED1F24" stroke-width="0.25" x1="129.657" y1="105.708" x2="132.661" y2="101.715"/>
	<line fill="none" stroke="#ED1F24" stroke-width="0.25" x1="723.082" y1="168.463" x2="723.34" y2="165.959"/>
	<line fill="none" stroke="#ED1F24" stroke-width="0.25" x1="665.958" y1="178.451" x2="666.269" y2="175.83"/>
	<line fill="none" stroke="#ED1F24" stroke-width="0.25" x1="662.432" y1="92.493" x2="663.904" y2="90.896"/>
	<line fill="none" stroke="#ED1F24" stroke-width="0.25" x1="494.935" y1="120.234" x2="497.656" y2="119.228"/>
	<line fill="none" stroke="#ED1F24" stroke-width="0.25" x1="708.214" y1="180.712" x2="708.473" y2="178.181"/>
	<line fill="none" stroke="#ED1F24" stroke-width="0.25" x1="819.13" y1="219.655" x2="817.913" y2="216.013"/>
	<line fill="none" stroke="#ED1F24" stroke-width="0.25" x1="477.975" y1="80.075" x2="481.152" y2="79"/>
	<line fill="none" stroke="#ED1F24" stroke-width="0.25" x1="669.301" y1="93.01" x2="670.935" y2="90.914"/>
	<line fill="none" stroke="#ED1F24" stroke-width="0.25" x1="377.044" y1="186.667" x2="381.817" y2="186.435"/>
	<line fill="none" stroke="#ED1F24" stroke-width="0.25" x1="765.254" y1="189.889" x2="765.602" y2="187.036"/>
	<line fill="none" stroke="#ED1F24" stroke-width="0.25" x1="18.184" y1="77.866" x2="17.341" y2="71.771"/>
	<line fill="none" stroke="#ED1F24" stroke-width="0.25" x1="377.044" y1="186.667" x2="381.817" y2="186.435"/>
</g>
</svg>
