<?xml version="1.0" encoding="utf-8"?>
<!-- Generator: Adobe Illustrator 16.0.4, SVG Export Plug-In . SVG Version: 6.00 Build 0)  -->
<!DOCTYPE svg PUBLIC "-//W3C//DTD SVG 1.1//EN" "http://www.w3.org/Graphics/SVG/1.1/DTD/svg11.dtd">
<svg version="1.1" id="svg" xmlns="http://www.w3.org/2000/svg" xmlns:xlink="http://www.w3.org/1999/xlink" x="0px" y="0px"
	 width="724px" height="486px" viewBox="0 0 724 486" enable-background="new 0 0 724 486" xml:space="preserve">
<image overflow="visible" enable-background="new    " width="2896" height="1944" xlink:href="AK10_20090827_192655.JPG"  transform="matrix(0.25 0 0 0.25 0 0)">
</image>
<image overflow="visible" enable-background="new    " width="2896" height="1944" xlink:href="AK10_20090827_192655-synth.JPG"  transform="matrix(0.25 0 0 0.25 0 0)">
</image>
<g id="points-auto">
	<line fill="none" stroke="#ED1F24" stroke-width="0.25" x1="62.784" y1="27.991" x2="66.624" y2="27.607"/>
	<line fill="none" stroke="#ED1F24" stroke-width="0.25" x1="714.656" y1="63.726" x2="714.549" y2="64.091"/>
	<line fill="none" stroke="#ED1F24" stroke-width="0.25" x1="718.273" y1="67.162" x2="718.005" y2="67.375"/>
	<line fill="none" stroke="#ED1F24" stroke-width="0.25" x1="704.492" y1="68.199" x2="704.13" y2="68.625"/>
	<line fill="none" stroke="#ED1F24" stroke-width="0.25" x1="704.492" y1="68.199" x2="704.13" y2="68.625"/>
	<line fill="none" stroke="#ED1F24" stroke-width="0.25" x1="2.261" y1="4.014" x2="5.439" y2="2.636"/>
	<line fill="none" stroke="#ED1F24" stroke-width="0.25" x1="1.204" y1="5.016" x2="4.396" y2="3.606"/>
	<line fill="none" stroke="#ED1F24" stroke-width="0.25" x1="65.07" y1="23.925" x2="68.83" y2="23.569"/>
	<line fill="none" stroke="#ED1F24" stroke-width="0.25" x1="129.586" y1="25.831" x2="133.681" y2="26.483"/>
	<line fill="none" stroke="#ED1F24" stroke-width="0.25" x1="51.655" y1="31.141" x2="55.358" y2="30.787"/>
	<line fill="none" stroke="#ED1F24" stroke-width="0.25" x1="167.82" y1="36.954" x2="171.805" y2="37.879"/>
	<line fill="none" stroke="#ED1F24" stroke-width="0.25" x1="138.265" y1="39.668" x2="142.627" y2="40.174"/>
	<line fill="none" stroke="#ED1F24" stroke-width="0.25" x1="713.34" y1="61.339" x2="713.199" y2="61.635"/>
	<line fill="none" stroke="#ED1F24" stroke-width="0.25" x1="681.937" y1="98.498" x2="680.899" y2="99.089"/>
	<line fill="none" stroke="#ED1F24" stroke-width="0.25" x1="687.759" y1="130.983" x2="686.64" y2="131.843"/>
	<line fill="none" stroke="#ED1F24" stroke-width="0.25" x1="69.088" y1="27.958" x2="72.834" y2="27.779"/>
	<line fill="none" stroke="#ED1F24" stroke-width="0.25" x1="125.342" y1="29.763" x2="129.684" y2="30.012"/>
	<line fill="none" stroke="#ED1F24" stroke-width="0.25" x1="133.755" y1="30.301" x2="137.871" y2="30.772"/>
	<line fill="none" stroke="#ED1F24" stroke-width="0.25" x1="170.413" y1="34.847" x2="174.697" y2="36.091"/>
	<line fill="none" stroke="#ED1F24" stroke-width="0.25" x1="169.405" y1="35.374" x2="173.591" y2="36.465"/>
	<line fill="none" stroke="#ED1F24" stroke-width="0.25" x1="220.888" y1="55.939" x2="225.077" y2="57.512"/>
	<line fill="none" stroke="#ED1F24" stroke-width="0.25" x1="713.337" y1="62.666" x2="713.241" y2="62.961"/>
	<line fill="none" stroke="#ED1F24" stroke-width="0.25" x1="703.323" y1="67.803" x2="703.065" y2="68.187"/>
	<line fill="none" stroke="#ED1F24" stroke-width="0.25" x1="667.384" y1="107.21" x2="666.167" y2="107.959"/>
	<line fill="none" stroke="#ED1F24" stroke-width="0.25" x1="583.001" y1="107.847" x2="581.592" y2="108.859"/>
	<line fill="none" stroke="#ED1F24" stroke-width="0.25" x1="170.46" y1="34.91" x2="174.697" y2="36.091"/>
	<line fill="none" stroke="#ED1F24" stroke-width="0.25" x1="715.635" y1="64.316" x2="715.426" y2="64.583"/>
	<line fill="none" stroke="#ED1F24" stroke-width="0.25" x1="702.744" y1="65.684" x2="702.443" y2="66.238"/>
	<line fill="none" stroke="#ED1F24" stroke-width="0.25" x1="721.354" y1="68.241" x2="721.179" y2="68.494"/>
	<line fill="none" stroke="#ED1F24" stroke-width="0.25" x1="708.809" y1="60.238" x2="708.98" y2="60.43"/>
	<line fill="none" stroke="#ED1F24" stroke-width="0.25" x1="633.089" y1="111.039" x2="631.839" y2="111.826"/>
	<line fill="none" stroke="#ED1F24" stroke-width="0.25" x1="130.002" y1="16.626" x2="133.709" y2="17.158"/>
	<line fill="none" stroke="#ED1F24" stroke-width="0.25" x1="131" y1="24.701" x2="135.091" y2="25.225"/>
	<line fill="none" stroke="#ED1F24" stroke-width="0.25" x1="131" y1="24.701" x2="135.091" y2="25.225"/>
	<line fill="none" stroke="#ED1F24" stroke-width="0.25" x1="547.027" y1="99.319" x2="545.682" y2="100.932"/>
	<line fill="none" stroke="#ED1F24" stroke-width="0.25" x1="132.9" y1="17.44" x2="136.63" y2="17.962"/>
	<line fill="none" stroke="#ED1F24" stroke-width="0.25" x1="129.371" y1="22.19" x2="133.506" y2="22.595"/>
	<line fill="none" stroke="#ED1F24" stroke-width="0.25" x1="132.346" y1="22.688" x2="136.403" y2="23.178"/>
	<line fill="none" stroke="#ED1F24" stroke-width="0.25" x1="59.579" y1="32.493" x2="63.425" y2="32.174"/>
	<line fill="none" stroke="#ED1F24" stroke-width="0.25" x1="718.375" y1="40.107" x2="718.448" y2="40.538"/>
	<line fill="none" stroke="#ED1F24" stroke-width="0.25" x1="643.494" y1="288.047" x2="641.332" y2="288.018"/>
	<line fill="none" stroke="#ED1F24" stroke-width="0.25" x1="102.707" y1="26.502" x2="106.423" y2="27.075"/>
	<line fill="none" stroke="#ED1F24" stroke-width="0.25" x1="697.658" y1="88.934" x2="697.108" y2="89.339"/>
	<line fill="none" stroke="#ED1F24" stroke-width="0.25" x1="349.041" y1="330.647" x2="349.979" y2="328.358"/>
	<line fill="none" stroke="#ED1F24" stroke-width="0.25" x1="48.205" y1="97.048" x2="52.888" y2="96.699"/>
	<line fill="none" stroke="#ED1F24" stroke-width="0.25" x1="682.292" y1="340.248" x2="680.841" y2="339.474"/>
	<line fill="none" stroke="#ED1F24" stroke-width="0.25" x1="499.537" y1="445.591" x2="499.348" y2="442.377"/>
	<line fill="none" stroke="#ED1F24" stroke-width="0.25" x1="687.205" y1="293.338" x2="684.84" y2="290.371"/>
	<line fill="none" stroke="#ED1F24" stroke-width="0.25" x1="687.205" y1="293.338" x2="684.84" y2="290.371"/>
	<line fill="none" stroke="#ED1F24" stroke-width="0.25" x1="674.961" y1="394.206" x2="672.111" y2="392.331"/>
	<line fill="none" stroke="#ED1F24" stroke-width="0.25" x1="85.5" y1="367.666" x2="86.257" y2="365.838"/>
	<line fill="none" stroke="#ED1F24" stroke-width="0.25" x1="661.119" y1="432.409" x2="664.1" y2="427.383"/>
	<line fill="none" stroke="#ED1F24" stroke-width="0.25" x1="511.17" y1="447.182" x2="509.932" y2="443.806"/>
	<line fill="none" stroke="#ED1F24" stroke-width="0.25" x1="694.347" y1="299.578" x2="691.654" y2="299.646"/>
</g>
</svg>
