<?xml version="1.0" encoding="utf-8"?>
<!-- Generator: Adobe Illustrator 16.0.4, SVG Export Plug-In . SVG Version: 6.00 Build 0)  -->
<!DOCTYPE svg PUBLIC "-//W3C//DTD SVG 1.1//EN" "http://www.w3.org/Graphics/SVG/1.1/DTD/svg11.dtd">
<svg version="1.1" id="svg" xmlns="http://www.w3.org/2000/svg" xmlns:xlink="http://www.w3.org/1999/xlink" x="0px" y="0px"
	 width="968px" height="648px" viewBox="0 0 968 648" enable-background="new 0 0 968 648" xml:space="preserve">
<image overflow="visible" enable-background="new    " width="3872" height="2592" xlink:href="AK10_20090803_195410.JPG"  transform="matrix(0.25 0 0 0.25 0 0)">
</image>
<image overflow="visible" enable-background="new    " width="3872" height="2592" xlink:href="AK10_20090803_195410-synth.JPG"  transform="matrix(0.25 0 0 0.25 0 0)">
</image>
<g id="points-auto">
	<line fill="none" stroke="#ED1F24" stroke-width="0.25" x1="175.258" y1="28.13" x2="179.129" y2="24.096"/>
	<line fill="none" stroke="#ED1F24" stroke-width="0.25" x1="176.632" y1="42.062" x2="180.649" y2="38.009"/>
	<line fill="none" stroke="#ED1F24" stroke-width="0.25" x1="925.931" y1="55.076" x2="927.497" y2="46.855"/>
	<line fill="none" stroke="#ED1F24" stroke-width="0.25" x1="949.293" y1="76.423" x2="951.089" y2="67.822"/>
	<line fill="none" stroke="#ED1F24" stroke-width="0.25" x1="163.125" y1="22.043" x2="166.906" y2="17.507"/>
	<line fill="none" stroke="#ED1F24" stroke-width="0.25" x1="167.847" y1="23.625" x2="171.78" y2="19.535"/>
	<line fill="none" stroke="#ED1F24" stroke-width="0.25" x1="158.146" y1="27.125" x2="161.837" y2="23.004"/>
	<line fill="none" stroke="#ED1F24" stroke-width="0.25" x1="158.196" y1="28.02" x2="161.944" y2="23.886"/>
	<line fill="none" stroke="#ED1F24" stroke-width="0.25" x1="163.186" y1="28.492" x2="167.009" y2="24.315"/>
	<line fill="none" stroke="#ED1F24" stroke-width="0.25" x1="157.373" y1="28.645" x2="160.893" y2="24.504"/>
	<line fill="none" stroke="#ED1F24" stroke-width="0.25" x1="159.198" y1="28.617" x2="162.972" y2="24.39"/>
	<line fill="none" stroke="#ED1F24" stroke-width="0.25" x1="171.093" y1="40.006" x2="175.01" y2="35.966"/>
	<line fill="none" stroke="#ED1F24" stroke-width="0.25" x1="173.957" y1="40.401" x2="177.97" y2="36.388"/>
	<line fill="none" stroke="#ED1F24" stroke-width="0.25" x1="256.182" y1="54.496" x2="260.529" y2="51.009"/>
	<line fill="none" stroke="#ED1F24" stroke-width="0.25" x1="256.182" y1="54.496" x2="260.529" y2="51.009"/>
	<line fill="none" stroke="#ED1F24" stroke-width="0.25" x1="948.823" y1="82.732" x2="950.261" y2="74.333"/>
	<line fill="none" stroke="#ED1F24" stroke-width="0.25" x1="815.215" y1="141.069" x2="814.758" y2="134.514"/>
	<line fill="none" stroke="#ED1F24" stroke-width="0.25" x1="163.79" y1="27.561" x2="167.439" y2="23.343"/>
	<line fill="none" stroke="#ED1F24" stroke-width="0.25" x1="144.888" y1="33.78" x2="148.662" y2="29.503"/>
	<line fill="none" stroke="#ED1F24" stroke-width="0.25" x1="144.888" y1="33.78" x2="148.662" y2="29.503"/>
	<line fill="none" stroke="#ED1F24" stroke-width="0.25" x1="173.265" y1="42.426" x2="177.234" y2="38.507"/>
	<line fill="none" stroke="#ED1F24" stroke-width="0.25" x1="173.265" y1="42.426" x2="177.234" y2="38.507"/>
	<line fill="none" stroke="#ED1F24" stroke-width="0.25" x1="256.227" y1="53.141" x2="260.583" y2="49.574"/>
	<line fill="none" stroke="#ED1F24" stroke-width="0.25" x1="256.227" y1="53.141" x2="260.583" y2="49.574"/>
	<line fill="none" stroke="#ED1F24" stroke-width="0.25" x1="65.528" y1="55.147" x2="68.62" y2="50.418"/>
	<line fill="none" stroke="#ED1F24" stroke-width="0.25" x1="256.571" y1="55.559" x2="260.888" y2="52.099"/>
	<line fill="none" stroke="#ED1F24" stroke-width="0.25" x1="256.571" y1="55.559" x2="260.888" y2="52.099"/>
	<line fill="none" stroke="#ED1F24" stroke-width="0.25" x1="957.887" y1="78.871" x2="959.797" y2="70.352"/>
	<line fill="none" stroke="#ED1F24" stroke-width="0.25" x1="635.534" y1="111.447" x2="635.339" y2="107.14"/>
	<line fill="none" stroke="#ED1F24" stroke-width="0.25" x1="815.213" y1="139.359" x2="814.826" y2="132.754"/>
	<line fill="none" stroke="#ED1F24" stroke-width="0.25" x1="829.093" y1="141.275" x2="828.781" y2="134.477"/>
	<line fill="none" stroke="#ED1F24" stroke-width="0.25" x1="153.401" y1="31.438" x2="157.24" y2="27.246"/>
	<line fill="none" stroke="#ED1F24" stroke-width="0.25" x1="169.684" y1="32.096" x2="173.551" y2="28.034"/>
	<line fill="none" stroke="#ED1F24" stroke-width="0.25" x1="150.437" y1="32.321" x2="153.947" y2="28.152"/>
	<line fill="none" stroke="#ED1F24" stroke-width="0.25" x1="76.237" y1="39.292" x2="79.306" y2="34.562"/>
	<line fill="none" stroke="#ED1F24" stroke-width="0.25" x1="164.068" y1="40.516" x2="168.249" y2="36.32"/>
	<line fill="none" stroke="#ED1F24" stroke-width="0.25" x1="924.592" y1="53.186" x2="925.958" y2="44.916"/>
	<line fill="none" stroke="#ED1F24" stroke-width="0.25" x1="836.347" y1="66.826" x2="836.539" y2="59.93"/>
	<line fill="none" stroke="#ED1F24" stroke-width="0.25" x1="819.958" y1="67.294" x2="820.104" y2="60.613"/>
	<line fill="none" stroke="#ED1F24" stroke-width="0.25" x1="40.459" y1="70.81" x2="43.613" y2="65.996"/>
	<line fill="none" stroke="#ED1F24" stroke-width="0.25" x1="40.459" y1="70.81" x2="43.613" y2="65.996"/>
	<line fill="none" stroke="#ED1F24" stroke-width="0.25" x1="947.305" y1="83.311" x2="948.874" y2="74.967"/>
	<line fill="none" stroke="#ED1F24" stroke-width="0.25" x1="166.74" y1="24.505" x2="170.512" y2="20.522"/>
	<line fill="none" stroke="#ED1F24" stroke-width="0.25" x1="153.904" y1="27.228" x2="157.709" y2="23.154"/>
	<line fill="none" stroke="#ED1F24" stroke-width="0.25" x1="171.417" y1="28.464" x2="175.177" y2="24.424"/>
	<line fill="none" stroke="#ED1F24" stroke-width="0.25" x1="150.811" y1="30.429" x2="154.455" y2="26.422"/>
	<line fill="none" stroke="#ED1F24" stroke-width="0.25" x1="147.183" y1="36.072" x2="150.912" y2="32.053"/>
	<line fill="none" stroke="#ED1F24" stroke-width="0.25" x1="147.042" y1="38.014" x2="150.654" y2="33.83"/>
	<line fill="none" stroke="#ED1F24" stroke-width="0.25" x1="147.042" y1="38.014" x2="150.654" y2="33.83"/>
	<line fill="none" stroke="#ED1F24" stroke-width="0.25" x1="159.624" y1="40.204" x2="163.219" y2="36.273"/>
	<line fill="none" stroke="#ED1F24" stroke-width="0.25" x1="47.488" y1="41.997" x2="50.069" y2="37.093"/>
	<line fill="none" stroke="#ED1F24" stroke-width="0.25" x1="835.594" y1="72.734" x2="835.834" y2="65.644"/>
	<line fill="none" stroke="#ED1F24" stroke-width="0.25" x1="949.694" y1="77.582" x2="951.467" y2="68.777"/>
	<line fill="none" stroke="#ED1F24" stroke-width="0.25" x1="954.083" y1="78.851" x2="955.8" y2="70.269"/>
	<line fill="none" stroke="#ED1F24" stroke-width="0.25" x1="954.083" y1="78.851" x2="955.8" y2="70.269"/>
	<line fill="none" stroke="#ED1F24" stroke-width="0.25" x1="949.449" y1="83.87" x2="951.107" y2="75.44"/>
	<line fill="none" stroke="#ED1F24" stroke-width="0.25" x1="828.242" y1="142.791" x2="827.699" y2="135.953"/>
	<line fill="none" stroke="#ED1F24" stroke-width="0.25" x1="162.358" y1="33.225" x2="165.923" y2="28.971"/>
	<line fill="none" stroke="#ED1F24" stroke-width="0.25" x1="147.439" y1="33.995" x2="151.188" y2="29.787"/>
	<line fill="none" stroke="#ED1F24" stroke-width="0.25" x1="170.524" y1="37.788" x2="174.538" y2="33.742"/>
	<line fill="none" stroke="#ED1F24" stroke-width="0.25" x1="172.329" y1="39.297" x2="176.285" y2="35.287"/>
	<line fill="none" stroke="#ED1F24" stroke-width="0.25" x1="172.329" y1="39.297" x2="176.285" y2="35.287"/>
	<line fill="none" stroke="#ED1F24" stroke-width="0.25" x1="175.431" y1="40.989" x2="179.357" y2="36.902"/>
	<line fill="none" stroke="#ED1F24" stroke-width="0.25" x1="161.907" y1="43.609" x2="165.726" y2="39.61"/>
	<line fill="none" stroke="#ED1F24" stroke-width="0.25" x1="927.119" y1="55.321" x2="928.668" y2="46.97"/>
	<line fill="none" stroke="#ED1F24" stroke-width="0.25" x1="220.382" y1="56.59" x2="224.195" y2="53.213"/>
	<line fill="none" stroke="#ED1F24" stroke-width="0.25" x1="951.717" y1="76.965" x2="953.148" y2="68.197"/>
	<line fill="none" stroke="#ED1F24" stroke-width="0.25" x1="842.75" y1="141.017" x2="842.48" y2="134.003"/>
	<line fill="none" stroke="#ED1F24" stroke-width="0.25" x1="128.604" y1="37.686" x2="132.343" y2="33.652"/>
	<line fill="none" stroke="#ED1F24" stroke-width="0.25" x1="877.039" y1="55.063" x2="877.633" y2="47.04"/>
	<line fill="none" stroke="#ED1F24" stroke-width="0.25" x1="170.853" y1="34.187" x2="174.612" y2="30.323"/>
	<line fill="none" stroke="#ED1F24" stroke-width="0.25" x1="170.853" y1="34.187" x2="174.612" y2="30.323"/>
	<line fill="none" stroke="#ED1F24" stroke-width="0.25" x1="173.564" y1="36.15" x2="177.352" y2="31.975"/>
	<line fill="none" stroke="#ED1F24" stroke-width="0.25" x1="66.464" y1="43.127" x2="69.371" y2="38.076"/>
	<line fill="none" stroke="#ED1F24" stroke-width="0.25" x1="329.312" y1="66.076" x2="332.988" y2="62.877"/>
	<line fill="none" stroke="#ED1F24" stroke-width="0.25" x1="339.982" y1="67.868" x2="344.94" y2="64.721"/>
	<line fill="none" stroke="#ED1F24" stroke-width="0.25" x1="672.919" y1="123.791" x2="672.325" y2="118.857"/>
	<line fill="none" stroke="#ED1F24" stroke-width="0.25" x1="435.589" y1="135.999" x2="438.743" y2="132.443"/>
	<line fill="none" stroke="#ED1F24" stroke-width="0.25" x1="167.55" y1="26.583" x2="171.227" y2="22.649"/>
	<line fill="none" stroke="#ED1F24" stroke-width="0.25" x1="167.615" y1="31.375" x2="171.406" y2="27.465"/>
	<line fill="none" stroke="#ED1F24" stroke-width="0.25" x1="132.893" y1="36.858" x2="136.759" y2="32.632"/>
	<line fill="none" stroke="#ED1F24" stroke-width="0.25" x1="955.496" y1="45.149" x2="957.807" y2="36.173"/>
	<line fill="none" stroke="#ED1F24" stroke-width="0.25" x1="957.275" y1="80.846" x2="959.153" y2="72.492"/>
	<line fill="none" stroke="#ED1F24" stroke-width="0.25" x1="830.337" y1="438.402" x2="832.265" y2="430.165"/>
	<line fill="none" stroke="#ED1F24" stroke-width="0.25" x1="130.708" y1="32.851" x2="133.733" y2="29.058"/>
	<line fill="none" stroke="#ED1F24" stroke-width="0.25" x1="960.975" y1="153.361" x2="960.246" y2="146.11"/>
	<line fill="none" stroke="#ED1F24" stroke-width="0.25" x1="470.002" y1="169.557" x2="472.646" y2="166.614"/>
	<line fill="none" stroke="#ED1F24" stroke-width="0.25" x1="857.221" y1="465.258" x2="859.771" y2="456.693"/>
	<line fill="none" stroke="#ED1F24" stroke-width="0.25" x1="910.135" y1="457.502" x2="912.248" y2="449.921"/>
	<line fill="none" stroke="#ED1F24" stroke-width="0.25" x1="336.902" y1="77.239" x2="342.759" y2="73.263"/>
	<line fill="none" stroke="#ED1F24" stroke-width="0.25" x1="843.491" y1="573.552" x2="842.538" y2="561.672"/>
	<line fill="none" stroke="#ED1F24" stroke-width="0.25" x1="935.756" y1="57.055" x2="939.872" y2="47.792"/>
	<line fill="none" stroke="#ED1F24" stroke-width="0.25" x1="940.714" y1="379.923" x2="942.592" y2="369.37"/>
	<line fill="none" stroke="#ED1F24" stroke-width="0.25" x1="774.486" y1="559.361" x2="779.593" y2="548.28"/>
	<line fill="none" stroke="#ED1F24" stroke-width="0.25" x1="769.805" y1="592.76" x2="773.362" y2="580.743"/>
	<line fill="none" stroke="#ED1F24" stroke-width="0.25" x1="867.349" y1="423.719" x2="867.826" y2="410.004"/>
	<line fill="none" stroke="#ED1F24" stroke-width="0.25" x1="885.259" y1="467.549" x2="887.911" y2="458.804"/>
</g>
<g id="lines">
	<g id="Layer_3">
		<polyline id="synth" fill="none" stroke="#ED1F24" stroke-width="0.25" points="1.249,160.189 57,159.833 86.667,158.667 
			127.834,157.833 184.501,155.833 210.667,155.333 241.167,154.5 272.167,153.667 318.667,152.5 326.834,152.167 		"/>
		<polyline id="image" fill="none" stroke="#ED1F24" stroke-width="0.25" points="17.334,164.167 82.834,163.333 141,161 
			181,159.833 246.166,158.167 311.833,156.333 		"/>
	</g>
</g>
</svg>
