<svg xmlns:xlink="http://www.w3.org/1999/xlink" xmlns="http://www.w3.org/2000/svg" x="0px" y="0px" width="968.0px" height="648.0px" viewBox="0 0 968.0 648.0" id="svg">
  <image width="3872.0" height="2592.0" transform="matrix(0.25 0 0 0.25 0 0)" xlink:href="AK10b_20120605_203759.JPG"/>
  <image width="3872" height="2592" transform="matrix(0.25 0 0 0.25 0 0)" xlink:href="AK10b_20120605_203759-synth.JPG"/>
  <g id="points-auto">
    <line x1="90.05236053466797" y1="170.40419006347656" x2="86.12701416015625" y2="160.97767639160156" fill="none" stroke="#ED1F24" stroke-width="0.25"/>
    <line x1="132.8089599609375" y1="178.70965576171875" x2="130.26441955566406" y2="169.86444091796875" fill="none" stroke="#ED1F24" stroke-width="0.25"/>
    <line x1="27.077125549316406" y1="179.0450439453125" x2="20.718345642089844" y2="168.83998107910156" fill="none" stroke="#ED1F24" stroke-width="0.25"/>
    <line x1="93.81700134277344" y1="186.710693359375" x2="90.39622497558594" y2="177.46405029296875" fill="none" stroke="#ED1F24" stroke-width="0.25"/>
    <line x1="94.91647338867188" y1="188.46934509277344" x2="91.30244445800781" y2="179.23492431640625" fill="none" stroke="#ED1F24" stroke-width="0.25"/>
    <line x1="163.45037841796875" y1="203.8921356201172" x2="162.0185546875" y2="195.531494140625" fill="none" stroke="#ED1F24" stroke-width="0.25"/>
    <line x1="242.53421020507812" y1="208.36032104492188" x2="241.847412109375" y2="200.72409057617188" fill="none" stroke="#ED1F24" stroke-width="0.25"/>
    <line x1="239.3636016845703" y1="210.1227264404297" x2="238.87103271484375" y2="202.38336181640625" fill="none" stroke="#ED1F24" stroke-width="0.25"/>
    <line x1="161.07872009277344" y1="223.23785400390625" x2="159.48817443847656" y2="214.5993194580078" fill="none" stroke="#ED1F24" stroke-width="0.25"/>
    <line x1="211.07479858398438" y1="225.6238555908203" x2="210.47813415527344" y2="217.3662567138672" fill="none" stroke="#ED1F24" stroke-width="0.25"/>
    <line x1="219.38992309570312" y1="234.2723388671875" x2="219.11529541015625" y2="226.31663513183594" fill="none" stroke="#ED1F24" stroke-width="0.25"/>
    <line x1="324.4948425292969" y1="235.87411499023438" x2="324.10028076171875" y2="228.41790771484375" fill="none" stroke="#ED1F24" stroke-width="0.25"/>
    <line x1="213.20631408691406" y1="236.22344970703125" x2="212.76263427734375" y2="228.2099609375" fill="none" stroke="#ED1F24" stroke-width="0.25"/>
    <line x1="291.1819152832031" y1="241.2350311279297" x2="290.89459228515625" y2="233.71749877929688" fill="none" stroke="#ED1F24" stroke-width="0.25"/>
    <line x1="44.696407318115234" y1="155.6178741455078" x2="38.95820617675781" y2="145.5717010498047" fill="none" stroke="#ED1F24" stroke-width="0.25"/>
    <line x1="51.08037185668945" y1="165.9781494140625" x2="45.623050689697266" y2="156.16551208496094" fill="none" stroke="#ED1F24" stroke-width="0.25"/>
    <line x1="42.194740295410156" y1="167.4768524169922" x2="36.52474594116211" y2="157.5647430419922" fill="none" stroke="#ED1F24" stroke-width="0.25"/>
    <line x1="99.13994598388672" y1="168.07456970214844" x2="95.17584228515625" y2="158.72964477539062" fill="none" stroke="#ED1F24" stroke-width="0.25"/>
    <line x1="126.74232482910156" y1="171.8853759765625" x2="124.00739288330078" y2="162.92359924316406" fill="none" stroke="#ED1F24" stroke-width="0.25"/>
    <line x1="130.4495849609375" y1="173.1222381591797" x2="127.70930480957031" y2="164.26148986816406" fill="none" stroke="#ED1F24" stroke-width="0.25"/>
    <line x1="55.32128143310547" y1="177.5633544921875" x2="50.064090728759766" y2="167.8898162841797" fill="none" stroke="#ED1F24" stroke-width="0.25"/>
    <line x1="146.78561401367188" y1="177.84689331054688" x2="144.48057556152344" y2="168.9639892578125" fill="none" stroke="#ED1F24" stroke-width="0.25"/>
    <line x1="147.94664001464844" y1="178.33193969726562" x2="145.55368041992188" y2="169.36306762695312" fill="none" stroke="#ED1F24" stroke-width="0.25"/>
    <line x1="132.27313232421875" y1="181.53744506835938" x2="129.61582946777344" y2="172.6256561279297" fill="none" stroke="#ED1F24" stroke-width="0.25"/>
    <line x1="136.74696350097656" y1="181.45034790039062" x2="134.2196044921875" y2="172.55320739746094" fill="none" stroke="#ED1F24" stroke-width="0.25"/>
    <line x1="136.37266540527344" y1="182.26315307617188" x2="133.6962890625" y2="173.27236938476562" fill="none" stroke="#ED1F24" stroke-width="0.25"/>
    <line x1="145.8695068359375" y1="182.3885955810547" x2="143.39698791503906" y2="173.4716033935547" fill="none" stroke="#ED1F24" stroke-width="0.25"/>
    <line x1="147.75628662109375" y1="185.48599243164062" x2="145.3177490234375" y2="176.6719207763672" fill="none" stroke="#ED1F24" stroke-width="0.25"/>
    <line x1="147.75628662109375" y1="185.48599243164062" x2="145.3177490234375" y2="176.6719207763672" fill="none" stroke="#ED1F24" stroke-width="0.25"/>
    <line x1="128.49774169921875" y1="186.66017150878906" x2="125.77499389648438" y2="177.78213500976562" fill="none" stroke="#ED1F24" stroke-width="0.25"/>
    <line x1="122.38400268554688" y1="189.44728088378906" x2="119.71993255615234" y2="180.43116760253906" fill="none" stroke="#ED1F24" stroke-width="0.25"/>
    <line x1="122.34452056884766" y1="191.6479949951172" x2="119.63787841796875" y2="182.77500915527344" fill="none" stroke="#ED1F24" stroke-width="0.25"/>
    <line x1="170.02650451660156" y1="196.2190399169922" x2="168.5020751953125" y2="187.76438903808594" fill="none" stroke="#ED1F24" stroke-width="0.25"/>
    <line x1="208.98924255371094" y1="196.7212371826172" x2="208.01048278808594" y2="188.6977996826172" fill="none" stroke="#ED1F24" stroke-width="0.25"/>
    <line x1="208.98924255371094" y1="196.7212371826172" x2="208.01048278808594" y2="188.6977996826172" fill="none" stroke="#ED1F24" stroke-width="0.25"/>
    <line x1="160.03231811523438" y1="203.4779510498047" x2="158.22628784179688" y2="194.88467407226562" fill="none" stroke="#ED1F24" stroke-width="0.25"/>
    <line x1="201.3826446533203" y1="204.45399475097656" x2="200.67031860351562" y2="196.5236358642578" fill="none" stroke="#ED1F24" stroke-width="0.25"/>
    <line x1="213.9374237060547" y1="214.00172424316406" x2="213.2246856689453" y2="205.95452880859375" fill="none" stroke="#ED1F24" stroke-width="0.25"/>
    <line x1="121.98668670654297" y1="214.2344512939453" x2="119.82444763183594" y2="205.47479248046875" fill="none" stroke="#ED1F24" stroke-width="0.25"/>
    <line x1="100.24837493896484" y1="217.39300537109375" x2="97.2753677368164" y2="208.30099487304688" fill="none" stroke="#ED1F24" stroke-width="0.25"/>
    <line x1="269.36614990234375" y1="217.45030212402344" x2="269.07977294921875" y2="210.0653076171875" fill="none" stroke="#ED1F24" stroke-width="0.25"/>
    <line x1="163.67697143554688" y1="218.4044952392578" x2="162.1788330078125" y2="210.01025390625" fill="none" stroke="#ED1F24" stroke-width="0.25"/>
    <line x1="211.74212646484375" y1="218.66006469726562" x2="211.0475616455078" y2="210.52439880371094" fill="none" stroke="#ED1F24" stroke-width="0.25"/>
    <line x1="144.4292449951172" y1="220.0131378173828" x2="142.5707244873047" y2="211.2577667236328" fill="none" stroke="#ED1F24" stroke-width="0.25"/>
    <line x1="161.37954711914062" y1="220.32009887695312" x2="159.84576416015625" y2="211.63839721679688" fill="none" stroke="#ED1F24" stroke-width="0.25"/>
    <line x1="183.54933166503906" y1="220.80184936523438" x2="182.70030212402344" y2="212.59243774414062" fill="none" stroke="#ED1F24" stroke-width="0.25"/>
    <line x1="266.0302429199219" y1="222.40902709960938" x2="265.5198059082031" y2="214.76217651367188" fill="none" stroke="#ED1F24" stroke-width="0.25"/>
    <line x1="152.26708984375" y1="224.92193603515625" x2="150.88369750976562" y2="216.11338806152344" fill="none" stroke="#ED1F24" stroke-width="0.25"/>
    <line x1="186.83349609375" y1="228.60421752929688" x2="186.09579467773438" y2="220.29893493652344" fill="none" stroke="#ED1F24" stroke-width="0.25"/>
    <line x1="210.32846069335938" y1="229.38186645507812" x2="209.6348876953125" y2="221.5333709716797" fill="none" stroke="#ED1F24" stroke-width="0.25"/>
    <line x1="182.7224884033203" y1="230.16368103027344" x2="181.92430114746094" y2="221.98204040527344" fill="none" stroke="#ED1F24" stroke-width="0.25"/>
    <line x1="186.63494873046875" y1="230.48666381835938" x2="185.9298553466797" y2="222.18063354492188" fill="none" stroke="#ED1F24" stroke-width="0.25"/>
    <line x1="174.14688110351562" y1="230.8289794921875" x2="173.0379180908203" y2="222.46041870117188" fill="none" stroke="#ED1F24" stroke-width="0.25"/>
    <line x1="271.77203369140625" y1="231.87815856933594" x2="271.7309875488281" y2="224.4613494873047" fill="none" stroke="#ED1F24" stroke-width="0.25"/>
    <line x1="283.99676513671875" y1="231.98309326171875" x2="284.1213073730469" y2="224.5679931640625" fill="none" stroke="#ED1F24" stroke-width="0.25"/>
    <line x1="164.6798553466797" y1="232.36940002441406" x2="163.4392547607422" y2="223.82135009765625" fill="none" stroke="#ED1F24" stroke-width="0.25"/>
    <line x1="287.68658447265625" y1="232.88841247558594" x2="287.5106201171875" y2="225.3646697998047" fill="none" stroke="#ED1F24" stroke-width="0.25"/>
    <line x1="180.99819946289062" y1="233.36497497558594" x2="180.15904235839844" y2="225.25958251953125" fill="none" stroke="#ED1F24" stroke-width="0.25"/>
    <line x1="259.318115234375" y1="234.02151489257812" x2="258.83502197265625" y2="226.09288024902344" fill="none" stroke="#ED1F24" stroke-width="0.25"/>
    <line x1="294.3861083984375" y1="234.58152770996094" x2="294.1275329589844" y2="227.05569458007812" fill="none" stroke="#ED1F24" stroke-width="0.25"/>
    <line x1="322.06036376953125" y1="235.25279235839844" x2="321.72479248046875" y2="227.93218994140625" fill="none" stroke="#ED1F24" stroke-width="0.25"/>
    <line x1="300.6620178222656" y1="235.58653259277344" x2="300.3359069824219" y2="228.3415069580078" fill="none" stroke="#ED1F24" stroke-width="0.25"/>
    <line x1="241.6195068359375" y1="236.4088134765625" x2="241.30722045898438" y2="228.30865478515625" fill="none" stroke="#ED1F24" stroke-width="0.25"/>
    <line x1="240.49789428710938" y1="236.50076293945312" x2="240.2410430908203" y2="228.39198303222656" fill="none" stroke="#ED1F24" stroke-width="0.25"/>
    <line x1="202.4474639892578" y1="236.62789916992188" x2="201.70936584472656" y2="228.54010009765625" fill="none" stroke="#ED1F24" stroke-width="0.25"/>
    <line x1="284.26336669921875" y1="237.93502807617188" x2="284.1288757324219" y2="230.5118865966797" fill="none" stroke="#ED1F24" stroke-width="0.25"/>
    <line x1="282.70709228515625" y1="238.64599609375" x2="282.32489013671875" y2="231.00758361816406" fill="none" stroke="#ED1F24" stroke-width="0.25"/>
    <line x1="334.8163146972656" y1="240.96568298339844" x2="334.3189697265625" y2="233.67990112304688" fill="none" stroke="#ED1F24" stroke-width="0.25"/>
    <line x1="287.94561767578125" y1="243.02818298339844" x2="287.8213195800781" y2="235.62872314453125" fill="none" stroke="#ED1F24" stroke-width="0.25"/>
    <line x1="253.44100952148438" y1="245.6976776123047" x2="253.26283264160156" y2="237.7675323486328" fill="none" stroke="#ED1F24" stroke-width="0.25"/>
    <line x1="916.5430297851562" y1="432.3717346191406" x2="915.7258911132812" y2="423.1250305175781" fill="none" stroke="#ED1F24" stroke-width="0.25"/>
    <line x1="42.952598571777344" y1="160.03936767578125" x2="36.97499465942383" y2="150.22421264648438" fill="none" stroke="#ED1F24" stroke-width="0.25"/>
    <line x1="39.2437744140625" y1="162.35848999023438" x2="33.417850494384766" y2="152.4512939453125" fill="none" stroke="#ED1F24" stroke-width="0.25"/>
    <line x1="44.141780853271484" y1="163.92140197753906" x2="38.29092025756836" y2="153.93809509277344" fill="none" stroke="#ED1F24" stroke-width="0.25"/>
    <line x1="47.46066665649414" y1="165.36753845214844" x2="41.91494369506836" y2="155.41172790527344" fill="none" stroke="#ED1F24" stroke-width="0.25"/>
    <line x1="48.80707550048828" y1="166.75482177734375" x2="43.219947814941406" y2="156.86598205566406" fill="none" stroke="#ED1F24" stroke-width="0.25"/>
    <line x1="41.28895568847656" y1="168.1182403564453" x2="35.5759162902832" y2="158.15164184570312" fill="none" stroke="#ED1F24" stroke-width="0.25"/>
    <line x1="50.46005630493164" y1="170.14419555664062" x2="44.92595672607422" y2="160.1339569091797" fill="none" stroke="#ED1F24" stroke-width="0.25"/>
    <line x1="46.69465637207031" y1="171.50343322753906" x2="41.31901168823242" y2="161.61947631835938" fill="none" stroke="#ED1F24" stroke-width="0.25"/>
    <line x1="67.25845336914062" y1="171.8445281982422" x2="62.28521728515625" y2="161.9538116455078" fill="none" stroke="#ED1F24" stroke-width="0.25"/>
    <line x1="15.156412124633789" y1="173.90512084960938" x2="8.340983390808105" y2="163.5726776123047" fill="none" stroke="#ED1F24" stroke-width="0.25"/>
    <line x1="119.21709442138672" y1="176.3148651123047" x2="116.19550323486328" y2="167.377197265625" fill="none" stroke="#ED1F24" stroke-width="0.25"/>
    <line x1="133.20578002929688" y1="179.50819396972656" x2="130.66868591308594" y2="170.6443328857422" fill="none" stroke="#ED1F24" stroke-width="0.25"/>
    <line x1="132.85635375976562" y1="180.5126190185547" x2="130.30020141601562" y2="171.64544677734375" fill="none" stroke="#ED1F24" stroke-width="0.25"/>
    <line x1="55.12413024902344" y1="181.6664581298828" x2="50.0417366027832" y2="172.07472229003906" fill="none" stroke="#ED1F24" stroke-width="0.25"/>
    <line x1="127.65205383300781" y1="181.872802734375" x2="124.91049194335938" y2="173.05409240722656" fill="none" stroke="#ED1F24" stroke-width="0.25"/>
    <line x1="91.97117614746094" y1="185.2061309814453" x2="88.51417541503906" y2="176.18533325195312" fill="none" stroke="#ED1F24" stroke-width="0.25"/>
    <line x1="65.65702819824219" y1="186.6775665283203" x2="60.91950225830078" y2="177.0723114013672" fill="none" stroke="#ED1F24" stroke-width="0.25"/>
    <line x1="65.65702819824219" y1="186.6775665283203" x2="60.91950225830078" y2="177.0723114013672" fill="none" stroke="#ED1F24" stroke-width="0.25"/>
    <line x1="126.08197021484375" y1="189.47702026367188" x2="123.34329986572266" y2="180.5720977783203" fill="none" stroke="#ED1F24" stroke-width="0.25"/>
    <line x1="123.9078140258789" y1="189.6519317626953" x2="121.1124496459961" y2="180.64308166503906" fill="none" stroke="#ED1F24" stroke-width="0.25"/>
    <line x1="149.2433624267578" y1="189.87942504882812" x2="147.14910888671875" y2="181.15113830566406" fill="none" stroke="#ED1F24" stroke-width="0.25"/>
    <line x1="140.83937072753906" y1="193.96759033203125" x2="138.79684448242188" y2="185.4774169921875" fill="none" stroke="#ED1F24" stroke-width="0.25"/>
    <line x1="122.83109283447266" y1="194.8966522216797" x2="120.21475219726562" y2="186.0402069091797" fill="none" stroke="#ED1F24" stroke-width="0.25"/>
    <line x1="161.30484008789062" y1="204.15914916992188" x2="159.8904266357422" y2="195.8201141357422" fill="none" stroke="#ED1F24" stroke-width="0.25"/>
    <line x1="161.30484008789062" y1="204.15914916992188" x2="159.8904266357422" y2="195.8201141357422" fill="none" stroke="#ED1F24" stroke-width="0.25"/>
    <line x1="238.82675170898438" y1="205.07748413085938" x2="238.42503356933594" y2="197.3361358642578" fill="none" stroke="#ED1F24" stroke-width="0.25"/>
    <line x1="200.841064453125" y1="206.8477783203125" x2="200.01348876953125" y2="198.92666625976562" fill="none" stroke="#ED1F24" stroke-width="0.25"/>
    <line x1="238.3707275390625" y1="206.9605712890625" x2="237.93907165527344" y2="199.3206329345703" fill="none" stroke="#ED1F24" stroke-width="0.25"/>
    <line x1="41.24583435058594" y1="207.160888671875" x2="36.03230667114258" y2="197.4839324951172" fill="none" stroke="#ED1F24" stroke-width="0.25"/>
    <line x1="164.02651977539062" y1="207.67327880859375" x2="162.78236389160156" y2="199.34130859375" fill="none" stroke="#ED1F24" stroke-width="0.25"/>
    <line x1="101.2018814086914" y1="212.6757049560547" x2="98.42845916748047" y2="203.7220001220703" fill="none" stroke="#ED1F24" stroke-width="0.25"/>
    <line x1="240.3439178466797" y1="215.19906616210938" x2="239.8561248779297" y2="207.25802612304688" fill="none" stroke="#ED1F24" stroke-width="0.25"/>
    <line x1="223.83795166015625" y1="216.53652954101562" x2="222.99671936035156" y2="208.58839416503906" fill="none" stroke="#ED1F24" stroke-width="0.25"/>
    <line x1="152.0191192626953" y1="216.86378479003906" x2="150.3333282470703" y2="208.3310089111328" fill="none" stroke="#ED1F24" stroke-width="0.25"/>
    <line x1="166.58522033691406" y1="217.13597106933594" x2="165.29275512695312" y2="208.7259063720703" fill="none" stroke="#ED1F24" stroke-width="0.25"/>
    <line x1="165.7240447998047" y1="217.92210388183594" x2="164.36282348632812" y2="209.48959350585938" fill="none" stroke="#ED1F24" stroke-width="0.25"/>
    <line x1="234.91195678710938" y1="218.39730834960938" x2="234.49887084960938" y2="210.55824279785156" fill="none" stroke="#ED1F24" stroke-width="0.25"/>
    <line x1="160.81480407714844" y1="219.23585510253906" x2="159.3938446044922" y2="210.553955078125" fill="none" stroke="#ED1F24" stroke-width="0.25"/>
    <line x1="163.73890686035156" y1="219.5104522705078" x2="162.53623962402344" y2="211.104736328125" fill="none" stroke="#ED1F24" stroke-width="0.25"/>
    <line x1="170.75057983398438" y1="219.6781463623047" x2="169.29759216308594" y2="211.2715301513672" fill="none" stroke="#ED1F24" stroke-width="0.25"/>
    <line x1="158.78085327148438" y1="220.0092315673828" x2="157.2074432373047" y2="211.3089141845703" fill="none" stroke="#ED1F24" stroke-width="0.25"/>
    <line x1="145.48626708984375" y1="220.13381958007812" x2="143.60360717773438" y2="211.31947326660156" fill="none" stroke="#ED1F24" stroke-width="0.25"/>
    <line x1="145.48626708984375" y1="220.13381958007812" x2="143.60360717773438" y2="211.31947326660156" fill="none" stroke="#ED1F24" stroke-width="0.25"/>
    <line x1="221.37042236328125" y1="222.04466247558594" x2="220.6757049560547" y2="214.0304412841797" fill="none" stroke="#ED1F24" stroke-width="0.25"/>
    <line x1="221.37042236328125" y1="222.04466247558594" x2="220.6757049560547" y2="214.0304412841797" fill="none" stroke="#ED1F24" stroke-width="0.25"/>
    <line x1="161.06614685058594" y1="222.26229858398438" x2="159.70413208007812" y2="213.59228515625" fill="none" stroke="#ED1F24" stroke-width="0.25"/>
    <line x1="184.88442993164062" y1="222.6900634765625" x2="184.088134765625" y2="214.6378631591797" fill="none" stroke="#ED1F24" stroke-width="0.25"/>
    <line x1="159.35133361816406" y1="223.20770263671875" x2="157.67408752441406" y2="214.42703247070312" fill="none" stroke="#ED1F24" stroke-width="0.25"/>
    <line x1="158.54017639160156" y1="224.101318359375" x2="157.0295867919922" y2="215.416259765625" fill="none" stroke="#ED1F24" stroke-width="0.25"/>
    <line x1="158.54017639160156" y1="224.101318359375" x2="157.0295867919922" y2="215.416259765625" fill="none" stroke="#ED1F24" stroke-width="0.25"/>
    <line x1="182.94374084472656" y1="224.30966186523438" x2="181.99008178710938" y2="216.1075897216797" fill="none" stroke="#ED1F24" stroke-width="0.25"/>
    <line x1="186.99295043945312" y1="225.74147033691406" x2="186.4527130126953" y2="217.65231323242188" fill="none" stroke="#ED1F24" stroke-width="0.25"/>
    <line x1="34.5983772277832" y1="227.33010864257812" x2="29.236785888671875" y2="217.70140075683594" fill="none" stroke="#ED1F24" stroke-width="0.25"/>
    <line x1="266.0548400878906" y1="228.8368377685547" x2="265.64404296875" y2="221.55838012695312" fill="none" stroke="#ED1F24" stroke-width="0.25"/>
    <line x1="186.8016357421875" y1="229.5140838623047" x2="186.0441436767578" y2="221.23606872558594" fill="none" stroke="#ED1F24" stroke-width="0.25"/>
    <line x1="174.89895629882812" y1="229.90452575683594" x2="173.73291015625" y2="221.3839569091797" fill="none" stroke="#ED1F24" stroke-width="0.25"/>
    <line x1="180.1459197998047" y1="230.56015014648438" x2="179.258544921875" y2="222.4866485595703" fill="none" stroke="#ED1F24" stroke-width="0.25"/>
    <line x1="161.18484497070312" y1="230.8177947998047" x2="159.9744873046875" y2="222.18258666992188" fill="none" stroke="#ED1F24" stroke-width="0.25"/>
    <line x1="170.08071899414062" y1="232.20848083496094" x2="169.18997192382812" y2="223.99598693847656" fill="none" stroke="#ED1F24" stroke-width="0.25"/>
    <line x1="205.30238342285156" y1="232.98219299316406" x2="204.27455139160156" y2="224.86358642578125" fill="none" stroke="#ED1F24" stroke-width="0.25"/>
    <line x1="281.4219970703125" y1="233.05833435058594" x2="281.3648986816406" y2="225.46701049804688" fill="none" stroke="#ED1F24" stroke-width="0.25"/>
    <line x1="288.3553466796875" y1="235.1633758544922" x2="288.2217712402344" y2="227.71510314941406" fill="none" stroke="#ED1F24" stroke-width="0.25"/>
    <line x1="261.9037170410156" y1="236.3592529296875" x2="261.85870361328125" y2="228.58399963378906" fill="none" stroke="#ED1F24" stroke-width="0.25"/>
    <line x1="329.44012451171875" y1="239.15602111816406" x2="329.1754150390625" y2="231.85791015625" fill="none" stroke="#ED1F24" stroke-width="0.25"/>
    <line x1="236.72299194335938" y1="239.52113342285156" x2="236.54629516601562" y2="231.49916076660156" fill="none" stroke="#ED1F24" stroke-width="0.25"/>
    <line x1="266.9375" y1="239.51602172851562" x2="266.8979187011719" y2="231.8577423095703" fill="none" stroke="#ED1F24" stroke-width="0.25"/>
    <line x1="283.0728454589844" y1="240.56629943847656" x2="282.9043273925781" y2="233.12901306152344" fill="none" stroke="#ED1F24" stroke-width="0.25"/>
    <line x1="253.01962280273438" y1="240.72840881347656" x2="252.94749450683594" y2="232.9569549560547" fill="none" stroke="#ED1F24" stroke-width="0.25"/>
    <line x1="236.64234924316406" y1="242.033935546875" x2="236.43421936035156" y2="234.016357421875" fill="none" stroke="#ED1F24" stroke-width="0.25"/>
    <line x1="743.0580444335938" y1="319.77191162109375" x2="737.5946655273438" y2="311.5332336425781" fill="none" stroke="#ED1F24" stroke-width="0.25"/>
    <line x1="823.8666381835938" y1="355.6625671386719" x2="820.0174560546875" y2="347.30328369140625" fill="none" stroke="#ED1F24" stroke-width="0.25"/>
    <line x1="965.111328125" y1="408.5896301269531" x2="965.8126220703125" y2="399.8575134277344" fill="none" stroke="#ED1F24" stroke-width="0.25"/>
    <line x1="952.8963012695312" y1="471.845947265625" x2="955.4923095703125" y2="463.1583251953125" fill="none" stroke="#ED1F24" stroke-width="0.25"/>
    <line x1="48.22994613647461" y1="161.9905548095703" x2="42.67085647583008" y2="152.08106994628906" fill="none" stroke="#ED1F24" stroke-width="0.25"/>
    <line x1="38.37886047363281" y1="163.48291015625" x2="32.44412612915039" y2="153.70916748046875" fill="none" stroke="#ED1F24" stroke-width="0.25"/>
    <line x1="51.11506652832031" y1="167.2412567138672" x2="45.93550491333008" y2="157.62973022460938" fill="none" stroke="#ED1F24" stroke-width="0.25"/>
    <line x1="133.0037841796875" y1="174.00575256347656" x2="130.35055541992188" y2="165.1993408203125" fill="none" stroke="#ED1F24" stroke-width="0.25"/>
    <line x1="133.0037841796875" y1="174.00575256347656" x2="130.35055541992188" y2="165.1993408203125" fill="none" stroke="#ED1F24" stroke-width="0.25"/>
    <line x1="59.747127532958984" y1="178.7927703857422" x2="54.83332824707031" y2="169.2633514404297" fill="none" stroke="#ED1F24" stroke-width="0.25"/>
    <line x1="145.92013549804688" y1="181.23812866210938" x2="143.41346740722656" y2="172.40203857421875" fill="none" stroke="#ED1F24" stroke-width="0.25"/>
    <line x1="119.06092834472656" y1="182.2768096923828" x2="116.0281982421875" y2="173.44622802734375" fill="none" stroke="#ED1F24" stroke-width="0.25"/>
    <line x1="126.93399047851562" y1="185.80911254882812" x2="124.44597625732422" y2="177.0749053955078" fill="none" stroke="#ED1F24" stroke-width="0.25"/>
    <line x1="84.44888305664062" y1="187.24745178222656" x2="80.74801635742188" y2="178.01441955566406" fill="none" stroke="#ED1F24" stroke-width="0.25"/>
    <line x1="68.2457504272461" y1="188.52943420410156" x2="63.185768127441406" y2="179.0451202392578" fill="none" stroke="#ED1F24" stroke-width="0.25"/>
    <line x1="140.1008758544922" y1="189.20074462890625" x2="137.86151123046875" y2="180.47869873046875" fill="none" stroke="#ED1F24" stroke-width="0.25"/>
    <line x1="117.72203826904297" y1="195.4333953857422" x2="114.82305908203125" y2="186.62522888183594" fill="none" stroke="#ED1F24" stroke-width="0.25"/>
    <line x1="117.72203826904297" y1="195.4333953857422" x2="114.82305908203125" y2="186.62522888183594" fill="none" stroke="#ED1F24" stroke-width="0.25"/>
    <line x1="204.5806427001953" y1="202.46206665039062" x2="203.73208618164062" y2="194.65773010253906" fill="none" stroke="#ED1F24" stroke-width="0.25"/>
    <line x1="235.4071807861328" y1="203.90460205078125" x2="234.8261260986328" y2="196.1426544189453" fill="none" stroke="#ED1F24" stroke-width="0.25"/>
    <line x1="231.09783935546875" y1="206.3247528076172" x2="230.2995147705078" y2="198.403076171875" fill="none" stroke="#ED1F24" stroke-width="0.25"/>
    <line x1="231.09783935546875" y1="206.3247528076172" x2="230.2995147705078" y2="198.403076171875" fill="none" stroke="#ED1F24" stroke-width="0.25"/>
    <line x1="51.51637649536133" y1="207.2028350830078" x2="46.45004653930664" y2="197.83705139160156" fill="none" stroke="#ED1F24" stroke-width="0.25"/>
    <line x1="165.99520874023438" y1="207.56826782226562" x2="164.5303955078125" y2="199.3070526123047" fill="none" stroke="#ED1F24" stroke-width="0.25"/>
    <line x1="160.22740173339844" y1="208.27944946289062" x2="159.05142211914062" y2="200.0742645263672" fill="none" stroke="#ED1F24" stroke-width="0.25"/>
    <line x1="163.8646697998047" y1="215.50323486328125" x2="162.4004669189453" y2="207.05686950683594" fill="none" stroke="#ED1F24" stroke-width="0.25"/>
    <line x1="257.7152099609375" y1="216.77835083007812" x2="257.2178955078125" y2="209.1737823486328" fill="none" stroke="#ED1F24" stroke-width="0.25"/>
    <line x1="159.4389190673828" y1="223.26730346679688" x2="157.67408752441406" y2="214.42703247070312" fill="none" stroke="#ED1F24" stroke-width="0.25"/>
    <line x1="257.8656921386719" y1="223.6285858154297" x2="257.7410888671875" y2="216.0074462890625" fill="none" stroke="#ED1F24" stroke-width="0.25"/>
    <line x1="181.57119750976562" y1="224.27960205078125" x2="180.73663330078125" y2="215.9534454345703" fill="none" stroke="#ED1F24" stroke-width="0.25"/>
    <line x1="175.92076110839844" y1="224.89093017578125" x2="174.95767211914062" y2="216.52891540527344" fill="none" stroke="#ED1F24" stroke-width="0.25"/>
    <line x1="225.21986389160156" y1="228.46414184570312" x2="224.83355712890625" y2="220.4381561279297" fill="none" stroke="#ED1F24" stroke-width="0.25"/>
    <line x1="181.28366088867188" y1="228.7011260986328" x2="180.55972290039062" y2="220.5857391357422" fill="none" stroke="#ED1F24" stroke-width="0.25"/>
    <line x1="163.8175506591797" y1="231.44903564453125" x2="162.4176025390625" y2="223.0535430908203" fill="none" stroke="#ED1F24" stroke-width="0.25"/>
    <line x1="183.26263427734375" y1="233.55641174316406" x2="182.20094299316406" y2="225.34632873535156" fill="none" stroke="#ED1F24" stroke-width="0.25"/>
    <line x1="193.97743225097656" y1="234.76121520996094" x2="192.9934539794922" y2="226.54205322265625" fill="none" stroke="#ED1F24" stroke-width="0.25"/>
    <line x1="288.9604187011719" y1="244.2008056640625" x2="288.76116943359375" y2="236.72877502441406" fill="none" stroke="#ED1F24" stroke-width="0.25"/>
    <line x1="37.66768264770508" y1="249.857421875" x2="32.57249450683594" y2="240.56161499023438" fill="none" stroke="#ED1F24" stroke-width="0.25"/>
    <line x1="958.1583251953125" y1="411.7252197265625" x2="959.0664672851562" y2="403.1029052734375" fill="none" stroke="#ED1F24" stroke-width="0.25"/>
    <line x1="50.66976547241211" y1="168.85121154785156" x2="44.96940994262695" y2="158.9942169189453" fill="none" stroke="#ED1F24" stroke-width="0.25"/>
    <line x1="69.00626373291016" y1="169.4659423828125" x2="64.07572174072266" y2="159.4163818359375" fill="none" stroke="#ED1F24" stroke-width="0.25"/>
    <line x1="113.98845672607422" y1="176.18063354492188" x2="110.84515380859375" y2="167.83309936523438" fill="none" stroke="#ED1F24" stroke-width="0.25"/>
    <line x1="20.617881774902344" y1="177.71127319335938" x2="13.862494468688965" y2="167.56631469726562" fill="none" stroke="#ED1F24" stroke-width="0.25"/>
    <line x1="57.273529052734375" y1="177.68612670898438" x2="52.310733795166016" y2="168.1374969482422" fill="none" stroke="#ED1F24" stroke-width="0.25"/>
    <line x1="151.78091430664062" y1="181.23770141601562" x2="149.3947296142578" y2="172.6221160888672" fill="none" stroke="#ED1F24" stroke-width="0.25"/>
    <line x1="149.89732360839844" y1="181.46104431152344" x2="147.60203552246094" y2="172.60877990722656" fill="none" stroke="#ED1F24" stroke-width="0.25"/>
    <line x1="81.28821563720703" y1="183.78814697265625" x2="77.42900085449219" y2="174.25816345214844" fill="none" stroke="#ED1F24" stroke-width="0.25"/>
    <line x1="82.33600616455078" y1="186.44424438476562" x2="78.51632690429688" y2="177.07763671875" fill="none" stroke="#ED1F24" stroke-width="0.25"/>
    <line x1="82.33600616455078" y1="186.44424438476562" x2="78.51632690429688" y2="177.07763671875" fill="none" stroke="#ED1F24" stroke-width="0.25"/>
    <line x1="87.75090026855469" y1="189.2435760498047" x2="84.2831039428711" y2="179.960205078125" fill="none" stroke="#ED1F24" stroke-width="0.25"/>
    <line x1="96.29076385498047" y1="189.85496520996094" x2="92.9300765991211" y2="180.83169555664062" fill="none" stroke="#ED1F24" stroke-width="0.25"/>
    <line x1="103.30992889404297" y1="190.05557250976562" x2="100.03628540039062" y2="181.05813598632812" fill="none" stroke="#ED1F24" stroke-width="0.25"/>
    <line x1="121.72176361083984" y1="196.23257446289062" x2="119.20314025878906" y2="187.46705627441406" fill="none" stroke="#ED1F24" stroke-width="0.25"/>
    <line x1="214.3290557861328" y1="201.47760009765625" x2="213.54714965820312" y2="193.74493408203125" fill="none" stroke="#ED1F24" stroke-width="0.25"/>
    <line x1="228.86233520507812" y1="202.33529663085938" x2="228.27056884765625" y2="194.64683532714844" fill="none" stroke="#ED1F24" stroke-width="0.25"/>
    <line x1="165.2572479248047" y1="204.31195068359375" x2="163.6916961669922" y2="195.9892120361328" fill="none" stroke="#ED1F24" stroke-width="0.25"/>
    <line x1="161.8241729736328" y1="204.7459259033203" x2="160.5133514404297" y2="196.64923095703125" fill="none" stroke="#ED1F24" stroke-width="0.25"/>
    <line x1="231.61903381347656" y1="204.84323120117188" x2="231.18179321289062" y2="197.05239868164062" fill="none" stroke="#ED1F24" stroke-width="0.25"/>
    <line x1="194.17025756835938" y1="205.34666442871094" x2="193.00234985351562" y2="197.42068481445312" fill="none" stroke="#ED1F24" stroke-width="0.25"/>
    <line x1="194.17025756835938" y1="205.34666442871094" x2="193.00234985351562" y2="197.42068481445312" fill="none" stroke="#ED1F24" stroke-width="0.25"/>
    <line x1="215.51336669921875" y1="212.47781372070312" x2="214.96836853027344" y2="204.5115966796875" fill="none" stroke="#ED1F24" stroke-width="0.25"/>
    <line x1="222.76651000976562" y1="212.54006958007812" x2="222.03697204589844" y2="204.6204376220703" fill="none" stroke="#ED1F24" stroke-width="0.25"/>
    <line x1="126.11724853515625" y1="213.81439208984375" x2="123.84773254394531" y2="204.72515869140625" fill="none" stroke="#ED1F24" stroke-width="0.25"/>
    <line x1="239.99351501464844" y1="213.8774871826172" x2="239.53933715820312" y2="206.0460662841797" fill="none" stroke="#ED1F24" stroke-width="0.25"/>
    <line x1="220.15933227539062" y1="215.60153198242188" x2="219.3018341064453" y2="207.79263305664062" fill="none" stroke="#ED1F24" stroke-width="0.25"/>
    <line x1="159.17462158203125" y1="215.99664306640625" x2="157.9971466064453" y2="207.42474365234375" fill="none" stroke="#ED1F24" stroke-width="0.25"/>
    <line x1="159.17462158203125" y1="215.99664306640625" x2="157.9971466064453" y2="207.42474365234375" fill="none" stroke="#ED1F24" stroke-width="0.25"/>
    <line x1="163.1055450439453" y1="217.0448760986328" x2="161.67803955078125" y2="208.5945587158203" fill="none" stroke="#ED1F24" stroke-width="0.25"/>
    <line x1="176.56800842285156" y1="217.51065063476562" x2="175.56101989746094" y2="209.1781768798828" fill="none" stroke="#ED1F24" stroke-width="0.25"/>
    <line x1="223.69224548339844" y1="218.01907348632812" x2="222.96701049804688" y2="210.05178833007812" fill="none" stroke="#ED1F24" stroke-width="0.25"/>
    <line x1="220.32052612304688" y1="218.58070373535156" x2="219.40997314453125" y2="210.5297088623047" fill="none" stroke="#ED1F24" stroke-width="0.25"/>
    <line x1="207.89122009277344" y1="218.96664428710938" x2="207.3582305908203" y2="210.84689331054688" fill="none" stroke="#ED1F24" stroke-width="0.25"/>
    <line x1="286.0310363769531" y1="220.82260131835938" x2="285.4468078613281" y2="213.01763916015625" fill="none" stroke="#ED1F24" stroke-width="0.25"/>
    <line x1="288.7651672363281" y1="221.2187957763672" x2="288.2857666015625" y2="213.89418029785156" fill="none" stroke="#ED1F24" stroke-width="0.25"/>
    <line x1="101.46794128417969" y1="221.94012451171875" x2="98.63672637939453" y2="213.03366088867188" fill="none" stroke="#ED1F24" stroke-width="0.25"/>
    <line x1="151.91697692871094" y1="222.27655029296875" x2="150.3026580810547" y2="213.4612579345703" fill="none" stroke="#ED1F24" stroke-width="0.25"/>
    <line x1="192.2874298095703" y1="223.65187072753906" x2="191.48565673828125" y2="215.4989013671875" fill="none" stroke="#ED1F24" stroke-width="0.25"/>
    <line x1="171.6842803955078" y1="225.9842071533203" x2="170.6522216796875" y2="217.71356201171875" fill="none" stroke="#ED1F24" stroke-width="0.25"/>
    <line x1="190.52658081054688" y1="227.82235717773438" x2="189.57516479492188" y2="219.7322998046875" fill="none" stroke="#ED1F24" stroke-width="0.25"/>
    <line x1="221.95159912109375" y1="228.53744506835938" x2="221.60118103027344" y2="220.55076599121094" fill="none" stroke="#ED1F24" stroke-width="0.25"/>
    <line x1="207.25177001953125" y1="230.7707061767578" x2="206.7520751953125" y2="222.68386840820312" fill="none" stroke="#ED1F24" stroke-width="0.25"/>
    <line x1="250.4750518798828" y1="231.92037963867188" x2="250.7951202392578" y2="224.2220916748047" fill="none" stroke="#ED1F24" stroke-width="0.25"/>
    <line x1="275.8409729003906" y1="233.55751037597656" x2="275.7754821777344" y2="226.01541137695312" fill="none" stroke="#ED1F24" stroke-width="0.25"/>
    <line x1="292.0283508300781" y1="235.32064819335938" x2="291.7650451660156" y2="227.8218994140625" fill="none" stroke="#ED1F24" stroke-width="0.25"/>
    <line x1="199.58322143554688" y1="237.456787109375" x2="198.8495330810547" y2="229.2515869140625" fill="none" stroke="#ED1F24" stroke-width="0.25"/>
    <line x1="16.578372955322266" y1="240.1802978515625" x2="10.764613151550293" y2="230.69256591796875" fill="none" stroke="#ED1F24" stroke-width="0.25"/>
    <line x1="279.6220703125" y1="240.48159790039062" x2="279.5937805175781" y2="232.34230041503906" fill="none" stroke="#ED1F24" stroke-width="0.25"/>
    <line x1="284.9081726074219" y1="241.70596313476562" x2="284.90069580078125" y2="234.52076721191406" fill="none" stroke="#ED1F24" stroke-width="0.25"/>
    <line x1="229.44053649902344" y1="242.65957641601562" x2="229.3974151611328" y2="234.5732421875" fill="none" stroke="#ED1F24" stroke-width="0.25"/>
    <line x1="255.70767211914062" y1="243.20541381835938" x2="255.5678253173828" y2="235.20843505859375" fill="none" stroke="#ED1F24" stroke-width="0.25"/>
    <line x1="253.28492736816406" y1="244.78126525878906" x2="253.23785400390625" y2="236.81248474121094" fill="none" stroke="#ED1F24" stroke-width="0.25"/>
    <line x1="930.4869384765625" y1="339.8478088378906" x2="929.1006469726562" y2="331.7220764160156" fill="none" stroke="#ED1F24" stroke-width="0.25"/>
    <line x1="690.4598388671875" y1="527.046875" x2="687.2078247070312" y2="514.2297973632812" fill="none" stroke="#ED1F24" stroke-width="0.25"/>
    <line x1="37.206626892089844" y1="167.46957397460938" x2="31.358308792114258" y2="157.60015869140625" fill="none" stroke="#ED1F24" stroke-width="0.25"/>
    <line x1="64.49898529052734" y1="176.6615753173828" x2="59.60328674316406" y2="167.17294311523438" fill="none" stroke="#ED1F24" stroke-width="0.25"/>
    <line x1="123.8309326171875" y1="179.97874450683594" x2="120.94512176513672" y2="171.1636962890625" fill="none" stroke="#ED1F24" stroke-width="0.25"/>
    <line x1="123.8309326171875" y1="179.97874450683594" x2="120.94512176513672" y2="171.1636962890625" fill="none" stroke="#ED1F24" stroke-width="0.25"/>
    <line x1="119.79401397705078" y1="180.75428771972656" x2="116.96282958984375" y2="171.8771209716797" fill="none" stroke="#ED1F24" stroke-width="0.25"/>
    <line x1="62.9284782409668" y1="180.97866821289062" x2="58.245548248291016" y2="171.5680694580078" fill="none" stroke="#ED1F24" stroke-width="0.25"/>
    <line x1="135.4462890625" y1="183.46926879882812" x2="132.8072052001953" y2="174.5159912109375" fill="none" stroke="#ED1F24" stroke-width="0.25"/>
    <line x1="55.76887130737305" y1="183.6603240966797" x2="50.748802185058594" y2="174.0324249267578" fill="none" stroke="#ED1F24" stroke-width="0.25"/>
    <line x1="64.40760040283203" y1="188.22164916992188" x2="59.483943939208984" y2="178.8153076171875" fill="none" stroke="#ED1F24" stroke-width="0.25"/>
    <line x1="64.40760040283203" y1="188.22164916992188" x2="59.483943939208984" y2="178.8153076171875" fill="none" stroke="#ED1F24" stroke-width="0.25"/>
    <line x1="115.84187316894531" y1="191.80123901367188" x2="112.76451110839844" y2="182.82777404785156" fill="none" stroke="#ED1F24" stroke-width="0.25"/>
    <line x1="159.9238739013672" y1="202.74874877929688" x2="158.45130920410156" y2="194.21212768554688" fill="none" stroke="#ED1F24" stroke-width="0.25"/>
    <line x1="75.97309112548828" y1="205.11349487304688" x2="71.55298614501953" y2="195.5409698486328" fill="none" stroke="#ED1F24" stroke-width="0.25"/>
    <line x1="216.51646423339844" y1="207.78163146972656" x2="215.7643585205078" y2="199.92437744140625" fill="none" stroke="#ED1F24" stroke-width="0.25"/>
    <line x1="179.8797149658203" y1="208.58102416992188" x2="178.32728576660156" y2="200.0314483642578" fill="none" stroke="#ED1F24" stroke-width="0.25"/>
    <line x1="84.34563446044922" y1="209.9965057373047" x2="80.80620574951172" y2="200.7843780517578" fill="none" stroke="#ED1F24" stroke-width="0.25"/>
    <line x1="211.6937255859375" y1="212.5551300048828" x2="211.32154846191406" y2="204.4962158203125" fill="none" stroke="#ED1F24" stroke-width="0.25"/>
    <line x1="223.50704956054688" y1="214.50389099121094" x2="222.52957153320312" y2="206.47988891601562" fill="none" stroke="#ED1F24" stroke-width="0.25"/>
    <line x1="102.87750244140625" y1="214.99337768554688" x2="100.25076293945312" y2="205.93748474121094" fill="none" stroke="#ED1F24" stroke-width="0.25"/>
    <line x1="176.3486328125" y1="215.18051147460938" x2="175.24026489257812" y2="206.91305541992188" fill="none" stroke="#ED1F24" stroke-width="0.25"/>
    <line x1="19.39858055114746" y1="216.11424255371094" x2="12.80346965789795" y2="206.2762451171875" fill="none" stroke="#ED1F24" stroke-width="0.25"/>
    <line x1="248.86331176757812" y1="222.32945251464844" x2="248.558837890625" y2="214.79342651367188" fill="none" stroke="#ED1F24" stroke-width="0.25"/>
    <line x1="249.0880126953125" y1="224.76882934570312" x2="248.97666931152344" y2="217.1676788330078" fill="none" stroke="#ED1F24" stroke-width="0.25"/>
    <line x1="35.259361267089844" y1="226.05018615722656" x2="30.167699813842773" y2="216.3300018310547" fill="none" stroke="#ED1F24" stroke-width="0.25"/>
    <line x1="299.8983459472656" y1="228.14854431152344" x2="300.09320068359375" y2="220.64866638183594" fill="none" stroke="#ED1F24" stroke-width="0.25"/>
    <line x1="168.32159423828125" y1="228.95648193359375" x2="167.59532165527344" y2="220.82098388671875" fill="none" stroke="#ED1F24" stroke-width="0.25"/>
    <line x1="259.1841125488281" y1="229.45767211914062" x2="260.3420715332031" y2="222.1923828125" fill="none" stroke="#ED1F24" stroke-width="0.25"/>
    <line x1="219.8438720703125" y1="235.2547149658203" x2="219.43675231933594" y2="227.26898193359375" fill="none" stroke="#ED1F24" stroke-width="0.25"/>
    <line x1="277.4905090332031" y1="236.852783203125" x2="277.25537109375" y2="229.0408935546875" fill="none" stroke="#ED1F24" stroke-width="0.25"/>
    <line x1="285.9911804199219" y1="238.8363494873047" x2="285.9671325683594" y2="231.42884826660156" fill="none" stroke="#ED1F24" stroke-width="0.25"/>
    <line x1="287.36639404296875" y1="241.66900634765625" x2="287.3461608886719" y2="234.33010864257812" fill="none" stroke="#ED1F24" stroke-width="0.25"/>
    <line x1="827.4501342773438" y1="323.16455078125" x2="822.7823486328125" y2="314.454345703125" fill="none" stroke="#ED1F24" stroke-width="0.25"/>
    <line x1="783.51025390625" y1="342.11639404296875" x2="778.305908203125" y2="333.2096862792969" fill="none" stroke="#ED1F24" stroke-width="0.25"/>
    <line x1="808.0806274414062" y1="348.017822265625" x2="803.2474975585938" y2="339.7389831542969" fill="none" stroke="#ED1F24" stroke-width="0.25"/>
    <line x1="863.1565551757812" y1="422.3895568847656" x2="860.148193359375" y2="412.6710205078125" fill="none" stroke="#ED1F24" stroke-width="0.25"/>
    <line x1="869.4225463867188" y1="491.2420654296875" x2="867.9481201171875" y2="480.4800109863281" fill="none" stroke="#ED1F24" stroke-width="0.25"/>
    <line x1="689.6871948242188" y1="528.9354248046875" x2="686.0449829101562" y2="516.5275268554688" fill="none" stroke="#ED1F24" stroke-width="0.25"/>
    <line x1="689.82177734375" y1="541.5101928710938" x2="686.8408203125" y2="528.1708374023438" fill="none" stroke="#ED1F24" stroke-width="0.25"/>
    <line x1="44.6475944519043" y1="168.6515655517578" x2="39.01243209838867" y2="158.90394592285156" fill="none" stroke="#ED1F24" stroke-width="0.25"/>
    <line x1="56.94319534301758" y1="173.4856414794922" x2="51.8727912902832" y2="163.79437255859375" fill="none" stroke="#ED1F24" stroke-width="0.25"/>
    <line x1="61.81462478637695" y1="177.4438934326172" x2="56.8895149230957" y2="167.68618774414062" fill="none" stroke="#ED1F24" stroke-width="0.25"/>
    <line x1="98.8907699584961" y1="180.79061889648438" x2="94.70353698730469" y2="172.06808471679688" fill="none" stroke="#ED1F24" stroke-width="0.25"/>
    <line x1="28.155855178833008" y1="182.29579162597656" x2="22.34498405456543" y2="172.330810546875" fill="none" stroke="#ED1F24" stroke-width="0.25"/>
    <line x1="124.46796417236328" y1="182.7190399169922" x2="121.85649871826172" y2="174.03750610351562" fill="none" stroke="#ED1F24" stroke-width="0.25"/>
    <line x1="52.64097213745117" y1="184.30123901367188" x2="47.407386779785156" y2="174.59454345703125" fill="none" stroke="#ED1F24" stroke-width="0.25"/>
    <line x1="35.05682373046875" y1="184.86953735351562" x2="28.75177574157715" y2="174.8961181640625" fill="none" stroke="#ED1F24" stroke-width="0.25"/>
    <line x1="58.83376693725586" y1="185.07872009277344" x2="53.9112663269043" y2="175.56988525390625" fill="none" stroke="#ED1F24" stroke-width="0.25"/>
    <line x1="111.15778350830078" y1="185.8704376220703" x2="108.42292785644531" y2="176.63546752929688" fill="none" stroke="#ED1F24" stroke-width="0.25"/>
    <line x1="87.29841613769531" y1="186.9696807861328" x2="83.67083740234375" y2="177.8256072998047" fill="none" stroke="#ED1F24" stroke-width="0.25"/>
    <line x1="113.60388946533203" y1="189.9591827392578" x2="110.57776641845703" y2="181.0667266845703" fill="none" stroke="#ED1F24" stroke-width="0.25"/>
    <line x1="113.60388946533203" y1="189.9591827392578" x2="110.57776641845703" y2="181.0667266845703" fill="none" stroke="#ED1F24" stroke-width="0.25"/>
    <line x1="123.7383804321289" y1="200.22195434570312" x2="121.40242767333984" y2="191.50880432128906" fill="none" stroke="#ED1F24" stroke-width="0.25"/>
    <line x1="46.36587905883789" y1="202.56976318359375" x2="42.37993240356445" y2="192.91653442382812" fill="none" stroke="#ED1F24" stroke-width="0.25"/>
    <line x1="205.03187561035156" y1="206.00502014160156" x2="204.45132446289062" y2="197.92320251464844" fill="none" stroke="#ED1F24" stroke-width="0.25"/>
    <line x1="120.79385375976562" y1="212.0302276611328" x2="118.22911071777344" y2="203.08154296875" fill="none" stroke="#ED1F24" stroke-width="0.25"/>
    <line x1="219.4639434814453" y1="213.4919891357422" x2="219.01473999023438" y2="205.62046813964844" fill="none" stroke="#ED1F24" stroke-width="0.25"/>
    <line x1="174.939697265625" y1="220.1786346435547" x2="173.94140625" y2="212.0281524658203" fill="none" stroke="#ED1F24" stroke-width="0.25"/>
    <line x1="174.939697265625" y1="220.1786346435547" x2="173.94140625" y2="212.0281524658203" fill="none" stroke="#ED1F24" stroke-width="0.25"/>
    <line x1="157.26316833496094" y1="222.62599182128906" x2="155.65921020507812" y2="213.83580017089844" fill="none" stroke="#ED1F24" stroke-width="0.25"/>
    <line x1="260.3180236816406" y1="225.12188720703125" x2="259.86346435546875" y2="217.61265563964844" fill="none" stroke="#ED1F24" stroke-width="0.25"/>
    <line x1="11.41314697265625" y1="225.28228759765625" x2="5.557662010192871" y2="215.390869140625" fill="none" stroke="#ED1F24" stroke-width="0.25"/>
    <line x1="173.20176696777344" y1="228.19149780273438" x2="171.8544464111328" y2="219.94529724121094" fill="none" stroke="#ED1F24" stroke-width="0.25"/>
    <line x1="180.87522888183594" y1="232.1191864013672" x2="179.89242553710938" y2="224.01248168945312" fill="none" stroke="#ED1F24" stroke-width="0.25"/>
    <line x1="294.0262145996094" y1="236.64727783203125" x2="293.88519287109375" y2="229.1940460205078" fill="none" stroke="#ED1F24" stroke-width="0.25"/>
    <line x1="333.3012390136719" y1="238.95436096191406" x2="333.0317077636719" y2="231.33065795898438" fill="none" stroke="#ED1F24" stroke-width="0.25"/>
    <line x1="258.59051513671875" y1="240.91879272460938" x2="258.5218505859375" y2="233.39114379882812" fill="none" stroke="#ED1F24" stroke-width="0.25"/>
    <line x1="777.1290283203125" y1="346.6242370605469" x2="772.333740234375" y2="338.2322998046875" fill="none" stroke="#ED1F24" stroke-width="0.25"/>
    <line x1="584.5579223632812" y1="440.4451904296875" x2="580.0872192382812" y2="428.5018615722656" fill="none" stroke="#ED1F24" stroke-width="0.25"/>
    <line x1="561.121826171875" y1="453.21435546875" x2="557.26220703125" y2="440.3526306152344" fill="none" stroke="#ED1F24" stroke-width="0.25"/>
    <line x1="907.4935302734375" y1="476.2976989746094" x2="908.4713134765625" y2="467.1703796386719" fill="none" stroke="#ED1F24" stroke-width="0.25"/>
    <line x1="685.0220336914062" y1="538.6218872070312" x2="681.5592651367188" y2="525.8452758789062" fill="none" stroke="#ED1F24" stroke-width="0.25"/>
    <line x1="47.70759582519531" y1="160.27049255371094" x2="42.21995162963867" y2="150.6789093017578" fill="none" stroke="#ED1F24" stroke-width="0.25"/>
    <line x1="114.26863861083984" y1="173.28611755371094" x2="111.06768798828125" y2="164.47842407226562" fill="none" stroke="#ED1F24" stroke-width="0.25"/>
    <line x1="12.593661308288574" y1="176.9480743408203" x2="5.310806751251221" y2="166.47923278808594" fill="none" stroke="#ED1F24" stroke-width="0.25"/>
    <line x1="121.4774169921875" y1="177.39173889160156" x2="118.49639129638672" y2="168.66357421875" fill="none" stroke="#ED1F24" stroke-width="0.25"/>
    <line x1="121.4774169921875" y1="177.39173889160156" x2="118.49639129638672" y2="168.66357421875" fill="none" stroke="#ED1F24" stroke-width="0.25"/>
    <line x1="13.199884414672852" y1="180.4805450439453" x2="6.996222019195557" y2="170.17820739746094" fill="none" stroke="#ED1F24" stroke-width="0.25"/>
    <line x1="93.83243560791016" y1="187.84963989257812" x2="90.5223617553711" y2="178.76925659179688" fill="none" stroke="#ED1F24" stroke-width="0.25"/>
    <line x1="168.3510284423828" y1="200.33567810058594" x2="166.33740234375" y2="192.36502075195312" fill="none" stroke="#ED1F24" stroke-width="0.25"/>
    <line x1="78.00985717773438" y1="202.45762634277344" x2="72.86090087890625" y2="192.8380889892578" fill="none" stroke="#ED1F24" stroke-width="0.25"/>
    <line x1="177.46617126464844" y1="206.2623291015625" x2="175.73345947265625" y2="197.8749237060547" fill="none" stroke="#ED1F24" stroke-width="0.25"/>
    <line x1="191.90884399414062" y1="207.14898681640625" x2="190.64039611816406" y2="198.97824096679688" fill="none" stroke="#ED1F24" stroke-width="0.25"/>
    <line x1="153.49777221679688" y1="218.7281036376953" x2="152.10009765625" y2="210.33407592773438" fill="none" stroke="#ED1F24" stroke-width="0.25"/>
    <line x1="238.8761444091797" y1="221.033447265625" x2="238.8610076904297" y2="213.19412231445312" fill="none" stroke="#ED1F24" stroke-width="0.25"/>
    <line x1="185.5199737548828" y1="225.08160400390625" x2="184.91346740722656" y2="216.7966766357422" fill="none" stroke="#ED1F24" stroke-width="0.25"/>
    <line x1="30.50452995300293" y1="225.8119659423828" x2="25.38504409790039" y2="216.31036376953125" fill="none" stroke="#ED1F24" stroke-width="0.25"/>
    <line x1="243.4354248046875" y1="229.86264038085938" x2="243.38340759277344" y2="222.1871795654297" fill="none" stroke="#ED1F24" stroke-width="0.25"/>
    <line x1="265.16973876953125" y1="232.08724975585938" x2="265.16888427734375" y2="224.66575622558594" fill="none" stroke="#ED1F24" stroke-width="0.25"/>
    <line x1="217.51287841796875" y1="233.4209747314453" x2="216.99713134765625" y2="225.25267028808594" fill="none" stroke="#ED1F24" stroke-width="0.25"/>
    <line x1="919.2855224609375" y1="336.9790344238281" x2="917.50537109375" y2="328.6498107910156" fill="none" stroke="#ED1F24" stroke-width="0.25"/>
    <line x1="887.64892578125" y1="500.3468933105469" x2="887.1122436523438" y2="490.2477111816406" fill="none" stroke="#ED1F24" stroke-width="0.25"/>
    <line x1="66.5468978881836" y1="182.2117919921875" x2="62.479736328125" y2="172.68658447265625" fill="none" stroke="#ED1F24" stroke-width="0.25"/>
    <line x1="119.6375732421875" y1="193.9550018310547" x2="117.25992584228516" y2="185.47628784179688" fill="none" stroke="#ED1F24" stroke-width="0.25"/>
    <line x1="126.00458526611328" y1="202.4481658935547" x2="124.5484619140625" y2="193.67904663085938" fill="none" stroke="#ED1F24" stroke-width="0.25"/>
    <line x1="168.89523315429688" y1="204.39720153808594" x2="167.7827606201172" y2="196.3105926513672" fill="none" stroke="#ED1F24" stroke-width="0.25"/>
    <line x1="178.106201171875" y1="223.04168701171875" x2="177.29119873046875" y2="214.86924743652344" fill="none" stroke="#ED1F24" stroke-width="0.25"/>
    <line x1="224.96482849121094" y1="226.2327423095703" x2="225.10577392578125" y2="218.06610107421875" fill="none" stroke="#ED1F24" stroke-width="0.25"/>
    <line x1="201.62815856933594" y1="231.53501892089844" x2="201.30174255371094" y2="223.7106475830078" fill="none" stroke="#ED1F24" stroke-width="0.25"/>
    <line x1="151.39166259765625" y1="233.00743103027344" x2="149.56883239746094" y2="225.15444946289062" fill="none" stroke="#ED1F24" stroke-width="0.25"/>
    <line x1="725.0258178710938" y1="313.5493469238281" x2="719.6126708984375" y2="305.4660339355469" fill="none" stroke="#ED1F24" stroke-width="0.25"/>
    <line x1="750.6688232421875" y1="316.5794982910156" x2="745.5256958007812" y2="308.34100341796875" fill="none" stroke="#ED1F24" stroke-width="0.25"/>
    <line x1="901.1554565429688" y1="337.381103515625" x2="899.7974243164062" y2="329.16741943359375" fill="none" stroke="#ED1F24" stroke-width="0.25"/>
    <line x1="773.6661987304688" y1="343.604248046875" x2="768.2275390625" y2="335.1763000488281" fill="none" stroke="#ED1F24" stroke-width="0.25"/>
    <line x1="810.7593383789062" y1="375.34515380859375" x2="805.8775024414062" y2="366.3498229980469" fill="none" stroke="#ED1F24" stroke-width="0.25"/>
    <line x1="578.2634887695312" y1="445.5587463378906" x2="574.1495971679688" y2="433.7965087890625" fill="none" stroke="#ED1F24" stroke-width="0.25"/>
    <line x1="587.8971557617188" y1="449.9478454589844" x2="583.8617553710938" y2="438.1590881347656" fill="none" stroke="#ED1F24" stroke-width="0.25"/>
    <line x1="858.8939208984375" y1="479.61944580078125" x2="857.1578369140625" y2="470.414794921875" fill="none" stroke="#ED1F24" stroke-width="0.25"/>
    <line x1="746.3231201171875" y1="500.1687927246094" x2="741.7280883789062" y2="489.57684326171875" fill="none" stroke="#ED1F24" stroke-width="0.25"/>
    <line x1="493.55450439453125" y1="572.7182006835938" x2="492.4662780761719" y2="558.8823852539062" fill="none" stroke="#ED1F24" stroke-width="0.25"/>
    <line x1="99.7437973022461" y1="185.0900421142578" x2="97.6877212524414" y2="175.89613342285156" fill="none" stroke="#ED1F24" stroke-width="0.25"/>
    <line x1="284.2030944824219" y1="234.8690643310547" x2="283.93994140625" y2="227.46524047851562" fill="none" stroke="#ED1F24" stroke-width="0.25"/>
    <line x1="285.08154296875" y1="245.1126708984375" x2="285.7583312988281" y2="237.55638122558594" fill="none" stroke="#ED1F24" stroke-width="0.25"/>
    <line x1="296.48504638671875" y1="244.98391723632812" x2="295.0475769042969" y2="237.72532653808594" fill="none" stroke="#ED1F24" stroke-width="0.25"/>
    <line x1="804.7238159179688" y1="341.2041015625" x2="800.2307739257812" y2="333.1081848144531" fill="none" stroke="#ED1F24" stroke-width="0.25"/>
    <line x1="823.4458618164062" y1="351.87921142578125" x2="819.2305908203125" y2="343.2369689941406" fill="none" stroke="#ED1F24" stroke-width="0.25"/>
    <line x1="947.3973388671875" y1="353.0339660644531" x2="947.308349609375" y2="344.1284484863281" fill="none" stroke="#ED1F24" stroke-width="0.25"/>
    <line x1="755.3432006835938" y1="503.2981872558594" x2="751.9920043945312" y2="490.9197082519531" fill="none" stroke="#ED1F24" stroke-width="0.25"/>
    <line x1="638.000732421875" y1="536.7371215820312" x2="634.7716674804688" y2="523.559326171875" fill="none" stroke="#ED1F24" stroke-width="0.25"/>
    <line x1="163.78643798828125" y1="213.62123107910156" x2="162.84542846679688" y2="204.81764221191406" fill="none" stroke="#ED1F24" stroke-width="0.25"/>
    <line x1="163.78643798828125" y1="213.62123107910156" x2="162.84542846679688" y2="204.81764221191406" fill="none" stroke="#ED1F24" stroke-width="0.25"/>
    <line x1="188.33078002929688" y1="217.41085815429688" x2="187.947021484375" y2="208.69842529296875" fill="none" stroke="#ED1F24" stroke-width="0.25"/>
    <line x1="239.9310760498047" y1="232.7834930419922" x2="240.5455322265625" y2="224.5937042236328" fill="none" stroke="#ED1F24" stroke-width="0.25"/>
    <line x1="290.75201416015625" y1="239.9351348876953" x2="290.9756774902344" y2="232.80172729492188" fill="none" stroke="#ED1F24" stroke-width="0.25"/>
    <line x1="832.238525390625" y1="355.8492736816406" x2="829.7843627929688" y2="347.2314758300781" fill="none" stroke="#ED1F24" stroke-width="0.25"/>
    <line x1="947.4436645507812" y1="367.60028076171875" x2="946.7515258789062" y2="359.4755859375" fill="none" stroke="#ED1F24" stroke-width="0.25"/>
    <line x1="48.28573226928711" y1="458.62518310546875" x2="43.647891998291016" y2="449.03533935546875" fill="none" stroke="#ED1F24" stroke-width="0.25"/>
    <line x1="940.836669921875" y1="467.48046875" x2="943.0443115234375" y2="459.0575256347656" fill="none" stroke="#ED1F24" stroke-width="0.25"/>
    <line x1="931.9334106445312" y1="468.9917297363281" x2="933.3345336914062" y2="459.8300476074219" fill="none" stroke="#ED1F24" stroke-width="0.25"/>
    <line x1="785.5177612304688" y1="488.85772705078125" x2="782.327880859375" y2="478.0129699707031" fill="none" stroke="#ED1F24" stroke-width="0.25"/>
    <line x1="776.8057861328125" y1="495.5904541015625" x2="773.5911865234375" y2="485.0339660644531" fill="none" stroke="#ED1F24" stroke-width="0.25"/>
    <line x1="43.36695098876953" y1="177.24998474121094" x2="35.67683410644531" y2="166.5717010498047" fill="none" stroke="#ED1F24" stroke-width="0.25"/>
    <line x1="213.4888916015625" y1="222.08023071289062" x2="211.96737670898438" y2="213.7424774169922" fill="none" stroke="#ED1F24" stroke-width="0.25"/>
    <line x1="232.10740661621094" y1="228.82093811035156" x2="230.72402954101562" y2="222.1724090576172" fill="none" stroke="#ED1F24" stroke-width="0.25"/>
    <line x1="276.3632507324219" y1="242.97413635253906" x2="276.8310852050781" y2="235.50006103515625" fill="none" stroke="#ED1F24" stroke-width="0.25"/>
    <line x1="73.71064758300781" y1="299.6249694824219" x2="70.82923126220703" y2="292.9444274902344" fill="none" stroke="#ED1F24" stroke-width="0.25"/>
    <line x1="776.8439331054688" y1="325.1207275390625" x2="772.997802734375" y2="317.1268615722656" fill="none" stroke="#ED1F24" stroke-width="0.25"/>
    <line x1="777.6664428710938" y1="448.7406921386719" x2="771.7901000976562" y2="437.970947265625" fill="none" stroke="#ED1F24" stroke-width="0.25"/>
    <line x1="675.3935546875" y1="477.6795959472656" x2="670.3977661132812" y2="465.719970703125" fill="none" stroke="#ED1F24" stroke-width="0.25"/>
    <line x1="901.9644775390625" y1="477.64788818359375" x2="902.6641845703125" y2="468.1934814453125" fill="none" stroke="#ED1F24" stroke-width="0.25"/>
    <line x1="489.30206298828125" y1="587.3449096679688" x2="487.17938232421875" y2="577.1136474609375" fill="none" stroke="#ED1F24" stroke-width="0.25"/>
    <line x1="56.658973693847656" y1="206.87994384765625" x2="52.93048858642578" y2="197.4374542236328" fill="none" stroke="#ED1F24" stroke-width="0.25"/>
    <line x1="287.082763671875" y1="235.99864196777344" x2="287.6739196777344" y2="229.29884338378906" fill="none" stroke="#ED1F24" stroke-width="0.25"/>
    <line x1="495.34814453125" y1="612.1994018554688" x2="494.2165832519531" y2="598.7188720703125" fill="none" stroke="#ED1F24" stroke-width="0.25"/>
    <line x1="52.618892669677734" y1="194.96243286132812" x2="48.119712829589844" y2="184.93362426757812" fill="none" stroke="#ED1F24" stroke-width="0.25"/>
    <line x1="634.8240966796875" y1="296.4272155761719" x2="632.220703125" y2="290.2095031738281" fill="none" stroke="#ED1F24" stroke-width="0.25"/>
    <line x1="629.9359130859375" y1="406.2530517578125" x2="626.3705444335938" y2="396.1912536621094" fill="none" stroke="#ED1F24" stroke-width="0.25"/>
    <line x1="760.0538330078125" y1="516.8526611328125" x2="753.7258911132812" y2="504.4609680175781" fill="none" stroke="#ED1F24" stroke-width="0.25"/>
    <line x1="542.976318359375" y1="440.0901184082031" x2="540.7140502929688" y2="428.508544921875" fill="none" stroke="#ED1F24" stroke-width="0.25"/>
    <line x1="646.9891967773438" y1="504.70635986328125" x2="643.795166015625" y2="492.80596923828125" fill="none" stroke="#ED1F24" stroke-width="0.25"/>
    <line x1="562.9593505859375" y1="448.4076843261719" x2="559.4342651367188" y2="438.3631286621094" fill="none" stroke="#ED1F24" stroke-width="0.25"/>
    <line x1="497.53118896484375" y1="466.2384948730469" x2="493.8304138183594" y2="456.56195068359375" fill="none" stroke="#ED1F24" stroke-width="0.25"/>
    <line x1="776.070068359375" y1="472.9289245605469" x2="769.1783447265625" y2="460.88421630859375" fill="none" stroke="#ED1F24" stroke-width="0.25"/>
    <line x1="776.070068359375" y1="472.9289245605469" x2="769.1783447265625" y2="460.88421630859375" fill="none" stroke="#ED1F24" stroke-width="0.25"/>
    <line x1="528.056884765625" y1="474.4306335449219" x2="526.6719970703125" y2="461.90728759765625" fill="none" stroke="#ED1F24" stroke-width="0.25"/>
    <line x1="489.5295104980469" y1="534.89111328125" x2="487.7015075683594" y2="519.8045043945312" fill="none" stroke="#ED1F24" stroke-width="0.25"/>
  </g>
</svg>
