<svg xmlns:xlink="http://www.w3.org/1999/xlink" xmlns="http://www.w3.org/2000/svg" x="0px" y="0px" width="972.0px" height="648.0px" viewBox="0 0 972.0 648.0" id="svg">
  <image width="3888.0" height="2592.0" transform="matrix(0.25 0 0 0.25 0 0)" xlink:href="AKJNC_20121001_155719.JPG"/>
  <image width="3888" height="2592" transform="matrix(0.25 0 0 0.25 0 0)" xlink:href="AKJNC_20121001_155719-synth.JPG"/>
  <g id="points-auto">
    <line x1="194.08917236328125" y1="194.6278533935547" x2="197.6237030029297" y2="196.71438598632812" fill="none" stroke="#ED1F24" stroke-width="0.25"/>
    <line x1="841.0070190429688" y1="178.2154998779297" x2="833.885986328125" y2="181.4818878173828" fill="none" stroke="#ED1F24" stroke-width="0.25"/>
    <line x1="548.8612670898438" y1="194.76181030273438" x2="546.8926391601562" y2="198.46804809570312" fill="none" stroke="#ED1F24" stroke-width="0.25"/>
    <line x1="840.0056762695312" y1="179.6835174560547" x2="832.9461669921875" y2="182.75119018554688" fill="none" stroke="#ED1F24" stroke-width="0.25"/>
    <line x1="220.61573791503906" y1="163.31915283203125" x2="222.3402862548828" y2="166.09600830078125" fill="none" stroke="#ED1F24" stroke-width="0.25"/>
    <line x1="301.0472717285156" y1="196.6136474609375" x2="303.4649353027344" y2="199.3550262451172" fill="none" stroke="#ED1F24" stroke-width="0.25"/>
    <line x1="299.2568054199219" y1="201.35797119140625" x2="302.2848815917969" y2="204.28387451171875" fill="none" stroke="#ED1F24" stroke-width="0.25"/>
    <line x1="303.78094482421875" y1="201.70870971679688" x2="306.7345275878906" y2="204.67617797851562" fill="none" stroke="#ED1F24" stroke-width="0.25"/>
    <line x1="271.134033203125" y1="198.73849487304688" x2="274.0030212402344" y2="201.19044494628906" fill="none" stroke="#ED1F24" stroke-width="0.25"/>
    <line x1="779.8832397460938" y1="231.69424438476562" x2="775.0996704101562" y2="234.4794464111328" fill="none" stroke="#ED1F24" stroke-width="0.25"/>
    <line x1="278.2606506347656" y1="199.67056274414062" x2="281.47186279296875" y2="202.2795867919922" fill="none" stroke="#ED1F24" stroke-width="0.25"/>
    <line x1="766.9633178710938" y1="229.0255889892578" x2="761.5618286132812" y2="231.66021728515625" fill="none" stroke="#ED1F24" stroke-width="0.25"/>
    <line x1="285.1441345214844" y1="193.20364379882812" x2="289.9744873046875" y2="195.94972229003906" fill="none" stroke="#ED1F24" stroke-width="0.25"/>
    <line x1="203.34854125976562" y1="184.0352325439453" x2="206.16343688964844" y2="186.41336059570312" fill="none" stroke="#ED1F24" stroke-width="0.25"/>
  </g>
</svg>
