<?xml version="1.0" encoding="utf-8"?>
<!-- Generator: Adobe Illustrator 16.0.4, SVG Export Plug-In . SVG Version: 6.00 Build 0)  -->
<!DOCTYPE svg PUBLIC "-//W3C//DTD SVG 1.1//EN" "http://www.w3.org/Graphics/SVG/1.1/DTD/svg11.dtd">
<svg version="1.1" id="svg" xmlns="http://www.w3.org/2000/svg" xmlns:xlink="http://www.w3.org/1999/xlink" x="0px" y="0px"
	 width="972px" height="648px" viewBox="0 0 972 648" enable-background="new 0 0 972 648" xml:space="preserve">
<image overflow="visible" enable-background="new    " width="3888" height="2592" xlink:href="AKJNC_20120605_223513.JPG"  transform="matrix(0.25 0 0 0.25 0 0)">
</image>
<image overflow="visible" enable-background="new    " width="3888" height="2592" xlink:href="AKJNC_20120605_223513-synth.JPG"  transform="matrix(0.25 0 0 0.25 0 0)">
</image>
<g id="points-auto">
	<line fill="none" stroke="#ED1F24" stroke-width="0.25" x1="569.017" y1="154.749" x2="566.67" y2="152.152"/>
	<line fill="none" stroke="#ED1F24" stroke-width="0.25" x1="190.003" y1="166.77" x2="192.587" y2="168.531"/>
	<line fill="none" stroke="#ED1F24" stroke-width="0.25" x1="163.144" y1="168.221" x2="166.487" y2="170.462"/>
	<line fill="none" stroke="#ED1F24" stroke-width="0.25" x1="308.733" y1="169.394" x2="310.834" y2="170.282"/>
	<line fill="none" stroke="#ED1F24" stroke-width="0.25" x1="700.616" y1="181.529" x2="697.328" y2="176.263"/>
	<line fill="none" stroke="#ED1F24" stroke-width="0.25" x1="469.35" y1="193.908" x2="471.519" y2="192.674"/>
	<line fill="none" stroke="#ED1F24" stroke-width="0.25" x1="226.588" y1="145.126" x2="228.294" y2="146.762"/>
	<line fill="none" stroke="#ED1F24" stroke-width="0.25" x1="226.588" y1="145.126" x2="228.294" y2="146.762"/>
	<line fill="none" stroke="#ED1F24" stroke-width="0.25" x1="224.677" y1="147.31" x2="226.442" y2="149.03"/>
	<line fill="none" stroke="#ED1F24" stroke-width="0.25" x1="159.982" y1="150.156" x2="161.961" y2="152.236"/>
	<line fill="none" stroke="#ED1F24" stroke-width="0.25" x1="221.013" y1="158.894" x2="223.277" y2="160.527"/>
	<line fill="none" stroke="#ED1F24" stroke-width="0.25" x1="299.222" y1="160.174" x2="301.158" y2="161.145"/>
	<line fill="none" stroke="#ED1F24" stroke-width="0.25" x1="222.874" y1="164.737" x2="225.37" y2="166.397"/>
	<line fill="none" stroke="#ED1F24" stroke-width="0.25" x1="7.222" y1="165.387" x2="6.577" y2="168.277"/>
	<line fill="none" stroke="#ED1F24" stroke-width="0.25" x1="227.151" y1="168.626" x2="229.568" y2="170.221"/>
	<line fill="none" stroke="#ED1F24" stroke-width="0.25" x1="585.308" y1="169.742" x2="582.796" y2="166.612"/>
	<line fill="none" stroke="#ED1F24" stroke-width="0.25" x1="135.732" y1="178.931" x2="139.155" y2="181.301"/>
	<line fill="none" stroke="#ED1F24" stroke-width="0.25" x1="638.899" y1="180.694" x2="635.504" y2="176.657"/>
	<line fill="none" stroke="#ED1F24" stroke-width="0.25" x1="798.348" y1="181.06" x2="795.135" y2="173.498"/>
	<line fill="none" stroke="#ED1F24" stroke-width="0.25" x1="671.007" y1="181.443" x2="667.593" y2="176.855"/>
	<line fill="none" stroke="#ED1F24" stroke-width="0.25" x1="671.007" y1="181.443" x2="667.593" y2="176.855"/>
	<line fill="none" stroke="#ED1F24" stroke-width="0.25" x1="605.065" y1="181.655" x2="602.582" y2="178.144"/>
	<line fill="none" stroke="#ED1F24" stroke-width="0.25" x1="159.692" y1="182.253" x2="163.697" y2="184.044"/>
	<line fill="none" stroke="#ED1F24" stroke-width="0.25" x1="798.332" y1="182.575" x2="795.17" y2="175.022"/>
	<line fill="none" stroke="#ED1F24" stroke-width="0.25" x1="613.979" y1="182.702" x2="611.346" y2="179.217"/>
	<line fill="none" stroke="#ED1F24" stroke-width="0.25" x1="613.119" y1="182.894" x2="610.478" y2="179.456"/>
	<line fill="none" stroke="#ED1F24" stroke-width="0.25" x1="353.074" y1="191.05" x2="356.896" y2="191.006"/>
	<line fill="none" stroke="#ED1F24" stroke-width="0.25" x1="158.342" y1="137.919" x2="160.142" y2="140.03"/>
	<line fill="none" stroke="#ED1F24" stroke-width="0.25" x1="229.185" y1="147.036" x2="230.943" y2="148.662"/>
	<line fill="none" stroke="#ED1F24" stroke-width="0.25" x1="229.185" y1="147.036" x2="230.943" y2="148.662"/>
	<line fill="none" stroke="#ED1F24" stroke-width="0.25" x1="333.026" y1="159.648" x2="334.739" y2="160.271"/>
	<line fill="none" stroke="#ED1F24" stroke-width="0.25" x1="309.858" y1="162.047" x2="311.777" y2="163.026"/>
	<line fill="none" stroke="#ED1F24" stroke-width="0.25" x1="210.099" y1="166.001" x2="212.722" y2="167.855"/>
	<line fill="none" stroke="#ED1F24" stroke-width="0.25" x1="155.364" y1="166.957" x2="158.535" y2="169.088"/>
	<line fill="none" stroke="#ED1F24" stroke-width="0.25" x1="2.373" y1="167.763" x2="1.878" y2="170.828"/>
	<line fill="none" stroke="#ED1F24" stroke-width="0.25" x1="166.507" y1="168.804" x2="169.959" y2="170.921"/>
	<line fill="none" stroke="#ED1F24" stroke-width="0.25" x1="143.044" y1="177.637" x2="146.566" y2="179.979"/>
	<line fill="none" stroke="#ED1F24" stroke-width="0.25" x1="576.799" y1="179.748" x2="574.568" y2="176.842"/>
	<line fill="none" stroke="#ED1F24" stroke-width="0.25" x1="605.297" y1="179.705" x2="602.647" y2="176.293"/>
	<line fill="none" stroke="#ED1F24" stroke-width="0.25" x1="393.771" y1="183.896" x2="396.521" y2="183.46"/>
	<line fill="none" stroke="#ED1F24" stroke-width="0.25" x1="836.927" y1="186.104" x2="833.523" y2="177.786"/>
	<line fill="none" stroke="#ED1F24" stroke-width="0.25" x1="152.166" y1="149.486" x2="154.251" y2="151.7"/>
	<line fill="none" stroke="#ED1F24" stroke-width="0.25" x1="209.126" y1="159.746" x2="211.466" y2="161.659"/>
	<line fill="none" stroke="#ED1F24" stroke-width="0.25" x1="574.973" y1="160.521" x2="572.482" y2="157.987"/>
	<line fill="none" stroke="#ED1F24" stroke-width="0.25" x1="153.04" y1="166.85" x2="156.294" y2="169.237"/>
	<line fill="none" stroke="#ED1F24" stroke-width="0.25" x1="215.987" y1="167.663" x2="218.512" y2="169.194"/>
	<line fill="none" stroke="#ED1F24" stroke-width="0.25" x1="26.999" y1="168.285" x2="27.279" y2="171.254"/>
	<line fill="none" stroke="#ED1F24" stroke-width="0.25" x1="218.119" y1="168.242" x2="220.703" y2="169.963"/>
	<line fill="none" stroke="#ED1F24" stroke-width="0.25" x1="362.183" y1="168.21" x2="364.243" y2="168.42"/>
	<line fill="none" stroke="#ED1F24" stroke-width="0.25" x1="127.398" y1="169.909" x2="130.207" y2="172.458"/>
	<line fill="none" stroke="#ED1F24" stroke-width="0.25" x1="3.561" y1="170.311" x2="3.289" y2="173.412"/>
	<line fill="none" stroke="#ED1F24" stroke-width="0.25" x1="818.775" y1="172.336" x2="815.326" y2="164.621"/>
	<line fill="none" stroke="#ED1F24" stroke-width="0.25" x1="818.775" y1="172.336" x2="815.326" y2="164.621"/>
	<line fill="none" stroke="#ED1F24" stroke-width="0.25" x1="95.193" y1="172.404" x2="97.672" y2="174.988"/>
	<line fill="none" stroke="#ED1F24" stroke-width="0.25" x1="564.447" y1="173.725" x2="562.675" y2="171.218"/>
	<line fill="none" stroke="#ED1F24" stroke-width="0.25" x1="892.172" y1="173.848" x2="888.661" y2="164.257"/>
	<line fill="none" stroke="#ED1F24" stroke-width="0.25" x1="643.983" y1="177.011" x2="640.526" y2="172.827"/>
	<line fill="none" stroke="#ED1F24" stroke-width="0.25" x1="134.306" y1="179.359" x2="137.684" y2="181.56"/>
	<line fill="none" stroke="#ED1F24" stroke-width="0.25" x1="640.784" y1="179.578" x2="637.418" y2="175.333"/>
	<line fill="none" stroke="#ED1F24" stroke-width="0.25" x1="132.443" y1="180.128" x2="135.852" y2="182.515"/>
	<line fill="none" stroke="#ED1F24" stroke-width="0.25" x1="700.11" y1="182.719" x2="696.817" y2="177.385"/>
	<line fill="none" stroke="#ED1F24" stroke-width="0.25" x1="809.506" y1="184.402" x2="806.425" y2="176.873"/>
	<line fill="none" stroke="#ED1F24" stroke-width="0.25" x1="753.003" y1="184.726" x2="749.759" y2="178.551"/>
	<line fill="none" stroke="#ED1F24" stroke-width="0.25" x1="177.077" y1="135.245" x2="178.761" y2="137.266"/>
	<line fill="none" stroke="#ED1F24" stroke-width="0.25" x1="175.84" y1="136.6" x2="177.538" y2="138.802"/>
	<line fill="none" stroke="#ED1F24" stroke-width="0.25" x1="175.84" y1="136.6" x2="177.538" y2="138.802"/>
	<line fill="none" stroke="#ED1F24" stroke-width="0.25" x1="224.795" y1="144.262" x2="226.517" y2="145.928"/>
	<line fill="none" stroke="#ED1F24" stroke-width="0.25" x1="160.735" y1="148.92" x2="162.602" y2="150.98"/>
	<line fill="none" stroke="#ED1F24" stroke-width="0.25" x1="573.653" y1="156.006" x2="571.12" y2="153.53"/>
	<line fill="none" stroke="#ED1F24" stroke-width="0.25" x1="12.138" y1="159.044" x2="11.7" y2="162.075"/>
	<line fill="none" stroke="#ED1F24" stroke-width="0.25" x1="894.756" y1="160.361" x2="891.277" y2="150.439"/>
	<line fill="none" stroke="#ED1F24" stroke-width="0.25" x1="219.08" y1="161.518" x2="221.451" y2="163.281"/>
	<line fill="none" stroke="#ED1F24" stroke-width="0.25" x1="223.839" y1="161.299" x2="226.194" y2="163.099"/>
	<line fill="none" stroke="#ED1F24" stroke-width="0.25" x1="209.479" y1="162.924" x2="212.039" y2="164.799"/>
	<line fill="none" stroke="#ED1F24" stroke-width="0.25" x1="209.479" y1="162.924" x2="212.039" y2="164.799"/>
	<line fill="none" stroke="#ED1F24" stroke-width="0.25" x1="222.765" y1="162.787" x2="225.154" y2="164.477"/>
	<line fill="none" stroke="#ED1F24" stroke-width="0.25" x1="212.385" y1="163.229" x2="214.793" y2="165.267"/>
	<line fill="none" stroke="#ED1F24" stroke-width="0.25" x1="216.447" y1="163.627" x2="218.869" y2="165.324"/>
	<line fill="none" stroke="#ED1F24" stroke-width="0.25" x1="895.751" y1="166.017" x2="892.39" y2="156.539"/>
	<line fill="none" stroke="#ED1F24" stroke-width="0.25" x1="8.131" y1="167.648" x2="7.983" y2="170.807"/>
	<line fill="none" stroke="#ED1F24" stroke-width="0.25" x1="890.861" y1="167.988" x2="887.367" y2="158.84"/>
	<line fill="none" stroke="#ED1F24" stroke-width="0.25" x1="896.369" y1="168.69" x2="892.938" y2="158.983"/>
	<line fill="none" stroke="#ED1F24" stroke-width="0.25" x1="896.369" y1="168.69" x2="892.938" y2="158.983"/>
	<line fill="none" stroke="#ED1F24" stroke-width="0.25" x1="903.798" y1="170.091" x2="900.478" y2="160.188"/>
	<line fill="none" stroke="#ED1F24" stroke-width="0.25" x1="1.757" y1="170.415" x2="1.25" y2="173.593"/>
	<line fill="none" stroke="#ED1F24" stroke-width="0.25" x1="97.482" y1="172.208" x2="99.922" y2="175.064"/>
	<line fill="none" stroke="#ED1F24" stroke-width="0.25" x1="776.057" y1="172.815" x2="772.61" y2="165.687"/>
	<line fill="none" stroke="#ED1F24" stroke-width="0.25" x1="776.057" y1="172.815" x2="772.61" y2="165.687"/>
	<line fill="none" stroke="#ED1F24" stroke-width="0.25" x1="814.313" y1="173.938" x2="810.806" y2="166.115"/>
	<line fill="none" stroke="#ED1F24" stroke-width="0.25" x1="151.077" y1="175.358" x2="154.393" y2="177.496"/>
	<line fill="none" stroke="#ED1F24" stroke-width="0.25" x1="98.648" y1="177.17" x2="101.215" y2="179.872"/>
	<line fill="none" stroke="#ED1F24" stroke-width="0.25" x1="139.498" y1="178.04" x2="143.132" y2="180.33"/>
	<line fill="none" stroke="#ED1F24" stroke-width="0.25" x1="149.677" y1="181.33" x2="153.511" y2="183.282"/>
	<line fill="none" stroke="#ED1F24" stroke-width="0.25" x1="838.066" y1="181.165" x2="834.758" y2="172.954"/>
	<line fill="none" stroke="#ED1F24" stroke-width="0.25" x1="458.411" y1="197.342" x2="460.982" y2="196.193"/>
	<line fill="none" stroke="#ED1F24" stroke-width="0.25" x1="173.545" y1="135.972" x2="175.45" y2="138.149"/>
	<line fill="none" stroke="#ED1F24" stroke-width="0.25" x1="439.765" y1="138.273" x2="439.727" y2="137.958"/>
	<line fill="none" stroke="#ED1F24" stroke-width="0.25" x1="160.045" y1="139.147" x2="161.74" y2="141.077"/>
	<line fill="none" stroke="#ED1F24" stroke-width="0.25" x1="152.837" y1="147.413" x2="154.813" y2="149.538"/>
	<line fill="none" stroke="#ED1F24" stroke-width="0.25" x1="152.837" y1="147.413" x2="154.813" y2="149.538"/>
	<line fill="none" stroke="#ED1F24" stroke-width="0.25" x1="14.713" y1="159.021" x2="14.197" y2="161.907"/>
	<line fill="none" stroke="#ED1F24" stroke-width="0.25" x1="129.096" y1="167.142" x2="132.005" y2="169.812"/>
	<line fill="none" stroke="#ED1F24" stroke-width="0.25" x1="129.096" y1="167.142" x2="132.005" y2="169.812"/>
	<line fill="none" stroke="#ED1F24" stroke-width="0.25" x1="5.158" y1="169.15" x2="4.861" y2="172.244"/>
	<line fill="none" stroke="#ED1F24" stroke-width="0.25" x1="217.665" y1="170.306" x2="220.292" y2="171.982"/>
	<line fill="none" stroke="#ED1F24" stroke-width="0.25" x1="889.178" y1="170.313" x2="885.542" y2="160.823"/>
	<line fill="none" stroke="#ED1F24" stroke-width="0.25" x1="573.503" y1="170.99" x2="571.362" y2="168.258"/>
	<line fill="none" stroke="#ED1F24" stroke-width="0.25" x1="581.201" y1="171.265" x2="578.835" y2="168.539"/>
	<line fill="none" stroke="#ED1F24" stroke-width="0.25" x1="140.863" y1="172.18" x2="144.111" y2="174.559"/>
	<line fill="none" stroke="#ED1F24" stroke-width="0.25" x1="895.667" y1="172.347" x2="892.255" y2="162.724"/>
	<line fill="none" stroke="#ED1F24" stroke-width="0.25" x1="142.629" y1="176.319" x2="146.208" y2="178.552"/>
	<line fill="none" stroke="#ED1F24" stroke-width="0.25" x1="827.719" y1="178.508" x2="824.081" y2="170.235"/>
	<line fill="none" stroke="#ED1F24" stroke-width="0.25" x1="137.561" y1="180.232" x2="141.018" y2="182.471"/>
	<line fill="none" stroke="#ED1F24" stroke-width="0.25" x1="908.9" y1="182.192" x2="906.111" y2="172.239"/>
	<line fill="none" stroke="#ED1F24" stroke-width="0.25" x1="156.938" y1="135.618" x2="158.153" y2="138.247"/>
	<line fill="none" stroke="#ED1F24" stroke-width="0.25" x1="309.587" y1="160.044" x2="311.511" y2="160.928"/>
	<line fill="none" stroke="#ED1F24" stroke-width="0.25" x1="307.311" y1="164.869" x2="309.529" y2="165.833"/>
	<line fill="none" stroke="#ED1F24" stroke-width="0.25" x1="307.311" y1="164.869" x2="309.529" y2="165.833"/>
	<line fill="none" stroke="#ED1F24" stroke-width="0.25" x1="822.399" y1="184.128" x2="818.974" y2="176.147"/>
	<line fill="none" stroke="#ED1F24" stroke-width="0.25" x1="424.929" y1="190.552" x2="427.551" y2="190.023"/>
	<line fill="none" stroke="#ED1F24" stroke-width="0.25" x1="823.773" y1="161.509" x2="819.85" y2="154.057"/>
	<line fill="none" stroke="#ED1F24" stroke-width="0.25" x1="572.358" y1="173.786" x2="570.013" y2="170.753"/>
	<line fill="none" stroke="#ED1F24" stroke-width="0.25" x1="722.343" y1="174.877" x2="719.082" y2="169.073"/>
	<line fill="none" stroke="#ED1F24" stroke-width="0.25" x1="811.707" y1="175.227" x2="808.486" y2="167.288"/>
	<line fill="none" stroke="#ED1F24" stroke-width="0.25" x1="811.707" y1="175.227" x2="808.486" y2="167.288"/>
	<line fill="none" stroke="#ED1F24" stroke-width="0.25" x1="709.938" y1="179.356" x2="706.431" y2="174.016"/>
	<line fill="none" stroke="#ED1F24" stroke-width="0.25" x1="810.549" y1="180.459" x2="807.219" y2="172.793"/>
	<line fill="none" stroke="#ED1F24" stroke-width="0.25" x1="696.128" y1="182.626" x2="692.984" y2="177.417"/>
	<line fill="none" stroke="#ED1F24" stroke-width="0.25" x1="571.498" y1="167.212" x2="569.285" y2="164.444"/>
</g>
</svg>
