<?xml version="1.0" encoding="utf-8"?>
<!-- Generator: Adobe Illustrator 16.0.4, SVG Export Plug-In . SVG Version: 6.00 Build 0)  -->
<!DOCTYPE svg PUBLIC "-//W3C//DTD SVG 1.1//EN" "http://www.w3.org/Graphics/SVG/1.1/DTD/svg11.dtd">
<svg version="1.1" id="svg" xmlns="http://www.w3.org/2000/svg" xmlns:xlink="http://www.w3.org/1999/xlink" x="0px" y="0px"
	 width="816px" height="612px" viewBox="0 0 816 612" enable-background="new 0 0 816 612" xml:space="preserve">
<image overflow="visible" enable-background="new    " width="3264" height="2448" xlink:href="CG04_20040707_200052.JPG"  transform="matrix(0.25 0 0 0.25 0 0)">
</image>
<image overflow="visible" enable-background="new    " width="3264" height="2448" xlink:href="CG04_20040707_200052-synth.JPG"  transform="matrix(0.25 0 0 0.25 0 0)">
</image>
<g id="points-auto">
	<line fill="none" stroke="#ED1F24" stroke-width="0.25" x1="296.865" y1="155.834" x2="300.784" y2="155.28"/>
	<line fill="none" stroke="#ED1F24" stroke-width="0.25" x1="323.443" y1="203.701" x2="328.229" y2="204.408"/>
	<line fill="none" stroke="#ED1F24" stroke-width="0.25" x1="291.912" y1="227.951" x2="296.984" y2="227.818"/>
	<line fill="none" stroke="#ED1F24" stroke-width="0.25" x1="203.893" y1="205.101" x2="207.997" y2="203.359"/>
	<line fill="none" stroke="#ED1F24" stroke-width="0.25" x1="312.052" y1="210.375" x2="316.953" y2="211.078"/>
	<line fill="none" stroke="#ED1F24" stroke-width="0.25" x1="222.83" y1="224.402" x2="227.962" y2="224.208"/>
	<line fill="none" stroke="#ED1F24" stroke-width="0.25" x1="291.091" y1="225.303" x2="296.217" y2="224.669"/>
	<line fill="none" stroke="#ED1F24" stroke-width="0.25" x1="371.039" y1="251.249" x2="375.735" y2="251.802"/>
	<line fill="none" stroke="#ED1F24" stroke-width="0.25" x1="471.931" y1="281.942" x2="474.82" y2="281.483"/>
	<line fill="none" stroke="#ED1F24" stroke-width="0.25" x1="362.143" y1="162.355" x2="366.128" y2="162.728"/>
	<line fill="none" stroke="#ED1F24" stroke-width="0.25" x1="311.417" y1="167.014" x2="315.874" y2="167.132"/>
	<line fill="none" stroke="#ED1F24" stroke-width="0.25" x1="168.922" y1="201.315" x2="172.851" y2="200.353"/>
	<line fill="none" stroke="#ED1F24" stroke-width="0.25" x1="203.163" y1="204.082" x2="207.221" y2="202.818"/>
	<line fill="none" stroke="#ED1F24" stroke-width="0.25" x1="194.644" y1="223.861" x2="199.207" y2="223.427"/>
	<line fill="none" stroke="#ED1F24" stroke-width="0.25" x1="292.896" y1="231.458" x2="298.027" y2="231.361"/>
	<line fill="none" stroke="#ED1F24" stroke-width="0.25" x1="294.778" y1="239.392" x2="299.835" y2="238.816"/>
	<line fill="none" stroke="#ED1F24" stroke-width="0.25" x1="242.913" y1="240.079" x2="248.439" y2="240.098"/>
	<line fill="none" stroke="#ED1F24" stroke-width="0.25" x1="563.06" y1="278.23" x2="566.081" y2="277.786"/>
	<line fill="none" stroke="#ED1F24" stroke-width="0.25" x1="166.228" y1="206.74" x2="170.195" y2="205.929"/>
	<line fill="none" stroke="#ED1F24" stroke-width="0.25" x1="377.616" y1="223.745" x2="382.32" y2="224.252"/>
	<line fill="none" stroke="#ED1F24" stroke-width="0.25" x1="371.827" y1="250.267" x2="376.391" y2="250.693"/>
	<line fill="none" stroke="#ED1F24" stroke-width="0.25" x1="371.827" y1="250.267" x2="376.391" y2="250.693"/>
	<line fill="none" stroke="#ED1F24" stroke-width="0.25" x1="447.551" y1="283.731" x2="451.028" y2="283.15"/>
	<line fill="none" stroke="#ED1F24" stroke-width="0.25" x1="293.6" y1="191.968" x2="298.359" y2="192.029"/>
	<line fill="none" stroke="#ED1F24" stroke-width="0.25" x1="201.686" y1="196.459" x2="205.995" y2="196.155"/>
	<line fill="none" stroke="#ED1F24" stroke-width="0.25" x1="210.443" y1="214.468" x2="215.188" y2="214.488"/>
	<line fill="none" stroke="#ED1F24" stroke-width="0.25" x1="277.84" y1="220.443" x2="281.945" y2="220.001"/>
	<line fill="none" stroke="#ED1F24" stroke-width="0.25" x1="310.483" y1="166.665" x2="314.851" y2="166.672"/>
	<line fill="none" stroke="#ED1F24" stroke-width="0.25" x1="310.483" y1="166.665" x2="314.851" y2="166.672"/>
	<line fill="none" stroke="#ED1F24" stroke-width="0.25" x1="310.3" y1="170.999" x2="314.658" y2="171.375"/>
	<line fill="none" stroke="#ED1F24" stroke-width="0.25" x1="253.066" y1="206.146" x2="258.458" y2="206.805"/>
	<line fill="none" stroke="#ED1F24" stroke-width="0.25" x1="293.82" y1="233.196" x2="298.984" y2="232.644"/>
	<line fill="none" stroke="#ED1F24" stroke-width="0.25" x1="288.604" y1="243.727" x2="293.909" y2="243.529"/>
	<line fill="none" stroke="#ED1F24" stroke-width="0.25" x1="283.294" y1="246.696" x2="288.783" y2="247.087"/>
	<line fill="none" stroke="#ED1F24" stroke-width="0.25" x1="292.574" y1="247.136" x2="297.738" y2="247.311"/>
	<line fill="none" stroke="#ED1F24" stroke-width="0.25" x1="282.835" y1="250.823" x2="288.275" y2="251.131"/>
	<line fill="none" stroke="#ED1F24" stroke-width="0.25" x1="282.835" y1="250.823" x2="288.275" y2="251.131"/>
	<line fill="none" stroke="#ED1F24" stroke-width="0.25" x1="300.785" y1="161.731" x2="304.761" y2="161.298"/>
	<line fill="none" stroke="#ED1F24" stroke-width="0.25" x1="294.485" y1="241.52" x2="299.562" y2="241.134"/>
	<line fill="none" stroke="#ED1F24" stroke-width="0.25" x1="285.292" y1="247.855" x2="290.937" y2="248.62"/>
	<line fill="none" stroke="#ED1F24" stroke-width="0.25" x1="285.292" y1="247.855" x2="290.937" y2="248.62"/>
	<line fill="none" stroke="#ED1F24" stroke-width="0.25" x1="296.918" y1="258.635" x2="302.756" y2="258.97"/>
	<line fill="none" stroke="#ED1F24" stroke-width="0.25" x1="241.654" y1="239.696" x2="247.396" y2="239.652"/>
	<line fill="none" stroke="#ED1F24" stroke-width="0.25" x1="286.859" y1="243.872" x2="292.238" y2="243.926"/>
	<line fill="none" stroke="#ED1F24" stroke-width="0.25" x1="285.478" y1="149.074" x2="289.757" y2="149.364"/>
	<line fill="none" stroke="#ED1F24" stroke-width="0.25" x1="210.293" y1="216.674" x2="215.347" y2="216.572"/>
	<line fill="none" stroke="#ED1F24" stroke-width="0.25" x1="278.366" y1="219.433" x2="283.227" y2="219.293"/>
	<line fill="none" stroke="#ED1F24" stroke-width="0.25" x1="166.533" y1="201.318" x2="170.457" y2="200.023"/>
	<line fill="none" stroke="#ED1F24" stroke-width="0.25" x1="292.906" y1="149.229" x2="296.938" y2="149.402"/>
	<line fill="none" stroke="#ED1F24" stroke-width="0.25" x1="228.933" y1="273.039" x2="234.589" y2="274.299"/>
	<line fill="none" stroke="#ED1F24" stroke-width="0.25" x1="290.604" y1="255.328" x2="296.286" y2="255.253"/>
	<line fill="none" stroke="#ED1F24" stroke-width="0.25" x1="286.68" y1="260.69" x2="291.285" y2="261.194"/>
</g>
<g id="points">
	<line fill="none" stroke="#ED1F24" stroke-width="0.25" x1="161.083" y1="185" x2="164.583" y2="184.583"/>
	<line fill="none" stroke="#ED1F24" stroke-width="0.25" x1="111.833" y1="192.75" x2="113.083" y2="191.75"/>
	<line fill="none" stroke="#ED1F24" stroke-width="0.25" x1="79.188" y1="182.125" x2="78.625" y2="179.562"/>
	<line fill="none" stroke="#ED1F24" stroke-width="0.25" x1="66.625" y1="203.438" x2="66" y2="201.75"/>
	<line fill="none" stroke="#ED1F24" stroke-width="0.25" x1="54.375" y1="239.875" x2="53.938" y2="239.125"/>
	<line fill="none" stroke="#ED1F24" stroke-width="0.25" x1="91.375" y1="237.312" x2="92.875" y2="236.25"/>
	<line fill="none" stroke="#ED1F24" stroke-width="0.25" x1="112.75" y1="193" x2="114.062" y2="192"/>
	<line fill="none" stroke="#ED1F24" stroke-width="0.25" x1="123.5" y1="204.125" x2="126.062" y2="203.125"/>
	<line fill="none" stroke="#ED1F24" stroke-width="0.25" x1="183.688" y1="225.5" x2="188.188" y2="225.125"/>
	<line fill="none" stroke="#ED1F24" stroke-width="0.25" x1="292.38" y1="130.484" x2="296.292" y2="130.764"/>
	<line fill="none" stroke="#ED1F24" stroke-width="0.25" x1="327.405" y1="142.408" x2="331.312" y2="142.938"/>
	<line fill="none" stroke="#ED1F24" stroke-width="0.25" x1="309.75" y1="192.312" x2="314.938" y2="193.812"/>
	<line fill="none" stroke="#ED1F24" stroke-width="0.25" x1="386.75" y1="209.812" x2="390.312" y2="209.75"/>
	<line fill="none" stroke="#ED1F24" stroke-width="0.25" x1="465.625" y1="248.542" x2="468.542" y2="247.958"/>
	<line fill="none" stroke="#ED1F24" stroke-width="0.25" x1="508.075" y1="257.959" x2="510.841" y2="257.514"/>
	<line fill="none" stroke="#ED1F24" stroke-width="0.25" x1="512.841" y1="263.244" x2="515.532" y2="263.021"/>
	<line fill="none" stroke="#ED1F24" stroke-width="0.25" x1="409.59" y1="204.605" x2="412.951" y2="205.104"/>
	<line fill="none" stroke="#ED1F24" stroke-width="0.25" x1="571.119" y1="275.485" x2="574.111" y2="274.552"/>
	<line fill="none" stroke="#ED1F24" stroke-width="0.25" x1="35.062" y1="210.062" x2="32.5" y2="208.375"/>
	<line fill="none" stroke="#ED1F24" stroke-width="0.25" x1="89.562" y1="176.875" x2="89.438" y2="174.875"/>
	<line fill="none" stroke="#ED1F24" stroke-width="0.25" x1="95.844" y1="239.568" x2="97.675" y2="238.682"/>
	<line fill="none" stroke="#ED1F24" stroke-width="0.25" x1="301.812" y1="184.625" x2="306.438" y2="185.438"/>
	<line fill="none" stroke="#ED1F24" stroke-width="0.25" x1="271.688" y1="198.5" x2="276.688" y2="198.438"/>
</g>
<g id="lines">
	<g id="Layer_3">
		<polyline id="synth" display="none" fill="none" stroke="#ED1F24" stroke-width="0.25" points="464.682,352.037 491.587,351.742 
			531.5,352 552.75,352.75 585.25,355 624.5,356.75 651.75,358.25 686.75,360.75 720.25,363.25 752.75,365 789.75,368.25 816,370 		
			"/>
		<polyline id="image" fill="none" stroke="#ED1F24" stroke-width="0.25" points="484.25,352.75 521,352.5 563.75,354.25 
			597.75,355.75 637.25,358.25 673.25,360 706,362.5 753.5,365.75 784.5,368 		"/>
	</g>
	<g id="Layer_4">
		<polyline id="synth_1_" display="none" fill="none" stroke="#ED1F24" stroke-width="0.25" points="465.75,316 491.75,316.25 
			525.5,317 552.25,318.25 578.75,318.5 610.5,319 641.25,319.75 653.25,320.25 673.5,321.5 699.75,323 730.25,325.25 759.5,328 
			793.25,331 814.75,333.25 		"/>
		<polyline id="image_1_" fill="none" stroke="#ED1F24" stroke-width="0.25" points="492.5,317.25 522,317.25 563,318.5 
			592.75,318.75 620.75,320 655,321 685.5,323.5 730,326.75 765.75,330.25 776.75,331.5 		"/>
	</g>
</g>
</svg>
