<?xml version="1.0" encoding="utf-8"?>
<!-- Generator: Adobe Illustrator 16.0.4, SVG Export Plug-In . SVG Version: 6.00 Build 0)  -->
<!DOCTYPE svg PUBLIC "-//W3C//DTD SVG 1.1//EN" "http://www.w3.org/Graphics/SVG/1.1/DTD/svg11.dtd">
<svg version="1.1" id="svg" xmlns="http://www.w3.org/2000/svg" xmlns:xlink="http://www.w3.org/1999/xlink" x="0px" y="0px"
	 width="636px" height="424px" viewBox="0 0 636 424" enable-background="new 0 0 636 424" xml:space="preserve">
<image overflow="visible" enable-background="new    " width="2544" height="1696" xlink:href="CG06_20060712_195953.JPG"  transform="matrix(0.25 0 0 0.25 0 0)">
</image>
<image overflow="visible" enable-background="new    " width="2544" height="1696" xlink:href="CG06_20060712_195953-synth.JPG"  transform="matrix(0.25 0 0 0.25 0 0)">
</image>
<g id="points-auto">
	<line fill="none" stroke="#ED1F24" stroke-width="0.25" x1="161.836" y1="141.176" x2="159.289" y2="139.545"/>
	<line fill="none" stroke="#ED1F24" stroke-width="0.25" x1="167.122" y1="146.515" x2="164.613" y2="145.271"/>
	<line fill="none" stroke="#ED1F24" stroke-width="0.25" x1="165.444" y1="112.081" x2="162.933" y2="110.229"/>
	<line fill="none" stroke="#ED1F24" stroke-width="0.25" x1="176.514" y1="119.678" x2="174.746" y2="118.502"/>
	<line fill="none" stroke="#ED1F24" stroke-width="0.25" x1="158.358" y1="138.544" x2="155.77" y2="137.121"/>
	<line fill="none" stroke="#ED1F24" stroke-width="0.25" x1="162.419" y1="138.713" x2="159.979" y2="137.102"/>
	<line fill="none" stroke="#ED1F24" stroke-width="0.25" x1="173.21" y1="153.557" x2="171.375" y2="152.505"/>
	<line fill="none" stroke="#ED1F24" stroke-width="0.25" x1="193.947" y1="220.83" x2="192.494" y2="221.191"/>
	<line fill="none" stroke="#ED1F24" stroke-width="0.25" x1="151.619" y1="225.871" x2="148.334" y2="226.009"/>
	<line fill="none" stroke="#ED1F24" stroke-width="0.25" x1="153.748" y1="108.66" x2="150.801" y2="106.521"/>
	<line fill="none" stroke="#ED1F24" stroke-width="0.25" x1="153.748" y1="108.66" x2="150.801" y2="106.521"/>
	<line fill="none" stroke="#ED1F24" stroke-width="0.25" x1="152.657" y1="109.674" x2="149.739" y2="107.49"/>
	<line fill="none" stroke="#ED1F24" stroke-width="0.25" x1="152.657" y1="109.674" x2="149.739" y2="107.49"/>
	<line fill="none" stroke="#ED1F24" stroke-width="0.25" x1="145.906" y1="130.407" x2="142.899" y2="128.792"/>
	<line fill="none" stroke="#ED1F24" stroke-width="0.25" x1="185.116" y1="155.427" x2="183.764" y2="154.386"/>
	<line fill="none" stroke="#ED1F24" stroke-width="0.25" x1="148.435" y1="158.463" x2="145.56" y2="157.226"/>
	<line fill="none" stroke="#ED1F24" stroke-width="0.25" x1="175.793" y1="118.36" x2="173.807" y2="117.121"/>
	<line fill="none" stroke="#ED1F24" stroke-width="0.25" x1="138.699" y1="128.498" x2="135.732" y2="127.055"/>
	<line fill="none" stroke="#ED1F24" stroke-width="0.25" x1="140.164" y1="128.429" x2="137.021" y2="126.467"/>
	<line fill="none" stroke="#ED1F24" stroke-width="0.25" x1="147.308" y1="129.551" x2="144.591" y2="128.174"/>
	<line fill="none" stroke="#ED1F24" stroke-width="0.25" x1="162.764" y1="143.147" x2="159.928" y2="141.796"/>
	<line fill="none" stroke="#ED1F24" stroke-width="0.25" x1="148.752" y1="203.483" x2="145.741" y2="202.965"/>
	<line fill="none" stroke="#ED1F24" stroke-width="0.25" x1="148.823" y1="204.937" x2="146.09" y2="204.763"/>
	<line fill="none" stroke="#ED1F24" stroke-width="0.25" x1="155.988" y1="210.161" x2="153.224" y2="210.013"/>
	<line fill="none" stroke="#ED1F24" stroke-width="0.25" x1="161.447" y1="110.895" x2="158.991" y2="109.033"/>
	<line fill="none" stroke="#ED1F24" stroke-width="0.25" x1="144.972" y1="111.159" x2="141.852" y2="108.829"/>
	<line fill="none" stroke="#ED1F24" stroke-width="0.25" x1="161.249" y1="141.802" x2="158.652" y2="140.209"/>
	<line fill="none" stroke="#ED1F24" stroke-width="0.25" x1="267.937" y1="219.794" x2="267.436" y2="220.691"/>
	<line fill="none" stroke="#ED1F24" stroke-width="0.25" x1="171.746" y1="117.556" x2="169.795" y2="116.12"/>
	<line fill="none" stroke="#ED1F24" stroke-width="0.25" x1="142.085" y1="128.421" x2="139.096" y2="126.423"/>
	<line fill="none" stroke="#ED1F24" stroke-width="0.25" x1="153.077" y1="135.298" x2="150.194" y2="133.85"/>
	<line fill="none" stroke="#ED1F24" stroke-width="0.25" x1="161.183" y1="138.416" x2="158.747" y2="136.761"/>
	<line fill="none" stroke="#ED1F24" stroke-width="0.25" x1="48.552" y1="170.503" x2="41.038" y2="169.167"/>
	<line fill="none" stroke="#ED1F24" stroke-width="0.25" x1="151.144" y1="109.174" x2="148.153" y2="107.124"/>
	<line fill="none" stroke="#ED1F24" stroke-width="0.25" x1="178.547" y1="153.668" x2="177.054" y2="152.937"/>
	<line fill="none" stroke="#ED1F24" stroke-width="0.25" x1="178.547" y1="153.668" x2="177.054" y2="152.937"/>
	<line fill="none" stroke="#ED1F24" stroke-width="0.25" x1="150.485" y1="209.164" x2="147.545" y2="208.998"/>
	<line fill="none" stroke="#ED1F24" stroke-width="0.25" x1="154.103" y1="209.591" x2="151.349" y2="209.278"/>
	<line fill="none" stroke="#ED1F24" stroke-width="0.25" x1="156.979" y1="210.574" x2="154.128" y2="210.706"/>
	<line fill="none" stroke="#ED1F24" stroke-width="0.25" x1="148.428" y1="206.619" x2="145.91" y2="206.116"/>
	<line fill="none" stroke="#ED1F24" stroke-width="0.25" x1="167.571" y1="109.315" x2="164.824" y2="107.665"/>
	<line fill="none" stroke="#ED1F24" stroke-width="0.25" x1="159.922" y1="139.53" x2="157.308" y2="138.471"/>
</g>
<g id="points">
	<line fill="none" stroke="#ED1F24" stroke-width="0.25" x1="297.5" y1="183.375" x2="297.854" y2="183.604"/>
	<line fill="none" stroke="#ED1F24" stroke-width="0.25" x1="300.354" y1="184.625" x2="300.812" y2="184.854"/>
	<line fill="none" stroke="#ED1F24" stroke-width="0.25" x1="285.083" y1="194.854" x2="285.375" y2="195.146"/>
	<line fill="none" stroke="#ED1F24" stroke-width="0.25" x1="285.688" y1="203.792" x2="285.771" y2="204.312"/>
	<line fill="none" stroke="#ED1F24" stroke-width="0.25" x1="301.354" y1="211.625" x2="301.625" y2="212.104"/>
	<line fill="none" stroke="#ED1F24" stroke-width="0.25" x1="331.562" y1="202.875" x2="331.896" y2="204.104"/>
</g>
</svg>
