<?xml version="1.0" encoding="utf-8"?>
<!-- Generator: Adobe Illustrator 16.0.4, SVG Export Plug-In . SVG Version: 6.00 Build 0)  -->
<!DOCTYPE svg PUBLIC "-//W3C//DTD SVG 1.1//EN" "http://www.w3.org/Graphics/SVG/1.1/DTD/svg11.dtd">
<svg version="1.1" id="svg" xmlns="http://www.w3.org/2000/svg" xmlns:xlink="http://www.w3.org/1999/xlink" x="0px" y="0px"
	 width="636px" height="424px" viewBox="0 0 636 424" enable-background="new 0 0 636 424" xml:space="preserve">
<image overflow="visible" enable-background="new    " width="2544" height="1696" xlink:href="CG06_20060727_195951.JPG"  transform="matrix(0.25 0 0 0.25 0 0)">
</image>
<image overflow="visible" enable-background="new    " width="2544" height="1696" xlink:href="CG06_20060727_195951-synth.JPG"  transform="matrix(0.25 0 0 0.25 0 0)">
</image>
<g id="points-auto">
	<line fill="none" stroke="#ED1F24" stroke-width="0.25" x1="149.95" y1="105.492" x2="145.953" y2="105.579"/>
	<line fill="none" stroke="#ED1F24" stroke-width="0.25" x1="142.369" y1="156.844" x2="139.291" y2="157.77"/>
	<line fill="none" stroke="#ED1F24" stroke-width="0.25" x1="64.251" y1="163.351" x2="57.515" y2="165.209"/>
	<line fill="none" stroke="#ED1F24" stroke-width="0.25" x1="127.55" y1="170.883" x2="123.992" y2="172.502"/>
	<line fill="none" stroke="#ED1F24" stroke-width="0.25" x1="148.901" y1="196.711" x2="146.487" y2="198.63"/>
	<line fill="none" stroke="#ED1F24" stroke-width="0.25" x1="143.188" y1="197.345" x2="140.571" y2="199.213"/>
	<line fill="none" stroke="#ED1F24" stroke-width="0.25" x1="295.817" y1="204.146" x2="296.403" y2="204.812"/>
	<line fill="none" stroke="#ED1F24" stroke-width="0.25" x1="50.151" y1="229.246" x2="42.815" y2="233.229"/>
	<line fill="none" stroke="#ED1F24" stroke-width="0.25" x1="46.61" y1="229.723" x2="39.289" y2="233.651"/>
	<line fill="none" stroke="#ED1F24" stroke-width="0.25" x1="38.63" y1="233.443" x2="30.847" y2="237.508"/>
	<line fill="none" stroke="#ED1F24" stroke-width="0.25" x1="150.158" y1="106.241" x2="146.519" y2="106.297"/>
	<line fill="none" stroke="#ED1F24" stroke-width="0.25" x1="150.045" y1="107.305" x2="146.167" y2="107.401"/>
	<line fill="none" stroke="#ED1F24" stroke-width="0.25" x1="137.101" y1="123.169" x2="133.13" y2="123.831"/>
	<line fill="none" stroke="#ED1F24" stroke-width="0.25" x1="148.642" y1="129.739" x2="145.223" y2="130.539"/>
	<line fill="none" stroke="#ED1F24" stroke-width="0.25" x1="149.543" y1="130.855" x2="146.146" y2="131.695"/>
	<line fill="none" stroke="#ED1F24" stroke-width="0.25" x1="136.6" y1="154.125" x2="133.145" y2="155.533"/>
	<line fill="none" stroke="#ED1F24" stroke-width="0.25" x1="56.421" y1="164.069" x2="49.045" y2="165.99"/>
	<line fill="none" stroke="#ED1F24" stroke-width="0.25" x1="189.531" y1="166.854" x2="187.895" y2="168.144"/>
	<line fill="none" stroke="#ED1F24" stroke-width="0.25" x1="152.01" y1="169.992" x2="149.538" y2="171.349"/>
	<line fill="none" stroke="#ED1F24" stroke-width="0.25" x1="44.885" y1="173.426" x2="37.312" y2="175.497"/>
	<line fill="none" stroke="#ED1F24" stroke-width="0.25" x1="118.223" y1="176.791" x2="114.275" y2="178.692"/>
	<line fill="none" stroke="#ED1F24" stroke-width="0.25" x1="114.148" y1="177.261" x2="110.084" y2="179.155"/>
	<line fill="none" stroke="#ED1F24" stroke-width="0.25" x1="147.004" y1="179.61" x2="144.32" y2="181.077"/>
	<line fill="none" stroke="#ED1F24" stroke-width="0.25" x1="157.648" y1="182.494" x2="155.31" y2="184.164"/>
	<line fill="none" stroke="#ED1F24" stroke-width="0.25" x1="106.95" y1="187.478" x2="102.75" y2="189.499"/>
	<line fill="none" stroke="#ED1F24" stroke-width="0.25" x1="116.748" y1="187.629" x2="112.896" y2="189.61"/>
	<line fill="none" stroke="#ED1F24" stroke-width="0.25" x1="155.683" y1="188.798" x2="153.24" y2="190.496"/>
	<line fill="none" stroke="#ED1F24" stroke-width="0.25" x1="291.018" y1="192.161" x2="291.528" y2="192.528"/>
	<line fill="none" stroke="#ED1F24" stroke-width="0.25" x1="188.722" y1="201.947" x2="187.756" y2="203.924"/>
	<line fill="none" stroke="#ED1F24" stroke-width="0.25" x1="279.267" y1="202.877" x2="279.683" y2="203.558"/>
	<line fill="none" stroke="#ED1F24" stroke-width="0.25" x1="294.88" y1="203.866" x2="295.591" y2="204.39"/>
	<line fill="none" stroke="#ED1F24" stroke-width="0.25" x1="151.01" y1="205.88" x2="148.636" y2="207.839"/>
	<line fill="none" stroke="#ED1F24" stroke-width="0.25" x1="280.519" y1="220.256" x2="281.035" y2="221.711"/>
	<line fill="none" stroke="#ED1F24" stroke-width="0.25" x1="28.746" y1="235.225" x2="20.373" y2="238.906"/>
	<line fill="none" stroke="#ED1F24" stroke-width="0.25" x1="146.868" y1="105.954" x2="142.964" y2="106.206"/>
	<line fill="none" stroke="#ED1F24" stroke-width="0.25" x1="178.19" y1="118.311" x2="175.487" y2="118.688"/>
	<line fill="none" stroke="#ED1F24" stroke-width="0.25" x1="146.106" y1="126.486" x2="142.224" y2="127.386"/>
	<line fill="none" stroke="#ED1F24" stroke-width="0.25" x1="153.256" y1="133.932" x2="149.914" y2="134.651"/>
	<line fill="none" stroke="#ED1F24" stroke-width="0.25" x1="159.056" y1="136.47" x2="155.926" y2="137.232"/>
	<line fill="none" stroke="#ED1F24" stroke-width="0.25" x1="159.691" y1="138.459" x2="156.663" y2="139.228"/>
	<line fill="none" stroke="#ED1F24" stroke-width="0.25" x1="176.559" y1="148.884" x2="174.171" y2="149.795"/>
	<line fill="none" stroke="#ED1F24" stroke-width="0.25" x1="172.138" y1="162.571" x2="169.761" y2="163.66"/>
	<line fill="none" stroke="#ED1F24" stroke-width="0.25" x1="172.138" y1="162.571" x2="169.761" y2="163.66"/>
	<line fill="none" stroke="#ED1F24" stroke-width="0.25" x1="197.606" y1="166.46" x2="196.229" y2="167.586"/>
	<line fill="none" stroke="#ED1F24" stroke-width="0.25" x1="45.542" y1="166.604" x2="37.732" y2="168.395"/>
	<line fill="none" stroke="#ED1F24" stroke-width="0.25" x1="40.834" y1="167.91" x2="32.773" y2="169.982"/>
	<line fill="none" stroke="#ED1F24" stroke-width="0.25" x1="46.969" y1="169.718" x2="39.289" y2="171.932"/>
	<line fill="none" stroke="#ED1F24" stroke-width="0.25" x1="161.312" y1="176.354" x2="158.983" y2="177.567"/>
	<line fill="none" stroke="#ED1F24" stroke-width="0.25" x1="119.959" y1="177.776" x2="116.179" y2="179.528"/>
	<line fill="none" stroke="#ED1F24" stroke-width="0.25" x1="141.807" y1="178.618" x2="138.895" y2="180.377"/>
	<line fill="none" stroke="#ED1F24" stroke-width="0.25" x1="149.684" y1="186.366" x2="147.175" y2="188.167"/>
	<line fill="none" stroke="#ED1F24" stroke-width="0.25" x1="149.69" y1="186.375" x2="147.175" y2="188.167"/>
	<line fill="none" stroke="#ED1F24" stroke-width="0.25" x1="176.229" y1="197.29" x2="174.66" y2="198.901"/>
	<line fill="none" stroke="#ED1F24" stroke-width="0.25" x1="175.126" y1="198.054" x2="173.843" y2="199.392"/>
	<line fill="none" stroke="#ED1F24" stroke-width="0.25" x1="216.552" y1="198.63" x2="215.894" y2="200.165"/>
	<line fill="none" stroke="#ED1F24" stroke-width="0.25" x1="144.186" y1="202.922" x2="141.82" y2="205.188"/>
	<line fill="none" stroke="#ED1F24" stroke-width="0.25" x1="157.859" y1="206.602" x2="155.727" y2="208.745"/>
	<line fill="none" stroke="#ED1F24" stroke-width="0.25" x1="127.731" y1="221.065" x2="124.848" y2="223.579"/>
	<line fill="none" stroke="#ED1F24" stroke-width="0.25" x1="25.58" y1="234.056" x2="17.166" y2="238.246"/>
	<line fill="none" stroke="#ED1F24" stroke-width="0.25" x1="26.309" y1="235.164" x2="17.746" y2="239.32"/>
	<line fill="none" stroke="#ED1F24" stroke-width="0.25" x1="182.338" y1="151.99" x2="180.241" y2="153.071"/>
	<line fill="none" stroke="#ED1F24" stroke-width="0.25" x1="42.28" y1="154.347" x2="34.129" y2="156.104"/>
	<line fill="none" stroke="#ED1F24" stroke-width="0.25" x1="188.534" y1="164.369" x2="186.977" y2="165.364"/>
	<line fill="none" stroke="#ED1F24" stroke-width="0.25" x1="45.545" y1="166.541" x2="37.732" y2="168.395"/>
	<line fill="none" stroke="#ED1F24" stroke-width="0.25" x1="40.094" y1="166.818" x2="32.163" y2="169.014"/>
	<line fill="none" stroke="#ED1F24" stroke-width="0.25" x1="31.849" y1="169.191" x2="23.434" y2="171.426"/>
	<line fill="none" stroke="#ED1F24" stroke-width="0.25" x1="184.737" y1="169.302" x2="183.052" y2="170.54"/>
	<line fill="none" stroke="#ED1F24" stroke-width="0.25" x1="138.468" y1="177.037" x2="135.132" y2="178.528"/>
	<line fill="none" stroke="#ED1F24" stroke-width="0.25" x1="121.342" y1="178.446" x2="117.67" y2="180.044"/>
	<line fill="none" stroke="#ED1F24" stroke-width="0.25" x1="146.625" y1="181.09" x2="143.942" y2="182.935"/>
	<line fill="none" stroke="#ED1F24" stroke-width="0.25" x1="158.958" y1="181.519" x2="156.546" y2="183.11"/>
	<line fill="none" stroke="#ED1F24" stroke-width="0.25" x1="136.304" y1="184.888" x2="133.021" y2="186.812"/>
	<line fill="none" stroke="#ED1F24" stroke-width="0.25" x1="256.149" y1="199.301" x2="256.232" y2="200.602"/>
	<line fill="none" stroke="#ED1F24" stroke-width="0.25" x1="148.304" y1="199.458" x2="146.019" y2="201.207"/>
	<line fill="none" stroke="#ED1F24" stroke-width="0.25" x1="270.979" y1="213.535" x2="271.457" y2="214.525"/>
	<line fill="none" stroke="#ED1F24" stroke-width="0.25" x1="149.14" y1="103.679" x2="144.835" y2="103.375"/>
	<line fill="none" stroke="#ED1F24" stroke-width="0.25" x1="149.14" y1="103.679" x2="144.835" y2="103.375"/>
	<line fill="none" stroke="#ED1F24" stroke-width="0.25" x1="148.205" y1="105.535" x2="144.282" y2="105.679"/>
	<line fill="none" stroke="#ED1F24" stroke-width="0.25" x1="148.205" y1="105.535" x2="144.282" y2="105.679"/>
	<line fill="none" stroke="#ED1F24" stroke-width="0.25" x1="130.199" y1="114.997" x2="126.109" y2="115.268"/>
	<line fill="none" stroke="#ED1F24" stroke-width="0.25" x1="145.334" y1="129.486" x2="142.166" y2="130.036"/>
	<line fill="none" stroke="#ED1F24" stroke-width="0.25" x1="151.4" y1="132.02" x2="148.191" y2="132.854"/>
	<line fill="none" stroke="#ED1F24" stroke-width="0.25" x1="189.477" y1="153.243" x2="187.79" y2="154.044"/>
	<line fill="none" stroke="#ED1F24" stroke-width="0.25" x1="50.357" y1="166.077" x2="42.856" y2="168.071"/>
	<line fill="none" stroke="#ED1F24" stroke-width="0.25" x1="182.309" y1="171.758" x2="180.735" y2="173.07"/>
	<line fill="none" stroke="#ED1F24" stroke-width="0.25" x1="301.904" y1="171.754" x2="302.106" y2="171.985"/>
	<line fill="none" stroke="#ED1F24" stroke-width="0.25" x1="47.813" y1="173.662" x2="40.178" y2="175.747"/>
	<line fill="none" stroke="#ED1F24" stroke-width="0.25" x1="52.783" y1="174.025" x2="45.551" y2="176.237"/>
	<line fill="none" stroke="#ED1F24" stroke-width="0.25" x1="173.177" y1="180.982" x2="171.258" y2="182.312"/>
	<line fill="none" stroke="#ED1F24" stroke-width="0.25" x1="155.463" y1="186.948" x2="153.164" y2="188.414"/>
	<line fill="none" stroke="#ED1F24" stroke-width="0.25" x1="163.486" y1="204.857" x2="162.034" y2="206.638"/>
	<line fill="none" stroke="#ED1F24" stroke-width="0.25" x1="314.037" y1="210.622" x2="315.046" y2="211.692"/>
	<line fill="none" stroke="#ED1F24" stroke-width="0.25" x1="33.032" y1="221.783" x2="24.716" y2="225.664"/>
	<line fill="none" stroke="#ED1F24" stroke-width="0.25" x1="292.5" y1="223.076" x2="292.999" y2="224.458"/>
	<line fill="none" stroke="#ED1F24" stroke-width="0.25" x1="38.645" y1="226.176" x2="31.058" y2="230.317"/>
	<line fill="none" stroke="#ED1F24" stroke-width="0.25" x1="96.375" y1="226.451" x2="91.984" y2="229.797"/>
	<line fill="none" stroke="#ED1F24" stroke-width="0.25" x1="30.445" y1="237.545" x2="22.04" y2="241.764"/>
	<line fill="none" stroke="#ED1F24" stroke-width="0.25" x1="161.338" y1="137.145" x2="158.69" y2="137.998"/>
	<line fill="none" stroke="#ED1F24" stroke-width="0.25" x1="163.459" y1="138.617" x2="160.973" y2="139.787"/>
	<line fill="none" stroke="#ED1F24" stroke-width="0.25" x1="138.845" y1="147.655" x2="135.485" y2="149.168"/>
	<line fill="none" stroke="#ED1F24" stroke-width="0.25" x1="181.243" y1="149.821" x2="178.991" y2="151.049"/>
	<line fill="none" stroke="#ED1F24" stroke-width="0.25" x1="177.987" y1="150.561" x2="176.024" y2="151.577"/>
	<line fill="none" stroke="#ED1F24" stroke-width="0.25" x1="177.987" y1="150.561" x2="176.024" y2="151.577"/>
	<line fill="none" stroke="#ED1F24" stroke-width="0.25" x1="136.085" y1="152.315" x2="132.423" y2="153.129"/>
	<line fill="none" stroke="#ED1F24" stroke-width="0.25" x1="144.271" y1="156.483" x2="141.279" y2="157.698"/>
	<line fill="none" stroke="#ED1F24" stroke-width="0.25" x1="169.252" y1="167.309" x2="167.009" y2="168.402"/>
	<line fill="none" stroke="#ED1F24" stroke-width="0.25" x1="125.632" y1="170.338" x2="122.452" y2="172.207"/>
	<line fill="none" stroke="#ED1F24" stroke-width="0.25" x1="48.213" y1="231.455" x2="40.998" y2="235.192"/>
	<line fill="none" stroke="#ED1F24" stroke-width="0.25" x1="138.569" y1="123.061" x2="134.651" y2="123.668"/>
	<line fill="none" stroke="#ED1F24" stroke-width="0.25" x1="56.795" y1="176.485" x2="50.013" y2="178.724"/>
	<line fill="none" stroke="#ED1F24" stroke-width="0.25" x1="149.415" y1="181.296" x2="146.881" y2="183.088"/>
	<line fill="none" stroke="#ED1F24" stroke-width="0.25" x1="149.415" y1="181.296" x2="146.881" y2="183.088"/>
	<line fill="none" stroke="#ED1F24" stroke-width="0.25" x1="203.201" y1="209.286" x2="202.283" y2="210.842"/>
	<line fill="none" stroke="#ED1F24" stroke-width="0.25" x1="273.036" y1="212.101" x2="273.502" y2="212.934"/>
	<line fill="none" stroke="#ED1F24" stroke-width="0.25" x1="194.888" y1="215.438" x2="194.168" y2="217.318"/>
	<line fill="none" stroke="#ED1F24" stroke-width="0.25" x1="168.606" y1="223.16" x2="166.834" y2="225.619"/>
	<line fill="none" stroke="#ED1F24" stroke-width="0.25" x1="131.106" y1="193.981" x2="128.246" y2="196.042"/>
	<line fill="none" stroke="#ED1F24" stroke-width="0.25" x1="145.742" y1="200.533" x2="143.222" y2="202.33"/>
	<line fill="none" stroke="#ED1F24" stroke-width="0.25" x1="229.719" y1="215.032" x2="229.298" y2="216.833"/>
	<line fill="none" stroke="#ED1F24" stroke-width="0.25" x1="167.542" y1="216.684" x2="165.289" y2="219.027"/>
	<line fill="none" stroke="#ED1F24" stroke-width="0.25" x1="290.535" y1="217.72" x2="291.413" y2="218.985"/>
	<line fill="none" stroke="#ED1F24" stroke-width="0.25" x1="168.253" y1="220.084" x2="166.237" y2="222.708"/>
	<line fill="none" stroke="#ED1F24" stroke-width="0.25" x1="100.202" y1="226.533" x2="95.587" y2="229.715"/>
	<line fill="none" stroke="#ED1F24" stroke-width="0.25" x1="166.069" y1="105.869" x2="162.653" y2="106.078"/>
	<line fill="none" stroke="#ED1F24" stroke-width="0.25" x1="112.458" y1="113.374" x2="107.818" y2="113.998"/>
	<line fill="none" stroke="#ED1F24" stroke-width="0.25" x1="144.076" y1="130.905" x2="139.657" y2="131.295"/>
	<line fill="none" stroke="#ED1F24" stroke-width="0.25" x1="73.413" y1="163.477" x2="67.329" y2="164.138"/>
	<line fill="none" stroke="#ED1F24" stroke-width="0.25" x1="149.796" y1="191.551" x2="147.661" y2="193.245"/>
	<line fill="none" stroke="#ED1F24" stroke-width="0.25" x1="163.279" y1="166.114" x2="161.182" y2="167.194"/>
	<line fill="none" stroke="#ED1F24" stroke-width="0.25" x1="172.005" y1="166.062" x2="169.744" y2="166.833"/>
	<line fill="none" stroke="#ED1F24" stroke-width="0.25" x1="266.829" y1="219.119" x2="267.013" y2="220.846"/>
	<line fill="none" stroke="#ED1F24" stroke-width="0.25" x1="29.282" y1="256.002" x2="21.191" y2="260.074"/>
	<line fill="none" stroke="#ED1F24" stroke-width="0.25" x1="147.865" y1="169.71" x2="144.845" y2="170.749"/>
	<line fill="none" stroke="#ED1F24" stroke-width="0.25" x1="158.564" y1="214.889" x2="155.838" y2="217.896"/>
	<line fill="none" stroke="#ED1F24" stroke-width="0.25" x1="161.521" y1="201.869" x2="160.271" y2="204"/>
</g>
<g id="points">
	<line fill="none" stroke="#ED1F24" stroke-width="0.25" x1="283.258" y1="185.532" x2="283.573" y2="185.889"/>
	<line fill="none" stroke="#ED1F24" stroke-width="0.25" x1="298.25" y1="186.749" x2="298.733" y2="187.295"/>
	<line fill="none" stroke="#ED1F24" stroke-width="0.25" x1="296.646" y1="178.417" x2="297.146" y2="178.896"/>
	<line fill="none" stroke="#ED1F24" stroke-width="0.25" x1="299.479" y1="179.75" x2="299.875" y2="180.271"/>
	<line fill="none" stroke="#ED1F24" stroke-width="0.25" x1="311.875" y1="190.906" x2="312.625" y2="191.094"/>
	<line fill="none" stroke="#ED1F24" stroke-width="0.25" x1="323.141" y1="194.391" x2="324.125" y2="195.141"/>
	<line fill="none" stroke="#ED1F24" stroke-width="0.25" x1="257.375" y1="172.667" x2="257.125" y2="173.708"/>
	<line fill="none" stroke="#ED1F24" stroke-width="0.25" x1="230.156" y1="162.562" x2="229.25" y2="163.406"/>
	<line fill="none" stroke="#ED1F24" stroke-width="0.25" x1="221.344" y1="182.938" x2="220.594" y2="184.5"/>
	<line fill="none" stroke="#ED1F24" stroke-width="0.25" x1="264.875" y1="175" x2="264.625" y2="175.656"/>
	<line fill="none" stroke="#ED1F24" stroke-width="0.25" x1="259.594" y1="186.469" x2="259.562" y2="187.438"/>
</g>
</svg>
